<svg width="160" height="160" viewBox="0 0 160 160" fill="none" xmlns="http://www.w3.org/2000/svg">
<g filter="url(#filter0_d)">
<path d="M80 135C110.376 135 135 110.376 135 80C135 49.6243 110.376 25 80 25C49.6243 25 25 49.6243 25 80C25 110.376 49.6243 135 80 135Z" fill="white"/>
</g>
<path d="M47.8472 96.9829H46.4131V101.557H47.7115C48.5255 101.557 49.1457 101.363 49.572 100.956C49.9984 100.549 50.2116 99.9869 50.2116 99.231C50.2116 98.5333 49.9984 97.9713 49.5914 97.5837C49.1651 97.1767 48.5837 96.9829 47.8472 96.9829ZM47.7891 100.743H47.3821V97.7775H47.9053C48.7775 97.7775 49.2038 98.262 49.2038 99.2504C49.2038 100.239 48.7387 100.743 47.7891 100.743Z" fill="#405174"/>
<path d="M53.0596 101.537H55.6952V100.743H54.0286V99.5605H55.579V98.7659H54.0286V97.7775H55.6952V96.9829H53.0596V101.537Z" fill="#405174"/>
<path d="M60.3082 99.6962C60.1725 100.181 60.095 100.51 60.0756 100.704C60.0562 100.626 60.0369 100.471 59.9787 100.258C59.9206 100.045 59.8818 99.8512 59.8237 99.6962L58.971 96.9829H58.002L59.5524 101.557H60.5989L62.1493 96.9829H61.1803L60.3082 99.6962Z" fill="#405174"/>
<path d="M64.6289 101.537H67.2646V100.743H65.5979V99.5605H67.1483V98.7659H65.5979V97.7775H67.2646V96.9829H64.6289V101.537Z" fill="#405174"/>
<path d="M71.1028 96.9829H70.1338V101.537H72.9633V100.743H71.1028V96.9829Z" fill="#405174"/>
<path d="M77.653 96.9043C76.9553 96.9043 76.4127 97.0981 76.0444 97.5051C75.6762 97.9121 75.4824 98.4935 75.4824 99.2493C75.4824 100.005 75.6762 100.587 76.0444 100.993C76.4127 101.4 76.9553 101.594 77.653 101.594C78.3507 101.594 78.8933 101.381 79.2615 100.993C79.6298 100.587 79.8236 100.005 79.8236 99.2493C79.8236 98.4935 79.6298 97.9121 79.2615 97.5051C78.8739 97.0981 78.3507 96.9043 77.653 96.9043ZM77.6336 100.8C77.246 100.8 76.9553 100.664 76.7615 100.412C76.5677 100.16 76.4708 99.7725 76.4708 99.2687C76.4708 98.7648 76.5677 98.3772 76.7615 98.1059C76.9553 97.8539 77.246 97.7183 77.6336 97.7183C78.4088 97.7183 78.777 98.2415 78.777 99.2687C78.7964 100.276 78.4088 100.8 77.6336 100.8Z" fill="#405174"/>
<path d="M84.1254 96.9829H82.6719V101.557H83.6409V99.9287H84.0479C84.6099 99.9287 85.0556 99.7931 85.3657 99.5411C85.6758 99.2892 85.8308 98.9016 85.8308 98.4171C85.8308 97.9519 85.6952 97.5837 85.4045 97.3511C85.1138 97.0992 84.6874 96.9829 84.1254 96.9829ZM84.6293 98.9403C84.4742 99.0566 84.261 99.1147 83.9703 99.1147H83.6409V97.7581H84.0866C84.3579 97.7581 84.5517 97.8163 84.668 97.9132C84.7843 98.0295 84.8618 98.1845 84.8618 98.4171C84.8424 98.669 84.7843 98.824 84.6293 98.9403Z" fill="#405174"/>
<path d="M91.0251 100.471L89.9204 96.9829H88.6025V101.557H89.4746V99.4248C89.4746 99.1729 89.4553 98.6884 89.4165 97.9713H89.4359L90.5406 101.557H91.4321L92.6142 97.9907H92.6336C92.6142 98.5721 92.5949 98.9209 92.5949 99.0566C92.5949 99.1923 92.5949 99.3086 92.5949 99.4055V101.557H93.5057V96.9829H92.1685L91.0251 100.471Z" fill="#405174"/>
<path d="M96.5488 101.537H99.1846V100.743H97.5179V99.5605H99.0683V98.7659H97.5179V97.7775H99.1846V96.9829H96.5488V101.537Z" fill="#405174"/>
<path d="M105.23 99.1341C105.23 99.3861 105.249 99.7931 105.269 100.394H105.249L103.273 96.9829H102.052V101.557H102.924V99.4055C102.924 99.1535 102.904 98.7078 102.866 98.107H102.885L104.862 101.557H106.083V96.9829H105.211V99.1341H105.23Z" fill="#405174"/>
<path d="M108.72 97.7775H109.96V101.537H110.929V97.7775H112.169V96.9829H108.72V97.7775Z" fill="#405174"/>
<path d="M126.975 87.3114L120.153 72.1174L124.707 62.0591L124.455 61.9429L119.998 71.7686L117.517 66.2259H117.382H114.668H114.533L105.075 87.292H107.924L110.676 81.1873H115.754L110.889 91.9432L111.141 92.0595L118.738 75.257L124.145 87.2726H126.975V87.3114ZM116.916 78.5903H111.839L116.025 69.2685L118.564 74.9469L116.916 78.5903Z" fill="#405174"/>
<path d="M91.2567 76.0128L97.5746 62.0591L97.3226 61.9429L95.0745 66.8848C94.842 66.7685 94.59 66.6522 94.3381 66.5553C92.9621 66.0127 91.4892 65.722 89.9388 65.722C86.8768 65.722 84.2799 66.7879 82.1481 68.9003C80.0162 71.0321 78.9697 73.6291 78.9697 76.7493C78.9697 79.8501 80.0356 82.4664 82.1481 84.5982C83.2721 85.7222 84.5318 86.5362 85.9272 87.0788L83.7178 91.982L83.9698 92.0983L86.1985 87.1757C87.3613 87.5827 88.6016 87.7959 89.9388 87.7959C93.1365 87.7959 95.7335 86.7494 97.6908 84.6757C99.435 82.9315 100.307 80.5865 100.307 77.6214C100.307 77.1175 100.249 76.5748 100.152 76.0322H91.2567V76.0128ZM84.1248 82.7958C82.555 81.1873 81.7605 79.1718 81.7605 76.7493C81.7605 74.3267 82.555 72.3112 84.1248 70.7027C85.714 69.1135 87.6714 68.3189 89.9582 68.3189C91.1404 68.3189 92.2451 68.5321 93.2722 68.9778C93.5241 69.0747 93.7567 69.2104 93.9699 69.3267L87.0318 84.6563C85.9659 84.2881 84.9775 83.6679 84.1248 82.7958ZM95.2102 83.416C93.8148 84.5982 92.0706 85.1796 89.9582 85.1796C89.0086 85.1796 88.1171 85.0439 87.3031 84.7726L90.1132 78.5516H97.6133C97.4001 80.6059 96.6056 82.2338 95.2102 83.416Z" fill="#405174"/>
<path d="M46.5094 77.7961C45.7342 76.9047 44.5133 76.1295 42.8466 75.4705L48.6219 62.7379L48.3699 62.6216L45.9862 67.9123C45.6761 67.5829 45.3079 67.2534 44.9009 66.9821C43.7187 66.1487 42.3233 65.7418 40.7148 65.7418C38.8931 65.7418 37.3427 66.2844 36.083 67.3891C34.8426 68.4937 34.2225 69.8116 34.2225 71.362C34.2225 73.5907 35.3465 75.2574 37.5752 76.4008C37.9822 76.614 39.0481 77.021 40.7342 77.6411C40.9861 77.7186 41.2187 77.8155 41.4512 77.893L38.4861 84.4435C38.2729 84.3078 38.0791 84.1722 37.8853 84.0171C37.4589 83.6489 37.0907 83.2226 36.7806 82.6993C36.4706 82.1954 36.2186 81.614 36.0442 80.9939L33.4473 82.0598C33.9511 83.8233 34.8814 85.2187 36.2186 86.2458C36.5868 86.5172 36.9551 86.7497 37.3427 86.9629L34.7651 92.6413L35.0171 92.7575L37.5946 87.0792C38.583 87.5443 39.6683 87.7769 40.8311 87.7769C42.7885 87.7769 44.4745 87.2342 45.8505 86.1296C47.2071 85.0055 47.8854 83.5326 47.8854 81.6722C47.866 80.1411 47.4203 78.8427 46.5094 77.7961ZM41.9164 75.1217C39.8039 74.4046 38.4473 73.7651 37.8272 73.2418C37.2651 72.7186 36.9744 72.079 36.9744 71.362C36.9744 70.4705 37.3427 69.7534 38.0597 69.2108C38.7962 68.6294 39.6877 68.3193 40.7342 68.3193C41.7419 68.3193 42.5947 68.5713 43.2923 69.0945C43.9319 69.579 44.3583 70.1604 44.6102 70.8581L42.5753 75.3543C42.3621 75.2961 42.1489 75.1992 41.9164 75.1217ZM43.9125 84.2303C43.1179 84.8699 42.1102 85.1799 40.8698 85.1799C40.3078 85.1799 39.7652 85.083 39.2419 84.8699C39.0481 84.7923 38.8737 84.6954 38.6799 84.5985L41.6644 78.0093C42.8078 78.4745 43.6218 78.9396 44.1063 79.4047C44.7652 80.0249 45.0753 80.7807 45.0753 81.6722C45.0947 82.7381 44.7071 83.5908 43.9125 84.2303Z" fill="#405174"/>
<path d="M72.362 62.0591L72.11 61.9429L67.672 71.7685L65.2301 66.3228L67.1681 62.0591L66.9162 61.9429L64.9782 66.2452H62.4781L64.3774 62.0591L64.1254 61.9429L50.54 91.9625L50.792 92.0788L52.9625 87.3113H55.4626L53.3501 91.9625L53.6021 92.0788L58.5246 81.2066H63.4278L58.5634 91.9625L58.8153 92.0788L66.4317 75.2763L71.8387 87.3113H74.6876L67.8077 72.098L72.362 62.0591ZM64.5518 78.5903H59.6487L63.7766 69.4817L66.2185 74.9275L64.5518 78.5903Z" fill="#405174"/>
<defs>
<filter id="filter0_d" x="0" y="0" width="160" height="160" filterUnits="userSpaceOnUse" color-interpolation-filters="sRGB">
<feFlood flood-opacity="0" result="BackgroundImageFix"/>
<feColorMatrix in="SourceAlpha" type="matrix" values="0 0 0 0 0 0 0 0 0 0 0 0 0 0 0 0 0 0 127 0"/>
<feOffset/>
<feGaussianBlur stdDeviation="12.5"/>
<feColorMatrix type="matrix" values="0 0 0 0 0 0 0 0 0 0 0 0 0 0 0 0 0 0 0.05 0"/>
<feBlend mode="normal" in2="BackgroundImageFix" result="effect1_dropShadow"/>
<feBlend mode="normal" in="SourceGraphic" in2="effect1_dropShadow" result="shape"/>
</filter>
</defs>
</svg>
