<svg width="116" height="56" viewBox="0 0 116 56" fill="none" xmlns="http://www.w3.org/2000/svg">
<path d="M4.48353 39.8761C4.41303 39.8761 4.34252 39.8761 4.20151 39.8761C4.0605 39.8761 3.95475 39.8761 3.81374 39.8761V42.5729C3.81374 42.9277 3.81374 43.2116 3.81374 43.46C3.81374 43.7084 3.77848 43.8858 3.77848 44.0632L5.4706 43.9568V44.7729H0.923043V44.1697C1.27557 44.1697 1.52233 44.0987 1.69859 43.9922C1.87486 43.8858 1.98061 43.7084 2.05112 43.5309C2.12162 43.318 2.15688 43.1051 2.15688 42.8213C2.15688 42.5374 2.15688 42.2535 2.15688 41.9342V33.9147C2.15688 33.6663 2.15688 33.4179 2.15688 33.205C2.15688 32.9921 2.19213 32.7792 2.19213 32.5663L0.852539 32.6373V31.8211C1.48708 31.8211 2.15688 31.7856 2.86192 31.7856C3.53172 31.7856 4.23676 31.7856 4.97706 31.7856C6.77493 31.7856 8.11452 32.105 9.06634 32.7082C10.0534 33.3824 10.5469 34.3405 10.5469 35.6179C10.5469 35.8663 10.5117 36.1502 10.4764 36.4696C10.4059 36.7889 10.3002 37.1083 10.1239 37.4277C9.94765 37.747 9.70088 38.0664 9.41886 38.3857C9.10159 38.7051 8.74907 38.9535 8.29079 39.2019C7.83251 39.4148 7.26847 39.6277 6.63393 39.7341C6.06989 39.8051 5.32959 39.8761 4.48353 39.8761ZM3.81374 39.0954C4.02525 39.1309 4.23677 39.1309 4.41303 39.1664C4.58929 39.1664 4.8008 39.1664 5.01232 39.1664C5.5411 39.1664 6.03464 39.0954 6.49292 38.918C6.9512 38.7761 7.37423 38.5277 7.72675 38.2438C8.07927 37.9599 8.36129 37.5696 8.53755 37.1438C8.74907 36.718 8.85482 36.2212 8.85482 35.6889C8.85482 35.0857 8.74907 34.5889 8.57281 34.1986C8.39655 33.7728 8.11452 33.4534 7.79725 33.205C7.44473 32.9566 7.05695 32.7792 6.59867 32.6373C6.14039 32.5308 5.61161 32.4598 5.04757 32.4598C4.7303 32.4598 4.48353 32.4953 4.30727 32.6018C4.13101 32.7082 4.02525 32.8502 3.95475 33.0631C3.88424 33.2405 3.84899 33.4889 3.84899 33.7728C3.84899 34.0566 3.84899 34.3405 3.84899 34.6599V39.0954H3.81374Z" fill="black"/>
<path d="M19.0433 39.2726L12.5569 39.3791C12.5569 40.0887 12.5921 40.7275 12.7331 41.3307C12.8389 41.8984 13.0151 42.3952 13.2619 42.821C13.5087 43.2468 13.8259 43.5662 14.2137 43.7791C14.6015 43.992 15.0598 44.0985 15.6238 44.0985C15.9058 44.0985 16.2231 44.063 16.5051 43.992C16.8224 43.921 17.1044 43.8146 17.3864 43.6726C17.6684 43.5307 17.9152 43.3888 18.162 43.1759C18.4087 42.9984 18.585 42.7855 18.7613 42.5726L19.2195 42.9275C18.9728 43.3178 18.6908 43.6372 18.3382 43.921C18.021 44.2049 17.6684 44.4178 17.3159 44.5952C16.9634 44.7727 16.6109 44.8791 16.2231 44.9501C15.8706 45.0211 15.518 45.0565 15.2008 45.0565C14.5662 45.0565 13.9669 44.9501 13.4382 44.7017C12.8741 44.4888 12.4158 44.1339 11.9928 43.7081C11.605 43.2823 11.2878 42.7501 11.041 42.1468C10.7942 41.5436 10.6885 40.8694 10.6885 40.0887C10.6885 39.45 10.7942 38.8113 11.0057 38.2081C11.2173 37.6048 11.5345 37.0726 11.9576 36.6113C12.3806 36.15 12.8389 35.7951 13.4382 35.5113C14.0022 35.2274 14.6367 35.0854 15.3418 35.0854C15.8353 35.0854 16.3289 35.1564 16.7871 35.3338C17.2454 35.5113 17.6332 35.7597 17.9857 36.079C18.3382 36.4339 18.585 36.8597 18.7965 37.3564C18.9728 37.9952 19.0433 38.5984 19.0433 39.2726ZM15.3418 35.9016C14.6367 35.9016 14.0375 36.1145 13.5439 36.5403C13.0856 36.9661 12.7684 37.6403 12.6274 38.5984H17.3159C17.3159 38.279 17.2807 37.9597 17.2102 37.6403C17.1397 37.321 17.0339 37.0371 16.8576 36.7887C16.6814 36.5403 16.5051 36.3274 16.2231 36.15C16.0116 35.9726 15.6943 35.9016 15.3418 35.9016Z" fill="black"/>
<path d="M25.3177 36.1855C25.071 36.1855 24.8594 36.2209 24.6127 36.3274C24.3659 36.4338 24.1192 36.5758 23.9076 36.7532C23.6609 36.9306 23.4494 37.1435 23.2378 37.3919C23.0263 37.6403 22.8501 37.9242 22.6738 38.2435L22.7091 42.821C22.7091 43.0694 22.7091 43.2823 22.7091 43.4952C22.7091 43.6726 22.6738 43.8855 22.6385 44.0985L23.8019 44.0275V44.7727H19.9946V44.2049C20.2766 44.2049 20.4882 44.1339 20.6292 44.0275C20.7702 43.921 20.8759 43.7436 20.9464 43.5662C21.0169 43.3533 21.0522 43.1404 21.0522 42.8565C21.0522 42.5726 21.0522 42.2888 21.0522 41.9339V37.6758C21.0522 37.4984 21.0522 37.2855 21.0522 37.108C21.0522 36.8951 21.0874 36.7177 21.1227 36.5048L19.8184 36.5758V35.8306H20.3824C20.6292 35.8306 20.8759 35.8306 21.0522 35.7951C21.2285 35.7596 21.3695 35.7242 21.4752 35.6887C21.581 35.6532 21.6867 35.5822 21.7572 35.5467C21.8277 35.4758 21.8983 35.4403 21.9688 35.3693H22.4975C22.5328 35.5467 22.5328 35.7951 22.5328 36.079C22.5328 36.3629 22.568 36.7532 22.568 37.179C22.7091 36.9661 22.8853 36.7177 23.0968 36.4693C23.3083 36.2209 23.5551 36.0435 23.8371 35.8306C24.1191 35.6532 24.4012 35.5113 24.7184 35.3693C25.0357 35.2629 25.353 35.1919 25.6703 35.1919C25.8465 35.1919 25.9875 35.2274 26.1638 35.2629C26.34 35.2983 26.4458 35.3693 26.5868 35.4758C26.6926 35.5822 26.7983 35.6887 26.8688 35.8306C26.9393 35.9725 26.9746 36.15 26.9746 36.3629C26.9746 36.4338 26.9746 36.5403 26.9393 36.6468C26.9041 36.7532 26.8688 36.8597 26.7631 36.9306C26.6926 37.0371 26.5868 37.108 26.4811 37.1435C26.3753 37.2145 26.2343 37.25 26.058 37.25C25.917 37.25 25.8113 37.2145 25.6703 37.1435C25.5645 37.0726 25.4587 37.0016 25.3882 36.8951C25.3177 36.7887 25.2472 36.6822 25.212 36.5758C25.3177 36.4338 25.2825 36.3274 25.3177 36.1855Z" fill="black"/>
<path d="M33.3555 31.6075C33.2498 31.501 33.144 31.3946 33.003 31.3591C32.862 31.3236 32.721 31.2881 32.58 31.2881C32.298 31.2881 32.0512 31.3591 31.8749 31.501C31.6987 31.643 31.5577 31.7849 31.4166 31.9978C31.3109 32.2107 31.2404 32.4591 31.1699 32.7075C31.1346 32.9559 31.0994 33.2398 31.0994 33.4882V35.4398H33.6023V36.1495L31.0994 36.185L31.1346 42.7496C31.1346 42.998 31.1346 43.2109 31.1346 43.4238C31.1346 43.6012 31.0994 43.8141 31.0641 44.027L32.2274 43.956V44.7012H28.4554V44.1335C28.7375 44.1335 28.949 44.0625 29.09 43.956C29.231 43.8496 29.3368 43.6722 29.4073 43.4947C29.4778 43.2818 29.513 43.0689 29.513 42.785C29.513 42.5012 29.513 42.2173 29.513 41.8625L29.4778 36.185L27.9619 36.2205V35.3688H29.4778V34.9785C29.4778 34.3043 29.5483 33.6656 29.654 33.1333C29.7598 32.6011 29.9713 32.1043 30.2181 31.7494C30.4648 31.3591 30.8174 31.0752 31.2404 30.8623C31.6634 30.6494 32.1922 30.543 32.7915 30.543C33.003 30.543 33.2145 30.5785 33.426 30.6139C33.6728 30.6494 33.8843 30.7559 34.0606 30.8623C34.2721 30.9688 34.4131 31.1107 34.5541 31.2881C34.6951 31.4656 34.7656 31.6785 34.7656 31.9269C34.7656 32.1752 34.6951 32.3882 34.5541 32.5301C34.4131 32.672 34.2368 32.7785 33.9901 32.7785C33.8491 32.7785 33.7081 32.743 33.6023 32.7075C33.4965 32.672 33.426 32.6011 33.3555 32.5301C33.285 32.4591 33.2498 32.3527 33.2145 32.2817C33.1793 32.1752 33.1793 32.1043 33.1793 32.0333C33.1793 31.9623 33.1793 31.8914 33.2145 31.8204C33.285 31.7849 33.3203 31.714 33.3555 31.6075Z" fill="black"/>
<path d="M42.5199 39.2726L36.0335 39.3791C36.0335 40.0887 36.0688 40.7275 36.2098 41.3307C36.3155 41.8984 36.4918 42.3952 36.7386 42.821C36.9853 43.2468 37.3026 43.5662 37.6904 43.7791C38.0781 43.992 38.5364 44.0985 39.1005 44.0985C39.3825 44.0985 39.6998 44.063 39.9818 43.992C40.299 43.921 40.5811 43.8146 40.8631 43.6726C41.1451 43.5307 41.3919 43.3888 41.6386 43.1759C41.8854 42.9984 42.0617 42.7855 42.2379 42.5726L42.6962 42.9275C42.4494 43.3178 42.1674 43.6372 41.8149 43.921C41.4976 44.2049 41.1451 44.4178 40.7926 44.5952C40.4401 44.7727 40.0875 44.8791 39.6998 44.9501C39.3472 45.0211 38.9947 45.0565 38.6774 45.0565C38.0429 45.0565 37.4436 44.9501 36.8796 44.7017C36.3155 44.4888 35.8572 44.1339 35.4342 43.7081C35.0464 43.2823 34.7292 42.7501 34.4824 42.1468C34.2356 41.5436 34.1299 40.8694 34.1299 40.0887C34.1299 39.45 34.2356 38.8113 34.4472 38.2081C34.6587 37.6048 34.9759 37.0726 35.399 36.6113C35.822 36.15 36.2803 35.7951 36.8796 35.5113C37.4436 35.2274 38.0781 35.0854 38.7832 35.0854C39.2767 35.0854 39.7703 35.1564 40.2285 35.3338C40.6868 35.5113 41.0746 35.7597 41.4271 36.079C41.7796 36.4339 42.0264 36.8597 42.2379 37.3564C42.4142 37.9952 42.5199 38.5984 42.5199 39.2726ZM38.7832 35.9016C38.0781 35.9016 37.4789 36.1145 36.9853 36.5403C36.527 36.9661 36.2098 37.6403 36.0688 38.5984H40.7573C40.7573 38.279 40.7221 37.9597 40.6516 37.6403C40.5811 37.321 40.4753 37.0371 40.299 36.7887C40.1228 36.5403 39.9465 36.3274 39.6645 36.15C39.453 35.9726 39.1357 35.9016 38.7832 35.9016Z" fill="black"/>
<path d="M50.1356 36.8951C50.0651 36.6822 49.9241 36.5048 49.7831 36.3629C49.6069 36.2209 49.4306 36.1145 49.2543 36.0435C49.0781 35.9726 48.8666 35.9371 48.6903 35.9016C48.514 35.8661 48.3378 35.8661 48.232 35.8661C47.809 35.8661 47.4212 35.9371 47.0687 36.1145C46.7162 36.2919 46.3989 36.5403 46.1169 36.8597C45.8349 37.179 45.6586 37.6048 45.4823 38.1016C45.3413 38.5984 45.2356 39.1661 45.2356 39.8049C45.2356 40.4081 45.3061 40.9758 45.4823 41.5081C45.6233 42.0404 45.8349 42.4662 46.1169 42.8565C46.3989 43.2468 46.7162 43.5307 47.1039 43.7436C47.4917 43.9565 47.9147 44.063 48.4083 44.063C48.6903 44.063 48.9723 44.0275 49.2543 43.9565C49.5363 43.8856 49.8184 43.7791 50.0651 43.6017C50.3119 43.4597 50.5587 43.2823 50.7702 43.1049C50.9817 42.9275 51.158 42.7146 51.299 42.4662L51.7925 42.821C51.5457 43.2114 51.2637 43.5307 50.9464 43.8146C50.6292 44.0985 50.3119 44.3114 49.9594 44.4888C49.6069 44.6662 49.2543 44.8081 48.9018 44.8791C48.5493 44.9501 48.232 45.021 47.9147 45.021C47.2802 45.021 46.7162 44.9146 46.1521 44.7017C45.5881 44.4888 45.1298 44.1694 44.7068 43.7791C44.2837 43.3533 43.9665 42.8565 43.7197 42.2888C43.4729 41.6855 43.3672 41.0113 43.3672 40.2662C43.3672 39.8403 43.4024 39.4145 43.5082 38.9887C43.614 38.5629 43.755 38.1726 43.9665 37.7823C44.178 37.3919 44.3895 37.0371 44.6715 36.7177C44.9535 36.3984 45.2708 36.1145 45.6233 35.8661C45.9759 35.6177 46.3636 35.4403 46.7867 35.2984C47.2097 35.1564 47.668 35.0854 48.1263 35.0854C48.6198 35.0854 49.1133 35.1564 49.5363 35.2629C49.9594 35.4048 50.3119 35.5467 50.6292 35.7597C50.9464 35.9726 51.158 36.2209 51.3342 36.5048C51.5105 36.7887 51.581 37.0726 51.581 37.3564C51.581 37.6403 51.5105 37.8532 51.3695 38.0306C51.2285 38.2081 51.0169 38.3145 50.7349 38.3145C50.5587 38.3145 50.4529 38.279 50.3119 38.2436C50.2061 38.1726 50.1004 38.1016 50.0651 38.0306C49.9946 37.9597 49.9594 37.8532 49.9241 37.7468C49.8889 37.6403 49.8889 37.5693 49.8889 37.4629C49.8889 37.3564 49.9241 37.2145 49.9594 37.0726C49.9241 37.1081 50.0299 37.0016 50.1356 36.8951Z" fill="black"/>
<path d="M52.3564 35.4759C52.6737 35.4759 52.991 35.3695 53.2378 35.1921C53.5198 35.0146 53.7313 34.8017 53.9428 34.5533C54.1543 34.305 54.3306 34.0211 54.4363 33.7017C54.5773 33.3824 54.6831 33.0985 54.7536 32.8501H55.3882C55.3882 33.3469 55.3882 33.8082 55.3882 34.234C55.3882 34.6598 55.3882 35.0856 55.3882 35.4405H58.4904V36.1501L55.3882 36.1856C55.3882 37.0018 55.3882 37.676 55.3882 38.2437C55.3882 38.8115 55.3882 39.2728 55.3882 39.6631C55.3882 40.0534 55.3882 40.3373 55.3882 40.5502C55.3882 40.7631 55.3882 40.9405 55.3882 41.047C55.3882 41.1534 55.3882 41.2244 55.3882 41.2599C55.3882 41.2954 55.3882 41.2954 55.3882 41.3308C55.3882 41.7567 55.4234 42.1115 55.4587 42.4663C55.4939 42.7857 55.5644 43.0696 55.7054 43.2825C55.8112 43.4954 55.9522 43.6728 56.1284 43.7793C56.3047 43.8857 56.5162 43.9567 56.7982 43.9567C57.1155 43.9567 57.4328 43.8502 57.7501 43.6728C58.0673 43.4954 58.3493 43.2115 58.5961 42.8567L59.0896 43.2825C58.8076 43.7083 58.5609 44.0277 58.2788 44.2406C57.9968 44.4889 57.7501 44.6664 57.5033 44.7728C57.2565 44.8793 57.045 44.9502 56.8335 44.9857C56.622 45.0212 56.4457 45.0212 56.3047 45.0212C56.1284 45.0212 55.9169 45.0212 55.7407 44.9857C55.5292 44.9502 55.3529 44.8793 55.1766 44.8083C55.0004 44.7373 54.8241 44.5954 54.6478 44.4535C54.4716 44.276 54.3306 44.0986 54.2248 43.8147C54.0838 43.5664 54.0133 43.247 53.9428 42.8922C53.8723 42.5373 53.837 42.1115 53.837 41.6147L53.7665 36.2566H52.3564V35.4759Z" fill="black"/>
<path d="M68.9258 13.3678C68.5028 13.3678 68.1855 13.0484 68.1855 12.6226C68.1855 12.1968 68.5028 11.8774 68.9258 11.8774C69.3489 11.8774 69.6662 12.2323 69.6662 12.6226C69.6662 13.0129 69.3489 13.3678 68.9258 13.3678Z" fill="#006241"/>
<path d="M47.21 13.3697C46.787 13.3697 46.4697 13.0504 46.4697 12.6246C46.4697 12.1988 46.787 11.8794 47.21 11.8794C47.6331 11.8794 47.9503 12.2342 47.9503 12.6246C47.9503 13.0149 47.5978 13.3697 47.21 13.3697Z" fill="#006241"/>
<path d="M58.0684 11.9855C57.6454 11.9855 57.3281 11.6661 57.3281 11.2403C57.3281 10.8145 57.6454 10.4951 58.0684 10.4951C58.4914 10.4951 58.8087 10.85 58.8087 11.2403C58.8087 11.6661 58.4914 11.9855 58.0684 11.9855Z" fill="#006241"/>
<path d="M84.331 8.93288C84.1547 8.68449 81.7928 9.25224 81.0878 9.14578C80.4885 8.93288 80.1712 8.25868 79.6424 8.25868C78.9374 8.22319 78.4439 8.68449 78.4439 9.35869C78.4439 9.42966 78.4439 9.53611 78.4791 9.60708C78.0208 10.849 75.9762 11.8781 74.6719 11.6652C72.733 11.3813 72.3452 9.81999 71.9927 8.54255C71.8164 7.93932 72.7682 8.08125 72.9092 7.22963C73.015 6.51995 72.6272 5.91672 71.6754 5.66833C72.1689 5.52639 72.4862 5.13606 72.4862 4.67476C72.4862 4.10702 72.3804 3.32636 71.5696 3.18443C70.8293 3.04249 70.0538 4.10702 70.0538 4.67476C70.0538 5.02961 70.2653 5.34897 70.5826 5.52639C69.1725 5.56187 68.1149 5.98768 68.2207 6.91028C68.2559 7.22963 68.5027 7.51351 68.3969 7.7619C68.2912 8.01029 65.9645 10.1039 64.4134 10.1039C62.7566 10.1039 60.3946 7.9748 60.2184 7.19415C60.1831 7.19415 61.2407 6.59092 61.3465 5.9522C61.4875 4.78122 60.4651 3.89411 59.2313 3.53927C59.3723 3.32636 59.4428 3.07797 59.4428 2.82958C59.4428 2.1199 58.8435 0.665039 58.1737 0.665039C58.1385 0.665039 58.1385 0.665039 58.1032 0.665039C58.068 0.665039 58.068 0.665039 58.0327 0.665039C57.3629 0.665039 56.7637 2.1199 56.7637 2.82958C56.7637 3.07797 56.8342 3.32636 56.9752 3.53927C55.7413 3.89411 54.719 4.78122 54.86 5.9522C54.9305 6.59092 56.0234 7.19415 55.9881 7.19415C55.8118 7.9748 53.4499 10.1039 51.7931 10.1039C50.242 10.1039 47.9153 8.01029 47.8096 7.7619C47.7038 7.51351 47.9506 7.26512 47.9858 6.91028C48.0916 5.98768 47.034 5.56187 45.6239 5.52639C45.9412 5.34897 46.1527 5.02961 46.1527 4.67476C46.1527 4.10702 45.3771 3.04249 44.6368 3.18443C43.826 3.32636 43.7203 4.10702 43.7203 4.67476C43.7203 5.13606 44.0728 5.52639 44.5311 5.66833C43.5793 5.91672 43.1915 6.51995 43.2972 7.22963C43.4383 8.11674 44.3901 7.93932 44.2138 8.54255C43.8613 9.81999 43.4383 11.3813 41.5346 11.6652C40.2303 11.8781 38.1857 10.8135 37.7274 9.60708C37.7274 9.53611 37.7626 9.46514 37.7626 9.35869C37.7626 8.68449 37.2691 8.22319 36.564 8.25868C36.0353 8.29416 35.718 8.93288 35.1187 9.14578C34.4137 9.25224 32.0517 8.71997 31.8755 8.93288C31.8755 8.93288 31.6992 9.1103 31.6992 9.35869C31.6992 9.53611 40.3008 16.7039 40.9706 17.591C41.6051 18.4427 42.4159 23.7653 42.7685 24.8653C42.8037 25.0073 42.839 25.1137 42.9095 25.2202C43.8965 26.4621 51.5111 27.2783 58.0327 27.2783C58.068 27.2783 58.1032 27.2783 58.1385 27.2783C58.1737 27.2783 58.209 27.2783 58.2442 27.2783C64.7659 27.2783 72.3805 26.4621 73.3675 25.2202C73.4733 25.1137 73.5085 24.9718 73.5085 24.8653C73.861 23.7653 74.6719 18.4427 75.3064 17.591C75.9762 16.7039 84.5778 9.53611 84.5778 9.35869C84.472 9.1103 84.331 8.93288 84.331 8.93288ZM58.1737 26.3557C58.1385 26.3557 58.1032 26.3557 58.068 26.3557C58.0327 26.3557 57.9975 26.3557 57.9622 26.3557C50.524 26.3557 44.9189 25.3976 43.7555 24.7589C44.4958 24.0492 50.3125 22.5588 57.9622 22.5588C57.9975 22.5588 58.0327 22.5588 58.068 22.5588C58.1032 22.5588 58.1385 22.5588 58.1737 22.5588C65.8235 22.5588 71.6401 24.0492 72.3804 24.7589C71.1819 25.3976 65.612 26.3557 58.1737 26.3557ZM74.0726 18.3007C73.861 19.0104 73.5438 22.9137 73.156 23.8008C72.2394 23.0556 65.6825 21.3879 58.068 21.3879C58.068 21.3879 58.068 21.3879 58.0327 21.3879C58.0327 21.3879 58.0327 21.3879 57.9975 21.3879C50.3477 21.3879 43.826 23.0556 42.9095 23.8008C42.5217 22.9137 42.2397 18.9749 41.9929 18.3007C41.8872 17.9814 42.0987 17.6975 42.0987 17.6975C43.1562 16.2426 49.8189 14.5394 57.927 14.5394C57.9622 14.5394 58.1032 14.5394 58.1385 14.5394C66.2113 14.5394 72.9092 16.2426 73.9668 17.6975C74.0021 17.6975 74.1783 18.0169 74.0726 18.3007ZM75.0244 16.4201C75.0244 16.4201 73.3675 15.7104 70.4063 14.9297C67.0573 14.0426 62.3335 13.6523 58.1032 13.6523C53.873 13.6523 49.1491 14.1846 45.8002 14.9297C43.0152 15.533 41.1821 16.4201 41.1821 16.4201L37.8331 12.8716C37.8331 12.8716 41.4641 13.3684 43.2972 12.6232C45.1304 11.8781 45.9764 8.50707 45.9764 8.50707C45.9764 8.50707 50.0305 11.6297 52.3924 11.4877C54.7895 11.3458 58.1032 6.76834 58.1032 6.76834C58.1032 6.76834 61.4522 11.3458 63.8141 11.4877C66.176 11.6297 70.2301 8.50707 70.2301 8.50707C70.2301 8.50707 71.1114 11.8426 72.9092 12.6232C74.7424 13.3684 78.3733 12.8716 78.3733 12.8716L75.0244 16.4201Z" fill="#006241"/>
<path d="M58.0671 15.5688C56.939 15.5688 56.0225 16.6334 56.0225 17.9108C56.0225 19.2237 56.939 20.2528 58.0671 20.2528C59.1952 20.2528 60.1117 19.1882 60.1117 17.9108C60.0765 16.6334 59.1952 15.5688 58.0671 15.5688Z" fill="#006241"/>
<path d="M67.093 21.2828C68.0096 21.5312 69.0319 20.857 69.3491 19.757C69.6664 18.657 69.1729 17.5215 68.2211 17.2731C67.3045 17.0247 66.2822 17.6989 65.9649 18.7989C65.6829 19.9344 66.1764 21.0345 67.093 21.2828Z" fill="#006241"/>
<path d="M49.0083 21.2848C48.0918 21.5332 47.0695 20.859 46.7522 19.759C46.4349 18.659 46.9284 17.5235 47.8803 17.2751C48.7968 17.0267 49.8191 17.7009 50.1364 18.8009C50.4537 19.9364 49.9602 21.0364 49.0083 21.2848Z" fill="#006241"/>
<path d="M76.6455 44.0986H76.152C75.9404 44.0986 75.6937 44.134 75.3412 44.205C74.9886 44.276 74.6009 44.4179 74.1778 44.5598C74.0016 44.6308 73.7901 44.7018 73.5433 44.7728C73.3318 44.8437 73.085 44.8792 72.8382 44.9147C72.5915 44.9502 72.38 44.9857 72.1332 45.0211C71.8864 45.0566 71.6749 45.0566 71.4634 45.0566C70.5468 45.0566 69.7008 44.9147 68.9252 44.5953C68.1497 44.3115 67.4799 43.8502 66.9511 43.3179C66.3871 42.7501 65.964 42.076 65.6468 41.2598C65.3295 40.4437 65.1885 39.5566 65.1885 38.5275C65.1885 37.9598 65.259 37.3565 65.3647 36.7888C65.4705 36.221 65.6468 35.6533 65.8935 35.121C66.1403 34.5888 66.4223 34.1275 66.7748 33.6662C67.1274 33.2049 67.5504 32.8146 68.0087 32.4952C68.5022 32.1758 69.031 31.892 69.6303 31.7145C70.2296 31.5371 70.8994 31.4307 71.6044 31.4307C71.9217 31.4307 72.2742 31.4662 72.6267 31.5016C72.9793 31.5371 73.2965 31.6081 73.649 31.7145C73.9663 31.7855 74.2836 31.892 74.6009 32.0339C74.9181 32.1758 75.2002 32.3178 75.4469 32.4597L75.3764 31.5726H76.3987V35.8307H75.7289C75.6937 35.263 75.5527 34.7307 75.3412 34.2694C75.1296 33.8081 74.8476 33.4178 74.4951 33.1339C74.1426 32.8146 73.7196 32.6016 73.2613 32.4242C72.803 32.2468 72.3095 32.1758 71.7454 32.1758C71.0756 32.1758 70.4763 32.3178 69.9123 32.6016C69.3483 32.8855 68.8195 33.3113 68.3964 33.8436C67.9734 34.3759 67.6209 34.9791 67.3741 35.7243C67.1274 36.4339 66.9863 37.2501 66.9863 38.1017C66.9863 38.9888 67.0921 39.805 67.3389 40.5146C67.5856 41.2598 67.9029 41.8985 68.3612 42.4308C68.7842 42.9631 69.313 43.3889 69.9123 43.6727C70.5116 43.9921 71.1814 44.134 71.9217 44.134C72.1684 44.134 72.4152 44.0986 72.6972 44.0631C72.9793 44.0276 73.226 43.9566 73.508 43.8856C73.7901 43.8147 74.0368 43.7082 74.3188 43.6018C74.6009 43.4953 74.8476 43.3534 75.0944 43.176V39.0953L73.7901 39.1662V38.3501H77.9498V38.9533C77.7383 38.9533 77.5268 38.9888 77.3858 39.0953C77.2448 39.1662 77.1038 39.3082 76.998 39.4146C76.8923 39.5566 76.8218 39.6985 76.7865 39.8759C76.7513 40.0533 76.716 40.1953 76.6807 40.3727C76.6455 40.5501 76.6455 40.6921 76.6455 40.834C76.6455 40.9759 76.6455 41.0824 76.6455 41.1888V44.0986Z" fill="#006241"/>
<path d="M84.1184 36.2206C83.8716 36.2206 83.6601 36.2561 83.4134 36.3625C83.1666 36.469 82.9198 36.6109 82.7083 36.7884C82.4616 36.9658 82.25 37.1787 82.0385 37.4271C81.827 37.6755 81.6507 37.9593 81.4745 38.2787L81.5097 42.8562C81.5097 43.1046 81.5097 43.3175 81.5097 43.5304C81.5097 43.7078 81.4745 43.9207 81.4392 44.1336L82.6026 44.0626V44.8078H78.8306V44.2401C79.1126 44.2401 79.3241 44.1691 79.4651 44.0626C79.6061 43.9562 79.7119 43.7788 79.7824 43.6013C79.8529 43.3884 79.8881 43.1755 79.8881 42.8917C79.8881 42.6078 79.8881 42.3239 79.8881 41.9691V37.711C79.8881 37.5335 79.8881 37.3206 79.8881 37.1432C79.8881 36.9303 79.9234 36.7529 79.9586 36.54L78.6543 36.6109V35.8658H79.2183C79.4651 35.8658 79.7119 35.8658 79.8881 35.8303C80.0644 35.7948 80.2054 35.7593 80.3112 35.7238C80.4169 35.6883 80.5227 35.6174 80.5932 35.5819C80.6637 35.5109 80.7342 35.4754 80.8047 35.4045H81.3335C81.3687 35.5819 81.3687 35.8303 81.3687 36.1142C81.3687 36.398 81.404 36.7884 81.404 37.2142C81.545 37.0013 81.7212 36.7529 81.9328 36.5045C82.1443 36.2561 82.391 36.0787 82.6731 35.8658C82.9551 35.6883 83.2371 35.5464 83.5544 35.4045C83.8716 35.298 84.1889 35.2271 84.5062 35.2271C84.6825 35.2271 84.8235 35.2625 84.9997 35.298C85.176 35.3335 85.2817 35.4045 85.4227 35.5109C85.5285 35.6174 85.6343 35.7238 85.7048 35.8658C85.7753 36.0077 85.8105 36.1851 85.8105 36.398C85.8105 36.469 85.8105 36.5755 85.7753 36.6819C85.74 36.7884 85.7048 36.8948 85.599 36.9658C85.5285 37.0722 85.4227 37.1432 85.317 37.1787C85.2112 37.2497 85.0702 37.2851 84.894 37.2851C84.7529 37.2851 84.6472 37.2497 84.5062 37.1787C84.4004 37.1077 84.2947 37.0367 84.2242 36.9303C84.1537 36.8238 84.0832 36.7174 84.0479 36.6109C84.1184 36.469 84.1184 36.3625 84.1184 36.2206Z" fill="#006241"/>
<path d="M90.2529 35.1924C90.8875 35.1924 91.522 35.2988 92.0861 35.5472C92.6501 35.7956 93.1436 36.115 93.5666 36.5408C93.9897 36.9666 94.307 37.4634 94.5537 38.0311C94.8005 38.5989 94.9062 39.2376 94.9062 39.9118C94.9062 40.6215 94.8005 41.2957 94.5537 41.9344C94.307 42.5731 93.9897 43.1054 93.5666 43.5667C93.1436 44.028 92.6501 44.3828 92.0861 44.6667C91.522 44.9506 90.9227 45.057 90.2529 45.057C89.6184 45.057 88.9838 44.9506 88.4198 44.7022C87.8558 44.4538 87.3622 44.1344 86.9392 43.7441C86.5162 43.3183 86.1989 42.8215 85.9521 42.2538C85.7054 41.686 85.5996 41.0473 85.5996 40.3376C85.5996 39.5924 85.7054 38.9182 85.9521 38.2795C86.1989 37.6408 86.5162 37.1085 86.9392 36.6472C87.3622 36.1859 87.8558 35.8311 88.4198 35.5472C88.9838 35.3343 89.5831 35.1924 90.2529 35.1924ZM90.2529 35.9021C89.7594 35.9021 89.3364 36.0085 89.0191 36.2214C88.6666 36.4343 88.3846 36.7182 88.173 37.1085C87.9615 37.4634 87.7853 37.8892 87.6795 38.3505C87.5738 38.8118 87.5385 39.3086 87.5385 39.8053C87.5385 40.3731 87.609 40.9408 87.7148 41.4731C87.8205 42.0054 87.9968 42.5021 88.2435 42.928C88.4903 43.3538 88.7723 43.6731 89.1601 43.957C89.5126 44.2054 89.9357 44.3473 90.4292 44.3473C90.9227 44.3473 91.3105 44.2409 91.663 44.028C91.9803 43.8151 92.2623 43.5312 92.4738 43.1409C92.6853 42.786 92.8264 42.3602 92.9321 41.8989C93.0379 41.4376 93.0731 40.9408 93.0731 40.4795C93.0731 39.9118 93.0379 39.3795 92.9321 38.8118C92.8264 38.2795 92.6501 37.7827 92.4386 37.3569C92.2271 36.9311 91.945 36.5763 91.5925 36.3279C91.1342 36.044 90.7465 35.9021 90.2529 35.9021Z" fill="#006241"/>
<path d="M102.626 37.9245C102.626 37.6051 102.626 37.3567 102.661 37.1438C102.661 36.9309 102.696 36.718 102.732 36.5051L101.392 36.5761V35.8309H101.956C102.238 35.8309 102.45 35.8309 102.626 35.7954C102.802 35.76 102.978 35.7245 103.119 35.689C103.261 35.6535 103.366 35.5825 103.437 35.5471C103.507 35.4761 103.613 35.4406 103.684 35.3696H104.212L104.177 42.3955C104.177 42.502 104.177 42.6084 104.177 42.7504C104.177 42.8923 104.177 43.0697 104.177 43.2117C104.177 43.3891 104.177 43.531 104.142 43.7084C104.142 43.8859 104.107 44.0278 104.107 44.1342L105.446 44.0633V44.8439H102.802C102.767 44.631 102.732 44.4536 102.732 44.2762C102.696 44.0988 102.696 43.9213 102.696 43.7439C102.52 43.9213 102.273 44.1343 102.062 44.2762C101.815 44.4536 101.568 44.5955 101.322 44.7375C101.075 44.8794 100.793 44.9504 100.511 45.0568C100.229 45.1278 99.9468 45.1633 99.7 45.1633C99.2065 45.1633 98.7482 45.0923 98.3604 44.9504C97.9726 44.8084 97.6554 44.5955 97.4086 44.2762C97.1618 43.9568 96.9503 43.531 96.8446 43.0342C96.7036 42.502 96.6683 41.8633 96.6683 41.1181V37.818C96.6683 37.6406 96.6683 37.4277 96.6683 37.2148C96.6683 37.0019 96.7036 36.8245 96.7388 36.6116L95.4697 36.6825V35.9374H96.0338C96.2805 35.9374 96.5273 35.9374 96.7036 35.9019C96.8798 35.8664 97.0561 35.8309 97.1971 35.7954C97.3381 35.76 97.4439 35.689 97.5144 35.6535C97.5849 35.5825 97.6906 35.5471 97.7611 35.4761H98.2899V41.1536C98.2899 41.6858 98.3252 42.1471 98.3957 42.5729C98.4662 42.9633 98.5719 43.2826 98.7482 43.5665C98.9245 43.8149 99.1007 44.0278 99.3827 44.1342C99.6295 44.2407 99.9468 44.3117 100.299 44.3117C100.546 44.3117 100.758 44.2762 101.004 44.2052C101.216 44.1342 101.427 44.0278 101.639 43.8859C101.85 43.7439 102.027 43.602 102.203 43.4246C102.379 43.2471 102.52 43.0697 102.661 42.8923V41.9342V37.9245H102.626Z" fill="#006241"/>
<path d="M106.715 37.711C106.715 37.5335 106.715 37.3206 106.715 37.1077C106.715 36.8948 106.751 36.7174 106.786 36.5045L105.481 36.5754V35.7948C105.869 35.7948 106.222 35.7948 106.469 35.7593C106.715 35.7238 106.927 35.6883 107.068 35.6529C107.209 35.6174 107.35 35.5464 107.42 35.5109C107.491 35.44 107.597 35.4045 107.632 35.3335H108.161C108.161 35.44 108.196 35.5819 108.196 35.7593C108.196 35.9367 108.231 36.1142 108.231 36.3271C108.407 36.1496 108.619 36.0077 108.866 35.8658C109.077 35.7238 109.324 35.6174 109.571 35.5109C109.817 35.4045 110.064 35.3335 110.346 35.298C110.593 35.227 110.875 35.2271 111.122 35.2271C111.651 35.2271 112.179 35.3335 112.673 35.5464C113.166 35.7593 113.589 36.0787 113.977 36.469C114.365 36.8593 114.647 37.3561 114.859 37.9239C115.07 38.4916 115.176 39.1303 115.176 39.8755C115.176 40.4078 115.105 40.9045 115 41.3658C114.894 41.8271 114.718 42.2529 114.506 42.6433C114.295 43.0336 114.048 43.3884 113.766 43.7078C113.484 44.0272 113.166 44.2755 112.814 44.4884C112.461 44.7014 112.109 44.8788 111.686 44.9852C111.298 45.0917 110.875 45.1627 110.487 45.1627C109.641 45.1627 108.901 44.9497 108.266 44.5594V47.6466C108.266 47.8949 108.266 48.1078 108.266 48.3208C108.266 48.4982 108.231 48.7111 108.196 48.924L109.359 48.853V49.5982H105.587V49.0304C105.869 49.0304 106.081 48.9595 106.222 48.853C106.363 48.7466 106.469 48.5691 106.539 48.3917C106.61 48.1788 106.645 47.9659 106.645 47.682C106.645 47.3982 106.645 47.1143 106.68 46.7594L106.715 37.711ZM110.487 36.1142C110.276 36.1142 110.064 36.1496 109.853 36.1851C109.641 36.2561 109.465 36.3271 109.253 36.398C109.077 36.5045 108.901 36.6109 108.725 36.7174C108.548 36.8593 108.407 36.9658 108.302 37.1077C108.302 37.1432 108.302 37.2142 108.302 37.2851C108.302 37.3561 108.302 37.4626 108.302 37.6045C108.302 37.7464 108.302 37.9593 108.302 38.2432C108.302 38.5271 108.302 38.8819 108.302 39.3432C108.302 39.8045 108.302 40.3723 108.302 41.082C108.302 41.7562 108.302 42.6078 108.302 43.6013C108.619 43.8142 108.936 44.0272 109.324 44.1336C109.676 44.2755 110.064 44.311 110.487 44.311C110.91 44.311 111.333 44.2046 111.651 43.9917C112.003 43.7788 112.285 43.4949 112.532 43.1046C112.779 42.7142 112.955 42.2884 113.096 41.7562C113.237 41.2239 113.307 40.6561 113.307 40.0529C113.307 39.5561 113.272 39.0594 113.166 38.5981C113.061 38.1368 112.884 37.6755 112.673 37.3206C112.461 36.9303 112.144 36.6464 111.792 36.4335C111.404 36.2206 110.981 36.1142 110.487 36.1142Z" fill="#006241"/>
<path d="M82.109 54.7078C81.9327 54.7078 81.7917 54.7078 81.5802 54.7078C81.5802 54.1756 81.5802 53.6078 81.5802 53.0755C81.5802 52.5433 81.5802 52.011 81.5802 51.4787C81.545 51.4787 81.545 51.4433 81.5097 51.4433C81.4392 51.5142 81.404 51.5852 81.3335 51.6562C80.5227 52.6142 79.5003 53.7497 78.6895 54.7078H78.3018C78.3018 53.3239 78.3018 51.8691 78.3018 50.4497C78.478 50.4497 78.619 50.4497 78.8305 50.4497C78.8305 51.5142 78.8305 52.6142 78.8305 53.7497C78.9363 53.6788 78.7953 53.7852 78.8305 53.7497C79.6766 52.7917 80.8752 51.4433 81.686 50.4497H82.0738C82.109 51.8691 82.109 53.2885 82.109 54.7078Z" fill="black"/>
<path d="M41.7443 54.7433C41.7796 54.7788 41.1098 53.5723 41.1098 53.5723H38.5716C38.5716 53.5723 38.0781 54.5659 37.9723 54.7433H37.373C37.4436 54.6014 38.9594 51.6917 39.5939 50.4497C39.735 50.4497 40.0522 50.4497 40.0522 50.4497C40.7573 51.7981 41.6033 53.3949 42.3084 54.7433H41.7443ZM40.863 53.0755C40.5105 52.4368 40.1932 51.8336 39.8407 51.1594C39.4882 51.8336 39.1709 52.4368 38.8536 53.0755C39.5587 53.0755 40.1932 53.0755 40.863 53.0755Z" fill="black"/>
<path d="M100.616 54.6725C100.652 54.708 99.9819 53.5015 99.9819 53.5015H97.4437C97.4437 53.5015 96.9502 54.4951 96.8444 54.6725H96.2451C96.3156 54.5306 97.8315 51.6209 98.466 50.3789C98.607 50.3789 98.9243 50.3789 98.9243 50.3789C99.6293 51.7273 100.475 53.3241 101.18 54.6725H100.616ZM99.7351 53.0047C99.3826 52.366 99.0653 51.7628 98.7128 51.0886C98.3603 51.7628 98.043 52.366 97.7257 53.0047C98.3955 53.0047 99.0653 53.0047 99.7351 53.0047Z" fill="black"/>
<path d="M22.3564 50.2729C22.568 50.3439 22.7795 50.3794 22.991 50.4504C23.414 50.6278 23.7665 50.9117 24.0486 51.302C23.9076 51.4084 23.7665 51.5149 23.6255 51.6214C22.7795 50.6633 21.7219 50.5213 20.9464 51.302C20.2413 52.0117 20.3118 53.3246 21.0521 53.9633C21.8629 54.673 22.9557 54.4246 23.7313 53.3956C23.8723 53.502 24.0133 53.6085 24.1543 53.7149C23.7313 54.4956 23.0967 54.8859 22.2154 54.8859C21.0874 54.8859 20.2061 54.2472 19.9945 53.1472C19.6773 51.7278 20.5233 50.4859 21.8277 50.3439C21.8629 50.3439 21.8982 50.3084 21.8982 50.3084C22.0392 50.273 22.1802 50.2729 22.3564 50.2729Z" fill="black"/>
<path d="M48.5851 54.779C48.4438 54.779 48.3026 54.779 48.126 54.779C48.126 53.3241 48.126 51.8692 48.126 50.3789C48.2672 50.3789 48.4438 50.3789 48.5851 50.3789C48.5851 51.8338 48.5851 53.2886 48.5851 54.779Z" fill="black"/>
<path d="M18.3728 52.2975C18.8663 52.5814 19.1131 53.0427 19.0426 53.6104C18.9721 54.3201 18.4786 54.7459 17.7383 54.7459C16.7864 54.7814 15.8699 54.7459 14.8828 54.7459C14.8828 53.2911 14.8828 51.8362 14.8828 50.3813C14.9886 50.3813 15.0591 50.3813 15.1648 50.3813C16.0109 50.3813 16.8569 50.3813 17.703 50.4168C18.126 50.4168 18.5138 50.5943 18.6548 51.0555C18.7958 51.4814 18.7606 51.9427 18.3728 52.262C18.408 52.262 18.3728 52.262 18.3728 52.2975ZM15.4469 52.6169C15.4469 53.1491 15.4469 53.6814 15.4469 54.2491C16.2224 54.2491 16.998 54.2491 17.7735 54.2491C18.2318 54.2491 18.4786 53.9298 18.4786 53.4685C18.4786 53.0072 18.2318 52.6523 17.7735 52.6523C17.0332 52.6169 16.2577 52.6169 15.4469 52.6169ZM15.4469 52.1201C16.1872 52.1201 16.8922 52.1201 17.6325 52.1201C18.0203 52.1201 18.267 51.8717 18.2318 51.4814C18.2318 51.091 17.985 50.9136 17.5972 50.8781C17.0685 50.8781 16.5397 50.8781 16.0461 50.8781C15.8699 50.8781 15.6936 50.8781 15.4821 50.8781C15.4469 51.3039 15.4469 51.6943 15.4469 52.1201Z" fill="black"/>
<path d="M33.6719 50.4147C34.6237 50.4147 35.5402 50.3792 36.4568 50.4147C37.1266 50.4502 37.5144 50.947 37.4791 51.6212C37.4439 52.2954 36.9856 52.7921 36.3511 52.8276C35.7165 52.8631 35.1172 52.8276 34.4827 52.8276C34.4122 52.8276 34.3064 52.8276 34.2007 52.8276C34.2007 53.4663 34.2007 54.1051 34.2007 54.7438C34.0244 54.7438 33.8481 54.7438 33.6719 54.7438C33.6719 53.2889 33.6719 51.8696 33.6719 50.4147ZM34.2007 50.9115C34.2007 51.4083 34.2007 51.8696 34.2007 52.3309C34.9057 52.3309 35.6108 52.3309 36.2805 52.3309C36.7036 52.3309 36.9151 52.047 36.9151 51.6566C36.9151 51.2663 36.7036 50.947 36.3158 50.947C35.6108 50.876 34.9057 50.9115 34.2007 50.9115Z" fill="black"/>
<path d="M43.6137 52.1173C44.4951 52.1173 45.3059 52.1173 46.1872 52.1173C46.1872 51.5496 46.1872 50.9818 46.1872 50.4141C46.3634 50.4141 46.5397 50.4141 46.716 50.4141C46.716 51.8689 46.716 53.2883 46.716 54.7431C46.5397 54.7431 46.3634 54.7431 46.1872 54.7431C46.1872 54.0335 46.1872 53.3593 46.1872 52.6496C45.3411 52.6496 44.4951 52.6496 43.6137 52.6496C43.6137 53.3593 43.6137 54.0335 43.6137 54.7431C43.4375 54.7431 43.2612 54.7431 43.085 54.7431C43.085 53.2883 43.085 51.8689 43.085 50.4141C43.2612 50.4141 43.4022 50.4141 43.6137 50.4141C43.6137 50.9818 43.6137 51.5496 43.6137 52.1173Z" fill="black"/>
<path d="M30.2886 54.7435C30.077 54.7435 29.936 54.7435 29.7598 54.7435C29.7598 53.2886 29.7598 51.8692 29.7598 50.3789C30.8526 50.3789 31.9102 50.3789 33.003 50.3789C33.003 50.5208 33.003 50.6983 33.003 50.8757C32.0864 50.8757 31.2051 50.8757 30.2886 50.8757C30.2886 52.1886 30.2886 53.466 30.2886 54.7435Z" fill="black"/>
<path d="M25.7065 54.7435C25.5299 54.7435 25.3533 54.7435 25.1768 54.7435C25.1768 53.2886 25.1768 51.8338 25.1768 50.3789C25.3533 50.3789 25.5299 50.3789 25.7065 50.3789C25.7065 51.8338 25.7065 53.2886 25.7065 54.7435Z" fill="black"/>
<path d="M52.4619 50.4141C53.4842 50.4141 54.5418 50.4141 55.5641 50.4495C55.7051 50.4495 55.8461 50.4495 55.9872 50.4495C55.9872 50.627 55.9872 50.7689 55.9872 50.9463C55.0001 50.9463 54.013 50.9463 53.0259 50.9463C53.0259 51.3721 53.0259 51.727 53.0259 52.1528C53.4137 52.1528 53.8368 52.1528 54.2245 52.1528C54.5418 52.1528 54.8238 52.1528 55.1411 52.1528C55.9871 52.1883 56.4102 52.6496 56.4102 53.4302C56.4102 54.2109 55.8814 54.7432 55.1058 54.7432C54.2245 54.7786 53.3432 54.7432 52.4972 54.7432C52.4619 53.2883 52.4619 51.8334 52.4619 50.4141ZM52.9907 54.2464C53.6605 54.2464 54.295 54.2464 54.8943 54.2464C55.0353 54.2464 55.1763 54.2464 55.3174 54.1754C55.6346 54.0689 55.8109 53.856 55.8109 53.4657C55.8109 53.0399 55.6699 52.827 55.3526 52.6851C55.2821 52.6496 55.2116 52.6141 55.1763 52.6141C54.436 52.6141 53.731 52.6141 52.9907 52.6141C52.9907 53.1818 52.9907 53.7141 52.9907 54.2464Z" fill="black"/>
<path d="M68.2549 54.7436C68.2549 53.2888 68.2549 51.8694 68.2549 50.4855C69.2772 50.4855 70.2643 50.45 71.2513 50.4855C71.6039 50.4855 71.8859 50.7339 71.9916 51.0887C72.1326 51.5145 72.0974 51.9403 71.6744 52.2952C72.0974 52.5791 72.3442 52.9694 72.3442 53.5017C72.3089 54.1759 71.8859 54.6726 71.1456 54.7081C70.1938 54.7791 69.2419 54.7436 68.2549 54.7436ZM68.7837 52.65C68.7837 53.2178 68.7837 53.7146 68.7837 54.2468C69.5945 54.2468 70.37 54.2468 71.1456 54.2468C71.2161 54.2468 71.3218 54.2113 71.3923 54.1759C71.7096 54.0339 71.8506 53.6791 71.7801 53.2888C71.7096 52.9339 71.4628 52.65 71.1456 52.65C70.37 52.6146 69.5945 52.65 68.7837 52.65ZM68.7837 50.9468C68.7837 51.3726 68.7837 51.7274 68.7837 52.1178C69.524 52.1178 70.2643 52.1533 71.0046 52.1178C71.3571 52.1178 71.5334 51.8339 71.4981 51.4791C71.4628 51.1597 71.2866 50.9468 70.9341 50.9468C70.229 50.9113 69.524 50.9468 68.7837 50.9468Z" fill="black"/>
<path d="M95.1519 52.2947C95.5044 52.5431 95.7512 52.827 95.8217 53.2528C95.9274 54.1044 95.4339 54.7077 94.5526 54.7432C93.636 54.7786 92.6842 54.7432 91.7324 54.7432C91.7324 53.3238 91.7324 51.9044 91.7324 50.4141C91.9087 50.4141 92.0849 50.4141 92.226 50.4141C92.9663 50.4141 93.7418 50.4141 94.4821 50.4495C94.9051 50.4495 95.2577 50.627 95.4339 51.0173C95.6102 51.4786 95.5749 51.9399 95.1519 52.2947ZM92.2612 54.2464C93.072 54.2464 93.8123 54.2819 94.5879 54.2464C95.0461 54.2464 95.3282 53.8915 95.2929 53.3947C95.2929 52.898 95.0109 52.6496 94.5174 52.6141C93.8476 52.6141 93.1778 52.6141 92.508 52.6141C92.4375 52.6141 92.367 52.6496 92.2965 52.6496C92.2612 53.1818 92.2612 53.7141 92.2612 54.2464ZM92.2612 50.9463C92.2612 51.3367 92.2612 51.727 92.2612 52.1173C93.0368 52.1173 93.7771 52.1528 94.5174 52.1173C94.8699 52.1173 95.0109 51.8334 95.0109 51.5141C94.9756 51.1947 94.8346 50.9818 94.5174 50.9818C93.7418 50.9463 93.0015 50.9463 92.2612 50.9463Z" fill="black"/>
<path d="M61.3802 55.7012C61.2039 55.7012 61.0981 55.7012 60.9219 55.7012C60.9219 55.2399 60.9219 54.2464 60.9219 54.2464H61.4507L63.0723 50.4141H63.4953L65.1874 54.2464H65.7514C65.7514 54.2464 65.7514 55.2044 65.7514 55.7012C65.6104 55.7012 65.4694 55.7012 65.2932 55.7012C65.2932 55.4174 65.2932 55.098 65.2932 54.7786C63.9536 54.7786 62.6845 54.7786 61.3449 54.7786C61.3802 55.0625 61.3802 55.3464 61.3802 55.7012ZM63.319 51.1592C62.8608 52.2238 62.473 53.2173 62.0499 54.2464C62.9313 54.2464 63.7773 54.2464 64.6939 54.2464C64.2356 53.2173 63.7773 52.2238 63.319 51.1592Z" fill="black"/>
<path d="M86.7629 54.2462C86.9744 54.2462 87.1859 54.2817 87.3621 54.2817C87.3621 54.743 87.3621 55.2043 87.3621 55.7011C87.2211 55.7011 87.0801 55.7011 86.9039 55.7011C86.9039 55.3817 86.9039 55.0978 86.9039 54.7785C85.7405 54.7785 84.6125 54.7785 83.4844 54.7785C83.4844 53.3236 83.4844 51.9042 83.4844 50.4849C83.6606 50.4849 83.8016 50.4849 84.0132 50.4849C84.0132 51.7623 84.0132 53.0042 84.0132 54.2817C84.7535 54.2817 85.4938 54.2817 86.2341 54.2817C86.2341 53.0042 86.2341 51.7623 86.2341 50.4849C86.4103 50.4849 86.5866 50.4849 86.7629 50.4849C86.7629 51.6913 86.7629 52.9688 86.7629 54.2462Z" fill="black"/>
<path d="M73.5078 50.4497C73.6841 50.4497 73.8251 50.4497 74.0366 50.4497C74.0366 51.0175 74.0366 51.5497 74.0366 52.1175C74.8827 52.1175 75.7287 52.1175 76.5748 52.1175C76.5748 51.5497 76.5748 51.0175 76.5748 50.4497C76.751 50.4497 76.9273 50.4497 77.0683 50.4497C77.0683 51.8691 77.0683 53.2885 77.0683 54.7433C76.892 54.7433 76.751 54.7433 76.5748 54.7433C76.5748 54.0691 76.5748 53.3594 76.5748 52.6852C75.7287 52.6852 74.8827 52.6852 74.0366 52.6852C74.0366 53.3594 74.0366 54.0336 74.0366 54.7433C73.8603 54.7433 73.6841 54.7433 73.5078 54.7433C73.5078 53.2885 73.5078 51.8691 73.5078 50.4497Z" fill="black"/>
<path d="M59.1956 52.7915C59.6186 52.1173 60.641 50.4141 60.641 50.4141H61.2755C61.2755 50.4141 59.3366 53.5367 58.6316 54.7431H57.997C58.2085 54.3883 58.8431 53.3238 58.8431 53.3238C58.3143 52.5786 56.9395 50.4141 56.9395 50.4141H57.6092C57.6092 50.4141 58.7373 52.1173 59.1956 52.7915Z" fill="black"/>
<path d="M89.0889 50.9465C88.4543 50.9465 87.8903 50.9465 87.291 50.9465C87.291 50.7691 87.291 50.6271 87.291 50.4497C88.6659 50.4497 90.0055 50.4497 91.3803 50.4497C91.3803 50.5916 91.3803 50.7336 91.3803 50.911C90.8163 50.911 90.217 50.911 89.5824 50.911C89.5824 52.1884 89.5824 53.4659 89.5824 54.7078C89.4062 54.7078 89.2299 54.7078 89.0536 54.7078C89.0889 53.4659 89.0889 52.2239 89.0889 50.9465Z" fill="black"/>
<path d="M66.4219 50.4141C66.5985 50.4141 66.7397 50.4141 66.9163 50.4141C66.9163 51.8689 66.9163 53.2883 66.9163 54.7431C66.7397 54.7431 66.5985 54.7431 66.4219 54.7431C66.4219 53.2883 66.4219 51.8689 66.4219 50.4141Z" fill="black"/>
</svg>
