<svg width="230" height="131" viewBox="0 0 230 131" fill="none" xmlns="http://www.w3.org/2000/svg">
<g filter="url(#filter0_d)">
<rect x="25" y="25" width="180" height="81" fill="white"/>
</g>
<path d="M61.4835 76.8761C61.413 76.8761 61.3425 76.8761 61.2015 76.8761C61.0605 76.8761 60.9547 76.8761 60.8137 76.8761V79.5729C60.8137 79.9277 60.8137 80.2116 60.8137 80.46C60.8137 80.7084 60.7785 80.8858 60.7785 81.0632L62.4706 80.9568V81.7729H57.923V81.1697C58.2756 81.1697 58.5223 81.0987 58.6986 80.9922C58.8749 80.8858 58.9806 80.7084 59.0511 80.5309C59.1216 80.318 59.1569 80.1051 59.1569 79.8213C59.1569 79.5374 59.1569 79.2535 59.1569 78.9342V70.9147C59.1569 70.6663 59.1569 70.4179 59.1569 70.205C59.1569 69.9921 59.1921 69.7792 59.1921 69.5663L57.8525 69.6373V68.8211C58.4871 68.8211 59.1569 68.7856 59.8619 68.7856C60.5317 68.7856 61.2368 68.7856 61.9771 68.7856C63.7749 68.7856 65.1145 69.105 66.0663 69.7082C67.0534 70.3824 67.5469 71.3405 67.5469 72.6179C67.5469 72.8663 67.5117 73.1502 67.4764 73.4696C67.4059 73.7889 67.3002 74.1083 67.1239 74.4277C66.9476 74.747 66.7009 75.0664 66.4189 75.3857C66.1016 75.7051 65.7491 75.9535 65.2908 76.2019C64.8325 76.4148 64.2685 76.6277 63.6339 76.7341C63.0699 76.8051 62.3296 76.8761 61.4835 76.8761ZM60.8137 76.0954C61.0253 76.1309 61.2368 76.1309 61.413 76.1664C61.5893 76.1664 61.8008 76.1664 62.0123 76.1664C62.5411 76.1664 63.0346 76.0954 63.4929 75.918C63.9512 75.7761 64.3742 75.5277 64.7267 75.2438C65.0793 74.9599 65.3613 74.5696 65.5376 74.1438C65.7491 73.718 65.8548 73.2212 65.8548 72.6889C65.8548 72.0857 65.7491 71.5889 65.5728 71.1986C65.3965 70.7728 65.1145 70.4534 64.7973 70.205C64.4447 69.9566 64.057 69.7792 63.5987 69.6373C63.1404 69.5308 62.6116 69.4598 62.0476 69.4598C61.7303 69.4598 61.4835 69.4953 61.3073 69.6018C61.131 69.7082 61.0253 69.8502 60.9547 70.0631C60.8842 70.2405 60.849 70.4889 60.849 70.7728C60.849 71.0566 60.849 71.3405 60.849 71.6599V76.0954H60.8137Z" fill="black"/>
<path d="M76.0433 76.2726L69.5569 76.3791C69.5569 77.0887 69.5921 77.7275 69.7331 78.3307C69.8389 78.8984 70.0151 79.3952 70.2619 79.821C70.5087 80.2468 70.8259 80.5662 71.2137 80.7791C71.6015 80.992 72.0598 81.0985 72.6238 81.0985C72.9058 81.0985 73.2231 81.063 73.5051 80.992C73.8224 80.921 74.1044 80.8146 74.3864 80.6726C74.6684 80.5307 74.9152 80.3888 75.162 80.1759C75.4087 79.9984 75.585 79.7855 75.7613 79.5726L76.2195 79.9275C75.9728 80.3178 75.6908 80.6372 75.3382 80.921C75.021 81.2049 74.6684 81.4178 74.3159 81.5952C73.9634 81.7727 73.6109 81.8791 73.2231 81.9501C72.8706 82.0211 72.518 82.0565 72.2008 82.0565C71.5662 82.0565 70.9669 81.9501 70.4382 81.7017C69.8741 81.4888 69.4158 81.1339 68.9928 80.7081C68.605 80.2823 68.2878 79.7501 68.041 79.1468C67.7942 78.5436 67.6885 77.8694 67.6885 77.0887C67.6885 76.45 67.7942 75.8113 68.0057 75.2081C68.2173 74.6048 68.5345 74.0726 68.9576 73.6113C69.3806 73.15 69.8389 72.7951 70.4382 72.5113C71.0022 72.2274 71.6367 72.0854 72.3418 72.0854C72.8353 72.0854 73.3289 72.1564 73.7871 72.3338C74.2454 72.5113 74.6332 72.7597 74.9857 73.079C75.3382 73.4339 75.585 73.8597 75.7965 74.3564C75.9728 74.9952 76.0433 75.5984 76.0433 76.2726ZM72.3418 72.9016C71.6367 72.9016 71.0375 73.1145 70.5439 73.5403C70.0856 73.9661 69.7684 74.6403 69.6274 75.5984H74.3159C74.3159 75.279 74.2807 74.9597 74.2102 74.6403C74.1397 74.321 74.0339 74.0371 73.8576 73.7887C73.6814 73.5403 73.5051 73.3274 73.2231 73.15C73.0116 72.9726 72.6943 72.9016 72.3418 72.9016Z" fill="black"/>
<path d="M82.3177 73.1855C82.071 73.1855 81.8594 73.2209 81.6127 73.3274C81.3659 73.4338 81.1192 73.5758 80.9076 73.7532C80.6609 73.9306 80.4494 74.1435 80.2378 74.3919C80.0263 74.6403 79.8501 74.9242 79.6738 75.2435L79.7091 79.821C79.7091 80.0694 79.7091 80.2823 79.7091 80.4952C79.7091 80.6726 79.6738 80.8855 79.6385 81.0985L80.8019 81.0275V81.7727H76.9946V81.2049C77.2766 81.2049 77.4882 81.1339 77.6292 81.0275C77.7702 80.921 77.8759 80.7436 77.9464 80.5662C78.0169 80.3533 78.0522 80.1404 78.0522 79.8565C78.0522 79.5726 78.0522 79.2888 78.0522 78.9339V74.6758C78.0522 74.4984 78.0522 74.2855 78.0522 74.108C78.0522 73.8951 78.0874 73.7177 78.1227 73.5048L76.8184 73.5758V72.8306H77.3824C77.6292 72.8306 77.8759 72.8306 78.0522 72.7951C78.2285 72.7596 78.3695 72.7242 78.4752 72.6887C78.581 72.6532 78.6867 72.5822 78.7572 72.5467C78.8277 72.4758 78.8983 72.4403 78.9688 72.3693H79.4975C79.5328 72.5467 79.5328 72.7951 79.5328 73.079C79.5328 73.3629 79.568 73.7532 79.568 74.179C79.7091 73.9661 79.8853 73.7177 80.0968 73.4693C80.3083 73.2209 80.5551 73.0435 80.8371 72.8306C81.1191 72.6532 81.4012 72.5113 81.7184 72.3693C82.0357 72.2629 82.353 72.1919 82.6703 72.1919C82.8465 72.1919 82.9875 72.2274 83.1638 72.2629C83.34 72.2983 83.4458 72.3693 83.5868 72.4758C83.6926 72.5822 83.7983 72.6887 83.8688 72.8306C83.9393 72.9725 83.9746 73.15 83.9746 73.3629C83.9746 73.4338 83.9746 73.5403 83.9393 73.6468C83.9041 73.7532 83.8688 73.8597 83.7631 73.9306C83.6926 74.0371 83.5868 74.108 83.4811 74.1435C83.3753 74.2145 83.2343 74.25 83.058 74.25C82.917 74.25 82.8113 74.2145 82.6703 74.1435C82.5645 74.0726 82.4587 74.0016 82.3882 73.8951C82.3177 73.7887 82.2472 73.6822 82.212 73.5758C82.3177 73.4338 82.2825 73.3274 82.3177 73.1855Z" fill="black"/>
<path d="M90.3555 68.6075C90.2498 68.501 90.144 68.3946 90.003 68.3591C89.862 68.3236 89.721 68.2881 89.58 68.2881C89.298 68.2881 89.0512 68.3591 88.8749 68.501C88.6987 68.643 88.5577 68.7849 88.4166 68.9978C88.3109 69.2107 88.2404 69.4591 88.1699 69.7075C88.1346 69.9559 88.0994 70.2398 88.0994 70.4882V72.4398H90.6023V73.1495L88.0994 73.185L88.1346 79.7496C88.1346 79.998 88.1346 80.2109 88.1346 80.4238C88.1346 80.6012 88.0994 80.8141 88.0641 81.027L89.2274 80.956V81.7012H85.4554V81.1335C85.7375 81.1335 85.949 81.0625 86.09 80.956C86.231 80.8496 86.3368 80.6722 86.4073 80.4947C86.4778 80.2818 86.513 80.0689 86.513 79.785C86.513 79.5012 86.513 79.2173 86.513 78.8625L86.4778 73.185L84.9619 73.2205V72.3688H86.4778V71.9785C86.4778 71.3043 86.5483 70.6656 86.654 70.1333C86.7598 69.6011 86.9713 69.1043 87.2181 68.7494C87.4648 68.3591 87.8174 68.0752 88.2404 67.8623C88.6634 67.6494 89.1922 67.543 89.7915 67.543C90.003 67.543 90.2145 67.5785 90.426 67.6139C90.6728 67.6494 90.8843 67.7559 91.0606 67.8623C91.2721 67.9688 91.4131 68.1107 91.5541 68.2881C91.6951 68.4656 91.7656 68.6785 91.7656 68.9269C91.7656 69.1752 91.6951 69.3882 91.5541 69.5301C91.4131 69.672 91.2368 69.7785 90.9901 69.7785C90.8491 69.7785 90.7081 69.743 90.6023 69.7075C90.4965 69.672 90.426 69.6011 90.3555 69.5301C90.285 69.4591 90.2498 69.3527 90.2145 69.2817C90.1793 69.1752 90.1793 69.1043 90.1793 69.0333C90.1793 68.9623 90.1793 68.8914 90.2145 68.8204C90.285 68.7849 90.3203 68.714 90.3555 68.6075Z" fill="black"/>
<path d="M99.5199 76.2726L93.0335 76.3791C93.0335 77.0887 93.0688 77.7275 93.2098 78.3307C93.3155 78.8984 93.4918 79.3952 93.7386 79.821C93.9853 80.2468 94.3026 80.5662 94.6904 80.7791C95.0781 80.992 95.5364 81.0985 96.1005 81.0985C96.3825 81.0985 96.6998 81.063 96.9818 80.992C97.299 80.921 97.5811 80.8146 97.8631 80.6726C98.1451 80.5307 98.3919 80.3888 98.6386 80.1759C98.8854 79.9984 99.0617 79.7855 99.2379 79.5726L99.6962 79.9275C99.4494 80.3178 99.1674 80.6372 98.8149 80.921C98.4976 81.2049 98.1451 81.4178 97.7926 81.5952C97.4401 81.7727 97.0875 81.8791 96.6998 81.9501C96.3472 82.0211 95.9947 82.0565 95.6774 82.0565C95.0429 82.0565 94.4436 81.9501 93.8796 81.7017C93.3155 81.4888 92.8572 81.1339 92.4342 80.7081C92.0464 80.2823 91.7292 79.7501 91.4824 79.1468C91.2356 78.5436 91.1299 77.8694 91.1299 77.0887C91.1299 76.45 91.2356 75.8113 91.4472 75.2081C91.6587 74.6048 91.9759 74.0726 92.399 73.6113C92.822 73.15 93.2803 72.7951 93.8796 72.5113C94.4436 72.2274 95.0781 72.0854 95.7832 72.0854C96.2767 72.0854 96.7703 72.1564 97.2285 72.3338C97.6868 72.5113 98.0746 72.7597 98.4271 73.079C98.7796 73.4339 99.0264 73.8597 99.2379 74.3564C99.4142 74.9952 99.5199 75.5984 99.5199 76.2726ZM95.7832 72.9016C95.0781 72.9016 94.4789 73.1145 93.9853 73.5403C93.527 73.9661 93.2098 74.6403 93.0688 75.5984H97.7573C97.7573 75.279 97.7221 74.9597 97.6516 74.6403C97.5811 74.321 97.4753 74.0371 97.299 73.7887C97.1228 73.5403 96.9465 73.3274 96.6645 73.15C96.453 72.9726 96.1357 72.9016 95.7832 72.9016Z" fill="black"/>
<path d="M107.136 73.8951C107.065 73.6822 106.924 73.5048 106.783 73.3629C106.607 73.2209 106.431 73.1145 106.254 73.0435C106.078 72.9726 105.867 72.9371 105.69 72.9016C105.514 72.8661 105.338 72.8661 105.232 72.8661C104.809 72.8661 104.421 72.9371 104.069 73.1145C103.716 73.2919 103.399 73.5403 103.117 73.8597C102.835 74.179 102.659 74.6048 102.482 75.1016C102.341 75.5984 102.236 76.1661 102.236 76.8049C102.236 77.4081 102.306 77.9758 102.482 78.5081C102.623 79.0404 102.835 79.4662 103.117 79.8565C103.399 80.2468 103.716 80.5307 104.104 80.7436C104.492 80.9565 104.915 81.063 105.408 81.063C105.69 81.063 105.972 81.0275 106.254 80.9565C106.536 80.8856 106.818 80.7791 107.065 80.6017C107.312 80.4597 107.559 80.2823 107.77 80.1049C107.982 79.9275 108.158 79.7146 108.299 79.4662L108.792 79.821C108.546 80.2114 108.264 80.5307 107.946 80.8146C107.629 81.0985 107.312 81.3114 106.959 81.4888C106.607 81.6662 106.254 81.8081 105.902 81.8791C105.549 81.9501 105.232 82.021 104.915 82.021C104.28 82.021 103.716 81.9146 103.152 81.7017C102.588 81.4888 102.13 81.1694 101.707 80.7791C101.284 80.3533 100.966 79.8565 100.72 79.2888C100.473 78.6855 100.367 78.0113 100.367 77.2662C100.367 76.8403 100.402 76.4145 100.508 75.9887C100.614 75.5629 100.755 75.1726 100.966 74.7823C101.178 74.3919 101.39 74.0371 101.672 73.7177C101.954 73.3984 102.271 73.1145 102.623 72.8661C102.976 72.6177 103.364 72.4403 103.787 72.2984C104.21 72.1564 104.668 72.0854 105.126 72.0854C105.62 72.0854 106.113 72.1564 106.536 72.2629C106.959 72.4048 107.312 72.5467 107.629 72.7597C107.946 72.9726 108.158 73.2209 108.334 73.5048C108.51 73.7887 108.581 74.0726 108.581 74.3564C108.581 74.6403 108.51 74.8532 108.369 75.0306C108.228 75.2081 108.017 75.3145 107.735 75.3145C107.559 75.3145 107.453 75.279 107.312 75.2436C107.206 75.1726 107.1 75.1016 107.065 75.0306C106.995 74.9597 106.959 74.8532 106.924 74.7468C106.889 74.6403 106.889 74.5693 106.889 74.4629C106.889 74.3564 106.924 74.2145 106.959 74.0726C106.924 74.1081 107.03 74.0016 107.136 73.8951Z" fill="black"/>
<path d="M109.356 72.4759C109.674 72.4759 109.991 72.3695 110.238 72.1921C110.52 72.0146 110.731 71.8017 110.943 71.5533C111.154 71.305 111.331 71.0211 111.436 70.7017C111.577 70.3824 111.683 70.0985 111.754 69.8501H112.388C112.388 70.3469 112.388 70.8082 112.388 71.234C112.388 71.6598 112.388 72.0856 112.388 72.4405H115.49V73.1501L112.388 73.1856C112.388 74.0018 112.388 74.676 112.388 75.2437C112.388 75.8115 112.388 76.2728 112.388 76.6631C112.388 77.0534 112.388 77.3373 112.388 77.5502C112.388 77.7631 112.388 77.9405 112.388 78.047C112.388 78.1534 112.388 78.2244 112.388 78.2599C112.388 78.2954 112.388 78.2954 112.388 78.3308C112.388 78.7567 112.423 79.1115 112.459 79.4663C112.494 79.7857 112.564 80.0696 112.705 80.2825C112.811 80.4954 112.952 80.6728 113.128 80.7793C113.305 80.8857 113.516 80.9567 113.798 80.9567C114.116 80.9567 114.433 80.8502 114.75 80.6728C115.067 80.4954 115.349 80.2115 115.596 79.8567L116.09 80.2825C115.808 80.7083 115.561 81.0277 115.279 81.2406C114.997 81.4889 114.75 81.6664 114.503 81.7728C114.257 81.8793 114.045 81.9502 113.833 81.9857C113.622 82.0212 113.446 82.0212 113.305 82.0212C113.128 82.0212 112.917 82.0212 112.741 81.9857C112.529 81.9502 112.353 81.8793 112.177 81.8083C112 81.7373 111.824 81.5954 111.648 81.4535C111.472 81.276 111.331 81.0986 111.225 80.8147C111.084 80.5664 111.013 80.247 110.943 79.8922C110.872 79.5373 110.837 79.1115 110.837 78.6147L110.767 73.2566H109.356V72.4759Z" fill="black"/>
<path d="M125.926 50.3678C125.503 50.3678 125.186 50.0484 125.186 49.6226C125.186 49.1968 125.503 48.8774 125.926 48.8774C126.349 48.8774 126.666 49.2323 126.666 49.6226C126.666 50.0129 126.349 50.3678 125.926 50.3678Z" fill="#006241"/>
<path d="M104.21 50.3697C103.787 50.3697 103.47 50.0504 103.47 49.6246C103.47 49.1988 103.787 48.8794 104.21 48.8794C104.633 48.8794 104.95 49.2342 104.95 49.6246C104.95 50.0149 104.598 50.3697 104.21 50.3697Z" fill="#006241"/>
<path d="M115.068 48.9855C114.645 48.9855 114.328 48.6661 114.328 48.2403C114.328 47.8145 114.645 47.4951 115.068 47.4951C115.491 47.4951 115.809 47.85 115.809 48.2403C115.809 48.6661 115.491 48.9855 115.068 48.9855Z" fill="#006241"/>
<path d="M141.331 45.9329C141.155 45.6845 138.793 46.2522 138.088 46.1458C137.488 45.9329 137.171 45.2587 136.642 45.2587C135.937 45.2232 135.444 45.6845 135.444 46.3587C135.444 46.4297 135.444 46.5361 135.479 46.6071C135.021 47.849 132.976 48.8781 131.672 48.6652C129.733 48.3813 129.345 46.82 128.993 45.5426C128.816 44.9393 129.768 45.0813 129.909 44.2296C130.015 43.5199 129.627 42.9167 128.675 42.6683C129.169 42.5264 129.486 42.1361 129.486 41.6748C129.486 41.107 129.38 40.3264 128.57 40.1844C127.829 40.0425 127.054 41.107 127.054 41.6748C127.054 42.0296 127.265 42.349 127.583 42.5264C126.172 42.5619 125.115 42.9877 125.221 43.9103C125.256 44.2296 125.503 44.5135 125.397 44.7619C125.291 45.0103 122.965 47.1039 121.413 47.1039C119.757 47.1039 117.395 44.9748 117.218 44.1941C117.183 44.1941 118.241 43.5909 118.346 42.9522C118.487 41.7812 117.465 40.8941 116.231 40.5393C116.372 40.3264 116.443 40.078 116.443 39.8296C116.443 39.1199 115.844 37.665 115.174 37.665C115.138 37.665 115.138 37.665 115.103 37.665C115.068 37.665 115.068 37.665 115.033 37.665C114.363 37.665 113.764 39.1199 113.764 39.8296C113.764 40.078 113.834 40.3264 113.975 40.5393C112.741 40.8941 111.719 41.7812 111.86 42.9522C111.931 43.5909 113.023 44.1941 112.988 44.1941C112.812 44.9748 110.45 47.1039 108.793 47.1039C107.242 47.1039 104.915 45.0103 104.81 44.7619C104.704 44.5135 104.951 44.2651 104.986 43.9103C105.092 42.9877 104.034 42.5619 102.624 42.5264C102.941 42.349 103.153 42.0296 103.153 41.6748C103.153 41.107 102.377 40.0425 101.637 40.1844C100.826 40.3264 100.72 41.107 100.72 41.6748C100.72 42.1361 101.073 42.5264 101.531 42.6683C100.579 42.9167 100.191 43.5199 100.297 44.2296C100.438 45.1167 101.39 44.9393 101.214 45.5426C100.861 46.82 100.438 48.3813 98.5346 48.6652C97.2303 48.8781 95.1857 47.8135 94.7274 46.6071C94.7274 46.5361 94.7626 46.4651 94.7626 46.3587C94.7626 45.6845 94.2691 45.2232 93.564 45.2587C93.0353 45.2942 92.718 45.9329 92.1187 46.1458C91.4137 46.2522 89.0517 45.72 88.8755 45.9329C88.8755 45.9329 88.6992 46.1103 88.6992 46.3587C88.6992 46.5361 97.3008 53.7039 97.9706 54.591C98.6051 55.4427 99.4159 60.7653 99.7685 61.8653C99.8037 62.0073 99.839 62.1137 99.9095 62.2202C100.897 63.4621 108.511 64.2783 115.033 64.2783C115.068 64.2783 115.103 64.2783 115.138 64.2783C115.174 64.2783 115.209 64.2783 115.244 64.2783C121.766 64.2783 129.38 63.4621 130.368 62.2202C130.473 62.1137 130.509 61.9718 130.509 61.8653C130.861 60.7653 131.672 55.4427 132.306 54.591C132.976 53.7039 141.578 46.5361 141.578 46.3587C141.472 46.1103 141.331 45.9329 141.331 45.9329ZM115.174 63.3557C115.138 63.3557 115.103 63.3557 115.068 63.3557C115.033 63.3557 114.997 63.3557 114.962 63.3557C107.524 63.3557 101.919 62.3976 100.756 61.7589C101.496 61.0492 107.312 59.5588 114.962 59.5588C114.997 59.5588 115.033 59.5588 115.068 59.5588C115.103 59.5588 115.138 59.5588 115.174 59.5588C122.824 59.5588 128.64 61.0492 129.38 61.7589C128.182 62.3976 122.612 63.3557 115.174 63.3557ZM131.073 55.3007C130.861 56.0104 130.544 59.9137 130.156 60.8008C129.239 60.0556 122.682 58.3879 115.068 58.3879C115.068 58.3879 115.068 58.3879 115.033 58.3879C115.033 58.3879 115.033 58.3879 114.997 58.3879C107.348 58.3879 100.826 60.0556 99.9095 60.8008C99.5217 59.9137 99.2397 55.9749 98.9929 55.3007C98.8872 54.9814 99.0987 54.6975 99.0987 54.6975C100.156 53.2426 106.819 51.5394 114.927 51.5394C114.962 51.5394 115.103 51.5394 115.138 51.5394C123.211 51.5394 129.909 53.2426 130.967 54.6975C131.002 54.6975 131.178 55.0169 131.073 55.3007ZM132.024 53.4201C132.024 53.4201 130.368 52.7104 127.406 51.9297C124.057 51.0426 119.334 50.6523 115.103 50.6523C110.873 50.6523 106.149 51.1846 102.8 51.9297C100.015 52.533 98.1821 53.4201 98.1821 53.4201L94.8331 49.8716C94.8331 49.8716 98.4641 50.3684 100.297 49.6232C102.13 48.8781 102.976 45.5071 102.976 45.5071C102.976 45.5071 107.03 48.6297 109.392 48.4877C111.79 48.3458 115.103 43.7683 115.103 43.7683C115.103 43.7683 118.452 48.3458 120.814 48.4877C123.176 48.6297 127.23 45.5071 127.23 45.5071C127.23 45.5071 128.111 48.8426 129.909 49.6232C131.742 50.3684 135.373 49.8716 135.373 49.8716L132.024 53.4201Z" fill="#006241"/>
<path d="M115.067 52.5688C113.939 52.5688 113.022 53.6334 113.022 54.9108C113.022 56.2237 113.939 57.2528 115.067 57.2528C116.195 57.2528 117.112 56.1882 117.112 54.9108C117.076 53.6334 116.195 52.5688 115.067 52.5688Z" fill="#006241"/>
<path d="M124.093 58.2828C125.01 58.5312 126.032 57.857 126.349 56.757C126.666 55.657 126.173 54.5215 125.221 54.2731C124.305 54.0247 123.282 54.6989 122.965 55.7989C122.683 56.9344 123.176 58.0345 124.093 58.2828Z" fill="#006241"/>
<path d="M106.008 58.2848C105.092 58.5332 104.069 57.859 103.752 56.759C103.435 55.659 103.928 54.5235 104.88 54.2751C105.797 54.0267 106.819 54.7009 107.136 55.8009C107.454 56.9364 106.96 58.0364 106.008 58.2848Z" fill="#006241"/>
<path d="M133.645 81.0986H133.152C132.94 81.0986 132.694 81.134 132.341 81.205C131.989 81.276 131.601 81.4179 131.178 81.5598C131.002 81.6308 130.79 81.7018 130.543 81.7728C130.332 81.8437 130.085 81.8792 129.838 81.9147C129.591 81.9502 129.38 81.9857 129.133 82.0211C128.886 82.0566 128.675 82.0566 128.463 82.0566C127.547 82.0566 126.701 81.9147 125.925 81.5953C125.15 81.3115 124.48 80.8502 123.951 80.3179C123.387 79.7501 122.964 79.076 122.647 78.2598C122.329 77.4437 122.188 76.5566 122.188 75.5275C122.188 74.9598 122.259 74.3565 122.365 73.7888C122.47 73.221 122.647 72.6533 122.894 72.121C123.14 71.5888 123.422 71.1275 123.775 70.6662C124.127 70.2049 124.55 69.8146 125.009 69.4952C125.502 69.1758 126.031 68.892 126.63 68.7145C127.23 68.5371 127.899 68.4307 128.604 68.4307C128.922 68.4307 129.274 68.4662 129.627 68.5016C129.979 68.5371 130.297 68.6081 130.649 68.7145C130.966 68.7855 131.284 68.892 131.601 69.0339C131.918 69.1758 132.2 69.3178 132.447 69.4597L132.376 68.5726H133.399V72.8307H132.729C132.694 72.263 132.553 71.7307 132.341 71.2694C132.13 70.8081 131.848 70.4178 131.495 70.1339C131.143 69.8146 130.72 69.6016 130.261 69.4242C129.803 69.2468 129.309 69.1758 128.745 69.1758C128.076 69.1758 127.476 69.3178 126.912 69.6016C126.348 69.8855 125.819 70.3113 125.396 70.8436C124.973 71.3759 124.621 71.9791 124.374 72.7243C124.127 73.4339 123.986 74.2501 123.986 75.1017C123.986 75.9888 124.092 76.805 124.339 77.5146C124.586 78.2598 124.903 78.8985 125.361 79.4308C125.784 79.9631 126.313 80.3889 126.912 80.6727C127.512 80.9921 128.181 81.134 128.922 81.134C129.168 81.134 129.415 81.0986 129.697 81.0631C129.979 81.0276 130.226 80.9566 130.508 80.8856C130.79 80.8147 131.037 80.7082 131.319 80.6018C131.601 80.4953 131.848 80.3534 132.094 80.176V76.0953L130.79 76.1662V75.3501H134.95V75.9533C134.738 75.9533 134.527 75.9888 134.386 76.0953C134.245 76.1662 134.104 76.3082 133.998 76.4146C133.892 76.5566 133.822 76.6985 133.787 76.8759C133.751 77.0533 133.716 77.1953 133.681 77.3727C133.645 77.5501 133.645 77.6921 133.645 77.834C133.645 77.9759 133.645 78.0824 133.645 78.1888V81.0986Z" fill="#006241"/>
<path d="M141.118 73.2206C140.872 73.2206 140.66 73.2561 140.413 73.3625C140.167 73.469 139.92 73.6109 139.708 73.7884C139.462 73.9658 139.25 74.1787 139.039 74.4271C138.827 74.6755 138.651 74.9593 138.474 75.2787L138.51 79.8562C138.51 80.1046 138.51 80.3175 138.51 80.5304C138.51 80.7078 138.474 80.9207 138.439 81.1336L139.603 81.0626V81.8078H135.831V81.2401C136.113 81.2401 136.324 81.1691 136.465 81.0626C136.606 80.9562 136.712 80.7788 136.782 80.6013C136.853 80.3884 136.888 80.1755 136.888 79.8917C136.888 79.6078 136.888 79.3239 136.888 78.9691V74.711C136.888 74.5335 136.888 74.3206 136.888 74.1432C136.888 73.9303 136.923 73.7529 136.959 73.54L135.654 73.6109V72.8658H136.218C136.465 72.8658 136.712 72.8658 136.888 72.8303C137.064 72.7948 137.205 72.7593 137.311 72.7238C137.417 72.6883 137.523 72.6174 137.593 72.5819C137.664 72.5109 137.734 72.4754 137.805 72.4045H138.333C138.369 72.5819 138.369 72.8303 138.369 73.1142C138.369 73.398 138.404 73.7884 138.404 74.2142C138.545 74.0013 138.721 73.7529 138.933 73.5045C139.144 73.2561 139.391 73.0787 139.673 72.8658C139.955 72.6883 140.237 72.5464 140.554 72.4045C140.872 72.298 141.189 72.2271 141.506 72.2271C141.682 72.2271 141.823 72.2625 142 72.298C142.176 72.3335 142.282 72.4045 142.423 72.5109C142.529 72.6174 142.634 72.7238 142.705 72.8658C142.775 73.0077 142.811 73.1851 142.811 73.398C142.811 73.469 142.811 73.5755 142.775 73.6819C142.74 73.7884 142.705 73.8948 142.599 73.9658C142.529 74.0722 142.423 74.1432 142.317 74.1787C142.211 74.2497 142.07 74.2851 141.894 74.2851C141.753 74.2851 141.647 74.2497 141.506 74.1787C141.4 74.1077 141.295 74.0367 141.224 73.9303C141.154 73.8238 141.083 73.7174 141.048 73.6109C141.118 73.469 141.118 73.3625 141.118 73.2206Z" fill="#006241"/>
<path d="M147.253 72.1924C147.887 72.1924 148.522 72.2988 149.086 72.5472C149.65 72.7956 150.144 73.115 150.567 73.5408C150.99 73.9666 151.307 74.4634 151.554 75.0311C151.8 75.5989 151.906 76.2376 151.906 76.9118C151.906 77.6215 151.8 78.2957 151.554 78.9344C151.307 79.5731 150.99 80.1054 150.567 80.5667C150.144 81.028 149.65 81.3828 149.086 81.6667C148.522 81.9506 147.923 82.057 147.253 82.057C146.618 82.057 145.984 81.9506 145.42 81.7022C144.856 81.4538 144.362 81.1344 143.939 80.7441C143.516 80.3183 143.199 79.8215 142.952 79.2538C142.705 78.686 142.6 78.0473 142.6 77.3376C142.6 76.5924 142.705 75.9182 142.952 75.2795C143.199 74.6408 143.516 74.1085 143.939 73.6472C144.362 73.1859 144.856 72.8311 145.42 72.5472C145.984 72.3343 146.583 72.1924 147.253 72.1924ZM147.253 72.9021C146.759 72.9021 146.336 73.0085 146.019 73.2214C145.667 73.4343 145.385 73.7182 145.173 74.1085C144.962 74.4634 144.785 74.8892 144.68 75.3505C144.574 75.8118 144.538 76.3086 144.538 76.8053C144.538 77.3731 144.609 77.9408 144.715 78.4731C144.821 79.0054 144.997 79.5021 145.244 79.928C145.49 80.3538 145.772 80.6731 146.16 80.957C146.513 81.2054 146.936 81.3473 147.429 81.3473C147.923 81.3473 148.31 81.2409 148.663 81.028C148.98 80.8151 149.262 80.5312 149.474 80.1409C149.685 79.786 149.826 79.3602 149.932 78.8989C150.038 78.4376 150.073 77.9408 150.073 77.4795C150.073 76.9118 150.038 76.3795 149.932 75.8118C149.826 75.2795 149.65 74.7827 149.439 74.3569C149.227 73.9311 148.945 73.5763 148.593 73.3279C148.134 73.044 147.746 72.9021 147.253 72.9021Z" fill="#006241"/>
<path d="M159.626 74.9245C159.626 74.6051 159.626 74.3567 159.661 74.1438C159.661 73.9309 159.696 73.718 159.732 73.5051L158.392 73.5761V72.8309H158.956C159.238 72.8309 159.45 72.8309 159.626 72.7954C159.802 72.76 159.978 72.7245 160.119 72.689C160.261 72.6535 160.366 72.5825 160.437 72.5471C160.507 72.4761 160.613 72.4406 160.684 72.3696H161.212L161.177 79.3955C161.177 79.502 161.177 79.6084 161.177 79.7504C161.177 79.8923 161.177 80.0697 161.177 80.2117C161.177 80.3891 161.177 80.531 161.142 80.7084C161.142 80.8859 161.107 81.0278 161.107 81.1342L162.446 81.0633V81.8439H159.802C159.767 81.631 159.732 81.4536 159.732 81.2762C159.696 81.0988 159.696 80.9213 159.696 80.7439C159.52 80.9213 159.273 81.1343 159.062 81.2762C158.815 81.4536 158.568 81.5955 158.322 81.7375C158.075 81.8794 157.793 81.9504 157.511 82.0568C157.229 82.1278 156.947 82.1633 156.7 82.1633C156.206 82.1633 155.748 82.0923 155.36 81.9504C154.973 81.8084 154.655 81.5955 154.409 81.2762C154.162 80.9568 153.95 80.531 153.845 80.0342C153.704 79.502 153.668 78.8633 153.668 78.1181V74.818C153.668 74.6406 153.668 74.4277 153.668 74.2148C153.668 74.0019 153.704 73.8245 153.739 73.6116L152.47 73.6825V72.9374H153.034C153.281 72.9374 153.527 72.9374 153.704 72.9019C153.88 72.8664 154.056 72.8309 154.197 72.7954C154.338 72.76 154.444 72.689 154.514 72.6535C154.585 72.5825 154.691 72.5471 154.761 72.4761H155.29V78.1536C155.29 78.6858 155.325 79.1471 155.396 79.5729C155.466 79.9633 155.572 80.2826 155.748 80.5665C155.924 80.8149 156.101 81.0278 156.383 81.1342C156.63 81.2407 156.947 81.3117 157.299 81.3117C157.546 81.3117 157.758 81.2762 158.004 81.2052C158.216 81.1342 158.427 81.0278 158.639 80.8859C158.85 80.7439 159.027 80.602 159.203 80.4246C159.379 80.2471 159.52 80.0697 159.661 79.8923V78.9342V74.9245H159.626Z" fill="#006241"/>
<path d="M163.715 74.711C163.715 74.5335 163.715 74.3206 163.715 74.1077C163.715 73.8948 163.751 73.7174 163.786 73.5045L162.481 73.5754V72.7948C162.869 72.7948 163.222 72.7948 163.469 72.7593C163.715 72.7238 163.927 72.6883 164.068 72.6529C164.209 72.6174 164.35 72.5464 164.42 72.5109C164.491 72.44 164.597 72.4045 164.632 72.3335H165.161C165.161 72.44 165.196 72.5819 165.196 72.7593C165.196 72.9367 165.231 73.1142 165.231 73.3271C165.407 73.1496 165.619 73.0077 165.866 72.8658C166.077 72.7238 166.324 72.6174 166.571 72.5109C166.817 72.4045 167.064 72.3335 167.346 72.298C167.593 72.227 167.875 72.2271 168.122 72.2271C168.651 72.2271 169.179 72.3335 169.673 72.5464C170.166 72.7593 170.589 73.0787 170.977 73.469C171.365 73.8593 171.647 74.3561 171.859 74.9239C172.07 75.4916 172.176 76.1303 172.176 76.8755C172.176 77.4078 172.105 77.9045 172 78.3658C171.894 78.8271 171.718 79.2529 171.506 79.6433C171.295 80.0336 171.048 80.3884 170.766 80.7078C170.484 81.0272 170.166 81.2755 169.814 81.4884C169.461 81.7014 169.109 81.8788 168.686 81.9852C168.298 82.0917 167.875 82.1627 167.487 82.1627C166.641 82.1627 165.901 81.9497 165.266 81.5594V84.6466C165.266 84.8949 165.266 85.1078 165.266 85.3208C165.266 85.4982 165.231 85.7111 165.196 85.924L166.359 85.853V86.5982H162.587V86.0304C162.869 86.0304 163.081 85.9595 163.222 85.853C163.363 85.7466 163.469 85.5691 163.539 85.3917C163.61 85.1788 163.645 84.9659 163.645 84.682C163.645 84.3982 163.645 84.1143 163.68 83.7594L163.715 74.711ZM167.487 73.1142C167.276 73.1142 167.064 73.1496 166.853 73.1851C166.641 73.2561 166.465 73.3271 166.253 73.398C166.077 73.5045 165.901 73.6109 165.725 73.7174C165.548 73.8593 165.407 73.9658 165.302 74.1077C165.302 74.1432 165.302 74.2142 165.302 74.2851C165.302 74.3561 165.302 74.4626 165.302 74.6045C165.302 74.7464 165.302 74.9593 165.302 75.2432C165.302 75.5271 165.302 75.8819 165.302 76.3432C165.302 76.8045 165.302 77.3723 165.302 78.082C165.302 78.7562 165.302 79.6078 165.302 80.6013C165.619 80.8142 165.936 81.0272 166.324 81.1336C166.676 81.2755 167.064 81.311 167.487 81.311C167.91 81.311 168.333 81.2046 168.651 80.9917C169.003 80.7788 169.285 80.4949 169.532 80.1046C169.779 79.7142 169.955 79.2884 170.096 78.7562C170.237 78.2239 170.307 77.6561 170.307 77.0529C170.307 76.5561 170.272 76.0594 170.166 75.5981C170.061 75.1368 169.884 74.6755 169.673 74.3206C169.461 73.9303 169.144 73.6464 168.792 73.4335C168.404 73.2206 167.981 73.1142 167.487 73.1142Z" fill="#006241"/>
<path d="M139.109 91.7078C138.933 91.7078 138.792 91.7078 138.58 91.7078C138.58 91.1756 138.58 90.6078 138.58 90.0755C138.58 89.5433 138.58 89.011 138.58 88.4787C138.545 88.4787 138.545 88.4433 138.51 88.4433C138.439 88.5142 138.404 88.5852 138.333 88.6562C137.523 89.6142 136.5 90.7497 135.69 91.7078H135.302C135.302 90.3239 135.302 88.8691 135.302 87.4497C135.478 87.4497 135.619 87.4497 135.831 87.4497C135.831 88.5142 135.831 89.6142 135.831 90.7497C135.936 90.6788 135.795 90.7852 135.831 90.7497C136.677 89.7917 137.875 88.4433 138.686 87.4497H139.074C139.109 88.8691 139.109 90.2885 139.109 91.7078Z" fill="black"/>
<path d="M98.7443 91.7433C98.7796 91.7788 98.1098 90.5723 98.1098 90.5723H95.5716C95.5716 90.5723 95.0781 91.5659 94.9723 91.7433H94.373C94.4436 91.6014 95.9594 88.6917 96.5939 87.4497C96.735 87.4497 97.0522 87.4497 97.0522 87.4497C97.7573 88.7981 98.6033 90.3949 99.3084 91.7433H98.7443ZM97.863 90.0755C97.5105 89.4368 97.1932 88.8336 96.8407 88.1594C96.4882 88.8336 96.1709 89.4368 95.8536 90.0755C96.5587 90.0755 97.1932 90.0755 97.863 90.0755Z" fill="black"/>
<path d="M157.616 91.6725C157.652 91.708 156.982 90.5015 156.982 90.5015H154.444C154.444 90.5015 153.95 91.4951 153.844 91.6725H153.245C153.316 91.5306 154.831 88.6209 155.466 87.3789C155.607 87.3789 155.924 87.3789 155.924 87.3789C156.629 88.7273 157.475 90.3241 158.18 91.6725H157.616ZM156.735 90.0047C156.383 89.366 156.065 88.7628 155.713 88.0886C155.36 88.7628 155.043 89.366 154.726 90.0047C155.396 90.0047 156.065 90.0047 156.735 90.0047Z" fill="black"/>
<path d="M79.3564 87.2729C79.568 87.3439 79.7795 87.3794 79.991 87.4504C80.414 87.6278 80.7665 87.9117 81.0486 88.302C80.9076 88.4084 80.7665 88.5149 80.6255 88.6214C79.7795 87.6633 78.7219 87.5213 77.9464 88.302C77.2413 89.0117 77.3118 90.3246 78.0521 90.9633C78.8629 91.673 79.9557 91.4246 80.7313 90.3956C80.8723 90.502 81.0133 90.6085 81.1543 90.7149C80.7313 91.4956 80.0967 91.8859 79.2154 91.8859C78.0874 91.8859 77.2061 91.2472 76.9945 90.1472C76.6773 88.7278 77.5233 87.4859 78.8277 87.3439C78.8629 87.3439 78.8982 87.3084 78.8982 87.3084C79.0392 87.273 79.1802 87.2729 79.3564 87.2729Z" fill="black"/>
<path d="M105.585 91.779C105.444 91.779 105.303 91.779 105.126 91.779C105.126 90.3241 105.126 88.8692 105.126 87.3789C105.267 87.3789 105.444 87.3789 105.585 87.3789C105.585 88.8338 105.585 90.2886 105.585 91.779Z" fill="black"/>
<path d="M75.3728 89.2975C75.8663 89.5814 76.1131 90.0427 76.0426 90.6104C75.9721 91.3201 75.4786 91.7459 74.7383 91.7459C73.7864 91.7814 72.8699 91.7459 71.8828 91.7459C71.8828 90.2911 71.8828 88.8362 71.8828 87.3813C71.9886 87.3813 72.0591 87.3813 72.1648 87.3813C73.0109 87.3813 73.8569 87.3813 74.703 87.4168C75.126 87.4168 75.5138 87.5943 75.6548 88.0555C75.7958 88.4814 75.7606 88.9427 75.3728 89.262C75.408 89.262 75.3728 89.262 75.3728 89.2975ZM72.4469 89.6169C72.4469 90.1491 72.4469 90.6814 72.4469 91.2491C73.2224 91.2491 73.998 91.2491 74.7735 91.2491C75.2318 91.2491 75.4786 90.9298 75.4786 90.4685C75.4786 90.0072 75.2318 89.6523 74.7735 89.6523C74.0332 89.6169 73.2577 89.6169 72.4469 89.6169ZM72.4469 89.1201C73.1872 89.1201 73.8922 89.1201 74.6325 89.1201C75.0203 89.1201 75.267 88.8717 75.2318 88.4814C75.2318 88.091 74.985 87.9136 74.5972 87.8781C74.0685 87.8781 73.5397 87.8781 73.0461 87.8781C72.8699 87.8781 72.6936 87.8781 72.4821 87.8781C72.4469 88.3039 72.4469 88.6943 72.4469 89.1201Z" fill="black"/>
<path d="M90.6719 87.4147C91.6237 87.4147 92.5402 87.3792 93.4568 87.4147C94.1266 87.4502 94.5144 87.947 94.4791 88.6212C94.4439 89.2954 93.9856 89.7921 93.3511 89.8276C92.7165 89.8631 92.1172 89.8276 91.4827 89.8276C91.4122 89.8276 91.3064 89.8276 91.2007 89.8276C91.2007 90.4663 91.2007 91.1051 91.2007 91.7438C91.0244 91.7438 90.8481 91.7438 90.6719 91.7438C90.6719 90.2889 90.6719 88.8696 90.6719 87.4147ZM91.2007 87.9115C91.2007 88.4083 91.2007 88.8696 91.2007 89.3309C91.9057 89.3309 92.6108 89.3309 93.2805 89.3309C93.7036 89.3309 93.9151 89.047 93.9151 88.6566C93.9151 88.2663 93.7036 87.947 93.3158 87.947C92.6108 87.876 91.9057 87.9115 91.2007 87.9115Z" fill="black"/>
<path d="M100.614 89.1173C101.495 89.1173 102.306 89.1173 103.187 89.1173C103.187 88.5496 103.187 87.9818 103.187 87.4141C103.363 87.4141 103.54 87.4141 103.716 87.4141C103.716 88.8689 103.716 90.2883 103.716 91.7431C103.54 91.7431 103.363 91.7431 103.187 91.7431C103.187 91.0335 103.187 90.3593 103.187 89.6496C102.341 89.6496 101.495 89.6496 100.614 89.6496C100.614 90.3593 100.614 91.0335 100.614 91.7431C100.437 91.7431 100.261 91.7431 100.085 91.7431C100.085 90.2883 100.085 88.8689 100.085 87.4141C100.261 87.4141 100.402 87.4141 100.614 87.4141C100.614 87.9818 100.614 88.5496 100.614 89.1173Z" fill="black"/>
<path d="M87.2886 91.7435C87.077 91.7435 86.936 91.7435 86.7598 91.7435C86.7598 90.2886 86.7598 88.8692 86.7598 87.3789C87.8526 87.3789 88.9102 87.3789 90.003 87.3789C90.003 87.5208 90.003 87.6983 90.003 87.8757C89.0864 87.8757 88.2051 87.8757 87.2886 87.8757C87.2886 89.1886 87.2886 90.466 87.2886 91.7435Z" fill="black"/>
<path d="M82.7065 91.7435C82.5299 91.7435 82.3533 91.7435 82.1768 91.7435C82.1768 90.2886 82.1768 88.8338 82.1768 87.3789C82.3533 87.3789 82.5299 87.3789 82.7065 87.3789C82.7065 88.8338 82.7065 90.2886 82.7065 91.7435Z" fill="black"/>
<path d="M109.462 87.4141C110.484 87.4141 111.542 87.4141 112.564 87.4495C112.705 87.4495 112.846 87.4495 112.987 87.4495C112.987 87.627 112.987 87.7689 112.987 87.9463C112 87.9463 111.013 87.9463 110.026 87.9463C110.026 88.3721 110.026 88.727 110.026 89.1528C110.414 89.1528 110.837 89.1528 111.225 89.1528C111.542 89.1528 111.824 89.1528 112.141 89.1528C112.987 89.1883 113.41 89.6496 113.41 90.4302C113.41 91.2109 112.881 91.7432 112.106 91.7432C111.225 91.7786 110.343 91.7432 109.497 91.7432C109.462 90.2883 109.462 88.8334 109.462 87.4141ZM109.991 91.2464C110.66 91.2464 111.295 91.2464 111.894 91.2464C112.035 91.2464 112.176 91.2464 112.317 91.1754C112.635 91.0689 112.811 90.856 112.811 90.4657C112.811 90.0399 112.67 89.827 112.353 89.6851C112.282 89.6496 112.212 89.6141 112.176 89.6141C111.436 89.6141 110.731 89.6141 109.991 89.6141C109.991 90.1818 109.991 90.7141 109.991 91.2464Z" fill="black"/>
<path d="M125.255 91.7436C125.255 90.2888 125.255 88.8694 125.255 87.4855C126.277 87.4855 127.264 87.45 128.251 87.4855C128.604 87.4855 128.886 87.7339 128.992 88.0887C129.133 88.5145 129.097 88.9403 128.674 89.2952C129.097 89.5791 129.344 89.9694 129.344 90.5017C129.309 91.1759 128.886 91.6726 128.146 91.7081C127.194 91.7791 126.242 91.7436 125.255 91.7436ZM125.784 89.65C125.784 90.2178 125.784 90.7146 125.784 91.2468C126.594 91.2468 127.37 91.2468 128.146 91.2468C128.216 91.2468 128.322 91.2113 128.392 91.1759C128.71 91.0339 128.851 90.6791 128.78 90.2888C128.71 89.9339 128.463 89.65 128.146 89.65C127.37 89.6146 126.594 89.65 125.784 89.65ZM125.784 87.9468C125.784 88.3726 125.784 88.7274 125.784 89.1178C126.524 89.1178 127.264 89.1533 128.005 89.1178C128.357 89.1178 128.533 88.8339 128.498 88.4791C128.463 88.1597 128.287 87.9468 127.934 87.9468C127.229 87.9113 126.524 87.9468 125.784 87.9468Z" fill="black"/>
<path d="M152.152 89.2947C152.504 89.5431 152.751 89.827 152.822 90.2528C152.927 91.1044 152.434 91.7077 151.553 91.7432C150.636 91.7786 149.684 91.7432 148.732 91.7432C148.732 90.3238 148.732 88.9044 148.732 87.4141C148.909 87.4141 149.085 87.4141 149.226 87.4141C149.966 87.4141 150.742 87.4141 151.482 87.4495C151.905 87.4495 152.258 87.627 152.434 88.0173C152.61 88.4786 152.575 88.9399 152.152 89.2947ZM149.261 91.2464C150.072 91.2464 150.812 91.2819 151.588 91.2464C152.046 91.2464 152.328 90.8915 152.293 90.3947C152.293 89.898 152.011 89.6496 151.517 89.6141C150.848 89.6141 150.178 89.6141 149.508 89.6141C149.437 89.6141 149.367 89.6496 149.296 89.6496C149.261 90.1818 149.261 90.7141 149.261 91.2464ZM149.261 87.9463C149.261 88.3367 149.261 88.727 149.261 89.1173C150.037 89.1173 150.777 89.1528 151.517 89.1173C151.87 89.1173 152.011 88.8334 152.011 88.5141C151.976 88.1947 151.835 87.9818 151.517 87.9818C150.742 87.9463 150.002 87.9463 149.261 87.9463Z" fill="black"/>
<path d="M118.38 92.7012C118.204 92.7012 118.098 92.7012 117.922 92.7012C117.922 92.2399 117.922 91.2464 117.922 91.2464H118.451L120.072 87.4141H120.495L122.187 91.2464H122.751C122.751 91.2464 122.751 92.2044 122.751 92.7012C122.61 92.7012 122.469 92.7012 122.293 92.7012C122.293 92.4174 122.293 92.098 122.293 91.7786C120.954 91.7786 119.684 91.7786 118.345 91.7786C118.38 92.0625 118.38 92.3464 118.38 92.7012ZM120.319 88.1592C119.861 89.2238 119.473 90.2173 119.05 91.2464C119.931 91.2464 120.777 91.2464 121.694 91.2464C121.236 90.2173 120.777 89.2238 120.319 88.1592Z" fill="black"/>
<path d="M143.763 91.2462C143.974 91.2462 144.186 91.2817 144.362 91.2817C144.362 91.743 144.362 92.2043 144.362 92.7011C144.221 92.7011 144.08 92.7011 143.904 92.7011C143.904 92.3817 143.904 92.0978 143.904 91.7785C142.741 91.7785 141.612 91.7785 140.484 91.7785C140.484 90.3236 140.484 88.9042 140.484 87.4849C140.661 87.4849 140.802 87.4849 141.013 87.4849C141.013 88.7623 141.013 90.0042 141.013 91.2817C141.753 91.2817 142.494 91.2817 143.234 91.2817C143.234 90.0042 143.234 88.7623 143.234 87.4849C143.41 87.4849 143.587 87.4849 143.763 87.4849C143.763 88.6913 143.763 89.9688 143.763 91.2462Z" fill="black"/>
<path d="M130.508 87.4497C130.684 87.4497 130.825 87.4497 131.037 87.4497C131.037 88.0175 131.037 88.5497 131.037 89.1175C131.883 89.1175 132.729 89.1175 133.575 89.1175C133.575 88.5497 133.575 88.0175 133.575 87.4497C133.751 87.4497 133.927 87.4497 134.068 87.4497C134.068 88.8691 134.068 90.2885 134.068 91.7433C133.892 91.7433 133.751 91.7433 133.575 91.7433C133.575 91.0691 133.575 90.3594 133.575 89.6852C132.729 89.6852 131.883 89.6852 131.037 89.6852C131.037 90.3594 131.037 91.0336 131.037 91.7433C130.86 91.7433 130.684 91.7433 130.508 91.7433C130.508 90.2885 130.508 88.8691 130.508 87.4497Z" fill="black"/>
<path d="M116.196 89.7915C116.619 89.1173 117.641 87.4141 117.641 87.4141H118.275C118.275 87.4141 116.337 90.5367 115.632 91.7431H114.997C115.209 91.3883 115.843 90.3238 115.843 90.3238C115.314 89.5786 113.939 87.4141 113.939 87.4141H114.609C114.609 87.4141 115.737 89.1173 116.196 89.7915Z" fill="black"/>
<path d="M146.089 87.9465C145.454 87.9465 144.89 87.9465 144.291 87.9465C144.291 87.7691 144.291 87.6271 144.291 87.4497C145.666 87.4497 147.005 87.4497 148.38 87.4497C148.38 87.5916 148.38 87.7336 148.38 87.911C147.816 87.911 147.217 87.911 146.582 87.911C146.582 89.1884 146.582 90.4659 146.582 91.7078C146.406 91.7078 146.23 91.7078 146.054 91.7078C146.089 90.4659 146.089 89.2239 146.089 87.9465Z" fill="black"/>
<path d="M123.422 87.4141C123.598 87.4141 123.74 87.4141 123.916 87.4141C123.916 88.8689 123.916 90.2883 123.916 91.7431C123.74 91.7431 123.598 91.7431 123.422 91.7431C123.422 90.2883 123.422 88.8689 123.422 87.4141Z" fill="black"/>
<defs>
<filter id="filter0_d" x="0" y="0" width="230" height="131" filterUnits="userSpaceOnUse" color-interpolation-filters="sRGB">
<feFlood flood-opacity="0" result="BackgroundImageFix"/>
<feColorMatrix in="SourceAlpha" type="matrix" values="0 0 0 0 0 0 0 0 0 0 0 0 0 0 0 0 0 0 127 0"/>
<feOffset/>
<feGaussianBlur stdDeviation="12.5"/>
<feColorMatrix type="matrix" values="0 0 0 0 0 0 0 0 0 0 0 0 0 0 0 0 0 0 0.05 0"/>
<feBlend mode="normal" in2="BackgroundImageFix" result="effect1_dropShadow"/>
<feBlend mode="normal" in="SourceGraphic" in2="effect1_dropShadow" result="shape"/>
</filter>
</defs>
</svg>
