<svg width="91" height="316" viewBox="0 0 91 316" fill="none" xmlns="http://www.w3.org/2000/svg">
<path d="M7.12291 285.778H0V300.176H7.12291H14.2458V285.778H7.12291C7.16886 285.778 7.16886 285.778 7.12291 285.778ZM1.01099 286.744H3.63038C2.52748 287.388 1.65434 288.308 1.01099 289.366V286.744ZM1.01099 299.21V296.588C1.65434 297.692 2.52748 298.612 3.63038 299.21H1.01099ZM13.2808 299.21H10.7073C11.8102 298.566 12.6834 297.646 13.3267 296.588V299.21H13.2808ZM7.16885 299.21C3.76824 299.21 1.01099 296.404 1.01099 293C1.01099 289.55 3.76824 286.79 7.16885 286.79C10.5695 286.79 13.3267 289.596 13.3267 293C13.2808 296.404 10.5235 299.21 7.16885 299.21ZM13.2808 286.744V289.366C12.6374 288.262 11.7643 287.342 10.6614 286.744H13.2808Z" fill="#DBDBDB"/>
<path d="M23.0233 285.778H15.9004V300.176H23.0233H30.1462V285.778H23.0233ZM16.8654 286.744H19.4848C18.3819 287.388 17.5088 288.308 16.8654 289.366V286.744ZM16.8654 299.21V296.588C17.5088 297.692 18.3819 298.612 19.4848 299.21H16.8654ZM29.1812 299.21H26.5618C27.6647 298.566 28.5378 297.646 29.1812 296.588V299.21ZM23.0233 299.21C19.6227 299.21 16.8654 296.404 16.8654 293C16.8654 289.55 19.6227 286.79 23.0233 286.79C26.4239 286.79 29.1812 289.596 29.1812 293C29.1812 296.404 26.4239 299.21 23.0233 299.21ZM29.1812 286.744V289.366C28.5378 288.262 27.6647 287.342 26.5618 286.744H29.1812Z" fill="#DBDBDB"/>
<path d="M38.8768 285.778H31.7539V300.176H38.8768H45.9997V285.778H38.8768ZM32.7189 286.744H35.3383C34.2354 287.388 33.3623 288.308 32.7189 289.366V286.744ZM32.7189 299.21V296.588C33.3623 297.692 34.2354 298.612 35.3383 299.21H32.7189ZM45.0347 299.21H42.4153C43.5182 298.566 44.3913 297.646 45.0347 296.588V299.21ZM38.8768 299.21C35.4762 299.21 32.7189 296.404 32.7189 293C32.7189 289.55 35.4762 286.79 38.8768 286.79C42.2774 286.79 45.0347 289.596 45.0347 293C45.0347 296.404 42.2774 299.21 38.8768 299.21ZM45.0347 286.744V289.366C44.3913 288.262 43.5182 287.342 42.4153 286.744H45.0347Z" fill="#DBDBDB"/>
<path d="M0.0449219 284.352H14.2448V270H0.0449219V284.352ZM13.2798 283.386H10.7063C11.8092 282.742 12.6824 281.822 13.3257 280.764V283.386H13.2798ZM13.2798 270.966V273.588C12.6364 272.484 11.7633 271.564 10.6604 270.966H13.2798ZM1.00996 270.966H3.62936C2.52646 271.61 1.65332 272.53 1.00996 273.588V270.966ZM7.12189 270.966C10.5225 270.966 13.2798 273.772 13.2798 277.176C13.2798 280.626 10.5225 283.386 7.12189 283.386C3.72127 283.386 0.964007 280.58 0.964007 277.176C1.00996 273.726 3.76723 270.966 7.12189 270.966ZM1.00996 280.764C1.65332 281.868 2.52646 282.788 3.62936 283.386H1.00996V280.764Z" fill="#DBDBDB"/>
<path d="M15.9004 284.352H30.1003V270H15.9004V284.352ZM29.1812 283.386H26.5618C27.6647 282.742 28.5378 281.822 29.1812 280.764V283.386ZM29.1812 270.966V273.588C28.5378 272.484 27.6647 271.564 26.5618 270.966H29.1812ZM16.8654 270.966H19.4848C18.3819 271.61 17.5088 272.53 16.8654 273.588V270.966ZM23.0233 270.966C26.4239 270.966 29.1812 273.772 29.1812 277.176C29.1812 280.626 26.4239 283.386 23.0233 283.386C19.6227 283.386 16.8654 280.58 16.8654 277.176C16.8654 273.726 19.6227 270.966 23.0233 270.966ZM16.8654 280.764C17.5088 281.868 18.3819 282.788 19.4848 283.386H16.8654V280.764Z" fill="#DBDBDB"/>
<path d="M31.7539 270V284.398H45.9538V270H31.7539ZM32.7189 270.966H35.3383C34.2354 271.61 33.3623 272.53 32.7189 273.588V270.966ZM32.7189 283.386V280.764C33.3623 281.868 34.2354 282.788 35.3383 283.386H32.7189ZM45.0347 283.386H42.4153C43.5182 282.742 44.3913 281.822 45.0347 280.764V283.386ZM38.8768 283.386C35.4762 283.386 32.7189 280.58 32.7189 277.176C32.7189 273.726 35.4762 270.966 38.8768 270.966C42.2774 270.966 45.0347 273.772 45.0347 277.176C45.0347 280.58 42.2774 283.386 38.8768 283.386ZM45.0347 273.588C44.3913 272.484 43.5182 271.564 42.4153 270.966H45.0347V273.588Z" fill="#DBDBDB"/>
<path d="M0.0449219 316H14.2448V301.602H0.0449219V316ZM13.2798 315.034H10.7063C11.8092 314.39 12.6824 313.47 13.3257 312.412V315.034H13.2798ZM13.2798 302.568V305.19C12.6364 304.086 11.7633 303.166 10.6604 302.568H13.2798ZM1.00996 302.568H3.62936C2.52646 303.212 1.65332 304.132 1.00996 305.19V302.568ZM7.12189 302.568C10.5225 302.568 13.2798 305.374 13.2798 308.778C13.2798 312.228 10.5225 314.988 7.12189 314.988C3.72127 314.988 0.964007 312.182 0.964007 308.778C1.00996 305.374 3.76723 302.568 7.12189 302.568ZM1.00996 312.366C1.65332 313.47 2.52646 314.39 3.62936 314.988H1.00996V312.366Z" fill="#DBDBDB"/>
<path d="M15.9004 316H30.1003V301.602H15.9004V316ZM29.1812 315.034H26.5618C27.6647 314.39 28.5378 313.47 29.1812 312.412V315.034ZM29.1812 302.568V305.19C28.5378 304.086 27.6647 303.166 26.5618 302.568H29.1812ZM16.8654 302.568H19.4848C18.3819 303.212 17.5088 304.132 16.8654 305.19V302.568ZM23.0233 302.568C26.4239 302.568 29.1812 305.374 29.1812 308.778C29.1812 312.228 26.4239 314.988 23.0233 314.988C19.6227 314.988 16.8654 312.182 16.8654 308.778C16.8654 305.374 19.6227 302.568 23.0233 302.568ZM16.8654 312.366C17.5088 313.47 18.3819 314.39 19.4848 314.988H16.8654V312.366Z" fill="#DBDBDB"/>
<path d="M31.7539 316H45.9538V301.602H31.7539V316ZM45.0347 315.034H42.4153C43.5182 314.39 44.3913 313.47 45.0347 312.412V315.034ZM45.0347 302.568V305.19C44.3913 304.086 43.5182 303.166 42.4153 302.568H45.0347ZM32.7189 302.568H35.3383C34.2354 303.212 33.3623 304.132 32.7189 305.19V302.568ZM38.8768 302.568C42.2774 302.568 45.0347 305.374 45.0347 308.778C45.0347 312.228 42.2774 314.988 38.8768 314.988C35.4762 314.988 32.7189 312.182 32.7189 308.778C32.7189 305.374 35.4762 302.568 38.8768 302.568ZM32.7189 312.366C33.3623 313.47 34.2354 314.39 35.3383 314.988H32.7189V312.366Z" fill="#DBDBDB"/>
<path d="M0 180V226H46V180H0ZM44.344 180.966L38.87 186.44H7.13L1.656 180.966H44.344ZM38.594 187.406V218.594H7.406V187.406H38.594ZM0.966 181.656L6.44 187.13V218.916L0.966 224.39V181.656ZM1.656 225.034L7.13 219.56H38.916L44.39 225.034H1.656ZM45.034 224.344L39.56 218.87V187.084L45.034 181.61V224.344Z" fill="#DBDBDB"/>
<path d="M22.9997 215.236C29.7617 215.236 35.2357 209.762 35.2357 203C35.2357 196.238 29.7617 190.764 22.9997 190.764C16.2377 190.764 10.7637 196.238 10.7637 203C10.7637 209.716 16.2377 215.236 22.9997 215.236ZM22.9997 191.73C29.2097 191.73 34.2697 196.79 34.2697 203C34.2697 209.21 29.2097 214.27 22.9997 214.27C16.7897 214.27 11.7297 209.21 11.7297 203C11.7297 196.79 16.7897 191.73 22.9997 191.73Z" fill="#DBDBDB"/>
<path d="M91 225H45V271H91V225ZM84.422 258.074C83.18 260.098 81.57 261.892 79.684 263.318V232.682C81.57 234.108 83.18 235.902 84.422 237.926V258.074ZM85.342 239.582C86.584 242.112 87.274 244.964 87.274 248C87.274 251.036 86.584 253.888 85.342 256.418V239.582ZM74.072 229.692C75.774 230.244 77.338 231.026 78.81 232.038V263.962C77.384 264.928 75.774 265.756 74.072 266.308V229.692ZM73.198 266.584C71.542 267.044 69.794 267.274 68 267.274C57.374 267.274 48.726 258.626 48.726 248C48.726 237.374 57.374 228.726 68 228.726C69.794 228.726 71.542 228.956 73.198 229.416V266.584ZM74.072 228.68V225.966H78.81V230.888C77.338 229.968 75.774 229.232 74.072 228.68ZM78.81 265.112V270.034H74.072V267.32C75.774 266.768 77.338 266.032 78.81 265.112ZM79.73 264.514C81.57 263.226 83.134 261.616 84.468 259.822V270.08H79.73V264.514ZM79.73 231.532V226.012H84.468V236.27C83.134 234.384 81.524 232.82 79.73 231.532ZM45.966 225.966H73.198V228.45C71.542 227.99 69.794 227.76 68 227.76C56.822 227.76 47.76 236.822 47.76 248C47.76 259.178 56.822 268.24 68 268.24C69.794 268.24 71.542 268.01 73.198 267.55V270.034H45.966V225.966V225.966ZM90.034 270.034H85.342V258.442C87.182 255.406 88.24 251.818 88.24 248C88.24 244.182 87.182 240.594 85.342 237.558V225.966H90.034V270.034Z" fill="#DBDBDB"/>
<path d="M45 135V181H91V135H45ZM45.966 180.034V166.878C53.142 167.108 58.892 172.904 59.122 180.034H45.966ZM90.08 180.034H60.134C59.904 172.352 53.694 166.142 46.012 165.912V135.966H75.958C76.142 143.694 82.352 149.95 90.08 150.226V180.034V180.034ZM90.08 149.214C82.904 148.984 77.108 143.142 76.924 135.92H90.08V149.214Z" fill="#DBDBDB"/>
<path d="M68.001 142.038C59.951 142.038 53.373 148.616 53.373 156.666C53.373 164.716 59.951 171.294 68.001 171.294C76.051 171.294 82.629 164.716 82.629 156.666C82.629 148.616 76.097 142.038 68.001 142.038ZM68.001 170.374C60.457 170.374 54.339 164.256 54.339 156.712C54.339 149.168 60.457 143.05 68.001 143.05C75.545 143.05 81.6631 149.168 81.6631 156.712C81.7091 164.21 75.545 170.374 68.001 170.374Z" fill="#DBDBDB"/>
<path d="M46 90H0V136H46V90ZM23.092 112.218L12.466 101.684L23 91.15L33.58 101.73L23.092 112.218ZM22.218 112.908L11.684 123.534L1.15 113L11.73 102.42L22.218 112.908ZM22.908 113.736L33.534 124.27L23 134.804L12.42 124.224L22.908 113.736ZM23.782 113.092L34.316 102.466L44.85 113L34.27 123.58L23.782 113.092ZM34.96 101.776L45.034 91.656V111.85L34.96 101.776ZM44.344 90.966L34.224 101.086L24.104 90.966H44.344V90.966ZM11.776 100.994L1.656 90.92H21.85L11.776 100.994ZM0.966 91.61L11.086 101.73L0.966 111.85V91.61ZM10.994 124.178L0.92 134.298V114.15L10.994 124.178ZM1.656 135.034L11.776 124.914L21.896 135.034H1.656ZM34.224 124.96L44.344 135.034H24.15L34.224 124.96ZM45.034 134.344L34.914 124.224L45.034 114.104V134.344Z" fill="#DBDBDB"/>
<path d="M45 45V91H91V45H45ZM45.966 45.966H67.402L46.012 67.356V45.966H45.966ZM45.966 90.034V68.644L67.356 90.034H45.966ZM67.54 88.838L46.702 68L67.54 47.162V88.838ZM68.506 45.966H75.36C72.278 47.07 69.794 49.416 68.506 52.36V45.966ZM90.034 90.034H68.46V61.652C70.254 65.838 74.394 68.736 79.224 68.736C84.054 68.736 88.194 65.792 89.988 61.652V90.034H90.034ZM79.27 67.816C73.336 67.816 68.506 62.986 68.506 57.052C68.506 51.118 73.336 46.288 79.27 46.288C85.204 46.288 90.034 51.118 90.034 57.052C90.034 62.986 85.204 67.816 79.27 67.816ZM90.034 52.36C88.746 49.37 86.262 47.07 83.18 45.966H90.034V52.36Z" fill="#DBDBDB"/>
<path d="M74.0469 84.5385H84.413V74.1617H74.0469V84.5385ZM75.0144 75.1302H83.4455V83.57H75.0144V75.1302Z" fill="#DBDBDB"/>
<path d="M0 46H46V0H0V46V46ZM38.594 21.988L24.012 7.406H38.594V21.988ZM38.594 24.012V38.594H24.012L38.594 24.012ZM23 38.226L7.77401 23L23 7.774L38.226 23L23 38.226ZM7.40602 21.988V7.406H21.988L7.40602 21.988ZM21.988 38.594H7.40602V24.012L21.988 38.594ZM7.13 39.56H22.954L23 39.606L23.046 39.56H38.87L44.344 45.034H1.61L7.13 39.56ZM39.56 38.87V23.046L39.606 23L39.56 22.954V7.13L45.034 1.656V44.39L39.56 38.87ZM38.87 6.44H23.046L23 6.394L22.954 6.44H7.13L1.656 0.966003H44.39L38.87 6.44ZM6.44 7.13V22.954L6.39401 23L6.44 23.046V38.87L0.966003 44.344V1.61L6.44 7.13Z" fill="#DBDBDB"/>
</svg>
