<svg width="246" height="246" viewBox="0 0 246 246" fill="none" xmlns="http://www.w3.org/2000/svg">
<path d="M7.74229 213.15H0V228.8H7.74229H15.4846V213.15H7.74229C7.79224 213.15 7.79224 213.15 7.74229 213.15ZM1.0989 214.2H3.94607C2.74726 214.9 1.7982 215.9 1.0989 217.05V214.2ZM1.0989 227.75V224.9C1.7982 226.1 2.74726 227.1 3.94607 227.75H1.0989ZM14.4356 227.75H11.6384C12.8372 227.05 13.7863 226.05 14.4856 224.9V227.75H14.4356ZM7.79223 227.75C4.09591 227.75 1.0989 224.7 1.0989 221C1.0989 217.25 4.09591 214.25 7.79223 214.25C11.4886 214.25 14.4856 217.3 14.4856 221C14.4356 224.7 11.4386 227.75 7.79223 227.75ZM14.4356 214.2V217.05C13.7363 215.85 12.7873 214.85 11.5885 214.2H14.4356Z" fill="#DBDBDB"/>
<path d="M25.0245 213.15H17.2822V228.8H25.0245H32.7668V213.15H25.0245ZM18.3312 214.2H21.1784C19.9796 214.9 19.0305 215.9 18.3312 217.05V214.2ZM18.3312 227.75V224.9C19.0305 226.1 19.9796 227.1 21.1784 227.75H18.3312ZM31.7179 227.75H28.8707C30.0695 227.05 31.0186 226.05 31.7179 224.9V227.75ZM25.0245 227.75C21.3282 227.75 18.3312 224.7 18.3312 221C18.3312 217.25 21.3282 214.25 25.0245 214.25C28.7208 214.25 31.7179 217.3 31.7179 221C31.7179 224.7 28.7208 227.75 25.0245 227.75ZM31.7179 214.2V217.05C31.0186 215.85 30.0695 214.85 28.8707 214.2H31.7179Z" fill="#DBDBDB"/>
<path d="M42.2579 213.15H34.5156V228.8H42.2579H50.0002V213.15H42.2579ZM35.5646 214.2H38.4118C37.2129 214.9 36.2639 215.9 35.5646 217.05V214.2ZM35.5646 227.75V224.9C36.2639 226.1 37.2129 227.1 38.4118 227.75H35.5646ZM48.9513 227.75H46.1041C47.3029 227.05 48.252 226.05 48.9513 224.9V227.75ZM42.2579 227.75C38.5616 227.75 35.5646 224.7 35.5646 221C35.5646 217.25 38.5616 214.25 42.2579 214.25C45.9542 214.25 48.9513 217.3 48.9513 221C48.9513 224.7 45.9542 227.75 42.2579 227.75ZM48.9513 214.2V217.05C48.252 215.85 47.3029 214.85 46.1041 214.2H48.9513Z" fill="#DBDBDB"/>
<path d="M0.0478516 211.6H15.4825V196H0.0478516V211.6ZM14.4335 210.55H11.6363C12.8351 209.85 13.7842 208.85 14.4835 207.7V210.55H14.4335ZM14.4335 197.05V199.9C13.7342 198.7 12.7852 197.7 11.5864 197.05H14.4335ZM1.09681 197.05H3.94398C2.74518 197.75 1.79611 198.75 1.09681 199.9V197.05ZM7.74021 197.05C11.4365 197.05 14.4335 200.1 14.4335 203.8C14.4335 207.55 11.4365 210.55 7.74021 210.55C4.04389 210.55 1.04686 207.5 1.04686 203.8C1.09681 200.05 4.09384 197.05 7.74021 197.05ZM1.09681 207.7C1.79611 208.9 2.74518 209.9 3.94398 210.55H1.09681V207.7Z" fill="#DBDBDB"/>
<path d="M17.2822 211.6H32.7169V196H17.2822V211.6ZM31.7179 210.55H28.8707C30.0695 209.85 31.0186 208.85 31.7179 207.7V210.55ZM31.7179 197.05V199.9C31.0186 198.7 30.0695 197.7 28.8707 197.05H31.7179ZM18.3312 197.05H21.1784C19.9796 197.75 19.0305 198.75 18.3312 199.9V197.05ZM25.0245 197.05C28.7208 197.05 31.7179 200.1 31.7179 203.8C31.7179 207.55 28.7208 210.55 25.0245 210.55C21.3282 210.55 18.3312 207.5 18.3312 203.8C18.3312 200.05 21.3282 197.05 25.0245 197.05ZM18.3312 207.7C19.0305 208.9 19.9796 209.9 21.1784 210.55H18.3312V207.7Z" fill="#DBDBDB"/>
<path d="M34.5156 196V211.65H49.9503V196H34.5156ZM35.5646 197.05H38.4118C37.2129 197.75 36.2639 198.75 35.5646 199.9V197.05ZM35.5646 210.55V207.7C36.2639 208.9 37.2129 209.9 38.4118 210.55H35.5646ZM48.9513 210.55H46.1041C47.3029 209.85 48.252 208.85 48.9513 207.7V210.55ZM42.2579 210.55C38.5616 210.55 35.5646 207.5 35.5646 203.8C35.5646 200.05 38.5616 197.05 42.2579 197.05C45.9542 197.05 48.9513 200.1 48.9513 203.8C48.9513 207.5 45.9542 210.55 42.2579 210.55ZM48.9513 199.9C48.252 198.7 47.3029 197.7 46.1041 197.05H48.9513V199.9Z" fill="#DBDBDB"/>
<path d="M0.0478516 246H15.4825V230.35H0.0478516V246ZM14.4335 244.95H11.6363C12.8351 244.25 13.7842 243.25 14.4835 242.1V244.95H14.4335ZM14.4335 231.4V234.25C13.7342 233.05 12.7852 232.05 11.5864 231.4H14.4335ZM1.09681 231.4H3.94398C2.74518 232.1 1.79611 233.1 1.09681 234.25V231.4ZM7.74021 231.4C11.4365 231.4 14.4335 234.45 14.4335 238.15C14.4335 241.9 11.4365 244.9 7.74021 244.9C4.04389 244.9 1.04686 241.85 1.04686 238.15C1.09681 234.45 4.09384 231.4 7.74021 231.4ZM1.09681 242.05C1.79611 243.25 2.74518 244.25 3.94398 244.9H1.09681V242.05Z" fill="#DBDBDB"/>
<path d="M17.2822 246H32.7169V230.35H17.2822V246ZM31.7179 244.95H28.8707C30.0695 244.25 31.0186 243.25 31.7179 242.1V244.95ZM31.7179 231.4V234.25C31.0186 233.05 30.0695 232.05 28.8707 231.4H31.7179ZM18.3312 231.4H21.1784C19.9796 232.1 19.0305 233.1 18.3312 234.25V231.4ZM25.0245 231.4C28.7208 231.4 31.7179 234.45 31.7179 238.15C31.7179 241.9 28.7208 244.9 25.0245 244.9C21.3282 244.9 18.3312 241.85 18.3312 238.15C18.3312 234.45 21.3282 231.4 25.0245 231.4ZM18.3312 242.05C19.0305 243.25 19.9796 244.25 21.1784 244.9H18.3312V242.05Z" fill="#DBDBDB"/>
<path d="M34.5156 246H49.9503V230.35H34.5156V246ZM48.9513 244.95H46.1041C47.3029 244.25 48.252 243.25 48.9513 242.1V244.95ZM48.9513 231.4V234.25C48.252 233.05 47.3029 232.05 46.1041 231.4H48.9513ZM35.5646 231.4H38.4118C37.2129 232.1 36.2639 233.1 35.5646 234.25V231.4ZM42.2579 231.4C45.9542 231.4 48.9513 234.45 48.9513 238.15C48.9513 241.9 45.9542 244.9 42.2579 244.9C38.5616 244.9 35.5646 241.85 35.5646 238.15C35.5646 234.45 38.5616 231.4 42.2579 231.4ZM35.5646 242.05C36.2639 243.25 37.2129 244.25 38.4118 244.9H35.5646V242.05Z" fill="#DBDBDB"/>
<path d="M197 147H147V197H197V147ZM196 179.85L188.05 171.95L195.95 164.05V179.85H196ZM196 162.55L186.6 171.95L196 181.35V187.75L180.2 171.95L196 156.15V162.55ZM196 154.7L178.7 171.95L195.95 189.2V195.15L172.75 172L195.95 148.8V154.7H196ZM171.9 186.65L162.65 195.95H156.25L171.95 180.25L187.65 195.95H181.25L171.9 186.65ZM179.75 195.95H164.1L171.9 188.15L179.75 195.95ZM171.9 178.75L154.7 195.95H148.8L172 172.75L195.25 195.95H189.1L171.9 178.75ZM148.05 181.2L157.35 171.9L148.05 162.6V156.15L163.75 171.85L148.05 187.55V181.2ZM148.05 179.7V164.05L155.85 171.85L148.05 179.7ZM148.05 189.05L165.25 171.85L148.05 154.65V148.75L171.25 171.95L148.05 195.15V189.05ZM172.1 157.3L181.4 148H187.8L172.1 163.7L156.4 148H162.8L172.1 157.3ZM164.3 148.05H179.95L172.15 155.85L164.3 148.05ZM172.15 165.2L189.35 148H195.25L172.05 171.2L148.85 148H155L172.15 165.2Z" fill="#DBDBDB"/>
<path d="M196 196V246H246V196H196ZM221 217.4C219.5 212.3 214.85 208.5 209.3 208.25C209.55 202 214.7 197.05 221 197.05C227.3 197.05 232.45 202.05 232.7 208.25C227.15 208.5 222.5 212.25 221 217.4ZM232.7 209.3C232.4 215.3 227.6 220.15 221.55 220.45C221.85 214.4 226.65 209.55 232.7 209.3ZM232.7 232.65C226.7 232.35 221.85 227.55 221.55 221.5C227.6 221.8 232.4 226.65 232.7 232.65ZM220.45 220.45C214.45 220.15 209.6 215.35 209.3 209.3C215.35 209.55 220.15 214.4 220.45 220.45ZM197.05 197.05H215.95C211.55 198.95 208.45 203.25 208.25 208.25C203.2 208.45 198.95 211.55 197.05 215.95V197.05V197.05ZM208.25 209.3C208.5 214.85 212.25 219.5 217.4 221C212.3 222.5 208.5 227.15 208.25 232.7C202 232.45 197.05 227.3 197.05 221C197.05 214.7 202.05 209.55 208.25 209.3ZM220.45 221.55C220.15 227.55 215.35 232.4 209.3 232.7C209.6 226.65 214.45 221.8 220.45 221.55ZM197.05 244.95V226.05C198.95 230.45 203.25 233.55 208.25 233.75C208.45 238.8 211.55 243.05 215.95 244.95H197.05ZM209.3 233.7C214.85 233.45 219.5 229.7 221 224.55C222.5 229.65 227.15 233.45 232.7 233.7C232.45 239.95 227.3 244.9 221 244.9C214.7 244.95 209.6 239.95 209.3 233.7ZM244.95 244.95H226.05C230.45 243.05 233.55 238.75 233.75 233.75C238.8 233.55 243.05 230.45 244.95 226.05V244.95V244.95ZM233.75 232.65C233.5 227.1 229.75 222.45 224.6 220.95C229.7 219.45 233.5 214.8 233.75 209.25C240 209.5 244.95 214.65 244.95 220.95C244.95 227.25 239.95 232.4 233.75 232.65ZM244.95 215.95C243.05 211.55 238.75 208.45 233.75 208.25C233.55 203.2 230.45 198.95 226.05 197.05H244.95V215.95V215.95Z" fill="#DBDBDB"/>
<path d="M0 98V148H50V98H0ZM48.2 99.05L42.25 105H7.75L1.8 99.05H48.2ZM41.95 106.05V139.95H8.05V106.05H41.95ZM1.05 99.8L7 105.75V140.3L1.05 146.25V99.8ZM1.8 146.95L7.75 141H42.3L48.25 146.95H1.8ZM48.95 146.2L43 140.25V105.7L48.95 99.75V146.2Z" fill="#DBDBDB"/>
<path d="M25.0002 136.3C32.3502 136.3 38.3002 130.35 38.3002 123C38.3002 115.65 32.3502 109.7 25.0002 109.7C17.6502 109.7 11.7002 115.65 11.7002 123C11.7002 130.3 17.6502 136.3 25.0002 136.3ZM25.0002 110.75C31.7502 110.75 37.2502 116.25 37.2502 123C37.2502 129.75 31.7502 135.25 25.0002 135.25C18.2502 135.25 12.7502 129.75 12.7502 123C12.7502 116.25 18.2502 110.75 25.0002 110.75Z" fill="#DBDBDB"/>
<path d="M99 147H49V197H99V147ZM91.85 182.95C90.5 185.15 88.75 187.1 86.7 188.65V155.35C88.75 156.9 90.5 158.85 91.85 161.05V182.95ZM92.85 162.85C94.2 165.6 94.95 168.7 94.95 172C94.95 175.3 94.2 178.4 92.85 181.15V162.85ZM80.6 152.1C82.45 152.7 84.15 153.55 85.75 154.65V189.35C84.2 190.4 82.45 191.3 80.6 191.9V152.1ZM79.65 192.2C77.85 192.7 75.95 192.95 74 192.95C62.45 192.95 53.05 183.55 53.05 172C53.05 160.45 62.45 151.05 74 151.05C75.95 151.05 77.85 151.3 79.65 151.8V192.2ZM80.6 151V148.05H85.75V153.4C84.15 152.4 82.45 151.6 80.6 151ZM85.75 190.6V195.95H80.6V193C82.45 192.4 84.15 191.6 85.75 190.6ZM86.75 189.95C88.75 188.55 90.45 186.8 91.9 184.85V196H86.75V189.95ZM86.75 154.1V148.1H91.9V159.25C90.45 157.2 88.7 155.5 86.75 154.1ZM50.05 148.05H79.65V150.75C77.85 150.25 75.95 150 74 150C61.85 150 52 159.85 52 172C52 184.15 61.85 194 74 194C75.95 194 77.85 193.75 79.65 193.25V195.95H50.05V148.05V148.05ZM97.95 195.95H92.85V183.35C94.85 180.05 96 176.15 96 172C96 167.85 94.85 163.95 92.85 160.65V148.05H97.95V195.95Z" fill="#DBDBDB"/>
<path d="M49 65.05V49H99V99H49V65.6C49 65.5 49 65.4 49 65.35C49 65.25 49 65.15 49 65.05ZM98 50.1H71.05C77.25 52.4 81.65 58.35 81.65 65.35C81.65 68.7 80.6 71.85 78.85 74.45C82.05 75.75 84.6 78.3 85.9 81.5C87.1 80.95 88.45 80.6 89.85 80.6C93.4 80.6 96.5 82.65 98.05 85.6V50.1H98ZM85.25 83C83.05 84.45 81.6 86.95 81.6 89.8C81.6 91.35 82.05 92.8 82.8 94C84.65 91.95 85.75 89.2 85.75 86.25C85.75 85.15 85.55 84.05 85.25 83ZM98 98V94C97.1 95.7 95.75 97.1 94.05 98H98ZM90.05 98C94.45 97.85 97.95 94.25 97.95 89.85C97.95 85.35 94.3 81.65 89.75 81.65C88.45 81.65 87.25 81.95 86.15 82.5C86.55 83.7 86.75 85 86.75 86.3C86.75 89.65 85.45 92.65 83.35 94.95C84.8 96.75 87 97.95 89.45 98.05H90.05V98ZM85.6 98C84.5 97.4 83.5 96.6 82.7 95.65C81.65 96.6 80.45 97.45 79.1 98H85.6ZM82.05 94.75C81.15 93.3 80.6 91.6 80.6 89.8C80.6 86.5 82.35 83.65 84.95 82C83.75 78.95 81.3 76.5 78.2 75.3C75.2 79.15 70.55 81.6 65.35 81.6C64.7 81.6 64 81.55 63.35 81.45C62.7 82.9 62.35 84.5 62.35 86.2C62.35 92.65 67.6 97.9 74.05 97.9C77.15 98 79.95 96.75 82.05 94.75ZM77.15 75C76.15 74.75 75.1 74.55 74.05 74.55C69.7 74.55 65.85 76.95 63.85 80.5C64.35 80.55 64.85 80.6 65.35 80.6C70.05 80.6 74.3 78.4 77.15 75ZM50.05 98H68.95C64.4 96.05 61.25 91.55 61.25 86.3C61.25 84.55 61.6 82.9 62.25 81.35C56.65 80.3 52.05 76.3 50.05 71.05V98V98ZM50.05 65.6C50.2 73 55.6 79.15 62.7 80.35C64.85 76.3 69.1 73.5 74 73.5C75.3 73.5 76.6 73.7 77.8 74.05C79.55 71.55 80.55 68.55 80.55 65.3C80.55 56.9 73.7 50.05 65.3 50.05C57 50.05 50.2 56.75 50.05 65.05V65.6V65.6ZM50.05 59.6C51.7 55.2 55.2 51.7 59.6 50.05H50.05V59.6Z" fill="#DBDBDB"/>
<path d="M90.8998 62.3C88.0498 62.3 85.7498 60 85.7498 57.15C85.7498 54.3 88.0498 52 90.8998 52C93.7498 52 96.0498 54.3 96.0498 57.15C96.0498 60 93.7498 62.3 90.8998 62.3ZM90.8998 53C88.5998 53 86.7498 54.85 86.7498 57.15C86.7498 59.45 88.5998 61.3 90.8998 61.3C93.1998 61.3 95.0498 59.45 95.0498 57.15C95.0498 54.85 93.1998 53 90.8998 53Z" fill="#DBDBDB"/>
<path d="M0 0V50H50V0H0ZM1.05 1.05H24.35L1.10001 24.3V1.05H1.05ZM1.05 48.95V25.7L24.3 48.95H1.05ZM24.5 47.65L1.85001 25L24.5 2.35001V47.65ZM25.55 1.05H33C29.65 2.25 26.95 4.8 25.55 8V1.05ZM48.95 48.95H25.5V18.1C27.45 22.65 31.95 25.8 37.2 25.8C42.45 25.8 46.95 22.6 48.9 18.1V48.95H48.95ZM37.25 24.8C30.8 24.8 25.55 19.55 25.55 13.1C25.55 6.65001 30.8 1.40001 37.25 1.40001C43.7 1.40001 48.95 6.65001 48.95 13.1C48.95 19.55 43.7 24.8 37.25 24.8ZM48.95 8C47.55 4.75 44.85 2.25 41.5 1.05H48.95V8Z" fill="#DBDBDB"/>
<path d="M31.5723 42.9767H42.8398V31.6975H31.5723V42.9767ZM32.6239 32.7502H41.7881V41.924H32.6239V32.7502Z" fill="#DBDBDB"/>
<path d="M98 148H148V98H98V148ZM105.75 141H140.3L146.25 146.95H99.8L105.75 141ZM139.95 139.1C136.5 135.4 125.9 125.1 123.75 123L139.95 106.8V139.1ZM106.05 139.2V106H139.25L106.05 139.2ZM123 123.75C125.15 125.8 136.05 136.45 139.35 139.95H106.8L123 123.75ZM141 140.25V105.7L146.95 99.75V146.2L141 140.25ZM140.25 105H105.7L99.75 99.05H146.2L140.25 105ZM105 105.75V140.3L99.05 146.25V99.8L105 105.75Z" fill="#DBDBDB"/>
<path d="M98 196V246H148V196H98ZM99.05 244.95V230.65C106.85 230.9 113.1 237.2 113.35 244.95H99.05ZM147 244.95H114.45C114.2 236.6 107.45 229.85 99.1 229.6V197.05H131.65C131.85 205.45 138.6 212.25 147 212.55V244.95V244.95ZM147 211.45C139.2 211.2 132.9 204.85 132.7 197H147V211.45Z" fill="#DBDBDB"/>
<path d="M123.001 203.65C114.251 203.65 107.101 210.8 107.101 219.55C107.101 228.3 114.251 235.45 123.001 235.45C131.751 235.45 138.901 228.3 138.901 219.55C138.901 210.8 131.801 203.65 123.001 203.65ZM123.001 234.45C114.801 234.45 108.151 227.8 108.151 219.6C108.151 211.4 114.801 204.75 123.001 204.75C131.201 204.75 137.851 211.4 137.851 219.6C137.901 227.75 131.201 234.45 123.001 234.45Z" fill="#DBDBDB"/>
<rect y="50" width="49" height="48" fill="#C4C4C4"/>
<rect y="148" width="49" height="48" fill="#C4C4C4"/>
<rect x="50" y="99" width="48" height="48" fill="#C4C4C4"/>
<rect x="99" y="148" width="48" height="48" fill="#C4C4C4"/>
<rect x="99" y="49" width="49" height="49" fill="#C4C4C4"/>
<rect x="50" width="49" height="49" fill="#C4C4C4"/>
<rect x="148" y="98" width="49" height="49" fill="#C4C4C4"/>
<rect x="50" y="197" width="48" height="49" fill="#C4C4C4"/>
<rect x="148" y="197" width="48" height="49" fill="#C4C4C4"/>
<rect x="197" y="147" width="49" height="49" fill="#C4C4C4"/>
</svg>
