
<svg xmlns="http://www.w3.org/2000/svg" viewBox="0 0 380 248"><defs><style>.a{fill:#919295;}.b{fill:#272425;}</style></defs><title>-</title><path class="a" d="M154.23,72.11c-5.75,5.33-8.85,7.39-12,8.07a16.2,16.2,0,0,1-3.26.34c-.77,0-1.2.17-1.2.6s.51.69,1.46.69h6.44c7.82,0,10-1.46,14.94-6.44.5-.51.09-.2.61-.75-1.25-2-2.27-4.1-3.36-6.16C156,70.4,155.35,71.06,154.23,72.11Z"/><path class="a" d="M182.14,50.89c.77-.95,1.55-1.63,2.15-2.4V47.37c-3-2.66-14.52-14.43-19.67-19.84-5.33-5.58-5.93-7-5.93-7.9,0-.69.34-1.2,2-1.55.86-.17,1.2-.34,1.2-.69s-.43-.51-1.2-.51c-2.15,0-4.21.26-7.21.26-2.66,0-7.13-.26-8.59-.26-1.12,0-1.46.17-1.46.6s.43.52,1.55.69a15.62,15.62,0,0,1,4,.94c2.4.86,4.21,1.89,9.36,7,6.61,6.61,17.87,17.69,20,20-1.9,2.16-7.25,8.34-13.18,14.75,1,2.15,2,4,3.19,6.08C173.2,61.49,177.42,56.42,182.14,50.89Z"/><path class="b" d="M211.91,75.6c-2.19-2.22-3.28-3.66-5.73-6.42l-18,36.5a.86.86,0,0,1-1.53,0c-4.81-8.91-12.42-23.74-19.37-37.55l-3.18-6.34c-5.79-11.58-10.68-21.58-12.37-25.41-.81-1.91-3.91-8.24-4.59-9.75-.28-.62-3.1-.42-5-.42-1,0-7.78-.13-12.47-.13-1.78,0-2.94.39-2.94,1s.65.89,1.94.89a17.91,17.91,0,0,1,7.76,1.53c2.1,1.15,4.52,3.32,8.89,12,1.45,2.91,7.06,13.58,13.54,25.91l3.31,6.3,1.25,2.38c9.86,18.64,23,48.51,26.52,48.38,1.94-.07,2.46-.08,6.93-7.91l18.92-37.36C214.89,78.53,212.91,76.6,211.91,75.6Z"/><path class="b" d="M251.28,26.25c-7.31,0-20.44-.09-23.92-.09a1.59,1.59,0,0,0-1.41,1c-.94,1.9-4,9.12-5.53,12.22L210.9,59.13a115.59,115.59,0,0,0,9.68,10.18l15.83-30.94c3.56-7.15,6-8.55,11.63-9.83a31.58,31.58,0,0,1,6.14-.51c1,0,1.29-.38,1.29-.89C255.48,26.38,253.86,26.25,251.28,26.25Z"/><path class="b" d="M235.59,79.81a15.86,15.86,0,0,1-3.19-.34c-3.11-.67-6.21-2.76-11.85-8l-.6-.57c-2.27-2.2-6-6.14-9.84-10.32-5.42-5.88-11.11-12.22-13.36-14.77,1.72-1.81,7-7.08,12.15-12.17,2.72-2.7,5.43-5.39,7.63-7.59,5.31-5.31,7-6.17,9.25-7a15.37,15.37,0,0,1,3.86-.92c1-.16,1.85-.34,1.85-1,0-1-1.14-1-1.82-1s-1.79,0-3.14.1c-1.84.07-3.93.16-5.45.16s-3-.08-4.2-.14c-1-.06-2-.11-3-.11-1.29,0-1.56.48-1.56.88,0,.74.9.92,1.49,1,1.69.36,1.69.86,1.69,1.19,0,.78-.45,2-5.83,7.65-4.77,5-15.33,15.82-19,19.27V41.44c0-13.38,0-15.79.17-18.53.18-3.08.88-4.19,2.89-4.56a12.5,12.5,0,0,1,2.08-.25.94.94,0,0,0,1-.88c0-1-1.22-1-1.74-1-1.84,0-5,.13-6.86.21l-1.39.05-1.32,0c-1.79-.07-5.14-.21-7.18-.21-.52,0-1.74,0-1.74,1a.94.94,0,0,0,1,.88,11,11,0,0,1,2.58.33c1.71.39,2.48,1.69,2.64,4.48s.17,5.15.17,18.53V56.55c0,7.89-.16,14.85-.43,18.61-.26,3.06-.83,4.19-2.3,4.49a9.58,9.58,0,0,1-2.15.25c-.72,0-1.31.39-1.31.88,0,1,.81,1,1.56,1,1.84,0,5.07-.13,7-.21l1.42-.05,1,0c1.89.07,5.84.22,9.47.22,1.09,0,1.65-.35,1.65-1,0-.4-.39-.88-1.48-.88a32,32,0,0,1-3.39-.25c-2.19-.29-2.76-1.8-3-4.49-.43-3.59-.43-10.21-.43-18.6V49.11l.41.43c.36.38.73.77,1.11,1.23l3.27,3.85c3.61,4.26,7.52,8.86,11.27,13.07,2.46,2.76,4.84,5.36,7,7.58,1,1,1.89,1.86,2.74,2.6,3.36,2.93,6.09,3.95,12.46,3.95h6.44c.5,0,1.82,0,1.82-1C237.15,80.14,236.63,79.81,235.59,79.81Z"/><polygon class="b" points="166.03 113.55 3.78 113.55 3.79 111.29 166.04 111.29 166.03 113.55"/><polygon class="b" points="378.38 113.55 216.13 113.55 216.14 111.29 378.39 111.29 378.38 113.55"/><rect class="b" x="2.99" y="184.11" width="376.19" height="2.25"/><circle class="b" cx="191.09" cy="185.24" r="4.77"/><path class="b" d="M65.89,229.29l6.54-7.34-6-6.69H68l6.17,7v-7h1.22v7l6.14-7h1.56l-6,6.69,6.54,7.34H82.11l-5.79-6.61-.95,1.05v5.55H74.16v-5.55l-.95-1.05-5.79,6.61Z"/><path class="b" d="M90.1,229.29v-14h1.2v11.89l8.8-11.89h1.22v14h-1.2V217.24l-8.84,12.06Z"/><path class="b" d="M107,228.45c1.79,0,2.86-1.07,3.53-6.27l.91-6.92h7.89v14H118.1V216.35h-5.6l-.76,5.93c-.82,6.29-2.42,7.26-4.75,7.26Z"/><path class="b" d="M126.47,222.29c0-4.1,2.69-7.26,6.82-7.26s6.82,3.16,6.82,7.26-2.71,7.26-6.82,7.26S126.47,226.39,126.47,222.29Zm12.37,0c0-3.58-2.19-6.17-5.56-6.17s-5.55,2.59-5.55,6.17,2.15,6.17,5.55,6.17S138.84,225.82,138.84,222.29Z"/><path class="b" d="M147.8,229.29v-14H149v11.89l8.8-11.89H159v14h-1.2V217.24L149,229.29Zm5.62-14.9a4.64,4.64,0,0,1-3.7-1.85l.61-.53a3.74,3.74,0,0,0,3.09,1.58,3.79,3.79,0,0,0,3.09-1.58l.59.53A4.54,4.54,0,0,1,153.41,214.4Z"/><path class="b" d="M184.91,229.29l-5.79-6.61-1.56,1.7v4.9h-1.2v-14h1.2v7.68l6.78-7.68h1.54l-6,6.69,6.54,7.34Z"/><path class="b" d="M192.37,222.29c0-4.1,2.69-7.26,6.82-7.26s6.82,3.16,6.82,7.26-2.71,7.26-6.82,7.26S192.37,226.39,192.37,222.29Zm12.37,0c0-3.58-2.19-6.17-5.56-6.17s-5.55,2.59-5.55,6.17,2.15,6.17,5.55,6.17S204.74,225.82,204.74,222.29Z"/><path class="b" d="M225.08,229.29V216.9L220,229.29h-.46l-5.13-12.39v12.39h-1.2v-14H215l4.78,11.57,4.76-11.57h1.81v14Z"/><path class="b" d="M244.09,229.29V216.35h-8.9v12.94H234v-14h11.32v14Z"/><path class="b" d="M252,228.45c1.79,0,2.86-1.07,3.53-6.27l.91-6.92h7.89v14h-1.22V216.35h-5.6l-.76,5.93c-.82,6.29-2.42,7.26-4.75,7.26Z"/><path class="b" d="M272,229.29v-14h8.9v1.09h-7.7v5.2h7.55v1.09h-7.55v5.55h7.7v1.09Z"/><path class="b" d="M296.6,229.29l-5.79-6.61-1.56,1.7v4.9h-1.2v-14h1.2v7.68l6.78-7.68h1.54l-6,6.69,6.54,7.34Z"/><path class="b" d="M304.06,222.29a7,7,0,0,1,7.11-7.26,6.33,6.33,0,0,1,5.11,2.48l-1,.65a5.1,5.1,0,0,0-4.1-2,6.17,6.17,0,0,0,0,12.33,5.1,5.1,0,0,0,4.1-2l1,.63a6.29,6.29,0,0,1-5.11,2.5A7,7,0,0,1,304.06,222.29Z"/><path class="b" d="M36.5,165V138.62H19.18V165H15.5V135.33H40.19V165Z"/><path class="b" d="M45.76,165l8-12.08A8.22,8.22,0,0,1,46,144.26c0-5.46,3.86-8.93,9.33-8.93h11.9V165H63.57V153.18h-6L50.07,165Zm17.81-15V138.62H55.75c-3.46,0-5.91,2.31-5.91,5.64a5.57,5.57,0,0,0,5.91,5.68Z"/><path class="b" d="M81.48,165V138.62H72.11v-3.29H94.58v3.29H85.17V165Z"/><path class="b" d="M103.17,135.33V147.1h8.22c5.86,0,9.28,4.09,9.28,8.93s-3.33,8.93-9.28,8.93H99.48V135.33Zm0,15.06v11.28h7.77c3.51,0,5.91-2.31,5.91-5.64s-2.4-5.64-5.91-5.64ZM123.87,165V135.33h3.69V165Z"/><path class="b" d="M134.5,165V135.33h3.69v23.14l17.05-23.14H159V165h-3.69V141.32L138.05,165Zm12.26-31.31a9.8,9.8,0,0,1-7.82-3.91l1.64-1.42a7.48,7.48,0,0,0,6.17,3.2,7.28,7.28,0,0,0,6.13-3.2l1.64,1.42A9.6,9.6,0,0,1,146.76,133.64Z"/><path class="b" d="M195.33,165l-11.24-13.32-3,3.37V165h-3.69V135.33h3.69v15.32l13.1-15.32h4.62l-12.35,14.08L199.9,165Z"/><path class="b" d="M204.13,165V135.33h13.19c5.15,0,8.31,3.11,8.31,7.55a6.73,6.73,0,0,1-5.2,6.8c3.15.49,5.77,3.73,5.77,7.28,0,4.75-3.15,8-8.57,8Zm17.68-21.54c0-2.67-1.78-4.8-5.11-4.8h-8.88v9.55h8.88C220,148.17,221.81,146.12,221.81,143.41Zm.58,13.15c0-2.71-1.87-5.11-5.51-5.11h-9.06v10.22h9.06C220.35,161.67,222.39,159.71,222.39,156.56Z"/><path class="b" d="M253.23,165l-2.62-6.57H235.86L233.24,165H229l11.9-29.63h4.57L257.45,165Zm-10-25.8-6.31,15.94H249.5Z"/><path class="b" d="M261.33,165V135.33h11.9c6,0,9.28,4.09,9.28,8.93s-3.42,8.93-9.28,8.93H265V165Zm17.37-20.7c0-3.33-2.4-5.64-5.91-5.64H265V149.9h7.77C276.29,149.9,278.69,147.59,278.69,144.26Z"/><path class="b" d="M294.74,165V138.62h-9.37v-3.29h22.47v3.29h-9.42V165Z"/><path class="b" d="M333.88,165l-2.62-6.57H316.52L313.9,165h-4.22l11.9-29.63h4.57L338.1,165Zm-10-25.8-6.31,15.94h12.57Z"/><path class="b" d="M339.94,162.2c3.55,0,5.55-2,6.8-12l1.82-14.88h18.12V165H363V138.62H351.84l-1.47,11.86c-1.6,13-5.15,15-10.44,15Z"/></svg>