

<!-- Generator: Adobe Illustrator 21.0.0, SVG Export Plug-In . SVG Version: 6.00 Build 0)  -->
<svg version="1.1" id="Layer_1" xmlns="http://www.w3.org/2000/svg" xmlns:xlink="http://www.w3.org/1999/xlink" x="0px" y="0px"
	 viewBox="0 0 246.6 246.6" style="enable-background:new 0 0 246.6 246.6;" xml:space="preserve">
<style type="text/css">
	.st0{fill:#5F9BD8;}
</style>
<g>
	<path class="st0" d="M14.7,0v217.7h217.7V0H14.7z M182.7,84.5c-2.5,1.2-12.7-12.3-14-13.7c-14.2-17.9-25.1-20.4-34.6-16.6
		c-6.9,3.1-12.3,9.8-12.1,18.7c0.2,17.9,24.7,35,24.7,35s29.3,18.3,27.2,42.6c-1.6,13.2-8.6,22.8-16,30.5c-1.5-1.4-3.9-5.7-15.6-7.1
		c-17.1-2.1-53.3,15.6-68.2-17.6c25.2,19.5,66-2,75.4,10.5c-8.4-22-71.7,13.2-83.5-36.7c24.7,29.7,80.4,4.2,89,26.8
		c-2.8-33.5-89.6,7-91.1-59c11,36.4,79.8,21.1,92.3,43c-4.4-29.8-111.4-10-77.6-95.9c-6.3,47,32.5,56.1,55.8,65.6
		c-18-13.9-25.9-21.1-25.9-38.9c-1.2-20.4,18-40.4,42.2-33.6c19.7,6.4,22.5,22.8,26.1,32.1C182.7,75.8,183.6,84.2,182.7,84.5z"/>
	<polygon class="st0" points="23.2,228.1 14.8,243.7 18.5,243.7 24.8,231.5 30.9,243.7 35.1,243.7 26.6,228.1 	"/>
	<polygon class="st0" points="43.1,236.8 50.2,236.8 50.2,234.2 43.1,234.2 43.1,230.7 55.3,230.7 55.3,228.1 55.3,228 39.5,228 
		39.5,243.5 55.5,243.5 55.5,240.7 43.1,240.7 	"/>
	<path class="st0" d="M77.7,235c-1-0.9-2.1-0.9-3.1-0.9h-9.4V231h12.3v-2.8h-16v15.5H74c1,0,2.7,0,3.7-0.9c1-0.7,1-1.6,1-2.1v-3.3
		C78.7,236.8,78.7,235.8,77.7,235z M75,239.5c0,0.5-0.1,0.9-0.4,1c-0.2,0.4-1,0.4-1.4,0.4h-8.1v-4.2v-0.1h8.4c0.2,0,0.9,0,1.1,0.2
		c0.4,0.4,0.4,0.9,0.4,1.1L75,239.5L75,239.5z"/>
	<polygon class="st0" points="88.5,236.8 95.7,236.8 95.7,234.2 88.5,234.2 88.5,230.7 100.7,230.7 100.7,228.1 100.7,228 85,228 
		85,243.5 101,243.5 101,240.7 88.5,240.7 	"/>
	<path class="st0" d="M115.5,228.1h-3.6l-6.4,12.7h-1.8v5.8h3.4v-3h13.3v3h3.4v-5.8H122L115.5,228.1z M108.7,241l4.8-9.7l4.9,9.7
		H108.7z"/>
	<polygon class="st0" points="131.6,239.6 131.6,228.1 128.1,228.1 128.1,243.7 131,243.7 143.9,232.2 143.9,243.7 147.5,243.7 
		147.5,228.1 144.6,228.1 	"/>
	<polygon class="st0" points="169.8,234.1 158.5,234.1 158.5,228 154.9,228 154.9,243.5 158.5,243.5 158.5,236.9 169.8,236.9 
		169.8,243.5 173.4,243.5 173.4,228 169.8,228 	"/>
	<path class="st0" d="M192.4,233.7h-8.2H184v-5.8h-3.6v15.5h11.9c1,0,2.7,0,3.7-0.9c1-0.7,1-1.6,1-2.1v-3.8c0-1-0.4-1.6-0.7-2
		C195.3,233.6,193.6,233.7,192.4,233.7z M193.6,239.5c0,0.5-0.1,0.9-0.4,1c-0.2,0.4-1,0.4-1.4,0.4h-7.6v-4.6v-0.1h7.9
		c0.2,0,0.9,0,1.1,0.2c0.4,0.4,0.4,0.9,0.4,1.1L193.6,239.5L193.6,239.5z"/>
	<rect x="201.1" y="228.1" class="st0" width="3.6" height="15.5"/>
	<polygon class="st0" points="215.6,239.6 215.6,228.1 212,228.1 212,243.7 215,243.7 227.9,232.2 227.9,243.7 231.5,243.7 
		231.5,228.1 228.5,228.1 	"/>
	<path class="st0" d="M221.9,226.8c1.4,0,2.8-0.1,3.9-1.4c0.6-0.6,1-1.7,0.9-3h-2c0,0.5-0.1,1-0.5,1.4c-0.4,0.4-1.1,0.6-2.1,0.6
		c-1.1,0-1.7-0.2-2.1-0.6c-0.4-0.2-0.5-0.9-0.5-1.4h-2.5c-0.2,1.1,0.2,2.2,0.9,3C218.9,226.7,220.5,226.8,221.9,226.8z"/>
</g>
</svg>
