
<svg xmlns="http://www.w3.org/2000/svg" viewBox="0 0 380 248"><defs><style>.a{fill:#272425;}.b{fill:#e8db46;}.c{fill:#db8c34;}.d{fill:#388158;}.e{fill:#a2c64d;}</style></defs><title>-new-</title><path class="a" d="M162.36,147.73H142.73a1.29,1.29,0,0,1,0-2.58h19.63a1.29,1.29,0,0,1,0,2.58Z"/><path class="b" d="M73.81,112.39,57.35,95.5a1.44,1.44,0,0,1-.23-1.71L73.29,65a1.44,1.44,0,0,1,2.5,0L92.9,93.77a1.44,1.44,0,0,1-.22,1.75L75.87,112.4A1.44,1.44,0,0,1,73.81,112.39Z"/><path class="c" d="M305.19,112.39,288.72,95.5a1.44,1.44,0,0,1-.23-1.71L304.66,65a1.44,1.44,0,0,1,2.5,0l17.11,28.83a1.44,1.44,0,0,1-.22,1.75L307.24,112.4A1.44,1.44,0,0,1,305.19,112.39Z"/><path class="a" d="M142,147.73a1.29,1.29,0,0,1-1.29-1.29V100.82l-22.3-22.2-22.3,22.2v45.62a1.29,1.29,0,0,1-1.29,1.29H47.4a1.29,1.29,0,0,1,0-2.58H93.57V100.29a1.29,1.29,0,0,1,.38-.92l23.59-23.48a1.29,1.29,0,0,1,1.82,0L143,99.37a1.29,1.29,0,0,1,.38.92v46.15A1.29,1.29,0,0,1,142,147.73Z"/><path class="a" d="M74.53,114.93h0a1.29,1.29,0,0,1-.92-.39L55.37,95.83a1.29,1.29,0,0,1-.2-1.53L73.08,62.35a1.29,1.29,0,0,1,2.24,0l19,31.94a1.29,1.29,0,0,1-.2,1.57L75.45,114.55A1.29,1.29,0,0,1,74.53,114.93ZM57.89,94.72,74.54,111.8l17-17.07L74.24,65.57Z"/><path class="a" d="M74.47,147.48a1.29,1.29,0,0,1-1.29-1.29V77.46a1.29,1.29,0,1,1,2.58,0v68.73A1.29,1.29,0,0,1,74.47,147.48Z"/><path class="a" d="M74.47,102.09a1.29,1.29,0,0,1-1-2.12l7.37-8.87a1.29,1.29,0,0,1,2,1.65l-7.37,8.87A1.29,1.29,0,0,1,74.47,102.09Z"/><path class="a" d="M74.4,96.74a1.29,1.29,0,0,1-1-.45L66.71,88.4a1.29,1.29,0,1,1,2-1.67l6.71,7.89a1.29,1.29,0,0,1-1,2.13Z"/><path class="a" d="M74.4,87.81a1.29,1.29,0,0,1-.91-2.2l4.17-4.17a1.29,1.29,0,1,1,1.83,1.83l-4.17,4.17A1.29,1.29,0,0,1,74.4,87.81Z"/><polygon class="d" points="161.57 94.92 188.89 62.23 161.97 4.24 132.82 62.23 161.57 94.92"/><path class="a" d="M161.57,96.21a1.29,1.29,0,0,1-1-.44L131.85,63.08a1.29,1.29,0,0,1-.18-1.43l29.15-58a1.29,1.29,0,0,1,2.32,0l26.92,58a1.29,1.29,0,0,1-.18,1.37L162.56,95.75a1.29,1.29,0,0,1-1,.46ZM134.37,62l27.17,30.91L187.38,62,161.93,7.2Z"/><path class="a" d="M161.67,147.17a1.29,1.29,0,0,1-1.29-1.29V38.75a1.29,1.29,0,1,1,2.58,0V145.88A1.29,1.29,0,0,1,161.67,147.17Z"/><path class="a" d="M161.67,76.28a1.29,1.29,0,0,1-1-.47L149.24,62a1.29,1.29,0,1,1,2-1.65l11.44,13.76a1.29,1.29,0,0,1-1,2.12Z"/><path class="a" d="M161.77,68a1.29,1.29,0,0,1-1-2.13L171.21,53.6a1.29,1.29,0,0,1,2,1.67L162.75,67.52A1.29,1.29,0,0,1,161.77,68Z"/><path class="a" d="M161.77,54.11a1.29,1.29,0,0,1-.91-.38l-6.48-6.48a1.29,1.29,0,1,1,1.83-1.83l6.48,6.48a1.29,1.29,0,0,1-.91,2.2Z"/><polygon class="e" points="218.65 94.92 243.65 62.84 217.24 26.71 192.64 63.14 218.65 94.92"/><path class="a" d="M218.65,96.21a1.29,1.29,0,0,1-1-.47L191.64,64a1.29,1.29,0,0,1-.07-1.54L216.16,26a1.29,1.29,0,0,1,1-.57,1.27,1.27,0,0,1,1.07.53l26.42,36.13a1.29,1.29,0,0,1,0,1.56l-25,32.08a1.29,1.29,0,0,1-1,.5Zm-24.4-33.15,24.38,29.79,23.41-30L217.28,29Z"/><path class="a" d="M218.65,63a1.29,1.29,0,0,1-.93-.4l-7-7.29a1.29,1.29,0,0,1,1.86-1.79l7,7.29a1.29,1.29,0,0,1-.93,2.18Z"/><path class="a" d="M218.85,68a1.29,1.29,0,0,1-1.08-2l9.31-14.17a1.29,1.29,0,1,1,2.16,1.42l-9.31,14.17A1.29,1.29,0,0,1,218.85,68Z"/><path class="a" d="M218.85,53.35a1.29,1.29,0,0,1-1-.44L214,48.51a1.29,1.29,0,0,1,1.95-1.7l3.85,4.4a1.29,1.29,0,0,1-1,2.14Z"/><path class="a" d="M305.79,114.44a1.29,1.29,0,0,1-.91-.37L286.25,95.53a1.29,1.29,0,0,1-.2-1.57l19-31.64a1.29,1.29,0,0,1,1.1-.62h0a1.28,1.28,0,0,1,1.1.65L325.15,94a1.28,1.28,0,0,1-.2,1.53L306.7,114.05a1.28,1.28,0,0,1-.91.38Zm-17-20,17,16.91,16.66-16.92L306.08,65.53Z"/><path class="a" d="M305.85,147a1.28,1.28,0,0,1-1.29-1.29V77.31a1.29,1.29,0,0,1,2.57,0v68.42A1.29,1.29,0,0,1,305.85,147Z"/><path class="a" d="M305.85,101.71a1.28,1.28,0,0,1-1-.46l-7.37-8.78a1.28,1.28,0,0,1,2-1.65l7.37,8.78a1.29,1.29,0,0,1-1,2.11Z"/><path class="a" d="M305.92,96.42a1.29,1.29,0,0,1-1-2.12l6.71-7.81a1.28,1.28,0,1,1,1.95,1.67L306.89,96A1.28,1.28,0,0,1,305.92,96.42Z"/><path class="a" d="M305.07,86.74a1.28,1.28,0,0,1-.9-.37l-3.33-3.3a1.29,1.29,0,0,1,1.81-1.83l3.33,3.3a1.28,1.28,0,0,1-.9,2.2Z"/><path class="a" d="M218.75,147.78a1.29,1.29,0,0,1-1.29-1.29V49.07a1.29,1.29,0,1,1,2.58,0V145.2l16.95,0V100.29a1.29,1.29,0,0,1,.38-.92L261,75.89a1.29,1.29,0,0,1,1.82,0l23.59,23.48a1.29,1.29,0,0,1,.38.92v44.86h46.17a1.29,1.29,0,0,1,0,2.58H285.46a1.29,1.29,0,0,1-1.29-1.29V100.82l-22.3-22.2-22.3,22.2v45.62a1.29,1.29,0,0,1-1.29,1.29l-19.53.05Z"/><path class="a" d="M218.68,80.49a1.28,1.28,0,0,1-.87-.34l-16-14.74a1.29,1.29,0,0,1,1.75-1.9l16,14.74a1.29,1.29,0,0,1-.87,2.24Z"/><path class="a" d="M209.34,60.08a1.29,1.29,0,0,1-.29-2.55l5.16-1.21a1.29,1.29,0,0,1,.59,2.51L209.64,60A1.3,1.3,0,0,1,209.34,60.08Z"/><path class="a" d="M177.36,63.32a1.3,1.3,0,0,1-.28,0l-9.61-2.13a1.29,1.29,0,0,1,.56-2.52l9.61,2.13a1.29,1.29,0,0,1-.28,2.55Z"/><path class="a" d="M205.19,72.94a1.29,1.29,0,0,1-.11-2.58l4.76-.4a1.29,1.29,0,1,1,.22,2.57l-4.76.4Z"/><path class="a" d="M218.75,83.66a1.29,1.29,0,0,1-1.06-2l11-15.89a1.29,1.29,0,1,1,2.12,1.47l-11,15.89A1.29,1.29,0,0,1,218.75,83.66Z"/><path class="a" d="M225.93,73.24A1.29,1.29,0,0,1,224.64,72l-.09-4.45a1.29,1.29,0,0,1,1.27-1.32h0a1.29,1.29,0,0,1,1.29,1.27l.09,4.45A1.29,1.29,0,0,1,226,73.24Z"/><path class="a" d="M141.83,66.05a1.29,1.29,0,0,1-.1-2.58l10.53-.81a1.29,1.29,0,0,1,.2,2.57L141.93,66Z"/><path class="a" d="M162.07,46a1.29,1.29,0,0,1-.9-2.21l5.77-5.67A1.29,1.29,0,1,1,168.75,40L163,45.64A1.29,1.29,0,0,1,162.07,46Z"/><path class="a" d="M116.2,115.14h-7a1.29,1.29,0,0,1-1.29-1.29v-7a1.29,1.29,0,0,1,1.29-1.29h7a1.29,1.29,0,0,1,1.29,1.29v7A1.29,1.29,0,0,1,116.2,115.14Zm-5.69-2.58h4.4v-4.4h-4.4Z"/><path class="a" d="M127.13,115.14h-7a1.29,1.29,0,0,1-1.29-1.29v-7a1.29,1.29,0,0,1,1.29-1.29h7a1.29,1.29,0,0,1,1.29,1.29v7A1.29,1.29,0,0,1,127.13,115.14Zm-5.69-2.58h4.4v-4.4h-4.4Z"/><path class="a" d="M116.2,126.07h-7a1.29,1.29,0,0,1-1.29-1.29v-7a1.29,1.29,0,0,1,1.29-1.29h7a1.29,1.29,0,0,1,1.29,1.29v7A1.29,1.29,0,0,1,116.2,126.07Zm-5.69-2.58h4.4v-4.4h-4.4Z"/><path class="a" d="M127.13,126.07h-7a1.29,1.29,0,0,1-1.29-1.29v-7a1.29,1.29,0,0,1,1.29-1.29h7a1.29,1.29,0,0,1,1.29,1.29v7A1.29,1.29,0,0,1,127.13,126.07Zm-5.69-2.58h4.4v-4.4h-4.4Z"/><path class="a" d="M259.44,115.14h-7a1.29,1.29,0,0,1-1.29-1.29v-7a1.29,1.29,0,0,1,1.29-1.29h7a1.29,1.29,0,0,1,1.29,1.29v7A1.29,1.29,0,0,1,259.44,115.14Zm-5.69-2.58h4.4v-4.4h-4.4Z"/><path class="a" d="M270.37,115.14h-7a1.29,1.29,0,0,1-1.29-1.29v-7a1.29,1.29,0,0,1,1.29-1.29h7a1.29,1.29,0,0,1,1.29,1.29v7A1.29,1.29,0,0,1,270.37,115.14Zm-5.69-2.58h4.4v-4.4h-4.4Z"/><path class="a" d="M259.44,126.07h-7a1.29,1.29,0,0,1-1.29-1.29v-7a1.29,1.29,0,0,1,1.29-1.29h7a1.29,1.29,0,0,1,1.29,1.29v7A1.29,1.29,0,0,1,259.44,126.07Zm-5.69-2.58h4.4v-4.4h-4.4Z"/><path class="a" d="M270.37,126.07h-7a1.29,1.29,0,0,1-1.29-1.29v-7a1.29,1.29,0,0,1,1.29-1.29h7a1.29,1.29,0,0,1,1.29,1.29v7A1.29,1.29,0,0,1,270.37,126.07Zm-5.69-2.58h4.4v-4.4h-4.4Z"/><path class="a" d="M187.13,103.86h-9a1.29,1.29,0,0,1-1.29-1.29v-9a1.29,1.29,0,0,1,1.29-1.29h9a1.29,1.29,0,0,1,1.29,1.29v9A1.29,1.29,0,0,1,187.13,103.86Zm-7.74-2.58h6.45V94.83h-6.45Z"/><path class="a" d="M201.26,103.86h-9a1.29,1.29,0,0,1-1.29-1.29v-9a1.29,1.29,0,0,1,1.29-1.29h9a1.29,1.29,0,0,1,1.29,1.29v9A1.29,1.29,0,0,1,201.26,103.86Zm-7.74-2.58H200V94.83h-6.45Z"/><path class="a" d="M187.13,118h-9a1.29,1.29,0,0,1-1.29-1.29v-9a1.29,1.29,0,0,1,1.29-1.29h9a1.29,1.29,0,0,1,1.29,1.29v9A1.29,1.29,0,0,1,187.13,118Zm-7.74-2.58h6.45V109h-6.45Z"/><path class="a" d="M201.26,118h-9a1.29,1.29,0,0,1-1.29-1.29v-9a1.29,1.29,0,0,1,1.29-1.29h9a1.29,1.29,0,0,1,1.29,1.29v9A1.29,1.29,0,0,1,201.26,118Zm-7.74-2.58H200V109h-6.45Z"/><path class="a" d="M162.44,228.66a4.13,4.13,0,0,0,2.4-.61,2,2,0,0,0,.86-1.73.8.8,0,0,0-.11-.42.36.36,0,0,0-.33-.19H164.1a3.82,3.82,0,0,1-.09.9,1.38,1.38,0,0,1-.29.59,1.12,1.12,0,0,1-.51.33,3,3,0,0,1-1.55,0,1.12,1.12,0,0,1-.51-.33,1.38,1.38,0,0,1-.29-.59,3.82,3.82,0,0,1-.09-.9h-1.17a.36.36,0,0,0-.33.19.8.8,0,0,0-.11.42,2,2,0,0,0,.86,1.73A4.13,4.13,0,0,0,162.44,228.66Z"/><path class="a" d="M95.49,237.91a3.08,3.08,0,0,0-1-.52,2.26,2.26,0,0,0,.81-.46,4.11,4.11,0,0,0,.65-.77l4.69-6.43H99a1.2,1.2,0,0,0-.63.17,1.33,1.33,0,0,0-.47.48l-4,5.58a1.88,1.88,0,0,1-.74.66,2.24,2.24,0,0,1-.89.16H90.6v-7.05H88.55v7.05H87a2.32,2.32,0,0,1-.9-.16,1.79,1.79,0,0,1-.74-.66l-4-5.58a1.35,1.35,0,0,0-.47-.48,1.2,1.2,0,0,0-.63-.17H78.49l4.68,6.43a4.11,4.11,0,0,0,.65.77,2.25,2.25,0,0,0,.82.46,2.79,2.79,0,0,0-1,.52,3.73,3.73,0,0,0-.78.93l-4.78,7h1.46a1.57,1.57,0,0,0,.82-.21,1.52,1.52,0,0,0,.55-.57l4.07-5.7a1.93,1.93,0,0,1,.69-.68,2.09,2.09,0,0,1,1-.21h1.85v7.36H90.6v-7.36h1.86a2.06,2.06,0,0,1,1,.21,1.93,1.93,0,0,1,.69.68l4.08,5.7a1.59,1.59,0,0,0,.56.57,1.57,1.57,0,0,0,.82.21H101l-4.77-7A3.58,3.58,0,0,0,95.49,237.91Z"/><path class="a" d="M114.13,229.93a2,2,0,0,0-.4.47l-7.54,11.15a8.86,8.86,0,0,0-.43.77,9.47,9.47,0,0,0-.41,1q.08-.6.1-1.12t0-1V229.72h-2.18V245.8h1.62a.85.85,0,0,0,.57-.21,2,2,0,0,0,.4-.47L113.43,234a6,6,0,0,0,.44-.76q.21-.44.4-.94-.08.58-.1,1.11t0,1V245.8h2.18V229.72h-1.62A.85.85,0,0,0,114.13,229.93Z"/><path class="a" d="M123,235.26q-.21,2.32-.51,3.92a16,16,0,0,1-.65,2.58,5.8,5.8,0,0,1-.76,1.5,2.07,2.07,0,0,1-.84.7,2.38,2.38,0,0,1-.89.17h-.79v1.38c0,.14.11.25.33.32a3.14,3.14,0,0,0,.93.11,4.4,4.4,0,0,0,1.38-.21,3,3,0,0,0,1.22-.8,5.87,5.87,0,0,0,1-1.6,13.5,13.5,0,0,0,.85-2.63,35.49,35.49,0,0,0,.64-3.9q.26-2.28.42-5.38h5.32V245.8h2.18V229.72h-9.55Q123.17,232.94,123,235.26Z"/><path class="a" d="M149.62,231.84a7.25,7.25,0,0,0-2.51-1.7,8.93,8.93,0,0,0-6.47,0,7.26,7.26,0,0,0-2.5,1.7,7.65,7.65,0,0,0-1.62,2.6,9.89,9.89,0,0,0,0,6.63,7.6,7.6,0,0,0,1.62,2.6,7.24,7.24,0,0,0,2.5,1.69,9,9,0,0,0,6.47,0,7.23,7.23,0,0,0,2.51-1.69,7.6,7.6,0,0,0,1.62-2.6,9.89,9.89,0,0,0,0-6.63A7.65,7.65,0,0,0,149.62,231.84Zm-.45,8.58a5.63,5.63,0,0,1-1.15,2,4.91,4.91,0,0,1-1.8,1.25,6.61,6.61,0,0,1-4.7,0,5,5,0,0,1-1.8-1.25,5.58,5.58,0,0,1-1.15-2,8.95,8.95,0,0,1,0-5.32,5.58,5.58,0,0,1,1.15-2,5,5,0,0,1,1.8-1.25,6.54,6.54,0,0,1,4.7,0,5,5,0,0,1,1.8,1.25,5.63,5.63,0,0,1,1.15,2,8.95,8.95,0,0,1,0,5.32Z"/><path class="a" d="M166.76,229.93a2,2,0,0,0-.4.47l-7.54,11.15a8.85,8.85,0,0,0-.43.77,9.46,9.46,0,0,0-.41,1c.05-.4.09-.77.1-1.12s0-.68,0-1V229.72h-2.18V245.8h1.62a.85.85,0,0,0,.57-.21,2,2,0,0,0,.4-.47L166.06,234a5.94,5.94,0,0,0,.44-.76q.21-.44.4-.94c-.05.39-.09.76-.1,1.11s0,.68,0,1V245.8H169V229.72h-1.62A.85.85,0,0,0,166.76,229.93Z"/><path class="a" d="M186,237.9a2.56,2.56,0,0,0-1-.5,2.81,2.81,0,0,0,1.42-1.07l4.86-6.61H189.4a.94.94,0,0,0-.57.17,1.55,1.55,0,0,0-.41.44L184.21,236a1.9,1.9,0,0,1-.7.62,2.11,2.11,0,0,1-.86.16H181v-7.05h-2.17V245.8H181v-7.36h1.93a2,2,0,0,1,.92.17,1.76,1.76,0,0,1,.63.61l4.25,5.89a1.77,1.77,0,0,0,.43.51.9.9,0,0,0,.56.17h2l-4.92-7A3.82,3.82,0,0,0,186,237.9Z"/><path class="a" d="M205.79,231.84a7.24,7.24,0,0,0-2.51-1.7,8.93,8.93,0,0,0-6.47,0,7.25,7.25,0,0,0-2.5,1.7,7.65,7.65,0,0,0-1.62,2.6,9.89,9.89,0,0,0,0,6.63,7.6,7.6,0,0,0,1.62,2.6,7.23,7.23,0,0,0,2.5,1.69,9,9,0,0,0,6.47,0,7.22,7.22,0,0,0,2.51-1.69,7.6,7.6,0,0,0,1.62-2.6,9.89,9.89,0,0,0,0-6.63A7.65,7.65,0,0,0,205.79,231.84Zm-.45,8.58a5.63,5.63,0,0,1-1.14,2,4.91,4.91,0,0,1-1.8,1.25,6.61,6.61,0,0,1-4.7,0,5,5,0,0,1-1.8-1.25,5.57,5.57,0,0,1-1.15-2,8.94,8.94,0,0,1,0-5.32,5.57,5.57,0,0,1,1.15-2,5,5,0,0,1,1.8-1.25,6.54,6.54,0,0,1,4.7,0,5,5,0,0,1,1.8,1.25,5.63,5.63,0,0,1,1.14,2,8.94,8.94,0,0,1,0,5.32Z"/><path class="a" d="M225.77,229.77a.6.6,0,0,0-.3.31L220,240a6,6,0,0,0-.27.57q-.12.3-.24.6-.11-.3-.24-.6T219,240l-5.56-9.9a.65.65,0,0,0-.3-.31,1.4,1.4,0,0,0-.45-.06h-1.6V245.8H213V234a9.79,9.79,0,0,0-.07-1.1l5.64,10.1a.84.84,0,0,0,.79.51h.31a.84.84,0,0,0,.79-.51L226,232.93q0,.28,0,.55c0,.18,0,.35,0,.51V245.8h1.91V229.72h-1.61A1.45,1.45,0,0,0,225.77,229.77Z"/><path class="a" d="M249.86,235.26q-.21,2.32-.51,3.92a16,16,0,0,1-.65,2.58,5.81,5.81,0,0,1-.76,1.5,2.07,2.07,0,0,1-.84.7,2.38,2.38,0,0,1-.89.17h-.79v1.38c0,.14.11.25.32.32a3.14,3.14,0,0,0,.93.11,4.4,4.4,0,0,0,1.38-.21,3,3,0,0,0,1.22-.8,5.87,5.87,0,0,0,1-1.6,13.5,13.5,0,0,0,.85-2.63,35.79,35.79,0,0,0,.64-3.9q.26-2.28.42-5.38h5.32V245.8h2.18V229.72h-9.55Q250.07,232.94,249.86,235.26Z"/><polygon class="a" points="266.02 238.54 272.29 238.54 272.29 236.83 266.02 236.83 266.02 231.49 273.76 231.49 273.76 229.72 263.85 229.72 263.85 245.81 273.76 245.81 273.77 244.03 266.02 244.03 266.02 238.54"/><path class="a" d="M284,237.9a2.57,2.57,0,0,0-1-.5,2.8,2.8,0,0,0,1.41-1.07l4.86-6.61H287.4a.94.94,0,0,0-.57.17,1.56,1.56,0,0,0-.41.44L282.21,236a1.9,1.9,0,0,1-.7.62,2.11,2.11,0,0,1-.86.16H279v-7.05h-2.17V245.8H279v-7.36h1.93a2,2,0,0,1,.92.17,1.76,1.76,0,0,1,.63.61l4.25,5.89a1.77,1.77,0,0,0,.43.51.89.89,0,0,0,.56.17h2l-4.92-7A3.81,3.81,0,0,0,284,237.9Z"/><path class="a" d="M302.41,242.48a.58.58,0,0,0-.38.17,6.36,6.36,0,0,1-.84.66,4.5,4.5,0,0,1-.91.45,5.26,5.26,0,0,1-1.07.26,9,9,0,0,1-1.3.08,5.61,5.61,0,0,1-2.2-.43,5,5,0,0,1-1.76-1.24,5.92,5.92,0,0,1-1.18-2,7.76,7.76,0,0,1-.43-2.68,8,8,0,0,1,.42-2.66,5.78,5.78,0,0,1,1.16-2,5,5,0,0,1,1.78-1.25,5.85,5.85,0,0,1,2.28-.43,5.68,5.68,0,0,1,2.92.71,7.5,7.5,0,0,1,.76.49.89.89,0,0,0,.49.22.5.5,0,0,0,.29-.07.59.59,0,0,0,.17-.19l.72-1a7.64,7.64,0,0,0-2.31-1.49,7.8,7.8,0,0,0-3-.55,8.27,8.27,0,0,0-3.2.6,7.21,7.21,0,0,0-2.49,1.69,7.63,7.63,0,0,0-1.61,2.6,9.36,9.36,0,0,0-.57,3.33,9.71,9.71,0,0,0,.55,3.33,7.59,7.59,0,0,0,1.55,2.6,6.91,6.91,0,0,0,2.41,1.68,8,8,0,0,0,3.14.6,8.21,8.21,0,0,0,3.41-.64,6.89,6.89,0,0,0,2.4-1.79l-.86-.93A.42.42,0,0,0,302.41,242.48Z"/><path class="a" d="M230.68,245.8V229.72h13V245.8h-2.13V231.38h-8.77V245.8Z"/><path class="a" d="M17.71,166a30.06,30.06,0,0,1,7.67.85,14.61,14.61,0,0,1,5.23,2.43,9.44,9.44,0,0,1,3,3.82,12.87,12.87,0,0,1,.95,5.05,10,10,0,0,1-.47,3.08,8.92,8.92,0,0,1-1.47,2.75,11,11,0,0,1-2.53,2.32A15.28,15.28,0,0,1,26.42,188q9.41,2.12,9.41,10.17a13,13,0,0,1-1.11,5.37,11.85,11.85,0,0,1-3.22,4.25,15.39,15.39,0,0,1-5.21,2.79,22.75,22.75,0,0,1-7.07,1H2V166Zm-7.23,6.57v13.2h6.76q4.36,0,6.58-1.58a5.73,5.73,0,0,0,2.23-5q0-3.57-2-5.08t-6.32-1.52ZM19.06,205a12.06,12.06,0,0,0,4-.57,6.87,6.87,0,0,0,2.57-1.52A5.56,5.56,0,0,0,27,200.7a8.34,8.34,0,0,0,.43-2.68,7.13,7.13,0,0,0-.47-2.67,5,5,0,0,0-1.48-2A7,7,0,0,0,22.87,192,14.53,14.53,0,0,0,19,191.6H10.47V205Z"/><path class="a" d="M79,166,60.59,205.28a16.13,16.13,0,0,1-2.08,3.38,9.3,9.3,0,0,1-2.38,2.08,8.81,8.81,0,0,1-2.75,1.06,15.69,15.69,0,0,1-3.14.3,9.76,9.76,0,0,1-3.32-.41q-1-.41-1-1.2v-5.31h2.46a8.23,8.23,0,0,0,1.42-.13,4.77,4.77,0,0,0,1.44-.51,5.5,5.5,0,0,0,1.37-1.07,7.48,7.48,0,0,0,1.23-1.83L55.6,198,37.28,166h8a2.73,2.73,0,0,1,1.77.54,4.43,4.43,0,0,1,1.11,1.36L57,184.59q.73,1.39,1.31,2.75a28.46,28.46,0,0,1,1,2.78,35.05,35.05,0,0,1,2.12-5.53l7.74-16.74a4.22,4.22,0,0,1,1-1.29A2.61,2.61,0,0,1,72,166Z"/><path class="a" d="M123.46,205.09v15a2.26,2.26,0,0,1-.74,1.77,2.8,2.8,0,0,1-1.94.66h-5.12V211.62H82.13v8.43a2.26,2.26,0,0,1-.74,1.77,2.8,2.8,0,0,1-1.94.66H74.32v-17.4h5a6.14,6.14,0,0,0,1.75-1.52,12.26,12.26,0,0,0,1.69-2.94,32.66,32.66,0,0,0,1.56-4.8,68.58,68.58,0,0,0,1.34-7.09q.6-4.18,1-9.81t.65-13h29v39.13Zm-15.63,0V172.5H95.36q-.38,6.73-1,11.94t-1.5,9.16a50.17,50.17,0,0,1-1.89,6.76,26.3,26.3,0,0,1-2.24,4.74Z"/><path class="a" d="M160.09,200.86a1.69,1.69,0,0,1,1.23.54l3.35,3.63a18.38,18.38,0,0,1-6.84,5.27,23.56,23.56,0,0,1-9.74,1.83,23,23,0,0,1-9.14-1.74,20.13,20.13,0,0,1-6.93-4.83,21.13,21.13,0,0,1-4.41-7.39,27.71,27.71,0,0,1-1.53-9.38,26.11,26.11,0,0,1,1.64-9.43,21.65,21.65,0,0,1,4.63-7.37,20.94,20.94,0,0,1,7.12-4.82,23.63,23.63,0,0,1,9.16-1.72,22.5,22.5,0,0,1,8.86,1.64,21.12,21.12,0,0,1,6.58,4.29l-2.84,3.95a2.58,2.58,0,0,1-.65.66,1.84,1.84,0,0,1-1.09.28,2.08,2.08,0,0,1-1-.27q-.51-.27-1.11-.66t-1.39-.87a11.5,11.5,0,0,0-1.83-.87,15,15,0,0,0-2.42-.66,16.72,16.72,0,0,0-3.17-.27,14.09,14.09,0,0,0-5.61,1.09,12.18,12.18,0,0,0-4.37,3.16,14.55,14.55,0,0,0-2.84,5.05,21.17,21.17,0,0,0-1,6.81,20,20,0,0,0,1.09,6.85,15.06,15.06,0,0,0,3,5.05,12.59,12.59,0,0,0,4.39,3.14,13.56,13.56,0,0,0,5.43,1.09,23.67,23.67,0,0,0,3.14-.19,13.33,13.33,0,0,0,2.59-.6,11.46,11.46,0,0,0,2.24-1.06,14,14,0,0,0,2.1-1.59,3,3,0,0,1,.66-.46A1.62,1.62,0,0,1,160.09,200.86Z"/><path class="a" d="M202.41,172.94H188.64v38.68h-8.49V172.94H166.38v-7h36Z"/><path class="a" d="M250.44,188.79a25.52,25.52,0,0,1-1.66,9.3,21.82,21.82,0,0,1-4.69,7.41,21.31,21.31,0,0,1-7.29,4.88,26.4,26.4,0,0,1-18.92,0,21.48,21.48,0,0,1-7.31-4.88,21.89,21.89,0,0,1-4.72-7.41,26.68,26.68,0,0,1,0-18.6,21.9,21.9,0,0,1,4.72-7.4,21.47,21.47,0,0,1,7.31-4.88,24.61,24.61,0,0,1,9.44-1.75,25.64,25.64,0,0,1,6.54.81,23,23,0,0,1,5.62,2.27,20.79,20.79,0,0,1,4.59,3.57,21.69,21.69,0,0,1,3.46,4.69,23,23,0,0,1,2.16,5.62A26.77,26.77,0,0,1,250.44,188.79Zm-8.68,0a21,21,0,0,0-1-6.74,14.47,14.47,0,0,0-2.87-5.07,12.31,12.31,0,0,0-4.53-3.19,16.92,16.92,0,0,0-12,0,12.44,12.44,0,0,0-4.55,3.19,14.3,14.3,0,0,0-2.89,5.07,23,23,0,0,0,0,13.48,14.13,14.13,0,0,0,2.89,5.05,12.53,12.53,0,0,0,4.55,3.17,16.92,16.92,0,0,0,12,0,12.39,12.39,0,0,0,4.53-3.17,14.3,14.3,0,0,0,2.87-5.05A21,21,0,0,0,241.75,188.79Z"/><path class="a" d="M272.76,166a26.06,26.06,0,0,1,7.93,1.07,15.27,15.27,0,0,1,5.53,3,11.9,11.9,0,0,1,3.24,4.61,15.88,15.88,0,0,1,1.06,5.87,16.23,16.23,0,0,1-1.11,6.08,12.62,12.62,0,0,1-3.32,4.75,15.42,15.42,0,0,1-5.54,3.09,24.75,24.75,0,0,1-7.78,1.11h-6.35v16.07h-8.49V166Zm0,23a12.79,12.79,0,0,0,4.07-.58,7.73,7.73,0,0,0,2.89-1.67,6.78,6.78,0,0,0,1.72-2.65,10.16,10.16,0,0,0,.57-3.49,9.21,9.21,0,0,0-.57-3.32,6.56,6.56,0,0,0-1.71-2.53,7.58,7.58,0,0,0-2.87-1.59,13.6,13.6,0,0,0-4.11-.55h-6.35v16.39Z"/><path class="a" d="M335.51,166v45.66H327V183q0-1.61.08-3.38t.36-3.76a30.57,30.57,0,0,1-1.37,3.27q-.74,1.5-1.44,2.64L307.15,209a7.65,7.65,0,0,1-.68.95,5.45,5.45,0,0,1-.87.84,4.65,4.65,0,0,1-1,.6,3,3,0,0,1-1.17.24H297V166h8.53v28.61q0,1.61-.08,3.39t-.36,3.77a31.72,31.72,0,0,1,1.37-3.28,26.8,26.8,0,0,1,1.47-2.65l17.43-27.22a7.47,7.47,0,0,1,.68-.95,5.43,5.43,0,0,1,.87-.84,4.78,4.78,0,0,1,1-.6,3,3,0,0,1,1.18-.24Z"/><path class="a" d="M378.39,211.62H369.9V192.74h-4.67a7.5,7.5,0,0,0-1.47.14,4.63,4.63,0,0,0-1.36.51,6.2,6.2,0,0,0-1.28,1,8.18,8.18,0,0,0-1.23,1.59l-8.05,12.73a6.12,6.12,0,0,1-2.12,2.13,6,6,0,0,1-3.16.81h-6.41l10.48-16a10.81,10.81,0,0,1,4.83-4.33,16.59,16.59,0,0,1-4.41-1.8,11.7,11.7,0,0,1-3.11-2.67,10.47,10.47,0,0,1-1.83-3.41,13.17,13.17,0,0,1-.6-4,12.88,12.88,0,0,1,1.12-5.4,11.78,11.78,0,0,1,3.25-4.23,15.5,15.5,0,0,1,5.24-2.76,23.23,23.23,0,0,1,7.09-1h16.17Zm-8.49-25.51V172.56h-7.67a12.91,12.91,0,0,0-4,.52,6.64,6.64,0,0,0-2.56,1.44,5.35,5.35,0,0,0-1.39,2.13,7.92,7.92,0,0,0-.43,2.64,9,9,0,0,0,.41,2.81,4.87,4.87,0,0,0,1.39,2.15,6.71,6.71,0,0,0,2.57,1.37,13.68,13.68,0,0,0,4,.49Z"/></svg>