<svg width="40" height="50" viewBox="0 0 40 50" fill="none" xmlns="http://www.w3.org/2000/svg">
<path d="M39.9191 22.6855C38.6851 36.9174 27.4298 45.9886 22.6275 49.1941C21.8526 49.7194 20.9396 50 20.0054 50C19.0712 50 18.1582 49.7194 17.3833 49.1941C12.1558 45.6613 1.00165e-05 35.7678 1.00165e-05 20.1597L39.9191 22.6855ZM39.9191 22.6855C40.1696 19.8086 39.837 16.9105 38.9412 14.1669M39.9191 22.6855L38.9412 14.1669M38.9412 14.1669C38.0455 11.4233 36.6054 8.89148 34.7082 6.72493L38.9412 14.1669ZM34.3299 7.05185L34.3321 7.05433C36.1847 9.16998 37.5911 11.6425 38.4659 14.3221C39.3408 17.0017 39.6657 19.8323 39.4209 22.6421L39.4209 22.6423C38.2078 36.6342 27.1257 45.5904 22.3499 48.7783L22.3469 48.7803C21.6547 49.2495 20.8394 49.5 20.0054 49.5C19.1714 49.5 18.3561 49.2495 17.6639 48.7803L17.6633 48.7799C12.458 45.2621 0.50001 35.4992 0.50001 20.1597L0.50001 20.1592C0.497388 17.5215 1.02261 14.9104 2.04426 12.4816C3.0659 10.0528 4.563 7.8562 6.44608 6.02274C8.32916 4.18928 10.5596 2.7565 13.0044 1.80969C15.4492 0.862883 18.0582 0.421388 20.676 0.511464L20.6764 0.511477C23.2763 0.598927 25.8304 1.22473 28.1795 2.34994C30.5286 3.47515 32.6223 5.07569 34.3299 7.05185Z" fill="white" stroke="#DBDBDB"/>
<path d="M10 19.125C10 20.2883 10.7584 21.2576 11.7812 21.5371V29.75H10.5938C10.2667 29.75 10 30.0295 10 30.375C10 30.7205 10.2667 31 10.5938 31H28.4062C28.7356 31 29 30.7205 29 30.375C29 30.0295 28.7356 29.75 28.4062 29.75H27.2188V21.5371C28.2416 21.2576 29 20.2883 29 19.125V18.5H10V19.125ZM21.875 21.625C23.1877 21.625 24.25 20.5056 24.25 19.125C24.25 20.2883 25.0084 21.2576 26.0312 21.5371V29.75H17.125V21.625C18.4377 21.625 19.5 20.5056 19.5 19.125C19.5 20.5056 20.5646 21.625 21.875 21.625ZM16.5312 21.5371V29.75H12.9688V21.5371C13.9916 21.2576 14.75 20.2883 14.75 19.125C14.75 20.2883 15.5084 21.2576 16.5312 21.5371ZM26.625 12.875H12.375L10 17.875H29L26.625 12.875ZM15.0167 14.2642L13.8292 16.7642C13.7759 16.8741 13.6715 16.9375 13.5625 16.9375C13.5184 16.9375 13.4732 16.9278 13.4303 16.9046C13.2841 16.8277 13.2238 16.6397 13.2981 16.4859L14.4856 13.9859C14.5598 13.832 14.7372 13.7698 14.8833 13.8455C15.0307 13.9224 15.0886 14.1104 15.0167 14.2642ZM17.3917 14.2642L16.2042 16.7642C16.1509 16.8741 16.0465 16.9375 15.9375 16.9375C15.8934 16.9375 15.8482 16.9278 15.8053 16.9046C15.6591 16.8277 15.5988 16.6397 15.6731 16.4859L16.8606 13.9859C16.9348 13.832 17.1134 13.7698 17.2583 13.8455C17.4057 13.9224 17.4636 14.1104 17.3917 14.2642ZM19.7969 16.625C19.7969 16.7984 19.6647 16.9375 19.5 16.9375C19.3365 16.9375 19.2031 16.7983 19.2031 16.625V14.125C19.2031 13.9516 19.3365 13.8125 19.5 13.8125C19.6647 13.8125 19.7969 13.9517 19.7969 14.125V16.625ZM23.2063 16.8984C23.1599 16.9253 23.1112 16.9375 23.0625 16.9375C22.9581 16.9375 22.8561 16.8789 22.8027 16.7752L21.5039 14.2752C21.425 14.1238 21.4784 13.9334 21.6222 13.8516C21.7637 13.7686 21.9469 13.8223 22.0258 13.9748L23.3246 16.4748C23.4011 16.6262 23.3501 16.8166 23.2063 16.8984ZM25.5697 16.9045C25.528 16.9277 25.4839 16.9375 25.4375 16.9375C25.3285 16.9375 25.2241 16.874 25.1731 16.7641L23.9856 14.2641C23.9114 14.1103 23.9717 13.9223 24.1178 13.8454C24.2616 13.7685 24.4425 13.8308 24.5167 13.9858L25.7042 16.4858C25.7761 16.6396 25.7181 16.8277 25.5697 16.9045ZM15.0469 26.0952V24.6548C14.8729 24.545 14.75 24.3545 14.75 24.125C14.75 23.7796 15.0167 23.5 15.3438 23.5C15.6731 23.5 15.9375 23.7796 15.9375 24.125C15.9375 24.3545 15.8157 24.545 15.6406 24.6548V26.0952C15.8157 26.2051 15.9375 26.3955 15.9375 26.625C15.9375 26.9705 15.6731 27.25 15.3438 27.25C15.0167 27.25 14.75 26.9705 14.75 26.625C14.75 26.3955 14.8729 26.2051 15.0469 26.0952ZM12.375 11.625C12.375 11.2795 12.6417 11 12.9688 11H26.0312C26.3606 11 26.625 11.2795 26.625 11.625C26.625 11.9705 26.3606 12.25 26.0312 12.25H12.9688C12.6417 12.25 12.375 11.9705 12.375 11.625ZM20.4069 24.9709L19.9871 24.529L21.6663 22.7614L22.0861 23.2034L20.4069 24.9709ZM20.4069 26.7385L19.9871 26.2966L23.3455 22.7614L23.7653 23.2034L20.4069 26.7385ZM23.3455 24.5291L23.7652 24.971L22.086 26.7386L21.6663 26.2966L23.3455 24.5291Z" fill="#0065FB"/>
</svg>
