<svg width="70" height="87" viewBox="0 0 70 87" fill="none" xmlns="http://www.w3.org/2000/svg">
<path d="M69.8584 39.4728C67.699 64.2363 48.0021 80.0202 39.5981 85.5978C38.2421 86.5118 36.6443 87 35.0094 87C33.3745 87 31.7768 86.5118 30.4208 85.5978C21.2727 79.4507 1.75288e-05 62.236 1.75288e-05 35.0778L69.8584 39.4728ZM69.8584 39.4728C70.2969 34.467 69.7147 29.4243 68.1472 24.6504M69.8584 39.4728L68.1472 24.6504M68.1472 24.6504C66.5796 19.8766 64.0594 15.4712 60.7394 11.7014L68.1472 24.6504ZM60.362 12.0294L60.3642 12.0318C63.6395 15.7508 66.1257 20.0969 67.6721 24.8064C69.2185 29.516 69.7929 34.4908 69.3603 39.4291L69.3603 39.4293C67.2219 63.9518 47.6997 79.6207 39.3216 85.1812L39.3186 85.1832C38.0452 86.0415 36.5447 86.5 35.0094 86.5C33.4741 86.5 31.9737 86.0415 30.7002 85.1832L30.6997 85.1828C21.573 79.0501 0.500018 61.966 0.500018 35.0778L0.500017 35.0773C0.49538 30.4388 1.42431 25.8469 3.23139 21.5754C5.03846 17.3039 7.68666 13.4405 11.018 10.2155C14.3494 6.99043 18.2956 4.4699 22.6214 2.80418C26.9471 1.13847 31.5638 0.361689 36.196 0.520169L36.1964 0.520182C40.7984 0.674094 45.3193 1.7755 49.4771 3.75568C53.6349 5.73586 57.3403 8.55233 60.362 12.0294Z" fill="white" stroke="#DBDBDB"/>
<path d="M15.0195 18L15.0195 36.9912L33.4761 36.9912L33.4761 18L15.0195 18Z" fill="#02996D"/>
<path d="M33.4761 37.0088H15.0195V56H33.4761V37.0088Z" fill="#FDC60C"/>
<path d="M33.457 37.0088V55.9723H51.9136L33.457 37.0088Z" fill="black"/>
<path d="M45.7752 37.0088C50.8718 37.0088 55.0034 32.7575 55.0034 27.5132C55.0034 22.2689 50.8718 18.0176 45.7752 18.0176C40.6785 18.0176 36.5469 22.2689 36.5469 27.5132C36.5469 32.7575 40.6785 37.0088 45.7752 37.0088Z" fill="#EA4041"/>
<path d="M33.4565 37.0103C33.4565 26.518 25.1968 18.019 15 18.019V37.0103H33.4565Z" fill="#0065FB"/>
</svg>
