<svg width="40" height="50" viewBox="0 0 40 50" fill="none" xmlns="http://www.w3.org/2000/svg">
<path d="M39.9191 22.6855C38.6851 36.9174 27.4298 45.9886 22.6275 49.1941C21.8526 49.7194 20.9396 50 20.0054 50C19.0712 50 18.1582 49.7194 17.3833 49.1941C12.1558 45.6613 1.00165e-05 35.7678 1.00165e-05 20.1597L39.9191 22.6855ZM39.9191 22.6855C40.1696 19.8086 39.837 16.9105 38.9412 14.1669M39.9191 22.6855L38.9412 14.1669M38.9412 14.1669C38.0455 11.4233 36.6054 8.89148 34.7082 6.72493L38.9412 14.1669ZM34.3299 7.05185L34.3321 7.05433C36.1847 9.16998 37.5911 11.6425 38.4659 14.3221C39.3408 17.0017 39.6657 19.8323 39.4209 22.6421L39.4209 22.6423C38.2078 36.6342 27.1257 45.5904 22.3499 48.7783L22.3469 48.7803C21.6547 49.2495 20.8394 49.5 20.0054 49.5C19.1714 49.5 18.3561 49.2495 17.6639 48.7803L17.6633 48.7799C12.458 45.2621 0.50001 35.4992 0.50001 20.1597L0.50001 20.1592C0.497388 17.5215 1.02261 14.9104 2.04426 12.4816C3.0659 10.0528 4.563 7.8562 6.44608 6.02274C8.32916 4.18928 10.5596 2.7565 13.0044 1.80969C15.4492 0.862883 18.0582 0.421388 20.676 0.511464L20.6764 0.511477C23.2763 0.598927 25.8304 1.22473 28.1795 2.34994C30.5286 3.47515 32.6223 5.07569 34.3299 7.05185Z" fill="white" stroke="#DBDBDB"/>
<path d="M14.9034 21.0804C14.4872 21.5064 14.2266 22.0997 14.2266 22.7578C14.2266 24.0504 15.2252 25.1016 16.4531 25.1016H17.5664V26.6168L14.5527 29.8281H13.1133V31H23.1328V29.8281H21.6934L19.4456 27.423C20.267 27.3133 20.9062 26.5814 20.9062 25.6875C20.9062 24.7183 20.1572 23.9297 19.2363 23.9297H18.6797V21.5855C19.0705 21.5855 22.1801 21.5859 22.0195 21.5859C24.5604 21.5859 26.6002 19.3157 26.4667 16.6082C26.3449 14.1619 24.251 12.1719 21.7989 12.1719H21.6873C20.9551 11.4184 19.9921 11 18.9661 11H18.123C17.2023 11 16.4531 11.7886 16.4531 12.7578C16.4531 13.7271 17.2023 14.5156 18.123 14.5156H18.9661C19.9921 14.5156 20.9551 14.0972 21.6873 13.3438H21.7989C23.6683 13.3438 25.2637 14.8354 25.3544 16.6694C25.4448 18.4713 24.2313 20.1606 22.3915 20.3747C23.5139 19.407 24.2461 17.9164 24.2461 16.2734V15.6875H12V16.2734C12 18.3868 13.1943 20.2398 14.9034 21.0804ZM18.6797 25.1016H19.2363C19.5435 25.1016 19.793 25.3642 19.793 25.6875C19.793 26.0108 19.5435 26.2734 19.2363 26.2734H18.6797V25.1016ZM16.4531 21.5855C16.5652 21.5855 17.6785 21.5855 17.5664 21.5855V23.9297H16.4531C15.8394 23.9297 15.3398 23.4039 15.3398 22.7578C15.3398 22.1118 15.8394 21.5855 16.4531 21.5855Z" fill="#0065FB"/>
</svg>
