<svg width="40" height="50" viewBox="0 0 40 50" fill="none" xmlns="http://www.w3.org/2000/svg">
<path d="M39.9191 22.6855C38.6851 36.9174 27.4298 45.9886 22.6275 49.1941C21.8526 49.7194 20.9396 50 20.0054 50C19.0712 50 18.1582 49.7194 17.3833 49.1941C12.1558 45.6613 1.00165e-05 35.7678 1.00165e-05 20.1597L39.9191 22.6855ZM39.9191 22.6855C40.1696 19.8086 39.837 16.9105 38.9412 14.1669M39.9191 22.6855L38.9412 14.1669M38.9412 14.1669C38.0455 11.4233 36.6054 8.89148 34.7082 6.72493L38.9412 14.1669ZM34.3299 7.05185L34.3321 7.05433C36.1847 9.16998 37.5911 11.6425 38.4659 14.3221C39.3408 17.0017 39.6657 19.8323 39.4209 22.6421L39.4209 22.6423C38.2078 36.6342 27.1257 45.5904 22.3499 48.7783L22.3469 48.7803C21.6547 49.2495 20.8394 49.5 20.0054 49.5C19.1714 49.5 18.3561 49.2495 17.6639 48.7803L17.6633 48.7799C12.458 45.2621 0.50001 35.4992 0.50001 20.1597L0.50001 20.1592C0.497388 17.5215 1.02261 14.9104 2.04426 12.4816C3.0659 10.0528 4.563 7.8562 6.44608 6.02274C8.32916 4.18928 10.5596 2.7565 13.0044 1.80969C15.4492 0.862883 18.0582 0.421388 20.676 0.511464L20.6764 0.511477C23.2763 0.598927 25.8304 1.22473 28.1795 2.34994C30.5286 3.47515 32.6223 5.07569 34.3299 7.05185Z" fill="white" stroke="#DBDBDB"/>
<path fill-rule="evenodd" clip-rule="evenodd" d="M27.2466 29.0646C27.2615 29.2258 27.2508 29.389 27.2508 29.5752C27.5138 29.5752 27.8932 29.5752 28.1647 29.5752C28.1751 29.3503 28.1855 29.1244 28.198 28.8553C28.9297 28.9323 29.5719 28.9569 30.2517 29.2255C30.2559 29.2645 30.2599 29.3035 30.2642 29.3423C30.0934 29.3994 29.9263 29.4887 29.7515 29.5086C28.7032 29.6277 27.6556 29.7914 26.6039 29.8276C23.8814 29.9209 21.1566 30.0048 18.4332 29.9998C15.6714 29.9946 12.9064 29.9454 10.1584 29.61C9.85481 29.5729 9.55523 29.4991 9.25564 29.4342C9.18571 29.4191 9.12357 29.369 9 29.3052C9.34093 29.0342 9.70667 29.0351 10.0445 28.9888C10.6617 28.904 11.2837 28.8532 11.9051 28.8069C12.0885 28.7929 12.17 28.718 12.2387 28.5581C12.8365 27.1663 13.1337 25.7085 13.198 24.2009C13.2547 22.8636 13.1651 21.5358 12.9093 20.2205C12.8986 20.1657 12.884 20.1114 12.8755 20.0761C12.5466 20.1924 12.2361 20.3519 11.908 20.4102C10.3474 20.6871 9.07797 19.1911 9.5909 17.6892C9.64737 17.524 9.63768 17.4212 9.529 17.2814C8.86604 16.4308 8.96007 15.2266 9.74495 14.4887C9.86804 14.3732 9.91955 14.2671 9.916 14.0963C9.88647 12.7498 10.8932 11.8139 12.2316 11.9188C12.3318 11.9264 12.471 11.8647 12.5388 11.7877C13.3986 10.8117 14.685 10.7349 15.6561 11.6008C15.7248 11.662 15.8827 11.6904 15.9672 11.6559C17.5481 11.0135 19.0746 12.1612 18.9144 13.8718C18.9055 13.9682 18.969 14.1107 19.0465 14.1704C20.2262 15.0829 20.221 16.6838 19.0248 17.5902C18.9154 17.6731 18.8343 17.7322 18.8599 17.9082C18.9829 18.7656 18.6824 19.4694 17.9743 19.9561C17.2738 20.4376 16.5213 20.4461 15.7667 20.0504C15.7178 20.0249 15.666 20.0039 15.5635 19.9568C15.4718 20.5012 15.3648 21.0137 15.3026 21.5313C15.0236 23.8533 15.2589 26.1231 16.0084 28.3412C16.0859 28.5706 16.1941 28.6297 16.4204 28.615C16.7526 28.5931 16.9423 28.6094 17.3095 28.6094C17.3095 28.9338 17.3177 29.3047 17.3177 29.6409C17.5949 29.6409 18.0667 29.6407 18.3467 29.6407C18.3467 29.3803 18.329 29.0897 18.329 29.0897C18.329 29.0897 18.405 29.0878 18.3538 29.0788C18.419 29.0949 18.3809 29.0651 18.3809 29.0651C18.3809 29.0651 18.4114 29.003 18.4185 29.0788C18.6725 29.0788 19.099 29.1006 19.3622 29.1006C19.3726 28.9609 19.3766 28.7537 19.3914 28.5553C21.7225 28.6039 23.8595 28.6408 26.1846 28.6892C26.2129 28.8241 26.1933 29.0394 26.216 29.1471C26.449 29.1471 26.9737 29.158 27.1485 29.158C27.1663 29.0566 27.1445 28.7377 27.1445 28.7377C27.1445 28.7377 27.1781 28.7426 27.235 28.7284" fill="#0065FB"/>
<path fill-rule="evenodd" clip-rule="evenodd" d="M28.4921 26.8648C28.3208 26.8797 28.1907 26.8632 28.0342 26.8766C28.0342 27.5389 28.0342 28.1898 28.0342 28.8407C28.0342 28.9555 28.0352 29.0706 28.0357 29.1854C28.0371 29.572 28.0534 29.476 27.6834 29.4893C27.4478 29.4975 27.3491 29.507 27.3533 29.2643C27.3666 28.479 27.3583 27.6932 27.3583 26.8835C27.2428 26.8835 27.1454 26.8835 27.0103 26.8835C27.0103 27.4808 27.0136 28.0728 27.007 28.6649C27.0058 28.7712 26.9798 28.961 26.938 28.9688C26.765 29.0018 26.5793 28.9931 26.4035 28.9655C26.3705 28.9605 26.3454 28.7994 26.3447 28.7098C26.3395 28.1066 26.3419 27.5037 26.3419 26.879C23.9551 26.879 21.5913 26.879 19.1908 26.879C19.1908 27.5814 19.1908 28.2758 19.1908 28.9617C19.1291 28.9813 19.1032 28.995 19.076 28.9974C18.5172 29.0524 18.5116 29.0437 18.517 28.4922C18.5222 27.9578 18.5182 27.4234 18.5182 26.8743C18.4003 26.8743 18.3192 26.8743 18.1999 26.8743C18.1999 27.446 18.1992 28.0086 18.2002 28.5709C18.2004 28.8013 18.1907 29.0326 18.2094 29.2615C18.2342 29.5634 18.0598 29.5698 17.832 29.5743C17.6015 29.5793 17.5105 29.5216 17.5162 29.2714C17.5322 28.5711 17.5223 27.8701 17.5214 27.1696C17.5214 27.076 17.5138 26.9825 17.5091 26.8752C17.4006 26.8641 17.3645 26.8674 17.1953 26.8646C17.1953 26.6581 17.2145 26.5428 17.2475 26.3937C17.6024 25.8805 18.0007 25.3737 18.0007 25.3737C18.0007 25.3737 18.5635 25.3792 19.0498 25.3792C21.9095 25.3792 24.7698 25.3823 27.6298 25.3737C27.7344 25.3733 27.8939 25.3737 27.8939 25.3737C27.8939 25.3737 28.017 25.5351 28.0624 25.6478C28.1819 25.9457 28.3374 26.2293 28.4631 26.5248C28.4983 26.6071 28.4822 26.7382 28.4921 26.8648Z" fill="#0065FB"/>
<path fill-rule="evenodd" clip-rule="evenodd" d="M27.8907 23.7632C27.8907 23.969 27.8907 24.0358 27.8907 24.2603C24.5948 24.2603 21.3053 24.2603 17.998 24.2603C17.998 24.0519 17.998 23.986 17.998 23.7632C21.294 23.7632 24.5844 23.7632 27.8907 23.7632Z" fill="#0065FB"/>
<path fill-rule="evenodd" clip-rule="evenodd" d="M27.8902 24.5701C27.8902 24.7894 27.8987 24.8855 27.8987 25.1201C27.798 25.1256 27.6976 25.1357 27.5977 25.1357C24.5007 25.1367 21.4078 25.1097 18.3103 25.1213C18.1785 25.1218 18.0072 25.1263 18.0072 25.1263C18.0072 25.1263 18.0001 25.0289 17.9987 24.8978C17.9973 24.7499 17.9987 24.5505 17.9987 24.5505C17.9987 24.5505 18.1877 24.55 18.3028 24.5505C21.3997 24.5616 24.4969 24.5566 27.5939 24.5566C27.6872 24.5569 27.7806 24.5649 27.8902 24.5701Z" fill="#0065FB"/>
<path fill-rule="evenodd" clip-rule="evenodd" d="M18.0325 22.8662C21.3256 22.8662 24.5948 22.8662 27.8862 22.8662C27.8862 23.0836 27.8843 23.2232 27.8843 23.4611C27.77 23.4611 27.6672 23.4611 27.5647 23.4611C24.5327 23.4609 21.5009 23.4611 18.4689 23.4607C18.2163 23.4607 18.0252 23.4611 18.0252 23.4611C18.0252 23.4611 18.0155 23.214 18.0325 22.8662Z" fill="#0065FB"/>
</svg>
