<svg width="40" height="50" viewBox="0 0 40 50" fill="none" xmlns="http://www.w3.org/2000/svg">
<path d="M39.9191 22.6855C38.6851 36.9174 27.4298 45.9886 22.6275 49.1941C21.8526 49.7194 20.9396 50 20.0054 50C19.0712 50 18.1582 49.7194 17.3833 49.1941C12.1558 45.6613 1.00165e-05 35.7678 1.00165e-05 20.1597L39.9191 22.6855ZM39.9191 22.6855C40.1696 19.8086 39.837 16.9105 38.9412 14.1669M39.9191 22.6855L38.9412 14.1669M38.9412 14.1669C38.0455 11.4233 36.6054 8.89148 34.7082 6.72493L38.9412 14.1669ZM34.3299 7.05185L34.3321 7.05433C36.1847 9.16998 37.5911 11.6425 38.4659 14.3221C39.3408 17.0017 39.6657 19.8323 39.4209 22.6421L39.4209 22.6423C38.2078 36.6342 27.1257 45.5904 22.3499 48.7783L22.3469 48.7803C21.6547 49.2495 20.8394 49.5 20.0054 49.5C19.1714 49.5 18.3561 49.2495 17.6639 48.7803L17.6633 48.7799C12.458 45.2621 0.50001 35.4992 0.50001 20.1597L0.50001 20.1592C0.497388 17.5215 1.02261 14.9104 2.04426 12.4816C3.0659 10.0528 4.563 7.8562 6.44608 6.02274C8.32916 4.18928 10.5596 2.7565 13.0044 1.80969C15.4492 0.862883 18.0582 0.421388 20.676 0.511464L20.6764 0.511477C23.2763 0.598927 25.8304 1.22473 28.1795 2.34994C30.5286 3.47515 32.6223 5.07569 34.3299 7.05185Z" fill="white" stroke="#DBDBDB"/>
<path d="M29.4735 28.0049L21.6311 20.1625L12.4686 11H11.7525L11.6063 11.3715C11.2204 12.3521 11.0556 13.3551 11.1296 14.2719C11.2139 15.3169 11.6109 16.2216 12.2777 16.8884L19.4304 24.0411L20.3739 23.0977L26.9866 30.4919C27.6444 31.1497 28.7766 31.1888 29.4735 30.4919C30.1592 29.8062 30.1592 28.6906 29.4735 28.0049Z" fill="#0065FB"/>
<path d="M16.1162 22.3848L10.5142 27.9868C9.82859 28.6724 9.82859 29.788 10.5142 30.4737C11.1655 31.125 12.2923 31.1825 13.0011 30.4737L18.6032 24.8716L16.1162 22.3848Z" fill="#0065FB"/>
<path d="M29.1445 14.3306L25.9667 17.5083L25.1377 16.6793L28.3155 13.5016L27.4865 12.6726L24.3087 15.8503L23.4798 15.0213L26.6575 11.8436L25.8286 11.0146L21.6837 15.1596C21.1766 15.6666 20.8738 16.3399 20.831 17.0555C20.8202 17.2368 20.7791 17.4151 20.7109 17.5847L23.4035 20.2772C23.5731 20.209 23.7514 20.1679 23.9327 20.1571C24.6482 20.1144 25.3215 19.8116 25.8286 19.3045L29.9735 15.1596L29.1445 14.3306Z" fill="#0065FB"/>
</svg>
