<svg width="40" height="50" viewBox="0 0 40 50" fill="none" xmlns="http://www.w3.org/2000/svg">
<path d="M39.9191 22.6855C38.6851 36.9174 27.4298 45.9886 22.6275 49.1941C21.8526 49.7194 20.9396 50 20.0054 50C19.0712 50 18.1582 49.7194 17.3833 49.1941C12.1558 45.6613 1.00165e-05 35.7678 1.00165e-05 20.1597L39.9191 22.6855ZM39.9191 22.6855C40.1696 19.8086 39.837 16.9105 38.9412 14.1669M39.9191 22.6855L38.9412 14.1669M38.9412 14.1669C38.0455 11.4233 36.6054 8.89148 34.7082 6.72493L38.9412 14.1669ZM34.3299 7.05185L34.3321 7.05433C36.1847 9.16998 37.5911 11.6425 38.4659 14.3221C39.3408 17.0017 39.6657 19.8323 39.4209 22.6421L39.4209 22.6423C38.2078 36.6342 27.1257 45.5904 22.3499 48.7783L22.3469 48.7803C21.6547 49.2495 20.8394 49.5 20.0054 49.5C19.1714 49.5 18.3561 49.2495 17.6639 48.7803L17.6633 48.7799C12.458 45.2621 0.50001 35.4992 0.50001 20.1597L0.50001 20.1592C0.497388 17.5215 1.02261 14.9104 2.04426 12.4816C3.0659 10.0528 4.563 7.8562 6.44608 6.02274C8.32916 4.18928 10.5596 2.7565 13.0044 1.80969C15.4492 0.862883 18.0582 0.421388 20.676 0.511464L20.6764 0.511477C23.2763 0.598927 25.8304 1.22473 28.1795 2.34994C30.5286 3.47515 32.6223 5.07569 34.3299 7.05185Z" fill="white" stroke="#DBDBDB"/>
<path d="M29.6448 17.1437L27.9909 15.4899L29.2342 14.2471C29.3441 14.1373 29.4059 13.9885 29.4059 13.8329C29.4059 13.6773 29.3441 13.5285 29.2342 13.4186L27.5697 11.7541C27.35 11.5344 26.9609 11.5344 26.7411 11.7541L25.4984 12.9974L23.8443 11.3432C23.3867 10.8856 22.6447 10.8856 22.187 11.3432C21.7293 11.8008 21.7293 12.5428 22.187 13.0005L27.9875 18.801C28.4452 19.2586 29.1872 19.2586 29.6448 18.801C30.1024 18.3434 30.1024 17.6014 29.6448 17.1437Z" fill="#0065FB"/>
<path d="M17.801 28.9992L12.0005 23.1987C11.5428 22.7411 10.8009 22.7411 10.3432 23.1987C9.8856 23.6564 9.8856 24.3984 10.3432 24.856L11.9973 26.5101L10.7565 27.7504C10.6466 27.8603 10.5848 28.009 10.5848 28.1647C10.5848 28.3203 10.6466 28.4691 10.7565 28.5789L12.421 30.2429C12.5354 30.3574 12.6854 30.4146 12.8353 30.4146C12.9852 30.4146 13.1351 30.3574 13.2495 30.2429L14.4899 29.0026L16.1437 30.6565C16.6013 31.1141 17.3433 31.1141 17.801 30.6565C18.2587 30.1988 18.2587 29.4568 17.801 28.9992Z" fill="#0065FB"/>
<path d="M20.5299 17.9727L16.9727 21.542L19.4586 24.028L23.0159 20.4585L20.5299 17.9727Z" fill="#0065FB"/>
<path d="M27.9866 20.4582L20.5289 13.0004C20.0712 12.5428 19.3292 12.5428 18.8716 13.0004C18.4139 13.4581 18.4139 14.2001 18.8716 14.6577L26.3294 22.1155C26.787 22.5732 27.529 22.5732 27.9866 22.1155C28.4443 21.6579 28.4443 20.9159 27.9866 20.4582Z" fill="#0065FB"/>
<path d="M21.1146 27.342L13.6568 19.8842C13.1991 19.4266 12.4571 19.4266 11.9995 19.8842C11.5418 20.3419 11.5418 21.0839 11.9995 21.5415L19.4573 28.9993C19.9149 29.4569 20.6569 29.4569 21.1146 28.9993C21.5723 28.5417 21.5723 27.7997 21.1146 27.342Z" fill="#0065FB"/>
</svg>
