<svg width="46" height="46" viewBox="0 0 46 46" fill="none" xmlns="http://www.w3.org/2000/svg">
<path d="M7.06223 16.0354H0V30.3107H7.06223H14.1245V16.0354H7.06223C7.10779 16.0354 7.10779 16.0354 7.06223 16.0354ZM1.00237 16.9932H3.59945C2.50595 17.6317 1.64025 18.5438 1.00237 19.5928V16.9932ZM1.00237 29.353V26.7533C1.64025 27.8479 2.50595 28.7601 3.59945 29.353H1.00237ZM13.1676 29.353H10.6161C11.7096 28.7144 12.5753 27.8023 13.2132 26.7533V29.353H13.1676ZM7.10778 29.353C3.73613 29.353 1.00237 26.5709 1.00237 23.1959C1.00237 19.7753 3.73613 17.0388 7.10778 17.0388C10.4794 17.0388 13.2132 19.8209 13.2132 23.1959C13.1676 26.5709 10.4339 29.353 7.10778 29.353ZM13.1676 16.9932V19.5928C12.5298 18.4982 11.6641 17.5861 10.5705 16.9932H13.1676Z" fill="#DBDBDB"/>
<path d="M22.8259 16.0354H15.7637V30.3107H22.8259H29.8881V16.0354H22.8259ZM16.7205 16.9932H19.3176C18.2241 17.6317 17.3584 18.5438 16.7205 19.5928V16.9932ZM16.7205 29.353V26.7533C17.3584 27.8479 18.2241 28.7601 19.3176 29.353H16.7205ZM28.9313 29.353H26.3342C27.4277 28.7144 28.2934 27.8023 28.9313 26.7533V29.353ZM22.8259 29.353C19.4543 29.353 16.7205 26.5709 16.7205 23.1959C16.7205 19.7753 19.4543 17.0388 22.8259 17.0388C26.1975 17.0388 28.9313 19.8209 28.9313 23.1959C28.9313 26.5709 26.1975 29.353 22.8259 29.353ZM28.9313 16.9932V19.5928C28.2934 18.4982 27.4277 17.5861 26.3342 16.9932H28.9313Z" fill="#DBDBDB"/>
<path d="M38.5466 16.0354H31.4844V30.3107H38.5466H45.6088V16.0354H38.5466ZM32.4412 16.9932H35.0383C33.9448 17.6317 33.0791 18.5438 32.4412 19.5928V16.9932ZM32.4412 29.353V26.7533C33.0791 27.8479 33.9448 28.7601 35.0383 29.353H32.4412ZM44.652 29.353H42.0549C43.1484 28.7144 44.0141 27.8023 44.652 26.7533V29.353ZM38.5466 29.353C35.175 29.353 32.4412 26.5709 32.4412 23.1959C32.4412 19.7753 35.175 17.0388 38.5466 17.0388C41.9182 17.0388 44.652 19.8209 44.652 23.1959C44.652 26.5709 41.9182 29.353 38.5466 29.353ZM44.652 16.9932V19.5928C44.0141 18.4982 43.1484 17.5861 42.0549 16.9932H44.652Z" fill="#DBDBDB"/>
<path d="M0.0449219 14.6216H14.1238V0.391846H0.0449219V14.6216ZM13.167 13.6638H10.6155C11.709 13.0253 12.5747 12.1131 13.2126 11.0641V13.6638H13.167ZM13.167 1.34962V3.94928C12.5291 2.85468 11.6634 1.94252 10.5699 1.34962H13.167ZM1.00174 1.34962H3.59882C2.50532 1.98813 1.63962 2.90029 1.00174 3.94928V1.34962ZM7.0616 1.34962C10.4332 1.34962 13.167 4.13171 13.167 7.50671C13.167 10.9273 10.4332 13.6638 7.0616 13.6638C3.68995 13.6638 0.956177 10.8817 0.956177 7.50671C1.00174 4.0861 3.73552 1.34962 7.0616 1.34962ZM1.00174 11.0641C1.63962 12.1587 2.50532 13.0709 3.59882 13.6638H1.00174V11.0641Z" fill="#DBDBDB"/>
<path d="M15.7637 14.6216H29.8426V0.391846H15.7637V14.6216ZM28.9313 13.6638H26.3342C27.4277 13.0253 28.2934 12.1131 28.9313 11.0641V13.6638ZM28.9313 1.34962V3.94928C28.2934 2.85468 27.4277 1.94252 26.3342 1.34962H28.9313ZM16.7205 1.34962H19.3176C18.2241 1.98813 17.3584 2.90029 16.7205 3.94928V1.34962ZM22.8259 1.34962C26.1975 1.34962 28.9313 4.13171 28.9313 7.50671C28.9313 10.9273 26.1975 13.6638 22.8259 13.6638C19.4543 13.6638 16.7205 10.8817 16.7205 7.50671C16.7205 4.0861 19.4543 1.34962 22.8259 1.34962ZM16.7205 11.0641C17.3584 12.1587 18.2241 13.0709 19.3176 13.6638H16.7205V11.0641Z" fill="#DBDBDB"/>
<path d="M31.4844 0.391846V14.6672H45.5633V0.391846H31.4844ZM32.4412 1.34962H35.0383C33.9448 1.98813 33.0791 2.90029 32.4412 3.94928V1.34962ZM32.4412 13.6638V11.0641C33.0791 12.1587 33.9448 13.0709 35.0383 13.6638H32.4412ZM44.652 13.6638H42.0549C43.1484 13.0253 44.0141 12.1131 44.652 11.0641V13.6638ZM38.5466 13.6638C35.175 13.6638 32.4412 10.8817 32.4412 7.50671C32.4412 4.0861 35.175 1.34962 38.5466 1.34962C41.9182 1.34962 44.652 4.13171 44.652 7.50671C44.652 10.8817 41.9182 13.6638 38.5466 13.6638ZM44.652 3.94928C44.0141 2.85468 43.1484 1.94252 42.0549 1.34962H44.652V3.94928Z" fill="#DBDBDB"/>
<path d="M0.0449219 45.9999H14.1238V31.7246H0.0449219V45.9999ZM13.167 45.0422H10.6155C11.709 44.4037 12.5747 43.4915 13.2126 42.4425V45.0422H13.167ZM13.167 32.6824V35.282C12.5291 34.1874 11.6634 33.2753 10.5699 32.6824H13.167ZM1.00174 32.6824H3.59882C2.50532 33.3209 1.63962 34.2331 1.00174 35.282V32.6824ZM7.0616 32.6824C10.4332 32.6824 13.167 35.4645 13.167 38.8395C13.167 42.2601 10.4332 44.9966 7.0616 44.9966C3.68995 44.9966 0.956177 42.2145 0.956177 38.8395C1.00174 35.4645 3.73552 32.6824 7.0616 32.6824ZM1.00174 42.3969C1.63962 43.4915 2.50532 44.4037 3.59882 44.9966H1.00174V42.3969Z" fill="#DBDBDB"/>
<path d="M15.7637 45.9999H29.8426V31.7246H15.7637V45.9999ZM28.9313 45.0422H26.3342C27.4277 44.4037 28.2934 43.4915 28.9313 42.4425V45.0422ZM28.9313 32.6824V35.282C28.2934 34.1874 27.4277 33.2753 26.3342 32.6824H28.9313ZM16.7205 32.6824H19.3176C18.2241 33.3209 17.3584 34.2331 16.7205 35.282V32.6824ZM22.8259 32.6824C26.1975 32.6824 28.9313 35.4645 28.9313 38.8395C28.9313 42.2601 26.1975 44.9966 22.8259 44.9966C19.4543 44.9966 16.7205 42.2145 16.7205 38.8395C16.7205 35.4645 19.4543 32.6824 22.8259 32.6824ZM16.7205 42.3969C17.3584 43.4915 18.2241 44.4037 19.3176 44.9966H16.7205V42.3969Z" fill="#DBDBDB"/>
<path d="M31.4844 45.9999H45.5633V31.7246H31.4844V45.9999ZM44.652 45.0422H42.0549C43.1484 44.4037 44.0141 43.4915 44.652 42.4425V45.0422ZM44.652 32.6824V35.282C44.0141 34.1874 43.1484 33.2753 42.0549 32.6824H44.652ZM32.4412 32.6824H35.0383C33.9448 33.3209 33.0791 34.2331 32.4412 35.282V32.6824ZM38.5466 32.6824C41.9182 32.6824 44.652 35.4645 44.652 38.8395C44.652 42.2601 41.9182 44.9966 38.5466 44.9966C35.175 44.9966 32.4412 42.2145 32.4412 38.8395C32.4412 35.4645 35.175 32.6824 38.5466 32.6824ZM32.4412 42.3969C33.0791 43.4915 33.9448 44.4037 35.0383 44.9966H32.4412V42.3969Z" fill="#DBDBDB"/>
</svg>
