<svg width="46" height="46" viewBox="0 0 46 46" fill="none" xmlns="http://www.w3.org/2000/svg">
<path d="M0 0V45.6081H45.6081V0H0ZM43.9662 0.957773L38.5389 6.38514H7.06926L1.64189 0.957773H43.9662ZM38.2652 7.34291V38.2652H7.34291V7.34291H38.2652ZM0.95777 1.64189L6.38514 7.06926V38.5845L0.95777 44.0118V1.64189ZM1.64189 44.6503L7.06926 39.223H38.5845L44.0118 44.6503H1.64189ZM44.6503 43.9662L39.223 38.5389V7.02365L44.6503 1.59628V43.9662Z" fill="#DBDBDB"/>
<path d="M22.8036 34.9358C29.508 34.9358 34.9354 29.5084 34.9354 22.804C34.9354 16.0996 29.508 10.6722 22.8036 10.6722C16.0992 10.6722 10.6719 16.0996 10.6719 22.804C10.6719 29.4628 16.0992 34.9358 22.8036 34.9358ZM22.8036 11.63C28.9607 11.63 33.9776 16.6469 33.9776 22.804C33.9776 28.9611 28.9607 33.978 22.8036 33.978C16.6465 33.978 11.6296 28.9611 11.6296 22.804C11.6296 16.6469 16.6465 11.63 22.8036 11.63Z" fill="#DBDBDB"/>
</svg>
