<svg width="50" height="50" viewBox="0 0 50 50" fill="none" xmlns="http://www.w3.org/2000/svg">
<path d="M0 0V50H50V0H0ZM1.05 1.05H24.35L1.10001 24.3V1.05H1.05ZM1.05 48.95V25.7L24.3 48.95H1.05ZM24.5 47.65L1.85001 25L24.5 2.35001V47.65ZM25.55 1.05H33C29.65 2.25 26.95 4.8 25.55 8V1.05ZM48.95 48.95H25.5V18.1C27.45 22.65 31.95 25.8 37.2 25.8C42.45 25.8 46.95 22.6 48.9 18.1V48.95H48.95ZM37.25 24.8C30.8 24.8 25.55 19.55 25.55 13.1C25.55 6.65001 30.8 1.40001 37.25 1.40001C43.7 1.40001 48.95 6.65001 48.95 13.1C48.95 19.55 43.7 24.8 37.25 24.8ZM48.95 8C47.55 4.75 44.85 2.25 41.5 1.05H48.95V8Z" fill="#DBDBDB"/>
<path d="M31.5723 42.9767H42.8398V31.6975H31.5723V42.9767ZM32.6239 32.7502H41.7881V41.924H32.6239V32.7502Z" fill="#DBDBDB"/>
</svg>
