<svg width="47" height="47" viewBox="0 0 47 47" fill="none" xmlns="http://www.w3.org/2000/svg">
<path d="M46.3054 0.695923H0.697266V46.304H46.3054V0.695923ZM39.7834 33.4882C38.552 35.4949 36.9557 37.2736 35.0858 38.6875V8.31248C36.9557 9.72633 38.552 11.505 39.7834 13.5118V33.4882ZM40.6956 15.1537C41.927 17.6621 42.6111 20.4898 42.6111 23.5C42.6111 26.5101 41.927 29.3378 40.6956 31.8463V15.1537ZM29.5216 5.34796C31.2091 5.89525 32.7598 6.67059 34.2192 7.67397V39.326C32.8054 40.2838 31.2091 41.1047 29.5216 41.652V5.34796ZM28.655 41.9257C27.0131 42.3817 25.28 42.6098 23.5013 42.6098C12.9658 42.6098 4.39153 34.0354 4.39153 23.5C4.39153 12.9645 12.9658 4.39018 23.5013 4.39018C25.28 4.39018 27.0131 4.61822 28.655 5.0743V41.9257ZM29.5216 4.34457V1.6537H34.2192V6.53377C32.7598 5.62161 31.2091 4.89187 29.5216 4.34457ZM34.2192 40.4662V45.3463H29.5216V42.6554C31.2091 42.1081 32.7598 41.3784 34.2192 40.4662ZM35.1314 39.8733C36.9557 38.5963 38.5064 37 39.829 35.2213V45.3919H35.1314V39.8733ZM35.1314 7.17228V1.69931H39.829V11.8699C38.5064 9.99998 36.9101 8.44931 35.1314 7.17228ZM1.65504 1.6537H28.655V4.11653C27.0131 3.66045 25.28 3.43241 23.5013 3.43241C12.4186 3.43241 3.43375 12.4172 3.43375 23.5C3.43375 34.5827 12.4186 43.5675 23.5013 43.5675C25.28 43.5675 27.0131 43.3395 28.655 42.8834V45.3463H1.65504V1.6537ZM45.3476 45.3463H40.6956V33.853C42.5199 30.8429 43.5689 27.2854 43.5689 23.5C43.5689 19.7145 42.5199 16.1571 40.6956 13.1469V1.6537H45.3476V45.3463Z" fill="#DBDBDB"/>
</svg>
