<svg width="46" height="46" viewBox="0 0 46 46" fill="none" xmlns="http://www.w3.org/2000/svg">
<path d="M0.392578 0.391846V46H46.0007V0.391846H0.392578ZM1.35035 45.0422V31.9983C8.46522 32.2263 14.1662 37.9729 14.3943 45.0422H1.35035ZM45.0885 45.0422H15.3976C15.1696 37.4256 9.01252 31.2685 1.39596 31.0405V1.34962H31.0868C31.2693 9.01178 37.4264 15.2145 45.0885 15.4881V45.0422ZM45.0885 14.4848C37.9737 14.2567 32.227 8.46448 32.0446 1.30401H45.0885V14.4848Z" fill="#DBDBDB"/>
<path d="M23.1967 7.36987C15.2153 7.36987 8.69336 13.8918 8.69336 21.8733C8.69336 29.8547 15.2153 36.3766 23.1967 36.3766C31.1782 36.3766 37.7001 29.8547 37.7001 21.8733C37.7001 13.8918 31.2238 7.36987 23.1967 7.36987ZM23.1967 35.4645C15.717 35.4645 9.65112 29.3986 9.65112 21.9188C9.65112 14.4391 15.717 8.37323 23.1967 8.37323C30.6765 8.37323 36.7424 14.4391 36.7424 21.9188C36.788 29.353 30.6765 35.4645 23.1967 35.4645Z" fill="#DBDBDB"/>
</svg>
