<svg width="50" height="50" viewBox="0 0 50 50" fill="none" xmlns="http://www.w3.org/2000/svg">
<path d="M25.5 0H0V25.5V50H25.5H50V25.5V0H25.5ZM24.45 11.4H11.4V24.45H1.05C1.35 11.65 11.7 1.3 24.45 1.05V11.4ZM37.5 24.45H25.5V12.45H37.5V24.45ZM12.4 25.5H24.4V37.5H12.4V25.5ZM25.5 25.5H37.5V37.5H25.5V25.5ZM24.45 24.45H12.45V12.45H24.45V24.45ZM11.35 25.5V38.55H24.4V48.9C11.6 48.6 1.25 38.25 1 25.5H11.35ZM25.5 38.55H38.55V25.5H48.9C48.6 38.3 38.25 48.65 25.5 48.9V38.55ZM38.55 24.45V11.4H25.5V1.05C38.3 1.35 48.65 11.7 48.9 24.45H38.55ZM1 1.05H17.8C9.75 3.45 3.4 9.8 1 17.85V1.05ZM1 48.95V32.15C3.4 40.2 9.75 46.55 17.8 48.95H1ZM32.1 48.95C40.15 46.55 46.5 40.2 48.9 32.15V48.95H32.1ZM32.1 1.05H48.9V17.85C46.5 9.8 40.15 3.45 32.1 1.05Z" fill="#DBDBDB"/>
</svg>
