<svg width="50" height="50" viewBox="0 0 50 50" fill="none" xmlns="http://www.w3.org/2000/svg">
<path d="M30.6 50L4.5 50L-2.18557e-06 50L0 0L50 2.18557e-06L50 50L30.6 50ZM29.55 35.15C26.15 35.05 23 33.85 20.5 31.95L6.69999 49L29.55 49L29.55 35.15ZM15.2 19.3C15.2 23.75 17.2 27.8 20.35 30.5L24.15 25.8C22.4 24.2 21.25 21.85 21.25 19.3C21.25 14.4 25.2 10.45 30.1 10.45C35 10.45 38.95 14.4 38.95 19.3C38.95 24 35.25 27.85 30.65 28.1L30.65 34.15C38.6 33.85 45 27.35 45 19.3C45 11.1 38.35 4.4 30.1 4.4C21.85 4.39999 15.2 11.05 15.2 19.3ZM30.6 17.8L30.6 27.05C34.65 26.8 37.85 23.4 37.85 19.3C37.85 15 34.35 11.5 30.05 11.5C25.75 11.5 22.25 15 22.25 19.3C22.25 21.55 23.2 23.6 24.75 25L30.6 17.8ZM25.6 25.65C26.75 26.45 28.1 26.95 29.55 27.05L29.55 20.75L25.6 25.65ZM29.55 28.1C27.85 28 26.25 27.4 24.95 26.45L21.15 31.15C23.5 32.95 26.4 34 29.55 34.15L29.55 28.1ZM48.95 1.05001L1.05 1.05L1.05 48.95L5.35 48.95L19.65 31.25C16.3 28.35 14.15 24.05 14.15 19.25C14.15 10.45 21.3 3.35001 30.05 3.35001C38.85 3.35001 45.95 10.5 45.95 19.25C45.95 27.85 39.1 34.85 30.55 35.15L30.55 48.95L48.9 48.95L48.9 1.05001L48.95 1.05001Z" fill="#DBDBDB"/>
</svg>
