<svg width="50" height="50" viewBox="0 0 50 50" xmlns="http://www.w3.org/2000/svg">
  <path d="M25.5 0H0v50h50V0H25.5zm-1.05 11.4H11.4v13.05H1.05c.3-12.8 10.65-23.15 23.4-23.4V11.4zM37.5 24.45h-12v-12h12v12zM12.4 25.5h12v12h-12v-12zm13.1 0h12v12h-12v-12zm-1.05-1.05h-12v-12h12v12zm-13.1 1.05v13.05H24.4V48.9C11.6 48.6 1.25 38.25 1 25.5h10.35zM25.5 38.55h13.05V25.5H48.9c-.3 12.8-10.65 23.15-23.4 23.4V38.55zm13.05-14.1V11.4H25.5V1.05c12.8.3 23.15 10.65 23.4 23.4H38.55zM1 1.05h16.8C9.75 3.45 3.4 9.8 1 17.85V1.05zm0 47.9v-16.8c2.4 8.05 8.75 14.4 16.8 16.8H1zm31.1 0c8.05-2.4 14.4-8.75 16.8-16.8v16.8H32.1zm0-47.9h16.8v16.8c-2.4-8.05-8.75-14.4-16.8-16.8z" />
</svg>
