<svg width="50" height="50" viewBox="0 0 50 50" fill="none" xmlns="http://www.w3.org/2000/svg">
<path d="M0 0V50H50V0H0ZM20.25 20.3C20.55 20.3 20.85 20.25 21.2 20.25C23.7 20.25 26.05 20.9 28.1 22.05C26.55 24.95 24.05 27.3 21.05 28.6C20.35 26.95 20 25.1 20 23.2C20 22.2 20.1 21.2 20.25 20.3ZM20.05 28.95C18.6 29.45 17.05 29.75 15.4 29.75C12.9 29.75 10.55 29.1 8.5 27.95C10.6 23.95 14.55 21.05 19.2 20.4C19.05 21.3 18.95 22.25 18.95 23.2C18.95 25.2 19.35 27.15 20.05 28.95ZM15.4 30.75C17.2 30.75 18.9 30.45 20.5 29.85C23 35 28.25 38.55 34.35 38.55C34.55 38.55 34.8 38.55 35 38.5C33.3 44.5 27.75 48.9 21.2 48.9C13.3 48.9 6.85001 42.45 6.85001 34.55C6.85001 32.5 7.30002 30.6 8.05002 28.85C10.25 30.1 12.75 30.75 15.4 30.75ZM34.35 37.55C28.7 37.55 23.85 34.25 21.5 29.55C24.75 28.15 27.4 25.7 29.05 22.6C33 25.15 35.6 29.6 35.6 34.65C35.6 35.65 35.5 36.6 35.3 37.55C34.95 37.5 34.65 37.55 34.35 37.55ZM29.45 21.6C30.3 19.7 30.8 17.6 30.8 15.35C30.8 13.3 30.4 11.4 29.7 9.59999C31.15 9.09999 32.75 8.80001 34.35 8.80001C42.25 8.80001 48.7 15.25 48.7 23.15C48.7 30.4 43.3 36.35 36.35 37.35C36.5 36.45 36.6 35.5 36.6 34.55C36.6 29.15 33.75 24.35 29.45 21.6ZM29.75 15.35C29.75 17.35 29.3 19.3 28.55 21.05C26.35 19.85 23.85 19.15 21.2 19.15C21 19.15 20.75 19.15 20.55 19.2C21.75 15.05 24.75 11.65 28.7 9.95C29.35 11.65 29.75 13.45 29.75 15.35ZM19.45 19.3C14.3 19.9 9.95001 23 7.60001 27.4C3.65001 24.85 1.05 20.4 1.05 15.4C1.05 7.50001 7.49999 1.05 15.4 1.05C21.05 1.05 25.9 4.35 28.25 9.05001C23.95 10.9 20.65 14.7 19.45 19.3ZM9.85001 1.05C5.80001 2.6 2.6 5.79999 1.05 9.84999V1.05H9.85001ZM1.05 48.95V20.9C2.25 24 4.39999 26.6 7.14999 28.35C6.29999 30.25 5.80002 32.35 5.80002 34.6C5.80002 41.15 9.89999 46.7 15.65 48.95H1.05ZM26.75 48.95C31.35 47.2 34.85 43.3 36.1 38.5C42.15 37.8 47.15 33.6 49 27.95V48.95H26.75ZM48.95 1.05V18.45C46.95 12.3 41.15 7.80001 34.3 7.80001C32.5 7.80001 30.8 8.1 29.2 8.7C27.5 5.2 24.55 2.45 20.9 1.05H48.95Z" fill="black" fill-opacity="0.25"/>
</svg>
