<svg width="50" height="50" viewBox="0 0 50 50" fill="none" xmlns="http://www.w3.org/2000/svg">
<path d="M50 50V0H0V50H50ZM44 2.20001C42.2 5.10001 38.85 10.55 38.85 16.85C38.85 19.6 40.45 22.5 41.95 25.25C43.4 27.9 44.95 30.65 44.95 33.15C44.95 37.6 43.45 39.45 41.9 41.45C40.45 43.25 39 45.15 38.9 48.95H34.8C34.9 45.45 35.75 43.75 36.7 42C37.75 40 38.85 37.9 38.85 33.15C38.85 30.45 37.8 27.6 36.8 24.85C35.8 22.15 34.8 19.4 34.8 16.85C34.8 10.75 37 5.45001 38.15 2.60001C38.45 1.85001 38.65 1.35 38.75 1.05H44.75C44.5 1.35 44.25 1.75001 44 2.20001ZM37.2 2.25C36 5.15 33.8 10.55 33.8 16.85C33.8 19.55 34.85 22.4 35.85 25.2C36.85 27.9 37.85 30.65 37.85 33.2C37.85 37.7 36.8 39.65 35.8 41.6C34.85 43.4 33.9 45.25 33.8 49H29.65C29.7 45.45 30.15 43.75 30.6 41.95C31.1 39.95 31.65 37.9 31.65 33.2C31.65 30.55 31.15 27.7 30.65 24.95C30.15 22.25 29.65 19.45 29.65 16.85C29.65 10.7 30.75 5.4 31.35 2.55C31.5 1.85 31.6 1.4 31.65 1.05H37.7C37.55 1.4 37.35 1.8 37.2 2.25ZM30.35 2.35001C29.75 5.25001 28.65 10.6 28.65 16.85C28.65 19.5 29.15 22.35 29.65 25.1C30.15 27.8 30.65 30.6 30.65 33.15C30.65 37.7 30.1 39.7 29.6 41.65C29.15 43.45 28.65 45.3 28.6 48.95H25.4V1.05H30.6C30.55 1.4 30.45 1.85001 30.35 2.35001ZM24.5 48.95H21.35C21.3 45.25 20.85 43.4 20.35 41.65C19.85 39.7 19.3 37.7 19.3 33.15C19.3 30.55 19.8 27.8 20.3 25.1C20.8 22.35 21.3 19.5 21.3 16.85C21.3 10.6 20.2 5.25001 19.6 2.35001C19.5 1.85001 19.4 1.4 19.35 1.05H24.45V48.95H24.5ZM18.7 2.55C19.3 5.4 20.4 10.7 20.4 16.85C20.4 19.45 19.9 22.25 19.4 24.95C18.9 27.7 18.4 30.5 18.4 33.2C18.4 37.85 18.95 39.95 19.45 41.95C19.9 43.75 20.35 45.45 20.4 49H16.25C16.15 45.25 15.2 43.4 14.25 41.6C13.25 39.7 12.2 37.7 12.2 33.2C12.2 30.65 13.2 27.9 14.2 25.2C15.2 22.45 16.25 19.6 16.25 16.85C16.25 10.55 14.05 5.15 12.85 2.25C12.65 1.8 12.5 1.4 12.35 1.05H18.4C18.45 1.4 18.55 1.85 18.7 2.55ZM11.9 2.60001C13.05 5.45001 15.25 10.75 15.25 16.85C15.25 19.4 14.25 22.15 13.25 24.85C12.25 27.6 11.2 30.45 11.2 33.15C11.2 37.9 12.3 39.95 13.35 42C14.3 43.75 15.15 45.45 15.25 48.95H11.1C10.95 45.15 9.50001 43.3 8.10001 41.45C6.55001 39.45 5.05 37.6 5.05 33.15C5.05 30.65 6.55 27.9 8.05 25.25C9.6 22.45 11.15 19.6 11.15 16.85C11.15 10.5 7.8 5.10001 6 2.20001C5.75 1.80001 5.5 1.40001 5.3 1.10001H11.3C11.4 1.40001 11.6 1.85001 11.9 2.60001ZM48.95 48.95H39.85C39.95 45.5 41.25 43.85 42.65 42.05C44.25 40 45.9 37.9 45.9 33.15C45.9 30.4 44.3 27.55 42.8 24.75C41.35 22.1 39.8 19.3 39.8 16.8C39.8 10.75 43.05 5.50001 44.8 2.65001C45.3 1.85001 45.6 1.35 45.75 1H48.9V48.95H48.95ZM1.05 1.05H4.20001C4.35001 1.4 4.65001 1.90001 5.15001 2.70001C6.90001 5.55001 10.15 10.8 10.15 16.85C10.15 19.35 8.65001 22.1 7.15001 24.8C5.65001 27.55 4.05 30.45 4.05 33.2C4.05 37.95 5.7 40.1 7.3 42.1C8.7 43.85 10 45.55 10.1 49H1V1.05H1.05Z" fill="black" fill-opacity="0.25"/>
</svg>
