<svg width="50" height="50" viewBox="0 0 50 50" fill="none" xmlns="http://www.w3.org/2000/svg">
<path d="M50 0H0V50H50V0ZM49 32.85L41.05 24.95L48.95 17.05V32.85H49ZM49 15.55L39.6 24.95L49 34.35V40.75L33.2 24.95L49 9.15V15.55ZM49 7.7L31.7 24.95L48.95 42.2V48.15L25.75 25L48.95 1.8V7.7H49ZM24.9 39.65L15.65 48.95H9.25L24.95 33.25L40.65 48.95H34.25L24.9 39.65ZM32.75 48.95H17.1L24.9 41.15L32.75 48.95ZM24.9 31.75L7.7 48.95H1.8L25 25.75L48.25 48.95H42.1L24.9 31.75ZM1.05 34.2L10.35 24.9L1.05 15.6V9.15L16.75 24.85L1.05 40.55V34.2ZM1.05 32.7V17.05L8.85001 24.85L1.05 32.7ZM1.05 42.05L18.25 24.85L1.05 7.65V1.75L24.25 24.95L1.05 48.15V42.05ZM25.1 10.3L34.4 1H40.8L25.1 16.7L9.39999 1H15.8L25.1 10.3ZM17.3 1.05H32.95L25.15 8.85L17.3 1.05ZM25.15 18.2L42.35 1H48.25L25.05 24.2L1.85001 1H8L25.15 18.2Z" fill="black" fill-opacity="0.25"/>
</svg>
