<svg width="50" height="50" viewBox="0 0 50 50" fill="none" xmlns="http://www.w3.org/2000/svg">
<path d="M0 50H50V0H0V50ZM41.95 23.9L26.1 8.05H41.95V23.9ZM41.95 26.1V41.95H26.1L41.95 26.1ZM25 41.55L8.45001 25L25 8.45L41.55 25L25 41.55ZM8.05002 23.9V8.05H23.9L8.05002 23.9ZM23.9 41.95H8.05002V26.1L23.9 41.95ZM7.75 43H24.95L25 43.05L25.05 43H42.25L48.2 48.95H1.75L7.75 43ZM43 42.25V25.05L43.05 25L43 24.95V7.75L48.95 1.8V48.25L43 42.25ZM42.25 7H25.05L25 6.95L24.95 7H7.75L1.8 1.05H48.25L42.25 7ZM7 7.75V24.95L6.95001 25L7 25.05V42.25L1.05 48.2V1.75L7 7.75Z" fill="black" fill-opacity="0.25"/>
</svg>
