<svg width="50" height="50" viewBox="0 0 50 50" fill="none" xmlns="http://www.w3.org/2000/svg">
<path d="M50 0.550003V49.5V50H0V0H50V0.550003ZM46.65 7.35001L25.85 48.95H32.8L46.65 7.35001ZM33.9 48.95H41.5L48.05 6.55L33.9 48.95ZM45.25 7.8L17.8 48.95H24.7L45.25 7.8ZM43.6 8.40001L9.8 48.95H16.55L43.6 8.40001ZM41.7 9.05L1.8 48.95H8.45L41.7 9.05ZM3.35 42.65L24.15 1.05H17.2L3.35 42.65ZM16.1 1.05H8.5L1.95 43.45L16.1 1.05ZM4.75 42.2L32.2 1.05H25.35L4.75 42.2ZM6.4 41.6L40.2 1.05H33.45L6.4 41.6ZM8.3 40.95L48.2 1.05H41.55L8.3 40.95ZM48.95 7.35001L42.55 48.95H48.95V7.35001ZM1.05 42.65L7.45 1.05H1.05V42.65Z" fill-opacity="0.25"/>
</svg>
