<svg width="50" height="50" viewBox="0 0 50 50" xmlns="http://www.w3.org/2000/svg">
  <path d="M50 0H0v50h50V0zm-7.15 35.95c-1.35 2.2-3.1 4.15-5.15 5.7V8.35c2.05 1.55 3.8 3.5 5.15 5.7v21.9zm1-20.1c1.35 2.75 2.1 5.85 2.1 9.15 0 3.3-.75 6.4-2.1 9.15v-18.3zM31.6 5.1c1.85.6 3.55 1.45 5.15 2.55v34.7c-1.55 1.05-3.3 1.95-5.15 2.55V5.1zm-.95 40.1c-1.8.5-3.7.75-5.65.75-11.55 0-20.95-9.4-20.95-20.95 0-11.55 9.4-20.95 20.95-20.95 1.95 0 3.85.25 5.65.75v40.4zM31.6 4V1.05h5.15V6.4c-1.6-1-3.3-1.8-5.15-2.4zm5.15 39.6v5.35H31.6V46c1.85-.6 3.55-1.4 5.15-2.4zm1-.65c2-1.4 3.7-3.15 5.15-5.1V49h-5.15v-6.05zm0-35.85v-6h5.15v11.15c-1.45-2.05-3.2-3.75-5.15-5.15zM1.05 1.05h29.6v2.7C28.85 3.25 26.95 3 25 3 12.85 3 3 12.85 3 25s9.85 22 22 22c1.95 0 3.85-.25 5.65-.75v2.7H1.05V1.05zm47.9 47.9h-5.1v-12.6c2-3.3 3.15-7.2 3.15-11.35 0-4.15-1.15-8.05-3.15-11.35V1.05h5.1v47.9z" />
</svg>
