<svg width="50" height="50" viewBox="0 0 50 50" fill="none" xmlns="http://www.w3.org/2000/svg">
<path d="M0 0V50H50V0H0ZM48.2 1.05L42.25 7H7.75L1.8 1.05H48.2ZM41.95 8.05V41.95H8.05V8.05H41.95ZM1.05 1.8L7 7.75V42.3L1.05 48.25V1.8ZM1.8 48.95L7.75 43H42.3L48.25 48.95H1.8ZM48.95 48.2L43 42.25V7.7L48.95 1.75V48.2Z" fill="black" fill-opacity="0.25"/>
<path d="M24.9992 38.3C32.3492 38.3 38.2992 32.35 38.2992 24.9999C38.2992 17.6499 32.3492 11.7 24.9992 11.7C17.6492 11.7 11.6992 17.6499 11.6992 24.9999C11.6992 32.3 17.6492 38.3 24.9992 38.3ZM24.9992 12.7499C31.7492 12.7499 37.2492 18.2499 37.2492 24.9999C37.2492 31.75 31.7492 37.25 24.9992 37.25C18.2492 37.25 12.7492 31.75 12.7492 24.9999C12.7492 18.2499 18.2492 12.7499 24.9992 12.7499Z" fill="black" fill-opacity="0.25"/>
</svg>
