<svg width="50" height="50" viewBox="0 0 50 50" fill="none" xmlns="http://www.w3.org/2000/svg">
<path d="M32.65 0H17.4H16.35H0V16.3163V17.3674V32.6326V33.6837V50H16.3H17.35H32.6H33.65H50V33.6837V32.6326V17.3674V16.3163V0H33.7H32.65ZM32.65 46.2963L28.45 33.7337H32.65V46.2963ZM28.1 32.6326L23 17.3674H32.65V32.6326H28.1ZM17.35 3.75375L21.55 16.3163H17.35V3.75375ZM16.3 32.6326H11.75L6.65 17.3674H16.3V32.6326ZM16.3 33.6837V46.2462L12.1 33.6837H16.3ZM17.35 17.3674H21.9L27 32.6326H17.35V17.3674ZM33.7 17.3674H38.25L43.35 32.6326H33.7V17.3674ZM33.7 16.3163V3.75375L37.9 16.3163H33.7ZM32.65 16.3163H22.65L17.55 1.05105H32.6V16.3163H32.65ZM16.3 16.3163H6.3L1.2 1.05105H16.25V16.3163H16.3ZM1.05 3.75375L5.25 16.3163H1.05V3.75375ZM1.05 17.3674H5.6L10.7 32.6326H1.05V17.3674ZM1.05 33.6837H11.05L16.15 48.949H1.1V33.6837H1.05ZM17.35 33.6837H27.35L32.45 48.949H17.4V33.6837H17.35ZM33.7 33.6837H43.7L48.8 48.949H33.75V33.6837H33.7ZM48.95 46.2963L44.75 33.7337H48.95V46.2963ZM48.95 32.6326H44.4L39.3 17.3674H48.95V32.6326ZM48.95 16.3163H38.95L33.85 1.05105H48.9V16.3163H48.95Z" fill="black" fill-opacity="0.25"/>
</svg>
