<svg width="50" height="50" viewBox="0 0 50 50" xmlns="http://www.w3.org/2000/svg">
  <path d="M0 0v50h50V0H0zm1.05 1.05h23.3L1.1 24.3V1.05h-.05zm0 47.9V25.7L24.3 48.95H1.05zm23.45-1.3L1.85 25 24.5 2.35v45.3zm1.05-46.6H33C29.65 2.25 26.95 4.8 25.55 8V1.05zm23.4 47.9H25.5V18.1c1.95 4.55 6.45 7.7 11.7 7.7 5.25 0 9.75-3.2 11.7-7.7v30.85h.05zM37.25 24.8c-6.45 0-11.7-5.25-11.7-11.7 0-6.45 5.25-11.7 11.7-11.7 6.45 0 11.7 5.25 11.7 11.7 0 6.45-5.25 11.7-11.7 11.7zM48.95 8c-1.4-3.25-4.1-5.75-7.45-6.95h7.45V8z" />
  <path d="M31.572 42.977H42.84v-11.28H31.572v11.28zm1.052-10.227h9.164v9.174h-9.164V32.75z"/>
</svg>
