<svg width="50" height="50" viewBox="0 0 50 50" fill="none" xmlns="http://www.w3.org/2000/svg">
<path d="M50 16.05V0H0V50H50V16.6C50 16.5 50 16.4 50 16.35C50 16.25 50 16.15 50 16.05ZM1 1.10001H27.95C21.75 3.40001 17.35 9.35001 17.35 16.35C17.35 19.7 18.4 22.85 20.15 25.45C16.95 26.75 14.4 29.3 13.1 32.5C11.9 31.95 10.55 31.6 9.15001 31.6C5.60001 31.6 2.50001 33.65 0.950012 36.6V1.10001H1ZM13.75 34C15.95 35.45 17.4 37.95 17.4 40.8C17.4 42.35 16.95 43.8 16.2 45C14.35 42.95 13.25 40.2 13.25 37.25C13.25 36.15 13.45 35.05 13.75 34ZM1 49V45C1.9 46.7 3.25001 48.1 4.95001 49H1ZM8.95001 49C4.55001 48.85 1.05 45.25 1.05 40.85C1.05 36.35 4.7 32.65 9.25 32.65C10.55 32.65 11.75 32.95 12.85 33.5C12.45 34.7 12.25 36 12.25 37.3C12.25 40.65 13.55 43.65 15.65 45.95C14.2 47.75 12 48.95 9.55 49.05H8.95001V49ZM13.4 49C14.5 48.4 15.5 47.6 16.3 46.65C17.35 47.6 18.55 48.45 19.9 49H13.4ZM16.95 45.75C17.85 44.3 18.4 42.6 18.4 40.8C18.4 37.5 16.65 34.65 14.05 33C15.25 29.95 17.7 27.5 20.8 26.3C23.8 30.15 28.45 32.6 33.65 32.6C34.3 32.6 35 32.55 35.65 32.45C36.3 33.9 36.65 35.5 36.65 37.2C36.65 43.65 31.4 48.9 24.95 48.9C21.85 49 19.05 47.75 16.95 45.75ZM21.85 26C22.85 25.75 23.9 25.55 24.95 25.55C29.3 25.55 33.15 27.95 35.15 31.5C34.65 31.55 34.15 31.6 33.65 31.6C28.95 31.6 24.7 29.4 21.85 26ZM48.95 49H30.05C34.6 47.05 37.75 42.55 37.75 37.3C37.75 35.55 37.4 33.9 36.75 32.35C42.35 31.3 46.95 27.3 48.95 22.05V49ZM48.95 16.6C48.8 24 43.4 30.15 36.3 31.35C34.15 27.3 29.9 24.5 25 24.5C23.7 24.5 22.4 24.7 21.2 25.05C19.45 22.55 18.45 19.55 18.45 16.3C18.45 7.89999 25.3 1.05 33.7 1.05C42 1.05 48.8 7.74999 48.95 16.05V16.6ZM48.95 10.6C47.3 6.20001 43.8 2.7 39.4 1.05H48.95V10.6Z"  fill-opacity="0.25"/>
<path d="M8.10117 13.3C10.9512 13.3 13.2512 11 13.2512 8.15002C13.2512 5.30002 10.9512 3.00003 8.10117 3.00003C5.25117 3.00003 2.95117 5.30002 2.95117 8.15002C2.95117 11 5.25117 13.3 8.10117 13.3ZM8.10117 4.00003C10.4012 4.00003 12.2512 5.85002 12.2512 8.15002C12.2512 10.45 10.4012 12.3 8.10117 12.3C5.80117 12.3 3.95117 10.45 3.95117 8.15002C3.95117 5.85002 5.80117 4.00003 8.10117 4.00003Z" fill-opacity="0.25"/>
</svg>
