<svg width="51" height="51" viewBox="0 0 51 51" xmlns="http://www.w3.org/2000/svg">
  <path d="M25.9014 0.703613H0.401367V26.2036V50.7036H25.9014H50.4014V26.2036V0.703613H25.9014ZM24.8514 12.1036H11.8014V25.1536H1.45137C1.75137 12.3536 12.1014 2.00361 24.8514 1.75361V12.1036ZM37.9014 25.1536H25.9014V13.1536H37.9014V25.1536ZM12.8014 26.2036H24.8014V38.2036H12.8014V26.2036ZM25.9014 26.2036H37.9014V38.2036H25.9014V26.2036ZM24.8514 25.1536H12.8514V13.1536H24.8514V25.1536ZM11.7514 26.2036V39.2536H24.8014V49.6036C12.0014 49.3036 1.65137 38.9536 1.40137 26.2036H11.7514ZM25.9014 39.2536H38.9514V26.2036H49.3014C49.0014 39.0036 38.6514 49.3536 25.9014 49.6036V39.2536ZM38.9514 25.1536V12.1036H25.9014V1.75361C38.7014 2.05361 49.0514 12.4036 49.3014 25.1536H38.9514ZM1.40137 1.75361H18.2014C10.1514 4.15361 3.80137 10.5036 1.40137 18.5536V1.75361ZM1.40137 49.6536V32.8536C3.80137 40.9036 10.1514 47.2536 18.2014 49.6536H1.40137ZM32.5013 49.6536C40.5513 47.2536 46.9014 40.9036 49.3014 32.8536V49.6536H32.5013ZM32.5013 1.75361H49.3014V18.5536C46.9014 10.5036 40.5513 4.15361 32.5013 1.75361Z"/>
</svg>
