<svg width="51" height="51" viewBox="0 0 51 51" xmlns="http://www.w3.org/2000/svg">
  <path d="M8.69249 17.4033H0.950195V33.0533H8.69249H16.4348V17.4033H8.69249C8.74244 17.4033 8.74244 17.4033 8.69249 17.4033ZM2.04909 18.4533H4.89626C3.69746 19.1533 2.7484 20.1533 2.04909 21.3033V18.4533ZM2.04909 32.0033V29.1533C2.7484 30.3533 3.69746 31.3533 4.89626 32.0033H2.04909ZM15.3858 32.0033H12.5886C13.7874 31.3033 14.7365 30.3033 15.4358 29.1533V32.0033H15.3858ZM8.74243 32.0033C5.04611 32.0033 2.04909 28.9533 2.04909 25.2533C2.04909 21.5033 5.04611 18.5033 8.74243 18.5033C12.4387 18.5033 15.4358 21.5533 15.4358 25.2533C15.3858 28.9533 12.3888 32.0033 8.74243 32.0033ZM15.3858 18.4533V21.3033C14.6865 20.1033 13.7375 19.1033 12.5386 18.4533H15.3858Z"/>
  <path d="M25.9747 17.4033H18.2324V33.0533H25.9747H33.717V17.4033H25.9747ZM19.2814 18.4533H22.1286C20.9297 19.1533 19.9807 20.1533 19.2814 21.3033V18.4533ZM19.2814 32.0033V29.1533C19.9807 30.3533 20.9297 31.3533 22.1286 32.0033H19.2814ZM32.6681 32.0033H29.8209C31.0197 31.3033 31.9688 30.3033 32.6681 29.1533V32.0033ZM25.9747 32.0033C22.2784 32.0033 19.2814 28.9533 19.2814 25.2533C19.2814 21.5033 22.2784 18.5033 25.9747 18.5033C29.671 18.5033 32.6681 21.5533 32.6681 25.2533C32.6681 28.9533 29.671 32.0033 25.9747 32.0033ZM32.6681 18.4533V21.3033C31.9688 20.1033 31.0197 19.1033 29.8209 18.4533H32.6681Z"/>
  <path d="M43.2081 17.4033H35.4658V33.0533H43.2081H50.9504V17.4033H43.2081ZM36.5148 18.4533H39.362C38.1631 19.1533 37.2141 20.1533 36.5148 21.3033V18.4533ZM36.5148 32.0033V29.1533C37.2141 30.3533 38.1631 31.3533 39.362 32.0033H36.5148ZM49.9015 32.0033H47.0543C48.2531 31.3033 49.2022 30.3033 49.9015 29.1533V32.0033ZM43.2081 32.0033C39.5118 32.0033 36.5148 28.9533 36.5148 25.2533C36.5148 21.5033 39.5118 18.5033 43.2081 18.5033C46.9044 18.5033 49.9015 21.5533 49.9015 25.2533C49.9015 28.9533 46.9044 32.0033 43.2081 32.0033ZM49.9015 18.4533V21.3033C49.2022 20.1033 48.2531 19.1033 47.0543 18.4533H49.9015Z"/>
  <path d="M0.998047 15.8534H16.4327V0.253418H0.998047V15.8534ZM15.3837 14.8034H12.5865C13.7853 14.1034 14.7344 13.1034 15.4337 11.9534V14.8034H15.3837ZM15.3837 1.30342V4.15342C14.6844 2.95342 13.7354 1.95342 12.5366 1.30342H15.3837ZM2.04701 1.30342H4.89418C3.69537 2.00342 2.74631 3.00342 2.04701 4.15342V1.30342ZM8.6904 1.30342C12.3867 1.30342 15.3837 4.35342 15.3837 8.05341C15.3837 11.8034 12.3867 14.8034 8.6904 14.8034C4.99408 14.8034 1.99705 11.7534 1.99705 8.05341C2.047 4.30342 5.04403 1.30342 8.6904 1.30342ZM2.04701 11.9534C2.74631 13.1534 3.69537 14.1534 4.89418 14.8034H2.04701V11.9534Z"/>
  <path d="M18.2324 15.8534H33.6671V0.253418H18.2324V15.8534ZM32.6681 14.8034H29.8209C31.0197 14.1034 31.9688 13.1034 32.6681 11.9534V14.8034ZM32.6681 1.30342V4.15342C31.9688 2.95342 31.0197 1.95342 29.8209 1.30342H32.6681ZM19.2814 1.30342H22.1286C20.9297 2.00342 19.9807 3.00342 19.2814 4.15342V1.30342ZM25.9747 1.30342C29.671 1.30342 32.6681 4.35342 32.6681 8.05341C32.6681 11.8034 29.671 14.8034 25.9747 14.8034C22.2784 14.8034 19.2814 11.7534 19.2814 8.05341C19.2814 4.30342 22.2784 1.30342 25.9747 1.30342ZM19.2814 11.9534C19.9807 13.1534 20.9297 14.1534 22.1286 14.8034H19.2814V11.9534Z"/>
  <path d="M35.4658 0.253418V15.9034H50.9005V0.253418H35.4658ZM36.5148 1.30342H39.362C38.1631 2.00342 37.2141 3.00342 36.5148 4.15342V1.30342ZM36.5148 14.8034V11.9534C37.2141 13.1534 38.1631 14.1534 39.362 14.8034H36.5148ZM49.9015 14.8034H47.0543C48.2531 14.1034 49.2022 13.1034 49.9015 11.9534V14.8034ZM43.2081 14.8034C39.5118 14.8034 36.5148 11.7534 36.5148 8.05341C36.5148 4.30342 39.5118 1.30342 43.2081 1.30342C46.9044 1.30342 49.9015 4.35342 49.9015 8.05341C49.9015 11.7534 46.9044 14.8034 43.2081 14.8034ZM49.9015 4.15342C49.2022 2.95342 48.2531 1.95342 47.0543 1.30342H49.9015V4.15342Z"/>
  <path d="M0.998047 50.2535H16.4327V34.6035H0.998047V50.2535ZM15.3837 49.2035H12.5865C13.7853 48.5035 14.7344 47.5035 15.4337 46.3535V49.2035H15.3837ZM15.3837 35.6535V38.5035C14.6844 37.3035 13.7354 36.3035 12.5366 35.6535H15.3837ZM2.04701 35.6535H4.89418C3.69537 36.3535 2.74631 37.3535 2.04701 38.5035V35.6535ZM8.6904 35.6535C12.3867 35.6535 15.3837 38.7035 15.3837 42.4035C15.3837 46.1535 12.3867 49.1535 8.6904 49.1535C4.99408 49.1535 1.99705 46.1035 1.99705 42.4035C2.047 38.7035 5.04403 35.6535 8.6904 35.6535ZM2.04701 46.3035C2.74631 47.5035 3.69537 48.5035 4.89418 49.1535H2.04701V46.3035Z"/>
  <path d="M18.2324 50.2535H33.6671V34.6035H18.2324V50.2535ZM32.6681 49.2035H29.8209C31.0197 48.5035 31.9688 47.5035 32.6681 46.3535V49.2035ZM32.6681 35.6535V38.5035C31.9688 37.3035 31.0197 36.3035 29.8209 35.6535H32.6681ZM19.2814 35.6535H22.1286C20.9297 36.3535 19.9807 37.3535 19.2814 38.5035V35.6535ZM25.9747 35.6535C29.671 35.6535 32.6681 38.7035 32.6681 42.4035C32.6681 46.1535 29.671 49.1535 25.9747 49.1535C22.2784 49.1535 19.2814 46.1035 19.2814 42.4035C19.2814 38.7035 22.2784 35.6535 25.9747 35.6535ZM19.2814 46.3035C19.9807 47.5035 20.9297 48.5035 22.1286 49.1535H19.2814V46.3035Z"/>
  <path d="M35.4658 50.2535H50.9005V34.6035H35.4658V50.2535ZM49.9015 49.2035H47.0543C48.2531 48.5035 49.2022 47.5035 49.9015 46.3535V49.2035ZM49.9015 35.6535V38.5035C49.2022 37.3035 48.2531 36.3035 47.0543 35.6535H49.9015ZM36.5148 35.6535H39.362C38.1631 36.3535 37.2141 37.3535 36.5148 38.5035V35.6535ZM43.2081 35.6535C46.9044 35.6535 49.9015 38.7035 49.9015 42.4035C49.9015 46.1535 46.9044 49.1535 43.2081 49.1535C39.5118 49.1535 36.5148 46.1035 36.5148 42.4035C36.5148 38.7035 39.5118 35.6535 43.2081 35.6535ZM36.5148 46.3035C37.2141 47.5035 38.1631 48.5035 39.362 49.1535H36.5148V46.3035Z"/>
</svg>
