<svg width="50" height="50" viewBox="0 0 50 50" xmlns="http://www.w3.org/2000/svg">
  <path d="M25.5005 0H0.000488281V25.5V50H25.5005H50.0005V25.5V0H25.5005ZM24.4505 11.4H11.4005V24.45H1.05049C1.35049 11.65 11.7005 1.3 24.4505 1.05V11.4ZM37.5005 24.45H25.5005V12.45H37.5005V24.45ZM12.4005 25.5H24.4005V37.5H12.4005V25.5ZM25.5005 25.5H37.5005V37.5H25.5005V25.5ZM24.4505 24.45H12.4505V12.45H24.4505V24.45ZM11.3505 25.5V38.55H24.4005V48.9C11.6005 48.6 1.25049 38.25 1.00049 25.5H11.3505ZM25.5005 38.55H38.5505V25.5H48.9005C48.6005 38.3 38.2505 48.65 25.5005 48.9V38.55ZM38.5505 24.45V11.4H25.5005V1.05C38.3005 1.35 48.6505 11.7 48.9005 24.45H38.5505ZM1.00049 1.05H17.8005C9.75049 3.45 3.40049 9.8 1.00049 17.85V1.05ZM1.00049 48.95V32.15C3.40049 40.2 9.75049 46.55 17.8005 48.95H1.00049ZM32.1005 48.95C40.1505 46.55 46.5005 40.2 48.9005 32.15V48.95H32.1005ZM32.1005 1.05H48.9005V17.85C46.5005 9.8 40.1505 3.45 32.1005 1.05Z"/>
</svg>
