<svg width="51" height="51" viewBox="0 0 51 51" xmlns="http://www.w3.org/2000/svg">
  <path d="M0.910156 0.40332V50.4033H50.9102V0.40332H0.910156ZM1.96016 1.45332H18.7602C10.7102 3.85332 4.36016 10.2033 1.96016 18.2533V1.45332ZM1.96016 49.3533V32.5533C4.36016 40.6033 10.7102 46.9533 18.7602 49.3533H1.96016ZM6.76016 30.1533C6.76016 19.6033 15.3602 11.0033 25.9102 11.0033C36.4602 11.0033 45.0602 19.6033 45.0602 30.1533C45.0602 37.3033 41.1602 43.5033 35.3602 46.8033C38.4102 44.1533 40.3602 40.2533 40.3602 35.9033C40.3602 27.9533 33.9102 21.4533 25.9102 21.4533C17.9602 21.4533 11.4602 27.9033 11.4602 35.9033C11.4602 40.2533 13.4102 44.1533 16.4602 46.8033C10.6602 43.5533 6.76016 37.3033 6.76016 30.1533ZM26.6102 49.3033C26.3602 49.3033 26.1602 49.3533 25.9102 49.3533C25.6602 49.3533 25.4602 49.3533 25.2102 49.3033C21.8102 48.9533 19.1602 46.1033 19.1602 42.6033C19.1602 38.9033 22.1602 35.8533 25.9102 35.8533C29.6102 35.8533 32.6602 38.8533 32.6602 42.6033C32.6602 46.1033 29.9602 48.9533 26.6102 49.3033ZM33.6602 42.6033C33.6602 38.3033 30.1602 34.8533 25.9102 34.8533C21.6602 34.8533 18.1602 38.3533 18.1602 42.6033C18.1602 44.8033 19.0602 46.7533 20.5102 48.2033C15.8102 46.1033 12.5102 41.4033 12.5102 35.9533C12.5102 28.5533 18.5102 22.5533 25.9102 22.5533C33.3102 22.5533 39.3102 28.5533 39.3102 35.9533C39.3102 41.4033 36.0102 46.1033 31.3102 48.2033C32.7602 46.7533 33.6602 44.8033 33.6602 42.6033ZM49.8602 49.3533H33.0602C41.1102 46.9533 47.4602 40.6033 49.8602 32.5533V49.3533ZM39.6102 45.0033C43.6102 41.3033 46.1102 36.0033 46.1102 30.1533C46.1102 19.0033 37.0602 9.95333 25.9102 9.95333C14.7602 9.95333 5.71016 19.0033 5.71016 30.1533C5.71016 36.0033 8.21016 41.3033 12.2102 45.0033C6.01016 40.6533 1.96016 33.5033 1.96016 25.3533C1.96016 12.1533 12.7102 1.40332 25.9102 1.40332C39.1102 1.40332 49.8602 12.1533 49.8602 25.3533C49.8602 33.5033 45.8102 40.7033 39.6102 45.0033ZM49.8602 18.2533C47.4602 10.2033 41.1102 3.85332 33.0602 1.45332H49.8602V18.2533Z"/>
</svg>
