<svg width="51" height="51" viewBox="0 0 51 51" xmlns="http://www.w3.org/2000/svg">
  <path d="M0.830566 0.763184V50.7632H50.8306V0.763184H0.830566ZM25.8306 22.1632C24.3306 17.0632 19.6806 13.2632 14.1306 13.0132C14.3806 6.76317 19.5306 1.81319 25.8306 1.81319C32.1306 1.81319 37.2806 6.81317 37.5306 13.0132C31.9806 13.2632 27.3306 17.0132 25.8306 22.1632ZM37.5306 14.0632C37.2306 20.0632 32.4306 24.9132 26.3806 25.2132C26.6806 19.1632 31.4806 14.3132 37.5306 14.0632ZM37.5306 37.4132C31.5306 37.1132 26.6806 32.3132 26.3806 26.2632C32.4306 26.5632 37.2306 31.4132 37.5306 37.4132ZM25.2806 25.2132C19.2806 24.9132 14.4306 20.1132 14.1306 14.0632C20.1806 14.3132 24.9806 19.1632 25.2806 25.2132ZM1.88057 1.81319H20.7806C16.3806 3.71319 13.2806 8.01317 13.0806 13.0132C8.03057 13.2132 3.78057 16.3132 1.88057 20.7132V1.81319V1.81319ZM13.0806 14.0632C13.3306 19.6132 17.0806 24.2632 22.2306 25.7632C17.1306 27.2632 13.3306 31.9132 13.0806 37.4632C6.83057 37.2132 1.88057 32.0632 1.88057 25.7632C1.88057 19.4632 6.88057 14.3132 13.0806 14.0632ZM25.2806 26.3132C24.9806 32.3132 20.1806 37.1632 14.1306 37.4632C14.4306 31.4132 19.2806 26.5632 25.2806 26.3132ZM1.88057 49.7132V30.8132C3.78057 35.2132 8.08057 38.3132 13.0806 38.5132C13.2806 43.5632 16.3806 47.8132 20.7806 49.7132H1.88057ZM14.1306 38.4632C19.6806 38.2132 24.3306 34.4632 25.8306 29.3132C27.3306 34.4132 31.9806 38.2132 37.5306 38.4632C37.2806 44.7132 32.1306 49.6632 25.8306 49.6632C19.5306 49.7132 14.4306 44.7132 14.1306 38.4632ZM49.7806 49.7132H30.8806C35.2806 47.8132 38.3806 43.5132 38.5806 38.5132C43.6306 38.3132 47.8806 35.2132 49.7806 30.8132V49.7132V49.7132ZM38.5806 37.4132C38.3306 31.8632 34.5806 27.2132 29.4306 25.7132C34.5306 24.2132 38.3306 19.5632 38.5806 14.0132C44.8306 14.2632 49.7806 19.4132 49.7806 25.7132C49.7806 32.0132 44.7806 37.1632 38.5806 37.4132ZM49.7806 20.7132C47.8806 16.3132 43.5806 13.2132 38.5806 13.0132C38.3806 7.96317 35.2806 3.71319 30.8806 1.81319H49.7806V20.7132V20.7132Z"/>
</svg>
