<svg width="51" height="51" viewBox="0 0 51 51" xmlns="http://www.w3.org/2000/svg">
  <path d="M50.8306 16.8132V0.763184H0.830566V50.7632H50.8306V17.3632C50.8306 17.2632 50.8306 17.1632 50.8306 17.1132C50.8306 17.0132 50.8306 16.9132 50.8306 16.8132ZM1.83057 1.86319H28.7806C22.5806 4.16319 18.1806 10.1132 18.1806 17.1132C18.1806 20.4632 19.2306 23.6132 20.9806 26.2132C17.7806 27.5132 15.2306 30.0632 13.9306 33.2632C12.7306 32.7132 11.3806 32.3632 9.98058 32.3632C6.43058 32.3632 3.33058 34.4132 1.78058 37.3632V1.86319H1.83057ZM14.5806 34.7632C16.7806 36.2132 18.2306 38.7132 18.2306 41.5632C18.2306 43.1132 17.7806 44.5632 17.0306 45.7632C15.1806 43.7132 14.0806 40.9632 14.0806 38.0132C14.0806 36.9132 14.2806 35.8132 14.5806 34.7632ZM1.83057 49.7632V45.7632C2.73057 47.4632 4.08058 48.8632 5.78058 49.7632H1.83057ZM9.78058 49.7632C5.38058 49.6132 1.88057 46.0132 1.88057 41.6132C1.88057 37.1132 5.53057 33.4132 10.0806 33.4132C11.3806 33.4132 12.5806 33.7132 13.6806 34.2632C13.2806 35.4632 13.0806 36.7632 13.0806 38.0632C13.0806 41.4132 14.3806 44.4132 16.4806 46.7132C15.0306 48.5132 12.8306 49.7132 10.3806 49.8132H9.78058V49.7632ZM14.2306 49.7632C15.3306 49.1632 16.3306 48.3632 17.1306 47.4132C18.1806 48.3632 19.3806 49.2132 20.7306 49.7632H14.2306ZM17.7806 46.5132C18.6806 45.0632 19.2306 43.3632 19.2306 41.5632C19.2306 38.2632 17.4806 35.4132 14.8806 33.7632C16.0806 30.7132 18.5306 28.2632 21.6306 27.0632C24.6306 30.9132 29.2806 33.3632 34.4806 33.3632C35.1306 33.3632 35.8306 33.3132 36.4806 33.2132C37.1306 34.6632 37.4806 36.2632 37.4806 37.9632C37.4806 44.4132 32.2306 49.6632 25.7806 49.6632C22.6806 49.7632 19.8806 48.5132 17.7806 46.5132ZM22.6806 26.7632C23.6806 26.5132 24.7306 26.3132 25.7806 26.3132C30.1306 26.3132 33.9806 28.7132 35.9806 32.2632C35.4806 32.3132 34.9806 32.3632 34.4806 32.3632C29.7806 32.3632 25.5306 30.1632 22.6806 26.7632ZM49.7806 49.7632H30.8806C35.4306 47.8132 38.5806 43.3132 38.5806 38.0632C38.5806 36.3132 38.2306 34.6632 37.5806 33.1132C43.1806 32.0632 47.7806 28.0632 49.7806 22.8132V49.7632V49.7632ZM49.7806 17.3632C49.6306 24.7632 44.2306 30.9132 37.1306 32.1132C34.9806 28.0632 30.7306 25.2632 25.8306 25.2632C24.5306 25.2632 23.2306 25.4632 22.0306 25.8132C20.2806 23.3132 19.2806 20.3132 19.2806 17.0632C19.2806 8.66317 26.1306 1.81319 34.5306 1.81319C42.8306 1.81319 49.6306 8.51317 49.7806 16.8132V17.3632V17.3632ZM49.7806 11.3632C48.1306 6.96319 44.6306 3.46319 40.2306 1.81319H49.7806V11.3632Z"/>
  <path d="M8.93076 14.0632C11.7808 14.0632 14.0807 11.7632 14.0807 8.91318C14.0807 6.06318 11.7808 3.76318 8.93076 3.76318C6.08076 3.76318 3.78076 6.06318 3.78076 8.91318C3.78076 11.7632 6.08076 14.0632 8.93076 14.0632ZM8.93076 4.76318C11.2308 4.76318 13.0807 6.61318 13.0807 8.91318C13.0807 11.2132 11.2308 13.0632 8.93076 13.0632C6.63076 13.0632 4.78076 11.2132 4.78076 8.91318C4.78076 6.61318 6.63076 4.76318 8.93076 4.76318Z"/>
</svg>
