<svg width="51" height="51" viewBox="0 0 51 51" xmlns="http://www.w3.org/2000/svg">
  <path d="M50.9102 50.4033V0.40332H0.910156V50.4033H50.9102ZM44.9102 2.60333C43.1102 5.50333 39.7602 10.9533 39.7602 17.2533C39.7602 20.0033 41.3602 22.9033 42.8602 25.6533C44.3102 28.3033 45.8602 31.0533 45.8602 33.5533C45.8602 38.0033 44.3602 39.8533 42.8102 41.8533C41.3602 43.6533 39.9102 45.5533 39.8102 49.3533H35.7102C35.8102 45.8533 36.6602 44.1533 37.6102 42.4033C38.6602 40.4033 39.7602 38.3033 39.7602 33.5533C39.7602 30.8533 38.7102 28.0033 37.7102 25.2533C36.7102 22.5533 35.7102 19.8033 35.7102 17.2533C35.7102 11.1533 37.9102 5.85333 39.0602 3.00333C39.3602 2.25333 39.5602 1.75332 39.6602 1.45332H45.6602C45.4102 1.75332 45.1602 2.15333 44.9102 2.60333ZM38.1102 2.65332C36.9102 5.55332 34.7102 10.9533 34.7102 17.2533C34.7102 19.9533 35.7602 22.8033 36.7602 25.6033C37.7602 28.3033 38.7602 31.0533 38.7602 33.6033C38.7602 38.1033 37.7102 40.0533 36.7102 42.0033C35.7602 43.8033 34.8102 45.6533 34.7102 49.4033H30.5602C30.6102 45.8533 31.0602 44.1533 31.5102 42.3533C32.0102 40.3533 32.5602 38.3033 32.5602 33.6033C32.5602 30.9533 32.0602 28.1033 31.5602 25.3533C31.0602 22.6533 30.5602 19.8533 30.5602 17.2533C30.5602 11.1033 31.6602 5.80332 32.2602 2.95332C32.4102 2.25332 32.5102 1.80332 32.5602 1.45332H38.6102C38.4602 1.80332 38.2602 2.20332 38.1102 2.65332ZM31.2602 2.75333C30.6602 5.65333 29.5602 11.0033 29.5602 17.2533C29.5602 19.9033 30.0602 22.7533 30.5602 25.5033C31.0602 28.2033 31.5602 31.0033 31.5602 33.5533C31.5602 38.1033 31.0102 40.1033 30.5102 42.0533C30.0602 43.8533 29.5602 45.7033 29.5102 49.3533H26.3102V1.45332H31.5102C31.4602 1.80332 31.3602 2.25333 31.2602 2.75333ZM25.4102 49.3533H22.2602C22.2102 45.6533 21.7602 43.8033 21.2602 42.0533C20.7602 40.1033 20.2102 38.1033 20.2102 33.5533C20.2102 30.9533 20.7102 28.2033 21.2102 25.5033C21.7102 22.7533 22.2102 19.9033 22.2102 17.2533C22.2102 11.0033 21.1102 5.65333 20.5102 2.75333C20.4102 2.25333 20.3102 1.80332 20.2602 1.45332H25.3602V49.3533H25.4102ZM19.6102 2.95332C20.2102 5.80332 21.3102 11.1033 21.3102 17.2533C21.3102 19.8533 20.8102 22.6533 20.3102 25.3533C19.8102 28.1033 19.3102 30.9033 19.3102 33.6033C19.3102 38.2533 19.8602 40.3533 20.3602 42.3533C20.8102 44.1533 21.2602 45.8533 21.3102 49.4033H17.1602C17.0602 45.6533 16.1102 43.8033 15.1602 42.0033C14.1602 40.1033 13.1102 38.1033 13.1102 33.6033C13.1102 31.0533 14.1102 28.3033 15.1102 25.6033C16.1102 22.8533 17.1602 20.0033 17.1602 17.2533C17.1602 10.9533 14.9602 5.55332 13.7602 2.65332C13.5602 2.20332 13.4102 1.80332 13.2602 1.45332H19.3102C19.3602 1.80332 19.4602 2.25332 19.6102 2.95332ZM12.8102 3.00333C13.9602 5.85333 16.1602 11.1533 16.1602 17.2533C16.1602 19.8033 15.1602 22.5533 14.1602 25.2533C13.1602 28.0033 12.1102 30.8533 12.1102 33.5533C12.1102 38.3033 13.2102 40.3533 14.2602 42.4033C15.2102 44.1533 16.0602 45.8533 16.1602 49.3533H12.0102C11.8602 45.5533 10.4102 43.7033 9.01016 41.8533C7.46016 39.8533 5.96016 38.0033 5.96016 33.5533C5.96016 31.0533 7.46016 28.3033 8.96016 25.6533C10.5102 22.8533 12.0602 20.0033 12.0602 17.2533C12.0602 10.9033 8.71016 5.50333 6.91016 2.60333C6.66016 2.20333 6.41016 1.80333 6.21016 1.50333H12.2102C12.3102 1.80333 12.5102 2.25333 12.8102 3.00333ZM49.8602 49.3533H40.7602C40.8602 45.9033 42.1602 44.2533 43.5602 42.4533C45.1602 40.4033 46.8102 38.3033 46.8102 33.5533C46.8102 30.8033 45.2102 27.9533 43.7102 25.1533C42.2602 22.5033 40.7102 19.7033 40.7102 17.2033C40.7102 11.1533 43.9602 5.90333 45.7102 3.05333C46.2102 2.25333 46.5102 1.75332 46.6602 1.40332H49.8102V49.3533H49.8602ZM1.96016 1.45332H5.11017C5.26017 1.80332 5.56017 2.30333 6.06017 3.10333C7.81017 5.95333 11.0602 11.2033 11.0602 17.2533C11.0602 19.7533 9.56017 22.5033 8.06017 25.2033C6.56017 27.9533 4.96016 30.8533 4.96016 33.6033C4.96016 38.3533 6.61016 40.5033 8.21016 42.5033C9.61016 44.2533 10.9102 45.9533 11.0102 49.4033H1.91016V1.45332H1.96016Z"/>
</svg>
