<svg width="51" height="51" viewBox="0 0 51 51" xmlns="http://www.w3.org/2000/svg">
  <path d="M0.401367 20.1036V46.2036V50.7036H50.4014V0.703613H0.401367V20.1036ZM15.2514 21.1536C15.3514 24.5536 16.5514 27.7036 18.4514 30.2036L1.40137 44.0036V21.1536H15.2514ZM31.1014 35.5036C26.6514 35.5036 22.6014 33.5036 19.9014 30.3536L24.6014 26.5536C26.2014 28.3036 28.5514 29.4536 31.1014 29.4536C36.0014 29.4536 39.9514 25.5036 39.9514 20.6036C39.9514 15.7036 36.0014 11.7536 31.1014 11.7536C26.4014 11.7536 22.5514 15.4536 22.3014 20.0536H16.2514C16.5514 12.1036 23.0514 5.70361 31.1014 5.70361C39.3014 5.70361 46.0014 12.3536 46.0014 20.6036C46.0014 28.8536 39.3514 35.5036 31.1014 35.5036ZM32.6014 20.1036H23.3514C23.6014 16.0536 27.0014 12.8536 31.1014 12.8536C35.4014 12.8536 38.9014 16.3536 38.9014 20.6536C38.9014 24.9536 35.4014 28.4536 31.1014 28.4536C28.8514 28.4536 26.8014 27.5036 25.4014 25.9536L32.6014 20.1036ZM24.7514 25.1036C23.9514 23.9536 23.4514 22.6036 23.3514 21.1536H29.6514L24.7514 25.1036ZM22.3014 21.1536C22.4014 22.8536 23.0014 24.4536 23.9514 25.7536L19.2514 29.5536C17.4514 27.2036 16.4014 24.3036 16.2514 21.1536H22.3014ZM49.3514 1.75362V49.6536H1.45137V45.3536L19.1514 31.0536C22.0514 34.4036 26.3514 36.5536 31.1514 36.5536C39.9514 36.5536 47.0514 29.4036 47.0514 20.6536C47.0514 11.8536 39.9014 4.75362 31.1514 4.75362C22.5514 4.75362 15.5514 11.6036 15.2514 20.1536H1.45137V1.8036H49.3514V1.75362Z"/>
</svg>
