<svg width="51" height="51" viewBox="0 0 51 51" xmlns="http://www.w3.org/2000/svg">
  <path d="M50.9502 0.253418H0.950195V50.2534H50.9502V0.253418ZM26.0502 24.4034L14.5002 12.9534L25.9502 1.50342L37.4502 13.0034L26.0502 24.4034ZM25.1002 25.1534L13.6502 36.7034L2.2002 25.2534L13.7002 13.7534L25.1002 25.1534ZM25.8502 26.0534L37.4002 37.5034L25.9502 48.9534L14.4502 37.4534L25.8502 26.0534ZM26.8002 25.3534L38.2502 13.8034L49.7002 25.2534L38.2002 36.7534L26.8002 25.3534ZM38.9502 13.0534L49.9002 2.05342V24.0034L38.9502 13.0534ZM49.1502 1.30342L38.1502 12.3034L27.1502 1.30342H49.1502ZM13.7502 12.2034L2.7502 1.25342H24.7002L13.7502 12.2034ZM2.0002 2.00342L13.0002 13.0034L2.0002 24.0034V2.00342ZM12.9002 37.4034L1.9502 48.4034V26.5034L12.9002 37.4034ZM2.7502 49.2034L13.7502 38.2034L24.7502 49.2034H2.7502ZM38.1502 38.2534L49.1502 49.2034H27.2002L38.1502 38.2534ZM49.9002 48.4534L38.9002 37.4534L49.9002 26.4534V48.4534Z"/>
</svg>
