<svg width="51" height="51" viewBox="0 0 51 51" xmlns="http://www.w3.org/2000/svg">
  <path d="M0.830566 0.197754V50.1978H50.8306V0.197754H0.830566ZM1.88057 49.1478V34.8478C9.68057 35.0978 15.9306 41.3978 16.1806 49.1478H1.88057ZM49.8306 49.1478H17.2806C17.0306 40.7978 10.2806 34.0478 1.93057 33.7978V1.24776H34.4806C34.6806 9.64776 41.4306 16.4478 49.8306 16.7478V49.1478V49.1478ZM49.8306 15.6478C42.0306 15.3978 35.7306 9.04776 35.5306 1.19775H49.8306V15.6478Z"/>
  <path d="M25.8312 7.84766C17.0811 7.84766 9.93115 14.9977 9.93115 23.7477C9.93115 32.4977 17.0811 39.6477 25.8312 39.6477C34.5812 39.6477 41.7311 32.4977 41.7311 23.7477C41.7311 14.9977 34.6312 7.84766 25.8312 7.84766ZM25.8312 38.6477C17.6311 38.6477 10.9811 31.9976 10.9811 23.7976C10.9811 15.5976 17.6311 8.94763 25.8312 8.94763C34.0312 8.94763 40.6812 15.5976 40.6812 23.7976C40.7312 31.9476 34.0312 38.6477 25.8312 38.6477Z"/>
</svg>
