<svg width="51" height="51" viewBox="0 0 51 51" xmlns="http://www.w3.org/2000/svg">
  <path d="M42.9514 0.703613H41.9014H37.1514H36.1014H31.8514H30.8014H26.4514H25.4014H0.401367V25.7036V26.7536V31.1036V32.1536V36.4036V37.4536V42.2036V43.2536V50.7036H7.85136H8.90138H13.6514H14.7014H18.9514H20.0014H24.3514H25.4014H50.4014V25.7036V24.6536V20.3036V19.2536V15.0036V13.9536V9.20361V8.15363V0.703613H42.9514ZM27.9014 11.6536C27.1014 11.5036 26.2514 11.4036 25.4014 11.4036C17.5014 11.4036 11.1014 17.8036 11.1014 25.7036C11.1014 26.5536 11.2014 27.4036 11.3514 28.2036C9.95136 27.5036 8.45138 26.9536 6.90138 26.5536C6.90138 26.2536 6.90138 26.0036 6.90138 25.7036C6.90138 15.5036 15.2014 7.15363 25.4514 7.15363C25.7514 7.15363 26.0014 7.15363 26.3014 7.15363C26.6514 8.75363 27.2014 10.2536 27.9014 11.6536ZM28.5014 12.8536C30.7513 16.9036 34.1514 20.3036 38.2014 22.5536C38.4514 23.5536 38.6014 24.6036 38.6014 25.7036C38.6014 33.0036 32.6514 38.9536 25.3514 38.9536C24.2514 38.9536 23.2014 38.8036 22.2014 38.5536C19.9514 34.5036 16.5514 31.1036 12.5014 28.8536C12.2514 27.8536 12.1014 26.8036 12.1014 25.7036C12.1014 18.4036 18.0514 12.4536 25.3514 12.4536C26.4514 12.4536 27.5014 12.6036 28.5014 12.8536ZM1.40137 1.75362H18.2014C10.1514 4.15362 3.80137 10.5036 1.40137 18.5536V1.75362ZM1.40137 25.7036C1.40137 12.5036 12.1514 1.75362 25.3514 1.75362C25.3514 1.75362 25.3514 1.75362 25.4014 1.75362C25.4514 3.25362 25.6514 4.70363 25.9514 6.15363C25.7514 6.15363 25.5514 6.15363 25.3514 6.15363C14.5514 6.15363 5.75136 14.9536 5.75136 25.7536C5.75136 25.9536 5.75136 26.1536 5.75136 26.3536C4.35136 26.0036 2.90137 25.8036 1.40137 25.7036ZM1.40137 49.6536V43.3536C4.65137 43.8036 7.25137 46.4036 7.70137 49.6536H1.40137ZM8.75136 49.6536C8.25136 45.8036 5.25137 42.7536 1.40137 42.3036V37.5036C2.10137 37.5536 2.85136 37.6536 3.50136 37.8536C4.00136 37.9536 4.50136 38.1536 5.00136 38.3036C8.60136 39.6536 11.4514 42.5036 12.7514 46.0536C12.9514 46.5536 13.1014 47.0536 13.2014 47.5536C13.3514 48.2536 13.5014 48.9536 13.5514 49.6536H8.75136ZM14.6014 49.6536C14.5514 49.1536 14.5014 48.6536 14.4014 48.1536C14.3014 47.7036 14.2014 47.2536 14.1014 46.8036C12.7514 42.0036 9.00137 38.2536 4.20137 36.9036C3.75137 36.8036 3.30136 36.7036 2.85136 36.6036C2.35136 36.5036 1.85136 36.4536 1.35136 36.4036V32.1536C1.65136 32.1536 1.95136 32.2036 2.25136 32.2036C4.05136 32.4036 5.75136 32.8536 7.35136 33.5036C7.85136 33.7036 8.35136 33.9536 8.85136 34.2036C12.2014 35.9536 14.9514 38.7036 16.7014 42.0536C16.9514 42.5536 17.2014 43.0536 17.4014 43.5536C18.0514 45.1536 18.5014 46.8536 18.7014 48.6536C18.7514 48.9536 18.7514 49.2536 18.7514 49.5536H14.6014V49.6536ZM19.9014 49.6536C19.9014 49.4536 19.9014 49.2036 19.8514 49.0036C19.7014 47.3036 19.3514 45.7036 18.8014 44.1536C18.6514 43.7036 18.4514 43.2536 18.2514 42.8536C16.3014 38.3536 12.6514 34.7536 8.20137 32.8036C7.75137 32.6036 7.35138 32.4536 6.90138 32.2536C5.35138 31.7036 3.75138 31.3536 2.05138 31.2036C1.85138 31.2036 1.60137 31.1536 1.40137 31.1536V26.7536C1.40137 26.7536 1.40137 26.7536 1.45137 26.7536C2.95137 26.8036 4.45136 27.0536 5.85136 27.3536C6.20136 27.4536 6.55138 27.5536 6.90138 27.6536C8.55138 28.1036 10.1014 28.7536 11.5514 29.5536C12.0014 29.8036 12.4514 30.0536 12.9014 30.3536C16.0514 32.3036 18.7014 34.9536 20.6514 38.1036C20.9014 38.5536 21.2014 39.0036 21.4514 39.4536C22.2514 40.9036 22.8514 42.5036 23.3514 44.1036C23.4514 44.4536 23.5514 44.8036 23.6514 45.1536C24.0014 46.6036 24.2014 48.0536 24.2514 49.5536C24.2514 49.5536 24.2514 49.5536 24.2514 49.6036H19.9014V49.6536ZM22.8514 39.7536C23.6514 39.9036 24.5014 40.0036 25.3514 40.0036C33.2514 40.0036 39.6514 33.6036 39.6514 25.7036C39.6514 24.8536 39.5514 24.0036 39.4014 23.2036C40.8014 23.9036 42.3014 24.4536 43.8514 24.8536C43.8514 25.1536 43.8514 25.4036 43.8514 25.7036C43.8514 35.9036 35.5514 44.2536 25.3014 44.2536C25.0014 44.2536 24.7514 44.2536 24.4514 44.2536C24.1014 42.6536 23.5514 41.2036 22.8514 39.7536ZM49.3014 49.6536H32.5013C40.5513 47.2536 46.9014 40.9036 49.3014 32.8536V49.6536ZM25.3514 49.6536C25.2514 48.1536 25.0514 46.7036 24.7514 45.2536C24.9514 45.2536 25.1514 45.2536 25.3514 45.2536C36.1514 45.2536 44.9514 36.4536 44.9514 25.6536C44.9514 25.4536 44.9514 25.2536 44.9514 25.0536C46.3514 25.3536 47.8513 25.5536 49.3513 25.6036C49.3513 25.6036 49.3513 25.6036 49.3513 25.6536C49.3013 38.9036 38.5514 49.6536 25.3514 49.6536ZM49.3014 24.6536C47.7514 24.6036 46.3013 24.3536 44.8514 24.0536C44.5014 23.9536 44.1514 23.8536 43.8014 23.7536C42.1514 23.3036 40.6014 22.6536 39.1514 21.8536C38.7014 21.6036 38.2514 21.3536 37.8014 21.0536C34.6514 19.1036 32.0014 16.4536 30.0514 13.3036C29.8014 12.8536 29.5013 12.4036 29.2513 11.9536C28.4513 10.5036 27.8514 8.90362 27.3514 7.30362C27.2514 6.95362 27.1514 6.60362 27.0514 6.25362C26.7014 4.80362 26.5014 3.35362 26.4514 1.85362C26.4514 1.85362 26.4514 1.85362 26.4514 1.80362H30.8514C30.8514 2.00362 30.8514 2.25361 30.9014 2.45361C31.0514 4.15361 31.4014 5.75362 31.9514 7.30362C32.1014 7.75362 32.3013 8.20362 32.5013 8.60362C34.4513 13.1036 38.1014 16.7036 42.5514 18.6536C43.0014 18.8536 43.4014 19.0036 43.8514 19.2036C45.4014 19.7536 47.0014 20.1036 48.7014 20.2536C48.9014 20.2536 49.1513 20.3036 49.3513 20.3036V24.6536H49.3014ZM49.3014 19.2036C49.0014 19.2036 48.7014 19.1536 48.4014 19.1536C46.6014 18.9536 44.9014 18.5036 43.3014 17.8536C42.8014 17.6536 42.3014 17.4036 41.8014 17.1536C38.4514 15.4036 35.7014 12.6536 33.9514 9.30362C33.7014 8.80362 33.4513 8.30362 33.2513 7.80362C32.6013 6.20362 32.1514 4.50361 31.9514 2.70361C31.9014 2.40361 31.9014 2.10362 31.9014 1.80362H36.1514C36.2014 2.30362 36.2514 2.80362 36.3514 3.30362C36.4514 3.75362 36.5514 4.20363 36.6514 4.65363C38.0014 9.45363 41.7514 13.2036 46.5514 14.5536C47.0014 14.6536 47.4514 14.7536 47.9014 14.8536C48.4014 14.9536 48.9014 15.0036 49.4014 15.0536V19.2036H49.3014ZM49.3014 13.9036C48.6014 13.8536 47.9014 13.7536 47.2014 13.5536C46.7014 13.4536 46.2014 13.2536 45.7014 13.1036C42.1014 11.7536 39.2514 8.90362 37.9514 5.35362C37.7514 4.85362 37.6013 4.35362 37.5013 3.85362C37.3513 3.15362 37.2014 2.45362 37.1514 1.75362H41.9514C42.4014 5.60362 45.4514 8.65362 49.3014 9.10362V13.9036ZM49.3014 8.05362C46.0514 7.60362 43.4513 5.00362 43.0013 1.75362H49.3014V8.05362Z"/>
  <path d="M16.9023 25.7034C16.9023 30.3534 20.7023 34.1534 25.3523 34.1534C30.0023 34.1534 33.8023 30.3534 33.8023 25.7034C33.8023 21.0534 30.0023 17.2534 25.3523 17.2534C20.7023 17.2534 16.9023 21.0534 16.9023 25.7034ZM32.8023 25.7034C32.8023 29.8034 29.4523 33.1534 25.3523 33.1534C21.2523 33.1534 17.9023 29.8034 17.9023 25.7034C17.9023 21.6034 21.2523 18.2534 25.3523 18.2534C29.4523 18.3034 32.8023 21.6034 32.8023 25.7034Z"/>
</svg>
