<svg width="51" height="51" viewBox="0 0 51 51" xmlns="http://www.w3.org/2000/svg">
  <path d="M43.3806 0.197754H42.3306H37.5806H36.5306H32.2806H31.2306H26.8806H25.8306H0.830566V25.1978V26.2478V30.5978V31.6478V35.8978V36.9478V41.6978V42.7478V50.1978H8.28056H9.33058H14.0806H15.1306H19.3806H20.4306H24.7806H25.8306H50.8306V25.1978V24.1478V19.7978V18.7478V14.4978V13.4478V8.69775V7.64777V0.197754H43.3806ZM28.3306 11.1478C27.5306 10.9978 26.6806 10.8978 25.8306 10.8978C17.9306 10.8978 11.5306 17.2978 11.5306 25.1978C11.5306 26.0478 11.6306 26.8978 11.7806 27.6978C10.3806 26.9978 8.88058 26.4478 7.33058 26.0478C7.33058 25.7478 7.33058 25.4978 7.33058 25.1978C7.33058 14.9978 15.6306 6.64777 25.8806 6.64777C26.1806 6.64777 26.4306 6.64777 26.7306 6.64777C27.0806 8.24777 27.6306 9.74777 28.3306 11.1478ZM28.9305 12.3478C31.1805 16.3978 34.5806 19.7978 38.6306 22.0478C38.8806 23.0478 39.0306 24.0978 39.0306 25.1978C39.0306 32.4978 33.0806 38.4478 25.7806 38.4478C24.6806 38.4478 23.6306 38.2978 22.6306 38.0478C20.3806 33.9978 16.9806 30.5978 12.9306 28.3478C12.6806 27.3478 12.5306 26.2978 12.5306 25.1978C12.5306 17.8978 18.4806 11.9478 25.7806 11.9478C26.8806 11.9478 27.9305 12.0978 28.9305 12.3478ZM1.83057 1.24776H18.6306C10.5806 3.64776 4.23057 9.99776 1.83057 18.0478V1.24776ZM1.83057 25.1978C1.83057 11.9978 12.5806 1.24776 25.7806 1.24776C25.7806 1.24776 25.7806 1.24776 25.8306 1.24776C25.8806 2.74776 26.0806 4.19777 26.3806 5.64777C26.1806 5.64777 25.9806 5.64777 25.7806 5.64777C14.9806 5.64777 6.18056 14.4478 6.18056 25.2478C6.18056 25.4478 6.18056 25.6478 6.18056 25.8478C4.78056 25.4978 3.33057 25.2978 1.83057 25.1978ZM1.83057 49.1478V42.8478C5.08057 43.2978 7.68057 45.8978 8.13057 49.1478H1.83057ZM9.18055 49.1478C8.68055 45.2978 5.68056 42.2478 1.83057 41.7978V36.9978C2.53057 37.0478 3.28056 37.1478 3.93056 37.3478C4.43056 37.4478 4.93056 37.6478 5.43056 37.7978C9.03055 39.1478 11.8806 41.9978 13.1806 45.5478C13.3806 46.0478 13.5306 46.5478 13.6306 47.0478C13.7806 47.7478 13.9306 48.4478 13.9806 49.1478H9.18055V49.1478ZM15.0306 49.1478C14.9806 48.6478 14.9306 48.1478 14.8306 47.6478C14.7306 47.1978 14.6306 46.7478 14.5306 46.2978C13.1806 41.4978 9.43057 37.7478 4.63057 36.3978C4.18057 36.2978 3.73056 36.1978 3.28056 36.0978C2.78056 35.9978 2.28056 35.9478 1.78056 35.8978V31.6478C2.08056 31.6478 2.38056 31.6978 2.68056 31.6978C4.48056 31.8978 6.18056 32.3478 7.78056 32.9978C8.28056 33.1978 8.78056 33.4478 9.28056 33.6978C12.6306 35.4478 15.3806 38.1978 17.1306 41.5478C17.3806 42.0478 17.6306 42.5478 17.8306 43.0478C18.4806 44.6478 18.9306 46.3478 19.1306 48.1478C19.1806 48.4478 19.1806 48.7478 19.1806 49.0478H15.0306V49.1478ZM20.3306 49.1478C20.3306 48.9478 20.3306 48.6978 20.2806 48.4978C20.1306 46.7978 19.7806 45.1978 19.2306 43.6478C19.0806 43.1978 18.8806 42.7478 18.6806 42.3478C16.7306 37.8478 13.0806 34.2478 8.63057 32.2978C8.18057 32.0978 7.78058 31.9478 7.33058 31.7478C5.78058 31.1978 4.18057 30.8478 2.48058 30.6978C2.28058 30.6978 2.03057 30.6478 1.83057 30.6478V26.2478C1.83057 26.2478 1.83057 26.2478 1.88057 26.2478C3.38057 26.2978 4.88056 26.5478 6.28056 26.8478C6.63056 26.9478 6.98058 27.0478 7.33058 27.1478C8.98058 27.5978 10.5306 28.2478 11.9806 29.0478C12.4306 29.2978 12.8806 29.5478 13.3306 29.8478C16.4806 31.7978 19.1306 34.4478 21.0806 37.5978C21.3306 38.0478 21.6306 38.4978 21.8806 38.9478C22.6806 40.3978 23.2806 41.9978 23.7806 43.5978C23.8806 43.9478 23.9806 44.2978 24.0806 44.6478C24.4306 46.0978 24.6306 47.5478 24.6806 49.0478C24.6806 49.0478 24.6806 49.0478 24.6806 49.0978H20.3306V49.1478ZM23.2806 39.2478C24.0806 39.3978 24.9306 39.4978 25.7806 39.4978C33.6806 39.4978 40.0806 33.0978 40.0806 25.1978C40.0806 24.3478 39.9806 23.4978 39.8306 22.6978C41.2306 23.3978 42.7306 23.9478 44.2806 24.3478C44.2806 24.6478 44.2806 24.8978 44.2806 25.1978C44.2806 35.3978 35.9806 43.7478 25.7306 43.7478C25.4306 43.7478 25.1806 43.7478 24.8806 43.7478C24.5306 42.1478 23.9806 40.6978 23.2806 39.2478ZM49.7306 49.1478H32.9305C40.9805 46.7478 47.3306 40.3978 49.7306 32.3478V49.1478ZM25.7806 49.1478C25.6806 47.6478 25.4805 46.1978 25.1805 44.7478C25.3805 44.7478 25.5806 44.7478 25.7806 44.7478C36.5806 44.7478 45.3806 35.9478 45.3806 25.1478C45.3806 24.9478 45.3806 24.7478 45.3806 24.5478C46.7806 24.8478 48.2805 25.0478 49.7805 25.0978C49.7805 25.0978 49.7805 25.0978 49.7805 25.1478C49.7305 38.3978 38.9806 49.1478 25.7806 49.1478ZM49.7306 24.1478C48.1806 24.0978 46.7305 23.8478 45.2806 23.5478C44.9306 23.4478 44.5806 23.3478 44.2306 23.2478C42.5806 22.7978 41.0306 22.1478 39.5806 21.3478C39.1306 21.0978 38.6806 20.8478 38.2306 20.5478C35.0806 18.5978 32.4306 15.9478 30.4806 12.7978C30.2306 12.3478 29.9305 11.8978 29.6805 11.4478C28.8805 9.99775 28.2806 8.39776 27.7806 6.79776C27.6806 6.44776 27.5806 6.09776 27.4806 5.74776C27.1306 4.29776 26.9306 2.84776 26.8806 1.34776C26.8806 1.34776 26.8806 1.34776 26.8806 1.29776H31.2806C31.2806 1.49776 31.2806 1.74775 31.3306 1.94775C31.4806 3.64775 31.8306 5.24776 32.3806 6.79776C32.5306 7.24776 32.7305 7.69776 32.9305 8.09776C34.8805 12.5978 38.5306 16.1978 42.9806 18.1478C43.4306 18.3478 43.8306 18.4978 44.2806 18.6978C45.8305 19.2478 47.4306 19.5978 49.1306 19.7478C49.3306 19.7478 49.5805 19.7978 49.7805 19.7978V24.1478H49.7306ZM49.7306 18.6978C49.4306 18.6978 49.1306 18.6478 48.8306 18.6478C47.0306 18.4478 45.3306 17.9978 43.7306 17.3478C43.2306 17.1478 42.7306 16.8978 42.2306 16.6478C38.8806 14.8978 36.1306 12.1478 34.3806 8.79776C34.1306 8.29776 33.8805 7.79776 33.6805 7.29776C33.0305 5.69776 32.5806 3.99775 32.3806 2.19775C32.3306 1.89775 32.3306 1.59776 32.3306 1.29776H36.5806C36.6306 1.79776 36.6806 2.29776 36.7806 2.79776C36.8806 3.24776 36.9806 3.69777 37.0806 4.14777C38.4306 8.94777 42.1806 12.6978 46.9806 14.0478C47.4306 14.1478 47.8806 14.2478 48.3306 14.3478C48.8306 14.4478 49.3306 14.4978 49.8306 14.5478V18.6978H49.7306ZM49.7306 13.3978C49.0306 13.3478 48.3306 13.2478 47.6306 13.0478C47.1306 12.9478 46.6306 12.7478 46.1306 12.5978C42.5306 11.2478 39.6806 8.39776 38.3806 4.84776C38.1806 4.34776 38.0305 3.84776 37.9305 3.34776C37.7805 2.64776 37.6306 1.94776 37.5806 1.24776H42.3806C42.8306 5.09776 45.8806 8.14776 49.7306 8.59776V13.3978ZM49.7306 7.54776C46.4806 7.09776 43.8805 4.49776 43.4305 1.24776H49.7306V7.54776Z"/>
  <path d="M17.3315 25.1978C17.3315 29.8478 21.1315 33.6478 25.7815 33.6478C30.4315 33.6478 34.2315 29.8478 34.2315 25.1978C34.2315 20.5478 30.4315 16.7478 25.7815 16.7478C21.1315 16.7478 17.3315 20.5478 17.3315 25.1978ZM33.2315 25.1978C33.2315 29.2978 29.8815 32.6478 25.7815 32.6478C21.6815 32.6478 18.3315 29.2978 18.3315 25.1978C18.3315 21.0978 21.6815 17.7478 25.7815 17.7478C29.8815 17.7978 33.2315 21.0978 33.2315 25.1978Z"/>
</svg>
