<svg width="51" height="51" viewBox="0 0 51 51" xmlns="http://www.w3.org/2000/svg">
  <path d="M50.8306 0.197754H0.830566V50.1978H50.8306V0.197754ZM43.6806 36.1478C42.3306 38.3478 40.5806 40.2978 38.5306 41.8478V8.54776C40.5806 10.0978 42.3306 12.0478 43.6806 14.2478V36.1478ZM44.6806 16.0478C46.0306 18.7978 46.7806 21.8978 46.7806 25.1978C46.7806 28.4978 46.0306 31.5978 44.6806 34.3478V16.0478ZM32.4306 5.29776C34.2806 5.89776 35.9806 6.74776 37.5806 7.84776V42.5478C36.0306 43.5978 34.2806 44.4978 32.4306 45.0978V5.29776ZM31.4806 45.3978C29.6806 45.8978 27.7806 46.1478 25.8306 46.1478C14.2806 46.1478 4.88057 36.7478 4.88057 25.1978C4.88057 13.6478 14.2806 4.24776 25.8306 4.24776C27.7806 4.24776 29.6806 4.49776 31.4806 4.99776V45.3978ZM32.4306 4.19775V1.24776H37.5806V6.59776C35.9806 5.59776 34.2806 4.79775 32.4306 4.19775ZM37.5806 43.7978V49.1478H32.4306V46.1978C34.2806 45.5978 35.9806 44.7978 37.5806 43.7978ZM38.5806 43.1478C40.5806 41.7478 42.2806 39.9978 43.7306 38.0478V49.1978H38.5806V43.1478ZM38.5806 7.29776V1.29776H43.7306V12.4478C42.2806 10.3978 40.5306 8.69776 38.5806 7.29776ZM1.88057 1.24776H31.4806V3.94775C29.6806 3.44775 27.7806 3.19775 25.8306 3.19775C13.6806 3.19775 3.83057 13.0478 3.83057 25.1978C3.83057 37.3478 13.6806 47.1978 25.8306 47.1978C27.7806 47.1978 29.6806 46.9478 31.4806 46.4478V49.1478H1.88057V1.24776V1.24776ZM49.7806 49.1478H44.6806V36.5478C46.6806 33.2478 47.8306 29.3478 47.8306 25.1978C47.8306 21.0478 46.6806 17.1478 44.6806 13.8478V1.24776H49.7806V49.1478Z"/>
</svg>
