<svg width="51" height="51" viewBox="0 0 51 51" xmlns="http://www.w3.org/2000/svg">
  <path d="M0.830566 50.1978H50.8306V0.197754H0.830566V50.1978ZM25.2806 42.1478H8.83057V25.6978H25.2806V42.1478ZM26.3306 25.6978H42.7806V42.1478H26.3306V25.6978ZM42.7806 24.6478H26.3306V8.19775H42.7806V24.6478ZM25.2806 24.6478H8.83057V8.19775H25.2806V24.6478ZM8.53058 43.1978H26.3306H43.0806L49.0306 49.1478H2.58057L8.53058 43.1978ZM43.8306 42.4478V25.6978V7.89776L49.7806 1.94775V48.3978L43.8306 42.4478ZM43.0806 7.19775H25.2806H8.53058L2.58057 1.24776H49.0306L43.0806 7.19775ZM7.83057 7.94775V24.6978V42.4978L1.88057 48.4478V1.99776L7.83057 7.94775Z"/>
  <path d="M22.6802 10.8479H11.4302V22.0979H22.6802V10.8479ZM21.6302 21.0479H12.4802V11.8979H21.6302V21.0479Z"/>
  <path d="M28.9316 39.5476H40.1816V28.2976H28.9316V39.5476ZM29.9816 29.3476H39.1316V38.4976H29.9816V29.3476Z"/>
</svg>
