<svg width="51" height="51" viewBox="0 0 51 51" xmlns="http://www.w3.org/2000/svg">
  <path d="M50.8306 0.763184H0.830566V50.7632H50.8306V0.763184ZM34.5806 42.7132C30.0306 42.7132 26.3806 39.0132 26.3806 34.5132C26.3806 29.9632 30.0806 26.3132 34.5806 26.3132C39.1306 26.3132 42.7806 30.0132 42.7806 34.5132C42.8306 39.0132 39.1306 42.7132 34.5806 42.7132ZM42.8306 38.7632V42.7132H38.8806C40.5306 41.8132 41.9306 40.4632 42.8306 38.7632ZM34.5806 25.2132C29.4806 25.2132 25.3306 29.3632 25.3306 34.4632C25.3306 38.0132 27.3806 41.1132 30.3306 42.6632H8.88057V26.2132H26.3806V8.71319H42.8306V30.1632C41.2806 27.2632 38.1806 25.2132 34.5806 25.2132ZM8.88057 25.2132V8.76318H25.3306V25.2132H8.88057ZM43.1306 7.76318H26.3806H8.58057L2.63057 1.81319H49.0806L43.1306 7.76318ZM7.83057 8.51318V26.3132V43.0632L1.88057 49.0132V2.56319L7.83057 8.51318ZM8.58057 43.7632H43.1306L49.0806 49.7132H2.63057L8.58057 43.7632ZM43.8806 43.0132V8.46319L49.8306 2.51318V48.9632L43.8806 43.0132Z"/>
</svg>
