<svg width="50" height="50" viewBox="0 0 50 50" xmlns="http://www.w3.org/2000/svg">
  <path d="M50.001 0H0.000976562V50H50.001V0ZM25.101 24.15L13.551 12.7L25.001 1.25L36.501 12.75L25.101 24.15ZM24.151 24.9L12.701 36.45L1.25098 25L12.751 13.5L24.151 24.9ZM24.901 25.8L36.451 37.25L25.001 48.7L13.501 37.2L24.901 25.8ZM25.851 25.1L37.301 13.55L48.751 25L37.251 36.5L25.851 25.1ZM38.001 12.8L48.951 1.8V23.75L38.001 12.8ZM48.201 1.05L37.201 12.05L26.201 1.05H48.201V1.05ZM12.801 11.95L1.80098 1H23.751L12.801 11.95ZM1.05098 1.75L12.051 12.75L1.05098 23.75V1.75ZM11.951 37.15L1.00098 48.15V26.25L11.951 37.15ZM1.80098 48.95L12.801 37.95L23.801 48.95H1.80098ZM37.201 38L48.201 48.95H26.251L37.201 38ZM48.951 48.2L37.951 37.2L48.951 26.2V48.2Z"/>
</svg>
