<svg width="50" height="50" viewBox="0 0 50 50" xmlns="http://www.w3.org/2000/svg">
  <path d="M50.001 0H0.000976562V50H50.001V0ZM33.751 41.95C29.201 41.95 25.551 38.25 25.551 33.75C25.551 29.2 29.251 25.55 33.751 25.55C38.301 25.55 41.951 29.25 41.951 33.75C42.001 38.25 38.301 41.95 33.751 41.95ZM42.001 38V41.95H38.051C39.701 41.05 41.101 39.7 42.001 38ZM33.751 24.45C28.651 24.45 24.501 28.6 24.501 33.7C24.501 37.25 26.551 40.35 29.501 41.9H8.05098V25.45H25.551V7.95H42.001V29.4C40.451 26.5 37.351 24.45 33.751 24.45ZM8.05098 24.45V8H24.501V24.45H8.05098ZM42.301 7H25.551H7.75098L1.80098 1.05H48.251L42.301 7ZM7.00098 7.75V25.55V42.3L1.05098 48.25V1.8L7.00098 7.75ZM7.75098 43H42.301L48.251 48.95H1.80098L7.75098 43ZM43.051 42.25V7.7L49.001 1.75V48.2L43.051 42.25Z"/>
</svg>
