<svg width="51" height="51" viewBox="0 0 51 51" xmlns="http://www.w3.org/2000/svg">
  <path d="M8.57286 17.3477H0.830566V32.9976H8.57286H16.3152V17.3477H8.57286C8.62281 17.3477 8.62281 17.3477 8.57286 17.3477ZM1.92946 18.3977H4.77663C3.57783 19.0977 2.62877 20.0977 1.92946 21.2477V18.3977ZM1.92946 31.9476V29.0977C2.62877 30.2977 3.57783 31.2976 4.77663 31.9476H1.92946ZM15.2662 31.9476H12.469C13.6678 31.2476 14.6168 30.2477 15.3161 29.0977V31.9476H15.2662ZM8.6228 31.9476C4.92648 31.9476 1.92946 28.8977 1.92946 25.1977C1.92946 21.4477 4.92648 18.4477 8.6228 18.4477C12.3191 18.4477 15.3161 21.4977 15.3161 25.1977C15.2662 28.8977 12.2692 31.9476 8.6228 31.9476ZM15.2662 18.3977V21.2477C14.5669 20.0477 13.6178 19.0477 12.419 18.3977H15.2662Z"/>
  <path d="M25.8551 17.3477H18.1128V32.9976H25.8551H33.5974V17.3477H25.8551ZM19.1618 18.3977H22.0089C20.8101 19.0977 19.8611 20.0977 19.1618 21.2477V18.3977ZM19.1618 31.9476V29.0977C19.8611 30.2977 20.8101 31.2976 22.0089 31.9476H19.1618ZM32.5484 31.9476H29.7013C30.9001 31.2476 31.8491 30.2477 32.5484 29.0977V31.9476ZM25.8551 31.9476C22.1588 31.9476 19.1618 28.8977 19.1618 25.1977C19.1618 21.4477 22.1588 18.4477 25.8551 18.4477C29.5514 18.4477 32.5484 21.4977 32.5484 25.1977C32.5484 28.8977 29.5514 31.9476 25.8551 31.9476ZM32.5484 18.3977V21.2477C31.8491 20.0477 30.9001 19.0477 29.7013 18.3977H32.5484Z"/>
  <path d="M43.088 17.3477H35.3457V32.9976H43.088H50.8303V17.3477H43.088ZM36.3947 18.3977H39.2418C38.043 19.0977 37.094 20.0977 36.3947 21.2477V18.3977ZM36.3947 31.9476V29.0977C37.094 30.2977 38.043 31.2976 39.2418 31.9476H36.3947ZM49.7813 31.9476H46.9342C48.133 31.2476 49.082 30.2477 49.7813 29.0977V31.9476ZM43.088 31.9476C39.3917 31.9476 36.3947 28.8977 36.3947 25.1977C36.3947 21.4477 39.3917 18.4477 43.088 18.4477C46.7843 18.4477 49.7813 21.4977 49.7813 25.1977C49.7813 28.8977 46.7843 31.9476 43.088 31.9476ZM49.7813 18.3977V21.2477C49.082 20.0477 48.133 19.0477 46.9342 18.3977H49.7813Z"/>
  <path d="M0.878906 15.7977H16.3136V0.197754H0.878906V15.7977ZM15.2646 14.7477H12.4674C13.6662 14.0477 14.6152 13.0477 15.3145 11.8977V14.7477H15.2646ZM15.2646 1.24775V4.09775C14.5653 2.89775 13.6162 1.89775 12.4174 1.24775H15.2646ZM1.92786 1.24775H4.77504C3.57623 1.94775 2.62717 2.94775 1.92786 4.09775V1.24775ZM8.57126 1.24775C12.2676 1.24775 15.2646 4.29775 15.2646 7.99775C15.2646 11.7477 12.2676 14.7477 8.57126 14.7477C4.87494 14.7477 1.87791 11.6977 1.87791 7.99775C1.92786 4.24775 4.92489 1.24775 8.57126 1.24775ZM1.92786 11.8977C2.62717 13.0977 3.57623 14.0977 4.77504 14.7477H1.92786V11.8977Z"/>
  <path d="M18.1128 15.7977H33.5474V0.197754H18.1128V15.7977ZM32.5484 14.7477H29.7013C30.9001 14.0477 31.8491 13.0477 32.5484 11.8977V14.7477ZM32.5484 1.24775V4.09775C31.8491 2.89775 30.9001 1.89775 29.7013 1.24775H32.5484ZM19.1618 1.24775H22.0089C20.8101 1.94775 19.8611 2.94775 19.1618 4.09775V1.24775ZM25.8551 1.24775C29.5514 1.24775 32.5484 4.29775 32.5484 7.99775C32.5484 11.7477 29.5514 14.7477 25.8551 14.7477C22.1588 14.7477 19.1618 11.6977 19.1618 7.99775C19.1618 4.24775 22.1588 1.24775 25.8551 1.24775ZM19.1618 11.8977C19.8611 13.0977 20.8101 14.0977 22.0089 14.7477H19.1618V11.8977Z"/>
  <path d="M35.3457 0.197754V15.8477H50.7803V0.197754H35.3457ZM36.3947 1.24775H39.2418C38.043 1.94775 37.094 2.94775 36.3947 4.09775V1.24775ZM36.3947 14.7477V11.8977C37.094 13.0977 38.043 14.0977 39.2418 14.7477H36.3947ZM49.7813 14.7477H46.9342C48.133 14.0477 49.082 13.0477 49.7813 11.8977V14.7477ZM43.088 14.7477C39.3917 14.7477 36.3947 11.6977 36.3947 7.99775C36.3947 4.24775 39.3917 1.24775 43.088 1.24775C46.7843 1.24775 49.7813 4.29775 49.7813 7.99775C49.7813 11.6977 46.7843 14.7477 43.088 14.7477ZM49.7813 4.09775C49.082 2.89775 48.133 1.89775 46.9342 1.24775H49.7813V4.09775Z"/>
  <path d="M0.878906 50.1978H16.3136V34.5479H0.878906V50.1978ZM15.2646 49.1478H12.4674C13.6662 48.4478 14.6152 47.4478 15.3145 46.2978V49.1478H15.2646ZM15.2646 35.5979V38.4478C14.5653 37.2478 13.6162 36.2479 12.4174 35.5979H15.2646ZM1.92786 35.5979H4.77504C3.57623 36.2979 2.62717 37.2978 1.92786 38.4478V35.5979ZM8.57126 35.5979C12.2676 35.5979 15.2646 38.6478 15.2646 42.3478C15.2646 46.0978 12.2676 49.0978 8.57126 49.0978C4.87494 49.0978 1.87791 46.0478 1.87791 42.3478C1.92786 38.6478 4.92489 35.5979 8.57126 35.5979ZM1.92786 46.2478C2.62717 47.4478 3.57623 48.4478 4.77504 49.0978H1.92786V46.2478Z"/>
  <path d="M18.1128 50.1978H33.5474V34.5479H18.1128V50.1978ZM32.5484 49.1478H29.7013C30.9001 48.4478 31.8491 47.4478 32.5484 46.2978V49.1478ZM32.5484 35.5979V38.4478C31.8491 37.2478 30.9001 36.2479 29.7013 35.5979H32.5484ZM19.1618 35.5979H22.0089C20.8101 36.2979 19.8611 37.2978 19.1618 38.4478V35.5979ZM25.8551 35.5979C29.5514 35.5979 32.5484 38.6478 32.5484 42.3478C32.5484 46.0978 29.5514 49.0978 25.8551 49.0978C22.1588 49.0978 19.1618 46.0478 19.1618 42.3478C19.1618 38.6478 22.1588 35.5979 25.8551 35.5979ZM19.1618 46.2478C19.8611 47.4478 20.8101 48.4478 22.0089 49.0978H19.1618V46.2478Z"/>
  <path d="M35.3457 50.1978H50.7803V34.5479H35.3457V50.1978ZM49.7813 49.1478H46.9342C48.133 48.4478 49.082 47.4478 49.7813 46.2978V49.1478ZM49.7813 35.5979V38.4478C49.082 37.2478 48.133 36.2479 46.9342 35.5979H49.7813ZM36.3947 35.5979H39.2418C38.043 36.2979 37.094 37.2978 36.3947 38.4478V35.5979ZM43.088 35.5979C46.7843 35.5979 49.7813 38.6478 49.7813 42.3478C49.7813 46.0978 46.7843 49.0978 43.088 49.0978C39.3917 49.0978 36.3947 46.0478 36.3947 42.3478C36.3947 38.6478 39.3917 35.5979 43.088 35.5979ZM36.3947 46.2478C37.094 47.4478 38.043 48.4478 39.2418 49.0978H36.3947V46.2478Z"/>
</svg>
