<svg width="51" height="51" viewBox="0 0 51 51" xmlns="http://www.w3.org/2000/svg">
  <path d="M50.9502 16.3034V0.253418H0.950195V50.2534H50.9502V16.8534C50.9502 16.7534 50.9502 16.6534 50.9502 16.6034C50.9502 16.5034 50.9502 16.4034 50.9502 16.3034ZM1.9502 1.35342H28.9002C22.7002 3.65342 18.3002 9.60342 18.3002 16.6034C18.3002 19.9534 19.3502 23.1034 21.1002 25.7034C17.9002 27.0034 15.3502 29.5534 14.0502 32.7534C12.8502 32.2034 11.5002 31.8534 10.1002 31.8534C6.5502 31.8534 3.45021 33.9034 1.90021 36.8534V1.35342H1.9502ZM14.7002 34.2534C16.9002 35.7034 18.3502 38.2034 18.3502 41.0534C18.3502 42.6034 17.9002 44.0534 17.1502 45.2534C15.3002 43.2034 14.2002 40.4534 14.2002 37.5034C14.2002 36.4034 14.4002 35.3034 14.7002 34.2534ZM1.9502 49.2534V45.2534C2.8502 46.9534 4.20021 48.3534 5.90021 49.2534H1.9502ZM9.90021 49.2534C5.50021 49.1034 2.0002 45.5034 2.0002 41.1034C2.0002 36.6034 5.6502 32.9034 10.2002 32.9034C11.5002 32.9034 12.7002 33.2034 13.8002 33.7534C13.4002 34.9534 13.2002 36.2534 13.2002 37.5534C13.2002 40.9034 14.5002 43.9034 16.6002 46.2034C15.1502 48.0034 12.9502 49.2034 10.5002 49.3034H9.90021V49.2534ZM14.3502 49.2534C15.4502 48.6534 16.4502 47.8534 17.2502 46.9034C18.3002 47.8534 19.5002 48.7034 20.8502 49.2534H14.3502ZM17.9002 46.0034C18.8002 44.5534 19.3502 42.8534 19.3502 41.0534C19.3502 37.7534 17.6002 34.9034 15.0002 33.2534C16.2002 30.2034 18.6502 27.7534 21.7502 26.5534C24.7502 30.4034 29.4002 32.8534 34.6002 32.8534C35.2502 32.8534 35.9502 32.8034 36.6002 32.7034C37.2502 34.1534 37.6002 35.7534 37.6002 37.4534C37.6002 43.9034 32.3502 49.1534 25.9002 49.1534C22.8002 49.2534 20.0002 48.0034 17.9002 46.0034ZM22.8002 26.2534C23.8002 26.0034 24.8502 25.8034 25.9002 25.8034C30.2502 25.8034 34.1002 28.2034 36.1002 31.7534C35.6002 31.8034 35.1002 31.8534 34.6002 31.8534C29.9002 31.8534 25.6502 29.6534 22.8002 26.2534ZM49.9002 49.2534H31.0002C35.5502 47.3034 38.7002 42.8034 38.7002 37.5534C38.7002 35.8034 38.3502 34.1534 37.7002 32.6034C43.3002 31.5534 47.9002 27.5534 49.9002 22.3034V49.2534ZM49.9002 16.8534C49.7502 24.2534 44.3502 30.4034 37.2502 31.6034C35.1002 27.5534 30.8502 24.7534 25.9502 24.7534C24.6502 24.7534 23.3502 24.9534 22.1502 25.3034C20.4002 22.8034 19.4002 19.8034 19.4002 16.5534C19.4002 8.15341 26.2502 1.30342 34.6502 1.30342C42.9502 1.30342 49.7502 8.00341 49.9002 16.3034V16.8534ZM49.9002 10.8534C48.2502 6.45342 44.7502 2.95342 40.3502 1.30342H49.9002V10.8534Z"/>
  <path d="M9.05038 13.5534C11.9004 13.5534 14.2004 11.2534 14.2004 8.40341C14.2004 5.55341 11.9004 3.25342 9.05038 3.25342C6.20038 3.25342 3.90039 5.55341 3.90039 8.40341C3.90039 11.2534 6.20038 13.5534 9.05038 13.5534ZM9.05038 4.25342C11.3504 4.25342 13.2004 6.10341 13.2004 8.40341C13.2004 10.7034 11.3504 12.5534 9.05038 12.5534C6.75038 12.5534 4.90039 10.7034 4.90039 8.40341C4.90039 6.10341 6.75038 4.25342 9.05038 4.25342Z"/>
</svg>
