<svg width="51" height="51" viewBox="0 0 51 51" xmlns="http://www.w3.org/2000/svg">
  <path d="M31.5102 50.4033L5.41015 50.4033L0.910154 50.4033L0.910156 0.40332L50.9102 0.403322L50.9102 50.4033L31.5102 50.4033ZM30.4602 35.5533C27.0602 35.4533 23.9102 34.2533 21.4102 32.3533L7.61015 49.4033L30.4602 49.4033L30.4602 35.5533ZM16.1102 19.7033C16.1102 24.1533 18.1102 28.2033 21.2602 30.9033L25.0602 26.2033C23.3102 24.6033 22.1602 22.2533 22.1602 19.7033C22.1602 14.8033 26.1102 10.8533 31.0102 10.8533C35.9102 10.8533 39.8602 14.8033 39.8602 19.7033C39.8602 24.4033 36.1602 28.2533 31.5602 28.5033L31.5602 34.5533C39.5102 34.2533 45.9102 27.7533 45.9102 19.7033C45.9102 11.5033 39.2602 4.80332 31.0102 4.80332C22.7602 4.80332 16.1102 11.4533 16.1102 19.7033ZM31.5102 18.2033L31.5102 27.4533C35.5602 27.2033 38.7602 23.8033 38.7602 19.7033C38.7602 15.4033 35.2602 11.9033 30.9602 11.9033C26.6602 11.9033 23.1602 15.4033 23.1602 19.7033C23.1602 21.9533 24.1102 24.0033 25.6602 25.4033L31.5102 18.2033ZM26.5102 26.0533C27.6602 26.8533 29.0102 27.3533 30.4602 27.4533L30.4602 21.1533L26.5102 26.0533ZM30.4602 28.5033C28.7602 28.4033 27.1602 27.8033 25.8602 26.8533L22.0602 31.5533C24.4102 33.3533 27.3102 34.4033 30.4602 34.5533L30.4602 28.5033ZM49.8602 1.45333L1.96016 1.45332L1.96016 49.3533L6.26016 49.3533L20.5602 31.6533C17.2102 28.7533 15.0602 24.4533 15.0602 19.6533C15.0602 10.8533 22.2102 3.75333 30.9602 3.75333C39.7602 3.75333 46.8602 10.9033 46.8602 19.6533C46.8602 28.2533 40.0102 35.2533 31.4602 35.5533L31.4602 49.3533L49.8102 49.3533L49.8102 1.45333L49.8602 1.45333Z"/>
</svg>
