<svg width="16" height="16" viewBox="0 0 16 16" fill="none" xmlns="http://www.w3.org/2000/svg">
<path d="M13.2966 2.21177C12.9324 1.84254 12.4917 1.55533 12.0078 1.37301C11.5491 1.19577 11.0305 1.07502 10.2896 1.04231C9.56436 1.00788 9.33051 1 7.5065 1C5.68201 1 5.44895 1.00789 4.72661 1.03962C3.9858 1.07228 3.46425 1.19308 3.00744 1.3705C2.519 1.55525 2.08053 1.83968 1.71565 2.21255M13.2966 2.21177L13.2946 2.20982L13.0935 2.41562L13.2985 2.21374L13.2966 2.21177ZM13.2966 2.21177C13.6694 2.57665 13.9539 3.01511 14.1386 3.50343C14.3162 3.96039 14.4368 4.48191 14.4695 5.22267C14.5013 5.94587 14.5039 6.17995 14.5039 8.00262C14.5039 9.82711 14.496 10.0602 14.4643 10.7825C14.4316 11.5243 14.3105 12.0433 14.1331 12.5025C13.755 13.4803 12.9819 14.2535 12.0041 14.6317M12.0041 14.6317L11.9 14.3634M12.0041 14.6317C11.5469 14.8094 11.0252 14.9303 10.2839 14.9629C9.56149 14.9948 9.3284 15.0026 7.50394 15.0026C5.67949 15.0026 5.44629 14.9948 4.724 14.9629C3.98278 14.9303 3.46416 14.8095 3.00522 14.6322C2.52115 14.4499 2.08027 14.1625 1.71605 13.7931M1.71605 13.7931L1.71763 13.7946L1.91951 13.5896L1.71449 13.7915L1.71605 13.7931ZM1.71605 13.7931C1.34686 13.4291 1.05961 12.9911 0.8745 12.5018C0.69697 12.0449 0.576177 11.5234 0.543515 10.7826C0.511786 10.0602 0.503891 9.82711 0.503891 8.00262C0.503891 6.17861 0.511775 5.94476 0.5462 5.21953C0.578909 4.47863 0.699674 3.96013 0.876901 3.50128C1.05931 3.01746 1.34638 2.57672 1.71565 2.21255M1.71565 2.21255L1.71371 2.21454L1.91951 2.41562L1.71763 2.2106L1.71565 2.21255Z" stroke="black"/>
<path d="M7.50543 4.55225C5.60119 4.55225 4.05618 6.09715 4.05618 8.0015C4.05618 9.90584 5.60119 11.4507 7.50543 11.4507C9.40977 11.4507 10.9547 9.90584 10.9547 8.0015C10.9547 6.09715 9.40977 4.55225 7.50543 4.55225Z" stroke="black"/>
<path fill-rule="evenodd" clip-rule="evenodd" d="M10.6067 3.94792C10.6067 3.54084 10.9367 3.21094 11.3437 3.21094C11.7507 3.21094 12.0807 3.54082 12.0807 3.94792C12.0807 4.35492 11.7507 4.68489 11.3437 4.68489C10.9367 4.68489 10.6067 4.35491 10.6067 3.94792Z" stroke="black"/>
</svg>
