<svg width="12" height="12" viewBox="0 0 12 12" fill="none" xmlns="http://www.w3.org/2000/svg">
<path d="M10.1376 1.86555C9.87753 1.60181 9.56273 1.39667 9.2171 1.26643C8.88941 1.13984 8.51897 1.05358 7.98979 1.03022C7.47176 1.00563 7.30473 1 6.00187 1C4.69866 1 4.53219 1.00564 4.01623 1.0283C3.48708 1.05163 3.11454 1.13791 2.78825 1.26464C2.43937 1.39661 2.12617 1.59977 1.86554 1.86611M10.1376 1.86555L10.1362 1.86415L9.99258 2.01116L10.139 1.86696L10.1376 1.86555ZM10.1376 1.86555C10.404 2.12618 10.6071 2.43936 10.7391 2.78816C10.8659 3.11456 10.9521 3.48708 10.9754 4.0162C10.9981 4.53277 11 4.69996 11 6.00187C11 7.30508 10.9944 7.47155 10.9717 7.98751C10.9483 8.51737 10.8619 8.88809 10.7352 9.21607C10.4651 9.91448 9.91287 10.4668 9.21441 10.7369M9.21441 10.7369L9.1401 10.5453M9.21441 10.7369C8.8879 10.8639 8.51521 10.9502 7.98571 10.9735C7.46971 10.9963 7.30322 11.0018 6.00004 11.0018C4.69686 11.0018 4.53029 10.9963 4.01437 10.9735C3.48492 10.9502 3.11448 10.8639 2.78666 10.7373C2.4409 10.607 2.12599 10.4018 1.86583 10.1379M1.86583 10.1379L1.86696 10.139L2.01116 9.99258L1.86471 10.1368L1.86583 10.1379ZM1.86583 10.1379C1.60212 9.87793 1.39694 9.56504 1.26472 9.21558C1.13791 8.8892 1.05163 8.51669 1.0283 7.98754C1.00564 7.47158 1 7.30508 1 6.00187C1 4.69901 1.00563 4.53197 1.03022 4.01395C1.05358 3.48474 1.13985 3.11438 1.26644 2.78663C1.39673 2.44104 1.60178 2.12623 1.86554 1.86611M1.86554 1.86611L1.86415 1.86753L2.01116 2.01116L1.86696 1.86471L1.86554 1.86611Z" stroke="black"/>
<path d="M6.00086 3.53772C4.64069 3.53772 3.53711 4.64123 3.53711 6.00147C3.53711 7.36171 4.64069 8.46522 6.00086 8.46522C7.3611 8.46522 8.46461 7.36171 8.46461 6.00147C8.46461 4.64123 7.3611 3.53772 6.00086 3.53772Z" stroke="black"/>
<path fill-rule="evenodd" clip-rule="evenodd" d="M8.2168 3.10588C8.2168 2.81511 8.4525 2.57947 8.74318 2.57947C9.03391 2.57947 9.26962 2.8151 9.26962 3.10588C9.26962 3.3966 9.03392 3.63229 8.74318 3.63229C8.45249 3.63229 8.2168 3.39659 8.2168 3.10588Z" stroke="black"/>
</svg>
