<svg width="51" height="51" viewBox="0 0 51 51" xmlns="http://www.w3.org/2000/svg">
  <path d="M26.227.927H.727v50h50v-50h-24.5zm-1.05 11.4h-13.05v13.05H1.777c.3-12.8 10.65-23.15 23.4-23.4v10.35zm13.05 13.05h-12v-12h12v12zm-25.1 1.05h12v12h-12v-12zm13.1 0h12v12h-12v-12zm-1.05-1.05h-12v-12h12v12zm-13.1 1.05v13.05h13.05v10.35c-12.8-.3-23.15-10.65-23.4-23.4h10.35zm14.15 13.05h13.05v-13.05h10.35c-.3 12.8-10.65 23.15-23.4 23.4v-10.35zm13.05-14.1v-13.05h-13.05V1.977c12.8.3 23.15 10.65 23.4 23.4h-10.35zm-37.55-23.4h16.8c-8.05 2.4-14.4 8.75-16.8 16.8v-16.8zm0 47.9v-16.8c2.4 8.05 8.75 14.4 16.8 16.8h-16.8zm31.1 0c8.05-2.4 14.4-8.75 16.8-16.8v16.8h-16.8zm0-47.9h16.8v16.8c-2.4-8.05-8.75-14.4-16.8-16.8z"/>
</svg>
