<svg width="51" height="50" viewBox="0 0 51 50" fill="none" xmlns="http://www.w3.org/2000/svg">
<path d="M30.6093 50L4.50928 50L0.00927516 50L0.00927734 0L50.0093 2.18557e-06L50.0093 50L30.6093 50ZM29.5593 35.15C26.1593 35.05 23.0093 33.85 20.5093 31.95L6.70927 49L29.5593 49L29.5593 35.15ZM15.2093 19.3C15.2093 23.75 17.2093 27.8 20.3593 30.5L24.1593 25.8C22.4093 24.2 21.2593 21.85 21.2593 19.3C21.2593 14.4 25.2093 10.45 30.1093 10.45C35.0093 10.45 38.9593 14.4 38.9593 19.3C38.9593 24 35.2593 27.85 30.6593 28.1L30.6593 34.15C38.6093 33.85 45.0093 27.35 45.0093 19.3C45.0093 11.1 38.3593 4.4 30.1093 4.4C21.8593 4.39999 15.2093 11.05 15.2093 19.3ZM30.6093 17.8L30.6093 27.05C34.6593 26.8 37.8593 23.4 37.8593 19.3C37.8593 15 34.3593 11.5 30.0593 11.5C25.7593 11.5 22.2593 15 22.2593 19.3C22.2593 21.55 23.2093 23.6 24.7593 25L30.6093 17.8ZM25.6093 25.65C26.7593 26.45 28.1093 26.95 29.5593 27.05L29.5593 20.75L25.6093 25.65ZM29.5593 28.1C27.8593 28 26.2593 27.4 24.9593 26.45L21.1593 31.15C23.5093 32.95 26.4093 34 29.5593 34.15L29.5593 28.1ZM48.9593 1.05001L1.05928 1.05L1.05928 48.95L5.35928 48.95L19.6593 31.25C16.3093 28.35 14.1593 24.05 14.1593 19.25C14.1593 10.45 21.3093 3.35001 30.0593 3.35001C38.8593 3.35001 45.9593 10.5 45.9593 19.25C45.9593 27.85 39.1093 34.85 30.5593 35.15L30.5593 48.95L48.9093 48.95L48.9093 1.05001L48.9593 1.05001Z" fill="black"/>
</svg>
