<svg width="51" height="51" viewBox="0 0 51 51" xmlns="http://www.w3.org/2000/svg">
  <path d="M.727.927v50h50v-50h-50zm1.05 1.05h23.3l-23.25 23.25V1.977h-.05zm0 47.9v-23.25l23.25 23.25H1.777zm23.45-1.3l-22.65-22.65 22.65-22.65v45.3zm1.05-46.6h7.45c-3.35 1.2-6.05 3.75-7.45 6.95v-6.95zm23.4 47.9h-23.45v-30.85c1.95 4.55 6.45 7.7 11.7 7.7 5.25 0 9.75-3.2 11.7-7.7v30.85h.05zm-11.7-24.15c-6.45 0-11.7-5.25-11.7-11.7 0-6.45 5.25-11.7 11.7-11.7 6.45 0 11.7 5.25 11.7 11.7 0 6.45-5.25 11.7-11.7 11.7zm11.7-16.8c-1.4-3.25-4.1-5.75-7.45-6.95h7.45v6.95z"/>
  <path d="M32.3 43.904h11.267v-11.28H32.299v11.28zm1.051-10.227h9.164v9.174h-9.164v-9.173z"/>
</svg>
