<svg width="51" height="51" viewBox="0 0 51 51" xmlns="http://www.w3.org/2000/svg">
  <path d="M.312.927v50h50v-50h-50zm1.05 1.05h16.8c-8.05 2.4-14.4 8.75-16.8 16.8v-16.8zm0 47.9v-16.8c2.4 8.05 8.75 14.4 16.8 16.8h-16.8zm4.8-19.2c0-10.55 8.6-19.15 19.15-19.15 10.55 0 19.15 8.6 19.15 19.15 0 7.15-3.9 13.35-9.7 16.65 3.05-2.65 5-6.55 5-10.9 0-7.95-6.45-14.45-14.45-14.45-7.95 0-14.45 6.45-14.45 14.45 0 4.35 1.95 8.25 5 10.9-5.8-3.25-9.7-9.5-9.7-16.65zm19.85 19.15c-.25 0-.45.05-.7.05-.25 0-.45 0-.7-.05a6.73 6.73 0 01-6.05-6.7c0-3.7 3-6.75 6.75-6.75 3.7 0 6.75 3 6.75 6.75 0 3.5-2.7 6.35-6.05 6.7zm7.05-6.7c0-4.3-3.5-7.75-7.75-7.75s-7.75 3.5-7.75 7.75c0 2.2.9 4.15 2.35 5.6-4.7-2.1-8-6.8-8-12.25 0-7.4 6-13.4 13.4-13.4s13.4 6 13.4 13.4c0 5.45-3.3 10.15-8 12.25 1.45-1.45 2.35-3.4 2.35-5.6zm16.2 6.75h-16.8c8.05-2.4 14.4-8.75 16.8-16.8v16.8zm-10.25-4.35c4-3.7 6.5-9 6.5-14.85 0-11.15-9.05-20.2-20.2-20.2-11.15 0-20.2 9.05-20.2 20.2 0 5.85 2.5 11.15 6.5 14.85-6.2-4.35-10.25-11.5-10.25-19.65 0-13.2 10.75-23.95 23.95-23.95s23.95 10.75 23.95 23.95c0 8.15-4.05 15.35-10.25 19.65zm10.25-26.75c-2.4-8.05-8.75-14.4-16.8-16.8h16.8v16.8z"/>
</svg>
