<svg width="51" height="51" viewBox="0 0 51 51" xmlns="http://www.w3.org/2000/svg">
  <path d="M.727 50.927h50v-50h-50v50zm41.95-26.1l-15.85-15.85h15.85v15.85zm0 2.2v15.85h-15.85l15.85-15.85zm-16.95 15.45l-16.55-16.55 16.55-16.55 16.55 16.55-16.55 16.55zm-16.95-17.65V8.977h15.85l-15.85 15.85zm15.85 18.05H8.777v-15.85l15.85 15.85zm-16.15 1.05h17.2l.05.05.05-.05h17.2l5.95 5.95H2.477l6-5.95zm35.25-.75v-17.2l.05-.05-.05-.05v-17.2l5.95-5.95v46.45l-5.95-6zm-.75-35.25h-17.2l-.05-.05-.05.05h-17.2l-5.95-5.95h46.45l-6 5.95zm-35.25.75v17.2l-.05.05.05.05v17.2l-5.95 5.95V2.677l5.95 6z"/>
</svg>
