<svg width="51" height="51" viewBox="0 0 51 51" xmlns="http://www.w3.org/2000/svg">
  <path d="M30.912 50.927H.312v-50h50v50h-19.4zm-1.05-14.85c-3.4-.1-6.55-1.3-9.05-3.2l-13.8 17.05h22.85v-13.85zm-14.35-15.85c0 4.45 2 8.5 5.15 11.2l3.8-4.7c-1.75-1.6-2.9-3.95-2.9-6.5 0-4.9 3.95-8.85 8.85-8.85 4.9 0 8.85 3.95 8.85 8.85 0 4.7-3.7 8.55-8.3 8.8v6.05c7.95-.3 14.35-6.8 14.35-14.85 0-8.2-6.65-14.9-14.9-14.9s-14.9 6.65-14.9 14.9zm15.4-1.5v9.25c4.05-.25 7.25-3.65 7.25-7.75 0-4.3-3.5-7.8-7.8-7.8s-7.8 3.5-7.8 7.8c0 2.25.95 4.3 2.5 5.7l5.85-7.2zm-5 7.85c1.15.8 2.5 1.3 3.95 1.4v-6.3l-3.95 4.9zm3.95 2.45c-1.7-.1-3.3-.7-4.6-1.65l-3.8 4.7c2.35 1.8 5.25 2.85 8.4 3v-6.05zm19.4-27.05h-47.9v47.9h4.3l14.3-17.7c-3.35-2.9-5.5-7.2-5.5-12 0-8.8 7.15-15.9 15.9-15.9 8.8 0 15.9 7.15 15.9 15.9 0 8.6-6.85 15.6-15.4 15.9v13.8h18.35v-47.9h.05z"/>
</svg>
