<svg width="51" height="51" viewBox="0 0 51 51" xmlns="http://www.w3.org/2000/svg">
  <path d="M.312 1.477v49.45h50v-50h-50v.55zm3.35 6.8l20.8 41.6h-6.95l-13.85-41.6zm12.75 41.6h-7.6l-6.55-42.4 14.15 42.4zM5.062 8.727l27.45 41.15h-6.9L5.062 8.727zm1.65.6l33.8 40.55h-6.75L6.712 9.327zm1.9.65l39.9 39.9h-6.65l-33.25-39.9zm38.35 33.6l-20.8-41.6h6.95l13.85 41.6zm-12.75-41.6h7.6l6.55 42.4-14.15-42.4zm11.35 41.15l-27.45-41.15h6.85l20.6 41.15zm-1.65-.6l-33.8-40.55h6.75l27.05 40.55zm-1.9-.65l-39.9-39.9h6.65l33.25 39.9zm-40.65-33.6l6.4 41.6h-6.4v-41.6zm47.9 35.3l-6.4-41.6h6.4v41.6z"/>
</svg>
