<svg width="50" height="50" viewBox="0 0 50 50" fill="none" xmlns="http://www.w3.org/2000/svg">
<path d="M7.74229 17.1501H0V32.8H7.74229H15.4846V17.1501H7.74229C7.79224 17.1501 7.79224 17.1501 7.74229 17.1501ZM1.0989 18.2001H3.94607C2.74726 18.9001 1.7982 19.9001 1.0989 21.0501V18.2001ZM1.0989 31.75V28.9001C1.7982 30.1 2.74726 31.1 3.94607 31.75H1.0989ZM14.4356 31.75H11.6384C12.8372 31.05 13.7863 30.0501 14.4856 28.9001V31.75H14.4356ZM7.79223 31.75C4.09591 31.75 1.0989 28.7 1.0989 25.0001C1.0989 21.2501 4.09591 18.2501 7.79223 18.2501C11.4886 18.2501 14.4856 21.3001 14.4856 25.0001C14.4356 28.7 11.4386 31.75 7.79223 31.75ZM14.4356 18.2001V21.0501C13.7363 19.8501 12.7873 18.8501 11.5885 18.2001H14.4356Z" fill="black" fill-opacity="0.5"/>
<path d="M25.0255 17.1501H17.2832V32.8H25.0255H32.7678V17.1501H25.0255ZM18.3322 18.2001H21.1793C19.9805 18.9001 19.0315 19.9001 18.3322 21.0501V18.2001ZM18.3322 31.75V28.9001C19.0315 30.1 19.9805 31.1 21.1793 31.75H18.3322ZM31.7188 31.75H28.8717C30.0705 31.05 31.0195 30.0501 31.7188 28.9001V31.75ZM25.0255 31.75C21.3292 31.75 18.3322 28.7 18.3322 25.0001C18.3322 21.2501 21.3292 18.2501 25.0255 18.2501C28.7218 18.2501 31.7188 21.3001 31.7188 25.0001C31.7188 28.7 28.7218 31.75 25.0255 31.75ZM31.7188 18.2001V21.0501C31.0195 19.8501 30.0705 18.8501 28.8717 18.2001H31.7188Z" fill="black" fill-opacity="0.5"/>
<path d="M42.2579 17.1501H34.5156V32.8H42.2579H50.0002V17.1501H42.2579ZM35.5646 18.2001H38.4118C37.2129 18.9001 36.2639 19.9001 35.5646 21.0501V18.2001ZM35.5646 31.75V28.9001C36.2639 30.1 37.2129 31.1 38.4118 31.75H35.5646ZM48.9513 31.75H46.1041C47.3029 31.05 48.252 30.0501 48.9513 28.9001V31.75ZM42.2579 31.75C38.5616 31.75 35.5646 28.7 35.5646 25.0001C35.5646 21.2501 38.5616 18.2501 42.2579 18.2501C45.9542 18.2501 48.9513 21.3001 48.9513 25.0001C48.9513 28.7 45.9542 31.75 42.2579 31.75ZM48.9513 18.2001V21.0501C48.252 19.8501 47.3029 18.8501 46.1041 18.2001H48.9513Z" fill="black" fill-opacity="0.5"/>
<path d="M0.0488281 15.6001H15.4835V6.10352e-05H0.0488281V15.6001ZM14.4345 14.5501H11.6373C12.8361 13.8501 13.7852 12.8501 14.4845 11.7001V14.5501H14.4345ZM14.4345 1.05006V3.90006C13.7352 2.70006 12.7861 1.70006 11.5873 1.05006H14.4345ZM1.09779 1.05006H3.94496C2.74615 1.75006 1.79709 2.75006 1.09779 3.90006V1.05006ZM7.74118 1.05006C11.4375 1.05006 14.4345 4.10006 14.4345 7.80006C14.4345 11.5501 11.4375 14.5501 7.74118 14.5501C4.04486 14.5501 1.04783 11.5001 1.04783 7.80006C1.09778 4.05006 4.09481 1.05006 7.74118 1.05006ZM1.09779 11.7001C1.79709 12.9001 2.74615 13.9001 3.94496 14.5501H1.09779V11.7001Z" fill="black" fill-opacity="0.5"/>
<path d="M17.2832 15.6001H32.7178V6.10352e-05H17.2832V15.6001ZM31.7188 14.5501H28.8717C30.0705 13.8501 31.0195 12.8501 31.7188 11.7001V14.5501ZM31.7188 1.05006V3.90006C31.0195 2.70006 30.0705 1.70006 28.8717 1.05006H31.7188ZM18.3322 1.05006H21.1793C19.9805 1.75006 19.0315 2.75006 18.3322 3.90006V1.05006ZM25.0255 1.05006C28.7218 1.05006 31.7188 4.10006 31.7188 7.80006C31.7188 11.5501 28.7218 14.5501 25.0255 14.5501C21.3292 14.5501 18.3322 11.5001 18.3322 7.80006C18.3322 4.05006 21.3292 1.05006 25.0255 1.05006ZM18.3322 11.7001C19.0315 12.9001 19.9805 13.9001 21.1793 14.5501H18.3322V11.7001Z" fill="black" fill-opacity="0.5"/>
<path d="M34.5156 6.10352e-05V15.6501H49.9503V6.10352e-05H34.5156ZM35.5646 1.05006H38.4118C37.2129 1.75006 36.2639 2.75006 35.5646 3.90006V1.05006ZM35.5646 14.5501V11.7001C36.2639 12.9001 37.2129 13.9001 38.4118 14.5501H35.5646ZM48.9513 14.5501H46.1041C47.3029 13.8501 48.252 12.8501 48.9513 11.7001V14.5501ZM42.2579 14.5501C38.5616 14.5501 35.5646 11.5001 35.5646 7.80006C35.5646 4.05006 38.5616 1.05006 42.2579 1.05006C45.9542 1.05006 48.9513 4.10006 48.9513 7.80006C48.9513 11.5001 45.9542 14.5501 42.2579 14.5501ZM48.9513 3.90006C48.252 2.70006 47.3029 1.70006 46.1041 1.05006H48.9513V3.90006Z" fill="black" fill-opacity="0.5"/>
<path d="M0.0488281 50.0001H15.4835V34.3501H0.0488281V50.0001ZM14.4345 48.9501H11.6373C12.8361 48.2501 13.7852 47.2501 14.4845 46.1001V48.9501H14.4345ZM14.4345 35.4001V38.2501C13.7352 37.0501 12.7861 36.0501 11.5873 35.4001H14.4345ZM1.09779 35.4001H3.94496C2.74615 36.1001 1.79709 37.1001 1.09779 38.2501V35.4001ZM7.74118 35.4001C11.4375 35.4001 14.4345 38.4501 14.4345 42.1501C14.4345 45.9001 11.4375 48.9001 7.74118 48.9001C4.04486 48.9001 1.04783 45.8501 1.04783 42.1501C1.09778 38.4501 4.09481 35.4001 7.74118 35.4001ZM1.09779 46.0501C1.79709 47.2501 2.74615 48.2501 3.94496 48.9001H1.09779V46.0501Z" fill="black" fill-opacity="0.5"/>
<path d="M17.2832 50.0001H32.7178V34.3501H17.2832V50.0001ZM31.7188 48.9501H28.8717C30.0705 48.2501 31.0195 47.2501 31.7188 46.1001V48.9501ZM31.7188 35.4001V38.2501C31.0195 37.0501 30.0705 36.0501 28.8717 35.4001H31.7188ZM18.3322 35.4001H21.1793C19.9805 36.1001 19.0315 37.1001 18.3322 38.2501V35.4001ZM25.0255 35.4001C28.7218 35.4001 31.7188 38.4501 31.7188 42.1501C31.7188 45.9001 28.7218 48.9001 25.0255 48.9001C21.3292 48.9001 18.3322 45.8501 18.3322 42.1501C18.3322 38.4501 21.3292 35.4001 25.0255 35.4001ZM18.3322 46.0501C19.0315 47.2501 19.9805 48.2501 21.1793 48.9001H18.3322V46.0501Z" fill="black" fill-opacity="0.5"/>
<path d="M34.5156 50.0001H49.9503V34.3501H34.5156V50.0001ZM48.9513 48.9501H46.1041C47.3029 48.2501 48.252 47.2501 48.9513 46.1001V48.9501ZM48.9513 35.4001V38.2501C48.252 37.0501 47.3029 36.0501 46.1041 35.4001H48.9513ZM35.5646 35.4001H38.4118C37.2129 36.1001 36.2639 37.1001 35.5646 38.2501V35.4001ZM42.2579 35.4001C45.9542 35.4001 48.9513 38.4501 48.9513 42.1501C48.9513 45.9001 45.9542 48.9001 42.2579 48.9001C38.5616 48.9001 35.5646 45.8501 35.5646 42.1501C35.5646 38.4501 38.5616 35.4001 42.2579 35.4001ZM35.5646 46.0501C36.2639 47.2501 37.2129 48.2501 38.4118 48.9001H35.5646V46.0501Z" fill="black" fill-opacity="0.5"/>
</svg>
