<svg width="50" height="50" viewBox="0 0 50 50" fill="none" xmlns="http://www.w3.org/2000/svg">
<path d="M0 50H50V3.05176e-05H0V50ZM24.45 41.95H8V25.5H24.45V41.95ZM25.5 25.5H41.95V41.95H25.5V25.5ZM41.95 24.45H25.5V8.00003H41.95V24.45ZM24.45 24.45H8V8.00003H24.45V24.45ZM7.70001 43H25.5H42.25L48.2 48.95H1.75L7.70001 43ZM43 42.25V25.5V7.70004L48.95 1.75003V48.2L43 42.25ZM42.25 7.00003H24.45H7.70001L1.75 1.05003H48.2L42.25 7.00003ZM7 7.75003V24.5V42.3L1.05 48.25V1.80003L7 7.75003Z" fill="black" fill-opacity="0.5"/>
<path d="M21.8496 10.6501H10.5996V21.9001H21.8496V10.6501ZM20.7996 20.8501H11.6496V11.7001H20.7996V20.8501Z" fill="black" fill-opacity="0.5"/>
<path d="M28.1016 39.35H39.3516V28.1H28.1016V39.35ZM29.1516 29.15H38.3016V38.3H29.1516V29.15Z" fill="black" fill-opacity="0.5"/>
</svg>
