<svg width="50" height="50" viewBox="0 0 50 50" fill="none" xmlns="http://www.w3.org/2000/svg">
<path d="M50 9.15527e-05H0V50.0001H50V9.15527e-05ZM42.85 35.9501C41.5 38.1501 39.75 40.1001 37.7 41.6501V8.3501C39.75 9.9001 41.5 11.8501 42.85 14.0501V35.9501ZM43.85 15.8501C45.2 18.6001 45.95 21.7001 45.95 25.0001C45.95 28.3001 45.2 31.4001 43.85 34.1501V15.8501ZM31.6 5.1001C33.45 5.7001 35.15 6.5501 36.75 7.6501V42.3501C35.2 43.4001 33.45 44.3001 31.6 44.9001V5.1001ZM30.65 45.2001C28.85 45.7001 26.95 45.9501 25 45.9501C13.45 45.9501 4.05 36.5501 4.05 25.0001C4.05 13.4501 13.45 4.05009 25 4.05009C26.95 4.05009 28.85 4.30009 30.65 4.80009V45.2001ZM31.6 4.00009V1.05009H36.75V6.4001C35.15 5.4001 33.45 4.60009 31.6 4.00009ZM36.75 43.6001V48.9501H31.6V46.0001C33.45 45.4001 35.15 44.6001 36.75 43.6001ZM37.75 42.9501C39.75 41.5501 41.45 39.8001 42.9 37.8501V49.0001H37.75V42.9501ZM37.75 7.1001V1.1001H42.9V12.2501C41.45 10.2001 39.7 8.5001 37.75 7.1001ZM1.05 1.05009H30.65V3.75009C28.85 3.25009 26.95 3.00009 25 3.00009C12.85 3.00009 3 12.8501 3 25.0001C3 37.1501 12.85 47.0001 25 47.0001C26.95 47.0001 28.85 46.7501 30.65 46.2501V48.9501H1.05V1.05009ZM48.95 48.9501H43.85V36.3501C45.85 33.0501 47 29.1501 47 25.0001C47 20.8501 45.85 16.9501 43.85 13.6501V1.05009H48.95V48.9501Z" fill="black" fill-opacity="0.5"/>
</svg>
