<svg width="50" height="50" viewBox="0 0 50 50" fill="none" xmlns="http://www.w3.org/2000/svg">
<path d="M0 0.00012207V50.0001H50V0.00012207H0ZM1.05 48.9501V34.6501C8.85 34.9001 15.1 41.2001 15.35 48.9501H1.05ZM49 48.9501H16.45C16.2 40.6001 9.45001 33.8501 1.10001 33.6001V1.05013H33.65C33.85 9.45013 40.6 16.2501 49 16.5501V48.9501ZM49 15.4501C41.2 15.2001 34.9 8.85013 34.7 1.00012H49V15.4501Z" fill="black" fill-opacity="0.5"/>
<path d="M25.0016 7.65012C16.2516 7.65012 9.10156 14.8001 9.10156 23.5501C9.10156 32.3001 16.2516 39.4501 25.0016 39.4501C33.7516 39.4501 40.9016 32.3001 40.9016 23.5501C40.9016 14.8001 33.8016 7.65012 25.0016 7.65012ZM25.0016 38.4501C16.8016 38.4501 10.1516 31.8001 10.1516 23.6001C10.1516 15.4001 16.8016 8.75009 25.0016 8.75009C33.2016 8.75009 39.8516 15.4001 39.8516 23.6001C39.9016 31.7501 33.2016 38.4501 25.0016 38.4501Z" fill="black" fill-opacity="0.5"/>
</svg>
