<svg width="46" height="44" viewBox="0 0 46 44" fill="none" xmlns="http://www.w3.org/2000/svg">
<path d="M0.0234375 -1.52588e-05L0.0234375 21.9898L21.247 21.9898L21.247 -1.52568e-05L0.0234375 -1.52588e-05Z" fill="#02996D"/>
<path d="M21.247 22.0102H0.0234375V44H21.247V22.0102Z" fill="#FDC60C"/>
<path d="M21.2227 22.0102V43.968H42.4462L21.2227 22.0102Z" fill="black"/>
<path d="M35.3891 22.0101C41.2498 22.0101 46.0009 17.0875 46.0009 11.0152C46.0009 4.94288 41.2498 0.0202942 35.3891 0.0202942C29.5284 0.0202942 24.7773 4.94288 24.7773 11.0152C24.7773 17.0875 29.5284 22.0101 35.3891 22.0101Z" fill="#EA4041"/>
<path d="M21.2235 22.0112C21.2235 9.86232 11.7255 0.0213928 0 0.0213928V22.0112H21.2235Z" fill="#0065FB"/>
</svg>
