<svg width="50" height="50" viewBox="0 0 50 50" fill="none" xmlns="http://www.w3.org/2000/svg">
<path d="M50 3.05176e-05H0V50H50V3.05176e-05ZM25.1 24.15L13.55 12.7L25 1.25003L36.5 12.75L25.1 24.15ZM24.15 24.9L12.7 36.45L1.25 25L12.75 13.5L24.15 24.9ZM24.9 25.8L36.45 37.25L25 48.7L13.5 37.2L24.9 25.8ZM25.85 25.1L37.3 13.55L48.75 25L37.25 36.5L25.85 25.1ZM38 12.8L48.95 1.80003V23.75L38 12.8ZM48.2 1.05003L37.2 12.05L26.2 1.05003H48.2ZM12.8 11.95L1.8 1.00003H23.75L12.8 11.95ZM1.05 1.75003L12.05 12.75L1.05 23.75V1.75003ZM11.95 37.15L1 48.15V26.25L11.95 37.15ZM1.8 48.95L12.8 37.95L23.8 48.95H1.8ZM37.2 38L48.2 48.95H26.25L37.2 38ZM48.95 48.2L37.95 37.2L48.95 26.2V48.2Z" fill="black" fill-opacity="0.5"/>
</svg>
