<svg width="50" height="50" viewBox="0 0 50 50" fill="none" xmlns="http://www.w3.org/2000/svg">
<path d="M7.74229 17.15H0V32.8H7.74229H15.4846V17.15H7.74229C7.79224 17.15 7.79224 17.15 7.74229 17.15ZM1.0989 18.2H3.94607C2.74726 18.9 1.7982 19.9 1.0989 21.05V18.2ZM1.0989 31.75V28.9C1.7982 30.1 2.74726 31.1 3.94607 31.75H1.0989ZM14.4356 31.75H11.6384C12.8372 31.05 13.7863 30.05 14.4856 28.9V31.75H14.4356ZM7.79223 31.75C4.09591 31.75 1.0989 28.7 1.0989 25C1.0989 21.25 4.09591 18.25 7.79223 18.25C11.4886 18.25 14.4856 21.3 14.4856 25C14.4356 28.7 11.4386 31.75 7.79223 31.75ZM14.4356 18.2V21.05C13.7363 19.85 12.7873 18.85 11.5885 18.2H14.4356Z" fill="black" fill-opacity="0.5"/>
<path d="M25.0255 17.15H17.2832V32.8H25.0255H32.7678V17.15H25.0255ZM18.3322 18.2H21.1793C19.9805 18.9 19.0315 19.9 18.3322 21.05V18.2ZM18.3322 31.75V28.9C19.0315 30.1 19.9805 31.1 21.1793 31.75H18.3322ZM31.7188 31.75H28.8717C30.0705 31.05 31.0195 30.05 31.7188 28.9V31.75ZM25.0255 31.75C21.3292 31.75 18.3322 28.7 18.3322 25C18.3322 21.25 21.3292 18.25 25.0255 18.25C28.7218 18.25 31.7188 21.3 31.7188 25C31.7188 28.7 28.7218 31.75 25.0255 31.75ZM31.7188 18.2V21.05C31.0195 19.85 30.0705 18.85 28.8717 18.2H31.7188Z" fill="black" fill-opacity="0.5"/>
<path d="M42.2579 17.15H34.5156V32.8H42.2579H50.0002V17.15H42.2579ZM35.5646 18.2H38.4118C37.2129 18.9 36.2639 19.9 35.5646 21.05V18.2ZM35.5646 31.75V28.9C36.2639 30.1 37.2129 31.1 38.4118 31.75H35.5646ZM48.9513 31.75H46.1041C47.3029 31.05 48.252 30.05 48.9513 28.9V31.75ZM42.2579 31.75C38.5616 31.75 35.5646 28.7 35.5646 25C35.5646 21.25 38.5616 18.25 42.2579 18.25C45.9542 18.25 48.9513 21.3 48.9513 25C48.9513 28.7 45.9542 31.75 42.2579 31.75ZM48.9513 18.2V21.05C48.252 19.85 47.3029 18.85 46.1041 18.2H48.9513Z" fill="black" fill-opacity="0.5"/>
<path d="M0.0488281 15.6H15.4835V0H0.0488281V15.6ZM14.4345 14.55H11.6373C12.8361 13.85 13.7852 12.85 14.4845 11.7V14.55H14.4345ZM14.4345 1.05V3.9C13.7352 2.7 12.7861 1.7 11.5873 1.05H14.4345ZM1.09779 1.05H3.94496C2.74615 1.75 1.79709 2.75 1.09779 3.9V1.05ZM7.74118 1.05C11.4375 1.05 14.4345 4.1 14.4345 7.8C14.4345 11.55 11.4375 14.55 7.74118 14.55C4.04486 14.55 1.04783 11.5 1.04783 7.8C1.09778 4.05 4.09481 1.05 7.74118 1.05ZM1.09779 11.7C1.79709 12.9 2.74615 13.9 3.94496 14.55H1.09779V11.7Z" fill="black" fill-opacity="0.5"/>
<path d="M17.2832 15.6H32.7178V0H17.2832V15.6ZM31.7188 14.55H28.8717C30.0705 13.85 31.0195 12.85 31.7188 11.7V14.55ZM31.7188 1.05V3.9C31.0195 2.7 30.0705 1.7 28.8717 1.05H31.7188ZM18.3322 1.05H21.1793C19.9805 1.75 19.0315 2.75 18.3322 3.9V1.05ZM25.0255 1.05C28.7218 1.05 31.7188 4.1 31.7188 7.8C31.7188 11.55 28.7218 14.55 25.0255 14.55C21.3292 14.55 18.3322 11.5 18.3322 7.8C18.3322 4.05 21.3292 1.05 25.0255 1.05ZM18.3322 11.7C19.0315 12.9 19.9805 13.9 21.1793 14.55H18.3322V11.7Z" fill="black" fill-opacity="0.5"/>
<path d="M34.5156 0V15.65H49.9503V0H34.5156ZM35.5646 1.05H38.4118C37.2129 1.75 36.2639 2.75 35.5646 3.9V1.05ZM35.5646 14.55V11.7C36.2639 12.9 37.2129 13.9 38.4118 14.55H35.5646ZM48.9513 14.55H46.1041C47.3029 13.85 48.252 12.85 48.9513 11.7V14.55ZM42.2579 14.55C38.5616 14.55 35.5646 11.5 35.5646 7.8C35.5646 4.05 38.5616 1.05 42.2579 1.05C45.9542 1.05 48.9513 4.1 48.9513 7.8C48.9513 11.5 45.9542 14.55 42.2579 14.55ZM48.9513 3.9C48.252 2.7 47.3029 1.7 46.1041 1.05H48.9513V3.9Z" fill="black" fill-opacity="0.5"/>
<path d="M0.0488281 50H15.4835V34.35H0.0488281V50ZM14.4345 48.95H11.6373C12.8361 48.25 13.7852 47.25 14.4845 46.1V48.95H14.4345ZM14.4345 35.4V38.25C13.7352 37.05 12.7861 36.05 11.5873 35.4H14.4345ZM1.09779 35.4H3.94496C2.74615 36.1 1.79709 37.1 1.09779 38.25V35.4ZM7.74118 35.4C11.4375 35.4 14.4345 38.45 14.4345 42.15C14.4345 45.9 11.4375 48.9 7.74118 48.9C4.04486 48.9 1.04783 45.85 1.04783 42.15C1.09778 38.45 4.09481 35.4 7.74118 35.4ZM1.09779 46.05C1.79709 47.25 2.74615 48.25 3.94496 48.9H1.09779V46.05Z" fill="black" fill-opacity="0.5"/>
<path d="M17.2832 50H32.7178V34.35H17.2832V50ZM31.7188 48.95H28.8717C30.0705 48.25 31.0195 47.25 31.7188 46.1V48.95ZM31.7188 35.4V38.25C31.0195 37.05 30.0705 36.05 28.8717 35.4H31.7188ZM18.3322 35.4H21.1793C19.9805 36.1 19.0315 37.1 18.3322 38.25V35.4ZM25.0255 35.4C28.7218 35.4 31.7188 38.45 31.7188 42.15C31.7188 45.9 28.7218 48.9 25.0255 48.9C21.3292 48.9 18.3322 45.85 18.3322 42.15C18.3322 38.45 21.3292 35.4 25.0255 35.4ZM18.3322 46.05C19.0315 47.25 19.9805 48.25 21.1793 48.9H18.3322V46.05Z" fill="black" fill-opacity="0.5"/>
<path d="M34.5156 50H49.9503V34.35H34.5156V50ZM48.9513 48.95H46.1041C47.3029 48.25 48.252 47.25 48.9513 46.1V48.95ZM48.9513 35.4V38.25C48.252 37.05 47.3029 36.05 46.1041 35.4H48.9513ZM35.5646 35.4H38.4118C37.2129 36.1 36.2639 37.1 35.5646 38.25V35.4ZM42.2579 35.4C45.9542 35.4 48.9513 38.45 48.9513 42.15C48.9513 45.9 45.9542 48.9 42.2579 48.9C38.5616 48.9 35.5646 45.85 35.5646 42.15C35.5646 38.45 38.5616 35.4 42.2579 35.4ZM35.5646 46.05C36.2639 47.25 37.2129 48.25 38.4118 48.9H35.5646V46.05Z" fill="black" fill-opacity="0.5"/>
</svg>
