<svg width="50" height="50" viewBox="0 0 50 50" fill="none" xmlns="http://www.w3.org/2000/svg">
<path d="M0 0V50H50V0H0ZM1.05 1.05H17.85C9.8 3.45 3.45 9.79999 1.05 17.85V1.05ZM1.05 48.95V32.15C3.45 40.2 9.8 46.55 17.85 48.95H1.05ZM5.85 29.75C5.85 19.2 14.45 10.6 25 10.6C35.55 10.6 44.15 19.2 44.15 29.75C44.15 36.9 40.25 43.1 34.45 46.4C37.5 43.75 39.45 39.85 39.45 35.5C39.45 27.55 33 21.05 25 21.05C17.05 21.05 10.55 27.5 10.55 35.5C10.55 39.85 12.5 43.75 15.55 46.4C9.75 43.15 5.85 36.9 5.85 29.75ZM25.7 48.9C25.45 48.9 25.25 48.95 25 48.95C24.75 48.95 24.55 48.95 24.3 48.9C20.9 48.55 18.25 45.7 18.25 42.2C18.25 38.5 21.25 35.45 25 35.45C28.7 35.45 31.75 38.45 31.75 42.2C31.75 45.7 29.05 48.55 25.7 48.9ZM32.75 42.2C32.75 37.9 29.25 34.45 25 34.45C20.75 34.45 17.25 37.95 17.25 42.2C17.25 44.4 18.15 46.35 19.6 47.8C14.9 45.7 11.6 41 11.6 35.55C11.6 28.15 17.6 22.15 25 22.15C32.4 22.15 38.4 28.15 38.4 35.55C38.4 41 35.1 45.7 30.4 47.8C31.85 46.35 32.75 44.4 32.75 42.2ZM48.95 48.95H32.15C40.2 46.55 46.55 40.2 48.95 32.15V48.95ZM38.7 44.6C42.7 40.9 45.2 35.6 45.2 29.75C45.2 18.6 36.15 9.55001 25 9.55001C13.85 9.55001 4.8 18.6 4.8 29.75C4.8 35.6 7.3 40.9 11.3 44.6C5.1 40.25 1.05 33.1 1.05 24.95C1.05 11.75 11.8 1 25 1C38.2 1 48.95 11.75 48.95 24.95C48.95 33.1 44.9 40.3 38.7 44.6ZM48.95 17.85C46.55 9.79999 40.2 3.45 32.15 1.05H48.95V17.85Z" fill="black" fill-opacity="0.5"/>
</svg>
