<svg width="50" height="50" viewBox="0 0 50 50" fill="none" xmlns="http://www.w3.org/2000/svg">
<path d="M42.55 0H41.5H36.75H35.7H31.45H30.4H26.05H25H0V25V26.05V30.4V31.45V35.7V36.75V41.5V42.55V50H7.44999H8.50001H13.25H14.3H18.55H19.6H23.95H25H50V25V23.95V19.6V18.55V14.3V13.25V8.5V7.45001V0H42.55ZM27.5 10.95C26.7 10.8 25.85 10.7 25 10.7C17.1 10.7 10.7 17.1 10.7 25C10.7 25.85 10.8 26.7 10.95 27.5C9.54999 26.8 8.05001 26.25 6.50001 25.85C6.50001 25.55 6.50001 25.3 6.50001 25C6.50001 14.8 14.8 6.45001 25.05 6.45001C25.35 6.45001 25.6 6.45001 25.9 6.45001C26.25 8.05001 26.8 9.55001 27.5 10.95ZM28.1 12.15C30.35 16.2 33.75 19.6 37.8 21.85C38.05 22.85 38.2 23.9 38.2 25C38.2 32.3 32.25 38.25 24.95 38.25C23.85 38.25 22.8 38.1 21.8 37.85C19.55 33.8 16.15 30.4 12.1 28.15C11.85 27.15 11.7 26.1 11.7 25C11.7 17.7 17.65 11.75 24.95 11.75C26.05 11.75 27.1 11.9 28.1 12.15ZM1 1.05H17.8C9.75 3.45 3.4 9.80001 1 17.85V1.05ZM1 25C1 11.8 11.75 1.05 24.95 1.05C24.95 1.05 24.95 1.05 25 1.05C25.05 2.55 25.25 4.00001 25.55 5.45001C25.35 5.45001 25.15 5.45001 24.95 5.45001C14.15 5.45001 5.34999 14.25 5.34999 25.05C5.34999 25.25 5.34999 25.45 5.34999 25.65C3.94999 25.3 2.5 25.1 1 25ZM1 48.95V42.65C4.25 43.1 6.85 45.7 7.3 48.95H1ZM8.34999 48.95C7.84999 45.1 4.85 42.05 1 41.6V36.8C1.7 36.85 2.44999 36.95 3.09999 37.15C3.59999 37.25 4.09999 37.45 4.59999 37.6C8.19999 38.95 11.05 41.8 12.35 45.35C12.55 45.85 12.7 46.35 12.8 46.85C12.95 47.55 13.1 48.25 13.15 48.95H8.34999ZM14.2 48.95C14.15 48.45 14.1 47.95 14 47.45C13.9 47 13.8 46.55 13.7 46.1C12.35 41.3 8.6 37.55 3.8 36.2C3.35 36.1 2.9 36 2.45 35.9C1.95 35.8 1.45 35.75 0.949997 35.7V31.45C1.25 31.45 1.54999 31.5 1.84999 31.5C3.64999 31.7 5.35 32.15 6.95 32.8C7.44999 33 7.94999 33.25 8.44999 33.5C11.8 35.25 14.55 38 16.3 41.35C16.55 41.85 16.8 42.35 17 42.85C17.65 44.45 18.1 46.15 18.3 47.95C18.35 48.25 18.35 48.55 18.35 48.85H14.2V48.95ZM19.5 48.95C19.5 48.75 19.5 48.5 19.45 48.3C19.3 46.6 18.95 45 18.4 43.45C18.25 43 18.05 42.55 17.85 42.15C15.9 37.65 12.25 34.05 7.8 32.1C7.35 31.9 6.95001 31.75 6.50001 31.55C4.95001 31 3.35001 30.65 1.65001 30.5C1.45001 30.5 1.2 30.45 1 30.45V26.05C1 26.05 1 26.05 1.05 26.05C2.55 26.1 4.05 26.35 5.45 26.65C5.8 26.75 6.15001 26.85 6.50001 26.95C8.15001 27.4 9.70001 28.05 11.15 28.85C11.6 29.1 12.05 29.35 12.5 29.65C15.65 31.6 18.3 34.25 20.25 37.4C20.5 37.85 20.8 38.3 21.05 38.75C21.85 40.2 22.45 41.8 22.95 43.4C23.05 43.75 23.15 44.1 23.25 44.45C23.6 45.9 23.8 47.35 23.85 48.85C23.85 48.85 23.85 48.85 23.85 48.9H19.5V48.95ZM22.45 39.05C23.25 39.2 24.1 39.3 24.95 39.3C32.85 39.3 39.25 32.9 39.25 25C39.25 24.15 39.15 23.3 39 22.5C40.4 23.2 41.9 23.75 43.45 24.15C43.45 24.45 43.45 24.7 43.45 25C43.45 35.2 35.15 43.55 24.9 43.55C24.6 43.55 24.35 43.55 24.05 43.55C23.7 41.95 23.15 40.5 22.45 39.05ZM48.9 48.95H32.1C40.15 46.55 46.5 40.2 48.9 32.15V48.95ZM24.95 48.95C24.85 47.45 24.65 46 24.35 44.55C24.55 44.55 24.75 44.55 24.95 44.55C35.75 44.55 44.55 35.75 44.55 24.95C44.55 24.75 44.55 24.55 44.55 24.35C45.95 24.65 47.45 24.85 48.95 24.9C48.95 24.9 48.95 24.9 48.95 24.95C48.9 38.2 38.15 48.95 24.95 48.95ZM48.9 23.95C47.35 23.9 45.9 23.65 44.45 23.35C44.1 23.25 43.75 23.15 43.4 23.05C41.75 22.6 40.2 21.95 38.75 21.15C38.3 20.9 37.85 20.65 37.4 20.35C34.25 18.4 31.6 15.75 29.65 12.6C29.4 12.15 29.1 11.7 28.85 11.25C28.05 9.8 27.45 8.20001 26.95 6.60001C26.85 6.25001 26.75 5.9 26.65 5.55C26.3 4.1 26.1 2.65001 26.05 1.15001C26.05 1.15001 26.05 1.15001 26.05 1.10001H30.45C30.45 1.30001 30.45 1.55 30.5 1.75C30.65 3.45 31 5.05001 31.55 6.60001C31.7 7.05001 31.9 7.50001 32.1 7.90001C34.05 12.4 37.7 16 42.15 17.95C42.6 18.15 43 18.3 43.45 18.5C45 19.05 46.6 19.4 48.3 19.55C48.5 19.55 48.75 19.6 48.95 19.6V23.95H48.9ZM48.9 18.5C48.6 18.5 48.3 18.45 48 18.45C46.2 18.25 44.5 17.8 42.9 17.15C42.4 16.95 41.9 16.7 41.4 16.45C38.05 14.7 35.3 11.95 33.55 8.60001C33.3 8.10001 33.05 7.60001 32.85 7.10001C32.2 5.50001 31.75 3.8 31.55 2C31.5 1.7 31.5 1.40001 31.5 1.10001H35.75C35.8 1.60001 35.85 2.10001 35.95 2.60001C36.05 3.05001 36.15 3.50001 36.25 3.95001C37.6 8.75001 41.35 12.5 46.15 13.85C46.6 13.95 47.05 14.05 47.5 14.15C48 14.25 48.5 14.3 49 14.35V18.5H48.9ZM48.9 13.2C48.2 13.15 47.5 13.05 46.8 12.85C46.3 12.75 45.8 12.55 45.3 12.4C41.7 11.05 38.85 8.20001 37.55 4.65001C37.35 4.15001 37.2 3.65001 37.1 3.15001C36.95 2.45001 36.8 1.75 36.75 1.05H41.55C42 4.9 45.05 7.95001 48.9 8.40001V13.2ZM48.9 7.35001C45.65 6.90001 43.05 4.3 42.6 1.05H48.9V7.35001Z" fill="black" fill-opacity="0.5"/>
<path d="M16.5 25C16.5 29.65 20.3 33.4501 24.95 33.4501C29.6 33.4501 33.4 29.65 33.4 25C33.4 20.35 29.6 16.55 24.95 16.55C20.3 16.55 16.5 20.35 16.5 25ZM32.4 25C32.4 29.1 29.05 32.4501 24.95 32.4501C20.85 32.4501 17.5 29.1 17.5 25C17.5 20.9 20.85 17.55 24.95 17.55C29.05 17.6 32.4 20.9 32.4 25Z" fill="black" fill-opacity="0.5"/>
</svg>
