<svg width="50" height="50" viewBox="0 0 50 50" fill="none" xmlns="http://www.w3.org/2000/svg">
<path d="M50 6.10352e-05H0V50.0001H50V6.10352e-05ZM33.75 41.9501C29.2 41.9501 25.55 38.2501 25.55 33.7501C25.55 29.2001 29.25 25.5501 33.75 25.5501C38.3 25.5501 41.95 29.2501 41.95 33.7501C42 38.2501 38.3 41.9501 33.75 41.9501ZM42 38.0001V41.9501H38.05C39.7 41.0501 41.1 39.7001 42 38.0001ZM33.75 24.4501C28.65 24.4501 24.5 28.6001 24.5 33.7001C24.5 37.2501 26.55 40.3501 29.5 41.9001H8.05V25.4501H25.55V7.95007H42V29.4001C40.45 26.5001 37.35 24.4501 33.75 24.4501ZM8.05 24.4501V8.00006H24.5V24.4501H8.05ZM42.3 7.00006H25.55H7.75L1.8 1.05006H48.25L42.3 7.00006ZM7 7.75006V25.5501V42.3001L1.05 48.2501V1.80006L7 7.75006ZM7.75 43.0001H42.3L48.25 48.9501H1.8L7.75 43.0001ZM43.05 42.2501V7.70007L49 1.75006V48.2001L43.05 42.2501Z" fill="black" fill-opacity="0.5"/>
</svg>
