<svg width="50" height="50" viewBox="0 0 50 50" fill="none" xmlns="http://www.w3.org/2000/svg">
<path d="M0 19.4V45.5V50H50V0H0V19.4ZM14.85 20.45C14.95 23.85 16.15 27 18.05 29.5L1 43.3V20.45H14.85ZM30.7 34.8C26.25 34.8 22.2 32.8 19.5 29.65L24.2 25.85C25.8 27.6 28.15 28.75 30.7 28.75C35.6 28.75 39.55 24.8 39.55 19.9C39.55 15 35.6 11.05 30.7 11.05C26 11.05 22.15 14.75 21.9 19.35H15.85C16.15 11.4 22.65 5 30.7 5C38.9 5 45.6 11.65 45.6 19.9C45.6 28.15 38.95 34.8 30.7 34.8ZM32.2 19.4H22.95C23.2 15.35 26.6 12.15 30.7 12.15C35 12.15 38.5 15.65 38.5 19.95C38.5 24.25 35 27.75 30.7 27.75C28.45 27.75 26.4 26.8 25 25.25L32.2 19.4ZM24.35 24.4C23.55 23.25 23.05 21.9 22.95 20.45H29.25L24.35 24.4ZM21.9 20.45C22 22.15 22.6 23.75 23.55 25.05L18.85 28.85C17.05 26.5 16 23.6 15.85 20.45H21.9ZM48.95 1.05V48.95H1.05V44.65L18.75 30.35C21.65 33.7 25.95 35.85 30.75 35.85C39.55 35.85 46.65 28.7 46.65 19.95C46.65 11.15 39.5 4.05 30.75 4.05C22.15 4.05 15.15 10.9 14.85 19.45H1.05V1.09999H48.95V1.05Z" fill="black" fill-opacity="0.5"/>
</svg>
