<svg width="50" height="50" viewBox="0 0 50 50" fill="none" xmlns="http://www.w3.org/2000/svg">
<path d="M0 0V50H50V0H0ZM25 21.4C23.5 16.3 18.85 12.5 13.3 12.25C13.55 5.99999 18.7 1.05 25 1.05C31.3 1.05 36.45 6.04999 36.7 12.25C31.15 12.5 26.5 16.25 25 21.4ZM36.7 13.3C36.4 19.3 31.6 24.15 25.55 24.45C25.85 18.4 30.65 13.55 36.7 13.3ZM36.7 36.65C30.7 36.35 25.85 31.55 25.55 25.5C31.6 25.8 36.4 30.65 36.7 36.65ZM24.45 24.45C18.45 24.15 13.6 19.35 13.3 13.3C19.35 13.55 24.15 18.4 24.45 24.45ZM1.05 1.05H19.95C15.55 2.95 12.45 7.24999 12.25 12.25C7.2 12.45 2.95 15.55 1.05 19.95V1.05ZM12.25 13.3C12.5 18.85 16.25 23.5 21.4 25C16.3 26.5 12.5 31.15 12.25 36.7C6 36.45 1.05 31.3 1.05 25C1.05 18.7 6.05 13.55 12.25 13.3ZM24.45 25.55C24.15 31.55 19.35 36.4 13.3 36.7C13.6 30.65 18.45 25.8 24.45 25.55ZM1.05 48.95V30.05C2.95 34.45 7.25 37.55 12.25 37.75C12.45 42.8 15.55 47.05 19.95 48.95H1.05ZM13.3 37.7C18.85 37.45 23.5 33.7 25 28.55C26.5 33.65 31.15 37.45 36.7 37.7C36.45 43.95 31.3 48.9 25 48.9C18.7 48.95 13.6 43.95 13.3 37.7ZM48.95 48.95H30.05C34.45 47.05 37.55 42.75 37.75 37.75C42.8 37.55 47.05 34.45 48.95 30.05V48.95ZM37.75 36.65C37.5 31.1 33.75 26.45 28.6 24.95C33.7 23.45 37.5 18.8 37.75 13.25C44 13.5 48.95 18.65 48.95 24.95C48.95 31.25 43.95 36.4 37.75 36.65ZM48.95 19.95C47.05 15.55 42.75 12.45 37.75 12.25C37.55 7.19999 34.45 2.95 30.05 1.05H48.95V19.95Z" fill="black" fill-opacity="0.5"/>
</svg>
