<svg width="50" height="50" viewBox="0 0 50 50" fill="none" xmlns="http://www.w3.org/2000/svg">
<path d="M50 0H0V50H50V0ZM33.75 41.95C29.2 41.95 25.55 38.25 25.55 33.75C25.55 29.2 29.25 25.55 33.75 25.55C38.3 25.55 41.95 29.25 41.95 33.75C42 38.25 38.3 41.95 33.75 41.95ZM42 38V41.95H38.05C39.7 41.05 41.1 39.7 42 38ZM33.75 24.45C28.65 24.45 24.5 28.6 24.5 33.7C24.5 37.25 26.55 40.35 29.5 41.9H8.05V25.45H25.55V7.95H42V29.4C40.45 26.5 37.35 24.45 33.75 24.45ZM8.05 24.45V8H24.5V24.45H8.05ZM42.3 7H25.55H7.75L1.8 1.05H48.25L42.3 7ZM7 7.75V25.55V42.3L1.05 48.25V1.8L7 7.75ZM7.75 43H42.3L48.25 48.95H1.8L7.75 43ZM43.05 42.25V7.7L49 1.75V48.2L43.05 42.25Z" fill="black" fill-opacity="0.5"/>
</svg>
