<svg width="900" height="46" viewBox="0 0 900 46" fill="none" xmlns="http://www.w3.org/2000/svg">
<path d="M0 0V46H45.9184V0H0ZM0.964288 2.53L17.8163 36.294L0.964288 44.758V2.53ZM2.52551 45.034L18.2755 37.168L22.2245 45.034H2.52551ZM44.9541 45.034H23.2347L19.102 36.708L44.9541 23.782V45.034ZM44.9541 22.724L18.6888 35.88L1.2398 0.966003H44.9541V22.724Z" fill="#DBDBDB"/>
<path d="M38.8922 5.84198H28.5605V16.192H38.8922V5.84198ZM37.9279 15.226H29.5248V6.80798H37.9279V15.226Z" fill="#DBDBDB"/>
<path d="M83.975 0H83.0107H78.6484H77.6841H73.7811H72.8168H68.8219H67.8576H44.8984V23V23.966V27.968V28.934V32.844V33.81V38.18V39.146V46H51.7403H52.7046H57.0668H58.0311H61.9341H62.8984H66.8933H67.8576H90.8168V23V22.034V18.032V17.066V13.156V12.19V7.82V6.85401V0H83.975ZM70.1535 10.074C69.4189 9.93601 68.6382 9.84401 67.8576 9.84401C60.6025 9.84401 54.725 15.732 54.725 23C54.725 23.782 54.8168 24.564 54.9546 25.3C53.6688 24.656 52.2913 24.15 50.8678 23.782C50.8678 23.506 50.8678 23.276 50.8678 23C50.8678 13.616 58.4903 5.93401 67.9035 5.93401C68.179 5.93401 68.4086 5.93401 68.6842 5.93401C69.0056 7.40601 69.5107 8.78601 70.1535 10.074ZM70.7045 11.178C72.7709 14.904 75.8933 18.032 79.6127 20.102C79.8423 21.022 79.9801 21.988 79.9801 23C79.9801 29.716 74.5158 35.19 67.8117 35.19C66.8015 35.19 65.8372 35.052 64.9188 34.822C62.8525 31.096 59.7301 27.968 56.0107 25.898C55.7811 24.978 55.6433 24.012 55.6433 23C55.6433 16.284 61.1076 10.81 67.8117 10.81C68.8219 10.81 69.7862 10.948 70.7045 11.178ZM45.8168 0.966003H61.2454C53.8525 3.174 48.0209 9.01601 45.8168 16.422V0.966003ZM45.8168 23C45.8168 10.856 55.6892 0.966003 67.8117 0.966003C67.8117 0.966003 67.8117 0.966003 67.8576 0.966003C67.9035 2.346 68.0872 3.68001 68.3627 5.01401C68.179 5.01401 67.9954 5.01401 67.8117 5.01401C57.8933 5.01401 49.8117 13.11 49.8117 23.046C49.8117 23.23 49.8117 23.414 49.8117 23.598C48.526 23.276 47.1944 23.092 45.8168 23ZM45.8168 45.034V39.238C48.8015 39.652 51.1893 42.044 51.6025 45.034H45.8168ZM52.5668 45.034C52.1076 41.492 49.3525 38.686 45.8168 38.272V33.856C46.4597 33.902 47.1484 33.994 47.7454 34.178C48.2046 34.27 48.6637 34.454 49.1229 34.592C52.429 35.834 55.0464 38.456 56.2403 41.722C56.4239 42.182 56.5617 42.642 56.6535 43.102C56.7913 43.746 56.9291 44.39 56.975 45.034H52.5668ZM57.9392 45.034C57.8933 44.574 57.8474 44.114 57.7556 43.654C57.6638 43.24 57.5719 42.826 57.4801 42.412C56.2403 37.996 52.7964 34.546 48.3882 33.304C47.975 33.212 47.5617 33.12 47.1484 33.028C46.6893 32.936 46.2301 32.89 45.7709 32.844V28.934C46.0464 28.934 46.3219 28.98 46.5974 28.98C48.2505 29.164 49.8117 29.578 51.2811 30.176C51.7403 30.36 52.1995 30.59 52.6586 30.82C55.7352 32.43 58.2607 34.96 59.8678 38.042C60.0974 38.502 60.327 38.962 60.5107 39.422C61.1076 40.894 61.5209 42.458 61.7046 44.114C61.7505 44.39 61.7505 44.666 61.7505 44.942H57.9392V45.034ZM62.8066 45.034C62.8066 44.85 62.8066 44.62 62.7607 44.436C62.6229 42.872 62.3015 41.4 61.7964 39.974C61.6586 39.56 61.475 39.146 61.2913 38.778C59.5005 34.638 56.1484 31.326 52.0617 29.532C51.6484 29.348 51.2811 29.21 50.8678 29.026C49.4444 28.52 47.975 28.198 46.4138 28.06C46.2301 28.06 46.0005 28.014 45.8168 28.014V23.966C45.8168 23.966 45.8168 23.966 45.8627 23.966C47.2403 24.012 48.6178 24.242 49.9035 24.518C50.225 24.61 50.5464 24.702 50.8678 24.794C52.3831 25.208 53.8066 25.806 55.1382 26.542C55.5515 26.772 55.9648 27.002 56.378 27.278C59.2709 29.072 61.7046 31.51 63.4954 34.408C63.725 34.822 64.0005 35.236 64.2301 35.65C64.9648 36.984 65.5158 38.456 65.975 39.928C66.0668 40.25 66.1586 40.572 66.2505 40.894C66.5719 42.228 66.7556 43.562 66.8015 44.942C66.8015 44.942 66.8015 44.942 66.8015 44.988H62.8066V45.034ZM65.5158 35.926C66.2505 36.064 67.0311 36.156 67.8117 36.156C75.0668 36.156 80.9444 30.268 80.9444 23C80.9444 22.218 80.8525 21.436 80.7148 20.7C82.0005 21.344 83.378 21.85 84.8015 22.218C84.8015 22.494 84.8015 22.724 84.8015 23C84.8015 32.384 77.179 40.066 67.7658 40.066C67.4903 40.066 67.2607 40.066 66.9852 40.066C66.6637 38.594 66.1586 37.26 65.5158 35.926ZM89.8066 45.034H74.378C81.7709 42.826 87.6025 36.984 89.8066 29.578V45.034ZM67.8117 45.034C67.7199 43.654 67.5362 42.32 67.2607 40.986C67.4443 40.986 67.628 40.986 67.8117 40.986C77.7301 40.986 85.8117 32.89 85.8117 22.954C85.8117 22.77 85.8117 22.586 85.8117 22.402C87.0974 22.678 88.4749 22.862 89.8525 22.908C89.8525 22.908 89.8525 22.908 89.8525 22.954C89.8066 35.144 79.9341 45.034 67.8117 45.034ZM89.8066 22.034C88.3831 21.988 87.0515 21.758 85.7198 21.482C85.3984 21.39 85.077 21.298 84.7556 21.206C83.2403 20.792 81.8168 20.194 80.4852 19.458C80.0719 19.228 79.6586 18.998 79.2454 18.722C76.3525 16.928 73.9188 14.49 72.128 11.592C71.8984 11.178 71.6229 10.764 71.3933 10.35C70.6586 9.016 70.1076 7.54401 69.6484 6.07201C69.5566 5.75001 69.4648 5.428 69.3729 5.106C69.0515 3.772 68.8678 2.43801 68.8219 1.05801C68.8219 1.05801 68.8219 1.05801 68.8219 1.01201H72.8627C72.8627 1.19601 72.8627 1.426 72.9086 1.61C73.0464 3.174 73.3678 4.64601 73.8729 6.07201C74.0107 6.48601 74.1943 6.90001 74.378 7.26801C76.1688 11.408 79.5209 14.72 83.6076 16.514C84.0209 16.698 84.3882 16.836 84.8015 17.02C86.225 17.526 87.6943 17.848 89.2556 17.986C89.4392 17.986 89.6688 18.032 89.8525 18.032V22.034H89.8066ZM89.8066 17.02C89.5311 17.02 89.2556 16.974 88.9801 16.974C87.327 16.79 85.7658 16.376 84.2964 15.778C83.8372 15.594 83.378 15.364 82.9188 15.134C79.8423 13.524 77.3168 10.994 75.7097 7.91201C75.4801 7.45201 75.2505 6.99201 75.0668 6.53201C74.4698 5.06001 74.0566 3.496 73.8729 1.84C73.827 1.564 73.827 1.28801 73.827 1.01201H77.7301C77.776 1.47201 77.8219 1.93201 77.9137 2.39201C78.0056 2.80601 78.0974 3.22001 78.1893 3.63401C79.4291 8.05001 82.8729 11.5 87.2811 12.742C87.6944 12.834 88.1076 12.926 88.5209 13.018C88.9801 13.11 89.4393 13.156 89.8984 13.202V17.02H89.8066ZM89.8066 12.144C89.1637 12.098 88.5209 12.006 87.878 11.822C87.4188 11.73 86.9597 11.546 86.5005 11.408C83.1943 10.166 80.577 7.54401 79.3831 4.27801C79.1994 3.81801 79.0617 3.35801 78.9698 2.89801C78.8321 2.25401 78.6944 1.61 78.6484 0.966003H83.0566C83.4699 4.508 86.2709 7.31401 89.8066 7.72801V12.144ZM89.8066 6.76201C86.8219 6.34801 84.4341 3.956 84.0209 0.966003H89.8066V6.76201Z" fill="#DBDBDB"/>
<path d="M60.0527 23C60.0527 27.278 63.5425 30.774 67.8129 30.774C72.0833 30.774 75.5731 27.278 75.5731 23C75.5731 18.722 72.0833 15.226 67.8129 15.226C63.5425 15.226 60.0527 18.722 60.0527 23ZM74.6548 23C74.6548 26.772 71.5782 29.854 67.8129 29.854C64.0476 29.854 60.9711 26.772 60.9711 23C60.9711 19.228 64.0476 16.146 67.8129 16.146C71.5782 16.192 74.6548 19.228 74.6548 23Z" fill="#DBDBDB"/>
<path d="M89.7969 0V46H135.715V0H89.7969ZM108.394 18.676C108.669 18.676 108.945 18.63 109.266 18.63C111.562 18.63 113.72 19.228 115.603 20.286C114.18 22.954 111.884 25.116 109.129 26.312C108.486 24.794 108.164 23.092 108.164 21.344C108.164 20.424 108.256 19.504 108.394 18.676ZM108.21 26.634C106.879 27.094 105.455 27.37 103.94 27.37C101.644 27.37 99.4857 26.772 97.603 25.714C99.5316 22.034 103.159 19.366 107.43 18.768C107.292 19.596 107.2 20.47 107.2 21.344C107.2 23.184 107.567 24.978 108.21 26.634ZM103.94 28.29C105.593 28.29 107.154 28.014 108.623 27.462C110.919 32.2 115.741 35.466 121.343 35.466C121.526 35.466 121.756 35.466 121.94 35.42C120.379 40.94 115.282 44.988 109.266 44.988C102.011 44.988 96.0877 39.054 96.0877 31.786C96.0877 29.9 96.501 28.152 97.1897 26.542C99.2102 27.692 101.506 28.29 103.94 28.29ZM121.343 34.546C116.154 34.546 111.7 31.51 109.542 27.186C112.526 25.898 114.96 23.644 116.475 20.792C120.103 23.138 122.491 27.232 122.491 31.878C122.491 32.798 122.399 33.672 122.215 34.546C121.894 34.5 121.618 34.546 121.343 34.546ZM116.843 19.872C117.623 18.124 118.083 16.192 118.083 14.122C118.083 12.236 117.715 10.488 117.072 8.83199C118.404 8.37199 119.873 8.09601 121.343 8.09601C128.598 8.09601 134.521 14.03 134.521 21.298C134.521 27.968 129.562 33.442 123.18 34.362C123.317 33.534 123.409 32.66 123.409 31.786C123.409 26.818 120.792 22.402 116.843 19.872ZM117.118 14.122C117.118 15.962 116.705 17.756 116.016 19.366C113.996 18.262 111.7 17.618 109.266 17.618C109.083 17.618 108.853 17.618 108.669 17.664C109.771 13.846 112.526 10.718 116.154 9.154C116.751 10.718 117.118 12.374 117.118 14.122ZM107.659 17.756C102.93 18.308 98.9346 21.16 96.7765 25.208C93.1489 22.862 90.7612 18.768 90.7612 14.168C90.7612 6.90001 96.6846 0.966003 103.94 0.966003C109.129 0.966003 113.583 4.002 115.741 8.326C111.792 10.028 108.761 13.524 107.659 17.756ZM98.8428 0.966003C95.1234 2.392 92.1846 5.33599 90.7612 9.06199V0.966003H98.8428ZM90.7612 45.034V19.228C91.8632 22.08 93.8377 24.472 96.3632 26.082C95.5826 27.83 95.1234 29.762 95.1234 31.832C95.1234 37.858 98.8887 42.964 104.169 45.034H90.7612ZM114.363 45.034C118.588 43.424 121.802 39.836 122.95 35.42C128.506 34.776 133.098 30.912 134.797 25.714V45.034H114.363ZM134.751 0.966003V16.974C132.914 11.316 127.588 7.176 121.297 7.176C119.644 7.176 118.083 7.452 116.613 8.004C115.052 4.784 112.343 2.254 108.991 0.966003H134.751Z" fill="#DBDBDB"/>
<path d="M180.612 28.152V4.14V0H134.693V46H180.612V28.152ZM166.974 27.186C166.882 24.058 165.78 21.16 164.035 18.86L179.693 6.164V27.186H166.974ZM152.418 13.984C156.505 13.984 160.224 15.824 162.704 18.722L158.387 22.218C156.918 20.608 154.76 19.55 152.418 19.55C147.918 19.55 144.29 23.184 144.29 27.692C144.29 32.2 147.918 35.834 152.418 35.834C156.734 35.834 160.27 32.43 160.499 28.198H166.056C165.78 35.512 159.811 41.4 152.418 41.4C144.887 41.4 138.734 35.282 138.734 27.692C138.734 20.102 144.841 13.984 152.418 13.984ZM151.04 28.152H159.535C159.306 31.878 156.183 34.822 152.418 34.822C148.469 34.822 145.255 31.602 145.255 27.646C145.255 23.69 148.469 20.47 152.418 20.47C154.484 20.47 156.367 21.344 157.653 22.77L151.04 28.152ZM158.249 23.552C158.984 24.61 159.443 25.852 159.535 27.186H153.749L158.249 23.552ZM160.499 27.186C160.408 25.622 159.857 24.15 158.984 22.954L163.3 19.458C164.954 21.62 165.918 24.288 166.056 27.186H160.499ZM135.658 45.034V0.966003H179.647V4.92201L163.392 18.078C160.729 14.996 156.78 13.018 152.372 13.018C144.29 13.018 137.77 19.596 137.77 27.646C137.77 35.742 144.336 42.274 152.372 42.274C160.27 42.274 166.698 35.972 166.974 28.106H179.647V44.988H135.658V45.034Z" fill="#DBDBDB"/>
<path d="M247.909 0H224.49V23.46V46H247.909H270.409V23.46V0H247.909ZM246.944 10.488H234.96V22.494H225.455C225.73 10.718 235.235 1.196 246.944 0.966V10.488ZM258.929 22.494H247.909V11.454H258.929V22.494ZM235.878 23.46H246.898V34.5H235.878V23.46ZM247.909 23.46H258.929V34.5H247.909V23.46ZM246.944 22.494H235.924V11.454H246.944V22.494ZM234.914 23.46V35.466H246.898V44.988C235.143 44.712 225.638 35.19 225.409 23.46H234.914ZM247.909 35.466H259.893V23.46H269.398C269.123 35.236 259.618 44.758 247.909 44.988V35.466ZM259.893 22.494V10.488H247.909V0.966C259.664 1.242 269.169 10.764 269.398 22.494H259.893ZM225.409 0.966H240.837C233.444 3.174 227.613 9.016 225.409 16.422V0.966ZM225.409 45.034V29.578C227.613 36.984 233.444 42.826 240.837 45.034H225.409ZM253.97 45.034C261.363 42.826 267.194 36.984 269.398 29.578V45.034H253.97ZM253.97 0.966H269.398V16.422C267.194 9.016 261.363 3.174 253.97 0.966Z" fill="#DBDBDB"/>
<path d="M315.307 46V0H269.389V46H315.307ZM309.797 2.02401C308.144 4.69201 305.067 9.70601 305.067 15.502C305.067 18.032 306.537 20.7 307.914 23.23C309.246 25.668 310.669 28.198 310.669 30.498C310.669 34.592 309.292 36.294 307.868 38.134C306.537 39.79 305.205 41.538 305.113 45.034H301.348C301.44 41.814 302.22 40.25 303.093 38.64C304.057 36.8 305.067 34.868 305.067 30.498C305.067 28.014 304.103 25.392 303.185 22.862C302.266 20.378 301.348 17.848 301.348 15.502C301.348 9.89001 303.368 5.01401 304.424 2.39201C304.7 1.70201 304.884 1.242 304.975 0.966003H310.486C310.256 1.242 310.026 1.61001 309.797 2.02401ZM303.552 2.07C302.45 4.738 300.429 9.70601 300.429 15.502C300.429 17.986 301.394 20.608 302.312 23.184C303.231 25.668 304.149 28.198 304.149 30.544C304.149 34.684 303.185 36.478 302.266 38.272C301.394 39.928 300.521 41.63 300.429 45.08H296.618C296.664 41.814 297.077 40.25 297.491 38.594C297.95 36.754 298.455 34.868 298.455 30.544C298.455 28.106 297.996 25.484 297.537 22.954C297.077 20.47 296.618 17.894 296.618 15.502C296.618 9.84401 297.628 4.968 298.179 2.346C298.317 1.702 298.409 1.288 298.455 0.966003H304.011C303.873 1.288 303.69 1.656 303.552 2.07ZM297.261 2.16201C296.71 4.83001 295.7 9.75201 295.7 15.502C295.7 17.94 296.159 20.562 296.618 23.092C297.077 25.576 297.537 28.152 297.537 30.498C297.537 34.684 297.032 36.524 296.572 38.318C296.159 39.974 295.7 41.676 295.654 45.034H292.715V0.966003H297.491C297.445 1.288 297.353 1.70201 297.261 2.16201ZM291.889 45.034H288.996C288.95 41.63 288.537 39.928 288.077 38.318C287.618 36.524 287.113 34.684 287.113 30.498C287.113 28.106 287.572 25.576 288.032 23.092C288.491 20.562 288.95 17.94 288.95 15.502C288.95 9.75201 287.94 4.83001 287.389 2.16201C287.297 1.70201 287.205 1.288 287.159 0.966003H291.843V45.034H291.889ZM286.562 2.346C287.113 4.968 288.123 9.84401 288.123 15.502C288.123 17.894 287.664 20.47 287.205 22.954C286.746 25.484 286.287 28.06 286.287 30.544C286.287 34.822 286.792 36.754 287.251 38.594C287.664 40.25 288.077 41.814 288.123 45.08H284.312C284.22 41.63 283.348 39.928 282.475 38.272C281.557 36.524 280.593 34.684 280.593 30.544C280.593 28.198 281.511 25.668 282.429 23.184C283.348 20.654 284.312 18.032 284.312 15.502C284.312 9.70601 282.292 4.738 281.19 2.07C281.006 1.656 280.868 1.288 280.731 0.966003H286.287C286.333 1.288 286.424 1.702 286.562 2.346ZM280.317 2.39201C281.373 5.01401 283.394 9.89001 283.394 15.502C283.394 17.848 282.475 20.378 281.557 22.862C280.639 25.392 279.674 28.014 279.674 30.498C279.674 34.868 280.685 36.754 281.649 38.64C282.521 40.25 283.302 41.814 283.394 45.034H279.583C279.445 41.538 278.113 39.836 276.827 38.134C275.404 36.294 274.026 34.592 274.026 30.498C274.026 28.198 275.404 25.668 276.782 23.23C278.205 20.654 279.628 18.032 279.628 15.502C279.628 9.66001 276.552 4.69201 274.899 2.02401C274.669 1.65601 274.44 1.28801 274.256 1.01201H279.766C279.858 1.28801 280.042 1.70201 280.317 2.39201ZM314.343 45.034H305.986C306.077 41.86 307.271 40.342 308.557 38.686C310.026 36.8 311.542 34.868 311.542 30.498C311.542 27.968 310.072 25.346 308.695 22.77C307.363 20.332 305.94 17.756 305.94 15.456C305.94 9.89 308.924 5.06001 310.532 2.43801C310.991 1.70201 311.266 1.242 311.404 0.92H314.297V45.034H314.343ZM270.353 0.966003H273.246C273.384 1.288 273.659 1.74801 274.118 2.48401C275.725 5.10601 278.71 9.93601 278.71 15.502C278.71 17.802 277.333 20.332 275.955 22.816C274.577 25.346 273.108 28.014 273.108 30.544C273.108 34.914 274.623 36.892 276.093 38.732C277.378 40.342 278.572 41.906 278.664 45.08H270.307V0.966003H270.353Z" fill="#DBDBDB"/>
<path d="M314.285 0V46H360.204V0H314.285ZM358.55 0.966003L353.086 6.44H321.403L315.938 0.966003H358.55ZM352.811 7.406V38.594H321.678V7.406H352.811ZM315.249 1.656L320.714 7.13V38.916L315.249 44.39V1.656ZM315.938 45.034L321.403 39.56H353.132L358.596 45.034H315.938ZM359.239 44.344L353.775 38.87V7.084L359.239 1.61V44.344Z" fill="#DBDBDB"/>
<path d="M337.244 35.236C343.994 35.236 349.458 29.762 349.458 23C349.458 16.238 343.994 10.764 337.244 10.764C330.494 10.764 325.029 16.238 325.029 23C325.029 29.716 330.494 35.236 337.244 35.236ZM337.244 11.73C343.443 11.73 348.494 16.79 348.494 23C348.494 29.21 343.443 34.27 337.244 34.27C331.045 34.27 325.994 29.21 325.994 23C325.994 16.79 331.045 11.73 337.244 11.73Z" fill="#DBDBDB"/>
<path d="M359.184 0V46H405.102V0H359.184ZM360.148 0.966003H375.576C368.184 3.174 362.352 9.01599 360.148 16.422V0.966003ZM360.148 45.034V29.578C362.352 36.984 368.184 42.826 375.576 45.034H360.148ZM364.556 27.37C364.556 17.664 372.454 9.75199 382.143 9.75199C391.832 9.75199 399.73 17.664 399.73 27.37C399.73 33.948 396.148 39.652 390.821 42.688C393.622 40.25 395.413 36.662 395.413 32.66C395.413 25.346 389.49 19.366 382.143 19.366C374.842 19.366 368.872 25.3 368.872 32.66C368.872 36.662 370.663 40.25 373.464 42.688C368.138 39.698 364.556 33.948 364.556 27.37ZM382.786 44.988C382.556 44.988 382.372 45.034 382.143 45.034C381.913 45.034 381.73 45.034 381.5 44.988C378.377 44.666 375.944 42.044 375.944 38.824C375.944 35.42 378.699 32.614 382.143 32.614C385.541 32.614 388.342 35.374 388.342 38.824C388.342 42.044 385.862 44.666 382.786 44.988ZM389.26 38.824C389.26 34.868 386.046 31.694 382.143 31.694C378.24 31.694 375.025 34.914 375.025 38.824C375.025 40.848 375.852 42.642 377.184 43.976C372.867 42.044 369.837 37.72 369.837 32.706C369.837 25.898 375.347 20.378 382.143 20.378C388.939 20.378 394.449 25.898 394.449 32.706C394.449 37.72 391.418 42.044 387.102 43.976C388.434 42.642 389.26 40.848 389.26 38.824ZM404.138 45.034H388.709C396.102 42.826 401.934 36.984 404.138 29.578V45.034ZM394.724 41.032C398.398 37.628 400.694 32.752 400.694 27.37C400.694 17.112 392.383 8.78601 382.143 8.78601C371.903 8.78601 363.592 17.112 363.592 27.37C363.592 32.752 365.888 37.628 369.561 41.032C363.867 37.03 360.148 30.452 360.148 22.954C360.148 10.81 370.02 0.92 382.143 0.92C394.265 0.92 404.138 10.81 404.138 22.954C404.138 30.452 400.418 37.076 394.724 41.032ZM404.138 16.422C401.934 9.01599 396.102 3.174 388.709 0.966003H404.138V16.422Z" fill="#DBDBDB"/>
<path d="M404.082 0V46H450V0H404.082ZM427.041 19.688C425.664 14.996 421.393 11.5 416.296 11.27C416.526 5.51999 421.256 0.966003 427.041 0.966003C432.827 0.966003 437.557 5.56599 437.786 11.27C432.689 11.5 428.419 14.95 427.041 19.688ZM437.786 12.236C437.511 17.756 433.102 22.218 427.546 22.494C427.822 16.928 432.23 12.466 437.786 12.236ZM437.786 33.718C432.276 33.442 427.822 29.026 427.546 23.46C433.102 23.736 437.511 28.198 437.786 33.718ZM426.536 22.494C421.026 22.218 416.572 17.802 416.296 12.236C421.852 12.466 426.261 16.928 426.536 22.494ZM405.046 0.966003H422.403C418.363 2.714 415.516 6.66999 415.332 11.27C410.694 11.454 406.791 14.306 405.046 18.354V0.966003ZM415.332 12.236C415.562 17.342 419.006 21.62 423.735 23C419.051 24.38 415.562 28.658 415.332 33.764C409.592 33.534 405.046 28.796 405.046 23C405.046 17.204 409.638 12.466 415.332 12.236ZM426.536 23.506C426.261 29.026 421.852 33.488 416.296 33.764C416.572 28.198 421.026 23.736 426.536 23.506ZM405.046 45.034V27.646C406.791 31.694 410.74 34.546 415.332 34.73C415.516 39.376 418.363 43.286 422.403 45.034H405.046ZM416.296 34.684C421.393 34.454 425.664 31.004 427.041 26.266C428.419 30.958 432.689 34.454 437.786 34.684C437.557 40.434 432.827 44.988 427.041 44.988C421.256 45.034 416.572 40.434 416.296 34.684ZM449.036 45.034H431.679C435.72 43.286 438.567 39.33 438.75 34.73C443.388 34.546 447.291 31.694 449.036 27.646V45.034ZM438.75 33.718C438.521 28.612 435.077 24.334 430.347 22.954C435.031 21.574 438.521 17.296 438.75 12.19C444.49 12.42 449.036 17.158 449.036 22.954C449.036 28.75 444.444 33.488 438.75 33.718ZM449.036 18.354C447.291 14.306 443.342 11.454 438.75 11.27C438.567 6.62399 435.72 2.714 431.679 0.966003H449.036V18.354Z" fill="#DBDBDB"/>
<path d="M675 0H629V46H675V0ZM660.05 38.594C655.864 38.594 652.506 35.19 652.506 31.05C652.506 26.864 655.91 23.506 660.05 23.506C664.236 23.506 667.594 26.91 667.594 31.05C667.64 35.19 664.236 38.594 660.05 38.594ZM667.64 34.96V38.594H664.006C665.524 37.766 666.812 36.524 667.64 34.96ZM660.05 22.494C655.358 22.494 651.54 26.312 651.54 31.004C651.54 34.27 653.426 37.122 656.14 38.548H636.406V23.414H652.506V7.314H667.64V27.048C666.214 24.38 663.362 22.494 660.05 22.494ZM636.406 22.494V7.36H651.54V22.494H636.406ZM667.916 6.44H652.506H636.13L630.656 0.966003H673.39L667.916 6.44ZM635.44 7.13V23.506V38.916L629.966 44.39V1.656L635.44 7.13ZM636.13 39.56H667.916L673.39 45.034H630.656L636.13 39.56ZM668.606 38.87V7.084L674.08 1.61V44.344L668.606 38.87Z" fill="#DBDBDB"/>
<path d="M456.123 15.778H449V30.176H456.123H463.246V15.778H456.123C456.169 15.778 456.169 15.778 456.123 15.778ZM450.011 16.744H452.63C451.527 17.388 450.654 18.308 450.011 19.366V16.744ZM450.011 29.21V26.588C450.654 27.692 451.527 28.612 452.63 29.21H450.011ZM462.281 29.21H459.707C460.81 28.566 461.683 27.646 462.327 26.588V29.21H462.281ZM456.169 29.21C452.768 29.21 450.011 26.404 450.011 23C450.011 19.55 452.768 16.79 456.169 16.79C459.569 16.79 462.327 19.596 462.327 23C462.281 26.404 459.524 29.21 456.169 29.21ZM462.281 16.744V19.366C461.637 18.262 460.764 17.342 459.661 16.744H462.281Z" fill="#DBDBDB"/>
<path d="M472.023 15.778H464.9V30.176H472.023H479.146V15.778H472.023ZM465.865 16.744H468.485C467.382 17.388 466.509 18.308 465.865 19.366V16.744ZM465.865 29.21V26.588C466.509 27.692 467.382 28.612 468.485 29.21H465.865ZM478.181 29.21H475.562C476.665 28.566 477.538 27.646 478.181 26.588V29.21ZM472.023 29.21C468.623 29.21 465.865 26.404 465.865 23C465.865 19.55 468.623 16.79 472.023 16.79C475.424 16.79 478.181 19.596 478.181 23C478.181 26.404 475.424 29.21 472.023 29.21ZM478.181 16.744V19.366C477.538 18.262 476.665 17.342 475.562 16.744H478.181Z" fill="#DBDBDB"/>
<path d="M487.877 15.778H480.754V30.176H487.877H495V15.778H487.877ZM481.719 16.744H484.338C483.235 17.388 482.362 18.308 481.719 19.366V16.744ZM481.719 29.21V26.588C482.362 27.692 483.235 28.612 484.338 29.21H481.719ZM494.035 29.21H491.415C492.518 28.566 493.391 27.646 494.035 26.588V29.21ZM487.877 29.21C484.476 29.21 481.719 26.404 481.719 23C481.719 19.55 484.476 16.79 487.877 16.79C491.277 16.79 494.035 19.596 494.035 23C494.035 26.404 491.277 29.21 487.877 29.21ZM494.035 16.744V19.366C493.391 18.262 492.518 17.342 491.415 16.744H494.035Z" fill="#DBDBDB"/>
<path d="M449.045 14.352H463.245V0H449.045V14.352ZM462.28 13.386H459.706C460.809 12.742 461.682 11.822 462.326 10.764V13.386H462.28ZM462.28 0.966V3.588C461.636 2.484 460.763 1.564 459.66 0.966H462.28ZM450.01 0.966H452.629C451.526 1.61 450.653 2.53 450.01 3.588V0.966ZM456.122 0.966C459.523 0.966 462.28 3.772 462.28 7.176C462.28 10.626 459.523 13.386 456.122 13.386C452.721 13.386 449.964 10.58 449.964 7.176C450.01 3.726 452.767 0.966 456.122 0.966ZM450.01 10.764C450.653 11.868 451.526 12.788 452.629 13.386H450.01V10.764Z" fill="#DBDBDB"/>
<path d="M464.9 14.352H479.1V0H464.9V14.352ZM478.181 13.386H475.562C476.665 12.742 477.538 11.822 478.181 10.764V13.386ZM478.181 0.966V3.588C477.538 2.484 476.665 1.564 475.562 0.966H478.181ZM465.865 0.966H468.485C467.382 1.61 466.509 2.53 465.865 3.588V0.966ZM472.023 0.966C475.424 0.966 478.181 3.772 478.181 7.176C478.181 10.626 475.424 13.386 472.023 13.386C468.623 13.386 465.865 10.58 465.865 7.176C465.865 3.726 468.623 0.966 472.023 0.966ZM465.865 10.764C466.509 11.868 467.382 12.788 468.485 13.386H465.865V10.764Z" fill="#DBDBDB"/>
<path d="M480.754 0V14.398H494.954V0H480.754ZM481.719 0.966H484.338C483.235 1.61 482.362 2.53 481.719 3.588V0.966ZM481.719 13.386V10.764C482.362 11.868 483.235 12.788 484.338 13.386H481.719ZM494.035 13.386H491.415C492.518 12.742 493.391 11.822 494.035 10.764V13.386ZM487.877 13.386C484.476 13.386 481.719 10.58 481.719 7.176C481.719 3.726 484.476 0.966 487.877 0.966C491.277 0.966 494.035 3.772 494.035 7.176C494.035 10.58 491.277 13.386 487.877 13.386ZM494.035 3.588C493.391 2.484 492.518 1.564 491.415 0.966H494.035V3.588Z" fill="#DBDBDB"/>
<path d="M449.045 46H463.245V31.602H449.045V46ZM462.28 45.034H459.706C460.809 44.39 461.682 43.47 462.326 42.412V45.034H462.28ZM462.28 32.568V35.19C461.636 34.086 460.763 33.166 459.66 32.568H462.28ZM450.01 32.568H452.629C451.526 33.212 450.653 34.132 450.01 35.19V32.568ZM456.122 32.568C459.523 32.568 462.28 35.374 462.28 38.778C462.28 42.228 459.523 44.988 456.122 44.988C452.721 44.988 449.964 42.182 449.964 38.778C450.01 35.374 452.767 32.568 456.122 32.568ZM450.01 42.366C450.653 43.47 451.526 44.39 452.629 44.988H450.01V42.366Z" fill="#DBDBDB"/>
<path d="M464.9 46H479.1V31.602H464.9V46ZM478.181 45.034H475.562C476.665 44.39 477.538 43.47 478.181 42.412V45.034ZM478.181 32.568V35.19C477.538 34.086 476.665 33.166 475.562 32.568H478.181ZM465.865 32.568H468.485C467.382 33.212 466.509 34.132 465.865 35.19V32.568ZM472.023 32.568C475.424 32.568 478.181 35.374 478.181 38.778C478.181 42.228 475.424 44.988 472.023 44.988C468.623 44.988 465.865 42.182 465.865 38.778C465.865 35.374 468.623 32.568 472.023 32.568ZM465.865 42.366C466.509 43.47 467.382 44.39 468.485 44.988H465.865V42.366Z" fill="#DBDBDB"/>
<path d="M480.754 46H494.954V31.602H480.754V46ZM494.035 45.034H491.415C492.518 44.39 493.391 43.47 494.035 42.412V45.034ZM494.035 32.568V35.19C493.391 34.086 492.518 33.166 491.415 32.568H494.035ZM481.719 32.568H484.338C483.235 33.212 482.362 34.132 481.719 35.19V32.568ZM487.877 32.568C491.277 32.568 494.035 35.374 494.035 38.778C494.035 42.228 491.277 44.988 487.877 44.988C484.476 44.988 481.719 42.182 481.719 38.778C481.719 35.374 484.476 32.568 487.877 32.568ZM481.719 42.366C482.362 43.47 483.235 44.39 484.338 44.988H481.719V42.366Z" fill="#DBDBDB"/>
<path d="M522.152 46L498.14 46L494 46L494 0L540 2.01072e-06L540 46L522.152 46ZM521.186 32.338C518.058 32.246 515.16 31.142 512.86 29.394L500.164 45.08L521.186 45.08L521.186 32.338ZM507.984 17.756C507.984 21.85 509.824 25.576 512.722 28.06L516.218 23.736C514.608 22.264 513.55 20.102 513.55 17.756C513.55 13.248 517.184 9.614 521.692 9.614C526.2 9.614 529.834 13.248 529.834 17.756C529.834 22.08 526.43 25.622 522.198 25.852L522.198 31.418C529.512 31.142 535.4 25.162 535.4 17.756C535.4 10.212 529.282 4.048 521.692 4.048C514.102 4.048 507.984 10.166 507.984 17.756ZM522.152 16.376L522.152 24.886C525.878 24.656 528.822 21.528 528.822 17.756C528.822 13.8 525.602 10.58 521.646 10.58C517.69 10.58 514.47 13.8 514.47 17.756C514.47 19.826 515.344 21.712 516.77 23L522.152 16.376ZM517.552 23.598C518.61 24.334 519.852 24.794 521.186 24.886L521.186 19.09L517.552 23.598ZM521.186 25.852C519.622 25.76 518.15 25.208 516.954 24.334L513.458 28.658C515.62 30.314 518.288 31.28 521.186 31.418L521.186 25.852ZM539.034 0.966005L494.966 0.966003L494.966 45.034L498.922 45.034L512.078 28.75C508.996 26.082 507.018 22.126 507.018 17.71C507.018 9.614 513.596 3.08201 521.646 3.08201C529.742 3.08201 536.274 9.66 536.274 17.71C536.274 25.622 529.972 32.062 522.106 32.338L522.106 45.034L538.988 45.034L538.988 0.966005L539.034 0.966005Z" fill="#DBDBDB"/>
<path d="M585 0H539V46H585V0ZM578.422 33.074C577.18 35.098 575.57 36.892 573.684 38.318V7.68201C575.57 9.10801 577.18 10.902 578.422 12.926V33.074ZM579.342 14.582C580.584 17.112 581.274 19.964 581.274 23C581.274 26.036 580.584 28.888 579.342 31.418V14.582ZM568.072 4.69201C569.774 5.24401 571.338 6.02601 572.81 7.03801V38.962C571.384 39.928 569.774 40.756 568.072 41.308V4.69201ZM567.198 41.584C565.542 42.044 563.794 42.274 562 42.274C551.374 42.274 542.726 33.626 542.726 23C542.726 12.374 551.374 3.726 562 3.726C563.794 3.726 565.542 3.956 567.198 4.416V41.584ZM568.072 3.68V0.966003H572.81V5.88801C571.338 4.96801 569.774 4.232 568.072 3.68ZM572.81 40.112V45.034H568.072V42.32C569.774 41.768 571.338 41.032 572.81 40.112ZM573.73 39.514C575.57 38.226 577.134 36.616 578.468 34.822V45.08H573.73V39.514ZM573.73 6.53201V1.01201H578.468V11.27C577.134 9.384 575.524 7.82001 573.73 6.53201ZM539.966 0.966003H567.198V3.45C565.542 2.99 563.794 2.76 562 2.76C550.822 2.76 541.76 11.822 541.76 23C541.76 34.178 550.822 43.24 562 43.24C563.794 43.24 565.542 43.01 567.198 42.55V45.034H539.966V0.966003ZM584.034 45.034H579.342V33.442C581.182 30.406 582.24 26.818 582.24 23C582.24 19.182 581.182 15.594 579.342 12.558V0.966003H584.034V45.034Z" fill="#DBDBDB"/>
<path d="M630 0H584V46H630V0ZM607.092 22.218L596.466 11.684L607 1.15L617.58 11.73L607.092 22.218ZM606.218 22.908L595.684 33.534L585.15 23L595.73 12.42L606.218 22.908ZM606.908 23.736L617.534 34.27L607 44.804L596.42 34.224L606.908 23.736ZM607.782 23.092L618.316 12.466L628.85 23L618.27 33.58L607.782 23.092ZM618.96 11.776L629.034 1.656V21.85L618.96 11.776ZM628.344 0.966L618.224 11.086L608.104 0.966H628.344ZM595.776 10.994L585.656 0.92H605.85L595.776 10.994ZM584.966 1.61L595.086 11.73L584.966 21.85V1.61ZM594.994 34.178L584.92 44.298V24.15L594.994 34.178ZM585.656 45.034L595.776 34.914L605.896 45.034H585.656ZM618.224 34.96L628.344 45.034H608.15L618.224 34.96ZM629.034 44.344L618.914 34.224L629.034 24.104V44.344Z" fill="#DBDBDB"/>
<path d="M674 46H720V0H674V46ZM681.13 39.56H712.916L718.39 45.034H675.656L681.13 39.56ZM712.594 37.812C709.42 34.408 699.668 24.932 697.69 23L712.594 8.096V37.812ZM681.406 37.904V7.36H711.95L681.406 37.904ZM697 23.69C698.978 25.576 709.006 35.374 712.042 38.594H682.096L697 23.69ZM713.56 38.87V7.084L719.034 1.61V44.344L713.56 38.87ZM712.87 6.44H681.084L675.61 0.966003H718.344L712.87 6.44ZM680.44 7.13V38.916L674.966 44.39V1.656L680.44 7.13Z" fill="#DBDBDB"/>
<path d="M719 0V46H765V0H719ZM719.966 45.034V31.878C727.142 32.108 732.892 37.904 733.122 45.034H719.966ZM764.08 45.034H734.134C733.904 37.352 727.694 31.142 720.012 30.912V0.966003H749.958C750.142 8.69401 756.352 14.95 764.08 15.226V45.034ZM764.08 14.214C756.904 13.984 751.108 8.142 750.924 0.92H764.08V14.214Z" fill="#DBDBDB"/>
<path d="M742.001 7.03799C733.951 7.03799 727.373 13.616 727.373 21.666C727.373 29.716 733.951 36.294 742.001 36.294C750.051 36.294 756.629 29.716 756.629 21.666C756.629 13.616 750.097 7.03799 742.001 7.03799ZM742.001 35.374C734.457 35.374 728.339 29.256 728.339 21.712C728.339 14.168 734.457 8.04997 742.001 8.04997C749.545 8.04997 755.663 14.168 755.663 21.712C755.709 29.21 749.545 35.374 742.001 35.374Z" fill="#DBDBDB"/>
<path d="M764 14.766V0H811V46H764V15.272C764 15.18 764 15.088 764 15.042C764 14.95 764 14.858 764 14.766ZM810.06 1.01201H784.727C790.555 3.12801 794.691 8.60201 794.691 15.042C794.691 18.124 793.704 21.022 792.059 23.414C795.067 24.61 797.464 26.956 798.686 29.9C799.814 29.394 801.083 29.072 802.399 29.072C805.736 29.072 808.65 30.958 810.107 33.672V1.01201H810.06ZM798.075 31.28C796.007 32.614 794.644 34.914 794.644 37.536C794.644 38.962 795.067 40.296 795.772 41.4C797.511 39.514 798.545 36.984 798.545 34.27C798.545 33.258 798.357 32.246 798.075 31.28ZM810.06 45.08V41.4C809.214 42.964 807.945 44.252 806.347 45.08H810.06ZM802.587 45.08C806.723 44.942 810.013 41.63 810.013 37.582C810.013 33.442 806.582 30.038 802.305 30.038C801.083 30.038 799.955 30.314 798.921 30.82C799.297 31.924 799.485 33.12 799.485 34.316C799.485 37.398 798.263 40.158 796.289 42.274C797.652 43.93 799.72 45.034 802.023 45.126H802.587V45.08ZM798.404 45.08C797.37 44.528 796.43 43.792 795.678 42.918C794.691 43.792 793.563 44.574 792.294 45.08H798.404ZM795.067 42.09C794.221 40.756 793.704 39.192 793.704 37.536C793.704 34.5 795.349 31.878 797.793 30.36C796.665 27.554 794.362 25.3 791.448 24.196C788.628 27.738 784.257 29.992 779.369 29.992C778.758 29.992 778.1 29.946 777.489 29.854C776.878 31.188 776.549 32.66 776.549 34.224C776.549 40.158 781.484 44.988 787.547 44.988C790.461 45.08 793.093 43.93 795.067 42.09ZM790.461 23.92C789.521 23.69 788.534 23.506 787.547 23.506C783.458 23.506 779.839 25.714 777.959 28.98C778.429 29.026 778.899 29.072 779.369 29.072C783.787 29.072 787.782 27.048 790.461 23.92ZM764.987 45.08H782.753C778.476 43.286 775.515 39.146 775.515 34.316C775.515 32.706 775.844 31.188 776.455 29.762C771.191 28.796 766.867 25.116 764.987 20.286V45.08ZM764.987 15.272C765.128 22.08 770.204 27.738 776.878 28.842C778.899 25.116 782.894 22.54 787.5 22.54C788.722 22.54 789.944 22.724 791.072 23.046C792.717 20.746 793.657 17.986 793.657 14.996C793.657 7.26799 787.218 0.966003 779.322 0.966003C771.52 0.966003 765.128 7.12999 764.987 14.766V15.272ZM764.987 9.75201C766.538 5.70401 769.828 2.484 773.964 0.966003H764.987V9.75201Z" fill="#DBDBDB"/>
<path d="M803.386 12.236C800.707 12.236 798.545 10.12 798.545 7.498C798.545 4.876 800.707 2.76001 803.386 2.76001C806.065 2.76001 808.227 4.876 808.227 7.498C808.227 10.12 806.065 12.236 803.386 12.236ZM803.386 3.68001C801.224 3.68001 799.485 5.382 799.485 7.498C799.485 9.614 801.224 11.316 803.386 11.316C805.548 11.316 807.287 9.614 807.287 7.498C807.287 5.382 805.548 3.68001 803.386 3.68001Z" fill="#DBDBDB"/>
<path d="M855 0.506003V45.54V46H810V0H855V0.506003ZM851.985 6.76201L833.265 45.034H839.52L851.985 6.76201ZM840.51 45.034H847.35L853.245 6.026L840.51 45.034ZM850.725 7.176L826.02 45.034H832.23L850.725 7.176ZM849.24 7.72801L818.82 45.034H824.895L849.24 7.72801ZM847.53 8.326L811.62 45.034H817.605L847.53 8.326ZM813.015 39.238L831.735 0.966003H825.48L813.015 39.238ZM824.49 0.966003H817.65L811.755 39.974L824.49 0.966003ZM814.275 38.824L838.98 0.966003H832.815L814.275 38.824ZM815.76 38.272L846.18 0.966003H840.105L815.76 38.272ZM817.47 37.674L853.38 0.966003H847.395L817.47 37.674ZM854.055 6.76201L848.295 45.034H854.055V6.76201ZM810.945 39.238L816.705 0.966003H810.945V39.238Z" fill="#DBDBDB"/>
<path d="M884.038 0H870.008H869.042H854V15.011V15.978V30.022V30.989V46H868.996H869.962H883.992H884.958H900V30.989V30.022V15.978V15.011V0H885.004H884.038ZM884.038 42.5926L880.174 31.035H884.038V42.5926ZM879.852 30.022L875.16 15.978H884.038V30.022H879.852ZM869.962 3.45345L873.826 15.011H869.962V3.45345ZM868.996 30.022H864.81L860.118 15.978H868.996V30.022ZM868.996 30.989V42.5465L865.132 30.989H868.996ZM869.962 15.978H874.148L878.84 30.022H869.962V15.978ZM885.004 15.978H889.19L893.882 30.022H885.004V15.978ZM885.004 15.011V3.45345L888.868 15.011H885.004ZM884.038 15.011H874.838L870.146 0.966967H883.992V15.011H884.038ZM868.996 15.011H859.796L855.104 0.966967H868.95V15.011H868.996ZM854.966 3.45345L858.83 15.011H854.966V3.45345ZM854.966 15.978H859.152L863.844 30.022H854.966V15.978ZM854.966 30.989H864.166L868.858 45.033H855.012V30.989H854.966ZM869.962 30.989H879.162L883.854 45.033H870.008V30.989H869.962ZM885.004 30.989H894.204L898.896 45.033H885.05V30.989H885.004ZM899.034 42.5926L895.17 31.035H899.034V42.5926ZM899.034 30.022H894.848L890.156 15.978H899.034V30.022ZM899.034 15.011H889.834L885.142 0.966967H898.988V15.011H899.034Z" fill="#DBDBDB"/>
<path d="M179.592 0V46H225.51V0H179.592ZM180.556 0.966003H201.954L180.602 22.356V0.966003H180.556ZM180.556 45.034V23.644L201.908 45.034H180.556ZM202.092 43.838L181.291 23L202.092 2.16201V43.838ZM203.056 0.966003H209.898C206.821 2.07 204.342 4.416 203.056 7.36V0.966003ZM224.546 45.034H203.01V16.652C204.801 20.838 208.934 23.736 213.755 23.736C218.576 23.736 222.709 20.792 224.5 16.652V45.034H224.546ZM213.801 22.816C207.878 22.816 203.056 17.986 203.056 12.052C203.056 6.11801 207.878 1.28801 213.801 1.28801C219.724 1.28801 224.546 6.11801 224.546 12.052C224.546 17.986 219.724 22.816 213.801 22.816ZM224.546 7.36C223.26 4.37 220.781 2.07 217.704 0.966003H224.546V7.36Z" fill="#DBDBDB"/>
<path d="M208.586 39.5385H218.934V29.1617H208.586V39.5385ZM209.552 30.1302H217.968V38.57H209.552V30.1302Z" fill="#DBDBDB"/>
</svg>
