<svg width="45" height="177" viewBox="0 0 45 177" fill="none" xmlns="http://www.w3.org/2000/svg">
<path d="M0 0V45H45V0H0ZM0.945003 2.475L17.46 35.505L0.945003 43.785V2.475ZM2.475 44.055L17.91 36.36L21.78 44.055H2.475ZM44.055 44.055H22.77L18.72 35.91L44.055 23.265V44.055ZM44.055 22.23L18.315 35.1L1.21501 0.945003H44.055V22.23Z" fill="#DBDBDB"/>
<path d="M38.1152 5.715H27.9902V15.84H38.1152V5.715ZM37.1702 14.895H28.9352V6.66H37.1702V14.895Z" fill="#DBDBDB"/>
<path d="M38.295 44H37.35H33.075H32.13H28.305H27.36H23.445H22.5H0V66.5V67.445V71.36V72.305V76.13V77.075V81.35V82.295V89H6.705H7.65001H11.925H12.87H16.695H17.64H21.555H22.5H45V66.5V65.555V61.64V60.695V56.87V55.925V51.65V50.705V44H38.295ZM24.75 53.855C24.03 53.72 23.265 53.63 22.5 53.63C15.39 53.63 9.62999 59.39 9.62999 66.5C9.62999 67.265 9.71999 68.03 9.85499 68.75C8.59499 68.12 7.24501 67.625 5.85001 67.265C5.85001 66.995 5.85001 66.77 5.85001 66.5C5.85001 57.32 13.32 49.805 22.545 49.805C22.815 49.805 23.04 49.805 23.31 49.805C23.625 51.245 24.12 52.595 24.75 53.855ZM25.29 54.935C27.315 58.58 30.375 61.64 34.02 63.665C34.245 64.565 34.38 65.51 34.38 66.5C34.38 73.07 29.025 78.425 22.455 78.425C21.465 78.425 20.52 78.29 19.62 78.065C17.595 74.42 14.535 71.36 10.89 69.335C10.665 68.435 10.53 67.49 10.53 66.5C10.53 59.93 15.885 54.575 22.455 54.575C23.445 54.575 24.39 54.71 25.29 54.935ZM0.9 44.945H16.02C8.775 47.105 3.06 52.82 0.9 60.065V44.945ZM0.9 66.5C0.9 54.62 10.575 44.945 22.455 44.945C22.455 44.945 22.455 44.945 22.5 44.945C22.545 46.295 22.725 47.6 22.995 48.905C22.815 48.905 22.635 48.905 22.455 48.905C12.735 48.905 4.81499 56.825 4.81499 66.545C4.81499 66.725 4.81499 66.905 4.81499 67.085C3.55499 66.77 2.25 66.59 0.9 66.5ZM0.9 88.055V82.385C3.825 82.79 6.165 85.13 6.57 88.055H0.9ZM7.51499 88.055C7.06499 84.59 4.365 81.845 0.9 81.44V77.12C1.53 77.165 2.20499 77.255 2.78999 77.435C3.23999 77.525 3.68999 77.705 4.13999 77.84C7.37999 79.055 9.94499 81.62 11.115 84.815C11.295 85.265 11.43 85.715 11.52 86.165C11.655 86.795 11.79 87.425 11.835 88.055H7.51499ZM12.78 88.055C12.735 87.605 12.69 87.155 12.6 86.705C12.51 86.3 12.42 85.895 12.33 85.49C11.115 81.17 7.74 77.795 3.42 76.58C3.015 76.49 2.61 76.4 2.205 76.31C1.755 76.22 1.305 76.175 0.854997 76.13V72.305C1.125 72.305 1.39499 72.35 1.66499 72.35C3.28499 72.53 4.815 72.935 6.255 73.52C6.705 73.7 7.15499 73.925 7.605 74.15C10.62 75.725 13.095 78.2 14.67 81.215C14.895 81.665 15.12 82.115 15.3 82.565C15.885 84.005 16.29 85.535 16.47 87.155C16.515 87.425 16.515 87.695 16.515 87.965H12.78V88.055ZM17.55 88.055C17.55 87.875 17.55 87.65 17.505 87.47C17.37 85.94 17.055 84.5 16.56 83.105C16.425 82.7 16.245 82.295 16.065 81.935C14.31 77.885 11.025 74.645 7.02 72.89C6.615 72.71 6.25501 72.575 5.85001 72.395C4.45501 71.9 3.01501 71.585 1.48501 71.45C1.30501 71.45 1.08 71.405 0.9 71.405V67.445C0.9 67.445 0.900002 67.445 0.945002 67.445C2.295 67.49 3.645 67.715 4.905 67.985C5.22 68.075 5.53501 68.165 5.85001 68.255C7.33501 68.66 8.73001 69.245 10.035 69.965C10.44 70.19 10.845 70.415 11.25 70.685C14.085 72.44 16.47 74.825 18.225 77.66C18.45 78.065 18.72 78.47 18.945 78.875C19.665 80.18 20.205 81.62 20.655 83.06C20.745 83.375 20.835 83.69 20.925 84.005C21.24 85.31 21.42 86.615 21.465 87.965C21.465 87.965 21.465 87.965 21.465 88.01H17.55V88.055ZM20.205 79.145C20.925 79.28 21.69 79.37 22.455 79.37C29.565 79.37 35.325 73.61 35.325 66.5C35.325 65.735 35.235 64.97 35.1 64.25C36.36 64.88 37.71 65.375 39.105 65.735C39.105 66.005 39.105 66.23 39.105 66.5C39.105 75.68 31.635 83.195 22.41 83.195C22.14 83.195 21.915 83.195 21.645 83.195C21.33 81.755 20.835 80.45 20.205 79.145ZM44.01 88.055H28.89C36.135 85.895 41.85 80.18 44.01 72.935V88.055ZM22.455 88.055C22.365 86.705 22.185 85.4 21.915 84.095C22.095 84.095 22.275 84.095 22.455 84.095C32.175 84.095 40.095 76.175 40.095 66.455C40.095 66.275 40.095 66.095 40.095 65.915C41.355 66.185 42.705 66.365 44.055 66.41C44.055 66.41 44.055 66.41 44.055 66.455C44.01 78.38 34.335 88.055 22.455 88.055ZM44.01 65.555C42.615 65.51 41.31 65.285 40.005 65.015C39.69 64.925 39.375 64.835 39.06 64.745C37.575 64.34 36.18 63.755 34.875 63.035C34.47 62.81 34.065 62.585 33.66 62.315C30.825 60.56 28.44 58.175 26.685 55.34C26.46 54.935 26.19 54.53 25.965 54.125C25.245 52.82 24.705 51.38 24.255 49.94C24.165 49.625 24.075 49.31 23.985 48.995C23.67 47.69 23.49 46.385 23.445 45.035C23.445 45.035 23.445 45.035 23.445 44.99H27.405C27.405 45.17 27.405 45.395 27.45 45.575C27.585 47.105 27.9 48.545 28.395 49.94C28.53 50.345 28.71 50.75 28.89 51.11C30.645 55.16 33.93 58.4 37.935 60.155C38.34 60.335 38.7 60.47 39.105 60.65C40.5 61.145 41.94 61.46 43.47 61.595C43.65 61.595 43.875 61.64 44.055 61.64V65.555H44.01ZM44.01 60.65C43.74 60.65 43.47 60.605 43.2 60.605C41.58 60.425 40.05 60.02 38.61 59.435C38.16 59.255 37.71 59.03 37.26 58.805C34.245 57.23 31.77 54.755 30.195 51.74C29.97 51.29 29.745 50.84 29.565 50.39C28.98 48.95 28.575 47.42 28.395 45.8C28.35 45.53 28.35 45.26 28.35 44.99H32.175C32.22 45.44 32.265 45.89 32.355 46.34C32.445 46.745 32.535 47.15 32.625 47.555C33.84 51.875 37.215 55.25 41.535 56.465C41.94 56.555 42.345 56.645 42.75 56.735C43.2 56.825 43.65 56.87 44.1 56.915V60.65H44.01ZM44.01 55.88C43.38 55.835 42.75 55.745 42.12 55.565C41.67 55.475 41.22 55.295 40.77 55.16C37.53 53.945 34.965 51.38 33.795 48.185C33.615 47.735 33.48 47.285 33.39 46.835C33.255 46.205 33.12 45.575 33.075 44.945H37.395C37.8 48.41 40.545 51.155 44.01 51.56V55.88ZM44.01 50.615C41.085 50.21 38.745 47.87 38.34 44.945H44.01V50.615Z" fill="#DBDBDB"/>
<path d="M14.8516 66.5C14.8516 70.685 18.2715 74.105 22.4565 74.105C26.6415 74.105 30.0616 70.685 30.0616 66.5C30.0616 62.315 26.6415 58.895 22.4565 58.895C18.2715 58.895 14.8516 62.315 14.8516 66.5ZM29.1616 66.5C29.1616 70.19 26.1465 73.205 22.4565 73.205C18.7665 73.205 15.7516 70.19 15.7516 66.5C15.7516 62.81 18.7665 59.795 22.4565 59.795C26.1465 59.84 29.1616 62.81 29.1616 66.5Z" fill="#DBDBDB"/>
<path d="M0 88V133H45V88H0ZM18.225 106.27C18.495 106.27 18.765 106.225 19.08 106.225C21.33 106.225 23.445 106.81 25.29 107.845C23.895 110.455 21.645 112.57 18.945 113.74C18.315 112.255 18 110.59 18 108.88C18 107.98 18.09 107.08 18.225 106.27ZM18.045 114.055C16.74 114.505 15.345 114.775 13.86 114.775C11.61 114.775 9.495 114.19 7.65 113.155C9.54 109.555 13.095 106.945 17.28 106.36C17.145 107.17 17.055 108.025 17.055 108.88C17.055 110.68 17.415 112.435 18.045 114.055ZM13.86 115.675C15.48 115.675 17.01 115.405 18.45 114.865C20.7 119.5 25.425 122.695 30.915 122.695C31.095 122.695 31.32 122.695 31.5 122.65C29.97 128.05 24.975 132.01 19.08 132.01C11.97 132.01 6.16501 126.205 6.16501 119.095C6.16501 117.25 6.57002 115.54 7.24502 113.965C9.22502 115.09 11.475 115.675 13.86 115.675ZM30.915 121.795C25.83 121.795 21.465 118.825 19.35 114.595C22.275 113.335 24.66 111.13 26.145 108.34C29.7 110.635 32.04 114.64 32.04 119.185C32.04 120.085 31.95 120.94 31.77 121.795C31.455 121.75 31.185 121.795 30.915 121.795ZM26.505 107.44C27.27 105.73 27.72 103.84 27.72 101.815C27.72 99.97 27.36 98.26 26.73 96.64C28.035 96.19 29.475 95.92 30.915 95.92C38.025 95.92 43.83 101.725 43.83 108.835C43.83 115.36 38.97 120.715 32.715 121.615C32.85 120.805 32.94 119.95 32.94 119.095C32.94 114.235 30.375 109.915 26.505 107.44ZM26.775 101.815C26.775 103.615 26.37 105.37 25.695 106.945C23.715 105.865 21.465 105.235 19.08 105.235C18.9 105.235 18.675 105.235 18.495 105.28C19.575 101.545 22.275 98.485 25.83 96.955C26.415 98.485 26.775 100.105 26.775 101.815ZM17.505 105.37C12.87 105.91 8.95501 108.7 6.84001 112.66C3.28501 110.365 0.945003 106.36 0.945003 101.86C0.945003 94.75 6.74999 88.945 13.86 88.945C18.945 88.945 23.31 91.915 25.425 96.145C21.555 97.81 18.585 101.23 17.505 105.37ZM8.86501 88.945C5.22001 90.34 2.34 93.22 0.945003 96.865V88.945H8.86501ZM0.945003 132.055V106.81C2.025 109.6 3.95999 111.94 6.43499 113.515C5.66999 115.225 5.22002 117.115 5.22002 119.14C5.22002 125.035 8.90999 130.03 14.085 132.055H0.945003ZM24.075 132.055C28.215 130.48 31.365 126.97 32.49 122.65C37.935 122.02 42.435 118.24 44.1 113.155V132.055H24.075ZM44.055 88.945V104.605C42.255 99.07 37.035 95.02 30.87 95.02C29.25 95.02 27.72 95.29 26.28 95.83C24.75 92.68 22.095 90.205 18.81 88.945H44.055Z" fill="#DBDBDB"/>
<path d="M45 159.54V136.05V132H0V177H45V159.54ZM31.635 158.595C31.545 155.535 30.465 152.7 28.755 150.45L44.1 138.03V158.595H31.635ZM17.37 145.68C21.375 145.68 25.02 147.48 27.45 150.315L23.22 153.735C21.78 152.16 19.665 151.125 17.37 151.125C12.96 151.125 9.405 154.68 9.405 159.09C9.405 163.5 12.96 167.055 17.37 167.055C21.6 167.055 25.065 163.725 25.29 159.585H30.735C30.465 166.74 24.615 172.5 17.37 172.5C9.99 172.5 3.95999 166.515 3.95999 159.09C3.95999 151.665 9.945 145.68 17.37 145.68ZM16.02 159.54H24.345C24.12 163.185 21.06 166.065 17.37 166.065C13.5 166.065 10.35 162.915 10.35 159.045C10.35 155.175 13.5 152.025 17.37 152.025C19.395 152.025 21.24 152.88 22.5 154.275L16.02 159.54ZM23.085 155.04C23.805 156.075 24.255 157.29 24.345 158.595H18.675L23.085 155.04ZM25.29 158.595C25.2 157.065 24.66 155.625 23.805 154.455L28.035 151.035C29.655 153.15 30.6 155.76 30.735 158.595H25.29ZM0.945003 176.055V132.945H44.055V136.815L28.125 149.685C25.515 146.67 21.645 144.735 17.325 144.735C9.405 144.735 3.01501 151.17 3.01501 159.045C3.01501 166.965 9.45 173.355 17.325 173.355C25.065 173.355 31.365 167.19 31.635 159.495H44.055V176.01H0.945003V176.055Z" fill="#DBDBDB"/>
</svg>
