<svg width="48" height="188" viewBox="0 0 48 188" fill="none" xmlns="http://www.w3.org/2000/svg">
<path d="M24.48 0.299805H0V24.6372V48.0202H24.48H48V24.6372V0.299805H24.48ZM23.472 11.1801H10.944V23.6351H1.008C1.296 11.4187 11.232 1.54054 23.472 1.30193V11.1801ZM36 23.6351H24.48V12.1822H36V23.6351ZM11.904 24.6372H23.424V36.0901H11.904V24.6372ZM24.48 24.6372H36V36.0901H24.48V24.6372ZM23.472 23.6351H11.952V12.1822H23.472V23.6351ZM10.896 24.6372V37.0922H23.424V46.9704C11.136 46.684 1.2 36.8059 0.96 24.6372H10.896ZM24.48 37.0922H37.008V24.6372H46.944C46.656 36.8536 36.72 46.7318 24.48 46.9704V37.0922ZM37.008 23.6351V11.1801H24.48V1.30193C36.768 1.58826 46.704 11.4664 46.944 23.6351H37.008ZM0.96 1.30193H17.088C9.36 3.59251 3.264 9.653 0.96 17.336V1.30193ZM0.96 47.0181V30.984C3.264 38.667 9.36 44.7275 17.088 47.0181H0.96ZM30.816 47.0181C38.544 44.7275 44.64 38.667 46.944 30.984V47.0181H30.816ZM30.816 1.30193H46.944V17.336C44.64 9.653 38.544 3.59251 30.816 1.30193Z" fill="#DBDBDB"/>
<path d="M48 94.6801V46.9597H0V94.6801H48ZM42.24 49.0594C40.512 51.8272 37.296 57.0287 37.296 63.0415C37.296 65.6661 38.832 68.4339 40.272 71.0585C41.664 73.5877 43.152 76.2123 43.152 78.5984C43.152 82.8455 41.712 84.6111 40.224 86.5199C38.832 88.2379 37.44 90.0513 37.344 93.678H33.408C33.504 90.3376 34.32 88.7151 35.232 87.0449C36.24 85.136 37.296 83.1318 37.296 78.5984C37.296 76.0215 36.288 73.3014 35.328 70.6768C34.368 68.0999 33.408 65.4752 33.408 63.0415C33.408 57.2196 35.52 52.1612 36.624 49.4412C36.912 48.7254 37.104 48.2482 37.2 47.9618H42.96C42.72 48.2482 42.48 48.6299 42.24 49.0594ZM35.712 49.1071C34.56 51.8749 32.448 57.0287 32.448 63.0415C32.448 65.6184 33.456 68.3385 34.416 71.0108C35.376 73.5877 36.336 76.2123 36.336 78.6461C36.336 82.9409 35.328 84.802 34.368 86.6631C33.456 88.381 32.544 90.1467 32.448 93.7257H28.464C28.512 90.3376 28.944 88.7151 29.376 86.9971C29.856 85.0883 30.384 83.1318 30.384 78.6461C30.384 76.1169 29.904 73.3968 29.424 70.7722C28.944 68.1953 28.464 65.523 28.464 63.0415C28.464 57.1719 29.52 52.1135 30.096 49.3935C30.24 48.7254 30.336 48.2959 30.384 47.9618H36.192C36.048 48.2959 35.856 48.6777 35.712 49.1071ZM29.136 49.2026C28.56 51.9704 27.504 57.0764 27.504 63.0415C27.504 65.5707 27.984 68.2907 28.464 70.9154C28.944 73.4923 29.424 76.1646 29.424 78.5984C29.424 82.9409 28.896 84.8497 28.416 86.7108C27.984 88.4288 27.504 90.1944 27.456 93.678H24.384V47.9618H29.376C29.328 48.2959 29.232 48.7254 29.136 49.2026ZM23.52 93.678H20.496C20.448 90.1467 20.016 88.381 19.536 86.7108C19.056 84.8497 18.528 82.9409 18.528 78.5984C18.528 76.1169 19.008 73.4923 19.488 70.9154C19.968 68.2907 20.448 65.5707 20.448 63.0415C20.448 57.0764 19.392 51.9704 18.816 49.2026C18.72 48.7254 18.624 48.2959 18.576 47.9618H23.472V93.678H23.52ZM17.952 49.3935C18.528 52.1135 19.584 57.1719 19.584 63.0415C19.584 65.523 19.104 68.1953 18.624 70.7722C18.144 73.3968 17.664 76.0692 17.664 78.6461C17.664 83.0841 18.192 85.0883 18.672 86.9971C19.104 88.7151 19.536 90.3376 19.584 93.7257H15.6C15.504 90.1467 14.592 88.381 13.68 86.6631C12.72 84.8497 11.712 82.9409 11.712 78.6461C11.712 76.2123 12.672 73.5877 13.632 71.0108C14.592 68.3862 15.6 65.6661 15.6 63.0415C15.6 57.0287 13.488 51.8749 12.336 49.1071C12.144 48.6777 12 48.2959 11.856 47.9618H17.664C17.712 48.2959 17.808 48.7254 17.952 49.3935ZM11.424 49.4412C12.528 52.1612 14.64 57.2196 14.64 63.0415C14.64 65.4752 13.68 68.0999 12.72 70.6768C11.76 73.3014 10.752 76.0215 10.752 78.5984C10.752 83.1318 11.808 85.0883 12.816 87.0449C13.728 88.7151 14.544 90.3376 14.64 93.678H10.656C10.512 90.0513 9.12001 88.2856 7.77601 86.5199C6.28801 84.6111 4.848 82.8455 4.848 78.5984C4.848 76.2123 6.288 73.5877 7.728 71.0585C9.216 68.3862 10.704 65.6661 10.704 63.0415C10.704 56.981 7.488 51.8272 5.76 49.0594C5.52 48.6777 5.28 48.2959 5.088 48.0096H10.848C10.944 48.2959 11.136 48.7254 11.424 49.4412ZM46.992 93.678H38.256C38.352 90.3853 39.6 88.8105 40.944 87.0926C42.48 85.136 44.064 83.1318 44.064 78.5984C44.064 75.9737 42.528 73.2537 41.088 70.5813C39.696 68.0521 38.208 65.3798 38.208 62.9938C38.208 57.2196 41.328 52.209 43.008 49.4889C43.488 48.7254 43.776 48.2482 43.92 47.9141H46.944V93.678H46.992ZM1.008 47.9618H4.03201C4.17601 48.2959 4.46401 48.7731 4.94401 49.5366C6.62401 52.2567 9.74401 57.2673 9.74401 63.0415C9.74401 65.4275 8.30401 68.0521 6.86401 70.629C5.42401 73.2537 3.888 76.0215 3.888 78.6461C3.888 83.1795 5.472 85.2315 7.008 87.1403C8.352 88.8105 9.60001 90.433 9.69601 93.7257H0.96V47.9618H1.008Z" fill="#DBDBDB"/>
<path d="M0 93.6196V141.34H48V93.6196H0ZM46.272 94.6218L40.56 100.3H7.44L1.728 94.6218H46.272ZM40.272 101.303V133.657H7.728V101.303H40.272ZM1.008 95.3376L6.72 101.016V133.991L1.008 139.67V95.3376ZM1.728 140.338L7.44 134.659H40.608L46.32 140.338H1.728ZM46.992 139.622L41.28 133.943V100.969L46.992 95.2898V139.622Z" fill="#DBDBDB"/>
<path d="M24.0004 130.173C31.0564 130.173 36.7684 124.495 36.7684 117.48C36.7684 110.465 31.0564 104.786 24.0004 104.786C16.9444 104.786 11.2324 110.465 11.2324 117.48C11.2324 124.447 16.9444 130.173 24.0004 130.173ZM24.0004 105.788C30.4804 105.788 35.7604 111.038 35.7604 117.48C35.7604 123.922 30.4804 129.171 24.0004 129.171C17.5204 129.171 12.2404 123.922 12.2404 117.48C12.2404 111.038 17.5204 105.788 24.0004 105.788Z" fill="#DBDBDB"/>
<path d="M48 140.28H0V188H48V140.28ZM41.136 174.591C39.84 176.69 38.16 178.552 36.192 180.031V148.249C38.16 149.728 39.84 151.59 41.136 153.689V174.591ZM42.096 155.407C43.392 158.032 44.112 160.99 44.112 164.14C44.112 167.29 43.392 170.248 42.096 172.873V155.407ZM30.336 145.147C32.112 145.72 33.744 146.531 35.28 147.581V180.699C33.792 181.701 32.112 182.56 30.336 183.133V145.147ZM29.424 183.419C27.696 183.896 25.872 184.135 24 184.135C12.912 184.135 3.888 175.163 3.888 164.14C3.888 153.117 12.912 144.145 24 144.145C25.872 144.145 27.696 144.384 29.424 144.861V183.419ZM30.336 144.097V141.282H35.28V146.388C33.744 145.434 32.112 144.67 30.336 144.097ZM35.28 181.892V186.998H30.336V184.183C32.112 183.61 33.744 182.846 35.28 181.892ZM36.24 181.272C38.16 179.935 39.792 178.265 41.184 176.404V187.046H36.24V181.272ZM36.24 147.056V141.33H41.184V151.971C39.792 150.015 38.112 148.392 36.24 147.056ZM1.008 141.282H29.424V143.859C27.696 143.382 25.872 143.143 24 143.143C12.336 143.143 2.88 152.544 2.88 164.14C2.88 175.736 12.336 185.137 24 185.137C25.872 185.137 27.696 184.898 29.424 184.421V186.998H1.008V141.282V141.282ZM46.992 186.998H42.096V174.973C44.016 171.823 45.12 168.101 45.12 164.14C45.12 160.179 44.016 156.457 42.096 153.307V141.282H46.992V186.998Z" fill="#DBDBDB"/>
</svg>
