<svg width="48" height="235" viewBox="0 0 48 235" fill="none" xmlns="http://www.w3.org/2000/svg">
<path d="M0 0V47.7204H48V0H0ZM1.008 2.62462L18.624 37.6514L1.008 46.432V2.62462ZM2.64 46.7183L19.104 38.5581L23.232 46.7183H2.64ZM46.992 46.7183H24.288L19.968 38.0809L46.992 24.6715V46.7183ZM46.992 23.5739L19.536 37.2219L1.29601 1.00213H46.992V23.5739Z" fill="#DBDBDB"/>
<path d="M40.6555 6.06055H29.8555V16.7976H40.6555V6.06055ZM39.6475 15.7955H30.8635V7.06268H39.6475V15.7955Z" fill="#DBDBDB"/>
<path d="M40.848 46.6599H39.84H35.28H34.272H30.192H29.184H25.008H24H0V70.5201V71.5222V75.6739V76.6761V80.7323V81.7344V86.2678V87.27V94.3803H7.15199H8.16001H12.72H13.728H17.808H18.816H22.992H24H48V70.5201V69.518V65.3663V64.3642V60.308V59.3058V54.7724V53.7703V46.6599H40.848ZM26.4 57.1107C25.632 56.9675 24.816 56.8721 24 56.8721C16.416 56.8721 10.272 62.9803 10.272 70.5201C10.272 71.3314 10.368 72.1426 10.512 72.9061C9.16799 72.238 7.72801 71.7131 6.24001 71.3314C6.24001 71.045 6.24001 70.8064 6.24001 70.5201C6.24001 60.7852 14.208 52.8159 24.048 52.8159C24.336 52.8159 24.576 52.8159 24.864 52.8159C25.2 54.3429 25.728 55.7745 26.4 57.1107ZM26.976 58.256C29.136 62.1213 32.4 65.3663 36.288 67.5137C36.528 68.4681 36.672 69.4703 36.672 70.5201C36.672 77.4873 30.96 83.166 23.952 83.166C22.896 83.166 21.888 83.0229 20.928 82.7843C18.768 78.9189 15.504 75.6739 11.616 73.5265C11.376 72.5721 11.232 71.57 11.232 70.5201C11.232 63.5529 16.944 57.8742 23.952 57.8742C25.008 57.8742 26.016 58.0174 26.976 58.256ZM0.96 47.662H17.088C9.36 49.9526 3.264 56.0131 0.96 63.6961V47.662ZM0.96 70.5201C0.96 57.9219 11.28 47.662 23.952 47.662C23.952 47.662 23.952 47.662 24 47.662C24.048 49.0937 24.24 50.4776 24.528 51.8614C24.336 51.8614 24.144 51.8614 23.952 51.8614C13.584 51.8614 5.13599 60.2602 5.13599 70.5678C5.13599 70.7587 5.13599 70.9496 5.13599 71.1405C3.79199 70.8064 2.4 70.6156 0.96 70.5201ZM0.96 93.3782V87.3654C4.08 87.7949 6.576 90.2764 7.008 93.3782H0.96ZM8.01599 93.3782C7.53599 89.7037 4.656 86.7928 0.96 86.3633V81.7821C1.632 81.8299 2.35199 81.9253 2.97599 82.1162C3.45599 82.2116 3.93599 82.4025 4.41599 82.5457C7.87199 83.8341 10.608 86.5542 11.856 89.9423C12.048 90.4195 12.192 90.8967 12.288 91.3739C12.432 92.042 12.576 92.7101 12.624 93.3782H8.01599V93.3782ZM13.632 93.3782C13.584 92.901 13.536 92.4238 13.44 91.9466C13.344 91.5171 13.248 91.0876 13.152 90.6581C11.856 86.077 8.256 82.4979 3.648 81.2095C3.216 81.1141 2.784 81.0186 2.352 80.9232C1.872 80.8277 1.392 80.78 0.911997 80.7323V76.6761C1.2 76.6761 1.48799 76.7238 1.77599 76.7238C3.50399 76.9146 5.136 77.3441 6.67199 77.9645C7.15199 78.1554 7.63199 78.394 8.11199 78.6326C11.328 80.3028 13.968 82.9274 15.648 86.1247C15.888 86.6019 16.128 87.0791 16.32 87.5563C16.944 89.0834 17.376 90.7059 17.568 92.4238C17.616 92.7101 17.616 92.9964 17.616 93.2828H13.632V93.3782ZM18.72 93.3782C18.72 93.1873 18.72 92.9487 18.672 92.7578C18.528 91.1353 18.192 89.6083 17.664 88.129C17.52 87.6995 17.328 87.27 17.136 86.8882C15.264 82.5934 11.76 79.1575 7.488 77.2964C7.056 77.1055 6.67201 76.9624 6.24001 76.7715C4.75201 76.2466 3.21601 75.9125 1.58401 75.7694C1.39201 75.7694 1.152 75.7216 0.96 75.7216V71.5222C0.96 71.5222 0.960003 71.5222 1.008 71.5222C2.448 71.57 3.888 71.8086 5.232 72.0949C5.568 72.1903 5.90401 72.2858 6.24001 72.3812C7.82401 72.8107 9.31201 73.4311 10.704 74.1946C11.136 74.4332 11.568 74.6718 12 74.9581C15.024 76.8192 17.568 79.3484 19.44 82.3548C19.68 82.7843 19.968 83.2137 20.208 83.6432C20.976 85.0271 21.552 86.5542 22.032 88.0812C22.128 88.4153 22.224 88.7493 22.32 89.0834C22.656 90.4673 22.848 91.8511 22.896 93.2828C22.896 93.2828 22.896 93.2828 22.896 93.3305H18.72V93.3782ZM21.552 83.9295C22.32 84.0727 23.136 84.1682 23.952 84.1682C31.536 84.1682 37.68 78.0599 37.68 70.5201C37.68 69.7089 37.584 68.8976 37.44 68.1341C38.784 68.8022 40.224 69.3271 41.712 69.7089C41.712 69.9952 41.712 70.2338 41.712 70.5201C41.712 80.2551 33.744 88.2244 23.904 88.2244C23.616 88.2244 23.376 88.2244 23.088 88.2244C22.752 86.6973 22.224 85.3134 21.552 83.9295ZM46.944 93.3782H30.816C38.544 91.0876 44.64 85.0271 46.944 77.3441V93.3782ZM23.952 93.3782C23.856 91.9466 23.664 90.5627 23.376 89.1788C23.568 89.1788 23.76 89.1788 23.952 89.1788C34.32 89.1788 42.768 80.78 42.768 70.4724C42.768 70.2815 42.768 70.0906 42.768 69.8998C44.112 70.1861 45.552 70.377 46.992 70.4247C46.992 70.4247 46.992 70.4247 46.992 70.4724C46.944 83.1183 36.624 93.3782 23.952 93.3782ZM46.944 69.518C45.456 69.4703 44.064 69.2317 42.672 68.9453C42.336 68.8499 42 68.7545 41.664 68.659C40.08 68.2295 38.592 67.6092 37.2 66.8457C36.768 66.607 36.336 66.3684 35.904 66.0821C32.88 64.221 30.336 61.6918 28.464 58.6855C28.224 58.256 27.936 57.8265 27.696 57.397C26.928 56.0131 26.352 54.4861 25.872 52.959C25.776 52.625 25.68 52.2909 25.584 51.9569C25.248 50.573 25.056 49.1891 25.008 47.7575C25.008 47.7575 25.008 47.7575 25.008 47.7098H29.232C29.232 47.9006 29.232 48.1392 29.28 48.3301C29.424 49.9526 29.76 51.4797 30.288 52.959C30.432 53.3885 30.624 53.818 30.816 54.1997C32.688 58.4946 36.192 61.9305 40.464 63.7915C40.896 63.9824 41.28 64.1256 41.712 64.3165C43.2 64.8414 44.736 65.1754 46.368 65.3186C46.56 65.3186 46.8 65.3663 46.992 65.3663V69.518H46.944ZM46.944 64.3165C46.656 64.3165 46.368 64.2688 46.08 64.2688C44.352 64.0779 42.72 63.6484 41.184 63.028C40.704 62.8371 40.224 62.5985 39.744 62.3599C36.528 60.6897 33.888 58.0651 32.208 54.8678C31.968 54.3906 31.728 53.9134 31.536 53.4362C30.912 51.9092 30.48 50.2867 30.288 48.5687C30.24 48.2824 30.24 47.9961 30.24 47.7098H34.32C34.368 48.187 34.416 48.6642 34.512 49.1414C34.608 49.5709 34.704 50.0004 34.8 50.4298C36.096 55.011 39.696 58.59 44.304 59.8785C44.736 59.9739 45.168 60.0694 45.6 60.1648C46.08 60.2602 46.56 60.308 47.04 60.3557V64.3165H46.944ZM46.944 59.2581C46.272 59.2104 45.6 59.1149 44.928 58.9241C44.448 58.8286 43.968 58.6377 43.488 58.4946C40.032 57.2061 37.296 54.4861 36.048 51.0979C35.856 50.6207 35.712 50.1435 35.616 49.6663C35.472 48.9982 35.328 48.3301 35.28 47.662H39.888C40.32 51.3365 43.248 54.2475 46.944 54.6769V59.2581ZM46.944 53.6748C43.824 53.2453 41.328 50.7639 40.896 47.662H46.944V53.6748Z" fill="#DBDBDB"/>
<path d="M15.8418 70.5201C15.8418 74.9581 19.4898 78.5848 23.9538 78.5848C28.4178 78.5848 32.0658 74.9581 32.0658 70.5201C32.0658 66.0821 28.4178 62.4553 23.9538 62.4553C19.4898 62.4553 15.8418 66.0821 15.8418 70.5201ZM31.1058 70.5201C31.1058 74.4331 27.8898 77.6304 23.9538 77.6304C20.0178 77.6304 16.8018 74.4331 16.8018 70.5201C16.8018 66.607 20.0178 63.4097 23.9538 63.4097C27.8898 63.4575 31.1058 66.607 31.1058 70.5201Z" fill="#DBDBDB"/>
<path d="M0 93.3198V141.04H48V93.3198H0ZM19.44 112.694C19.728 112.694 20.016 112.647 20.352 112.647C22.752 112.647 25.008 113.267 26.976 114.365C25.488 117.132 23.088 119.375 20.208 120.616C19.536 119.041 19.2 117.275 19.2 115.462C19.2 114.508 19.296 113.553 19.44 112.694ZM19.248 120.95C17.856 121.427 16.368 121.713 14.784 121.713C12.384 121.713 10.128 121.093 8.16 119.996C10.176 116.178 13.968 113.41 18.432 112.79C18.288 113.649 18.192 114.555 18.192 115.462C18.192 117.371 18.576 119.232 19.248 120.95ZM14.784 122.668C16.512 122.668 18.144 122.382 19.68 121.809C22.08 126.724 27.12 130.112 32.976 130.112C33.168 130.112 33.408 130.112 33.6 130.065C31.968 135.791 26.64 139.99 20.352 139.99C12.768 139.99 6.57601 133.834 6.57601 126.295C6.57601 124.338 7.00802 122.525 7.72802 120.854C9.84002 122.048 12.24 122.668 14.784 122.668ZM32.976 129.158C27.552 129.158 22.896 126.008 20.64 121.523C23.76 120.186 26.304 117.848 27.888 114.889C31.68 117.323 34.176 121.57 34.176 126.39C34.176 127.344 34.08 128.251 33.888 129.158C33.552 129.11 33.264 129.158 32.976 129.158ZM28.272 113.935C29.088 112.122 29.568 110.117 29.568 107.97C29.568 106.013 29.184 104.2 28.512 102.482C29.904 102.005 31.44 101.719 32.976 101.719C40.56 101.719 46.752 107.875 46.752 115.414C46.752 122.334 41.568 128.013 34.896 128.967C35.04 128.108 35.136 127.201 35.136 126.295C35.136 121.141 32.4 116.56 28.272 113.935ZM28.56 107.97C28.56 109.879 28.128 111.74 27.408 113.41C25.296 112.265 22.896 111.597 20.352 111.597C20.16 111.597 19.92 111.597 19.728 111.644C20.88 107.684 23.76 104.439 27.552 102.816C28.176 104.439 28.56 106.157 28.56 107.97ZM18.672 111.74C13.728 112.313 9.55201 115.271 7.29601 119.471C3.50401 117.037 1.008 112.79 1.008 108.018C1.008 100.478 7.19999 94.322 14.784 94.322C20.208 94.322 24.864 97.4715 27.12 101.957C22.992 103.723 19.824 107.35 18.672 111.74ZM9.45601 94.322C5.56801 95.8013 2.496 98.8554 1.008 102.721V94.322H9.45601V94.322ZM1.008 140.038V113.267C2.16 116.226 4.22399 118.707 6.86399 120.377C6.04799 122.191 5.56802 124.195 5.56802 126.342C5.56802 132.594 9.50399 137.891 15.024 140.038H1.008ZM25.68 140.038C30.096 138.368 33.456 134.646 34.656 130.065C40.464 129.396 45.264 125.388 47.04 119.996V140.038H25.68ZM46.992 94.322V110.929C45.072 105.059 39.504 100.764 32.928 100.764C31.2 100.764 29.568 101.051 28.032 101.623C26.4 98.2827 23.568 95.6581 20.064 94.322H46.992Z" fill="#DBDBDB"/>
<path d="M48 169.185V144.275V139.98H0V187.7H48V169.185ZM33.744 168.183C33.648 164.938 32.496 161.931 30.672 159.545L47.04 146.375V168.183H33.744ZM18.528 154.487C22.8 154.487 26.688 156.396 29.28 159.402L24.768 163.029C23.232 161.359 20.976 160.261 18.528 160.261C13.824 160.261 10.032 164.031 10.032 168.708C10.032 173.384 13.824 177.154 18.528 177.154C23.04 177.154 26.736 173.623 26.976 169.233H32.784C32.496 176.82 26.256 182.928 18.528 182.928C10.656 182.928 4.22399 176.582 4.22399 168.708C4.22399 160.834 10.608 154.487 18.528 154.487ZM17.088 169.185H25.968C25.728 173.05 22.464 176.104 18.528 176.104C14.4 176.104 11.04 172.764 11.04 168.66C11.04 164.556 14.4 161.216 18.528 161.216C20.688 161.216 22.656 162.122 24 163.602L17.088 169.185ZM24.624 164.413C25.392 165.51 25.872 166.799 25.968 168.183H19.92L24.624 164.413ZM26.976 168.183C26.88 166.56 26.304 165.033 25.392 163.792L29.904 160.166C31.632 162.409 32.64 165.176 32.784 168.183H26.976ZM1.008 186.698V140.982H46.992V145.086L30 158.734C27.216 155.537 23.088 153.485 18.48 153.485C10.032 153.485 3.21601 160.309 3.21601 168.66C3.21601 177.059 10.08 183.835 18.48 183.835C26.736 183.835 33.456 177.297 33.744 169.137H46.992V186.651H1.008V186.698Z" fill="#DBDBDB"/>
<path d="M0 186.64V234.36H48V186.64H0ZM1.008 187.642H23.376L1.05601 209.832V187.642H1.008ZM1.008 233.358V211.168L23.328 233.358H1.008ZM23.52 232.117L1.77601 210.5L23.52 188.883V232.117ZM24.528 187.642H31.68C28.464 188.787 25.872 191.221 24.528 194.275V187.642ZM46.992 233.358H24.48V203.915C26.352 208.257 30.672 211.264 35.712 211.264C40.752 211.264 45.072 208.21 46.944 203.915V233.358H46.992ZM35.76 210.309C29.568 210.309 24.528 205.299 24.528 199.143C24.528 192.987 29.568 187.976 35.76 187.976C41.952 187.976 46.992 192.987 46.992 199.143C46.992 205.299 41.952 210.309 35.76 210.309ZM46.992 194.275C45.648 191.173 43.056 188.787 39.84 187.642H46.992V194.275Z" fill="#DBDBDB"/>
<path d="M30.3086 227.657H41.1254V216.892H30.3086V227.657ZM31.3182 217.897H40.1158V226.653H31.3182V217.897Z" fill="#DBDBDB"/>
</svg>
