<svg width="48" height="235" viewBox="0 0 48 235" fill="none" xmlns="http://www.w3.org/2000/svg">
<path d="M0 187V234.72H48V187H0ZM1.008 189.625L18.624 224.651L1.008 233.432V189.625ZM2.64 233.718L19.104 225.558L23.232 233.718H2.64ZM46.992 233.718H24.288L19.968 225.081L46.992 211.671V233.718ZM46.992 210.574L19.536 224.222L1.29601 188.002H46.992V210.574Z" fill="#DBDBDB"/>
<path d="M40.6555 193.061H29.8555V203.798H40.6555V193.061ZM39.6475 202.796H30.8635V194.063H39.6475V202.796Z" fill="#DBDBDB"/>
<path d="M0 140.161V187.882H48V140.161H0ZM19.44 159.536C19.728 159.536 20.016 159.488 20.352 159.488C22.752 159.488 25.008 160.108 26.976 161.206C25.488 163.974 23.088 166.216 20.208 167.457C19.536 165.882 19.2 164.117 19.2 162.303C19.2 161.349 19.296 160.395 19.44 159.536ZM19.248 167.791C17.856 168.268 16.368 168.555 14.784 168.555C12.384 168.555 10.128 167.934 8.16 166.837C10.176 163.019 13.968 160.251 18.432 159.631C18.288 160.49 18.192 161.397 18.192 162.303C18.192 164.212 18.576 166.073 19.248 167.791ZM14.784 169.509C16.512 169.509 18.144 169.223 19.68 168.65C22.08 173.565 27.12 176.954 32.976 176.954C33.168 176.954 33.408 176.954 33.6 176.906C31.968 182.632 26.64 186.832 20.352 186.832C12.768 186.832 6.57601 180.676 6.57601 173.136C6.57601 171.179 7.00802 169.366 7.72802 167.696C9.84002 168.889 12.24 169.509 14.784 169.509ZM32.976 175.999C27.552 175.999 22.896 172.85 20.64 168.364C23.76 167.028 26.304 164.689 27.888 161.731C31.68 164.164 34.176 168.412 34.176 173.231C34.176 174.186 34.08 175.092 33.888 175.999C33.552 175.951 33.264 175.999 32.976 175.999ZM28.272 160.776C29.088 158.963 29.568 156.959 29.568 154.811C29.568 152.855 29.184 151.041 28.512 149.323C29.904 148.846 31.44 148.56 32.976 148.56C40.56 148.56 46.752 154.716 46.752 162.256C46.752 169.175 41.568 174.854 34.896 175.808C35.04 174.949 35.136 174.043 35.136 173.136C35.136 167.982 32.4 163.401 28.272 160.776ZM28.56 154.811C28.56 156.72 28.128 158.581 27.408 160.251C25.296 159.106 22.896 158.438 20.352 158.438C20.16 158.438 19.92 158.438 19.728 158.486C20.88 154.525 23.76 151.28 27.552 149.657C28.176 151.28 28.56 152.998 28.56 154.811ZM18.672 158.581C13.728 159.154 9.55201 162.113 7.29601 166.312C3.50401 163.878 1.008 159.631 1.008 154.859C1.008 147.319 7.19999 141.163 14.784 141.163C20.208 141.163 24.864 144.313 27.12 148.799C22.992 150.564 19.824 154.191 18.672 158.581ZM9.45601 141.163C5.56801 142.643 2.496 145.697 1.008 149.562V141.163H9.45601V141.163ZM1.008 186.879V160.108C2.16 163.067 4.22399 165.548 6.86399 167.219C6.04799 169.032 5.56802 171.036 5.56802 173.184C5.56802 179.435 9.50399 184.732 15.024 186.879H1.008ZM25.68 186.879C30.096 185.209 33.456 181.487 34.656 176.906C40.464 176.238 45.264 172.229 47.04 166.837V186.879H25.68ZM46.992 141.163V157.77C45.072 151.9 39.504 147.606 32.928 147.606C31.2 147.606 29.568 147.892 28.032 148.464C26.4 145.124 23.568 142.499 20.064 141.163H46.992Z" fill="#DBDBDB"/>
<path d="M48 94.4409V46.7205H0V94.4409H48ZM42.24 48.8202C40.512 51.588 37.296 56.7895 37.296 62.8022C37.296 65.4269 38.832 68.1946 40.272 70.8193C41.664 73.3484 43.152 75.9731 43.152 78.3591C43.152 82.6062 41.712 84.3719 40.224 86.2807C38.832 87.9986 37.44 89.812 37.344 93.4387H33.408C33.504 90.0983 34.32 88.4758 35.232 86.8056C36.24 84.8968 37.296 82.8925 37.296 78.3591C37.296 75.7822 36.288 73.0621 35.328 70.4375C34.368 67.8606 33.408 65.236 33.408 62.8022C33.408 56.9804 35.52 51.922 36.624 49.2019C36.912 48.4861 37.104 48.0089 37.2 47.7226H42.96C42.72 48.0089 42.48 48.3907 42.24 48.8202ZM35.712 48.8679C34.56 51.6357 32.448 56.7895 32.448 62.8022C32.448 65.3791 33.456 68.0992 34.416 70.7716C35.376 73.3485 36.336 75.9731 36.336 78.4068C36.336 82.7017 35.328 84.5627 34.368 86.4238C33.456 88.1418 32.544 89.9074 32.448 93.4865H28.464C28.512 90.0983 28.944 88.4758 29.376 86.7579C29.856 84.8491 30.384 82.8925 30.384 78.4068C30.384 75.8776 29.904 73.1576 29.424 70.533C28.944 67.956 28.464 65.2837 28.464 62.8022C28.464 56.9326 29.52 51.8743 30.096 49.1542C30.24 48.4861 30.336 48.0566 30.384 47.7226H36.192C36.048 48.0566 35.856 48.4384 35.712 48.8679ZM29.136 48.9633C28.56 51.7311 27.504 56.8372 27.504 62.8022C27.504 65.3314 27.984 68.0515 28.464 70.6761C28.944 73.253 29.424 75.9254 29.424 78.3591C29.424 82.7017 28.896 84.6105 28.416 86.4716C27.984 88.1895 27.504 89.9552 27.456 93.4387H24.384V47.7226H29.376C29.328 48.0566 29.232 48.4861 29.136 48.9633ZM23.52 93.4387H20.496C20.448 89.9074 20.016 88.1418 19.536 86.4716C19.056 84.6105 18.528 82.7017 18.528 78.3591C18.528 75.8776 19.008 73.253 19.488 70.6761C19.968 68.0515 20.448 65.3314 20.448 62.8022C20.448 56.8372 19.392 51.7311 18.816 48.9633C18.72 48.4861 18.624 48.0566 18.576 47.7226H23.472V93.4387H23.52ZM17.952 49.1542C18.528 51.8743 19.584 56.9326 19.584 62.8022C19.584 65.2837 19.104 67.956 18.624 70.533C18.144 73.1576 17.664 75.8299 17.664 78.4068C17.664 82.8448 18.192 84.8491 18.672 86.7579C19.104 88.4758 19.536 90.0983 19.584 93.4865H15.6C15.504 89.9074 14.592 88.1418 13.68 86.4238C12.72 84.6105 11.712 82.7017 11.712 78.4068C11.712 75.9731 12.672 73.3485 13.632 70.7716C14.592 68.1469 15.6 65.4269 15.6 62.8022C15.6 56.7895 13.488 51.6357 12.336 48.8679C12.144 48.4384 12 48.0566 11.856 47.7226H17.664C17.712 48.0566 17.808 48.4861 17.952 49.1542ZM11.424 49.2019C12.528 51.922 14.64 56.9804 14.64 62.8022C14.64 65.236 13.68 67.8606 12.72 70.4375C11.76 73.0621 10.752 75.7822 10.752 78.3591C10.752 82.8925 11.808 84.8491 12.816 86.8056C13.728 88.4758 14.544 90.0983 14.64 93.4387H10.656C10.512 89.812 9.12001 88.0463 7.77601 86.2807C6.28801 84.3719 4.848 82.6062 4.848 78.3591C4.848 75.9731 6.288 73.3484 7.728 70.8193C9.216 68.1469 10.704 65.4269 10.704 62.8022C10.704 56.7417 7.488 51.588 5.76 48.8202C5.52 48.4384 5.28 48.0566 5.088 47.7703H10.848C10.944 48.0566 11.136 48.4861 11.424 49.2019ZM46.992 93.4387H38.256C38.352 90.146 39.6 88.5713 40.944 86.8533C42.48 84.8968 44.064 82.8925 44.064 78.3591C44.064 75.7345 42.528 73.0144 41.088 70.3421C39.696 67.8129 38.208 65.1405 38.208 62.7545C38.208 56.9803 41.328 51.9697 43.008 49.2496C43.488 48.4861 43.776 48.0089 43.92 47.6749H46.944V93.4387H46.992ZM1.008 47.7226H4.03201C4.17601 48.0566 4.46401 48.5338 4.94401 49.2974C6.62401 52.0174 9.74401 57.0281 9.74401 62.8022C9.74401 65.1883 8.30401 67.8129 6.86401 70.3898C5.42401 73.0144 3.888 75.7822 3.888 78.4068C3.888 82.9403 5.472 84.9922 7.008 86.901C8.352 88.5713 9.60001 90.1937 9.69601 93.4865H0.96V47.7226H1.008Z" fill="#DBDBDB"/>
<path d="M48 0H0V47.7204H48V0ZM41.136 34.311C39.84 36.4107 38.16 38.2718 36.192 39.7511V7.96931C38.16 9.44865 39.84 11.3097 41.136 13.4094V34.311ZM42.096 15.1274C43.392 17.752 44.112 20.7107 44.112 23.8602C44.112 27.0097 43.392 29.9684 42.096 32.593V15.1274ZM30.336 4.86749C32.112 5.44013 33.744 6.25138 35.28 7.30123V40.4192C33.792 41.4213 32.112 42.2803 30.336 42.8529V4.86749ZM29.424 43.1393C27.696 43.6165 25.872 43.8551 24 43.8551C12.912 43.8551 3.888 34.8836 3.888 23.8602C3.888 12.8368 12.912 3.86536 24 3.86536C25.872 3.86536 27.696 4.10396 29.424 4.58116V43.1393ZM30.336 3.81763V1.00213H35.28V6.10822C33.744 5.15381 32.112 4.39028 30.336 3.81763ZM35.28 41.6122V46.7183H30.336V43.9028C32.112 43.3301 33.744 42.5666 35.28 41.6122ZM36.24 40.9918C38.16 39.6557 39.792 37.9854 41.184 36.1244V46.766H36.24V40.9918ZM36.24 6.7763V1.04985H41.184V11.6915C39.792 9.73496 38.112 8.11247 36.24 6.7763ZM1.008 1.00213H29.424V3.57903C27.696 3.10183 25.872 2.86322 24 2.86322C12.336 2.86322 2.88 12.2641 2.88 23.8602C2.88 35.4563 12.336 44.8572 24 44.8572C25.872 44.8572 27.696 44.6186 29.424 44.1414V46.7183H1.008V1.00213V1.00213ZM46.992 46.7183H42.096V34.6927C44.016 31.5432 45.12 27.821 45.12 23.8602C45.12 19.8994 44.016 16.1772 42.096 13.0277V1.00213H46.992V46.7183Z" fill="#DBDBDB"/>
<path d="M0 93.4409V141.161H48V93.4409H0ZM1.008 94.443H23.376L1.05601 116.633V94.443H1.008ZM1.008 140.159V117.969L23.328 140.159H1.008ZM23.52 138.918L1.77601 117.301L23.52 95.6838V138.918ZM24.528 94.443H31.68C28.464 95.5883 25.872 98.0221 24.528 101.076V94.443ZM46.992 140.159H24.48V110.716C26.352 115.058 30.672 118.065 35.712 118.065C40.752 118.065 45.072 115.011 46.944 110.716V140.159H46.992ZM35.76 117.11C29.568 117.11 24.528 112.1 24.528 105.944C24.528 99.7877 29.568 94.7771 35.76 94.7771C41.952 94.7771 46.992 99.7877 46.992 105.944C46.992 112.1 41.952 117.11 35.76 117.11ZM46.992 101.076C45.648 97.9744 43.056 95.5883 39.84 94.443H46.992V101.076Z" fill="#DBDBDB"/>
<path d="M30.3086 134.458H41.1254V123.693H30.3086V134.458ZM31.3182 124.698H40.1158V133.454H31.3182V124.698Z" fill="#DBDBDB"/>
</svg>
