<svg width="48" height="188" viewBox="0 0 48 188" fill="none" xmlns="http://www.w3.org/2000/svg">
<path d="M40.848 0H39.84H35.28H34.272H30.192H29.184H25.008H24H0V23.8602V24.8623V29.014V30.0161V34.0724V35.0745V39.6079V40.6101V47.7204H7.15199H8.16001H12.72H13.728H17.808H18.816H22.992H24H48V23.8602V22.8581V18.7064V17.7043V13.648V12.6459V8.11247V7.11035V0H40.848ZM26.4 10.4508C25.632 10.3076 24.816 10.2122 24 10.2122C16.416 10.2122 10.272 16.3204 10.272 23.8602C10.272 24.6714 10.368 25.4827 10.512 26.2462C9.16799 25.5781 7.72801 25.0532 6.24001 24.6715C6.24001 24.3851 6.24001 24.1465 6.24001 23.8602C6.24001 14.1252 14.208 6.15594 24.048 6.15594C24.336 6.15594 24.576 6.15594 24.864 6.15594C25.2 7.683 25.728 9.11461 26.4 10.4508ZM26.976 11.5961C29.136 15.4614 32.4 18.7064 36.288 20.8538C36.528 21.8082 36.672 22.8104 36.672 23.8602C36.672 30.8274 30.96 36.5061 23.952 36.5061C22.896 36.5061 21.888 36.363 20.928 36.1244C18.768 32.259 15.504 29.014 11.616 26.8666C11.376 25.9122 11.232 24.9101 11.232 23.8602C11.232 16.893 16.944 11.2143 23.952 11.2143C25.008 11.2143 26.016 11.3575 26.976 11.5961ZM0.96 1.00213H17.088C9.36 3.29271 3.264 9.3532 0.96 17.0362V1.00213ZM0.96 23.8602C0.96 11.262 11.28 1.00213 23.952 1.00213C23.952 1.00213 23.952 1.00213 24 1.00213C24.048 2.43374 24.24 3.81764 24.528 5.20154C24.336 5.20154 24.144 5.20154 23.952 5.20154C13.584 5.20154 5.13599 13.6003 5.13599 23.9079C5.13599 24.0988 5.13599 24.2897 5.13599 24.4806C3.79199 24.1465 2.4 23.9556 0.96 23.8602ZM0.96 46.7183V40.7055C4.08 41.135 6.576 43.6165 7.008 46.7183H0.96ZM8.01599 46.7183C7.53599 43.0438 4.656 40.1329 0.96 39.7034V35.1222C1.632 35.1699 2.35199 35.2654 2.97599 35.4563C3.45599 35.5517 3.93599 35.7426 4.41599 35.8857C7.87199 37.1742 10.608 39.8943 11.856 43.2824C12.048 43.7596 12.192 44.2368 12.288 44.714C12.432 45.3821 12.576 46.0502 12.624 46.7183H8.01599V46.7183ZM13.632 46.7183C13.584 46.2411 13.536 45.7639 13.44 45.2867C13.344 44.8572 13.248 44.4277 13.152 43.9982C11.856 39.4171 8.256 35.838 3.648 34.5496C3.216 34.4541 2.784 34.3587 2.352 34.2633C1.872 34.1678 1.392 34.1201 0.911997 34.0724V30.0161C1.2 30.0161 1.48799 30.0639 1.77599 30.0639C3.50399 30.2547 5.136 30.6842 6.67199 31.3046C7.15199 31.4955 7.63199 31.7341 8.11199 31.9727C11.328 33.6429 13.968 36.2675 15.648 39.4648C15.888 39.942 16.128 40.4192 16.32 40.8964C16.944 42.4234 17.376 44.0459 17.568 45.7639C17.616 46.0502 17.616 46.3365 17.616 46.6228H13.632V46.7183ZM18.72 46.7183C18.72 46.5274 18.72 46.2888 18.672 46.0979C18.528 44.4754 18.192 42.9484 17.664 41.469C17.52 41.0396 17.328 40.6101 17.136 40.2283C15.264 35.9335 11.76 32.4976 7.488 30.6365C7.056 30.4456 6.67201 30.3025 6.24001 30.1116C4.75201 29.5867 3.21601 29.2526 1.58401 29.1094C1.39201 29.1094 1.152 29.0617 0.96 29.0617V24.8623C0.96 24.8623 0.960003 24.8623 1.008 24.8623C2.448 24.9101 3.888 25.1487 5.232 25.435C5.568 25.5304 5.90401 25.6259 6.24001 25.7213C7.82401 26.1508 9.31201 26.7712 10.704 27.5347C11.136 27.7733 11.568 28.0119 12 28.2982C15.024 30.1593 17.568 32.6885 19.44 35.6949C19.68 36.1244 19.968 36.5538 20.208 36.9833C20.976 38.3672 21.552 39.8943 22.032 41.4213C22.128 41.7554 22.224 42.0894 22.32 42.4234C22.656 43.8073 22.848 45.1912 22.896 46.6228C22.896 46.6228 22.896 46.6228 22.896 46.6706H18.72V46.7183ZM21.552 37.2696C22.32 37.4128 23.136 37.5082 23.952 37.5082C31.536 37.5082 37.68 31.4 37.68 23.8602C37.68 23.049 37.584 22.2377 37.44 21.4742C38.784 22.1423 40.224 22.6672 41.712 23.049C41.712 23.3353 41.712 23.5739 41.712 23.8602C41.712 33.5952 33.744 41.5645 23.904 41.5645C23.616 41.5645 23.376 41.5645 23.088 41.5645C22.752 40.0374 22.224 38.6535 21.552 37.2696ZM46.944 46.7183H30.816C38.544 44.4277 44.64 38.3672 46.944 30.6842V46.7183ZM23.952 46.7183C23.856 45.2867 23.664 43.9028 23.376 42.5189C23.568 42.5189 23.76 42.5189 23.952 42.5189C34.32 42.5189 42.768 34.1201 42.768 23.8125C42.768 23.6216 42.768 23.4307 42.768 23.2398C44.112 23.5262 45.552 23.717 46.992 23.7648C46.992 23.7648 46.992 23.7648 46.992 23.8125C46.944 36.4584 36.624 46.7183 23.952 46.7183ZM46.944 22.8581C45.456 22.8104 44.064 22.5718 42.672 22.2854C42.336 22.19 42 22.0945 41.664 21.9991C40.08 21.5696 38.592 20.9493 37.2 20.1857C36.768 19.9471 36.336 19.7085 35.904 19.4222C32.88 17.5611 30.336 15.0319 28.464 12.0255C28.224 11.5961 27.936 11.1666 27.696 10.7371C26.928 9.3532 26.352 7.82615 25.872 6.2991C25.776 5.96506 25.68 5.63101 25.584 5.29697C25.248 3.91308 25.056 2.52919 25.008 1.09758C25.008 1.09758 25.008 1.09758 25.008 1.04985H29.232C29.232 1.24074 29.232 1.47933 29.28 1.67021C29.424 3.29271 29.76 4.81977 30.288 6.2991C30.432 6.72858 30.624 7.15807 30.816 7.53983C32.688 11.8347 36.192 15.2705 40.464 17.1316C40.896 17.3225 41.28 17.4657 41.712 17.6565C43.2 18.1815 44.736 18.5155 46.368 18.6587C46.56 18.6587 46.8 18.7064 46.992 18.7064V22.8581H46.944ZM46.944 17.6565C46.656 17.6565 46.368 17.6088 46.08 17.6088C44.352 17.418 42.72 16.9885 41.184 16.3681C40.704 16.1772 40.224 15.9386 39.744 15.7C36.528 14.0298 33.888 11.4052 32.208 8.20792C31.968 7.73071 31.728 7.25351 31.536 6.7763C30.912 5.24925 30.48 3.62675 30.288 1.90882C30.24 1.62249 30.24 1.33618 30.24 1.04985H34.32C34.368 1.52706 34.416 2.00426 34.512 2.48147C34.608 2.91095 34.704 3.34044 34.8 3.76992C36.096 8.35108 39.696 11.9301 44.304 13.2186C44.736 13.314 45.168 13.4094 45.6 13.5049C46.08 13.6003 46.56 13.648 47.04 13.6958V17.6565H46.944ZM46.944 12.5982C46.272 12.5505 45.6 12.455 44.928 12.2641C44.448 12.1687 43.968 11.9778 43.488 11.8347C40.032 10.5462 37.296 7.82615 36.048 4.43801C35.856 3.9608 35.712 3.4836 35.616 3.00639C35.472 2.33831 35.328 1.67022 35.28 1.00213H39.888C40.32 4.6766 43.248 7.58755 46.944 8.01704V12.5982ZM46.944 7.0149C43.824 6.58542 41.328 4.10396 40.896 1.00213H46.944V7.0149Z" fill="#DBDBDB"/>
<path d="M15.8418 23.8602C15.8418 28.2982 19.4898 31.9249 23.9538 31.9249C28.4178 31.9249 32.0658 28.2982 32.0658 23.8602C32.0658 19.4222 28.4178 15.7954 23.9538 15.7954C19.4898 15.7954 15.8418 19.4222 15.8418 23.8602ZM31.1058 23.8602C31.1058 27.7732 27.8898 30.9705 23.9538 30.9705C20.0178 30.9705 16.8018 27.7732 16.8018 23.8602C16.8018 19.9471 20.0178 16.7498 23.9538 16.7498C27.8898 16.7975 31.1058 19.9471 31.1058 23.8602Z" fill="#DBDBDB"/>
<path d="M48 75.5274V50.6173V46.3225H0V94.0429H48V75.5274ZM33.744 74.5253C33.648 71.2803 32.496 68.2739 30.672 65.8879L47.04 52.717V74.5253H33.744ZM18.528 60.8295C22.8 60.8295 26.688 62.7383 29.28 65.7447L24.768 69.3715C23.232 67.7013 20.976 66.6037 18.528 66.6037C13.824 66.6037 10.032 70.3736 10.032 75.0502C10.032 79.7268 13.824 83.4967 18.528 83.4967C23.04 83.4967 26.736 79.9654 26.976 75.5751H32.784C32.496 83.1627 26.256 89.2709 18.528 89.2709C10.656 89.2709 4.22399 82.9241 4.22399 75.0502C4.22399 67.1763 10.608 60.8295 18.528 60.8295ZM17.088 75.5274H25.968C25.728 79.3928 22.464 82.4469 18.528 82.4469C14.4 82.4469 11.04 79.1064 11.04 75.0025C11.04 70.8985 14.4 67.5581 18.528 67.5581C20.688 67.5581 22.656 68.4648 24 69.9441L17.088 75.5274ZM24.624 70.7554C25.392 71.8529 25.872 73.1414 25.968 74.5253H19.92L24.624 70.7554ZM26.976 74.5253C26.88 72.9028 26.304 71.3757 25.392 70.135L29.904 66.5082C31.632 68.7511 32.64 71.5189 32.784 74.5253H26.976ZM1.008 93.0408V47.3246H46.992V51.4286L30 65.0766C27.216 61.8794 23.088 59.8274 18.48 59.8274C10.032 59.8274 3.21601 66.6514 3.21601 75.0025C3.21601 83.4013 10.08 90.1776 18.48 90.1776C26.736 90.1776 33.456 83.6399 33.744 75.4797H46.992V92.9931H1.008V93.0408Z" fill="#DBDBDB"/>
<path d="M24.48 93.0427H0V117.38V140.763H24.48H48V117.38V93.0427H24.48ZM23.472 103.923H10.944V116.378H1.008C1.296 104.162 11.232 94.2835 23.472 94.0449V103.923ZM36 116.378H24.48V104.925H36V116.378ZM11.904 117.38H23.424V128.833H11.904V117.38ZM24.48 117.38H36V128.833H24.48V117.38ZM23.472 116.378H11.952V104.925H23.472V116.378ZM10.896 117.38V129.835H23.424V139.713C11.136 139.427 1.2 129.549 0.96 117.38H10.896ZM24.48 129.835H37.008V117.38H46.944C46.656 129.597 36.72 139.475 24.48 139.713V129.835ZM37.008 116.378V103.923H24.48V94.0449C36.768 94.3312 46.704 104.209 46.944 116.378H37.008ZM0.96 94.0449H17.088C9.36 96.3354 3.264 102.396 0.96 110.079V94.0449ZM0.96 139.761V123.727C3.264 131.41 9.36 137.47 17.088 139.761H0.96ZM30.816 139.761C38.544 137.47 44.64 131.41 46.944 123.727V139.761H30.816ZM30.816 94.0449H46.944V110.079C44.64 102.396 38.544 96.3354 30.816 94.0449Z" fill="#DBDBDB"/>
<path d="M0 139.763V187.484H48V139.763H0ZM46.272 140.765L40.56 146.444H7.44L1.728 140.765H46.272ZM40.272 147.446V179.801H7.728V147.446H40.272ZM1.008 141.481L6.72 147.16V180.135L1.008 185.813V141.481ZM1.728 186.481L7.44 180.803H40.608L46.32 186.481H1.728ZM46.992 185.766L41.28 180.087V147.112L46.992 141.433V185.766Z" fill="#DBDBDB"/>
<path d="M24.0004 176.317C31.0564 176.317 36.7684 170.638 36.7684 163.623C36.7684 156.608 31.0564 150.93 24.0004 150.93C16.9444 150.93 11.2324 156.608 11.2324 163.623C11.2324 170.59 16.9444 176.317 24.0004 176.317ZM24.0004 151.932C30.4804 151.932 35.7604 157.181 35.7604 163.623C35.7604 170.066 30.4804 175.315 24.0004 175.315C17.5204 175.315 12.2404 170.066 12.2404 163.623C12.2404 157.181 17.5204 151.932 24.0004 151.932Z" fill="#DBDBDB"/>
</svg>
