<svg width="46" height="406" viewBox="0 0 46 406" fill="none" xmlns="http://www.w3.org/2000/svg">
<path d="M23.46 135H0V158.46V181H23.46H46V158.46V135H23.46ZM22.494 145.488H10.488V157.494H0.966003C1.242 145.718 10.764 136.196 22.494 135.966V145.488ZM34.5 157.494H23.46V146.454H34.5V157.494ZM11.408 158.46H22.448V169.5H11.408V158.46ZM23.46 158.46H34.5V169.5H23.46V158.46ZM22.494 157.494H11.454V146.454H22.494V157.494ZM10.442 158.46V170.466H22.448V179.988C10.672 179.712 1.15 170.19 0.92 158.46H10.442ZM23.46 170.466H35.466V158.46H44.988C44.712 170.236 35.19 179.758 23.46 179.988V170.466ZM35.466 157.494V145.488H23.46V135.966C35.236 136.242 44.758 145.764 44.988 157.494H35.466ZM0.92 135.966H16.376C8.97 138.174 3.128 144.016 0.92 151.422V135.966ZM0.92 180.034V164.578C3.128 171.984 8.97 177.826 16.376 180.034H0.92ZM29.532 180.034C36.938 177.826 42.78 171.984 44.988 164.578V180.034H29.532ZM29.532 135.966H44.988V151.422C42.78 144.016 36.938 138.174 29.532 135.966Z" fill="#DBDBDB"/>
<path d="M46 194.766V180H0V226H46V195.272C46 195.18 46 195.088 46 195.042C46 194.95 46 194.858 46 194.766ZM0.92 181.012H25.714C20.01 183.128 15.962 188.602 15.962 195.042C15.962 198.124 16.928 201.022 18.538 203.414C15.594 204.61 13.248 206.956 12.052 209.9C10.948 209.394 9.70601 209.072 8.41801 209.072C5.15201 209.072 2.30001 210.958 0.874011 213.672V181.012H0.92ZM12.65 211.28C14.674 212.614 16.008 214.914 16.008 217.536C16.008 218.962 15.594 220.296 14.904 221.4C13.202 219.514 12.19 216.984 12.19 214.27C12.19 213.258 12.374 212.246 12.65 211.28ZM0.92 225.08V221.4C1.748 222.964 2.99001 224.252 4.55401 225.08H0.92ZM8.23401 225.08C4.18601 224.942 0.966003 221.63 0.966003 217.582C0.966003 213.442 4.324 210.038 8.51 210.038C9.706 210.038 10.81 210.314 11.822 210.82C11.454 211.924 11.27 213.12 11.27 214.316C11.27 217.398 12.466 220.158 14.398 222.274C13.064 223.93 11.04 225.034 8.786 225.126H8.23401V225.08ZM12.328 225.08C13.34 224.528 14.26 223.792 14.996 222.918C15.962 223.792 17.066 224.574 18.308 225.08H12.328ZM15.594 222.09C16.422 220.756 16.928 219.192 16.928 217.536C16.928 214.5 15.318 211.878 12.926 210.36C14.03 207.554 16.284 205.3 19.136 204.196C21.896 207.738 26.174 209.992 30.958 209.992C31.556 209.992 32.2 209.946 32.798 209.854C33.396 211.188 33.718 212.66 33.718 214.224C33.718 220.158 28.888 224.988 22.954 224.988C20.102 225.08 17.526 223.93 15.594 222.09ZM20.102 203.92C21.022 203.69 21.988 203.506 22.954 203.506C26.956 203.506 30.498 205.714 32.338 208.98C31.878 209.026 31.418 209.072 30.958 209.072C26.634 209.072 22.724 207.048 20.102 203.92ZM45.034 225.08H27.646C31.832 223.286 34.73 219.146 34.73 214.316C34.73 212.706 34.408 211.188 33.81 209.762C38.962 208.796 43.194 205.116 45.034 200.286V225.08ZM45.034 195.272C44.896 202.08 39.928 207.738 33.396 208.842C31.418 205.116 27.508 202.54 23 202.54C21.804 202.54 20.608 202.724 19.504 203.046C17.894 200.746 16.974 197.986 16.974 194.996C16.974 187.268 23.276 180.966 31.004 180.966C38.64 180.966 44.896 187.13 45.034 194.766V195.272ZM45.034 189.752C43.516 185.704 40.296 182.484 36.248 180.966H45.034V189.752Z" fill="#DBDBDB"/>
<path d="M7.45235 192.236C10.0744 192.236 12.1903 190.12 12.1903 187.498C12.1903 184.876 10.0744 182.76 7.45235 182.76C4.83035 182.76 2.71436 184.876 2.71436 187.498C2.71436 190.12 4.83035 192.236 7.45235 192.236ZM7.45235 183.68C9.56835 183.68 11.2703 185.382 11.2703 187.498C11.2703 189.614 9.56835 191.316 7.45235 191.316C5.33635 191.316 3.63436 189.614 3.63436 187.498C3.63436 185.382 5.33635 183.68 7.45235 183.68Z" fill="#DBDBDB"/>
<path d="M7.12291 240.778H0V255.176H7.12291H14.2458V240.778H7.12291C7.16886 240.778 7.16886 240.778 7.12291 240.778ZM1.01099 241.744H3.63038C2.52748 242.388 1.65434 243.308 1.01099 244.366V241.744ZM1.01099 254.21V251.588C1.65434 252.692 2.52748 253.612 3.63038 254.21H1.01099ZM13.2808 254.21H10.7073C11.8102 253.566 12.6834 252.646 13.3267 251.588V254.21H13.2808ZM7.16885 254.21C3.76824 254.21 1.01099 251.404 1.01099 248C1.01099 244.55 3.76824 241.79 7.16885 241.79C10.5695 241.79 13.3267 244.596 13.3267 248C13.2808 251.404 10.5235 254.21 7.16885 254.21ZM13.2808 241.744V244.366C12.6374 243.262 11.7643 242.342 10.6614 241.744H13.2808Z" fill="#DBDBDB"/>
<path d="M23.0226 240.778H15.8997V255.176H23.0226H30.1455V240.778H23.0226ZM16.8647 241.744H19.4841C18.3812 242.388 17.5081 243.308 16.8647 244.366V241.744ZM16.8647 254.21V251.588C17.5081 252.692 18.3812 253.612 19.4841 254.21H16.8647ZM29.1804 254.21H26.561C27.664 253.566 28.5371 252.646 29.1804 251.588V254.21ZM23.0226 254.21C19.622 254.21 16.8647 251.404 16.8647 248C16.8647 244.55 19.622 241.79 23.0226 241.79C26.4232 241.79 29.1804 244.596 29.1804 248C29.1804 251.404 26.4232 254.21 23.0226 254.21ZM29.1804 241.744V244.366C28.5371 243.262 27.664 242.342 26.561 241.744H29.1804Z" fill="#DBDBDB"/>
<path d="M38.8771 240.778H31.7542V255.176H38.8771H46V240.778H38.8771ZM32.7192 241.744H35.3386C34.2357 242.388 33.3626 243.308 32.7192 244.366V241.744ZM32.7192 254.21V251.588C33.3626 252.692 34.2357 253.612 35.3386 254.21H32.7192ZM45.0349 254.21H42.4155C43.5184 253.566 44.3916 252.646 45.0349 251.588V254.21ZM38.8771 254.21C35.4764 254.21 32.7192 251.404 32.7192 248C32.7192 244.55 35.4764 241.79 38.8771 241.79C42.2777 241.79 45.0349 244.596 45.0349 248C45.0349 251.404 42.2777 254.21 38.8771 254.21ZM45.0349 241.744V244.366C44.3916 243.262 43.5184 242.342 42.4155 241.744H45.0349Z" fill="#DBDBDB"/>
<path d="M0.0444336 239.352H14.2443V225H0.0444336V239.352ZM13.2793 238.386H10.7058C11.8087 237.742 12.6819 236.822 13.3252 235.764V238.386H13.2793ZM13.2793 225.966V228.588C12.6359 227.484 11.7628 226.564 10.6599 225.966H13.2793ZM1.00948 225.966H3.62887C2.52597 226.61 1.65284 227.53 1.00948 228.588V225.966ZM7.1214 225.966C10.522 225.966 13.2793 228.772 13.2793 232.176C13.2793 235.626 10.522 238.386 7.1214 238.386C3.72078 238.386 0.963519 235.58 0.963519 232.176C1.00947 228.726 3.76674 225.966 7.1214 225.966ZM1.00948 235.764C1.65284 236.868 2.52597 237.788 3.62887 238.386H1.00948V235.764Z" fill="#DBDBDB"/>
<path d="M15.8997 239.352H30.0995V225H15.8997V239.352ZM29.1804 238.386H26.561C27.664 237.742 28.5371 236.822 29.1804 235.764V238.386ZM29.1804 225.966V228.588C28.5371 227.484 27.664 226.564 26.561 225.966H29.1804ZM16.8647 225.966H19.4841C18.3812 226.61 17.5081 227.53 16.8647 228.588V225.966ZM23.0226 225.966C26.4232 225.966 29.1804 228.772 29.1804 232.176C29.1804 235.626 26.4232 238.386 23.0226 238.386C19.622 238.386 16.8647 235.58 16.8647 232.176C16.8647 228.726 19.622 225.966 23.0226 225.966ZM16.8647 235.764C17.5081 236.868 18.3812 237.788 19.4841 238.386H16.8647V235.764Z" fill="#DBDBDB"/>
<path d="M31.7542 225V239.398H45.954V225H31.7542ZM32.7192 225.966H35.3386C34.2357 226.61 33.3626 227.53 32.7192 228.588V225.966ZM32.7192 238.386V235.764C33.3626 236.868 34.2357 237.788 35.3386 238.386H32.7192ZM45.0349 238.386H42.4155C43.5184 237.742 44.3916 236.822 45.0349 235.764V238.386ZM38.8771 238.386C35.4764 238.386 32.7192 235.58 32.7192 232.176C32.7192 228.726 35.4764 225.966 38.8771 225.966C42.2777 225.966 45.0349 228.772 45.0349 232.176C45.0349 235.58 42.2777 238.386 38.8771 238.386ZM45.0349 228.588C44.3916 227.484 43.5184 226.564 42.4155 225.966H45.0349V228.588Z" fill="#DBDBDB"/>
<path d="M0.0444336 271H14.2443V256.602H0.0444336V271ZM13.2793 270.034H10.7058C11.8087 269.39 12.6819 268.47 13.3252 267.412V270.034H13.2793ZM13.2793 257.568V260.19C12.6359 259.086 11.7628 258.166 10.6599 257.568H13.2793ZM1.00948 257.568H3.62887C2.52597 258.212 1.65284 259.132 1.00948 260.19V257.568ZM7.1214 257.568C10.522 257.568 13.2793 260.374 13.2793 263.778C13.2793 267.228 10.522 269.988 7.1214 269.988C3.72078 269.988 0.963519 267.182 0.963519 263.778C1.00947 260.374 3.76674 257.568 7.1214 257.568ZM1.00948 267.366C1.65284 268.47 2.52597 269.39 3.62887 269.988H1.00948V267.366Z" fill="#DBDBDB"/>
<path d="M15.8997 271H30.0995V256.602H15.8997V271ZM29.1804 270.034H26.561C27.664 269.39 28.5371 268.47 29.1804 267.412V270.034ZM29.1804 257.568V260.19C28.5371 259.086 27.664 258.166 26.561 257.568H29.1804ZM16.8647 257.568H19.4841C18.3812 258.212 17.5081 259.132 16.8647 260.19V257.568ZM23.0226 257.568C26.4232 257.568 29.1804 260.374 29.1804 263.778C29.1804 267.228 26.4232 269.988 23.0226 269.988C19.622 269.988 16.8647 267.182 16.8647 263.778C16.8647 260.374 19.622 257.568 23.0226 257.568ZM16.8647 267.366C17.5081 268.47 18.3812 269.39 19.4841 269.988H16.8647V267.366Z" fill="#DBDBDB"/>
<path d="M31.7542 271H45.954V256.602H31.7542V271ZM45.0349 270.034H42.4155C43.5184 269.39 44.3916 268.47 45.0349 267.412V270.034ZM45.0349 257.568V260.19C44.3916 259.086 43.5184 258.166 42.4155 257.568H45.0349ZM32.7192 257.568H35.3386C34.2357 258.212 33.3626 259.132 32.7192 260.19V257.568ZM38.8771 257.568C42.2777 257.568 45.0349 260.374 45.0349 263.778C45.0349 267.228 42.2777 269.988 38.8771 269.988C35.4764 269.988 32.7192 267.182 32.7192 263.778C32.7192 260.374 35.4764 257.568 38.8771 257.568ZM32.7192 267.366C33.3626 268.47 34.2357 269.39 35.3386 269.988H32.7192V267.366Z" fill="#DBDBDB"/>
<path d="M46 270H0V316H46V270ZM31.05 308.594C26.864 308.594 23.506 305.19 23.506 301.05C23.506 296.864 26.91 293.506 31.05 293.506C35.236 293.506 38.594 296.91 38.594 301.05C38.64 305.19 35.236 308.594 31.05 308.594ZM38.64 304.96V308.594H35.006C36.524 307.766 37.812 306.524 38.64 304.96ZM31.05 292.494C26.358 292.494 22.54 296.312 22.54 301.004C22.54 304.27 24.426 307.122 27.14 308.548H7.406V293.414H23.506V277.314H38.64V297.048C37.214 294.38 34.362 292.494 31.05 292.494ZM7.406 292.494V277.36H22.54V292.494H7.406ZM38.916 276.44H23.506H7.13L1.656 270.966H44.39L38.916 276.44ZM6.44 277.13V293.506V308.916L0.966003 314.39V271.656L6.44 277.13ZM7.13 309.56H38.916L44.39 315.034H1.656L7.13 309.56ZM39.606 308.87V277.084L45.08 271.61V314.344L39.606 308.87Z" fill="#DBDBDB"/>
<path d="M0 315V361H46V315H0ZM23 334.688C21.62 329.996 17.342 326.5 12.236 326.27C12.466 320.52 17.204 315.966 23 315.966C28.796 315.966 33.534 320.566 33.764 326.27C28.658 326.5 24.38 329.95 23 334.688ZM33.764 327.236C33.488 332.756 29.072 337.218 23.506 337.494C23.782 331.928 28.198 327.466 33.764 327.236ZM33.764 348.718C28.244 348.442 23.782 344.026 23.506 338.46C29.072 338.736 33.488 343.198 33.764 348.718ZM22.494 337.494C16.974 337.218 12.512 332.802 12.236 327.236C17.802 327.466 22.218 331.928 22.494 337.494ZM0.966003 315.966H18.354C14.306 317.714 11.454 321.67 11.27 326.27C6.624 326.454 2.714 329.306 0.966003 333.354V315.966ZM11.27 327.236C11.5 332.342 14.95 336.62 19.688 338C14.996 339.38 11.5 343.658 11.27 348.764C5.52 348.534 0.966003 343.796 0.966003 338C0.966003 332.204 5.566 327.466 11.27 327.236ZM22.494 338.506C22.218 344.026 17.802 348.488 12.236 348.764C12.512 343.198 16.974 338.736 22.494 338.506ZM0.966003 360.034V342.646C2.714 346.694 6.67 349.546 11.27 349.73C11.454 354.376 14.306 358.286 18.354 360.034H0.966003ZM12.236 349.684C17.342 349.454 21.62 346.004 23 341.266C24.38 345.958 28.658 349.454 33.764 349.684C33.534 355.434 28.796 359.988 23 359.988C17.204 360.034 12.512 355.434 12.236 349.684ZM45.034 360.034H27.646C31.694 358.286 34.546 354.33 34.73 349.73C39.376 349.546 43.286 346.694 45.034 342.646V360.034ZM34.73 348.718C34.5 343.612 31.05 339.334 26.312 337.954C31.004 336.574 34.5 332.296 34.73 327.19C40.48 327.42 45.034 332.158 45.034 337.954C45.034 343.75 40.434 348.488 34.73 348.718ZM45.034 333.354C43.286 329.306 39.33 326.454 34.73 326.27C34.546 321.624 31.694 317.714 27.646 315.966H45.034V333.354Z" fill="#DBDBDB"/>
<path d="M46 406V360H0V406H46ZM40.48 362.024C38.824 364.692 35.742 369.706 35.742 375.502C35.742 378.032 37.214 380.7 38.594 383.23C39.928 385.668 41.354 388.198 41.354 390.498C41.354 394.592 39.974 396.294 38.548 398.134C37.214 399.79 35.88 401.538 35.788 405.034H32.016C32.108 401.814 32.89 400.25 33.764 398.64C34.73 396.8 35.742 394.868 35.742 390.498C35.742 388.014 34.776 385.392 33.856 382.862C32.936 380.378 32.016 377.848 32.016 375.502C32.016 369.89 34.04 365.014 35.098 362.392C35.374 361.702 35.558 361.242 35.65 360.966H41.17C40.94 361.242 40.71 361.61 40.48 362.024ZM34.224 362.07C33.12 364.738 31.096 369.706 31.096 375.502C31.096 377.986 32.062 380.608 32.982 383.184C33.902 385.668 34.822 388.198 34.822 390.544C34.822 394.684 33.856 396.478 32.936 398.272C32.062 399.928 31.188 401.63 31.096 405.08H27.278C27.324 401.814 27.738 400.25 28.152 398.594C28.612 396.754 29.118 394.868 29.118 390.544C29.118 388.106 28.658 385.484 28.198 382.954C27.738 380.47 27.278 377.894 27.278 375.502C27.278 369.844 28.29 364.968 28.842 362.346C28.98 361.702 29.072 361.288 29.118 360.966H34.684C34.546 361.288 34.362 361.656 34.224 362.07ZM27.922 362.162C27.37 364.83 26.358 369.752 26.358 375.502C26.358 377.94 26.818 380.562 27.278 383.092C27.738 385.576 28.198 388.152 28.198 390.498C28.198 394.684 27.692 396.524 27.232 398.318C26.818 399.974 26.358 401.676 26.312 405.034H23.368V360.966H28.152C28.106 361.288 28.014 361.702 27.922 362.162ZM22.54 405.034H19.642C19.596 401.63 19.182 399.928 18.722 398.318C18.262 396.524 17.756 394.684 17.756 390.498C17.756 388.106 18.216 385.576 18.676 383.092C19.136 380.562 19.596 377.94 19.596 375.502C19.596 369.752 18.584 364.83 18.032 362.162C17.94 361.702 17.848 361.288 17.802 360.966H22.494V405.034H22.54ZM17.204 362.346C17.756 364.968 18.768 369.844 18.768 375.502C18.768 377.894 18.308 380.47 17.848 382.954C17.388 385.484 16.928 388.06 16.928 390.544C16.928 394.822 17.434 396.754 17.894 398.594C18.308 400.25 18.722 401.814 18.768 405.08H14.95C14.858 401.63 13.984 399.928 13.11 398.272C12.19 396.524 11.224 394.684 11.224 390.544C11.224 388.198 12.144 385.668 13.064 383.184C13.984 380.654 14.95 378.032 14.95 375.502C14.95 369.706 12.926 364.738 11.822 362.07C11.638 361.656 11.5 361.288 11.362 360.966H16.928C16.974 361.288 17.066 361.702 17.204 362.346ZM10.948 362.392C12.006 365.014 14.03 369.89 14.03 375.502C14.03 377.848 13.11 380.378 12.19 382.862C11.27 385.392 10.304 388.014 10.304 390.498C10.304 394.868 11.316 396.754 12.282 398.64C13.156 400.25 13.938 401.814 14.03 405.034H10.212C10.074 401.538 8.74001 399.836 7.45201 398.134C6.02601 396.294 4.646 394.592 4.646 390.498C4.646 388.198 6.026 385.668 7.406 383.23C8.832 380.654 10.258 378.032 10.258 375.502C10.258 369.66 7.176 364.692 5.52 362.024C5.29 361.656 5.06 361.288 4.876 361.012H10.396C10.488 361.288 10.672 361.702 10.948 362.392ZM45.034 405.034H36.662C36.754 401.86 37.95 400.342 39.238 398.686C40.71 396.8 42.228 394.868 42.228 390.498C42.228 387.968 40.756 385.346 39.376 382.77C38.042 380.332 36.616 377.756 36.616 375.456C36.616 369.89 39.606 365.06 41.216 362.438C41.676 361.702 41.952 361.242 42.09 360.92H44.988V405.034H45.034ZM0.966003 360.966H3.86401C4.00201 361.288 4.27801 361.748 4.73801 362.484C6.34801 365.106 9.33801 369.936 9.33801 375.502C9.33801 377.802 7.95801 380.332 6.57801 382.816C5.19801 385.346 3.726 388.014 3.726 390.544C3.726 394.914 5.244 396.892 6.716 398.732C8.004 400.342 9.20001 401.906 9.29201 405.08H0.92V360.966H0.966003Z" fill="#DBDBDB"/>
<path d="M0 46H46V0H0V46ZM38.594 21.988L24.012 7.406H38.594V21.988ZM38.594 24.012V38.594H24.012L38.594 24.012ZM23 38.226L7.77401 23L23 7.774L38.226 23L23 38.226ZM7.40602 21.988V7.406H21.988L7.40602 21.988ZM21.988 38.594H7.40602V24.012L21.988 38.594ZM7.13 39.56H22.954L23 39.606L23.046 39.56H38.87L44.344 45.034H1.61L7.13 39.56ZM39.56 38.87V23.046L39.606 23L39.56 22.954V7.13L45.034 1.656V44.39L39.56 38.87ZM38.87 6.44H23.046L23 6.394L22.954 6.44H7.13L1.656 0.966003H44.39L38.87 6.44ZM6.44 7.13V22.954L6.39401 23L6.44 23.046V38.87L0.966003 44.344V1.61L6.44 7.13Z" fill="#DBDBDB"/>
<path d="M0 45V91H46V45H0ZM0.966003 45.966H22.402L1.01201 67.356V45.966H0.966003ZM0.966003 90.034V68.644L22.356 90.034H0.966003ZM22.54 88.838L1.70201 68L22.54 47.162V88.838ZM23.506 45.966H30.36C27.278 47.07 24.794 49.416 23.506 52.36V45.966ZM45.034 90.034H23.46V61.652C25.254 65.838 29.394 68.736 34.224 68.736C39.054 68.736 43.194 65.792 44.988 61.652V90.034H45.034ZM34.27 67.816C28.336 67.816 23.506 62.986 23.506 57.052C23.506 51.118 28.336 46.288 34.27 46.288C40.204 46.288 45.034 51.118 45.034 57.052C45.034 62.986 40.204 67.816 34.27 67.816ZM45.034 52.36C43.746 49.37 41.262 47.07 38.18 45.966H45.034V52.36Z" fill="#DBDBDB"/>
<path d="M29.0464 84.5386H39.4125V74.1617H29.0464V84.5386ZM30.0139 75.1303H38.445V83.5701H30.0139V75.1303Z" fill="#DBDBDB"/>
<path d="M28.152 136L4.14 136L-2.01072e-06 136L0 90L46 90L46 136L28.152 136ZM27.186 122.338C24.058 122.246 21.16 121.142 18.86 119.394L6.164 135.08L27.186 135.08L27.186 122.338ZM13.984 107.756C13.984 111.85 15.824 115.576 18.722 118.06L22.218 113.736C20.608 112.264 19.55 110.102 19.55 107.756C19.55 103.248 23.184 99.614 27.692 99.614C32.2 99.614 35.834 103.248 35.834 107.756C35.834 112.08 32.43 115.622 28.198 115.852L28.198 121.418C35.512 121.142 41.4 115.162 41.4 107.756C41.4 100.212 35.282 94.048 27.692 94.048C20.102 94.048 13.984 100.166 13.984 107.756ZM28.152 106.376L28.152 114.886C31.878 114.656 34.822 111.528 34.822 107.756C34.822 103.8 31.602 100.58 27.646 100.58C23.69 100.58 20.47 103.8 20.47 107.756C20.47 109.826 21.344 111.712 22.77 113L28.152 106.376ZM23.552 113.598C24.61 114.334 25.852 114.794 27.186 114.886L27.186 109.09L23.552 113.598ZM27.186 115.852C25.622 115.76 24.15 115.208 22.954 114.334L19.458 118.658C21.62 120.314 24.288 121.28 27.186 121.418L27.186 115.852ZM45.034 90.966L0.966003 90.966L0.966001 135.034L4.922 135.034L18.078 118.75C14.996 116.082 13.018 112.126 13.018 107.71C13.018 99.614 19.596 93.082 27.646 93.082C35.742 93.082 42.274 99.66 42.274 107.71C42.274 115.622 35.972 122.062 28.106 122.338L28.106 135.034L44.988 135.034L44.988 90.966L45.034 90.966Z" fill="#DBDBDB"/>
</svg>
