<svg width="46" height="406" viewBox="0 0 46 406" fill="none" xmlns="http://www.w3.org/2000/svg">
<path d="M7.12291 375.778H0V390.176H7.12291H14.2458V375.778H7.12291C7.16886 375.778 7.16886 375.778 7.12291 375.778ZM1.01099 376.744H3.63038C2.52748 377.388 1.65434 378.308 1.01099 379.366V376.744ZM1.01099 389.21V386.588C1.65434 387.692 2.52748 388.612 3.63038 389.21H1.01099ZM13.2808 389.21H10.7073C11.8102 388.566 12.6834 387.646 13.3267 386.588V389.21H13.2808ZM7.16885 389.21C3.76824 389.21 1.01099 386.404 1.01099 383C1.01099 379.55 3.76824 376.79 7.16885 376.79C10.5695 376.79 13.3267 379.596 13.3267 383C13.2808 386.404 10.5235 389.21 7.16885 389.21ZM13.2808 376.744V379.366C12.6374 378.262 11.7643 377.342 10.6614 376.744H13.2808Z" fill="#DBDBDB"/>
<path d="M23.0227 375.778H15.8998V390.176H23.0227H30.1456V375.778H23.0227ZM16.8648 376.744H19.4842C18.3813 377.388 17.5082 378.308 16.8648 379.366V376.744ZM16.8648 389.21V386.588C17.5082 387.692 18.3813 388.612 19.4842 389.21H16.8648ZM29.1806 389.21H26.5612C27.6641 388.566 28.5372 387.646 29.1806 386.588V389.21ZM23.0227 389.21C19.6221 389.21 16.8648 386.404 16.8648 383C16.8648 379.55 19.6221 376.79 23.0227 376.79C26.4233 376.79 29.1806 379.596 29.1806 383C29.1806 386.404 26.4233 389.21 23.0227 389.21ZM29.1806 376.744V379.366C28.5372 378.262 27.6641 377.342 26.5612 376.744H29.1806Z" fill="#DBDBDB"/>
<path d="M38.8771 375.778H31.7542V390.176H38.8771H46V375.778H38.8771ZM32.7192 376.744H35.3386C34.2357 377.388 33.3626 378.308 32.7192 379.366V376.744ZM32.7192 389.21V386.588C33.3626 387.692 34.2357 388.612 35.3386 389.21H32.7192ZM45.0349 389.21H42.4155C43.5184 388.566 44.3916 387.646 45.0349 386.588V389.21ZM38.8771 389.21C35.4764 389.21 32.7192 386.404 32.7192 383C32.7192 379.55 35.4764 376.79 38.8771 376.79C42.2777 376.79 45.0349 379.596 45.0349 383C45.0349 386.404 42.2777 389.21 38.8771 389.21ZM45.0349 376.744V379.366C44.3916 378.262 43.5184 377.342 42.4155 376.744H45.0349Z" fill="#DBDBDB"/>
<path d="M0.0444336 374.352H14.2443V360H0.0444336V374.352ZM13.2793 373.386H10.7058C11.8087 372.742 12.6819 371.822 13.3252 370.764V373.386H13.2793ZM13.2793 360.966V363.588C12.6359 362.484 11.7628 361.564 10.6599 360.966H13.2793ZM1.00948 360.966H3.62887C2.52597 361.61 1.65284 362.53 1.00948 363.588V360.966ZM7.1214 360.966C10.522 360.966 13.2793 363.772 13.2793 367.176C13.2793 370.626 10.522 373.386 7.1214 373.386C3.72078 373.386 0.963519 370.58 0.963519 367.176C1.00947 363.726 3.76674 360.966 7.1214 360.966ZM1.00948 370.764C1.65284 371.868 2.52597 372.788 3.62887 373.386H1.00948V370.764Z" fill="#DBDBDB"/>
<path d="M15.8998 374.352H30.0997V360H15.8998V374.352ZM29.1806 373.386H26.5612C27.6641 372.742 28.5372 371.822 29.1806 370.764V373.386ZM29.1806 360.966V363.588C28.5372 362.484 27.6641 361.564 26.5612 360.966H29.1806ZM16.8648 360.966H19.4842C18.3813 361.61 17.5082 362.53 16.8648 363.588V360.966ZM23.0227 360.966C26.4233 360.966 29.1806 363.772 29.1806 367.176C29.1806 370.626 26.4233 373.386 23.0227 373.386C19.6221 373.386 16.8648 370.58 16.8648 367.176C16.8648 363.726 19.6221 360.966 23.0227 360.966ZM16.8648 370.764C17.5082 371.868 18.3813 372.788 19.4842 373.386H16.8648V370.764Z" fill="#DBDBDB"/>
<path d="M31.7542 360V374.398H45.954V360H31.7542ZM32.7192 360.966H35.3386C34.2357 361.61 33.3626 362.53 32.7192 363.588V360.966ZM32.7192 373.386V370.764C33.3626 371.868 34.2357 372.788 35.3386 373.386H32.7192ZM45.0349 373.386H42.4155C43.5184 372.742 44.3916 371.822 45.0349 370.764V373.386ZM38.8771 373.386C35.4764 373.386 32.7192 370.58 32.7192 367.176C32.7192 363.726 35.4764 360.966 38.8771 360.966C42.2777 360.966 45.0349 363.772 45.0349 367.176C45.0349 370.58 42.2777 373.386 38.8771 373.386ZM45.0349 363.588C44.3916 362.484 43.5184 361.564 42.4155 360.966H45.0349V363.588Z" fill="#DBDBDB"/>
<path d="M0.0445557 406H14.2444V391.602H0.0445557V406ZM13.2794 405.034H10.7059C11.8088 404.39 12.682 403.47 13.3253 402.412V405.034H13.2794ZM13.2794 392.568V395.19C12.636 394.086 11.7629 393.166 10.66 392.568H13.2794ZM1.0096 392.568H3.629C2.52609 393.212 1.65296 394.132 1.0096 395.19V392.568ZM7.12152 392.568C10.5221 392.568 13.2794 395.374 13.2794 398.778C13.2794 402.228 10.5221 404.988 7.12152 404.988C3.72091 404.988 0.963641 402.182 0.963641 398.778C1.00959 395.374 3.76686 392.568 7.12152 392.568ZM1.0096 402.366C1.65296 403.47 2.52609 404.39 3.629 404.988H1.0096V402.366Z" fill="#DBDBDB"/>
<path d="M15.8998 406H30.0997V391.602H15.8998V406ZM29.1806 405.034H26.5612C27.6641 404.39 28.5372 403.47 29.1806 402.412V405.034ZM29.1806 392.568V395.19C28.5372 394.086 27.6641 393.166 26.5612 392.568H29.1806ZM16.8648 392.568H19.4842C18.3813 393.212 17.5082 394.132 16.8648 395.19V392.568ZM23.0227 392.568C26.4233 392.568 29.1806 395.374 29.1806 398.778C29.1806 402.228 26.4233 404.988 23.0227 404.988C19.6221 404.988 16.8648 402.182 16.8648 398.778C16.8648 395.374 19.6221 392.568 23.0227 392.568ZM16.8648 402.366C17.5082 403.47 18.3813 404.39 19.4842 404.988H16.8648V402.366Z" fill="#DBDBDB"/>
<path d="M31.7542 406H45.954V391.602H31.7542V406ZM45.0349 405.034H42.4155C43.5184 404.39 44.3916 403.47 45.0349 402.412V405.034ZM45.0349 392.568V395.19C44.3916 394.086 43.5184 393.166 42.4155 392.568H45.0349ZM32.7192 392.568H35.3386C34.2357 393.212 33.3626 394.132 32.7192 395.19V392.568ZM38.8771 392.568C42.2777 392.568 45.0349 395.374 45.0349 398.778C45.0349 402.228 42.2777 404.988 38.8771 404.988C35.4764 404.988 32.7192 402.182 32.7192 398.778C32.7192 395.374 35.4764 392.568 38.8771 392.568ZM32.7192 402.366C33.3626 403.47 34.2357 404.39 35.3386 404.988H32.7192V402.366Z" fill="#DBDBDB"/>
<path d="M0 270V316H46V270H0ZM44.344 270.966L38.87 276.44H7.13L1.656 270.966H44.344ZM38.594 277.406V308.594H7.406V277.406H38.594ZM0.966 271.656L6.44 277.13V308.916L0.966 314.39V271.656ZM1.656 315.034L7.13 309.56H38.916L44.39 315.034H1.656ZM45.034 314.344L39.56 308.87V277.084L45.034 271.61V314.344Z" fill="#DBDBDB"/>
<path d="M23.0002 305.236C29.7622 305.236 35.2362 299.762 35.2362 293C35.2362 286.238 29.7622 280.764 23.0002 280.764C16.2382 280.764 10.7642 286.238 10.7642 293C10.7642 299.716 16.2382 305.236 23.0002 305.236ZM23.0002 281.73C29.2102 281.73 34.2702 286.79 34.2702 293C34.2702 299.21 29.2102 304.27 23.0002 304.27C16.7902 304.27 11.7302 299.21 11.7302 293C11.7302 286.79 16.7902 281.73 23.0002 281.73Z" fill="#DBDBDB"/>
<path d="M46 315H0V361H46V315ZM39.422 348.074C38.18 350.098 36.57 351.892 34.684 353.318V322.682C36.57 324.108 38.18 325.902 39.422 327.926V348.074ZM40.342 329.582C41.584 332.112 42.274 334.964 42.274 338C42.274 341.036 41.584 343.888 40.342 346.418V329.582ZM29.072 319.692C30.774 320.244 32.338 321.026 33.81 322.038V353.962C32.384 354.928 30.774 355.756 29.072 356.308V319.692ZM28.198 356.584C26.542 357.044 24.794 357.274 23 357.274C12.374 357.274 3.726 348.626 3.726 338C3.726 327.374 12.374 318.726 23 318.726C24.794 318.726 26.542 318.956 28.198 319.416V356.584ZM29.072 318.68V315.966H33.81V320.888C32.338 319.968 30.774 319.232 29.072 318.68ZM33.81 355.112V360.034H29.072V357.32C30.774 356.768 32.338 356.032 33.81 355.112ZM34.73 354.514C36.57 353.226 38.134 351.616 39.468 349.822V360.08H34.73V354.514ZM34.73 321.532V316.012H39.468V326.27C38.134 324.384 36.524 322.82 34.73 321.532ZM0.966003 315.966H28.198V318.45C26.542 317.99 24.794 317.76 23 317.76C11.822 317.76 2.76 326.822 2.76 338C2.76 349.178 11.822 358.24 23 358.24C24.794 358.24 26.542 358.01 28.198 357.55V360.034H0.966003V315.966ZM45.034 360.034H40.342V348.442C42.182 345.406 43.24 341.818 43.24 338C43.24 334.182 42.182 330.594 40.342 327.558V315.966H45.034V360.034Z" fill="#DBDBDB"/>
<path d="M0 225V271H46V225H0ZM0.966003 270.034V256.878C8.142 257.108 13.892 262.904 14.122 270.034H0.966003ZM45.08 270.034H15.134C14.904 262.352 8.69401 256.142 1.01201 255.912V225.966H30.958C31.142 233.694 37.352 239.95 45.08 240.226V270.034ZM45.08 239.214C37.904 238.984 32.108 233.142 31.924 225.92H45.08V239.214Z" fill="#DBDBDB"/>
<path d="M23.0006 232.038C14.9506 232.038 8.37256 238.616 8.37256 246.666C8.37256 254.716 14.9506 261.294 23.0006 261.294C31.0506 261.294 37.6286 254.716 37.6286 246.666C37.6286 238.616 31.0966 232.038 23.0006 232.038ZM23.0006 260.374C15.4566 260.374 9.33855 254.256 9.33855 246.712C9.33855 239.168 15.4566 233.05 23.0006 233.05C30.5446 233.05 36.6626 239.168 36.6626 246.712C36.7086 254.21 30.5446 260.374 23.0006 260.374Z" fill="#DBDBDB"/>
<path d="M46 180H0V226H46V180ZM23.092 202.218L12.466 191.684L23 181.15L33.58 191.73L23.092 202.218ZM22.218 202.908L11.684 213.534L1.15 203L11.73 192.42L22.218 202.908ZM22.908 203.736L33.534 214.27L23 224.804L12.42 214.224L22.908 203.736ZM23.782 203.092L34.316 192.466L44.85 203L34.27 213.58L23.782 203.092ZM34.96 191.776L45.034 181.656V201.85L34.96 191.776ZM44.344 180.966L34.224 191.086L24.104 180.966H44.344ZM11.776 190.994L1.656 180.92H21.85L11.776 190.994ZM0.966 181.61L11.086 191.73L0.966 201.85V181.61ZM10.994 214.178L0.92 224.298V204.15L10.994 214.178ZM1.656 225.034L11.776 214.914L21.896 225.034H1.656ZM34.224 214.96L44.344 225.034H24.15L34.224 214.96ZM45.034 224.344L34.914 214.224L45.034 204.104V224.344Z" fill="#DBDBDB"/>
<path d="M0 135V181H46V135H0ZM0.966003 135.966H22.402L1.01201 157.356V135.966H0.966003ZM0.966003 180.034V158.644L22.356 180.034H0.966003ZM22.54 178.838L1.70201 158L22.54 137.162V178.838ZM23.506 135.966H30.36C27.278 137.07 24.794 139.416 23.506 142.36V135.966ZM45.034 180.034H23.46V151.652C25.254 155.838 29.394 158.736 34.224 158.736C39.054 158.736 43.194 155.792 44.988 151.652V180.034H45.034ZM34.27 157.816C28.336 157.816 23.506 152.986 23.506 147.052C23.506 141.118 28.336 136.288 34.27 136.288C40.204 136.288 45.034 141.118 45.034 147.052C45.034 152.986 40.204 157.816 34.27 157.816ZM45.034 142.36C43.746 139.37 41.262 137.07 38.18 135.966H45.034V142.36Z" fill="#DBDBDB"/>
<path d="M29.0465 174.539H39.4126V164.162H29.0465V174.539ZM30.014 165.13H38.4451V173.57H30.014V165.13Z" fill="#DBDBDB"/>
<path d="M0 136H46V90H0V136ZM38.594 111.988L24.012 97.406H38.594V111.988ZM38.594 114.012V128.594H24.012L38.594 114.012ZM23 128.226L7.77401 113L23 97.774L38.226 113L23 128.226ZM7.40602 111.988V97.406H21.988L7.40602 111.988ZM21.988 128.594H7.40602V114.012L21.988 128.594ZM7.13 129.56H22.954L23 129.606L23.046 129.56H38.87L44.344 135.034H1.61L7.13 129.56ZM39.56 128.87V113.046L39.606 113L39.56 112.954V97.13L45.034 91.656V134.39L39.56 128.87ZM38.87 96.44H23.046L23 96.394L22.954 96.44H7.13L1.656 90.966H44.39L38.87 96.44ZM6.44 97.13V112.954L6.39401 113L6.44 113.046V128.87L0.966003 134.344V91.61L6.44 97.13Z" fill="#DBDBDB"/>
<path d="M0 45V91H46V45H0ZM0.966 45.966H16.422C9.016 48.174 3.174 54.016 0.966 61.422V45.966ZM0.966 90.034V74.578C3.174 81.984 9.016 87.826 16.422 90.034H0.966ZM5.382 72.37C5.382 62.664 13.294 54.752 23 54.752C32.706 54.752 40.618 62.664 40.618 72.37C40.618 78.948 37.03 84.652 31.694 87.688C34.5 85.25 36.294 81.662 36.294 77.66C36.294 70.346 30.36 64.366 23 64.366C15.686 64.366 9.706 70.3 9.706 77.66C9.706 81.662 11.5 85.25 14.306 87.688C8.97 84.698 5.382 78.948 5.382 72.37ZM23.644 89.988C23.414 89.988 23.23 90.034 23 90.034C22.77 90.034 22.586 90.034 22.356 89.988C19.228 89.666 16.79 87.044 16.79 83.824C16.79 80.42 19.55 77.614 23 77.614C26.404 77.614 29.21 80.374 29.21 83.824C29.21 87.044 26.726 89.666 23.644 89.988ZM30.13 83.824C30.13 79.868 26.91 76.694 23 76.694C19.09 76.694 15.87 79.914 15.87 83.824C15.87 85.848 16.698 87.642 18.032 88.976C13.708 87.044 10.672 82.72 10.672 77.706C10.672 70.898 16.192 65.378 23 65.378C29.808 65.378 35.328 70.898 35.328 77.706C35.328 82.72 32.292 87.044 27.968 88.976C29.302 87.642 30.13 85.848 30.13 83.824ZM45.034 90.034H29.578C36.984 87.826 42.826 81.984 45.034 74.578V90.034ZM35.604 86.032C39.284 82.628 41.584 77.752 41.584 72.37C41.584 62.112 33.258 53.786 23 53.786C12.742 53.786 4.416 62.112 4.416 72.37C4.416 77.752 6.716 82.628 10.396 86.032C4.692 82.03 0.966 75.452 0.966 67.954C0.966 55.81 10.856 45.92 23 45.92C35.144 45.92 45.034 55.81 45.034 67.954C45.034 75.452 41.308 82.076 35.604 86.032ZM45.034 61.422C42.826 54.016 36.984 48.174 29.578 45.966H45.034V61.422Z" fill="#DBDBDB"/>
<path d="M0 0V46H46V0H0ZM18.63 18.676C18.906 18.676 19.182 18.63 19.504 18.63C21.804 18.63 23.966 19.228 25.852 20.286C24.426 22.954 22.126 25.116 19.366 26.312C18.722 24.794 18.4 23.092 18.4 21.344C18.4 20.424 18.492 19.504 18.63 18.676ZM18.446 26.634C17.112 27.094 15.686 27.37 14.168 27.37C11.868 27.37 9.706 26.772 7.82 25.714C9.752 22.034 13.386 19.366 17.664 18.768C17.526 19.596 17.434 20.47 17.434 21.344C17.434 23.184 17.802 24.978 18.446 26.634ZM14.168 28.29C15.824 28.29 17.388 28.014 18.86 27.462C21.16 32.2 25.99 35.466 31.602 35.466C31.786 35.466 32.016 35.466 32.2 35.42C30.636 40.94 25.53 44.988 19.504 44.988C12.236 44.988 6.30201 39.054 6.30201 31.786C6.30201 29.9 6.71602 28.152 7.40602 26.542C9.43002 27.692 11.73 28.29 14.168 28.29ZM31.602 34.546C26.404 34.546 21.942 31.51 19.78 27.186C22.77 25.898 25.208 23.644 26.726 20.792C30.36 23.138 32.752 27.232 32.752 31.878C32.752 32.798 32.66 33.672 32.476 34.546C32.154 34.5 31.878 34.546 31.602 34.546ZM27.094 19.872C27.876 18.124 28.336 16.192 28.336 14.122C28.336 12.236 27.968 10.488 27.324 8.83199C28.658 8.37199 30.13 8.09601 31.602 8.09601C38.87 8.09601 44.804 14.03 44.804 21.298C44.804 27.968 39.836 33.442 33.442 34.362C33.58 33.534 33.672 32.66 33.672 31.786C33.672 26.818 31.05 22.402 27.094 19.872ZM27.37 14.122C27.37 15.962 26.956 17.756 26.266 19.366C24.242 18.262 21.942 17.618 19.504 17.618C19.32 17.618 19.09 17.618 18.906 17.664C20.01 13.846 22.77 10.718 26.404 9.154C27.002 10.718 27.37 12.374 27.37 14.122ZM17.894 17.756C13.156 18.308 9.15401 21.16 6.99201 25.208C3.35801 22.862 0.966003 18.768 0.966003 14.168C0.966003 6.90001 6.89999 0.966003 14.168 0.966003C19.366 0.966003 23.828 4.002 25.99 8.326C22.034 10.028 18.998 13.524 17.894 17.756ZM9.06201 0.966003C5.33601 2.392 2.392 5.33599 0.966003 9.06199V0.966003H9.06201ZM0.966003 45.034V19.228C2.07 22.08 4.04799 24.472 6.57799 26.082C5.79599 27.83 5.33602 29.762 5.33602 31.832C5.33602 37.858 9.10799 42.964 14.398 45.034H0.966003ZM24.61 45.034C28.842 43.424 32.062 39.836 33.212 35.42C38.778 34.776 43.378 30.912 45.08 25.714V45.034H24.61ZM45.034 0.966003V16.974C43.194 11.316 37.858 7.176 31.556 7.176C29.9 7.176 28.336 7.452 26.864 8.004C25.3 4.784 22.586 2.254 19.228 0.966003H45.034Z" fill="#DBDBDB"/>
</svg>
