<svg width="91" height="406" viewBox="0 0 91 406" fill="none" xmlns="http://www.w3.org/2000/svg">
<path d="M7.12291 375.778H0V390.176H7.12291H14.2458V375.778H7.12291C7.16886 375.778 7.16886 375.778 7.12291 375.778ZM1.01099 376.744H3.63038C2.52748 377.388 1.65434 378.308 1.01099 379.366V376.744ZM1.01099 389.21V386.588C1.65434 387.692 2.52748 388.612 3.63038 389.21H1.01099ZM13.2808 389.21H10.7073C11.8102 388.566 12.6834 387.646 13.3267 386.588V389.21H13.2808ZM7.16885 389.21C3.76824 389.21 1.01099 386.404 1.01099 383C1.01099 379.55 3.76824 376.79 7.16885 376.79C10.5695 376.79 13.3267 379.596 13.3267 383C13.2808 386.404 10.5235 389.21 7.16885 389.21ZM13.2808 376.744V379.366C12.6374 378.262 11.7643 377.342 10.6614 376.744H13.2808Z" fill="#DBDBDB"/>
<path d="M23.0233 375.778H15.9004V390.176H23.0233H30.1462V375.778H23.0233ZM16.8654 376.744H19.4848C18.3819 377.388 17.5088 378.308 16.8654 379.366V376.744ZM16.8654 389.21V386.588C17.5088 387.692 18.3819 388.612 19.4848 389.21H16.8654ZM29.1812 389.21H26.5618C27.6647 388.566 28.5378 387.646 29.1812 386.588V389.21ZM23.0233 389.21C19.6227 389.21 16.8654 386.404 16.8654 383C16.8654 379.55 19.6227 376.79 23.0233 376.79C26.4239 376.79 29.1812 379.596 29.1812 383C29.1812 386.404 26.4239 389.21 23.0233 389.21ZM29.1812 376.744V379.366C28.5378 378.262 27.6647 377.342 26.5618 376.744H29.1812Z" fill="#DBDBDB"/>
<path d="M38.8768 375.778H31.7539V390.176H38.8768H45.9997V375.778H38.8768ZM32.7189 376.744H35.3383C34.2354 377.388 33.3623 378.308 32.7189 379.366V376.744ZM32.7189 389.21V386.588C33.3623 387.692 34.2354 388.612 35.3383 389.21H32.7189ZM45.0347 389.21H42.4153C43.5182 388.566 44.3913 387.646 45.0347 386.588V389.21ZM38.8768 389.21C35.4762 389.21 32.7189 386.404 32.7189 383C32.7189 379.55 35.4762 376.79 38.8768 376.79C42.2774 376.79 45.0347 379.596 45.0347 383C45.0347 386.404 42.2774 389.21 38.8768 389.21ZM45.0347 376.744V379.366C44.3913 378.262 43.5182 377.342 42.4153 376.744H45.0347Z" fill="#DBDBDB"/>
<path d="M0.0449219 374.352H14.2448V360H0.0449219V374.352ZM13.2798 373.386H10.7063C11.8092 372.742 12.6824 371.822 13.3257 370.764V373.386H13.2798ZM13.2798 360.966V363.588C12.6364 362.484 11.7633 361.564 10.6604 360.966H13.2798ZM1.00996 360.966H3.62936C2.52646 361.61 1.65332 362.53 1.00996 363.588V360.966ZM7.12189 360.966C10.5225 360.966 13.2798 363.772 13.2798 367.176C13.2798 370.626 10.5225 373.386 7.12189 373.386C3.72127 373.386 0.964007 370.58 0.964007 367.176C1.00996 363.726 3.76723 360.966 7.12189 360.966ZM1.00996 370.764C1.65332 371.868 2.52646 372.788 3.62936 373.386H1.00996V370.764Z" fill="#DBDBDB"/>
<path d="M15.9004 374.352H30.1003V360H15.9004V374.352ZM29.1812 373.386H26.5618C27.6647 372.742 28.5378 371.822 29.1812 370.764V373.386ZM29.1812 360.966V363.588C28.5378 362.484 27.6647 361.564 26.5618 360.966H29.1812ZM16.8654 360.966H19.4848C18.3819 361.61 17.5088 362.53 16.8654 363.588V360.966ZM23.0233 360.966C26.4239 360.966 29.1812 363.772 29.1812 367.176C29.1812 370.626 26.4239 373.386 23.0233 373.386C19.6227 373.386 16.8654 370.58 16.8654 367.176C16.8654 363.726 19.6227 360.966 23.0233 360.966ZM16.8654 370.764C17.5088 371.868 18.3819 372.788 19.4848 373.386H16.8654V370.764Z" fill="#DBDBDB"/>
<path d="M31.7539 360V374.398H45.9538V360H31.7539ZM32.7189 360.966H35.3383C34.2354 361.61 33.3623 362.53 32.7189 363.588V360.966ZM32.7189 373.386V370.764C33.3623 371.868 34.2354 372.788 35.3383 373.386H32.7189ZM45.0347 373.386H42.4153C43.5182 372.742 44.3913 371.822 45.0347 370.764V373.386ZM38.8768 373.386C35.4762 373.386 32.7189 370.58 32.7189 367.176C32.7189 363.726 35.4762 360.966 38.8768 360.966C42.2774 360.966 45.0347 363.772 45.0347 367.176C45.0347 370.58 42.2774 373.386 38.8768 373.386ZM45.0347 363.588C44.3913 362.484 43.5182 361.564 42.4153 360.966H45.0347V363.588Z" fill="#DBDBDB"/>
<path d="M0.0449219 406H14.2448V391.602H0.0449219V406ZM13.2798 405.034H10.7063C11.8092 404.39 12.6824 403.47 13.3257 402.412V405.034H13.2798ZM13.2798 392.568V395.19C12.6364 394.086 11.7633 393.166 10.6604 392.568H13.2798ZM1.00996 392.568H3.62936C2.52646 393.212 1.65332 394.132 1.00996 395.19V392.568ZM7.12189 392.568C10.5225 392.568 13.2798 395.374 13.2798 398.778C13.2798 402.228 10.5225 404.988 7.12189 404.988C3.72127 404.988 0.964007 402.182 0.964007 398.778C1.00996 395.374 3.76723 392.568 7.12189 392.568ZM1.00996 402.366C1.65332 403.47 2.52646 404.39 3.62936 404.988H1.00996V402.366Z" fill="#DBDBDB"/>
<path d="M15.9004 406H30.1003V391.602H15.9004V406ZM29.1812 405.034H26.5618C27.6647 404.39 28.5378 403.47 29.1812 402.412V405.034ZM29.1812 392.568V395.19C28.5378 394.086 27.6647 393.166 26.5618 392.568H29.1812ZM16.8654 392.568H19.4848C18.3819 393.212 17.5088 394.132 16.8654 395.19V392.568ZM23.0233 392.568C26.4239 392.568 29.1812 395.374 29.1812 398.778C29.1812 402.228 26.4239 404.988 23.0233 404.988C19.6227 404.988 16.8654 402.182 16.8654 398.778C16.8654 395.374 19.6227 392.568 23.0233 392.568ZM16.8654 402.366C17.5088 403.47 18.3819 404.39 19.4848 404.988H16.8654V402.366Z" fill="#DBDBDB"/>
<path d="M31.7539 406H45.9538V391.602H31.7539V406ZM45.0347 405.034H42.4153C43.5182 404.39 44.3913 403.47 45.0347 402.412V405.034ZM45.0347 392.568V395.19C44.3913 394.086 43.5182 393.166 42.4153 392.568H45.0347ZM32.7189 392.568H35.3383C34.2354 393.212 33.3623 394.132 32.7189 395.19V392.568ZM38.8768 392.568C42.2774 392.568 45.0347 395.374 45.0347 398.778C45.0347 402.228 42.2774 404.988 38.8768 404.988C35.4762 404.988 32.7189 402.182 32.7189 398.778C32.7189 395.374 35.4762 392.568 38.8768 392.568ZM32.7189 402.366C33.3623 403.47 34.2354 404.39 35.3383 404.988H32.7189V402.366Z" fill="#DBDBDB"/>
<path d="M0 270V316H46V270H0ZM44.344 270.966L38.87 276.44H7.13L1.656 270.966H44.344ZM38.594 277.406V308.594H7.406V277.406H38.594ZM0.966 271.656L6.44 277.13V308.916L0.966 314.39V271.656ZM1.656 315.034L7.13 309.56H38.916L44.39 315.034H1.656ZM45.034 314.344L39.56 308.87V277.084L45.034 271.61V314.344Z" fill="#DBDBDB"/>
<path d="M22.9997 305.236C29.7617 305.236 35.2357 299.762 35.2357 293C35.2357 286.238 29.7617 280.764 22.9997 280.764C16.2377 280.764 10.7637 286.238 10.7637 293C10.7637 299.716 16.2377 305.236 22.9997 305.236ZM22.9997 281.73C29.2097 281.73 34.2697 286.79 34.2697 293C34.2697 299.21 29.2097 304.27 22.9997 304.27C16.7897 304.27 11.7297 299.21 11.7297 293C11.7297 286.79 16.7897 281.73 22.9997 281.73Z" fill="#DBDBDB"/>
<path d="M91 315H45V361H91V315ZM84.422 348.074C83.18 350.098 81.57 351.892 79.684 353.318V322.682C81.57 324.108 83.18 325.902 84.422 327.926V348.074ZM85.342 329.582C86.584 332.112 87.274 334.964 87.274 338C87.274 341.036 86.584 343.888 85.342 346.418V329.582ZM74.072 319.692C75.774 320.244 77.338 321.026 78.81 322.038V353.962C77.384 354.928 75.774 355.756 74.072 356.308V319.692ZM73.198 356.584C71.542 357.044 69.794 357.274 68 357.274C57.374 357.274 48.726 348.626 48.726 338C48.726 327.374 57.374 318.726 68 318.726C69.794 318.726 71.542 318.956 73.198 319.416V356.584ZM74.072 318.68V315.966H78.81V320.888C77.338 319.968 75.774 319.232 74.072 318.68ZM78.81 355.112V360.034H74.072V357.32C75.774 356.768 77.338 356.032 78.81 355.112ZM79.73 354.514C81.57 353.226 83.134 351.616 84.468 349.822V360.08H79.73V354.514ZM79.73 321.532V316.012H84.468V326.27C83.134 324.384 81.524 322.82 79.73 321.532ZM45.966 315.966H73.198V318.45C71.542 317.99 69.794 317.76 68 317.76C56.822 317.76 47.76 326.822 47.76 338C47.76 349.178 56.822 358.24 68 358.24C69.794 358.24 71.542 358.01 73.198 357.55V360.034H45.966V315.966ZM90.034 360.034H85.342V348.442C87.182 345.406 88.24 341.818 88.24 338C88.24 334.182 87.182 330.594 85.342 327.558V315.966H90.034V360.034Z" fill="#DBDBDB"/>
<path d="M45 225V271H91V225H45ZM45.966 270.034V256.878C53.142 257.108 58.892 262.904 59.122 270.034H45.966ZM90.08 270.034H60.134C59.904 262.352 53.694 256.142 46.012 255.912V225.966H75.958C76.142 233.694 82.352 239.95 90.08 240.226V270.034ZM90.08 239.214C82.904 238.984 77.108 233.142 76.924 225.92H90.08V239.214Z" fill="#DBDBDB"/>
<path d="M68.001 232.038C59.951 232.038 53.373 238.616 53.373 246.666C53.373 254.716 59.951 261.294 68.001 261.294C76.051 261.294 82.629 254.716 82.629 246.666C82.629 238.616 76.097 232.038 68.001 232.038ZM68.001 260.374C60.457 260.374 54.339 254.256 54.339 246.712C54.339 239.168 60.457 233.05 68.001 233.05C75.545 233.05 81.6631 239.168 81.6631 246.712C81.7091 254.21 75.545 260.374 68.001 260.374Z" fill="#DBDBDB"/>
<path d="M46 180H0V226H46V180ZM23.092 202.218L12.466 191.684L23 181.15L33.58 191.73L23.092 202.218ZM22.218 202.908L11.684 213.534L1.15 203L11.73 192.42L22.218 202.908ZM22.908 203.736L33.534 214.27L23 224.804L12.42 214.224L22.908 203.736ZM23.782 203.092L34.316 192.466L44.85 203L34.27 213.58L23.782 203.092ZM34.96 191.776L45.034 181.656V201.85L34.96 191.776ZM44.344 180.966L34.224 191.086L24.104 180.966H44.344ZM11.776 190.994L1.656 180.92H21.85L11.776 190.994ZM0.966 181.61L11.086 191.73L0.966 201.85V181.61ZM10.994 214.178L0.92 224.298V204.15L10.994 214.178ZM1.656 225.034L11.776 214.914L21.896 225.034H1.656ZM34.224 214.96L44.344 225.034H24.15L34.224 214.96ZM45.034 224.344L34.914 214.224L45.034 204.104V224.344Z" fill="#DBDBDB"/>
<path d="M45 135V181H91V135H45ZM45.966 135.966H67.402L46.012 157.356V135.966H45.966ZM45.966 180.034V158.644L67.356 180.034H45.966ZM67.54 178.838L46.702 158L67.54 137.162V178.838ZM68.506 135.966H75.36C72.278 137.07 69.794 139.416 68.506 142.36V135.966ZM90.034 180.034H68.46V151.652C70.254 155.838 74.394 158.736 79.224 158.736C84.054 158.736 88.194 155.792 89.988 151.652V180.034H90.034ZM79.27 157.816C73.336 157.816 68.506 152.986 68.506 147.052C68.506 141.118 73.336 136.288 79.27 136.288C85.204 136.288 90.034 141.118 90.034 147.052C90.034 152.986 85.204 157.816 79.27 157.816ZM90.034 142.36C88.746 139.37 86.262 137.07 83.18 135.966H90.034V142.36Z" fill="#DBDBDB"/>
<path d="M74.0469 174.539H84.413V164.162H74.0469V174.539ZM75.0144 165.13H83.4455V173.57H75.0144V165.13Z" fill="#DBDBDB"/>
<path d="M0 136H46V90H0V136ZM38.594 111.988L24.012 97.406H38.594V111.988ZM38.594 114.012V128.594H24.012L38.594 114.012ZM23 128.226L7.77401 113L23 97.774L38.226 113L23 128.226ZM7.40602 111.988V97.406H21.988L7.40602 111.988ZM21.988 128.594H7.40602V114.012L21.988 128.594ZM7.13 129.56H22.954L23 129.606L23.046 129.56H38.87L44.344 135.034H1.61L7.13 129.56ZM39.56 128.87V113.046L39.606 113L39.56 112.954V97.13L45.034 91.656V134.39L39.56 128.87ZM38.87 96.44H23.046L23 96.394L22.954 96.44H7.13L1.656 90.966H44.39L38.87 96.44ZM6.44 97.13V112.954L6.39401 113L6.44 113.046V128.87L0.966003 134.344V91.61L6.44 97.13Z" fill="#DBDBDB"/>
<path d="M45 45V91H91V45H45ZM45.966 45.966H61.422C54.016 48.174 48.174 54.016 45.966 61.422V45.966ZM45.966 90.034V74.578C48.174 81.984 54.016 87.826 61.422 90.034H45.966ZM50.382 72.37C50.382 62.664 58.294 54.752 68 54.752C77.706 54.752 85.618 62.664 85.618 72.37C85.618 78.948 82.03 84.652 76.694 87.688C79.5 85.25 81.294 81.662 81.294 77.66C81.294 70.346 75.36 64.366 68 64.366C60.686 64.366 54.706 70.3 54.706 77.66C54.706 81.662 56.5 85.25 59.306 87.688C53.97 84.698 50.382 78.948 50.382 72.37ZM68.644 89.988C68.414 89.988 68.23 90.034 68 90.034C67.77 90.034 67.586 90.034 67.356 89.988C64.228 89.666 61.79 87.044 61.79 83.824C61.79 80.42 64.55 77.614 68 77.614C71.404 77.614 74.21 80.374 74.21 83.824C74.21 87.044 71.726 89.666 68.644 89.988ZM75.13 83.824C75.13 79.868 71.91 76.694 68 76.694C64.09 76.694 60.87 79.914 60.87 83.824C60.87 85.848 61.698 87.642 63.032 88.976C58.708 87.044 55.672 82.72 55.672 77.706C55.672 70.898 61.192 65.378 68 65.378C74.808 65.378 80.328 70.898 80.328 77.706C80.328 82.72 77.292 87.044 72.968 88.976C74.302 87.642 75.13 85.848 75.13 83.824ZM90.034 90.034H74.578C81.984 87.826 87.826 81.984 90.034 74.578V90.034ZM80.604 86.032C84.284 82.628 86.584 77.752 86.584 72.37C86.584 62.112 78.258 53.786 68 53.786C57.742 53.786 49.416 62.112 49.416 72.37C49.416 77.752 51.716 82.628 55.396 86.032C49.692 82.03 45.966 75.452 45.966 67.954C45.966 55.81 55.856 45.92 68 45.92C80.144 45.92 90.034 55.81 90.034 67.954C90.034 75.452 86.308 82.076 80.604 86.032ZM90.034 61.422C87.826 54.016 81.984 48.174 74.578 45.966H90.034V61.422Z" fill="#DBDBDB"/>
<path d="M0 0V46H46V0H0ZM18.63 18.676C18.906 18.676 19.182 18.63 19.504 18.63C21.804 18.63 23.966 19.228 25.852 20.286C24.426 22.954 22.126 25.116 19.366 26.312C18.722 24.794 18.4 23.092 18.4 21.344C18.4 20.424 18.492 19.504 18.63 18.676ZM18.446 26.634C17.112 27.094 15.686 27.37 14.168 27.37C11.868 27.37 9.706 26.772 7.82 25.714C9.752 22.034 13.386 19.366 17.664 18.768C17.526 19.596 17.434 20.47 17.434 21.344C17.434 23.184 17.802 24.978 18.446 26.634ZM14.168 28.29C15.824 28.29 17.388 28.014 18.86 27.462C21.16 32.2 25.99 35.466 31.602 35.466C31.786 35.466 32.016 35.466 32.2 35.42C30.636 40.94 25.53 44.988 19.504 44.988C12.236 44.988 6.30201 39.054 6.30201 31.786C6.30201 29.9 6.71602 28.152 7.40602 26.542C9.43002 27.692 11.73 28.29 14.168 28.29ZM31.602 34.546C26.404 34.546 21.942 31.51 19.78 27.186C22.77 25.898 25.208 23.644 26.726 20.792C30.36 23.138 32.752 27.232 32.752 31.878C32.752 32.798 32.66 33.672 32.476 34.546C32.154 34.5 31.878 34.546 31.602 34.546ZM27.094 19.872C27.876 18.124 28.336 16.192 28.336 14.122C28.336 12.236 27.968 10.488 27.324 8.83199C28.658 8.37199 30.13 8.09601 31.602 8.09601C38.87 8.09601 44.804 14.03 44.804 21.298C44.804 27.968 39.836 33.442 33.442 34.362C33.58 33.534 33.672 32.66 33.672 31.786C33.672 26.818 31.05 22.402 27.094 19.872ZM27.37 14.122C27.37 15.962 26.956 17.756 26.266 19.366C24.242 18.262 21.942 17.618 19.504 17.618C19.32 17.618 19.09 17.618 18.906 17.664C20.01 13.846 22.77 10.718 26.404 9.154C27.002 10.718 27.37 12.374 27.37 14.122ZM17.894 17.756C13.156 18.308 9.15401 21.16 6.99201 25.208C3.35801 22.862 0.966003 18.768 0.966003 14.168C0.966003 6.90001 6.89999 0.966003 14.168 0.966003C19.366 0.966003 23.828 4.002 25.99 8.326C22.034 10.028 18.998 13.524 17.894 17.756ZM9.06201 0.966003C5.33601 2.392 2.392 5.33599 0.966003 9.06199V0.966003H9.06201ZM0.966003 45.034V19.228C2.07 22.08 4.04799 24.472 6.57799 26.082C5.79599 27.83 5.33602 29.762 5.33602 31.832C5.33602 37.858 9.10799 42.964 14.398 45.034H0.966003ZM24.61 45.034C28.842 43.424 32.062 39.836 33.212 35.42C38.778 34.776 43.378 30.912 45.08 25.714V45.034H24.61ZM45.034 0.966003V16.974C43.194 11.316 37.858 7.176 31.556 7.176C29.9 7.176 28.336 7.452 26.864 8.004C25.3 4.784 22.586 2.254 19.228 0.966003H45.034Z" fill="#DBDBDB"/>
</svg>
