<svg width="91" height="406" viewBox="0 0 91 406" fill="none" xmlns="http://www.w3.org/2000/svg">
<path d="M23.46 135H0V158.46V181H23.46H46V158.46V135H23.46ZM22.494 145.488H10.488V157.494H0.966003C1.242 145.718 10.764 136.196 22.494 135.966V145.488ZM34.5 157.494H23.46V146.454H34.5V157.494ZM11.408 158.46H22.448V169.5H11.408V158.46ZM23.46 158.46H34.5V169.5H23.46V158.46ZM22.494 157.494H11.454V146.454H22.494V157.494ZM10.442 158.46V170.466H22.448V179.988C10.672 179.712 1.15 170.19 0.92 158.46H10.442ZM23.46 170.466H35.466V158.46H44.988C44.712 170.236 35.19 179.758 23.46 179.988V170.466ZM35.466 157.494V145.488H23.46V135.966C35.236 136.242 44.758 145.764 44.988 157.494H35.466ZM0.92 135.966H16.376C8.97 138.174 3.128 144.016 0.92 151.422V135.966ZM0.92 180.034V164.578C3.128 171.984 8.97 177.826 16.376 180.034H0.92ZM29.532 180.034C36.938 177.826 42.78 171.984 44.988 164.578V180.034H29.532ZM29.532 135.966H44.988V151.422C42.78 144.016 36.938 138.174 29.532 135.966Z" fill="#DBDBDB"/>
<path d="M91 194.766V180H45V226H91V195.272C91 195.18 91 195.088 91 195.042C91 194.95 91 194.858 91 194.766ZM45.92 181.012H70.714C65.01 183.128 60.962 188.602 60.962 195.042C60.962 198.124 61.928 201.022 63.538 203.414C60.594 204.61 58.248 206.956 57.052 209.9C55.948 209.394 54.706 209.072 53.418 209.072C50.152 209.072 47.3 210.958 45.874 213.672V181.012H45.92ZM57.65 211.28C59.674 212.614 61.008 214.914 61.008 217.536C61.008 218.962 60.594 220.296 59.904 221.4C58.202 219.514 57.19 216.984 57.19 214.27C57.19 213.258 57.374 212.246 57.65 211.28ZM45.92 225.08V221.4C46.748 222.964 47.99 224.252 49.554 225.08H45.92ZM53.234 225.08C49.186 224.942 45.966 221.63 45.966 217.582C45.966 213.442 49.324 210.038 53.51 210.038C54.706 210.038 55.81 210.314 56.822 210.82C56.454 211.924 56.27 213.12 56.27 214.316C56.27 217.398 57.466 220.158 59.398 222.274C58.064 223.93 56.04 225.034 53.786 225.126H53.234V225.08ZM57.328 225.08C58.34 224.528 59.26 223.792 59.996 222.918C60.962 223.792 62.066 224.574 63.308 225.08H57.328ZM60.594 222.09C61.422 220.756 61.928 219.192 61.928 217.536C61.928 214.5 60.318 211.878 57.926 210.36C59.03 207.554 61.284 205.3 64.136 204.196C66.896 207.738 71.174 209.992 75.958 209.992C76.556 209.992 77.2 209.946 77.798 209.854C78.396 211.188 78.718 212.66 78.718 214.224C78.718 220.158 73.888 224.988 67.954 224.988C65.102 225.08 62.526 223.93 60.594 222.09ZM65.102 203.92C66.022 203.69 66.988 203.506 67.954 203.506C71.956 203.506 75.498 205.714 77.338 208.98C76.878 209.026 76.418 209.072 75.958 209.072C71.634 209.072 67.724 207.048 65.102 203.92ZM90.034 225.08H72.646C76.832 223.286 79.73 219.146 79.73 214.316C79.73 212.706 79.408 211.188 78.81 209.762C83.962 208.796 88.194 205.116 90.034 200.286V225.08ZM90.034 195.272C89.896 202.08 84.928 207.738 78.396 208.842C76.418 205.116 72.508 202.54 68 202.54C66.804 202.54 65.608 202.724 64.504 203.046C62.894 200.746 61.974 197.986 61.974 194.996C61.974 187.268 68.276 180.966 76.004 180.966C83.64 180.966 89.896 187.13 90.034 194.766V195.272ZM90.034 189.752C88.516 185.704 85.296 182.484 81.248 180.966H90.034V189.752Z" fill="#DBDBDB"/>
<path d="M52.4528 192.236C55.0748 192.236 57.1908 190.12 57.1908 187.498C57.1908 184.876 55.0748 182.76 52.4528 182.76C49.8308 182.76 47.7148 184.876 47.7148 187.498C47.7148 190.12 49.8308 192.236 52.4528 192.236ZM52.4528 183.68C54.5688 183.68 56.2708 185.382 56.2708 187.498C56.2708 189.614 54.5688 191.316 52.4528 191.316C50.3368 191.316 48.6348 189.614 48.6348 187.498C48.6348 185.382 50.3368 183.68 52.4528 183.68Z" fill="#DBDBDB"/>
<path d="M7.12291 240.778H0V255.176H7.12291H14.2458V240.778H7.12291C7.16886 240.778 7.16886 240.778 7.12291 240.778ZM1.01099 241.744H3.63038C2.52748 242.388 1.65434 243.308 1.01099 244.366V241.744ZM1.01099 254.21V251.588C1.65434 252.692 2.52748 253.612 3.63038 254.21H1.01099ZM13.2808 254.21H10.7073C11.8102 253.566 12.6834 252.646 13.3267 251.588V254.21H13.2808ZM7.16885 254.21C3.76824 254.21 1.01099 251.404 1.01099 248C1.01099 244.55 3.76824 241.79 7.16885 241.79C10.5695 241.79 13.3267 244.596 13.3267 248C13.2808 251.404 10.5235 254.21 7.16885 254.21ZM13.2808 241.744V244.366C12.6374 243.262 11.7643 242.342 10.6614 241.744H13.2808Z" fill="#DBDBDB"/>
<path d="M23.0233 240.778H15.9004V255.176H23.0233H30.1462V240.778H23.0233ZM16.8654 241.744H19.4848C18.3819 242.388 17.5088 243.308 16.8654 244.366V241.744ZM16.8654 254.21V251.588C17.5088 252.692 18.3819 253.612 19.4848 254.21H16.8654ZM29.1812 254.21H26.5618C27.6647 253.566 28.5378 252.646 29.1812 251.588V254.21ZM23.0233 254.21C19.6227 254.21 16.8654 251.404 16.8654 248C16.8654 244.55 19.6227 241.79 23.0233 241.79C26.4239 241.79 29.1812 244.596 29.1812 248C29.1812 251.404 26.4239 254.21 23.0233 254.21ZM29.1812 241.744V244.366C28.5378 243.262 27.6647 242.342 26.5618 241.744H29.1812Z" fill="#DBDBDB"/>
<path d="M38.8768 240.778H31.7539V255.176H38.8768H45.9997V240.778H38.8768ZM32.7189 241.744H35.3383C34.2354 242.388 33.3623 243.308 32.7189 244.366V241.744ZM32.7189 254.21V251.588C33.3623 252.692 34.2354 253.612 35.3383 254.21H32.7189ZM45.0347 254.21H42.4153C43.5182 253.566 44.3913 252.646 45.0347 251.588V254.21ZM38.8768 254.21C35.4762 254.21 32.7189 251.404 32.7189 248C32.7189 244.55 35.4762 241.79 38.8768 241.79C42.2774 241.79 45.0347 244.596 45.0347 248C45.0347 251.404 42.2774 254.21 38.8768 254.21ZM45.0347 241.744V244.366C44.3913 243.262 43.5182 242.342 42.4153 241.744H45.0347Z" fill="#DBDBDB"/>
<path d="M0.0449219 239.352H14.2448V225H0.0449219V239.352ZM13.2798 238.386H10.7063C11.8092 237.742 12.6824 236.822 13.3257 235.764V238.386H13.2798ZM13.2798 225.966V228.588C12.6364 227.484 11.7633 226.564 10.6604 225.966H13.2798ZM1.00996 225.966H3.62936C2.52646 226.61 1.65332 227.53 1.00996 228.588V225.966ZM7.12189 225.966C10.5225 225.966 13.2798 228.772 13.2798 232.176C13.2798 235.626 10.5225 238.386 7.12189 238.386C3.72127 238.386 0.964007 235.58 0.964007 232.176C1.00996 228.726 3.76723 225.966 7.12189 225.966ZM1.00996 235.764C1.65332 236.868 2.52646 237.788 3.62936 238.386H1.00996V235.764Z" fill="#DBDBDB"/>
<path d="M15.9004 239.352H30.1003V225H15.9004V239.352ZM29.1812 238.386H26.5618C27.6647 237.742 28.5378 236.822 29.1812 235.764V238.386ZM29.1812 225.966V228.588C28.5378 227.484 27.6647 226.564 26.5618 225.966H29.1812ZM16.8654 225.966H19.4848C18.3819 226.61 17.5088 227.53 16.8654 228.588V225.966ZM23.0233 225.966C26.4239 225.966 29.1812 228.772 29.1812 232.176C29.1812 235.626 26.4239 238.386 23.0233 238.386C19.6227 238.386 16.8654 235.58 16.8654 232.176C16.8654 228.726 19.6227 225.966 23.0233 225.966ZM16.8654 235.764C17.5088 236.868 18.3819 237.788 19.4848 238.386H16.8654V235.764Z" fill="#DBDBDB"/>
<path d="M31.7539 225V239.398H45.9538V225H31.7539ZM32.7189 225.966H35.3383C34.2354 226.61 33.3623 227.53 32.7189 228.588V225.966ZM32.7189 238.386V235.764C33.3623 236.868 34.2354 237.788 35.3383 238.386H32.7189ZM45.0347 238.386H42.4153C43.5182 237.742 44.3913 236.822 45.0347 235.764V238.386ZM38.8768 238.386C35.4762 238.386 32.7189 235.58 32.7189 232.176C32.7189 228.726 35.4762 225.966 38.8768 225.966C42.2774 225.966 45.0347 228.772 45.0347 232.176C45.0347 235.58 42.2774 238.386 38.8768 238.386ZM45.0347 228.588C44.3913 227.484 43.5182 226.564 42.4153 225.966H45.0347V228.588Z" fill="#DBDBDB"/>
<path d="M0.0449219 271H14.2448V256.602H0.0449219V271ZM13.2798 270.034H10.7063C11.8092 269.39 12.6824 268.47 13.3257 267.412V270.034H13.2798ZM13.2798 257.568V260.19C12.6364 259.086 11.7633 258.166 10.6604 257.568H13.2798ZM1.00996 257.568H3.62936C2.52646 258.212 1.65332 259.132 1.00996 260.19V257.568ZM7.12189 257.568C10.5225 257.568 13.2798 260.374 13.2798 263.778C13.2798 267.228 10.5225 269.988 7.12189 269.988C3.72127 269.988 0.964007 267.182 0.964007 263.778C1.00996 260.374 3.76723 257.568 7.12189 257.568ZM1.00996 267.366C1.65332 268.47 2.52646 269.39 3.62936 269.988H1.00996V267.366Z" fill="#DBDBDB"/>
<path d="M15.9004 271H30.1003V256.602H15.9004V271ZM29.1812 270.034H26.5618C27.6647 269.39 28.5378 268.47 29.1812 267.412V270.034ZM29.1812 257.568V260.19C28.5378 259.086 27.6647 258.166 26.5618 257.568H29.1812ZM16.8654 257.568H19.4848C18.3819 258.212 17.5088 259.132 16.8654 260.19V257.568ZM23.0233 257.568C26.4239 257.568 29.1812 260.374 29.1812 263.778C29.1812 267.228 26.4239 269.988 23.0233 269.988C19.6227 269.988 16.8654 267.182 16.8654 263.778C16.8654 260.374 19.6227 257.568 23.0233 257.568ZM16.8654 267.366C17.5088 268.47 18.3819 269.39 19.4848 269.988H16.8654V267.366Z" fill="#DBDBDB"/>
<path d="M31.7539 271H45.9538V256.602H31.7539V271ZM45.0347 270.034H42.4153C43.5182 269.39 44.3913 268.47 45.0347 267.412V270.034ZM45.0347 257.568V260.19C44.3913 259.086 43.5182 258.166 42.4153 257.568H45.0347ZM32.7189 257.568H35.3383C34.2354 258.212 33.3623 259.132 32.7189 260.19V257.568ZM38.8768 257.568C42.2774 257.568 45.0347 260.374 45.0347 263.778C45.0347 267.228 42.2774 269.988 38.8768 269.988C35.4762 269.988 32.7189 267.182 32.7189 263.778C32.7189 260.374 35.4762 257.568 38.8768 257.568ZM32.7189 267.366C33.3623 268.47 34.2354 269.39 35.3383 269.988H32.7189V267.366Z" fill="#DBDBDB"/>
<path d="M91 270H45V316H91V270ZM76.05 308.594C71.864 308.594 68.506 305.19 68.506 301.05C68.506 296.864 71.91 293.506 76.05 293.506C80.236 293.506 83.594 296.91 83.594 301.05C83.64 305.19 80.236 308.594 76.05 308.594ZM83.64 304.96V308.594H80.006C81.524 307.766 82.812 306.524 83.64 304.96ZM76.05 292.494C71.358 292.494 67.54 296.312 67.54 301.004C67.54 304.27 69.426 307.122 72.14 308.548H52.406V293.414H68.506V277.314H83.64V297.048C82.214 294.38 79.362 292.494 76.05 292.494ZM52.406 292.494V277.36H67.54V292.494H52.406ZM83.916 276.44H68.506H52.13L46.656 270.966H89.39L83.916 276.44ZM51.44 277.13V293.506V308.916L45.966 314.39V271.656L51.44 277.13ZM52.13 309.56H83.916L89.39 315.034H46.656L52.13 309.56ZM84.606 308.87V277.084L90.08 271.61V314.344L84.606 308.87Z" fill="#DBDBDB"/>
<path d="M0 315V361H46V315H0ZM23 334.688C21.62 329.996 17.342 326.5 12.236 326.27C12.466 320.52 17.204 315.966 23 315.966C28.796 315.966 33.534 320.566 33.764 326.27C28.658 326.5 24.38 329.95 23 334.688ZM33.764 327.236C33.488 332.756 29.072 337.218 23.506 337.494C23.782 331.928 28.198 327.466 33.764 327.236ZM33.764 348.718C28.244 348.442 23.782 344.026 23.506 338.46C29.072 338.736 33.488 343.198 33.764 348.718ZM22.494 337.494C16.974 337.218 12.512 332.802 12.236 327.236C17.802 327.466 22.218 331.928 22.494 337.494ZM0.966003 315.966H18.354C14.306 317.714 11.454 321.67 11.27 326.27C6.624 326.454 2.714 329.306 0.966003 333.354V315.966ZM11.27 327.236C11.5 332.342 14.95 336.62 19.688 338C14.996 339.38 11.5 343.658 11.27 348.764C5.52 348.534 0.966003 343.796 0.966003 338C0.966003 332.204 5.566 327.466 11.27 327.236ZM22.494 338.506C22.218 344.026 17.802 348.488 12.236 348.764C12.512 343.198 16.974 338.736 22.494 338.506ZM0.966003 360.034V342.646C2.714 346.694 6.67 349.546 11.27 349.73C11.454 354.376 14.306 358.286 18.354 360.034H0.966003ZM12.236 349.684C17.342 349.454 21.62 346.004 23 341.266C24.38 345.958 28.658 349.454 33.764 349.684C33.534 355.434 28.796 359.988 23 359.988C17.204 360.034 12.512 355.434 12.236 349.684ZM45.034 360.034H27.646C31.694 358.286 34.546 354.33 34.73 349.73C39.376 349.546 43.286 346.694 45.034 342.646V360.034ZM34.73 348.718C34.5 343.612 31.05 339.334 26.312 337.954C31.004 336.574 34.5 332.296 34.73 327.19C40.48 327.42 45.034 332.158 45.034 337.954C45.034 343.75 40.434 348.488 34.73 348.718ZM45.034 333.354C43.286 329.306 39.33 326.454 34.73 326.27C34.546 321.624 31.694 317.714 27.646 315.966H45.034V333.354Z" fill="#DBDBDB"/>
<path d="M91 406V360H45V406H91ZM85.48 362.024C83.824 364.692 80.742 369.706 80.742 375.502C80.742 378.032 82.214 380.7 83.594 383.23C84.928 385.668 86.354 388.198 86.354 390.498C86.354 394.592 84.974 396.294 83.548 398.134C82.214 399.79 80.88 401.538 80.788 405.034H77.016C77.108 401.814 77.89 400.25 78.764 398.64C79.73 396.8 80.742 394.868 80.742 390.498C80.742 388.014 79.776 385.392 78.856 382.862C77.936 380.378 77.016 377.848 77.016 375.502C77.016 369.89 79.04 365.014 80.098 362.392C80.374 361.702 80.558 361.242 80.65 360.966H86.17C85.94 361.242 85.71 361.61 85.48 362.024ZM79.224 362.07C78.12 364.738 76.096 369.706 76.096 375.502C76.096 377.986 77.062 380.608 77.982 383.184C78.902 385.668 79.822 388.198 79.822 390.544C79.822 394.684 78.856 396.478 77.936 398.272C77.062 399.928 76.188 401.63 76.096 405.08H72.278C72.324 401.814 72.738 400.25 73.152 398.594C73.612 396.754 74.118 394.868 74.118 390.544C74.118 388.106 73.658 385.484 73.198 382.954C72.738 380.47 72.278 377.894 72.278 375.502C72.278 369.844 73.29 364.968 73.842 362.346C73.98 361.702 74.072 361.288 74.118 360.966H79.684C79.546 361.288 79.362 361.656 79.224 362.07ZM72.922 362.162C72.37 364.83 71.358 369.752 71.358 375.502C71.358 377.94 71.818 380.562 72.278 383.092C72.738 385.576 73.198 388.152 73.198 390.498C73.198 394.684 72.692 396.524 72.232 398.318C71.818 399.974 71.358 401.676 71.312 405.034H68.368V360.966H73.152C73.106 361.288 73.014 361.702 72.922 362.162ZM67.54 405.034H64.642C64.596 401.63 64.182 399.928 63.722 398.318C63.262 396.524 62.756 394.684 62.756 390.498C62.756 388.106 63.216 385.576 63.676 383.092C64.136 380.562 64.596 377.94 64.596 375.502C64.596 369.752 63.584 364.83 63.032 362.162C62.94 361.702 62.848 361.288 62.802 360.966H67.494V405.034H67.54ZM62.204 362.346C62.756 364.968 63.768 369.844 63.768 375.502C63.768 377.894 63.308 380.47 62.848 382.954C62.388 385.484 61.928 388.06 61.928 390.544C61.928 394.822 62.434 396.754 62.894 398.594C63.308 400.25 63.722 401.814 63.768 405.08H59.95C59.858 401.63 58.984 399.928 58.11 398.272C57.19 396.524 56.224 394.684 56.224 390.544C56.224 388.198 57.144 385.668 58.064 383.184C58.984 380.654 59.95 378.032 59.95 375.502C59.95 369.706 57.926 364.738 56.822 362.07C56.638 361.656 56.5 361.288 56.362 360.966H61.928C61.974 361.288 62.066 361.702 62.204 362.346ZM55.948 362.392C57.006 365.014 59.03 369.89 59.03 375.502C59.03 377.848 58.11 380.378 57.19 382.862C56.27 385.392 55.304 388.014 55.304 390.498C55.304 394.868 56.316 396.754 57.282 398.64C58.156 400.25 58.938 401.814 59.03 405.034H55.212C55.074 401.538 53.74 399.836 52.452 398.134C51.026 396.294 49.646 394.592 49.646 390.498C49.646 388.198 51.026 385.668 52.406 383.23C53.832 380.654 55.258 378.032 55.258 375.502C55.258 369.66 52.176 364.692 50.52 362.024C50.29 361.656 50.06 361.288 49.876 361.012H55.396C55.488 361.288 55.672 361.702 55.948 362.392ZM90.034 405.034H81.662C81.754 401.86 82.95 400.342 84.238 398.686C85.71 396.8 87.228 394.868 87.228 390.498C87.228 387.968 85.756 385.346 84.376 382.77C83.042 380.332 81.616 377.756 81.616 375.456C81.616 369.89 84.606 365.06 86.216 362.438C86.676 361.702 86.952 361.242 87.09 360.92H89.988V405.034H90.034ZM45.966 360.966H48.864C49.002 361.288 49.278 361.748 49.738 362.484C51.348 365.106 54.338 369.936 54.338 375.502C54.338 377.802 52.958 380.332 51.578 382.816C50.198 385.346 48.726 388.014 48.726 390.544C48.726 394.914 50.244 396.892 51.716 398.732C53.004 400.342 54.2 401.906 54.292 405.08H45.92V360.966H45.966Z" fill="#DBDBDB"/>
<path d="M45 46H91V0H45V46ZM83.594 21.988L69.012 7.406H83.594V21.988ZM83.594 24.012V38.594H69.012L83.594 24.012ZM68 38.226L52.774 23L68 7.774L83.226 23L68 38.226ZM52.406 21.988V7.406H66.988L52.406 21.988ZM66.988 38.594H52.406V24.012L66.988 38.594ZM52.13 39.56H67.954L68 39.606L68.046 39.56H83.87L89.344 45.034H46.61L52.13 39.56ZM84.56 38.87V23.046L84.606 23L84.56 22.954V7.13L90.034 1.656V44.39L84.56 38.87ZM83.87 6.44H68.046L68 6.394L67.954 6.44H52.13L46.656 0.966003H89.39L83.87 6.44ZM51.44 7.13V22.954L51.394 23L51.44 23.046V38.87L45.966 44.344V1.61L51.44 7.13Z" fill="#DBDBDB"/>
<path d="M0 45V91H46V45H0ZM0.966003 45.966H22.402L1.01201 67.356V45.966H0.966003ZM0.966003 90.034V68.644L22.356 90.034H0.966003ZM22.54 88.838L1.70201 68L22.54 47.162V88.838ZM23.506 45.966H30.36C27.278 47.07 24.794 49.416 23.506 52.36V45.966ZM45.034 90.034H23.46V61.652C25.254 65.838 29.394 68.736 34.224 68.736C39.054 68.736 43.194 65.792 44.988 61.652V90.034H45.034ZM34.27 67.816C28.336 67.816 23.506 62.986 23.506 57.052C23.506 51.118 28.336 46.288 34.27 46.288C40.204 46.288 45.034 51.118 45.034 57.052C45.034 62.986 40.204 67.816 34.27 67.816ZM45.034 52.36C43.746 49.37 41.262 47.07 38.18 45.966H45.034V52.36Z" fill="#DBDBDB"/>
<path d="M29.0469 84.5385H39.413V74.1617H29.0469V84.5385ZM30.0144 75.1302H38.4455V83.57H30.0144V75.1302Z" fill="#DBDBDB"/>
<path d="M73.152 136L49.14 136L45 136L45 90L91 90L91 136L73.152 136ZM72.186 122.338C69.058 122.246 66.16 121.142 63.86 119.394L51.164 135.08L72.186 135.08L72.186 122.338ZM58.984 107.756C58.984 111.85 60.824 115.576 63.722 118.06L67.218 113.736C65.608 112.264 64.55 110.102 64.55 107.756C64.55 103.248 68.184 99.614 72.692 99.614C77.2 99.614 80.834 103.248 80.834 107.756C80.834 112.08 77.43 115.622 73.198 115.852L73.198 121.418C80.512 121.142 86.4 115.162 86.4 107.756C86.4 100.212 80.282 94.048 72.692 94.048C65.102 94.048 58.984 100.166 58.984 107.756ZM73.152 106.376L73.152 114.886C76.878 114.656 79.822 111.528 79.822 107.756C79.822 103.8 76.602 100.58 72.646 100.58C68.69 100.58 65.47 103.8 65.47 107.756C65.47 109.826 66.344 111.712 67.77 113L73.152 106.376ZM68.552 113.598C69.61 114.334 70.852 114.794 72.186 114.886L72.186 109.09L68.552 113.598ZM72.186 115.852C70.622 115.76 69.15 115.208 67.954 114.334L64.458 118.658C66.62 120.314 69.288 121.28 72.186 121.418L72.186 115.852ZM90.034 90.966L45.966 90.966L45.966 135.034L49.922 135.034L63.078 118.75C59.996 116.082 58.018 112.126 58.018 107.71C58.018 99.614 64.596 93.082 72.646 93.082C80.742 93.082 87.274 99.66 87.274 107.71C87.274 115.622 80.972 122.062 73.106 122.338L73.106 135.034L89.988 135.034L89.988 90.966L90.034 90.966Z" fill="#DBDBDB"/>
</svg>
