<svg width="134" height="60" viewBox="0 0 134 60" fill="none" xmlns="http://www.w3.org/2000/svg">
<rect width="134" height="60" fill="white"/>
<path d="M27.1601 38.4267C27.1076 38.4267 27.0551 38.4267 26.9502 38.4267C26.8452 38.4267 26.7665 38.4267 26.6615 38.4267V40.4244C26.6615 40.6872 26.6615 40.8975 26.6615 41.0815C26.6615 41.2655 26.6352 41.3969 26.6352 41.5283L27.8949 41.4495V42.054H24.5095V41.6072C24.772 41.6072 24.9557 41.5546 25.0869 41.4758C25.2181 41.3969 25.2968 41.2655 25.3493 41.1341C25.4018 40.9764 25.428 40.8186 25.428 40.6084C25.428 40.3981 25.428 40.1878 25.428 39.9513V34.0109C25.428 33.8269 25.428 33.6429 25.428 33.4852C25.428 33.3275 25.4543 33.1698 25.4543 33.0121L24.457 33.0647V32.4601C24.9294 32.4601 25.428 32.4338 25.9529 32.4338C26.4515 32.4338 26.9764 32.4338 27.5275 32.4338C28.8659 32.4338 29.8632 32.6704 30.5717 33.1172C31.3066 33.6166 31.674 34.3263 31.674 35.2726C31.674 35.4566 31.6477 35.6669 31.6215 35.9034C31.569 36.14 31.4903 36.3765 31.3591 36.6131C31.2278 36.8497 31.0441 37.0862 30.8342 37.3228C30.598 37.5593 30.3356 37.7433 29.9944 37.9273C29.6532 38.085 29.2333 38.2428 28.761 38.3216C28.3411 38.3742 27.7899 38.4267 27.1601 38.4267ZM26.6615 37.8485C26.8189 37.8748 26.9764 37.8748 27.1076 37.901C27.2388 37.901 27.3963 37.901 27.5538 37.901C27.9474 37.901 28.3148 37.8485 28.656 37.7171C28.9971 37.6119 29.3121 37.4279 29.5745 37.2177C29.8369 37.0074 30.0469 36.7182 30.1781 36.4028C30.3356 36.0874 30.4143 35.7194 30.4143 35.3252C30.4143 34.8783 30.3356 34.5103 30.2043 34.2212C30.0731 33.9058 29.8632 33.6692 29.627 33.4852C29.3646 33.3012 29.0759 33.1698 28.7347 33.0647C28.3935 32.9858 27.9999 32.9332 27.58 32.9332C27.3438 32.9332 27.1601 32.9595 27.0289 33.0384C26.8977 33.1172 26.8189 33.2224 26.7665 33.3801C26.714 33.5115 26.6877 33.6955 26.6877 33.9058C26.6877 34.1161 26.6877 34.3263 26.6877 34.5629V37.8485H26.6615Z" fill="black"/>
<path d="M37.999 37.9798L33.1702 38.0586C33.1702 38.5843 33.1964 39.0574 33.3014 39.5043C33.3801 39.9248 33.5114 40.2928 33.6951 40.6082C33.8788 40.9236 34.115 41.1602 34.4036 41.3179C34.6923 41.4756 35.0335 41.5545 35.4534 41.5545C35.6633 41.5545 35.8995 41.5282 36.1095 41.4756C36.3457 41.4231 36.5556 41.3442 36.7655 41.2391C36.9755 41.1339 37.1592 41.0288 37.3429 40.8711C37.5266 40.7397 37.6578 40.5819 37.789 40.4242L38.1302 40.6871C37.9465 40.9762 37.7366 41.2128 37.4741 41.4231C37.2379 41.6333 36.9755 41.791 36.7131 41.9225C36.4506 42.0539 36.1882 42.1327 35.8995 42.1853C35.6371 42.2379 35.3746 42.2642 35.1385 42.2642C34.6661 42.2642 34.2199 42.1853 33.8263 42.0013C33.4064 41.8436 33.0652 41.5808 32.7503 41.2653C32.4616 40.9499 32.2254 40.5557 32.0417 40.1088C31.858 39.662 31.7793 39.1626 31.7793 38.5843C31.7793 38.1112 31.858 37.6381 32.0155 37.1912C32.1729 36.7444 32.4091 36.3501 32.7241 36.0084C33.039 35.6667 33.3801 35.4039 33.8263 35.1936C34.2462 34.9833 34.7186 34.8782 35.2434 34.8782C35.6108 34.8782 35.9782 34.9307 36.3194 35.0622C36.6606 35.1936 36.9493 35.3776 37.2117 35.6141C37.4741 35.877 37.6578 36.1924 37.8153 36.5604C37.9465 37.0335 37.999 37.4804 37.999 37.9798ZM35.2434 35.4827C34.7186 35.4827 34.2724 35.6404 33.905 35.9558C33.5638 36.2713 33.3277 36.7707 33.2227 37.4804H36.7131C36.7131 37.2438 36.6868 37.0072 36.6343 36.7707C36.5818 36.5341 36.5031 36.3238 36.3719 36.1398C36.2407 35.9558 36.1095 35.7981 35.8995 35.6667C35.7421 35.5353 35.5059 35.4827 35.2434 35.4827Z" fill="black"/>
<path d="M42.6701 35.693C42.4864 35.693 42.329 35.7193 42.1453 35.7981C41.9616 35.877 41.7779 35.9821 41.6204 36.1136C41.4367 36.245 41.2792 36.4027 41.1218 36.5867C40.9643 36.7707 40.8331 36.981 40.7019 37.2175L40.7281 40.6082C40.7281 40.7922 40.7281 40.9499 40.7281 41.1076C40.7281 41.2391 40.7019 41.3968 40.6756 41.5545L41.5417 41.5019V42.0539H38.7074V41.6333C38.9173 41.6333 39.0748 41.5808 39.1798 41.5019C39.2847 41.4231 39.3635 41.2916 39.416 41.1602C39.4684 41.0025 39.4947 40.8448 39.4947 40.6345C39.4947 40.4242 39.4947 40.214 39.4947 39.9511V36.797C39.4947 36.6655 39.4947 36.5078 39.4947 36.3764C39.4947 36.2187 39.5209 36.0873 39.5472 35.9296L38.5762 35.9821V35.4302H38.9961C39.1798 35.4302 39.3635 35.4302 39.4947 35.4039C39.6259 35.3776 39.7309 35.3513 39.8096 35.325C39.8883 35.2987 39.9671 35.2462 40.0196 35.2199C40.072 35.1673 40.1245 35.141 40.177 35.0885H40.5707C40.5969 35.2199 40.5969 35.4039 40.5969 35.6141C40.5969 35.8244 40.6232 36.1136 40.6232 36.429C40.7281 36.2713 40.8594 36.0873 41.0168 35.9033C41.1743 35.7193 41.358 35.5879 41.5679 35.4302C41.7779 35.2987 41.9878 35.1936 42.224 35.0885C42.4602 35.0096 42.6964 34.957 42.9326 34.957C43.0638 34.957 43.1688 34.9833 43.3 35.0096C43.4312 35.0359 43.5099 35.0885 43.6149 35.1673C43.6936 35.2462 43.7724 35.325 43.8249 35.4302C43.8773 35.5353 43.9036 35.6667 43.9036 35.8244C43.9036 35.877 43.9036 35.9558 43.8773 36.0347C43.8511 36.1136 43.8249 36.1924 43.7461 36.245C43.6936 36.3238 43.6149 36.3764 43.5362 36.4027C43.4575 36.4553 43.3525 36.4815 43.2213 36.4815C43.1163 36.4815 43.0376 36.4553 42.9326 36.4027C42.8539 36.3501 42.7751 36.2975 42.7226 36.2187C42.6701 36.1398 42.6177 36.061 42.5914 35.9821C42.6701 35.877 42.6439 35.7981 42.6701 35.693Z" fill="black"/>
<path d="M48.6539 32.302C48.5752 32.2231 48.4965 32.1443 48.3915 32.118C48.2865 32.0917 48.1815 32.0654 48.0766 32.0654C47.8666 32.0654 47.6829 32.118 47.5517 32.2231C47.4205 32.3283 47.3155 32.4334 47.2105 32.5911C47.1318 32.7488 47.0793 32.9328 47.0268 33.1168C47.0006 33.3008 46.9743 33.5111 46.9743 33.6951V35.1407H48.8376V35.6664L46.9743 35.6927L47.0006 40.5554C47.0006 40.7393 47.0006 40.897 47.0006 41.0548C47.0006 41.1862 46.9743 41.3439 46.9481 41.5016L47.8141 41.449V42.001H45.0061V41.5805C45.216 41.5805 45.3735 41.5279 45.4785 41.449C45.5834 41.3702 45.6622 41.2387 45.7147 41.1073C45.7671 40.9496 45.7934 40.7919 45.7934 40.5816C45.7934 40.3714 45.7934 40.1611 45.7934 39.8982L45.7671 35.6927L44.6387 35.719V35.0881H45.7671V34.799C45.7671 34.2996 45.8196 33.8265 45.8984 33.4322C45.9771 33.0379 46.1345 32.67 46.3183 32.4071C46.502 32.118 46.7644 31.9077 47.0793 31.75C47.3942 31.5923 47.7879 31.5134 48.234 31.5134C48.3915 31.5134 48.5489 31.5397 48.7064 31.566C48.8901 31.5923 49.0476 31.6711 49.1788 31.75C49.3362 31.8288 49.4412 31.934 49.5462 32.0654C49.6512 32.1968 49.7037 32.3545 49.7037 32.5385C49.7037 32.7225 49.6512 32.8802 49.5462 32.9854C49.4412 33.0905 49.31 33.1694 49.1263 33.1694C49.0213 33.1694 48.9164 33.1431 48.8376 33.1168C48.7589 33.0905 48.7064 33.0379 48.6539 32.9854C48.6014 32.9328 48.5752 32.8539 48.5489 32.8014C48.5227 32.7225 48.5227 32.67 48.5227 32.6174C48.5227 32.5648 48.5227 32.5122 48.5489 32.4597C48.6014 32.4334 48.6277 32.3808 48.6539 32.302Z" fill="black"/>
<path d="M55.4764 37.9798L50.6476 38.0586C50.6476 38.5843 50.6739 39.0574 50.7788 39.5043C50.8576 39.9248 50.9888 40.2928 51.1725 40.6082C51.3562 40.9236 51.5924 41.1602 51.8811 41.3179C52.1697 41.4756 52.5109 41.5545 52.9308 41.5545C53.1407 41.5545 53.3769 41.5282 53.5869 41.4756C53.8231 41.4231 54.033 41.3442 54.243 41.2391C54.4529 41.1339 54.6366 41.0288 54.8203 40.8711C55.004 40.7397 55.1352 40.5819 55.2665 40.4242L55.6076 40.6871C55.4239 40.9762 55.214 41.2128 54.9515 41.4231C54.7153 41.6333 54.4529 41.791 54.1905 41.9225C53.928 42.0539 53.6656 42.1327 53.3769 42.1853C53.1145 42.2379 52.8521 42.2642 52.6159 42.2642C52.1435 42.2642 51.6974 42.1853 51.2775 42.0013C50.8576 41.8436 50.5164 41.5808 50.2015 41.2653C49.9128 40.9499 49.6766 40.5557 49.4929 40.1088C49.3092 39.662 49.2305 39.1626 49.2305 38.5843C49.2305 38.1112 49.3092 37.6381 49.4667 37.1912C49.6241 36.7444 49.8603 36.3501 50.1752 36.0084C50.4902 35.6667 50.8313 35.4039 51.2775 35.1936C51.6974 34.9833 52.1697 34.8782 52.6946 34.8782C53.062 34.8782 53.4294 34.9307 53.7706 35.0622C54.1117 35.1936 54.4004 35.3776 54.6629 35.6141C54.9253 35.877 55.109 36.1924 55.2665 36.5604C55.3977 37.0335 55.4764 37.4804 55.4764 37.9798ZM52.6946 35.4827C52.1697 35.4827 51.7236 35.6404 51.3562 35.9558C51.015 36.2713 50.7788 36.7707 50.6739 37.4804H54.1642C54.1642 37.2438 54.138 37.0072 54.0855 36.7707C54.033 36.5341 53.9543 36.3238 53.8231 36.1398C53.6919 35.9558 53.5606 35.7981 53.3507 35.6667C53.1932 35.5353 52.957 35.4827 52.6946 35.4827Z" fill="black"/>
<path d="M61.1462 36.2187C61.0937 36.061 60.9887 35.9296 60.8837 35.8244C60.7525 35.7193 60.6213 35.6404 60.4901 35.5879C60.3589 35.5353 60.2014 35.509 60.0702 35.4827C59.939 35.4564 59.8077 35.4564 59.729 35.4564C59.4141 35.4564 59.1254 35.509 58.863 35.6404C58.6005 35.7719 58.3644 35.9558 58.1544 36.1924C57.9445 36.429 57.8132 36.7444 57.682 37.1124C57.5771 37.4804 57.4983 37.9009 57.4983 38.374C57.4983 38.8209 57.5508 39.2414 57.682 39.6357C57.787 40.03 57.9445 40.3454 58.1544 40.6345C58.3644 40.9236 58.6005 41.1339 58.8892 41.2916C59.1779 41.4493 59.4928 41.5282 59.8602 41.5282C60.0702 41.5282 60.2801 41.5019 60.4901 41.4493C60.7 41.3968 60.91 41.3179 61.0937 41.1865C61.2774 41.0814 61.4611 40.9499 61.6185 40.8185C61.776 40.6871 61.9072 40.5294 62.0122 40.3454L62.3796 40.6082C62.1959 40.8974 61.9859 41.1339 61.7498 41.3442C61.5136 41.5545 61.2774 41.7122 61.0149 41.8436C60.7525 41.975 60.4901 42.0802 60.2276 42.1327C59.9652 42.1853 59.729 42.2379 59.4928 42.2379C59.0204 42.2379 58.6005 42.159 58.1807 42.0013C57.7608 41.8436 57.4196 41.607 57.1047 41.3179C56.7898 41.0025 56.5536 40.6345 56.3699 40.214C56.1862 39.7671 56.1074 39.2677 56.1074 38.7157C56.1074 38.4003 56.1337 38.0849 56.2124 37.7695C56.2911 37.4541 56.3961 37.1649 56.5536 36.8758C56.711 36.5867 56.8685 36.3238 57.0784 36.0873C57.2884 35.8507 57.5246 35.6404 57.787 35.4564C58.0494 35.2724 58.3381 35.141 58.653 35.0359C58.968 34.9307 59.3091 34.8782 59.6503 34.8782C60.0177 34.8782 60.3851 34.9307 60.7 35.0096C61.0149 35.1147 61.2774 35.2199 61.5136 35.3776C61.7498 35.5353 61.9072 35.7193 62.0384 35.9296C62.1697 36.1398 62.2221 36.3501 62.2221 36.5604C62.2221 36.7707 62.1697 36.9284 62.0647 37.0598C61.9597 37.1912 61.8022 37.2701 61.5923 37.2701C61.4611 37.2701 61.3823 37.2438 61.2774 37.2175C61.1986 37.1649 61.1199 37.1124 61.0937 37.0598C61.0412 37.0072 61.0149 36.9284 60.9887 36.8495C60.9625 36.7707 60.9625 36.7181 60.9625 36.6392C60.9625 36.5604 60.9887 36.4553 61.0149 36.3501C60.9887 36.3764 61.0674 36.2975 61.1462 36.2187Z" fill="black"/>
<path d="M62.7988 35.1675C63.035 35.1675 63.2712 35.0886 63.4549 34.9572C63.6649 34.8258 63.8223 34.6681 63.9798 34.4841C64.1372 34.3001 64.2685 34.0898 64.3472 33.8532C64.4522 33.6167 64.5309 33.4064 64.5834 33.2224H65.0558C65.0558 33.5904 65.0558 33.9321 65.0558 34.2475C65.0558 34.5629 65.0558 34.8783 65.0558 35.1412H67.3652V35.6669L65.0558 35.6932C65.0558 36.2977 65.0558 36.7971 65.0558 37.2177C65.0558 37.6382 65.0558 37.9799 65.0558 38.2691C65.0558 38.5582 65.0558 38.7685 65.0558 38.9262C65.0558 39.0839 65.0558 39.2153 65.0558 39.2942C65.0558 39.373 65.0558 39.4256 65.0558 39.4519C65.0558 39.4782 65.0558 39.4782 65.0558 39.5044C65.0558 39.8199 65.082 40.0827 65.1082 40.3456C65.1345 40.5821 65.187 40.7924 65.292 40.9501C65.3707 41.1078 65.4757 41.2392 65.6069 41.3181C65.7381 41.3969 65.8956 41.4495 66.1055 41.4495C66.3417 41.4495 66.5779 41.3707 66.8141 41.2392C67.0503 41.1078 67.2602 40.8975 67.4439 40.6347L67.8113 40.9501C67.6014 41.2655 67.4177 41.5021 67.2077 41.6598C66.9978 41.8438 66.8141 41.9752 66.6304 42.0541C66.4467 42.1329 66.2892 42.1855 66.1317 42.2118C65.9743 42.2381 65.8431 42.2381 65.7381 42.2381C65.6069 42.2381 65.4494 42.2381 65.3182 42.2118C65.1607 42.1855 65.0295 42.1329 64.8983 42.0803C64.7671 42.0278 64.6359 41.9226 64.5047 41.8175C64.3734 41.6861 64.2685 41.5547 64.1897 41.3444C64.0848 41.1604 64.0323 40.9238 63.9798 40.661C63.9273 40.3981 63.9011 40.0827 63.9011 39.7147L63.8486 35.7457H62.7988V35.1675Z" fill="black"/>
<path d="M75.1351 18.791C74.8202 18.791 74.584 18.5544 74.584 18.239C74.584 17.9236 74.8202 17.687 75.1351 17.687C75.45 17.687 75.6862 17.9499 75.6862 18.239C75.6862 18.5281 75.45 18.791 75.1351 18.791Z" fill="#006241"/>
<path d="M58.9671 18.7929C58.6522 18.7929 58.416 18.5564 58.416 18.2409C58.416 17.9255 58.6522 17.689 58.9671 17.689C59.282 17.689 59.5182 17.9518 59.5182 18.2409C59.5182 18.5301 59.2558 18.7929 58.9671 18.7929Z" fill="#006241"/>
<path d="M67.0511 17.7669C66.7362 17.7669 66.5 17.5304 66.5 17.2149C66.5 16.8995 66.7362 16.663 67.0511 16.663C67.366 16.663 67.6022 16.9258 67.6022 17.2149C67.6022 17.5304 67.366 17.7669 67.0511 17.7669Z" fill="#006241"/>
<path d="M86.6033 15.5058C86.4721 15.3218 84.7138 15.7424 84.1889 15.6635C83.7428 15.5058 83.5066 15.0064 83.1129 15.0064C82.5881 14.9801 82.2207 15.3218 82.2207 15.8212C82.2207 15.8738 82.2207 15.9526 82.2469 16.0052C81.9057 16.9252 80.3836 17.6874 79.4126 17.5297C77.9692 17.3194 77.6805 16.1629 77.4181 15.2167C77.2869 14.7698 77.9955 14.875 78.1004 14.2441C78.1792 13.7184 77.8905 13.2716 77.1819 13.0876C77.5493 12.9825 77.7855 12.6933 77.7855 12.3516C77.7855 11.9311 77.7068 11.3528 77.1032 11.2477C76.5521 11.1425 75.9747 11.9311 75.9747 12.3516C75.9747 12.6145 76.1322 12.851 76.3684 12.9825C75.3186 13.0088 74.5313 13.3242 74.6101 14.0076C74.6363 14.2441 74.82 14.4544 74.7413 14.6384C74.6626 14.8224 72.9305 16.3732 71.7758 16.3732C70.5423 16.3732 68.784 14.7961 68.6528 14.2178C68.6266 14.2178 69.4139 13.771 69.4926 13.2979C69.5976 12.4305 68.8365 11.7734 67.918 11.5105C68.023 11.3528 68.0755 11.1688 68.0755 10.9848C68.0755 10.4591 67.6293 9.38147 67.1307 9.38147C67.1044 9.38147 67.1044 9.38147 67.0782 9.38147C67.052 9.38147 67.052 9.38147 67.0257 9.38147C66.5271 9.38147 66.081 10.4591 66.081 10.9848C66.081 11.1688 66.1334 11.3528 66.2384 11.5105C65.3199 11.7734 64.5588 12.4305 64.6638 13.2979C64.7163 13.771 65.5298 14.2178 65.5036 14.2178C65.3724 14.7961 63.6141 16.3732 62.3806 16.3732C61.2259 16.3732 59.4939 14.8224 59.4151 14.6384C59.3364 14.4544 59.5201 14.2704 59.5463 14.0076C59.6251 13.3242 58.8378 13.0088 57.788 12.9825C58.0242 12.851 58.1817 12.6145 58.1817 12.3516C58.1817 11.9311 57.6043 11.1425 57.0532 11.2477C56.4496 11.3528 56.3709 11.9311 56.3709 12.3516C56.3709 12.6933 56.6333 12.9825 56.9745 13.0876C56.2659 13.2716 55.9772 13.7184 56.056 14.2441C56.1609 14.9012 56.8695 14.7698 56.7383 15.2167C56.4759 16.1629 56.1609 17.3194 54.7438 17.5297C53.7728 17.6874 52.2507 16.8989 51.9095 16.0052C51.9095 15.9526 51.9357 15.9001 51.9357 15.8212C51.9357 15.3218 51.5683 14.9801 51.0435 15.0064C50.6498 15.0327 50.4136 15.5058 49.9675 15.6635C49.4426 15.7424 47.6843 15.3481 47.5531 15.5058C47.5531 15.5058 47.4219 15.6372 47.4219 15.8212C47.4219 15.9526 53.8253 21.2621 54.3239 21.9193C54.7963 22.5501 55.3999 26.4928 55.6623 27.3076C55.6886 27.4127 55.7148 27.4916 55.7673 27.5705C56.5021 28.4904 62.1707 29.095 67.0257 29.095C67.052 29.095 67.0782 29.095 67.1044 29.095C67.1307 29.095 67.1569 29.095 67.1832 29.095C72.0382 29.095 77.7068 28.4904 78.4416 27.5705C78.5203 27.4916 78.5466 27.3865 78.5466 27.3076C78.809 26.4928 79.4126 22.5501 79.885 21.9193C80.3836 21.2621 86.787 15.9526 86.787 15.8212C86.7083 15.6372 86.6033 15.5058 86.6033 15.5058ZM67.1307 28.4116C67.1044 28.4116 67.0782 28.4116 67.052 28.4116C67.0257 28.4116 66.9995 28.4116 66.9732 28.4116C61.4359 28.4116 57.2632 27.7019 56.3971 27.2288C56.9482 26.7031 61.2784 25.5991 66.9732 25.5991C66.9995 25.5991 67.0257 25.5991 67.052 25.5991C67.0782 25.5991 67.1044 25.5991 67.1307 25.5991C72.8255 25.5991 77.1557 26.7031 77.7068 27.2288C76.8145 27.7019 72.6681 28.4116 67.1307 28.4116ZM78.9665 22.4449C78.809 22.9706 78.5728 25.862 78.2841 26.5191C77.6018 25.9671 72.7205 24.7317 67.052 24.7317C67.052 24.7317 67.052 24.7317 67.0257 24.7317C67.0257 24.7317 67.0257 24.7317 66.9995 24.7317C61.3046 24.7317 56.4496 25.9671 55.7673 26.5191C55.4786 25.862 55.2687 22.9444 55.085 22.4449C55.0062 22.2084 55.1637 21.9981 55.1637 21.9981C55.951 20.9204 60.911 19.6588 66.947 19.6588C66.9732 19.6588 67.0782 19.6588 67.1044 19.6588C73.1142 19.6588 78.1004 20.9204 78.8877 21.9981C78.914 21.9981 79.0452 22.2347 78.9665 22.4449ZM79.675 21.0519C79.675 21.0519 78.4416 20.5262 76.2372 19.9479C73.744 19.2908 70.2274 19.0017 67.0782 19.0017C63.929 19.0017 60.4124 19.3959 57.9192 19.9479C55.846 20.3947 54.4814 21.0519 54.4814 21.0519L51.9882 18.4234C51.9882 18.4234 54.6913 18.7914 56.056 18.2394C57.4206 17.6874 58.0505 15.1904 58.0505 15.1904C58.0505 15.1904 61.0685 17.5034 62.8268 17.3983C64.6113 17.2932 67.0782 13.9024 67.0782 13.9024C67.0782 13.9024 69.5713 17.2932 71.3296 17.3983C73.0879 17.5034 76.1059 15.1904 76.1059 15.1904C76.1059 15.1904 76.762 17.6611 78.1004 18.2394C79.4651 18.7914 82.1682 18.4234 82.1682 18.4234L79.675 21.0519Z" fill="#006241"/>
<path d="M67.0514 20.4214C66.2116 20.4214 65.5293 21.2099 65.5293 22.1562C65.5293 23.1287 66.2116 23.891 67.0514 23.891C67.8912 23.891 68.5735 23.1024 68.5735 22.1562C68.5473 21.2099 67.8912 20.4214 67.0514 20.4214Z" fill="#006241"/>
<path d="M73.7698 24.6539C74.4522 24.8379 75.2132 24.3385 75.4494 23.5237C75.6856 22.7088 75.3182 21.8677 74.6096 21.6837C73.9273 21.4997 73.1662 21.9991 72.93 22.814C72.7201 23.6551 73.0875 24.4699 73.7698 24.6539Z" fill="#006241"/>
<path d="M60.3057 24.6556C59.6234 24.8396 58.8623 24.3402 58.6261 23.5254C58.3899 22.7105 58.7573 21.8694 59.4659 21.6854C60.1482 21.5014 60.9093 22.0009 61.1455 22.8157C61.3817 23.6568 61.0143 24.4716 60.3057 24.6556Z" fill="#006241"/>
<path d="M80.8807 41.5544H80.5133C80.3558 41.5544 80.1721 41.5807 79.9097 41.6333C79.6472 41.6858 79.3586 41.791 79.0436 41.8961C78.9124 41.9487 78.755 42.0012 78.5713 42.0538C78.4138 42.1064 78.2301 42.1327 78.0464 42.1589C77.8627 42.1852 77.7052 42.2115 77.5215 42.2378C77.3378 42.2641 77.1804 42.2641 77.0229 42.2641C76.3406 42.2641 75.7107 42.1589 75.1334 41.9224C74.556 41.7121 74.0574 41.3704 73.6637 40.9761C73.2438 40.5556 72.9289 40.0562 72.6927 39.4516C72.4565 38.8471 72.3516 38.19 72.3516 37.4277C72.3516 37.0072 72.404 36.5603 72.4828 36.1398C72.5615 35.7192 72.6927 35.2987 72.8764 34.9044C73.0601 34.5101 73.2701 34.1684 73.5325 33.8267C73.795 33.485 74.1099 33.1959 74.451 32.9593C74.8184 32.7228 75.2121 32.5125 75.6582 32.3811C76.1044 32.2496 76.603 32.1708 77.1279 32.1708C77.3641 32.1708 77.6265 32.1971 77.8889 32.2233C78.1514 32.2496 78.3876 32.3022 78.65 32.3811C78.8862 32.4336 79.1224 32.5125 79.3586 32.6176C79.5948 32.7228 79.8047 32.8279 79.9884 32.933L79.9359 32.2759H80.697V35.4301H80.1983C80.1721 35.0095 80.0671 34.6152 79.9097 34.2735C79.7522 33.9318 79.5423 33.6427 79.2798 33.4324C79.0174 33.1959 78.7025 33.0382 78.3613 32.9067C78.0201 32.7753 77.6527 32.7228 77.2328 32.7228C76.7342 32.7228 76.2881 32.8279 75.8682 33.0382C75.4483 33.2484 75.0546 33.5639 74.7397 33.9581C74.4248 34.3524 74.1624 34.7992 73.9787 35.3512C73.795 35.8769 73.69 36.4815 73.69 37.1123C73.69 37.7694 73.7687 38.374 73.9524 38.8996C74.1361 39.4516 74.3723 39.9247 74.7135 40.319C75.0284 40.7133 75.422 41.0287 75.8682 41.239C76.3143 41.4755 76.8129 41.5807 77.3641 41.5807C77.5478 41.5807 77.7315 41.5544 77.9414 41.5281C78.1514 41.5018 78.3351 41.4493 78.545 41.3967C78.755 41.3441 78.9387 41.2653 79.1486 41.1864C79.3586 41.1076 79.5423 41.0024 79.726 40.871V37.8483L78.755 37.9008V37.2963H81.8517V37.7431C81.6942 37.7431 81.5368 37.7694 81.4318 37.8483C81.3268 37.9008 81.2218 38.006 81.1431 38.0848C81.0644 38.19 81.0119 38.2951 80.9856 38.4265C80.9594 38.5579 80.9332 38.6631 80.9069 38.7945C80.8807 38.9259 80.8807 39.0311 80.8807 39.1362C80.8807 39.2413 80.8807 39.3202 80.8807 39.3991V41.5544V41.5544Z" fill="#006241"/>
<path d="M86.4427 35.7189C86.259 35.7189 86.1016 35.7452 85.9179 35.824C85.7342 35.9029 85.5505 36.008 85.393 36.1394C85.2093 36.2709 85.0518 36.4286 84.8944 36.6126C84.7369 36.7966 84.6057 37.0068 84.4745 37.2434L84.5007 40.6341C84.5007 40.8181 84.5007 40.9758 84.5007 41.1335C84.5007 41.2649 84.4745 41.4226 84.4482 41.5804L85.3143 41.5278V42.0798H82.5062V41.6592C82.7162 41.6592 82.8736 41.6066 82.9786 41.5278C83.0836 41.4489 83.1623 41.3175 83.2148 41.1861C83.2673 41.0284 83.2935 40.8707 83.2935 40.6604C83.2935 40.4501 83.2935 40.2398 83.2935 39.977V36.8228C83.2935 36.6914 83.2935 36.5337 83.2935 36.4023C83.2935 36.2446 83.3198 36.1131 83.346 35.9554L82.375 36.008V35.456H82.7949C82.9786 35.456 83.1623 35.456 83.2935 35.4297C83.4247 35.4035 83.5297 35.3772 83.6084 35.3509C83.6872 35.3246 83.7659 35.272 83.8184 35.2458C83.8709 35.1932 83.9234 35.1669 83.9759 35.1143H84.3695C84.3957 35.2458 84.3957 35.4297 84.3957 35.64C84.3957 35.8503 84.422 36.1394 84.422 36.4548C84.527 36.2971 84.6582 36.1131 84.8156 35.9292C84.9731 35.7452 85.1568 35.6137 85.3667 35.456C85.5767 35.3246 85.7866 35.2195 86.0228 35.1143C86.259 35.0355 86.4952 34.9829 86.7314 34.9829C86.8626 34.9829 86.9676 35.0092 87.0988 35.0355C87.23 35.0618 87.3088 35.1143 87.4137 35.1932C87.4925 35.272 87.5712 35.3509 87.6237 35.456C87.6762 35.5612 87.7024 35.6926 87.7024 35.8503C87.7024 35.9029 87.7024 35.9817 87.6762 36.0606C87.6499 36.1394 87.6237 36.2183 87.545 36.2709C87.4925 36.3497 87.4137 36.4023 87.335 36.4286C87.2563 36.4811 87.1513 36.5074 87.0201 36.5074C86.9151 36.5074 86.8364 36.4811 86.7314 36.4286C86.6527 36.376 86.5739 36.3234 86.5215 36.2446C86.469 36.1657 86.4165 36.0869 86.3902 36.008C86.4427 35.9029 86.4427 35.824 86.4427 35.7189Z" fill="#006241"/>
<path d="M91.011 34.9573C91.4834 34.9573 91.9558 35.0361 92.3757 35.2201C92.7956 35.4041 93.163 35.6407 93.4779 35.9561C93.7928 36.2715 94.029 36.6395 94.2127 37.06C94.3964 37.4806 94.4751 37.9537 94.4751 38.4531C94.4751 38.9788 94.3964 39.4782 94.2127 39.9514C94.029 40.4245 93.7928 40.8188 93.4779 41.1605C93.163 41.5022 92.7956 41.765 92.3757 41.9753C91.9558 42.1856 91.5096 42.2644 91.011 42.2644C90.5386 42.2644 90.0662 42.1856 89.6463 42.0016C89.2265 41.8176 88.8591 41.581 88.5441 41.2919C88.2292 40.9765 87.993 40.6085 87.8093 40.1879C87.6256 39.7674 87.5469 39.2942 87.5469 38.7686C87.5469 38.2166 87.6256 37.7172 87.8093 37.244C87.993 36.7709 88.2292 36.3766 88.5441 36.0349C88.8591 35.6932 89.2265 35.4304 89.6463 35.2201C90.0662 35.0624 90.5124 34.9573 91.011 34.9573ZM91.011 35.483C90.6436 35.483 90.3287 35.5618 90.0925 35.7195C89.8301 35.8772 89.6201 36.0875 89.4626 36.3766C89.3052 36.6395 89.174 36.9549 89.0952 37.2966C89.0165 37.6383 88.9903 38.0063 88.9903 38.3743C88.9903 38.7948 89.0428 39.2154 89.1215 39.6097C89.2002 40.0039 89.3314 40.3719 89.5151 40.6873C89.6988 41.0027 89.9088 41.2393 90.1975 41.4496C90.4599 41.6336 90.7748 41.7387 91.1422 41.7387C91.5096 41.7387 91.7983 41.6599 92.0607 41.5022C92.2969 41.3444 92.5069 41.1342 92.6643 40.845C92.8218 40.5822 92.9268 40.2668 93.0055 39.9251C93.0842 39.5834 93.1105 39.2154 93.1105 38.8737C93.1105 38.4531 93.0842 38.0589 93.0055 37.6383C92.9268 37.244 92.7956 36.8761 92.6381 36.5606C92.4806 36.2452 92.2707 35.9824 92.0083 35.7984C91.6671 35.5881 91.3784 35.483 91.011 35.483Z" fill="#006241"/>
<path d="M100.22 36.981C100.22 36.7444 100.22 36.5604 100.246 36.4027C100.246 36.245 100.272 36.0873 100.299 35.9296L99.3015 35.9822V35.4302H99.7214C99.9313 35.4302 100.089 35.4302 100.22 35.4039C100.351 35.3776 100.482 35.3513 100.587 35.3251C100.692 35.2988 100.771 35.2462 100.824 35.2199C100.876 35.1674 100.955 35.1411 101.007 35.0885H101.401L101.375 40.2929C101.375 40.3717 101.375 40.4506 101.375 40.5557C101.375 40.6608 101.375 40.7923 101.375 40.8974C101.375 41.0288 101.375 41.134 101.348 41.2654C101.348 41.3968 101.322 41.502 101.322 41.5808L102.319 41.5282V42.1065H100.351C100.325 41.9488 100.299 41.8174 100.299 41.686C100.272 41.5545 100.272 41.4231 100.272 41.2917C100.141 41.4231 99.9576 41.5808 99.8001 41.686C99.6164 41.8174 99.4327 41.9225 99.249 42.0276C99.0653 42.1328 98.8553 42.1854 98.6454 42.2642C98.4354 42.3168 98.2255 42.3431 98.0418 42.3431C97.6744 42.3431 97.3332 42.2905 97.0445 42.1854C96.7559 42.0802 96.5197 41.9225 96.336 41.686C96.1523 41.4494 95.9948 41.134 95.9161 40.766C95.8111 40.3717 95.7849 39.8986 95.7849 39.3466V36.9021C95.7849 36.7707 95.7849 36.613 95.7849 36.4553C95.7849 36.2976 95.8111 36.1662 95.8373 36.0085L94.8926 36.061V35.5091H95.3125C95.4962 35.5091 95.6799 35.5091 95.8111 35.4828C95.9423 35.4565 96.0735 35.4302 96.1785 35.4039C96.2835 35.3776 96.3622 35.3251 96.4147 35.2988C96.4672 35.2462 96.5459 35.2199 96.5984 35.1674H96.9921V39.3729C96.9921 39.7672 97.0183 40.1089 97.0708 40.4243C97.1233 40.7134 97.202 40.95 97.3332 41.1603C97.4644 41.3443 97.5957 41.502 97.8056 41.5808C97.9893 41.6597 98.2255 41.7122 98.4879 41.7122C98.6716 41.7122 98.8291 41.6859 99.0128 41.6334C99.1703 41.5808 99.3277 41.502 99.4852 41.3968C99.6426 41.2917 99.7739 41.1865 99.9051 41.0551C100.036 40.9237 100.141 40.7923 100.246 40.6608V39.9512V36.981H100.22Z" fill="#006241"/>
<path d="M103.266 36.8228C103.266 36.6914 103.266 36.5337 103.266 36.376C103.266 36.2183 103.292 36.0869 103.319 35.9292L102.348 35.9817V35.4035C102.636 35.4035 102.899 35.4035 103.082 35.3772C103.266 35.3509 103.424 35.3246 103.529 35.2983C103.634 35.272 103.739 35.2195 103.791 35.1932C103.844 35.1406 103.922 35.1143 103.948 35.0618H104.342C104.342 35.1406 104.368 35.2458 104.368 35.3772C104.368 35.5086 104.395 35.64 104.395 35.7977C104.526 35.6663 104.683 35.5612 104.867 35.456C105.024 35.3509 105.208 35.272 105.392 35.1932C105.576 35.1143 105.759 35.0618 105.969 35.0355C106.153 34.9829 106.363 34.9829 106.547 34.9829C106.94 34.9829 107.334 35.0618 107.701 35.2195C108.069 35.3772 108.384 35.6137 108.672 35.9029C108.961 36.192 109.171 36.56 109.328 36.9805C109.486 37.4011 109.565 37.8742 109.565 38.4262C109.565 38.8205 109.512 39.1885 109.433 39.5302C109.355 39.8719 109.223 40.1873 109.066 40.4764C108.909 40.7655 108.725 41.0284 108.515 41.2649C108.305 41.5015 108.069 41.6855 107.806 41.8432C107.544 42.0009 107.281 42.1323 106.966 42.2112C106.678 42.29 106.363 42.3426 106.074 42.3426C105.444 42.3426 104.893 42.1849 104.421 41.8958V44.1825C104.421 44.3665 104.421 44.5242 104.421 44.6819C104.421 44.8134 104.395 44.9711 104.368 45.1288L105.234 45.0762V45.6282H102.426V45.2076C102.636 45.2076 102.794 45.1551 102.899 45.0762C103.004 44.9974 103.082 44.8659 103.135 44.7345C103.187 44.5768 103.214 44.4191 103.214 44.2088C103.214 43.9985 103.214 43.7883 103.24 43.5254L103.266 36.8228ZM106.074 35.64C105.917 35.64 105.759 35.6663 105.602 35.6926C105.444 35.7452 105.313 35.7977 105.156 35.8503C105.024 35.9292 104.893 36.008 104.762 36.0869C104.631 36.192 104.526 36.2709 104.447 36.376C104.447 36.4023 104.447 36.4548 104.447 36.5074C104.447 36.56 104.447 36.6388 104.447 36.744C104.447 36.8491 104.447 37.0068 104.447 37.2171C104.447 37.4274 104.447 37.6902 104.447 38.0319C104.447 38.3736 104.447 38.7942 104.447 39.3199C104.447 39.8193 104.447 40.4501 104.447 41.1861C104.683 41.3438 104.92 41.5015 105.208 41.5804C105.471 41.6855 105.759 41.7118 106.074 41.7118C106.389 41.7118 106.704 41.6329 106.94 41.4752C107.203 41.3175 107.413 41.1072 107.596 40.8181C107.78 40.529 107.911 40.2136 108.016 39.8193C108.121 39.425 108.174 39.0045 108.174 38.5576C108.174 38.1896 108.147 37.8217 108.069 37.48C107.99 37.1383 107.859 36.7966 107.701 36.5337C107.544 36.2446 107.308 36.0343 107.045 35.8766C106.757 35.7189 106.442 35.64 106.074 35.64Z" fill="#006241"/>
<path d="M84.9495 49.4134C84.8183 49.4134 84.7133 49.4134 84.5559 49.4134C84.5559 49.0192 84.5559 48.5986 84.5559 48.2043C84.5559 47.8101 84.5559 47.4158 84.5559 47.0215C84.5296 47.0215 84.5296 46.9952 84.5034 46.9952C84.4509 47.0478 84.4247 47.1004 84.3722 47.153C83.7686 47.8626 83.0075 48.7038 82.4039 49.4134H82.1152C82.1152 48.3883 82.1152 47.3107 82.1152 46.2593C82.2465 46.2593 82.3514 46.2593 82.5089 46.2593C82.5089 47.0478 82.5089 47.8626 82.5089 48.7038C82.5876 48.6512 82.4826 48.73 82.5089 48.7038C83.1387 47.9941 84.031 46.9952 84.6346 46.2593H84.9233C84.9495 47.3107 84.9495 48.3621 84.9495 49.4134Z" fill="black"/>
<path d="M54.9007 49.4397C54.9269 49.466 54.4283 48.5723 54.4283 48.5723H52.5388C52.5388 48.5723 52.1714 49.3083 52.0926 49.4397H51.6465C51.699 49.3346 52.8274 47.1792 53.2998 46.2593C53.4048 46.2593 53.641 46.2593 53.641 46.2593C54.1659 47.2581 54.7957 48.4409 55.3206 49.4397H54.9007ZM54.2446 48.2043C53.9821 47.7312 53.746 47.2844 53.4835 46.785C53.2211 47.2844 52.9849 47.7312 52.7487 48.2043C53.2736 48.2043 53.746 48.2043 54.2446 48.2043Z" fill="black"/>
<path d="M98.7268 49.3871C98.7531 49.4134 98.2545 48.5197 98.2545 48.5197H96.3649C96.3649 48.5197 95.9975 49.2557 95.9188 49.3871H95.4727C95.5251 49.282 96.6536 47.1266 97.126 46.2067C97.231 46.2067 97.4672 46.2067 97.4672 46.2067C97.992 47.2055 98.6219 48.3883 99.1467 49.3871H98.7268ZM98.0708 48.1517C97.8083 47.6786 97.5721 47.2318 97.3097 46.7324C97.0473 47.2318 96.8111 47.6786 96.5749 48.1517C97.0735 48.1517 97.5721 48.1517 98.0708 48.1517Z" fill="black"/>
<path d="M40.4662 46.1281C40.6237 46.1806 40.7812 46.2069 40.9386 46.2595C41.2535 46.3909 41.516 46.6012 41.7259 46.8903C41.621 46.9692 41.516 47.048 41.411 47.1269C40.7812 46.4172 39.9939 46.312 39.4165 46.8903C38.8916 47.416 38.9441 48.3885 39.4952 48.8617C40.0988 49.3873 40.9124 49.2034 41.4897 48.4411C41.5947 48.52 41.6997 48.5988 41.8047 48.6777C41.4897 49.2559 41.0174 49.5451 40.3613 49.5451C39.5215 49.5451 38.8654 49.0719 38.7079 48.2571C38.4717 47.2057 39.1016 46.2858 40.0726 46.1806C40.0988 46.1806 40.1251 46.1543 40.1251 46.1543C40.2301 46.1281 40.335 46.1281 40.4662 46.1281Z" fill="black"/>
<path d="M59.9922 49.466C59.887 49.466 59.7818 49.466 59.6504 49.466C59.6504 48.3883 59.6504 47.3106 59.6504 46.2067C59.7556 46.2067 59.887 46.2067 59.9922 46.2067C59.9922 47.2843 59.9922 48.362 59.9922 49.466Z" fill="black"/>
<path d="M37.5004 47.6285C37.8679 47.8388 38.0516 48.1805 37.9991 48.601C37.9466 49.1267 37.5792 49.4421 37.0281 49.4421C36.3195 49.4684 35.6372 49.4421 34.9023 49.4421C34.9023 48.3644 34.9023 47.2868 34.9023 46.2091C34.9811 46.2091 35.0336 46.2091 35.1123 46.2091C35.7421 46.2091 36.372 46.2091 37.0018 46.2354C37.3167 46.2354 37.6054 46.3668 37.7104 46.7085C37.8154 47.0239 37.7891 47.3656 37.5004 47.6022C37.5267 47.6022 37.5004 47.6022 37.5004 47.6285ZM35.3222 47.865C35.3222 48.2593 35.3222 48.6536 35.3222 49.0741C35.8996 49.0741 36.477 49.0741 37.0543 49.0741C37.3955 49.0741 37.5792 48.8376 37.5792 48.4959C37.5792 48.1542 37.3955 47.8913 37.0543 47.8913C36.5032 47.865 35.9258 47.865 35.3222 47.865ZM35.3222 47.4971C35.8734 47.4971 36.3982 47.4971 36.9493 47.4971C37.238 47.4971 37.4217 47.3131 37.3955 47.0239C37.3955 46.7348 37.2118 46.6034 36.9231 46.5771C36.5294 46.5771 36.1358 46.5771 35.7684 46.5771C35.6372 46.5771 35.5059 46.5771 35.3485 46.5771C35.3222 46.8925 35.3222 47.1816 35.3222 47.4971Z" fill="black"/>
<path d="M48.8887 46.2332C49.5972 46.2332 50.2796 46.207 50.9619 46.2332C51.4605 46.2595 51.7492 46.6275 51.723 47.1269C51.6967 47.6263 51.3556 47.9943 50.8832 48.0206C50.4108 48.0469 49.9647 48.0206 49.4923 48.0206C49.4398 48.0206 49.3611 48.0206 49.2823 48.0206C49.2823 48.4937 49.2823 48.9668 49.2823 49.44C49.1511 49.44 49.0199 49.44 48.8887 49.44C48.8887 48.3623 48.8887 47.3109 48.8887 46.2332ZM49.2823 46.6012C49.2823 46.9692 49.2823 47.3109 49.2823 47.6526C49.8072 47.6526 50.3321 47.6526 50.8307 47.6526C51.1456 47.6526 51.3031 47.4423 51.3031 47.1532C51.3031 46.8641 51.1456 46.6275 50.8569 46.6275C50.3321 46.5749 49.8072 46.6012 49.2823 46.6012Z" fill="black"/>
<path d="M56.2921 47.4945C56.9482 47.4945 57.5518 47.4945 58.2079 47.4945C58.2079 47.0739 58.2079 46.6533 58.2079 46.2328C58.3391 46.2328 58.4703 46.2328 58.6015 46.2328C58.6015 47.3105 58.6015 48.3618 58.6015 49.4395C58.4703 49.4395 58.3391 49.4395 58.2079 49.4395C58.2079 48.9138 58.2079 48.4144 58.2079 47.8887C57.578 47.8887 56.9482 47.8887 56.2921 47.8887C56.2921 48.4144 56.2921 48.9138 56.2921 49.4395C56.1609 49.4395 56.0297 49.4395 55.8984 49.4395C55.8984 48.3618 55.8984 47.3105 55.8984 46.2328C56.0297 46.2328 56.1346 46.2328 56.2921 46.2328C56.2921 46.6533 56.2921 47.0739 56.2921 47.4945Z" fill="black"/>
<path d="M46.3722 49.4397C46.2147 49.4397 46.1097 49.4397 45.9785 49.4397C45.9785 48.362 45.9785 47.3106 45.9785 46.2067C46.7921 46.2067 47.5794 46.2067 48.3929 46.2067C48.3929 46.3118 48.3929 46.4432 48.3929 46.5746C47.7106 46.5746 47.0545 46.5746 46.3722 46.5746C46.3722 47.5472 46.3722 48.4934 46.3722 49.4397Z" fill="black"/>
<path d="M42.9608 49.4397C42.8293 49.4397 42.6979 49.4397 42.5664 49.4397C42.5664 48.362 42.5664 47.2843 42.5664 46.2067C42.6979 46.2067 42.8293 46.2067 42.9608 46.2067C42.9608 47.2843 42.9608 48.362 42.9608 49.4397Z" fill="black"/>
<path d="M62.8789 46.2328C63.64 46.2328 64.4273 46.2328 65.1883 46.2591C65.2933 46.2591 65.3983 46.2591 65.5032 46.2591C65.5032 46.3905 65.5032 46.4956 65.5032 46.6271C64.7684 46.6271 64.0336 46.6271 63.2988 46.6271C63.2988 46.9425 63.2988 47.2053 63.2988 47.5207C63.5875 47.5207 63.9024 47.5207 64.1911 47.5207C64.4273 47.5207 64.6372 47.5207 64.8734 47.5207C65.5032 47.547 65.8182 47.8887 65.8182 48.467C65.8182 49.0452 65.4245 49.4395 64.8472 49.4395C64.1911 49.4658 63.535 49.4395 62.9051 49.4395C62.8789 48.3618 62.8789 47.2842 62.8789 46.2328ZM63.2726 49.0715C63.7712 49.0715 64.2436 49.0715 64.6897 49.0715C64.7947 49.0715 64.8996 49.0715 65.0046 49.019C65.2408 48.9401 65.372 48.7824 65.372 48.4933C65.372 48.1779 65.2671 48.0201 65.0309 47.915C64.9784 47.8887 64.9259 47.8624 64.8996 47.8624C64.3485 47.8624 63.8237 47.8624 63.2726 47.8624C63.2726 48.283 63.2726 48.6773 63.2726 49.0715Z" fill="black"/>
<path d="M74.6348 49.44C74.6348 48.3623 74.6348 47.311 74.6348 46.2859C75.3958 46.2859 76.1306 46.2596 76.8655 46.2859C77.1279 46.2859 77.3378 46.4698 77.4166 46.7327C77.5215 47.0481 77.4953 47.3635 77.1804 47.6264C77.4953 47.8366 77.679 48.1258 77.679 48.52C77.6528 49.0195 77.3378 49.3874 76.7867 49.4137C76.0782 49.4663 75.3696 49.44 74.6348 49.44ZM75.0284 47.8892C75.0284 48.3098 75.0284 48.6778 75.0284 49.072C75.632 49.072 76.2094 49.072 76.7867 49.072C76.8392 49.072 76.9179 49.0457 76.9704 49.0195C77.2066 48.9143 77.3116 48.6515 77.2591 48.3623C77.2066 48.0995 77.0229 47.8892 76.7867 47.8892C76.2094 47.8629 75.632 47.8892 75.0284 47.8892ZM75.0284 46.6275C75.0284 46.943 75.0284 47.2058 75.0284 47.4949C75.5795 47.4949 76.1306 47.5212 76.6818 47.4949C76.9442 47.4949 77.0754 47.2847 77.0492 47.0218C77.0229 46.7853 76.8917 46.6275 76.6293 46.6275C76.1044 46.6013 75.5795 46.6275 75.0284 46.6275Z" fill="black"/>
<path d="M94.6589 47.6259C94.9213 47.8099 95.105 48.0201 95.1575 48.3356C95.2362 48.9664 94.8688 49.4132 94.2128 49.4395C93.5304 49.4658 92.8219 49.4395 92.1133 49.4395C92.1133 48.3881 92.1133 47.3367 92.1133 46.2328C92.2445 46.2328 92.3757 46.2328 92.4807 46.2328C93.0318 46.2328 93.6092 46.2328 94.1603 46.2591C94.4752 46.2591 94.7376 46.3905 94.8688 46.6796C95.0001 47.0213 94.9738 47.363 94.6589 47.6259ZM92.5069 49.0715C93.1105 49.0715 93.6616 49.0978 94.239 49.0715C94.5802 49.0715 94.7901 48.8087 94.7639 48.4407C94.7639 48.0727 94.5539 47.8887 94.1865 47.8624C93.6879 47.8624 93.1893 47.8624 92.6906 47.8624C92.6381 47.8624 92.5857 47.8887 92.5332 47.8887C92.5069 48.283 92.5069 48.6773 92.5069 49.0715ZM92.5069 46.6271C92.5069 46.9162 92.5069 47.2053 92.5069 47.4945C93.0843 47.4945 93.6354 47.5207 94.1865 47.4945C94.4489 47.4945 94.5539 47.2842 94.5539 47.0476C94.5277 46.8111 94.4227 46.6533 94.1865 46.6533C93.6092 46.6271 93.058 46.6271 92.5069 46.6271Z" fill="black"/>
<path d="M69.5169 50.1492C69.3857 50.1492 69.307 50.1492 69.1758 50.1492C69.1758 49.8075 69.1758 49.0715 69.1758 49.0715H69.5694L70.7766 46.2328H71.0916L72.3512 49.0715H72.7711C72.7711 49.0715 72.7711 49.7812 72.7711 50.1492C72.6662 50.1492 72.5612 50.1492 72.43 50.1492C72.43 49.9389 72.43 49.7024 72.43 49.4658C71.4327 49.4658 70.488 49.4658 69.4907 49.4658C69.5169 49.6761 69.5169 49.8864 69.5169 50.1492ZM70.9603 46.7848C70.6192 47.5733 70.3305 48.3093 70.0156 49.0715C70.6717 49.0715 71.3015 49.0715 71.9838 49.0715C71.6427 48.3093 71.3015 47.5733 70.9603 46.7848Z" fill="black"/>
<path d="M88.4133 49.0716C88.5708 49.0716 88.7282 49.0979 88.8594 49.0979C88.8594 49.4396 88.8594 49.7813 88.8594 50.1492C88.7545 50.1492 88.6495 50.1492 88.5183 50.1492C88.5183 49.9127 88.5183 49.7024 88.5183 49.4658C87.6522 49.4658 86.8124 49.4658 85.9727 49.4658C85.9727 48.3882 85.9727 47.3368 85.9727 46.2854C86.1039 46.2854 86.2088 46.2854 86.3663 46.2854C86.3663 47.2316 86.3663 48.1516 86.3663 49.0979C86.9174 49.0979 87.4685 49.0979 88.0196 49.0979C88.0196 48.1516 88.0196 47.2316 88.0196 46.2854C88.1509 46.2854 88.2821 46.2854 88.4133 46.2854C88.4133 47.1791 88.4133 48.1253 88.4133 49.0716Z" fill="black"/>
<path d="M78.5449 46.2593C78.6761 46.2593 78.7811 46.2593 78.9386 46.2593C78.9386 46.6798 78.9386 47.0741 78.9386 47.4947C79.5684 47.4947 80.1983 47.4947 80.8281 47.4947C80.8281 47.0741 80.8281 46.6798 80.8281 46.2593C80.9593 46.2593 81.0905 46.2593 81.1955 46.2593C81.1955 47.3107 81.1955 48.3621 81.1955 49.4397C81.0643 49.4397 80.9593 49.4397 80.8281 49.4397C80.8281 48.9403 80.8281 48.4146 80.8281 47.9152C80.1983 47.9152 79.5684 47.9152 78.9386 47.9152C78.9386 48.4146 78.9386 48.914 78.9386 49.4397C78.8074 49.4397 78.6761 49.4397 78.5449 49.4397C78.5449 48.3621 78.5449 47.3107 78.5449 46.2593Z" fill="black"/>
<path d="M67.8905 47.9939C68.2054 47.4945 68.9665 46.2328 68.9665 46.2328H69.4389C69.4389 46.2328 67.9955 48.5458 67.4706 49.4395H66.9982C67.1557 49.1767 67.6281 48.3881 67.6281 48.3881C67.2344 47.8362 66.2109 46.2328 66.2109 46.2328H66.7096C66.7096 46.2328 67.5494 47.4945 67.8905 47.9939Z" fill="black"/>
<path d="M90.1451 46.6273C89.6727 46.6273 89.2528 46.6273 88.8066 46.6273C88.8066 46.4958 88.8066 46.3907 88.8066 46.2593C89.8301 46.2593 90.8274 46.2593 91.8509 46.2593C91.8509 46.3644 91.8509 46.4696 91.8509 46.601C91.431 46.601 90.9848 46.601 90.5125 46.601C90.5125 47.5472 90.5125 48.4935 90.5125 49.4134C90.3812 49.4134 90.25 49.4134 90.1188 49.4134C90.1451 48.4935 90.1451 47.5735 90.1451 46.6273Z" fill="black"/>
<path d="M73.2715 46.2328C73.4029 46.2328 73.5081 46.2328 73.6396 46.2328C73.6396 47.3105 73.6396 48.3618 73.6396 49.4395C73.5081 49.4395 73.4029 49.4395 73.2715 49.4395C73.2715 48.3618 73.2715 47.3105 73.2715 46.2328Z" fill="black"/>
</svg>
