<svg width="86" height="86" viewBox="0 0 86 86" fill="none" xmlns="http://www.w3.org/2000/svg">
<path d="M43 86C66.7482 86 86 66.7482 86 43C86 19.2518 66.7482 0 43 0C19.2518 0 0 19.2518 0 43C0 66.7482 19.2518 86 43 86Z" fill="white"/>
<path d="M17.8634 56.2776H16.7422V59.8534H17.7574C18.3937 59.8534 18.8786 59.7019 19.2119 59.3837C19.5452 59.0655 19.7119 58.6261 19.7119 58.0352C19.7119 57.4897 19.5452 57.0503 19.2271 56.7473C18.8937 56.4291 18.4392 56.2776 17.8634 56.2776ZM17.818 59.2171H17.4998V56.8988H17.9089C18.5907 56.8988 18.924 57.2776 18.924 58.0504C18.924 58.8231 18.5604 59.2171 17.818 59.2171Z" fill="#405174"/>
<path d="M21.9375 59.8383H23.9981V59.2171H22.6951V58.2928H23.9072V57.6716H22.6951V56.8988H23.9981V56.2776H21.9375V59.8383Z" fill="#405174"/>
<path d="M27.6038 58.3989C27.4978 58.7777 27.4372 59.0352 27.422 59.1868C27.4069 59.1262 27.3917 59.0049 27.3462 58.8383C27.3008 58.6716 27.2705 58.5201 27.225 58.3989L26.5584 56.2776H25.8008L27.0129 59.8534H27.8311L29.0432 56.2776H28.2857L27.6038 58.3989Z" fill="#405174"/>
<path d="M30.9824 59.8383H33.043V59.2171H31.74V58.2928H32.9521V57.6716H31.74V56.8988H33.043V56.2776H30.9824V59.8383Z" fill="#405174"/>
<path d="M36.0427 56.2776H35.2852V59.8383H37.4973V59.2171H36.0427V56.2776Z" fill="#405174"/>
<path d="M41.1638 56.2161C40.6183 56.2161 40.1941 56.3676 39.9062 56.6858C39.6183 57.004 39.4668 57.4585 39.4668 58.0494C39.4668 58.6403 39.6183 59.0949 39.9062 59.4131C40.1941 59.7312 40.6183 59.8828 41.1638 59.8828C41.7093 59.8828 42.1335 59.7161 42.4214 59.4131C42.7093 59.0949 42.8608 58.6403 42.8608 58.0494C42.8608 57.4585 42.7093 57.004 42.4214 56.6858C42.1183 56.3676 41.7093 56.2161 41.1638 56.2161ZM41.1486 59.2615C40.8456 59.2615 40.6183 59.1555 40.4668 58.9585C40.3153 58.7615 40.2395 58.4585 40.2395 58.0646C40.2395 57.6706 40.3153 57.3676 40.4668 57.1555C40.6183 56.9585 40.8456 56.8524 41.1486 56.8524C41.7547 56.8524 42.0426 57.2615 42.0426 58.0646C42.0577 58.8525 41.7547 59.2615 41.1486 59.2615Z" fill="#405174"/>
<path d="M46.2262 56.2776H45.0898V59.8534H45.8474V58.5807H46.1656C46.605 58.5807 46.9535 58.4746 47.1959 58.2776C47.4383 58.0807 47.5596 57.7776 47.5596 57.3988C47.5596 57.0352 47.4535 56.7473 47.2262 56.5655C46.999 56.3685 46.6656 56.2776 46.2262 56.2776ZM46.6202 57.8079C46.4989 57.8988 46.3323 57.9443 46.105 57.9443H45.8474V56.8837H46.1959C46.408 56.8837 46.5596 56.9291 46.6505 57.0049C46.7414 57.0958 46.802 57.217 46.802 57.3988C46.7868 57.5958 46.7414 57.717 46.6202 57.8079Z" fill="#405174"/>
<path d="M51.6186 59.0049L50.7549 56.2776H49.7246V59.8534H50.4064V58.1867C50.4064 57.9898 50.3913 57.611 50.361 57.0503H50.3761L51.2398 59.8534H51.9368L52.861 57.0655H52.8762C52.861 57.52 52.8459 57.7928 52.8459 57.8988C52.8459 58.0049 52.8459 58.0958 52.8459 58.1716V59.8534H53.558V56.2776H52.5125L51.6186 59.0049Z" fill="#405174"/>
<path d="M55.9395 59.8383H58.0001V59.2171H56.6971V58.2928H57.9092V57.6716H56.6971V56.8988H58.0001V56.2776H55.9395V59.8383Z" fill="#405174"/>
<path d="M62.7251 57.9595C62.7251 58.1564 62.7403 58.4746 62.7554 58.9443H62.7403L61.1948 56.2776H60.2402V59.8534H60.9221V58.1716C60.9221 57.9746 60.9069 57.6261 60.8766 57.1564H60.8918L62.4372 59.8534H63.3918V56.2776H62.71V57.9595H62.7251Z" fill="#405174"/>
<path d="M65.4531 56.8988H66.4228V59.8383H67.1804V56.8988H68.1501V56.2776H65.4531V56.8988Z" fill="#405174"/>
<path d="M79.7249 48.7161L74.3915 36.8372L77.9522 28.9735L77.7552 28.8826L74.2703 36.5645L72.3309 32.2311H72.2248H70.1036H69.9975L62.6035 48.701H64.8308L66.9824 43.9282H70.9521L67.149 52.3374L67.346 52.4283L73.2854 39.2918L77.5128 48.6858H79.7249V48.7161ZM71.8612 41.8979H67.8915L71.1642 34.6099L73.1491 39.0494L71.8612 41.8979Z" fill="#405174"/>
<path d="M51.7995 39.8827L56.739 28.9735L56.542 28.8826L54.7844 32.7463C54.6026 32.6553 54.4056 32.5644 54.2086 32.4887C53.1329 32.0644 51.9813 31.8372 50.7692 31.8372C48.3752 31.8372 46.3449 32.6705 44.6782 34.322C43.0115 35.9887 42.1934 38.019 42.1934 40.4585C42.1934 42.8827 43.0267 44.9282 44.6782 46.5949C45.557 47.4737 46.5419 48.1101 47.6328 48.5343L45.9055 52.3677L46.1025 52.4586L47.8449 48.6101C48.754 48.9283 49.7237 49.0949 50.7692 49.0949C53.2692 49.0949 55.2996 48.2767 56.8299 46.6555C58.1935 45.2919 58.8753 43.4585 58.8753 41.1403C58.8753 40.7464 58.8299 40.3221 58.7541 39.8979H51.7995V39.8827ZM46.2237 45.1858C44.9964 43.9282 44.3752 42.3524 44.3752 40.4585C44.3752 38.5645 44.9964 36.9887 46.2237 35.7311C47.4661 34.4887 48.9965 33.8675 50.7844 33.8675C51.7086 33.8675 52.5723 34.0341 53.3753 34.3826C53.5723 34.4584 53.7541 34.5645 53.9207 34.6554L48.4965 46.6404C47.6631 46.3525 46.8904 45.8676 46.2237 45.1858ZM54.8905 45.6707C53.7995 46.5949 52.4359 47.0495 50.7844 47.0495C50.0419 47.0495 49.3449 46.9434 48.7086 46.7313L50.9056 41.8676H56.7693C56.6026 43.4737 55.9814 44.7464 54.8905 45.6707Z" fill="#405174"/>
<path d="M16.8177 41.277C16.2116 40.58 15.2571 39.9739 13.954 39.4588L18.4693 29.5041L18.2723 29.4132L16.4086 33.5496C16.1662 33.292 15.8783 33.0345 15.5601 32.8223C14.6359 32.1708 13.5449 31.8526 12.2874 31.8526C10.8631 31.8526 9.65096 32.2769 8.6661 33.1405C7.69639 34.0042 7.21154 35.0345 7.21154 36.2466C7.21154 37.9891 8.09034 39.2921 9.83278 40.186C10.151 40.3527 10.9843 40.6709 12.3025 41.1558C12.4995 41.2164 12.6813 41.2921 12.8631 41.3527L10.5449 46.474C10.3782 46.3679 10.2267 46.2619 10.0752 46.1406C9.74187 45.8528 9.45399 45.5194 9.21156 45.1103C8.96913 44.7164 8.77216 44.2618 8.6358 43.777L6.60547 44.6103C6.99941 45.9891 7.7267 47.0801 8.77216 47.8831C9.06004 48.0952 9.34793 48.277 9.65096 48.4437L7.63578 52.8831L7.83276 52.9741L9.84793 48.5346C10.6207 48.8982 11.4692 49.0801 12.3783 49.0801C13.9086 49.0801 15.2268 48.6558 16.3026 47.7922C17.3632 46.9134 17.8935 45.7619 17.8935 44.3073C17.8783 43.1103 17.5298 42.0952 16.8177 41.277ZM13.2268 39.186C11.5752 38.6254 10.5146 38.1254 10.0298 37.7163C9.59035 37.3072 9.36308 36.8072 9.36308 36.2466C9.36308 35.5496 9.65096 34.989 10.2116 34.5648C10.7873 34.1102 11.4843 33.8678 12.3025 33.8678C13.0904 33.8678 13.7571 34.0648 14.3025 34.4739C14.8025 34.8527 15.1359 35.3072 15.3328 35.8527L13.7419 39.3679C13.5753 39.3224 13.4086 39.2466 13.2268 39.186ZM14.7874 46.3073C14.1662 46.8073 13.3783 47.0497 12.4086 47.0497C11.9692 47.0497 11.5449 46.974 11.1358 46.8073C10.9843 46.7467 10.8479 46.671 10.6964 46.5952L13.0298 41.4436C13.9237 41.8073 14.5601 42.1709 14.9389 42.5346C15.4541 43.0194 15.6965 43.6103 15.6965 44.3073C15.7116 45.1406 15.4086 45.8073 14.7874 46.3073Z" fill="#405174"/>
<path d="M37.0276 28.9735L36.8306 28.8826L33.3609 36.5645L31.4518 32.3068L32.9669 28.9735L32.77 28.8826L31.2548 32.2462H29.3002L30.7851 28.9735L30.5881 28.8826L19.9668 52.3525L20.1638 52.4434L21.8608 48.7161H23.8153L22.1638 52.3525L22.3608 52.4434L26.2093 43.9433H30.0427L26.2396 52.3525L26.4366 52.4434L32.3912 39.3069L36.6185 48.7161H38.8458L33.4669 36.822L37.0276 28.9735ZM30.9215 41.8978H27.0881L30.3154 34.7766L32.2245 39.0342L30.9215 41.8978Z" fill="#405174"/>
</svg>
