<svg width="136" height="135" viewBox="0 0 136 135" fill="none" xmlns="http://www.w3.org/2000/svg">
<path d="M7.06223 105.035H0V119.311H7.06223H14.1245V105.035H7.06223C7.10779 105.035 7.10779 105.035 7.06223 105.035ZM1.00237 105.993H3.59945C2.50595 106.632 1.64025 107.544 1.00237 108.593V105.993ZM1.00237 118.353V115.753C1.64025 116.848 2.50595 117.76 3.59945 118.353H1.00237ZM13.1676 118.353H10.6161C11.7096 117.715 12.5753 116.802 13.2132 115.753V118.353H13.1676ZM7.10778 118.353C3.73613 118.353 1.00237 115.571 1.00237 112.196C1.00237 108.775 3.73613 106.039 7.10778 106.039C10.4794 106.039 13.2132 108.821 13.2132 112.196C13.1676 115.571 10.4339 118.353 7.10778 118.353ZM13.1676 105.993V108.593C12.5298 107.498 11.6641 106.586 10.5705 105.993H13.1676Z" fill="#DBDBDB"/>
<path d="M22.8279 105.035H15.7656V119.311H22.8279H29.8901V105.035H22.8279ZM16.7224 105.993H19.3195C18.226 106.632 17.3603 107.544 16.7224 108.593V105.993ZM16.7224 118.353V115.753C17.3603 116.848 18.226 117.76 19.3195 118.353H16.7224ZM28.9333 118.353H26.3362C27.4297 117.715 28.2954 116.802 28.9333 115.753V118.353ZM22.8279 118.353C19.4562 118.353 16.7224 115.571 16.7224 112.196C16.7224 108.775 19.4562 106.039 22.8279 106.039C26.1995 106.039 28.9333 108.821 28.9333 112.196C28.9333 115.571 26.1995 118.353 22.8279 118.353ZM28.9333 105.993V108.593C28.2954 107.498 27.4297 106.586 26.3362 105.993H28.9333Z" fill="#DBDBDB"/>
<path d="M38.5466 105.035H31.4844V119.311H38.5466H45.6088V105.035H38.5466ZM32.4412 105.993H35.0383C33.9448 106.632 33.0791 107.544 32.4412 108.593V105.993ZM32.4412 118.353V115.753C33.0791 116.848 33.9448 117.76 35.0383 118.353H32.4412ZM44.652 118.353H42.0549C43.1484 117.715 44.0141 116.802 44.652 115.753V118.353ZM38.5466 118.353C35.175 118.353 32.4412 115.571 32.4412 112.196C32.4412 108.775 35.175 106.039 38.5466 106.039C41.9182 106.039 44.652 108.821 44.652 112.196C44.652 115.571 41.9182 118.353 38.5466 118.353ZM44.652 105.993V108.593C44.0141 107.498 43.1484 106.586 42.0549 105.993H44.652Z" fill="#DBDBDB"/>
<path d="M0.0429688 103.622H14.1219V89.3919H0.0429688V103.622ZM13.165 102.664H10.6135C11.707 102.025 12.5727 101.113 13.2106 100.064V102.664H13.165ZM13.165 90.3497V92.9493C12.5272 91.8547 11.6615 90.9426 10.568 90.3497H13.165ZM0.999789 90.3497H3.59687C2.50337 90.9882 1.63767 91.9003 0.999789 92.9493V90.3497ZM7.05964 90.3497C10.4313 90.3497 13.165 93.1318 13.165 96.5068C13.165 99.9274 10.4313 102.664 7.05964 102.664C3.688 102.664 0.954224 99.8818 0.954224 96.5068C0.999786 93.0862 3.73356 90.3497 7.05964 90.3497ZM0.999789 100.064C1.63767 101.159 2.50337 102.071 3.59687 102.664H0.999789V100.064Z" fill="#DBDBDB"/>
<path d="M15.7656 103.622H29.8445V89.3919H15.7656V103.622ZM28.9333 102.664H26.3362C27.4297 102.025 28.2954 101.113 28.9333 100.064V102.664ZM28.9333 90.3497V92.9493C28.2954 91.8547 27.4297 90.9426 26.3362 90.3497H28.9333ZM16.7224 90.3497H19.3195C18.226 90.9882 17.3603 91.9003 16.7224 92.9493V90.3497ZM22.8279 90.3497C26.1995 90.3497 28.9333 93.1318 28.9333 96.5068C28.9333 99.9274 26.1995 102.664 22.8279 102.664C19.4562 102.664 16.7224 99.8818 16.7224 96.5068C16.7224 93.0862 19.4562 90.3497 22.8279 90.3497ZM16.7224 100.064C17.3603 101.159 18.226 102.071 19.3195 102.664H16.7224V100.064Z" fill="#DBDBDB"/>
<path d="M31.4844 89.3919V103.667H45.5633V89.3919H31.4844ZM32.4412 90.3497H35.0383C33.9448 90.9882 33.0791 91.9003 32.4412 92.9493V90.3497ZM32.4412 102.664V100.064C33.0791 101.159 33.9448 102.071 35.0383 102.664H32.4412ZM44.652 102.664H42.0549C43.1484 102.025 44.0141 101.113 44.652 100.064V102.664ZM38.5466 102.664C35.175 102.664 32.4412 99.8818 32.4412 96.5068C32.4412 93.0862 35.175 90.3497 38.5466 90.3497C41.9182 90.3497 44.652 93.1318 44.652 96.5068C44.652 99.8818 41.9182 102.664 38.5466 102.664ZM44.652 92.9493C44.0141 91.8547 43.1484 90.9426 42.0549 90.3497H44.652V92.9493Z" fill="#DBDBDB"/>
<path d="M0.0429688 135H14.1219V120.725H0.0429688V135ZM13.165 134.042H10.6135C11.707 133.404 12.5727 132.492 13.2106 131.443V134.042H13.165ZM13.165 121.682V124.282C12.5272 123.188 11.6615 122.275 10.568 121.682H13.165ZM0.999789 121.682H3.59687C2.50337 122.321 1.63767 123.233 0.999789 124.282V121.682ZM7.05964 121.682C10.4313 121.682 13.165 124.465 13.165 127.84C13.165 131.26 10.4313 133.997 7.05964 133.997C3.688 133.997 0.954224 131.215 0.954224 127.84C0.999786 124.465 3.73356 121.682 7.05964 121.682ZM0.999789 131.397C1.63767 132.492 2.50337 133.404 3.59687 133.997H0.999789V131.397Z" fill="#DBDBDB"/>
<path d="M15.7656 135H29.8445V120.725H15.7656V135ZM28.9333 134.042H26.3362C27.4297 133.404 28.2954 132.492 28.9333 131.443V134.042ZM28.9333 121.682V124.282C28.2954 123.188 27.4297 122.275 26.3362 121.682H28.9333ZM16.7224 121.682H19.3195C18.226 122.321 17.3603 123.233 16.7224 124.282V121.682ZM22.8279 121.682C26.1995 121.682 28.9333 124.465 28.9333 127.84C28.9333 131.26 26.1995 133.997 22.8279 133.997C19.4562 133.997 16.7224 131.215 16.7224 127.84C16.7224 124.465 19.4562 121.682 22.8279 121.682ZM16.7224 131.397C17.3603 132.492 18.226 133.404 19.3195 133.997H16.7224V131.397Z" fill="#DBDBDB"/>
<path d="M31.4844 135H45.5633V120.725H31.4844V135ZM44.652 134.042H42.0549C43.1484 133.404 44.0141 132.492 44.652 131.443V134.042ZM44.652 121.682V124.282C44.0141 123.188 43.1484 122.275 42.0549 121.682H44.652ZM32.4412 121.682H35.0383C33.9448 122.321 33.0791 123.233 32.4412 124.282V121.682ZM38.5466 121.682C41.9182 121.682 44.652 124.465 44.652 127.84C44.652 131.26 41.9182 133.997 38.5466 133.997C35.175 133.997 32.4412 131.215 32.4412 127.84C32.4412 124.465 35.175 121.682 38.5466 121.682ZM32.4412 131.397C33.0791 132.492 33.9448 133.404 35.0383 133.997H32.4412V131.397Z" fill="#DBDBDB"/>
<path d="M0 0V45.6081H45.6081V0H0ZM43.9662 0.957773L38.5389 6.38514H7.06926L1.64189 0.957773H43.9662ZM38.2652 7.34291V38.2652H7.34291V7.34291H38.2652ZM0.95777 1.64189L6.38514 7.06926V38.5845L0.95777 44.0118V1.64189ZM1.64189 44.6503L7.06926 39.223H38.5845L44.0118 44.6503H1.64189ZM44.6503 43.9662L39.223 38.5389V7.02365L44.6503 1.59628V43.9662Z" fill="#DBDBDB"/>
<path d="M22.8036 34.9358C29.508 34.9358 34.9354 29.5084 34.9354 22.804C34.9354 16.0997 29.508 10.6723 22.8036 10.6723C16.0992 10.6723 10.6719 16.0997 10.6719 22.804C10.6719 29.4628 16.0992 34.9358 22.8036 34.9358ZM22.8036 11.6301C28.9607 11.6301 33.9776 16.647 33.9776 22.804C33.9776 28.9611 28.9607 33.978 22.8036 33.978C16.6465 33.978 11.6296 28.9611 11.6296 22.804C11.6296 16.647 16.6465 11.6301 22.8036 11.6301Z" fill="#DBDBDB"/>
<path d="M90.3034 44.6959H44.6953V90.3041H90.3034V44.6959ZM83.7815 77.4882C82.55 79.4949 80.9538 81.2737 79.0838 82.6875V52.3125C80.9538 53.7264 82.55 55.5051 83.7815 57.5118V77.4882ZM84.6936 59.1537C85.925 61.6622 86.6092 64.4899 86.6092 67.5C86.6092 70.5101 85.925 73.3379 84.6936 75.8463V59.1537ZM73.5196 49.348C75.2071 49.8953 76.7578 50.6706 78.2173 51.674V83.326C76.8034 84.2838 75.2071 85.1047 73.5196 85.652V49.348ZM72.6531 85.9257C71.0112 86.3818 69.2781 86.6098 67.4994 86.6098C56.9639 86.6098 48.3896 78.0355 48.3896 67.5C48.3896 56.9645 56.9639 48.3902 67.4994 48.3902C69.2781 48.3902 71.0112 48.6182 72.6531 49.0743V85.9257ZM73.5196 48.3446V45.6537H78.2173V50.5338C76.7578 49.6216 75.2071 48.8919 73.5196 48.3446ZM78.2173 84.4662V89.3463H73.5196V86.6554C75.2071 86.1081 76.7578 85.3784 78.2173 84.4662ZM79.1294 83.8733C80.9538 82.5963 82.5044 81 83.8271 79.2213V89.3919H79.1294V83.8733ZM79.1294 51.1723V45.6993H83.8271V55.8699C82.5044 54 80.9081 52.4493 79.1294 51.1723ZM45.6531 45.6537H72.6531V48.1166C71.0112 47.6605 69.2781 47.4324 67.4994 47.4324C56.4166 47.4324 47.4318 56.4172 47.4318 67.5C47.4318 78.5828 56.4166 87.5676 67.4994 87.5676C69.2781 87.5676 71.0112 87.3395 72.6531 86.8834V89.3463H45.6531V45.6537ZM89.3456 89.3463H84.6936V77.8531C86.5179 74.8429 87.5669 71.2855 87.5669 67.5C87.5669 63.7145 86.5179 60.1571 84.6936 57.147V45.6537H89.3456V89.3463Z" fill="#DBDBDB"/>
<path d="M89.3945 89.3919V135H135.003V89.3919H89.3945ZM90.3523 134.042V120.998C97.4672 121.226 103.168 126.973 103.396 134.042H90.3523ZM134.09 134.042H104.4C104.172 126.426 98.0145 120.269 90.3979 120.041V90.3497H120.089C120.271 98.0118 126.428 104.215 134.09 104.488V134.042ZM134.09 103.485C126.976 103.257 121.229 97.4645 121.047 90.3041H134.09V103.485Z" fill="#DBDBDB"/>
<path d="M112.199 96.3699C104.217 96.3699 97.6953 102.892 97.6953 110.873C97.6953 118.855 104.217 125.377 112.199 125.377C120.18 125.377 126.702 118.855 126.702 110.873C126.702 102.892 120.226 96.3699 112.199 96.3699ZM112.199 124.465C104.719 124.465 98.6531 118.399 98.6531 110.919C98.6531 103.439 104.719 97.3733 112.199 97.3733C119.678 97.3733 125.744 103.439 125.744 110.919C125.79 118.353 119.678 124.465 112.199 124.465Z" fill="#DBDBDB"/>
</svg>
