<svg width="148" height="148" viewBox="0 0 148 148" fill="none" xmlns="http://www.w3.org/2000/svg">
<path d="M25.5 98H0V123.5V148H25.5H50V123.5V98H25.5ZM24.45 109.4H11.4V122.45H1.05C1.35 109.65 11.7 99.3 24.45 99.05V109.4ZM37.5 122.45H25.5V110.45H37.5V122.45ZM12.4 123.5H24.4V135.5H12.4V123.5ZM25.5 123.5H37.5V135.5H25.5V123.5ZM24.45 122.45H12.45V110.45H24.45V122.45ZM11.35 123.5V136.55H24.4V146.9C11.6 146.6 1.25 136.25 1 123.5H11.35ZM25.5 136.55H38.55V123.5H48.9C48.6 136.3 38.25 146.65 25.5 146.9V136.55ZM38.55 122.45V109.4H25.5V99.05C38.3 99.35 48.65 109.7 48.9 122.45H38.55ZM1 99.05H17.8C9.75 101.45 3.4 107.8 1 115.85V99.05ZM1 146.95V130.15C3.4 138.2 9.75 144.55 17.8 146.95H1ZM32.1 146.95C40.15 144.55 46.5 138.2 48.9 130.15V146.95H32.1ZM32.1 99.05H48.9V115.85C46.5 107.8 40.15 101.45 32.1 99.05Z" fill="#DBDBDB"/>
<path d="M98 50H148V0H98V50ZM139.95 23.9L124.1 8.05H139.95V23.9ZM139.95 26.1V41.95H124.1L139.95 26.1ZM123 41.55L106.45 25L123 8.45L139.55 25L123 41.55ZM106.05 23.9V8.05H121.9L106.05 23.9ZM121.9 41.95H106.05V26.1L121.9 41.95ZM105.75 43H122.95L123 43.05L123.05 43H140.25L146.2 48.95H99.75L105.75 43ZM141 42.25V25.05L141.05 25L141 24.95V7.75L146.95 1.8V48.25L141 42.25ZM140.25 7H123.05L123 6.95L122.95 7H105.75L99.8 1.05H146.25L140.25 7ZM105 7.75V24.95L104.95 25L105 25.05V42.25L99.05 48.2V1.75L105 7.75Z" fill="#DBDBDB"/>
<path d="M49 49V99H99V49H49ZM50.05 50.05H73.35L50.1 73.3V50.05H50.05ZM50.05 97.95V74.7L73.3 97.95H50.05ZM73.5 96.65L50.85 74L73.5 51.35V96.65ZM74.55 50.05H82C78.65 51.25 75.95 53.8 74.55 57V50.05ZM97.95 97.95H74.5V67.1C76.45 71.65 80.95 74.8 86.2 74.8C91.45 74.8 95.95 71.6 97.9 67.1V97.95H97.95ZM86.25 73.8C79.8 73.8 74.55 68.55 74.55 62.1C74.55 55.65 79.8 50.4 86.25 50.4C92.7 50.4 97.95 55.65 97.95 62.1C97.95 68.55 92.7 73.8 86.25 73.8ZM97.95 57C96.55 53.75 93.85 51.25 90.5 50.05H97.95V57Z" fill="#DBDBDB"/>
<path d="M80.5703 91.9767H91.8378V80.6975H80.5703V91.9767ZM81.622 81.7502H90.7862V90.924H81.622V81.7502Z" fill="#DBDBDB"/>
<path d="M128.6 148L102.5 148L98 148L98 98L148 98L148 148L128.6 148ZM127.55 133.15C124.15 133.05 121 131.85 118.5 129.95L104.7 147L127.55 147L127.55 133.15ZM113.2 117.3C113.2 121.75 115.2 125.8 118.35 128.5L122.15 123.8C120.4 122.2 119.25 119.85 119.25 117.3C119.25 112.4 123.2 108.45 128.1 108.45C133 108.45 136.95 112.4 136.95 117.3C136.95 122 133.25 125.85 128.65 126.1L128.65 132.15C136.6 131.85 143 125.35 143 117.3C143 109.1 136.35 102.4 128.1 102.4C119.85 102.4 113.2 109.05 113.2 117.3ZM128.6 115.8L128.6 125.05C132.65 124.8 135.85 121.4 135.85 117.3C135.85 113 132.35 109.5 128.05 109.5C123.75 109.5 120.25 113 120.25 117.3C120.25 119.55 121.2 121.6 122.75 123L128.6 115.8ZM123.6 123.65C124.75 124.45 126.1 124.95 127.55 125.05L127.55 118.75L123.6 123.65ZM127.55 126.1C125.85 126 124.25 125.4 122.95 124.45L119.15 129.15C121.5 130.95 124.4 132 127.55 132.15L127.55 126.1ZM146.95 99.05L99.05 99.05L99.05 146.95L103.35 146.95L117.65 129.25C114.3 126.35 112.15 122.05 112.15 117.25C112.15 108.45 119.3 101.35 128.05 101.35C136.85 101.35 143.95 108.5 143.95 117.25C143.95 125.85 137.1 132.85 128.55 133.15L128.55 146.95L146.9 146.95L146.9 99.05L146.95 99.05Z" fill="#DBDBDB"/>
</svg>
