<svg width="623" height="46" viewBox="0 0 623 46" fill="none" xmlns="http://www.w3.org/2000/svg">
<path d="M446.117 0.440308V46H491.596V0.440308H446.117ZM447.072 2.94609L463.763 36.3869L447.072 44.7699V2.94609ZM448.619 45.0432L464.218 37.2525L468.129 45.0432H448.619ZM490.641 45.0432H469.129L465.036 36.7969L490.641 23.9947V45.0432ZM490.641 22.9468L464.627 35.9768L447.345 1.39706H490.641V22.9468Z" fill="#DBDBDB"/>
<path d="M484.639 6.22638H474.406V16.4773H484.639V6.22638ZM483.684 15.5205H475.361V7.18314H483.684V15.5205Z" fill="#DBDBDB"/>
<path d="M529.288 0.440308H528.333H524.013H523.058H519.192H518.237H514.28H513.325H490.586V23.2201V24.1769V28.1406V29.0973V32.9699V33.9267V38.2548V39.2116V46H497.362H498.317H502.638H503.593H507.459H508.414H512.37H513.325H536.065V23.2201V22.2634V18.2997V17.3429V13.4704V12.5136V8.18545V7.22871V0.440308H529.288ZM515.599 10.4179C514.872 10.2812 514.098 10.1901 513.325 10.1901C506.14 10.1901 500.318 16.0217 500.318 23.2201C500.318 23.9946 500.409 24.7692 500.546 25.4981C499.272 24.8603 497.908 24.3591 496.498 23.9947C496.498 23.7213 496.498 23.4935 496.498 23.2201C496.498 13.926 504.048 6.31751 513.371 6.31751C513.644 6.31751 513.871 6.31751 514.144 6.31751C514.462 7.77542 514.963 9.14221 515.599 10.4179ZM516.145 11.5113C518.192 15.2016 521.284 18.2997 524.968 20.3499C525.195 21.2611 525.332 22.2178 525.332 23.2201C525.332 29.8718 519.92 35.2934 513.28 35.2934C512.279 35.2934 511.324 35.1568 510.415 34.929C508.368 31.2386 505.276 28.1406 501.592 26.0904C501.364 25.1792 501.228 24.2224 501.228 23.2201C501.228 16.5684 506.64 11.1468 513.28 11.1468C514.28 11.1468 515.235 11.2835 516.145 11.5113ZM491.496 1.39706H506.776C499.454 3.58393 493.678 9.37001 491.496 16.7051V1.39706ZM491.496 23.2201C491.496 11.1924 501.273 1.39706 513.28 1.39706C513.28 1.39706 513.28 1.39706 513.325 1.39706C513.371 2.76385 513.553 4.08509 513.826 5.40632C513.644 5.40632 513.462 5.40632 513.28 5.40632C503.456 5.40632 495.452 13.4248 495.452 23.2657C495.452 23.4479 495.452 23.6302 495.452 23.8124C494.179 23.4935 492.86 23.3113 491.496 23.2201ZM491.496 45.0432V39.3027C494.452 39.7127 496.817 42.0818 497.226 45.0432H491.496ZM498.181 45.0432C497.726 41.5351 494.997 38.756 491.496 38.3459V33.9722C492.132 34.0178 492.814 34.1089 493.406 34.2911C493.86 34.3823 494.315 34.5645 494.77 34.7012C498.044 35.9313 500.637 38.5282 501.819 41.7629C502.001 42.2185 502.138 42.6741 502.229 43.1297C502.365 43.7675 502.501 44.4054 502.547 45.0432H498.181V45.0432ZM503.502 45.0432C503.456 44.5876 503.411 44.132 503.32 43.6764C503.229 43.2664 503.138 42.8564 503.047 42.4463C501.819 38.0726 498.408 34.6556 494.042 33.4255C493.633 33.3344 493.224 33.2433 492.814 33.1521C492.36 33.061 491.905 33.0155 491.45 32.9699V29.0973C491.723 29.0973 491.996 29.1429 492.269 29.1429C493.906 29.3251 495.452 29.7352 496.907 30.3274C497.362 30.5097 497.817 30.7375 498.272 30.9653C501.319 32.5599 503.82 35.0657 505.412 38.1181C505.639 38.5737 505.867 39.0293 506.049 39.4849C506.64 40.9428 507.049 42.4919 507.231 44.132C507.277 44.4054 507.277 44.6787 507.277 44.9521H503.502V45.0432ZM508.323 45.0432C508.323 44.861 508.323 44.6332 508.277 44.4509C508.141 42.9019 507.822 41.444 507.322 40.0317C507.186 39.6216 507.004 39.2116 506.822 38.8471C505.048 34.7467 501.728 31.4664 497.681 29.6896C497.271 29.5074 496.908 29.3707 496.498 29.1885C495.088 28.6873 493.633 28.3684 492.087 28.2317C491.905 28.2317 491.677 28.1861 491.496 28.1861V24.1769C491.496 24.1769 491.496 24.1769 491.541 24.1769C492.905 24.2224 494.27 24.4503 495.543 24.7236C495.861 24.8147 496.18 24.9059 496.498 24.997C497.999 25.407 499.409 25.9993 500.728 26.7282C501.137 26.956 501.546 27.1838 501.956 27.4572C504.821 29.234 507.231 31.6487 509.005 34.5189C509.232 34.929 509.505 35.339 509.733 35.749C510.46 37.0703 511.006 38.5282 511.461 39.9861C511.552 40.305 511.643 40.6239 511.734 40.9429C512.052 42.2641 512.234 43.5853 512.279 44.9521C512.279 44.9521 512.279 44.9521 512.279 44.9977H508.323V45.0432ZM511.006 36.0224C511.734 36.1591 512.507 36.2502 513.28 36.2502C520.465 36.2502 526.287 30.4186 526.287 23.2201C526.287 22.4456 526.196 21.6711 526.059 20.9422C527.333 21.58 528.697 22.0812 530.107 22.4456C530.107 22.719 530.107 22.9468 530.107 23.2201C530.107 32.5143 522.558 40.1228 513.234 40.1228C512.962 40.1228 512.734 40.1228 512.461 40.1228C512.143 38.6649 511.643 37.3436 511.006 36.0224ZM535.064 45.0432H519.783C527.105 42.8564 532.881 37.0703 535.064 29.7352V45.0432ZM513.28 45.0432C513.189 43.6764 513.007 42.3552 512.734 41.034C512.916 41.034 513.098 41.034 513.28 41.034C523.103 41.034 531.108 33.0155 531.108 23.1746C531.108 22.9923 531.108 22.8101 531.108 22.6279C532.381 22.9012 533.745 23.0835 535.11 23.129C535.11 23.129 535.11 23.129 535.11 23.1746C535.064 35.2479 525.286 45.0432 513.28 45.0432ZM535.064 22.2634C533.654 22.2178 532.335 21.99 531.017 21.7167C530.698 21.6256 530.38 21.5344 530.062 21.4433C528.561 21.0333 527.151 20.441 525.832 19.712C525.423 19.4843 525.013 19.2565 524.604 18.9831C521.739 17.2063 519.329 14.7916 517.555 11.9213C517.327 11.5113 517.055 11.1013 516.827 10.6912C516.1 9.37 515.554 7.9121 515.099 6.45419C515.008 6.13527 514.917 5.81635 514.826 5.49743C514.508 4.1762 514.326 2.85498 514.28 1.48819C514.28 1.48819 514.28 1.48819 514.28 1.44263H518.283C518.283 1.62486 518.283 1.85266 518.328 2.0349C518.464 3.58392 518.783 5.04184 519.283 6.45419C519.419 6.86422 519.601 7.27426 519.783 7.63874C521.557 11.7391 524.877 15.0194 528.925 16.7962C529.334 16.9785 529.698 17.1151 530.107 17.2974C531.517 17.7985 532.972 18.1175 534.518 18.2541C534.7 18.2541 534.928 18.2997 535.11 18.2997V22.2634H535.064ZM535.064 17.2974C534.791 17.2974 534.518 17.2518 534.246 17.2518C532.608 17.0696 531.062 16.6596 529.607 16.0673C529.152 15.885 528.697 15.6572 528.242 15.4294C525.195 13.8349 522.694 11.3291 521.102 8.27657C520.875 7.82098 520.647 7.36538 520.465 6.90978C519.874 5.45188 519.465 3.90284 519.283 2.26269C519.238 1.98934 519.238 1.71598 519.238 1.44263H523.103C523.149 1.89822 523.194 2.35382 523.285 2.80942C523.376 3.21945 523.467 3.62949 523.558 4.03953C524.786 8.41326 528.197 11.8302 532.563 13.0603C532.972 13.1515 533.381 13.2426 533.791 13.3337C534.246 13.4248 534.7 13.4704 535.155 13.5159V17.2974H535.064ZM535.064 12.4681C534.427 12.4225 533.791 12.3314 533.154 12.1491C532.699 12.058 532.245 11.8758 531.79 11.7391C528.515 10.509 525.923 7.9121 524.741 4.67736C524.559 4.22177 524.422 3.76617 524.331 3.31057C524.195 2.67274 524.058 2.0349 524.013 1.39706H528.379C528.788 4.90516 531.562 7.6843 535.064 8.09434V12.4681ZM535.064 7.13758C532.108 6.72755 529.743 4.35844 529.334 1.39706H535.064V7.13758Z" fill="#DBDBDB"/>
<path d="M505.594 23.2201C505.594 27.4572 509.05 30.9197 513.28 30.9197C517.509 30.9197 520.966 27.4572 520.966 23.2201C520.966 18.9831 517.509 15.5206 513.28 15.5206C509.05 15.5206 505.594 18.9831 505.594 23.2201ZM520.056 23.2201C520.056 26.956 517.009 30.0085 513.28 30.0085C509.55 30.0085 506.503 26.956 506.503 23.2201C506.503 19.4843 509.55 16.4318 513.28 16.4318C517.009 16.4773 520.056 19.4843 520.056 23.2201Z" fill="#DBDBDB"/>
<path d="M535.055 0.440308V46H580.533V0.440308H535.055ZM553.474 18.9375C553.746 18.9375 554.019 18.892 554.338 18.892C556.612 18.892 558.749 19.4843 560.614 20.5321C559.204 23.1746 556.93 25.3159 554.201 26.5004C553.565 24.997 553.246 23.3113 553.246 21.58C553.246 20.6688 553.337 19.7576 553.474 18.9375ZM553.292 26.8194C551.973 27.2749 550.563 27.5483 549.062 27.5483C546.788 27.5483 544.651 26.956 542.786 25.9082C544.696 22.2634 548.289 19.6209 552.519 19.0287C552.382 19.8487 552.291 20.7144 552.291 21.58C552.291 23.4024 552.655 25.1792 553.292 26.8194ZM549.062 28.4595C550.699 28.4595 552.246 28.1861 553.701 27.6394C555.975 32.3321 560.75 35.5668 566.299 35.5668C566.481 35.5668 566.708 35.5668 566.89 35.5212C565.344 40.9884 560.295 44.9977 554.338 44.9977C547.152 44.9977 541.285 39.1205 541.285 31.922C541.285 30.0541 541.695 28.3228 542.377 26.7282C544.378 27.8672 546.652 28.4595 549.062 28.4595ZM566.299 34.6556C561.16 34.6556 556.748 31.6487 554.611 27.3661C557.567 26.0904 559.977 23.858 561.478 21.0333C565.071 23.3568 567.436 27.4116 567.436 32.0132C567.436 32.9244 567.345 33.79 567.163 34.6556C566.844 34.6101 566.572 34.6556 566.299 34.6556ZM561.842 20.1221C562.615 18.3908 563.07 16.4773 563.07 14.4271C563.07 12.5592 562.706 10.8279 562.069 9.18776C563.388 8.73216 564.843 8.45881 566.299 8.45881C573.484 8.45881 579.351 14.336 579.351 21.5344C579.351 28.1406 574.439 33.5622 568.118 34.4734C568.254 33.6533 568.345 32.7877 568.345 31.922C568.345 27.0016 565.753 22.6279 561.842 20.1221ZM562.115 14.4271C562.115 16.2495 561.705 18.0263 561.023 19.6209C559.022 18.5275 556.748 17.8897 554.338 17.8897C554.156 17.8897 553.928 17.8897 553.746 17.9352C554.838 14.1538 557.567 11.0557 561.16 9.50668C561.751 11.0557 562.115 12.6959 562.115 14.4271ZM552.746 18.0263C548.062 18.5731 544.105 21.3978 541.967 25.407C538.375 23.0835 536.01 19.0287 536.01 14.4727C536.01 7.27427 541.877 1.39706 549.062 1.39706C554.201 1.39706 558.613 4.404 560.75 8.68661C556.839 10.3723 553.837 13.8349 552.746 18.0263ZM544.014 1.39706C540.33 2.80941 537.42 5.72522 536.01 9.41555V1.39706H544.014V1.39706ZM536.01 45.0432V19.4843C537.101 22.309 539.057 24.678 541.558 26.2726C540.785 28.0039 540.33 29.9174 540.33 31.9676C540.33 37.9359 544.059 42.993 549.29 45.0432H536.01ZM559.386 45.0432C563.57 43.4486 566.753 39.895 567.89 35.5212C573.393 34.8834 577.941 31.0564 579.624 25.9082V45.0432H559.386ZM579.578 1.39706V17.2518C577.759 11.648 572.484 7.54762 566.253 7.54762C564.616 7.54762 563.07 7.82097 561.614 8.36769C560.068 5.17851 557.385 2.67273 554.065 1.39706H579.578Z" fill="#DBDBDB"/>
<path d="M624.998 28.3228V4.54068V0.440308H579.52V46H624.998V28.3228ZM611.491 27.3661C611.4 24.268 610.309 21.3977 608.58 19.1198L624.089 6.5453V27.3661H611.491ZM597.074 14.2904C601.122 14.2904 604.806 16.1128 607.262 18.9831L602.987 22.4456C601.531 20.851 599.394 19.8032 597.074 19.8032C592.617 19.8032 589.025 23.4024 589.025 27.8672C589.025 32.3321 592.617 35.9313 597.074 35.9313C601.349 35.9313 604.851 32.5599 605.079 28.3684H610.582C610.309 35.6124 604.396 41.444 597.074 41.444C589.616 41.444 583.522 35.3846 583.522 27.8672C583.522 20.3499 589.57 14.2904 597.074 14.2904ZM595.71 28.3228H604.124C603.896 32.0132 600.804 34.929 597.074 34.929C593.163 34.929 589.98 31.7398 589.98 27.8217C589.98 23.9035 593.163 20.7144 597.074 20.7144C599.121 20.7144 600.986 21.58 602.259 22.9923L595.71 28.3228ZM602.85 23.7669C603.578 24.8147 604.033 26.0448 604.124 27.3661H598.393L602.85 23.7669ZM605.079 27.3661C604.988 25.817 604.442 24.3591 603.578 23.1746L607.853 19.712C609.49 21.8534 610.445 24.4958 610.582 27.3661H605.079ZM580.475 45.0432V1.39706H624.043V5.3152L607.944 18.3453C605.306 15.2928 601.395 13.3337 597.029 13.3337C589.025 13.3337 582.567 19.8487 582.567 27.8217C582.567 35.8402 589.07 42.3096 597.029 42.3096C604.851 42.3096 611.218 36.068 611.491 28.2773H624.043V44.9977H580.475V45.0432Z" fill="#DBDBDB"/>
<path d="M46.2874 46V0.440308H0.808594V46H46.2874ZM40.8299 2.44494C39.1927 5.0874 36.1456 10.0534 36.1456 15.7939C36.1456 18.2997 37.601 20.9422 38.9653 23.4479C40.2842 25.8626 41.694 28.3684 41.694 30.6464C41.694 34.7012 40.3297 36.3869 38.9198 38.2093C37.601 39.8494 36.2821 41.5807 36.1911 45.0432H32.4618C32.5528 41.854 33.3259 40.305 34.19 38.7104C35.1451 36.888 36.1456 34.9745 36.1456 30.6464C36.1456 28.1861 35.1906 25.5892 34.281 23.0835C33.3714 20.6232 32.4618 18.1175 32.4618 15.7939C32.4618 10.2356 34.4629 5.40632 35.5089 2.80942C35.7818 2.12602 35.9637 1.67042 36.0547 1.39706H41.5121C41.2847 1.67042 41.0573 2.03491 40.8299 2.44494ZM34.6448 2.49049C33.5533 5.13295 31.5523 10.0534 31.5523 15.7939C31.5523 18.2541 32.5073 20.851 33.4169 23.4024C34.3265 25.8626 35.2361 28.3684 35.2361 30.6919C35.2361 34.7923 34.281 36.5691 33.3714 38.3459C32.5073 39.9861 31.6432 41.6718 31.5523 45.0888H27.7775C27.823 41.854 28.2323 40.305 28.6416 38.6649C29.0964 36.8425 29.5967 34.9745 29.5967 30.6919C29.5967 28.2773 29.1419 25.6804 28.6871 23.1746C28.2323 20.7144 27.7775 18.163 27.7775 15.7939C27.7775 10.1901 28.7781 5.36075 29.3238 2.76385C29.4602 2.12602 29.5512 1.71598 29.5967 1.39706H35.0996C34.9632 1.71598 34.7813 2.08046 34.6448 2.49049ZM28.4142 2.58162C27.8685 5.22408 26.868 10.099 26.868 15.7939C26.868 18.2086 27.3227 20.8055 27.7775 23.3113C28.2323 25.7715 28.6871 28.3228 28.6871 30.6464C28.6871 34.7923 28.1868 36.6147 27.7321 38.3915C27.3227 40.0317 26.868 41.7174 26.8225 45.0432H23.9118V1.39706H28.6416C28.5961 1.71598 28.5052 2.12602 28.4142 2.58162ZM23.0932 45.0432H20.228C20.1826 41.6718 19.7733 39.9861 19.3185 38.3915C18.8637 36.6147 18.3634 34.7923 18.3634 30.6464C18.3634 28.2773 18.8182 25.7715 19.273 23.3113C19.7278 20.8055 20.1826 18.2086 20.1826 15.7939C20.1826 10.099 19.182 5.22408 18.6363 2.58162C18.5453 2.12602 18.4544 1.71598 18.4089 1.39706H23.0477V45.0432H23.0932ZM17.8177 2.76385C18.3634 5.36075 19.364 10.1901 19.364 15.7939C19.364 18.163 18.9092 20.7144 18.4544 23.1746C17.9996 25.6804 17.5448 28.2317 17.5448 30.6919C17.5448 34.929 18.0451 36.8425 18.4999 38.6649C18.9092 40.305 19.3185 41.854 19.364 45.0888H15.5892C15.4982 41.6718 14.6341 39.9861 13.7701 38.3459C12.8605 36.6147 11.9054 34.7923 11.9054 30.6919C11.9054 28.3684 12.815 25.8626 13.7246 23.4024C14.6342 20.8966 15.5892 18.2997 15.5892 15.7939C15.5892 10.0534 13.5881 5.13295 12.4967 2.49049C12.3147 2.08046 12.1783 1.71598 12.0419 1.39706H17.5448C17.5903 1.71598 17.6812 2.12602 17.8177 2.76385ZM11.6326 2.80942C12.6786 5.40632 14.6796 10.2356 14.6796 15.7939C14.6796 18.1175 13.7701 20.6232 12.8605 23.0835C11.9509 25.5892 10.9959 28.1861 10.9959 30.6464C10.9959 34.9745 11.9964 36.8425 12.9514 38.7104C13.8155 40.305 14.5887 41.854 14.6796 45.0432H10.9049C10.7685 41.5807 9.44957 39.895 8.17617 38.2093C6.76632 36.3869 5.40196 34.7012 5.40196 30.6464C5.40196 28.3684 6.76632 25.8626 8.13068 23.4479C9.54053 20.8966 10.9504 18.2997 10.9504 15.7939C10.9504 10.0078 7.90329 5.0874 6.26605 2.44494C6.03866 2.08047 5.81126 1.71598 5.62935 1.44263H11.0868C11.1778 1.71598 11.3597 2.12602 11.6326 2.80942ZM45.3324 45.0432H37.0552C37.1462 41.8996 38.3286 40.3961 39.602 38.756C41.0573 36.888 42.5581 34.9745 42.5581 30.6464C42.5581 28.1406 41.1028 25.5437 39.7385 22.9923C38.4196 20.5777 37.0097 18.0263 37.0097 15.7484C37.0097 10.2356 39.9658 5.45188 41.5576 2.85498C42.0124 2.12602 42.2853 1.67042 42.4217 1.3515H45.2869V45.0432H45.3324ZM1.76365 1.39706H4.62882C4.76526 1.71598 5.03813 2.17159 5.49292 2.90054C7.08468 5.49744 10.0408 10.2812 10.0408 15.7939C10.0408 18.0719 8.67643 20.5777 7.31207 23.0379C5.94771 25.5437 4.49238 28.1861 4.49238 30.6919C4.49238 35.0201 5.99318 36.9792 7.4485 38.8015C8.72191 40.3961 9.90436 41.9452 9.99532 45.0888H1.71817V1.39706H1.76365Z" fill="#DBDBDB"/>
<path d="M45.2773 0.440308V46H90.7561V0.440308H45.2773ZM89.1189 1.39706L83.7069 6.81866H52.3266L46.9146 1.39706H89.1189ZM83.4341 7.77541V38.6649H52.5994V7.77541H83.4341ZM46.2324 2.08046L51.6444 7.50205V38.9838L46.2324 44.4054V2.08046ZM46.9146 45.0432L52.3266 39.6216H83.7524L89.1644 45.0432H46.9146ZM89.8011 44.3598L84.3891 38.9382V7.4565L89.8011 2.0349V44.3598Z" fill="#DBDBDB"/>
<path d="M68.0153 35.339C74.7007 35.339 80.1127 29.9174 80.1127 23.2201C80.1127 16.5229 74.7007 11.1013 68.0153 11.1013C61.3299 11.1013 55.918 16.5229 55.918 23.2201C55.918 29.8718 61.3299 35.339 68.0153 35.339ZM68.0153 12.058C74.155 12.058 79.1576 17.0696 79.1576 23.2201C79.1576 29.3707 74.155 34.3822 68.0153 34.3822C61.8757 34.3822 56.873 29.3707 56.873 23.2201C56.873 17.0696 61.8757 12.058 68.0153 12.058Z" fill="#DBDBDB"/>
<path d="M89.7461 0.440308V46H135.225V0.440308H89.7461ZM90.7011 1.39706H105.982C98.6599 3.58393 92.8841 9.36999 90.7011 16.7051V1.39706ZM90.7011 45.0432V29.7352C92.8841 37.0703 98.6599 42.8564 105.982 45.0432H90.7011ZM95.0671 27.5483C95.0671 17.9352 102.889 10.0989 112.485 10.0989C122.082 10.0989 129.904 17.9352 129.904 27.5483C129.904 34.0633 126.357 39.7128 121.081 42.7197C123.855 40.305 125.629 36.7513 125.629 32.7877C125.629 25.5437 119.762 19.6209 112.485 19.6209C105.254 19.6209 99.3421 25.4981 99.3421 32.7877C99.3421 36.7513 101.116 40.305 103.89 42.7197C98.6145 39.7583 95.0671 34.0633 95.0671 27.5483ZM113.122 44.9977C112.895 44.9977 112.713 45.0432 112.485 45.0432C112.258 45.0432 112.076 45.0432 111.849 44.9977C108.756 44.6788 106.346 42.0818 106.346 38.8927C106.346 35.5212 109.075 32.7421 112.485 32.7421C115.851 32.7421 118.625 35.4757 118.625 38.8927C118.625 42.0818 116.169 44.6788 113.122 44.9977ZM119.535 38.8927C119.535 34.9745 116.351 31.8309 112.485 31.8309C108.62 31.8309 105.436 35.0201 105.436 38.8927C105.436 40.8973 106.255 42.6741 107.574 43.9954C103.299 42.0818 100.297 37.7992 100.297 32.8332C100.297 26.0904 105.755 20.6232 112.485 20.6232C119.216 20.6232 124.674 26.0904 124.674 32.8332C124.674 37.7992 121.672 42.0818 117.397 43.9954C118.716 42.6741 119.535 40.8973 119.535 38.8927ZM134.27 45.0432H118.989C126.311 42.8564 132.087 37.0703 134.27 29.7352V45.0432V45.0432ZM124.947 41.0795C128.585 37.7081 130.859 32.8788 130.859 27.5483C130.859 17.3885 122.627 9.14221 112.485 9.14221C102.344 9.14221 94.1121 17.3885 94.1121 27.5483C94.1121 32.8788 96.386 37.7081 100.024 41.0795C94.3849 37.1158 90.7011 30.6008 90.7011 23.1746C90.7011 11.1468 100.479 1.3515 112.485 1.3515C124.492 1.3515 134.27 11.1468 134.27 23.1746C134.27 30.6008 130.586 37.1614 124.947 41.0795ZM134.27 16.7051C132.087 9.36999 126.311 3.58393 118.989 1.39706H134.27V16.7051V16.7051Z" fill="#DBDBDB"/>
<path d="M134.215 0.440308V46H179.694V0.440308H134.215ZM156.954 19.9399C155.59 15.2928 151.36 11.8302 146.312 11.6024C146.54 5.90745 151.224 1.39706 156.954 1.39706C162.685 1.39706 167.369 5.95301 167.596 11.6024C162.548 11.8302 158.319 15.2472 156.954 19.9399ZM167.596 12.5592C167.323 18.0263 162.957 22.4456 157.455 22.719C157.727 17.2063 162.093 12.787 167.596 12.5592ZM167.596 33.8356C162.139 33.5622 157.727 29.1884 157.455 23.6757C162.957 23.9491 167.323 28.3684 167.596 33.8356ZM156.454 22.719C150.997 22.4456 146.585 18.0719 146.312 12.5592C151.815 12.787 156.181 17.2063 156.454 22.719ZM135.17 1.39706H152.361C148.359 3.12833 145.539 7.04645 145.357 11.6024C140.764 11.7847 136.898 14.6094 135.17 18.6186V1.39706V1.39706ZM145.357 12.5592C145.585 17.6163 148.995 21.8533 153.68 23.2201C149.041 24.5869 145.585 28.824 145.357 33.8811C139.672 33.6533 135.17 28.9606 135.17 23.2201C135.17 17.4796 139.718 12.787 145.357 12.5592ZM156.454 23.7213C156.181 29.1885 151.815 33.6077 146.312 33.8811C146.585 28.3684 150.997 23.9491 156.454 23.7213ZM135.17 45.0432V27.8217C136.898 31.8309 140.809 34.6556 145.357 34.8378C145.539 39.4394 148.359 43.312 152.361 45.0432H135.17ZM146.312 34.7923C151.36 34.5645 155.59 31.1475 156.954 26.4549C158.319 31.102 162.548 34.5645 167.596 34.7923C167.369 40.4873 162.685 44.9977 156.954 44.9977C151.224 45.0432 146.585 40.4873 146.312 34.7923ZM178.739 45.0432H161.548C165.55 43.312 168.369 39.3938 168.551 34.8378C173.145 34.6556 177.01 31.8309 178.739 27.8217V45.0432V45.0432ZM168.551 33.8356C168.324 28.7784 164.913 24.5414 160.229 23.1746C164.868 21.8078 168.324 17.5707 168.551 12.5136C174.236 12.7414 178.739 17.4341 178.739 23.1746C178.739 28.9151 174.191 33.6078 168.551 33.8356ZM178.739 18.6186C177.01 14.6094 173.099 11.7847 168.551 11.6024C168.369 7.00089 165.55 3.12833 161.548 1.39706H178.739V18.6186V18.6186Z" fill="#DBDBDB"/>
<path d="M402.536 0.440308H356.977V46H402.536V0.440308ZM387.729 38.6649C383.583 38.6649 380.258 35.2934 380.258 31.1931C380.258 27.0471 383.629 23.7213 387.729 23.7213C391.875 23.7213 395.201 27.0927 395.201 31.1931C395.247 35.2934 391.875 38.6649 387.729 38.6649ZM395.247 35.0656V38.6649H391.647C393.151 37.8448 394.427 36.6147 395.247 35.0656ZM387.729 22.719C383.082 22.719 379.301 26.5004 379.301 31.1475C379.301 34.3823 381.169 37.2069 383.857 38.6193H364.312V23.6302H380.258V7.6843H395.247V27.2294C393.834 24.5869 391.01 22.719 387.729 22.719ZM364.312 22.719V7.72985H379.301V22.719H364.312ZM395.52 6.81866H380.258H364.038L358.617 1.39706H400.942L395.52 6.81866ZM363.355 7.50205V23.7213V38.9838L357.933 44.4054V2.08046L363.355 7.50205ZM364.038 39.6216H395.52L400.942 45.0432H358.617L364.038 39.6216ZM396.203 38.9382V7.4565L401.625 2.0349V44.3598L396.203 38.9382Z" fill="#DBDBDB"/>
<path d="M185.758 16.0673H178.703V30.3274H185.758H192.813V16.0673H185.758C185.803 16.0673 185.803 16.0673 185.758 16.0673ZM179.704 17.024H182.299C181.206 17.6618 180.342 18.573 179.704 19.6209V17.024ZM179.704 29.3707V26.7738C180.342 27.8672 181.206 28.7784 182.299 29.3707H179.704ZM191.857 29.3707H189.308C190.4 28.7328 191.265 27.8216 191.902 26.7738V29.3707H191.857ZM185.803 29.3707C182.435 29.3707 179.704 26.5915 179.704 23.2201C179.704 19.8031 182.435 17.0696 185.803 17.0696C189.171 17.0696 191.902 19.8487 191.902 23.2201C191.857 26.5915 189.126 29.3707 185.803 29.3707ZM191.857 17.024V19.6209C191.22 18.5275 190.355 17.6163 189.262 17.024H191.857Z" fill="#DBDBDB"/>
<path d="M201.504 16.0673H194.449V30.3274H201.504H208.559V16.0673H201.504ZM195.405 17.024H197.999C196.907 17.6618 196.042 18.573 195.405 19.6209V17.024ZM195.405 29.3707V26.7738C196.042 27.8672 196.907 28.7784 197.999 29.3707H195.405ZM207.603 29.3707H205.009C206.101 28.7328 206.966 27.8216 207.603 26.7738V29.3707ZM201.504 29.3707C198.136 29.3707 195.405 26.5915 195.405 23.2201C195.405 19.8031 198.136 17.0696 201.504 17.0696C204.872 17.0696 207.603 19.8487 207.603 23.2201C207.603 26.5915 204.872 29.3707 201.504 29.3707ZM207.603 17.024V19.6209C206.966 18.5275 206.101 17.6163 205.009 17.024H207.603Z" fill="#DBDBDB"/>
<path d="M217.207 16.0673H210.152V30.3274H217.207H224.262V16.0673H217.207ZM211.108 17.024H213.702C212.61 17.6618 211.745 18.573 211.108 19.6209V17.024ZM211.108 29.3707V26.7738C211.745 27.8672 212.61 28.7784 213.702 29.3707H211.108ZM223.306 29.3707H220.712C221.804 28.7328 222.669 27.8216 223.306 26.7738V29.3707ZM217.207 29.3707C213.839 29.3707 211.108 26.5915 211.108 23.2201C211.108 19.8031 213.839 17.0696 217.207 17.0696C220.575 17.0696 223.306 19.8487 223.306 23.2201C223.306 26.5915 220.575 29.3707 217.207 29.3707ZM223.306 17.024V19.6209C222.669 18.5275 221.804 17.6163 220.712 17.024H223.306Z" fill="#DBDBDB"/>
<path d="M178.746 14.6549H192.81V0.440308H178.746V14.6549ZM191.854 13.6982H189.305C190.398 13.0603 191.263 12.1491 191.9 11.1013V13.6982H191.854ZM191.854 1.39706V3.99396C191.217 2.90053 190.352 1.98934 189.26 1.39706H191.854ZM179.702 1.39706H182.296C181.204 2.03489 180.339 2.94609 179.702 3.99396V1.39706ZM185.755 1.39706C189.123 1.39706 191.854 4.1762 191.854 7.54761C191.854 10.9646 189.123 13.6982 185.755 13.6982C182.387 13.6982 179.656 10.919 179.656 7.54761C179.702 4.13064 182.433 1.39706 185.755 1.39706ZM179.702 11.1013C180.339 12.1947 181.204 13.1059 182.296 13.6982H179.702V11.1013Z" fill="#DBDBDB"/>
<path d="M194.449 14.6549H208.513V0.440308H194.449V14.6549ZM207.603 13.6982H205.009C206.101 13.0603 206.966 12.1491 207.603 11.1013V13.6982ZM207.603 1.39706V3.99396C206.966 2.90053 206.101 1.98934 205.009 1.39706H207.603ZM195.405 1.39706H197.999C196.907 2.03489 196.042 2.94609 195.405 3.99396V1.39706ZM201.504 1.39706C204.872 1.39706 207.603 4.1762 207.603 7.54761C207.603 10.9646 204.872 13.6982 201.504 13.6982C198.136 13.6982 195.405 10.919 195.405 7.54761C195.405 4.13064 198.136 1.39706 201.504 1.39706ZM195.405 11.1013C196.042 12.1947 196.907 13.1059 197.999 13.6982H195.405V11.1013Z" fill="#DBDBDB"/>
<path d="M210.152 0.440308V14.7005H224.216V0.440308H210.152ZM211.108 1.39706H213.702C212.61 2.0349 211.745 2.94609 211.108 3.99396V1.39706ZM211.108 13.6982V11.1013C211.745 12.1947 212.61 13.1059 213.702 13.6982H211.108ZM223.306 13.6982H220.712C221.804 13.0603 222.669 12.1491 223.306 11.1013V13.6982ZM217.207 13.6982C213.839 13.6982 211.108 10.919 211.108 7.54761C211.108 4.13064 213.839 1.39706 217.207 1.39706C220.575 1.39706 223.306 4.1762 223.306 7.54761C223.306 10.919 220.575 13.6982 217.207 13.6982ZM223.306 3.99396C222.669 2.90053 221.804 1.98934 220.712 1.39706H223.306V3.99396Z" fill="#DBDBDB"/>
<path d="M178.746 45.9999H192.81V31.7398H178.746V45.9999ZM191.854 45.0432H189.305C190.398 44.4054 191.263 43.4942 191.9 42.4463V45.0432H191.854ZM191.854 32.6965V35.2934C191.217 34.2 190.352 33.2888 189.26 32.6965H191.854ZM179.702 32.6965H182.296C181.204 33.3344 180.339 34.2456 179.702 35.2934V32.6965ZM185.755 32.6965C189.123 32.6965 191.854 35.4757 191.854 38.8471C191.854 42.2641 189.123 44.9976 185.755 44.9976C182.387 44.9976 179.656 42.2185 179.656 38.8471C179.702 35.4757 182.433 32.6965 185.755 32.6965ZM179.702 42.4007C180.339 43.4942 181.204 44.4054 182.296 44.9976H179.702V42.4007Z" fill="#DBDBDB"/>
<path d="M194.449 45.9999H208.513V31.7398H194.449V45.9999ZM207.603 45.0432H205.009C206.101 44.4054 206.966 43.4942 207.603 42.4463V45.0432ZM207.603 32.6965V35.2934C206.966 34.2 206.101 33.2888 205.009 32.6965H207.603ZM195.405 32.6965H197.999C196.907 33.3344 196.042 34.2456 195.405 35.2934V32.6965ZM201.504 32.6965C204.872 32.6965 207.603 35.4757 207.603 38.8471C207.603 42.2641 204.872 44.9976 201.504 44.9976C198.136 44.9976 195.405 42.2185 195.405 38.8471C195.405 35.4757 198.136 32.6965 201.504 32.6965ZM195.405 42.4007C196.042 43.4942 196.907 44.4054 197.999 44.9976H195.405V42.4007Z" fill="#DBDBDB"/>
<path d="M210.152 45.9999H224.216V31.7398H210.152V45.9999ZM223.306 45.0432H220.712C221.804 44.4054 222.669 43.4942 223.306 42.4463V45.0432ZM223.306 32.6965V35.2934C222.669 34.2 221.804 33.2888 220.712 32.6965H223.306ZM211.108 32.6965H213.702C212.61 33.3344 211.745 34.2456 211.108 35.2934V32.6965ZM217.207 32.6965C220.575 32.6965 223.306 35.4757 223.306 38.8471C223.306 42.2641 220.575 44.9976 217.207 44.9976C213.839 44.9976 211.108 42.2185 211.108 38.8471C211.108 35.4757 213.839 32.6965 217.207 32.6965ZM211.108 42.4007C211.745 43.4942 212.61 44.4054 213.702 44.9976H211.108V42.4007Z" fill="#DBDBDB"/>
<path d="M251.152 46L227.37 46L223.27 46L223.27 0.440308L268.829 0.44031L268.829 46L251.152 46ZM250.195 32.4687C247.097 32.3776 244.227 31.2842 241.949 29.5529L229.375 45.0888L250.195 45.0888L250.195 32.4687ZM237.12 18.0263C237.12 22.0811 238.942 25.7715 241.812 28.2317L245.275 23.9491C243.68 22.4912 242.632 20.3499 242.632 18.0263C242.632 13.5615 246.232 9.96227 250.696 9.96227C255.161 9.96227 258.761 13.5615 258.761 18.0263C258.761 22.3089 255.389 25.817 251.198 26.0448L251.198 31.5575C258.442 31.2842 264.273 25.3614 264.273 18.0263C264.273 10.5546 258.214 4.44955 250.696 4.44955C243.179 4.44955 237.12 10.509 237.12 18.0263ZM251.152 16.6595L251.152 25.0881C254.842 24.8603 257.758 21.7622 257.758 18.0263C257.758 14.1082 254.569 10.919 250.651 10.919C246.733 10.919 243.544 14.1082 243.544 18.0263C243.544 20.0765 244.409 21.9445 245.822 23.2201L251.152 16.6595ZM246.596 23.8124C247.644 24.5414 248.874 24.997 250.195 25.0881L250.195 19.3476L246.596 23.8124ZM250.195 26.0448C248.646 25.9537 247.188 25.407 246.004 24.5414L242.541 28.824C244.683 30.4641 247.325 31.4209 250.195 31.5575L250.195 26.0448ZM267.872 1.39707L224.226 1.39706L224.226 45.0432L228.144 45.0432L241.174 28.9151C238.122 26.2726 236.163 22.3545 236.163 17.9808C236.163 9.96227 242.678 3.49281 250.651 3.49281C258.669 3.49281 265.139 10.0078 265.139 17.9808C265.139 25.817 258.897 32.1954 251.106 32.4687L251.106 45.0432L267.827 45.0432L267.827 1.39707L267.872 1.39707Z" fill="#DBDBDB"/>
<path d="M313.399 0.440308H267.84V46H313.399V0.440308ZM306.884 33.1977C305.654 35.2023 304.06 36.9792 302.192 38.3915V8.04878C304.06 9.46112 305.654 11.2379 306.884 13.2426V33.1977ZM307.796 14.8827C309.026 17.3885 309.709 20.2132 309.709 23.2201C309.709 26.2271 309.026 29.0518 307.796 31.5576V14.8827ZM296.634 5.0874C298.319 5.63411 299.868 6.40863 301.326 7.41094V39.0293C299.914 39.9861 298.319 40.8062 296.634 41.3529V5.0874ZM295.768 41.6262C294.128 42.0818 292.396 42.3096 290.62 42.3096C280.095 42.3096 271.53 33.7444 271.53 23.2201C271.53 12.6959 280.095 4.13064 290.62 4.13064C292.396 4.13064 294.128 4.35844 295.768 4.81404V41.6262ZM296.634 4.08508V1.39706H301.326V6.27195C299.868 5.36076 298.319 4.6318 296.634 4.08508ZM301.326 40.1683V45.0432H296.634V42.3552C298.319 41.8085 299.868 41.0795 301.326 40.1683ZM302.237 39.5761C304.06 38.3004 305.609 36.7058 306.93 34.929V45.0888H302.237V39.5761ZM302.237 6.90978V1.44263H306.93V11.6024C305.609 9.73448 304.014 8.18545 302.237 6.90978ZM268.797 1.39706H295.768V3.85728C294.128 3.40169 292.396 3.17389 290.62 3.17389C279.549 3.17389 270.573 12.1491 270.573 23.2201C270.573 34.2911 279.549 43.2664 290.62 43.2664C292.396 43.2664 294.128 43.0386 295.768 42.583V45.0432H268.797V1.39706V1.39706ZM312.443 45.0432H307.796V33.5622C309.618 30.5552 310.666 27.0016 310.666 23.2201C310.666 19.4387 309.618 15.885 307.796 12.8781V1.39706H312.443V45.0432Z" fill="#DBDBDB"/>
<path d="M357.97 0.440308H312.41V46H357.97V0.440308ZM335.281 22.4456L324.757 12.0125L335.19 1.5793L345.669 12.058L335.281 22.4456ZM334.415 23.129L323.982 33.6533L313.549 23.2201L324.028 12.7414L334.415 23.129ZM335.099 23.9491L345.623 34.3822L335.19 44.8154L324.711 34.3367L335.099 23.9491ZM335.964 23.3113L346.398 12.787L356.831 23.2201L346.352 33.6989L335.964 23.3113ZM347.035 12.1036L357.013 2.08046V22.0811L347.035 12.1036ZM356.33 1.39706L346.307 11.4202L336.283 1.39706H356.33V1.39706ZM324.073 11.3291L314.05 1.3515H334.051L324.073 11.3291ZM313.367 2.03489L323.39 12.058L313.367 22.0811V2.03489ZM323.299 34.2911L313.321 44.3143V24.3591L323.299 34.2911ZM314.05 45.0432L324.073 35.0201L334.097 45.0432H314.05ZM346.307 35.0656L356.33 45.0432H336.329L346.307 35.0656ZM357.013 44.3598L346.99 34.3367L357.013 24.3136V44.3598Z" fill="#DBDBDB"/>
<path d="M401.547 46H447.107V0.440308H401.547V46ZM408.609 39.6216H440.09L445.512 45.0432H403.187L408.609 39.6216ZM439.771 37.8903C436.628 34.5189 426.969 25.1336 425.01 23.2201L439.771 8.45881V37.8903ZM408.882 37.9815V7.72985H439.134L408.882 37.9815ZM424.327 23.9035C426.286 25.7715 436.218 35.4757 439.225 38.6649H409.565L424.327 23.9035ZM440.728 38.9382V7.4565L446.15 2.0349V44.3598L440.728 38.9382ZM440.045 6.81866H408.563L403.141 1.39706H445.466L440.045 6.81866ZM407.925 7.50205V38.9838L402.504 44.4054V2.08046L407.925 7.50205Z" fill="#DBDBDB"/>
</svg>
