<svg width="45" height="400" viewBox="0 0 45 400" fill="none" xmlns="http://www.w3.org/2000/svg">
<path d="M45 400V354.66H-0.000205994V400H45ZM44.055 397.506L27.5399 364.227L44.055 355.884V397.506ZM42.525 355.612L27.0899 363.365L23.2199 355.612H42.525ZM0.944786 355.612H22.2299L26.2799 363.819L0.944786 376.559V355.612ZM0.944786 377.602L26.6849 364.635L43.785 399.048H0.944786V377.602Z" fill="#DBDBDB"/>
<path d="M6.88472 394.242H17.0098V384.04H6.88472V394.242ZM7.82973 384.992H16.0648V393.29H7.82973V384.992Z" fill="#DBDBDB"/>
<path d="M6.70483 355.668H7.64983H11.9248H12.8699H16.6949H17.6399H21.5549H22.4999H45V332.997V332.045V328.101V327.149V323.295V322.343V318.035V317.083V310.327H38.295H37.35H33.0749H32.1299H28.3049H27.3599H23.4449H22.4999H-0.000205994V332.997V333.95V337.894V338.846V342.7V343.652V347.96V348.912V355.668H6.70483ZM20.2499 345.738C20.9699 345.874 21.7349 345.965 22.4999 345.965C29.6099 345.965 35.37 340.161 35.37 332.997C35.37 332.227 35.28 331.456 35.145 330.73C36.405 331.365 37.755 331.864 39.15 332.227C39.15 332.499 39.15 332.725 39.15 332.997C39.15 342.247 31.6799 349.819 22.4549 349.819C22.1849 349.819 21.9599 349.819 21.6899 349.819C21.3749 348.368 20.8799 347.008 20.2499 345.738ZM19.7099 344.65C17.6849 340.977 14.6249 337.894 10.9799 335.854C10.7549 334.947 10.6199 333.995 10.6199 332.997C10.6199 326.378 15.9749 320.982 22.5449 320.982C23.5349 320.982 24.4799 321.118 25.3799 321.345C27.4049 325.018 30.4649 328.101 34.11 330.141C34.335 331.048 34.47 332 34.47 332.997C34.47 339.617 29.1149 345.013 22.5449 345.013C21.5549 345.013 20.6099 344.877 19.7099 344.65ZM44.1 354.715H28.9799C36.225 352.539 41.94 346.781 44.1 339.481V354.715ZM44.1 332.997C44.1 344.967 34.425 354.715 22.5449 354.715C22.5449 354.715 22.5449 354.715 22.4999 354.715C22.4549 353.355 22.2749 352.04 22.0049 350.725C22.1849 350.725 22.3649 350.725 22.5449 350.725C32.2649 350.725 40.185 342.746 40.185 332.952C40.185 332.771 40.185 332.589 40.185 332.408C41.445 332.725 42.75 332.907 44.1 332.997ZM44.1 311.28V316.992C41.175 316.584 38.835 314.227 38.43 311.28H44.1ZM37.485 311.28C37.935 314.771 40.635 317.537 44.1 317.945V322.297C43.47 322.252 42.795 322.161 42.21 321.98C41.76 321.889 41.31 321.708 40.86 321.572C37.62 320.348 35.055 317.763 33.885 314.544C33.705 314.091 33.5699 313.637 33.4799 313.184C33.3449 312.549 33.2099 311.914 33.1649 311.28H37.485ZM32.2199 311.28C32.2649 311.733 32.3099 312.186 32.3999 312.64C32.4899 313.048 32.5799 313.456 32.6699 313.864C33.885 318.217 37.26 321.617 41.58 322.841C41.985 322.932 42.39 323.023 42.795 323.113C43.245 323.204 43.695 323.249 44.145 323.295V327.149C43.875 327.149 43.605 327.103 43.335 327.103C41.715 326.922 40.185 326.514 38.745 325.924C38.295 325.743 37.845 325.516 37.395 325.29C34.38 323.703 31.9049 321.209 30.3299 318.171C30.1049 317.718 29.8799 317.264 29.6999 316.811C29.1149 315.36 28.7099 313.819 28.5299 312.186C28.4849 311.914 28.4849 311.642 28.4849 311.37H32.2199V311.28ZM27.4499 311.28C27.4499 311.461 27.4499 311.688 27.4949 311.869C27.6299 313.411 27.9449 314.861 28.4399 316.267C28.5749 316.675 28.7549 317.083 28.9349 317.446C30.6899 321.526 33.9749 324.791 37.98 326.559C38.385 326.741 38.745 326.877 39.15 327.058C40.545 327.557 41.985 327.874 43.515 328.01C43.695 328.01 43.92 328.055 44.1 328.055V332.045C44.1 332.045 44.1 332.045 44.055 332.045C42.705 332 41.355 331.773 40.095 331.501C39.78 331.411 39.465 331.32 39.15 331.229C37.665 330.821 36.27 330.232 34.9649 329.506C34.5599 329.28 34.1549 329.053 33.7499 328.781C30.9149 327.013 28.5299 324.61 26.7749 321.753C26.5499 321.345 26.2799 320.937 26.0549 320.529C25.3349 319.214 24.7949 317.763 24.3449 316.312C24.2549 315.995 24.1649 315.678 24.0749 315.36C23.7599 314.045 23.5799 312.73 23.5349 311.37C23.5349 311.37 23.5349 311.37 23.5349 311.325H27.4499V311.28ZM24.7949 320.257C24.0749 320.121 23.3099 320.03 22.5449 320.03C15.4349 320.03 9.67484 325.834 9.67484 332.997C9.67484 333.768 9.76484 334.539 9.89984 335.264C8.63983 334.63 7.28984 334.131 5.89484 333.768C5.89484 333.496 5.89484 333.27 5.89484 332.997C5.89484 323.748 13.3649 316.176 22.5899 316.176C22.8599 316.176 23.0849 316.176 23.3549 316.176C23.6699 317.627 24.1649 318.942 24.7949 320.257ZM0.989803 311.28H16.1099C8.86485 313.456 3.14981 319.214 0.989803 326.514V311.28ZM22.5449 311.28C22.6349 312.64 22.8149 313.955 23.0849 315.27C22.9049 315.27 22.7249 315.27 22.5449 315.27C12.8249 315.27 4.90483 323.249 4.90483 333.043C4.90483 333.224 4.90483 333.406 4.90483 333.587C3.64482 333.315 2.29482 333.133 0.944813 333.088C0.944813 333.088 0.944813 333.088 0.944813 333.043C0.989815 321.028 10.6649 311.28 22.5449 311.28ZM0.989803 333.95C2.38481 333.995 3.68983 334.222 4.99483 334.494C5.30983 334.584 5.62482 334.675 5.93982 334.766C7.42483 335.174 8.81983 335.763 10.1248 336.489C10.5298 336.715 10.9348 336.942 11.3398 337.214C14.1749 338.982 16.5599 341.385 18.3149 344.242C18.5399 344.65 18.8099 345.058 19.0349 345.466C19.7549 346.781 20.2949 348.232 20.7449 349.683C20.8349 350 20.9249 350.317 21.0149 350.635C21.3299 351.95 21.5099 353.264 21.5549 354.625C21.5549 354.625 21.5549 354.625 21.5549 354.67H17.5949C17.5949 354.489 17.5949 354.262 17.5499 354.081C17.4149 352.539 17.0999 351.088 16.6049 349.683C16.4699 349.275 16.2899 348.866 16.1099 348.504C14.3549 344.423 11.0698 341.159 7.06483 339.39C6.65983 339.209 6.29984 339.073 5.89484 338.892C4.49983 338.393 3.05982 338.076 1.52981 337.94C1.34981 337.94 1.12482 337.894 0.944813 337.894V333.95H0.989803ZM0.989803 338.892C1.2598 338.892 1.5298 338.937 1.7998 338.937C3.41981 339.118 4.94982 339.526 6.38983 340.116C6.83983 340.297 7.28983 340.524 7.73983 340.751C10.7548 342.338 13.2299 344.831 14.8049 347.869C15.0299 348.322 15.2549 348.776 15.4349 349.229C16.0199 350.68 16.4249 352.222 16.6049 353.854C16.6499 354.126 16.6499 354.398 16.6499 354.67H12.8248C12.7799 354.217 12.7349 353.763 12.6449 353.31C12.5549 352.902 12.4648 352.494 12.3748 352.086C11.1598 347.733 7.78483 344.332 3.46481 343.108C3.05981 343.018 2.6548 342.927 2.2498 342.836C1.7998 342.746 1.3498 342.7 0.899799 342.655V338.892H0.989803ZM0.989803 343.698C1.6198 343.743 2.24981 343.834 2.87982 344.015C3.32982 344.106 3.77982 344.287 4.22982 344.423C7.46984 345.647 10.0348 348.232 11.2049 351.451C11.3849 351.904 11.5199 352.358 11.6099 352.811C11.7449 353.446 11.8798 354.081 11.9248 354.715H7.60484C7.19984 351.224 4.45482 348.458 0.989803 348.05V343.698ZM0.989803 349.003C3.91482 349.411 6.25484 351.768 6.65984 354.715H0.989803V349.003Z" fill="#DBDBDB"/>
<path d="M30.1484 332.997C30.1484 328.781 26.7284 325.335 22.5434 325.335C18.3584 325.335 14.9384 328.781 14.9384 332.997C14.9384 337.214 18.3584 340.66 22.5434 340.66C26.7284 340.66 30.1484 337.214 30.1484 332.997ZM15.8384 332.997C15.8384 329.28 18.8534 326.242 22.5434 326.242C26.2334 326.242 29.2484 329.28 29.2484 332.997C29.2484 336.715 26.2334 339.753 22.5434 339.753C18.8534 339.708 15.8384 336.715 15.8384 332.997Z" fill="#DBDBDB"/>
<path d="M45 311.335V265.995H-0.000205994V311.335H45ZM26.7749 292.927C26.5049 292.927 26.2349 292.972 25.9199 292.972C23.6699 292.972 21.5549 292.383 19.7099 291.34C21.1049 288.71 23.3549 286.579 26.0549 285.401C26.6849 286.897 26.9999 288.574 26.9999 290.297C26.9999 291.204 26.9099 292.111 26.7749 292.927ZM26.9549 285.083C28.2599 284.63 29.6549 284.358 31.1399 284.358C33.39 284.358 35.505 284.947 37.35 285.99C35.46 289.617 31.9049 292.247 27.7199 292.836C27.8549 292.02 27.9449 291.159 27.9449 290.297C27.9449 288.484 27.5849 286.715 26.9549 285.083ZM31.1399 283.451C29.5199 283.451 27.9899 283.723 26.5499 284.267C24.2999 279.597 19.5749 276.378 14.0849 276.378C13.9049 276.378 13.6799 276.378 13.4999 276.423C15.0299 270.982 20.0249 266.992 25.9199 266.992C33.0299 266.992 38.835 272.841 38.835 280.005C38.835 281.864 38.43 283.587 37.755 285.174C35.7749 284.04 33.525 283.451 31.1399 283.451ZM14.0849 277.285C19.1699 277.285 23.5349 280.277 25.6499 284.539C22.7249 285.809 20.3399 288.03 18.8549 290.841C15.2998 288.529 12.9598 284.494 12.9598 279.914C12.9598 279.008 13.0498 278.146 13.2298 277.285C13.5448 277.33 13.8148 277.285 14.0849 277.285ZM18.4949 291.748C17.7299 293.471 17.2799 295.375 17.2799 297.416C17.2799 299.275 17.6399 300.997 18.2699 302.63C16.9649 303.083 15.5249 303.355 14.0849 303.355C6.97482 303.355 1.16979 297.506 1.16979 290.343C1.16979 283.768 6.02982 278.373 12.2848 277.466C12.1498 278.282 12.0598 279.144 12.0598 280.005C12.0598 284.902 14.6248 289.254 18.4949 291.748ZM18.2249 297.416C18.2249 295.602 18.6299 293.834 19.3049 292.247C21.2849 293.335 23.5349 293.97 25.9199 293.97C26.0999 293.97 26.3249 293.97 26.5049 293.924C25.4249 297.688 22.7249 300.771 19.1699 302.312C18.5849 300.771 18.2249 299.139 18.2249 297.416ZM27.4949 293.834C32.1299 293.29 36.045 290.479 38.16 286.489C41.715 288.801 44.055 292.836 44.055 297.37C44.055 304.534 38.25 310.383 31.1399 310.383C26.0549 310.383 21.6899 307.39 19.5749 303.128C23.4449 301.451 26.4149 298.005 27.4949 293.834ZM36.135 310.383C39.78 308.977 42.66 306.076 44.055 302.403V310.383H36.135ZM44.055 266.947V292.383C42.975 289.572 41.04 287.214 38.565 285.627C39.33 283.904 39.78 282 39.78 279.96C39.78 274.02 36.09 268.987 30.9149 266.947H44.055ZM20.9249 266.947C16.7849 268.534 13.6348 272.071 12.5098 276.423C7.06482 277.058 2.5648 280.867 0.899796 285.99V266.947H20.9249ZM0.944786 310.383V294.605C2.74479 300.181 7.96481 304.262 14.1298 304.262C15.7498 304.262 17.2799 303.99 18.7199 303.446C20.2499 306.62 22.9049 309.113 26.1899 310.383H0.944786Z" fill="#DBDBDB"/>
<path d="M-0.000205994 239.254V262.922V267.003H45V221.662H-0.000205994V239.254ZM13.3649 240.207C13.4549 243.29 14.5349 246.146 16.2449 248.413L0.899796 260.927V240.207H13.3649ZM27.6299 253.219C23.6249 253.219 19.9799 251.406 17.5499 248.549L21.7799 245.103C23.2199 246.69 25.3349 247.733 27.6299 247.733C32.0399 247.733 35.595 244.151 35.595 239.708C35.595 235.264 32.0399 231.683 27.6299 231.683C23.3999 231.683 19.9349 235.038 19.7099 239.209H14.2649C14.5349 232 20.3849 226.196 27.6299 226.196C35.01 226.196 41.04 232.227 41.04 239.708C41.04 247.189 35.055 253.219 27.6299 253.219ZM28.9799 239.254H20.6549C20.8799 235.582 23.9399 232.68 27.6299 232.68C31.4999 232.68 34.65 235.854 34.65 239.753C34.65 243.652 31.4999 246.826 27.6299 246.826C25.6049 246.826 23.7599 245.965 22.4999 244.559L28.9799 239.254ZM21.9149 243.788C21.1949 242.746 20.7449 241.521 20.6549 240.207H26.3249L21.9149 243.788ZM19.7099 240.207C19.7999 241.748 20.3399 243.199 21.1949 244.378L16.9649 247.824C15.3449 245.693 14.3999 243.063 14.2649 240.207H19.7099ZM44.055 222.615V266.05H0.944801V262.151L16.8749 249.184C19.4849 252.222 23.3549 254.171 27.6749 254.171C35.595 254.171 41.985 247.688 41.985 239.753C41.985 231.773 35.55 225.335 27.6749 225.335C19.9349 225.335 13.6349 231.547 13.3649 239.3H0.944801V222.66H44.055V222.615Z" fill="#DBDBDB"/>
<path d="M22.0499 178.338H45V155.214V132.997H22.0499H-0.000205994V155.214V178.338H22.0499ZM22.9949 168H34.7399V156.166H44.055C43.785 167.773 34.47 177.159 22.9949 177.385V168ZM11.2498 156.166H22.0499V167.048H11.2498V156.166ZM33.8399 155.214H23.0399V144.332H33.8399V155.214ZM22.0499 155.214H11.2498V144.332H22.0499V155.214ZM22.9949 156.166H33.795V167.048H22.9949V156.166ZM34.785 155.214V143.38H23.0399V133.995C34.5599 134.267 43.875 143.652 44.1 155.214H34.785ZM22.0499 143.38H10.3048V155.214H0.989803C1.2598 143.607 10.5748 134.222 22.0499 133.995V143.38ZM10.3048 156.166V168H22.0499V177.385C10.5298 177.113 1.2148 167.728 0.989803 156.166H10.3048ZM44.1 177.385H28.9799C36.225 175.209 41.94 169.451 44.1 162.151V177.385ZM44.1 133.95V149.184C41.94 141.884 36.225 136.126 28.9799 133.95H44.1ZM16.1099 133.95C8.86485 136.126 3.14981 141.884 0.989803 149.184V133.95H16.1099ZM16.1099 177.385H0.989803V162.151C3.14981 169.451 8.86485 175.209 16.1099 177.385Z" fill="#DBDBDB"/>
<path d="M-0.000205994 88.665V134.005H45V88.665H-0.000205994ZM5.39982 132.01C7.01982 129.38 10.0348 124.438 10.0348 118.725C10.0348 116.232 8.59482 113.602 7.24482 111.108C5.93981 108.705 4.5448 106.212 4.5448 103.945C4.5448 99.9093 5.89481 98.2317 7.28982 96.4181C8.59483 94.7859 9.89983 93.063 9.98983 89.6171H13.6799C13.5899 92.7909 12.8248 94.3325 11.9698 95.9194C11.0248 97.733 10.0348 99.6373 10.0348 103.945C10.0348 106.393 10.9798 108.977 11.8798 111.471C12.7799 113.919 13.6799 116.413 13.6799 118.725C13.6799 124.257 11.6998 129.063 10.6648 131.647C10.3948 132.327 10.2148 132.781 10.1248 133.053H4.72482C4.94981 132.781 5.17482 132.418 5.39982 132.01ZM11.5198 131.965C12.5998 129.335 14.5799 124.438 14.5799 118.725C14.5799 116.277 13.6348 113.693 12.7348 111.154C11.8348 108.705 10.9348 106.212 10.9348 103.899C10.9348 99.8186 11.8798 98.0504 12.7799 96.2821C13.6349 94.6499 14.4899 92.9723 14.5799 89.5718H18.3149C18.2699 92.7909 17.8649 94.3325 17.4599 95.9647C17.0099 97.7783 16.5149 99.6373 16.5149 103.899C16.5149 106.302 16.9649 108.887 17.4149 111.38C17.8649 113.829 18.3149 116.368 18.3149 118.725C18.3149 124.302 17.3249 129.108 16.7849 131.693C16.6499 132.327 16.5599 132.736 16.5149 133.053H11.0698C11.2048 132.736 11.3848 132.373 11.5198 131.965ZM17.6849 131.874C18.2249 129.244 19.2149 124.393 19.2149 118.725C19.2149 116.322 18.7649 113.738 18.3149 111.244C17.8649 108.796 17.4149 106.257 17.4149 103.945C17.4149 99.8186 17.9099 98.005 18.3599 96.2368C18.7649 94.6045 19.2149 92.9269 19.2599 89.6171H22.1399V133.053H17.4599C17.5049 132.736 17.5949 132.327 17.6849 131.874ZM22.9499 89.6171H25.7849C25.8299 92.9723 26.2349 94.6499 26.6849 96.2368C27.1349 98.005 27.6299 99.8186 27.6299 103.945C27.6299 106.302 27.1799 108.796 26.7299 111.244C26.2799 113.738 25.8299 116.322 25.8299 118.725C25.8299 124.393 26.8199 129.244 27.3599 131.874C27.4499 132.327 27.5399 132.736 27.5849 133.053H22.9949V89.6171H22.9499ZM28.1699 131.693C27.6299 129.108 26.6399 124.302 26.6399 118.725C26.6399 116.368 27.0899 113.829 27.5399 111.38C27.9899 108.887 28.4399 106.348 28.4399 103.899C28.4399 99.6826 27.9449 97.7783 27.4949 95.9647C27.0899 94.3325 26.6849 92.7909 26.6399 89.5718H30.3749C30.4649 92.9723 31.3199 94.6499 32.1749 96.2821C33.0749 98.005 34.0199 99.8186 34.0199 103.899C34.0199 106.212 33.1199 108.705 32.2199 111.154C31.3199 113.647 30.3749 116.232 30.3749 118.725C30.3749 124.438 32.3549 129.335 33.4349 131.965C33.6149 132.373 33.7499 132.736 33.8849 133.053H28.4399C28.3949 132.736 28.3049 132.327 28.1699 131.693ZM34.2899 131.647C33.2549 129.063 31.2749 124.257 31.2749 118.725C31.2749 116.413 32.1749 113.919 33.0749 111.471C33.9749 108.977 34.9199 106.393 34.9199 103.945C34.9199 99.6373 33.9299 97.7783 32.9849 95.9194C32.1299 94.3325 31.3649 92.7909 31.2749 89.6171H35.0099C35.1449 93.063 36.45 94.7405 37.71 96.4181C39.105 98.2317 40.455 99.9093 40.455 103.945C40.455 106.212 39.105 108.705 37.755 111.108C36.36 113.647 34.9649 116.232 34.9649 118.725C34.9649 124.484 37.98 129.38 39.6 132.01C39.825 132.373 40.05 132.736 40.23 133.008H34.83C34.74 132.736 34.5599 132.327 34.2899 131.647ZM0.944786 89.6171H9.13483C9.04483 92.7456 7.87482 94.2418 6.61481 95.8741C5.17481 97.733 3.6898 99.6373 3.6898 103.945C3.6898 106.438 5.12981 109.023 6.47982 111.562C7.78482 113.965 9.17983 116.504 9.17983 118.771C9.17983 124.257 6.25482 129.018 4.67981 131.602C4.22981 132.327 3.95981 132.781 3.82481 133.098H0.989788V89.6171H0.944786ZM44.055 133.053H41.22C41.085 132.736 40.815 132.282 40.365 131.557C38.79 128.972 35.8649 124.212 35.8649 118.725C35.8649 116.458 37.215 113.965 38.565 111.516C39.915 109.023 41.355 106.393 41.355 103.899C41.355 99.5919 39.87 97.6423 38.43 95.8287C37.17 94.2418 36 92.7002 35.91 89.5718H44.1V133.053H44.055Z" fill="#DBDBDB"/>
<path d="M45 89.6725V44.3325H-0.000205994V89.6725H45ZM1.6198 88.7204L6.97482 83.3249H38.025L43.38 88.7204H1.6198ZM7.24483 82.3728V51.6322H37.755V82.3728H7.24483ZM44.055 88.0403L38.7 82.6448V51.3149L44.055 45.9194V88.0403ZM43.38 45.2846L38.025 50.6801H6.92982L1.5748 45.2846H43.38ZM0.944801 45.9647L6.29982 51.3602V82.6902L0.944801 88.0856V45.9647Z" fill="#DBDBDB"/>
<path d="M22.5006 54.9421C15.8856 54.9421 10.5306 60.3375 10.5306 67.0025C10.5306 73.6675 15.8856 79.063 22.5006 79.063C29.1157 79.063 34.4707 73.6675 34.4707 67.0025C34.4707 60.3829 29.1157 54.9421 22.5006 54.9421ZM22.5006 78.1109C16.4256 78.1109 11.4756 73.1234 11.4756 67.0025C11.4756 60.8816 16.4256 55.8942 22.5006 55.8942C28.5757 55.8942 33.5257 60.8816 33.5257 67.0025C33.5257 73.1234 28.5757 78.1109 22.5006 78.1109Z" fill="#DBDBDB"/>
<path d="M45 222.67V177.33H-0.000205994V222.67H45ZM44.055 221.718H23.0849L44.01 200.635V221.718H44.055ZM44.055 178.282V199.365L23.1299 178.282H44.055ZM22.9499 179.461L43.335 200L22.9499 220.539V179.461ZM22.0049 221.718H15.2999C18.3149 220.63 20.7449 218.317 22.0049 215.416V221.718ZM0.944786 178.282H22.0499V206.257C20.2949 202.131 16.2449 199.275 11.5198 199.275C6.79481 199.275 2.74481 202.176 0.989803 206.257V178.282H0.944786ZM11.4748 200.181C17.2799 200.181 22.0049 204.942 22.0049 210.791C22.0049 216.64 17.2799 221.401 11.4748 221.401C5.66982 221.401 0.944786 216.64 0.944786 210.791C0.944786 204.942 5.66982 200.181 11.4748 200.181ZM0.944786 215.416C2.20479 218.363 4.63482 220.63 7.64983 221.718H0.944786V215.416Z" fill="#DBDBDB"/>
<path d="M16.584 183.699H6.44319V193.927H16.584V183.699ZM15.6375 192.972H7.38966V184.653H15.6375V192.972Z" fill="#DBDBDB"/>
<path d="M38.0319 29.7884H45V15.597H38.0319H31.0638V29.7884H38.0319C37.9869 29.7884 37.9869 29.7884 38.0319 29.7884ZM44.011 28.8363H41.4485C42.5275 28.2015 43.3816 27.2947 44.011 26.2519V28.8363ZM44.011 16.5491V19.1335C43.3816 18.0454 42.5275 17.1386 41.4485 16.5491H44.011ZM32.0079 16.5491H34.5254C33.4465 17.1839 32.5923 18.0907 31.9629 19.1335V16.5491H32.0079ZM37.987 16.5491C41.3137 16.5491 44.011 19.3149 44.011 22.67C44.011 26.0705 41.3137 28.7909 37.987 28.7909C34.6603 28.7909 31.9629 26.0252 31.9629 22.67C32.0079 19.3149 34.7052 16.5491 37.987 16.5491ZM32.0079 28.8363V26.2519C32.6373 27.3401 33.4914 28.2469 34.5703 28.8363H32.0079Z" fill="#DBDBDB"/>
<path d="M22.4772 29.7884H29.4453V15.597H22.4772H15.5091V29.7884H22.4772ZM28.5012 28.8363H25.9388C27.0177 28.2015 27.8719 27.2947 28.5012 26.2519V28.8363ZM28.5012 16.5491V19.1335C27.8719 18.0454 27.0177 17.1386 25.9388 16.5491H28.5012ZM16.4532 16.5491H19.0156C17.9367 17.1839 17.0826 18.0907 16.4532 19.1335V16.5491ZM22.4772 16.5491C25.8039 16.5491 28.5012 19.3149 28.5012 22.67C28.5012 26.0705 25.8039 28.7909 22.4772 28.7909C19.1505 28.7909 16.4532 26.0252 16.4532 22.67C16.4532 19.3149 19.1505 16.5491 22.4772 16.5491ZM16.4532 28.8363V26.2519C17.0826 27.3401 17.9367 28.2469 19.0156 28.8363H16.4532Z" fill="#DBDBDB"/>
<path d="M6.96745 29.7884H13.9355V15.597H6.96745H-0.000640869V29.7884H6.96745ZM12.9915 28.8363H10.429C11.5079 28.2015 12.3621 27.2947 12.9915 26.2519V28.8363ZM12.9915 16.5491V19.1335C12.3621 18.0454 11.5079 17.1386 10.429 16.5491H12.9915ZM0.943413 16.5491H3.50588C2.42695 17.1839 1.57279 18.0907 0.943413 19.1335V16.5491ZM6.96745 16.5491C10.2942 16.5491 12.9915 19.3149 12.9915 22.67C12.9915 26.0705 10.2942 28.7909 6.96745 28.7909C3.64075 28.7909 0.943413 26.0252 0.943413 22.67C0.943413 19.3149 3.64075 16.5491 6.96745 16.5491ZM0.943413 28.8363V26.2519C1.57279 27.3401 2.42695 28.2469 3.50588 28.8363H0.943413Z" fill="#DBDBDB"/>
<path d="M44.957 31.194H31.0658V45.3401H44.957V31.194ZM32.0099 32.1461H34.5274C33.4484 32.7809 32.5943 33.6877 31.9649 34.7305V32.1461H32.0099ZM32.0099 44.3879V41.8035C32.6392 42.8917 33.4934 43.7985 34.5723 44.3879H32.0099ZM44.013 44.3879H41.4505C42.5294 43.7532 43.3836 42.8464 44.013 41.8035V44.3879ZM38.0339 44.3879C34.7072 44.3879 32.0099 41.6222 32.0099 38.267C32.0099 34.8665 34.7072 32.1461 38.0339 32.1461C41.3606 32.1461 44.0579 34.9119 44.0579 38.267C44.013 41.6675 41.3156 44.3879 38.0339 44.3879ZM44.013 34.7305C43.3836 33.6423 42.5294 32.7355 41.4505 32.1461H44.013V34.7305Z" fill="#DBDBDB"/>
<path d="M29.4453 31.194H15.5541V45.3401H29.4453V31.194ZM16.4532 32.1461H19.0156C17.9367 32.7809 17.0826 33.6877 16.4532 34.7305V32.1461ZM16.4532 44.3879V41.8035C17.0826 42.8917 17.9367 43.7985 19.0156 44.3879H16.4532ZM28.5012 44.3879H25.9388C27.0177 43.7532 27.8719 42.8464 28.5012 41.8035V44.3879ZM22.4772 44.3879C19.1505 44.3879 16.4532 41.6222 16.4532 38.267C16.4532 34.8665 19.1505 32.1461 22.4772 32.1461C25.8039 32.1461 28.5012 34.9119 28.5012 38.267C28.5012 41.6675 25.8039 44.3879 22.4772 44.3879ZM28.5012 34.7305C27.8719 33.6423 27.0177 32.7355 25.9388 32.1461H28.5012V34.7305Z" fill="#DBDBDB"/>
<path d="M13.9355 45.3401V31.1486H0.0443001V45.3401H13.9355ZM12.9915 44.3879H10.429C11.5079 43.7532 12.3621 42.8464 12.9915 41.8035V44.3879ZM12.9915 32.1461V34.7305C12.3621 33.6423 11.5079 32.7355 10.429 32.1461H12.9915ZM0.943409 32.1461H3.50588C2.42694 32.7809 1.57279 33.6877 0.943409 34.7305V32.1461ZM6.96745 32.1461C10.2942 32.1461 12.9915 34.9118 12.9915 38.267C12.9915 41.6675 10.2942 44.3879 6.96745 44.3879C3.64075 44.3879 0.943409 41.6222 0.943409 38.267C0.943409 34.9118 3.64075 32.1461 6.96745 32.1461ZM0.943409 41.8035C1.57279 42.8917 2.42694 43.7985 3.50588 44.3879H0.943409V41.8035Z" fill="#DBDBDB"/>
<path d="M44.957 5.72205e-06H31.0658V14.1914H44.957V5.72205e-06ZM32.0099 0.952149H34.5274C33.4484 1.58691 32.5943 2.49371 31.9649 3.53653V0.952149H32.0099ZM32.0099 13.2393V10.6549C32.6392 11.7431 33.4934 12.6499 34.5723 13.2393H32.0099ZM44.013 13.2393H41.4505C42.5294 12.6045 43.3836 11.6977 44.013 10.6549V13.2393ZM38.0339 13.2393C34.7072 13.2393 32.0099 10.4736 32.0099 7.11839C32.0099 3.71789 34.7072 0.997488 38.0339 0.997488C41.3606 0.997488 44.0579 3.76323 44.0579 7.11839C44.013 10.4736 41.3156 13.2393 38.0339 13.2393ZM44.013 3.58187C43.3836 2.49371 42.5294 1.58691 41.4505 0.997488H44.013V3.58187Z" fill="#DBDBDB"/>
<path d="M29.4453 5.72205e-06H15.5541V14.1914H29.4453V5.72205e-06ZM16.4532 0.952149H19.0156C17.9367 1.58691 17.0826 2.49371 16.4532 3.53653V0.952149ZM16.4532 13.2393V10.6549C17.0826 11.7431 17.9367 12.6499 19.0156 13.2393H16.4532ZM28.5012 13.2393H25.9388C27.0177 12.6045 27.8719 11.6977 28.5012 10.6549V13.2393ZM22.4772 13.2393C19.1505 13.2393 16.4532 10.4736 16.4532 7.11839C16.4532 3.71789 19.1505 0.997488 22.4772 0.997488C25.8039 0.997488 28.5012 3.76323 28.5012 7.11839C28.5012 10.4736 25.8039 13.2393 22.4772 13.2393ZM28.5012 3.58187C27.8719 2.49371 27.0177 1.58691 25.9388 0.997488H28.5012V3.58187Z" fill="#DBDBDB"/>
<path d="M13.9355 5.72205e-06H0.0443001V14.1914H13.9355V5.72205e-06ZM0.943409 0.952149H3.50588C2.42694 1.58691 1.57279 2.49371 0.943409 3.53653V0.952149ZM0.943409 13.2393V10.6549C1.57279 11.7431 2.42694 12.6499 3.50588 13.2393H0.943409ZM12.9915 13.2393H10.429C11.5079 12.6045 12.3621 11.6977 12.9915 10.6549V13.2393ZM6.96745 13.2393C3.64075 13.2393 0.943409 10.4736 0.943409 7.11839C0.943409 3.71789 3.64075 0.997488 6.96745 0.997488C10.2942 0.997488 12.9915 3.76323 12.9915 7.11839C12.9915 10.4736 10.2942 13.2393 6.96745 13.2393ZM12.9915 3.58187C12.3621 2.49371 11.5079 1.58691 10.429 0.997488H12.9915V3.58187Z" fill="#DBDBDB"/>
</svg>
