<svg width="45" height="400" viewBox="0 0 45 400" fill="none" xmlns="http://www.w3.org/2000/svg">
<path d="M0 0V45.34H45.0002V0H0ZM0.945007 2.4937L17.4601 35.7733L0.945007 44.1159V2.4937ZM2.47501 44.3879L17.9101 36.6348L21.7801 44.3879H2.47501ZM44.0552 44.3879H22.7701L18.7201 36.1814L44.0552 23.4408V44.3879ZM44.0552 22.398L18.3151 35.3652L1.21501 0.952144H44.0552V22.398Z" fill="#DBDBDB"/>
<path d="M38.1153 5.75818H27.9902V15.9597H38.1153V5.75818ZM37.1703 15.0075H28.9352V6.71032H37.1703V15.0075Z" fill="#DBDBDB"/>
<path d="M38.2952 44.3325H37.3502H33.0752H32.1301H28.3051H27.3601H23.4451H22.5001H0V67.0025V67.9547V71.8992V72.8514V76.7053V77.6574V81.9647V82.9169V89.6725H6.70503H7.65005H11.9251H12.8701H16.6951H17.6401H21.5551H22.5001H45.0002V67.0025V66.0504V62.1058V61.1537V57.2997V56.3476V52.0403V51.0882V44.3325H38.2952ZM24.7501 54.262C24.0301 54.126 23.2651 54.0353 22.5001 54.0353C15.3901 54.0353 9.63004 59.8388 9.63004 67.0025C9.63004 67.7733 9.72004 68.5441 9.85504 69.2695C8.59503 68.6348 7.24504 68.136 5.85004 67.7733C5.85004 67.5013 5.85004 67.2746 5.85004 67.0025C5.85004 57.7531 13.3201 50.1814 22.5451 50.1814C22.8151 50.1814 23.0401 50.1814 23.3101 50.1814C23.6251 51.6322 24.1201 52.9924 24.7501 54.262ZM25.2901 55.3501C27.3151 59.0227 30.3751 62.1058 34.0201 64.1461C34.2451 65.0529 34.3801 66.005 34.3801 67.0025C34.3801 73.6222 29.0251 79.0176 22.4551 79.0176C21.4651 79.0176 20.5201 78.8816 19.6201 78.6549C17.5951 74.9824 14.5351 71.8992 10.89 69.8589C10.665 68.9521 10.53 68 10.53 67.0025C10.53 60.3829 15.8851 54.9874 22.4551 54.9874C23.4451 54.9874 24.3901 55.1234 25.2901 55.3501ZM0.900004 45.2846H16.0201C8.77504 47.461 3.06001 53.2191 0.900004 60.5189V45.2846ZM0.900004 67.0025C0.900004 55.0327 10.575 45.2846 22.4551 45.2846C22.4551 45.2846 22.4551 45.2846 22.5001 45.2846C22.5451 46.6448 22.7251 47.9597 22.9951 49.2746C22.8151 49.2746 22.6351 49.2746 22.4551 49.2746C12.7351 49.2746 4.81501 57.2544 4.81501 67.0479C4.81501 67.2292 4.81501 67.4106 4.81501 67.5919C3.55501 67.2746 2.25001 67.0932 0.900004 67.0025ZM0.900004 88.7204V83.0076C3.82502 83.4156 6.16503 85.7733 6.57003 88.7204H0.900004ZM7.51502 88.7204C7.06502 85.2292 4.36502 82.4635 0.900004 82.0554V77.7028C1.53001 77.7481 2.205 77.8388 2.79 78.0202C3.24001 78.1108 3.69001 78.2922 4.14001 78.4282C7.38002 79.6524 9.94503 82.2368 11.115 85.4559C11.295 85.9093 11.4301 86.3627 11.5201 86.8161C11.6551 87.4509 11.7901 88.0856 11.8351 88.7204H7.51502ZM12.7801 88.7204C12.7351 88.267 12.6901 87.8136 12.6001 87.3602C12.5101 86.9521 12.4201 86.5441 12.3301 86.136C11.115 81.7834 7.74004 78.3829 3.42002 77.1587C3.01502 77.068 2.61001 76.9773 2.20501 76.8867C1.755 76.796 1.305 76.7506 0.855001 76.7053V72.8514C1.125 72.8514 1.395 72.8967 1.665 72.8967C3.28501 73.0781 4.81502 73.4861 6.25502 74.0756C6.70503 74.2569 7.15503 74.4836 7.60503 74.7103C10.62 76.2972 13.0951 78.7909 14.6701 81.8287C14.8951 82.2821 15.1201 82.7355 15.3001 83.1889C15.8851 84.6398 16.2901 86.1814 16.4701 87.8136C16.5151 88.0856 16.5151 88.3577 16.5151 88.6297H12.7801V88.7204ZM17.5501 88.7204C17.5501 88.539 17.5501 88.3123 17.5051 88.131C17.3701 86.5894 17.0551 85.1385 16.5601 83.733C16.4251 83.3249 16.2451 82.9169 16.0651 82.5542C14.3101 78.4736 11.0251 75.2091 7.02003 73.4408C6.61503 73.2594 6.25504 73.1234 5.85004 72.9421C4.45503 72.4433 3.01502 72.1259 1.48501 71.9899C1.30501 71.9899 1.08 71.9446 0.900004 71.9446V67.9547C0.900004 67.9547 0.900007 67.9547 0.945007 67.9547C2.29501 68 3.64501 68.2267 4.90502 68.4987C5.22002 68.5894 5.53504 68.6801 5.85004 68.7708C7.33504 69.1788 8.73005 69.7683 10.0351 70.4937C10.4401 70.7204 10.8451 70.9471 11.2501 71.2191C14.0851 72.9874 16.4701 75.3904 18.2251 78.2469C18.4501 78.6549 18.7201 79.063 18.9451 79.471C19.6651 80.7859 20.2051 82.2368 20.6551 83.6877C20.7451 84.005 20.8351 84.3224 20.9251 84.6398C21.2401 85.9547 21.4201 87.2695 21.4651 88.6297C21.4651 88.6297 21.4651 88.6297 21.4651 88.6751H17.5501V88.7204ZM20.2051 79.7431C20.9251 79.8791 21.6901 79.9698 22.4551 79.9698C29.5651 79.9698 35.3252 74.1662 35.3252 67.0025C35.3252 66.2317 35.2352 65.461 35.1002 64.7355C36.3602 65.3703 37.7102 65.869 39.1052 66.2317C39.1052 66.5038 39.1052 66.7305 39.1052 67.0025C39.1052 76.2519 31.6351 83.8237 22.4101 83.8237C22.1401 83.8237 21.9151 83.8237 21.6451 83.8237C21.3301 82.3728 20.8351 81.0579 20.2051 79.7431ZM44.0102 88.7204H28.8901C36.1351 86.5441 41.8502 80.7859 44.0102 73.4861V88.7204ZM22.4551 88.7204C22.3651 87.3602 22.1851 86.0453 21.9151 84.7305C22.0951 84.7305 22.2751 84.7305 22.4551 84.7305C32.1751 84.7305 40.0952 76.7506 40.0952 66.9572C40.0952 66.7758 40.0952 66.5945 40.0952 66.4131C41.3552 66.6851 42.7052 66.8665 44.0552 66.9118C44.0552 66.9118 44.0552 66.9118 44.0552 66.9572C44.0102 78.9723 34.3351 88.7204 22.4551 88.7204ZM44.0102 66.0504C42.6152 66.005 41.3102 65.7783 40.0052 65.5063C39.6902 65.4156 39.3752 65.3249 39.0602 65.2343C37.5752 64.8262 36.1802 64.2368 34.8752 63.5113C34.4702 63.2846 34.0652 63.0579 33.6602 62.7859C30.8251 61.0176 28.4401 58.6146 26.6851 55.7582C26.4601 55.3501 26.1901 54.9421 25.9651 54.534C25.2451 53.2191 24.7051 51.7683 24.2551 50.3174C24.1651 50 24.0751 49.6826 23.9851 49.3652C23.6701 48.0504 23.4901 46.7355 23.4451 45.3753C23.4451 45.3753 23.4451 45.3753 23.4451 45.33H27.4051C27.4051 45.5113 27.4051 45.738 27.4501 45.9194C27.5851 47.461 27.9001 48.9118 28.3951 50.3174C28.5301 50.7254 28.7101 51.1335 28.8901 51.4962C30.6451 55.5768 33.9302 58.8413 37.9352 60.6096C38.3402 60.7909 38.7002 60.9269 39.1052 61.1083C40.5002 61.607 41.9402 61.9244 43.4702 62.0605C43.6502 62.0605 43.8752 62.1058 44.0552 62.1058V66.0504H44.0102ZM44.0102 61.1083C43.7402 61.1083 43.4702 61.063 43.2002 61.063C41.5802 60.8816 40.0502 60.4736 38.6102 59.8841C38.1602 59.7028 37.7102 59.4761 37.2602 59.2494C34.2452 57.6625 31.7701 55.1688 30.1951 52.131C29.9701 51.6776 29.7451 51.2242 29.5651 50.7708C28.9801 49.3199 28.5751 47.7783 28.3951 46.1461C28.3501 45.8741 28.3501 45.602 28.3501 45.33H32.1752C32.2201 45.7834 32.2651 46.2368 32.3551 46.6902C32.4451 47.0982 32.5352 47.5063 32.6252 47.9144C33.8402 52.267 37.2152 55.6675 41.5352 56.8917C41.9402 56.9824 42.3452 57.0731 42.7502 57.1637C43.2002 57.2544 43.6502 57.2997 44.1002 57.3451V61.1083H44.0102ZM44.0102 56.3023C43.3802 56.2569 42.7502 56.1662 42.1202 55.9849C41.6702 55.8942 41.2202 55.7128 40.7702 55.5768C37.5302 54.3526 34.9652 51.7683 33.7951 48.5491C33.6151 48.0957 33.4801 47.6423 33.3901 47.1889C33.2551 46.5542 33.1202 45.9194 33.0752 45.2846H37.3952C37.8002 48.7758 40.5452 51.5416 44.0102 51.9496V56.3023ZM44.0102 50.9975C41.0852 50.5894 38.7452 48.2317 38.3402 45.2846H44.0102V50.9975Z" fill="#DBDBDB"/>
<path d="M14.8516 67.0025C14.8516 71.2191 18.2716 74.665 22.4566 74.665C26.6416 74.665 30.0616 71.2191 30.0616 67.0025C30.0616 62.7859 26.6416 59.3401 22.4566 59.3401C18.2716 59.3401 14.8516 62.7859 14.8516 67.0025ZM29.1616 67.0025C29.1616 70.7204 26.1466 73.7582 22.4566 73.7582C18.7666 73.7582 15.7516 70.7204 15.7516 67.0025C15.7516 63.2846 18.7666 60.2469 22.4566 60.2469C26.1466 60.2922 29.1616 63.2846 29.1616 67.0025Z" fill="#DBDBDB"/>
<path d="M0 88.665V134.005H45.0002V88.665H0ZM18.2251 107.073C18.4951 107.073 18.7651 107.028 19.0801 107.028C21.3301 107.028 23.4451 107.617 25.2901 108.66C23.8951 111.29 21.6451 113.421 18.9451 114.599C18.3151 113.103 18.0001 111.426 18.0001 109.703C18.0001 108.796 18.0901 107.889 18.2251 107.073ZM18.0451 114.917C16.7401 115.37 15.3451 115.642 13.8601 115.642C11.61 115.642 9.49504 115.053 7.65004 114.01C9.54004 110.383 13.0951 107.753 17.2801 107.164C17.1451 107.98 17.0551 108.841 17.0551 109.703C17.0551 111.516 17.4151 113.285 18.0451 114.917ZM13.8601 116.549C15.4801 116.549 17.0101 116.277 18.4501 115.733C20.7001 120.403 25.4251 123.622 30.9151 123.622C31.0951 123.622 31.3201 123.622 31.5001 123.577C29.9701 129.018 24.9751 133.008 19.0801 133.008C11.9701 133.008 6.16503 127.159 6.16503 119.995C6.16503 118.136 6.57005 116.413 7.24505 114.826C9.22506 115.96 11.475 116.549 13.8601 116.549ZM30.9151 122.715C25.8301 122.715 21.4651 119.723 19.3501 115.461C22.2751 114.191 24.6601 111.97 26.1451 109.159C29.7002 111.471 32.0402 115.506 32.0402 120.086C32.0402 120.992 31.9502 121.854 31.7702 122.715C31.4552 122.67 31.1852 122.715 30.9151 122.715ZM26.5051 108.252C27.2701 106.529 27.7201 104.625 27.7201 102.584C27.7201 100.725 27.3601 99.0025 26.7301 97.3703C28.0351 96.9169 29.4751 96.6448 30.9151 96.6448C38.0252 96.6448 43.8302 102.494 43.8302 109.657C43.8302 116.232 38.9702 121.627 32.7152 122.534C32.8502 121.718 32.9402 120.856 32.9402 119.995C32.9402 115.098 30.3752 110.746 26.5051 108.252ZM26.7751 102.584C26.7751 104.398 26.3701 106.166 25.6951 107.753C23.7151 106.665 21.4651 106.03 19.0801 106.03C18.9001 106.03 18.6751 106.03 18.4951 106.076C19.5751 102.312 22.2751 99.2292 25.8301 97.6876C26.4151 99.2292 26.7751 100.861 26.7751 102.584ZM17.5051 106.166C12.8701 106.71 8.95505 109.521 6.84004 113.511C3.28502 111.199 0.945007 107.164 0.945007 102.63C0.945007 95.466 6.75003 89.6171 13.8601 89.6171C18.9451 89.6171 23.3101 92.6096 25.4251 96.8715C21.5551 98.5491 18.5851 101.995 17.5051 106.166ZM8.86505 89.6171C5.22003 91.0227 2.34001 93.9244 0.945007 97.597V89.6171H8.86505ZM0.945007 133.053V107.617C2.02501 110.428 3.96001 112.786 6.43502 114.373C5.67002 116.096 5.22004 118 5.22004 120.04C5.22004 125.98 8.91004 131.013 14.0851 133.053H0.945007ZM24.0751 133.053C28.2151 131.466 31.3652 127.929 32.4902 123.577C37.9352 122.942 42.4352 119.133 44.1002 114.01V133.053H24.0751ZM44.0552 89.6171V105.395C42.2552 99.8186 37.0352 95.738 30.8702 95.738C29.2502 95.738 27.7201 96.0101 26.2801 96.5541C24.7501 93.3803 22.0951 90.8866 18.8101 89.6171H44.0552Z" fill="#DBDBDB"/>
<path d="M45.0002 160.746V137.078V132.997H0V178.338H45.0002V160.746ZM31.6351 159.793C31.5451 156.71 30.4651 153.854 28.7551 151.587L44.1002 139.073V159.793H31.6351ZM17.3701 146.781C21.3751 146.781 25.0201 148.594 27.4501 151.451L23.2201 154.897C21.7801 153.31 19.6651 152.267 17.3701 152.267C12.9601 152.267 9.40504 155.849 9.40504 160.292C9.40504 164.736 12.9601 168.317 17.3701 168.317C21.6001 168.317 25.0651 164.962 25.2901 160.791H30.7351C30.4651 168 24.6151 173.804 17.3701 173.804C9.99005 173.804 3.96001 167.773 3.96001 160.292C3.96001 152.811 9.94505 146.781 17.3701 146.781ZM16.0201 160.746H24.3451C24.1201 164.418 21.0601 167.32 17.3701 167.32C13.5001 167.32 10.35 164.146 10.35 160.247C10.35 156.348 13.5001 153.174 17.3701 153.174C19.3951 153.174 21.2401 154.035 22.5001 155.441L16.0201 160.746ZM23.0851 156.212C23.8051 157.254 24.2551 158.479 24.3451 159.793H18.6751L23.0851 156.212ZM25.2901 159.793C25.2001 158.252 24.6601 156.801 23.8051 155.622L28.0351 152.176C29.6551 154.307 30.6001 156.937 30.7351 159.793H25.2901ZM0.945007 177.385V133.95H44.0552V137.849L28.1251 150.816C25.5151 147.778 21.6451 145.829 17.3251 145.829C9.40504 145.829 3.01502 152.312 3.01502 160.247C3.01502 168.227 9.45004 174.665 17.3251 174.665C25.0651 174.665 31.3651 168.453 31.6351 160.7H44.0552V177.34H0.945007V177.385Z" fill="#DBDBDB"/>
<path d="M22.9501 221.662H0V244.786V267.003H22.9501H45.0002V244.786V221.662H22.9501ZM22.0051 232H10.2601V243.834H0.945007C1.21501 232.227 10.53 222.841 22.0051 222.615V232ZM33.7502 243.834H22.9501V232.952H33.7502V243.834ZM11.1601 244.786H21.9601V255.668H11.1601V244.786ZM22.9501 244.786H33.7502V255.668H22.9501V244.786ZM22.0051 243.834H11.205V232.952H22.0051V243.834ZM10.215 244.786V256.62H21.9601V266.005C10.4401 265.733 1.125 256.348 0.900004 244.786H10.215ZM22.9501 256.62H34.6952V244.786H44.0102C43.7402 256.393 34.4252 265.778 22.9501 266.005V256.62ZM34.6952 243.834V232H22.9501V222.615C34.4702 222.887 43.7852 232.272 44.0102 243.834H34.6952ZM0.900004 222.615H16.0201C8.77504 224.791 3.06001 230.549 0.900004 237.849V222.615ZM0.900004 266.05V250.816C3.06001 258.116 8.77504 263.874 16.0201 266.05H0.900004ZM28.8901 266.05C36.1351 263.874 41.8502 258.116 44.0102 250.816V266.05H28.8901ZM28.8901 222.615H44.0102V237.849C41.8502 230.549 36.1351 224.791 28.8901 222.615Z" fill="#DBDBDB"/>
<path d="M45.0002 311.335V265.995H0V311.335H45.0002ZM39.6002 267.99C37.9802 270.62 34.9652 275.562 34.9652 281.275C34.9652 283.768 36.4052 286.398 37.7552 288.892C39.0602 291.295 40.4552 293.788 40.4552 296.055C40.4552 300.091 39.1052 301.768 37.7102 303.582C36.4052 305.214 35.1002 306.937 35.0102 310.383H31.3201C31.4101 307.209 32.1752 305.668 33.0302 304.081C33.9752 302.267 34.9652 300.363 34.9652 296.055C34.9652 293.607 34.0202 291.023 33.1202 288.529C32.2201 286.081 31.3201 283.587 31.3201 281.275C31.3201 275.743 33.3002 270.937 34.3352 268.353C34.6052 267.673 34.7852 267.219 34.8752 266.947H40.2752C40.0502 267.219 39.8252 267.582 39.6002 267.99ZM33.4802 268.035C32.4002 270.665 30.4201 275.562 30.4201 281.275C30.4201 283.723 31.3652 286.307 32.2652 288.846C33.1652 291.295 34.0652 293.788 34.0652 296.101C34.0652 300.181 33.1202 301.95 32.2201 303.718C31.3651 305.35 30.5101 307.028 30.4201 310.428H26.6851C26.7301 307.209 27.1351 305.668 27.5401 304.035C27.9901 302.222 28.4851 300.363 28.4851 296.101C28.4851 293.698 28.0351 291.113 27.5851 288.62C27.1351 286.171 26.6851 283.632 26.6851 281.275C26.6851 275.698 27.6751 270.892 28.2151 268.307C28.3501 267.673 28.4401 267.264 28.4851 266.947H33.9302C33.7952 267.264 33.6152 267.627 33.4802 268.035ZM27.3151 268.126C26.7751 270.756 25.7851 275.607 25.7851 281.275C25.7851 283.678 26.2351 286.262 26.6851 288.756C27.1351 291.204 27.5851 293.743 27.5851 296.055C27.5851 300.181 27.0901 301.995 26.6401 303.763C26.2351 305.395 25.7851 307.073 25.7401 310.383H22.8601V266.947H27.5401C27.4951 267.264 27.4051 267.673 27.3151 268.126ZM22.0501 310.383H19.2151C19.1701 307.028 18.7651 305.35 18.3151 303.763C17.8651 301.995 17.3701 300.181 17.3701 296.055C17.3701 293.698 17.8201 291.204 18.2701 288.756C18.7201 286.262 19.1701 283.678 19.1701 281.275C19.1701 275.607 18.1801 270.756 17.6401 268.126C17.5501 267.673 17.4601 267.264 17.4151 266.947H22.0051V310.383H22.0501ZM16.8301 268.307C17.3701 270.892 18.3601 275.698 18.3601 281.275C18.3601 283.632 17.9101 286.171 17.4601 288.62C17.0101 291.113 16.5601 293.652 16.5601 296.101C16.5601 300.317 17.0551 302.222 17.5051 304.035C17.9101 305.668 18.3151 307.209 18.3601 310.428H14.6251C14.5351 307.028 13.6801 305.35 12.8251 303.718C11.9251 301.995 10.9801 300.181 10.9801 296.101C10.9801 293.788 11.8801 291.295 12.7801 288.846C13.6801 286.353 14.6251 283.768 14.6251 281.275C14.6251 275.562 12.6451 270.665 11.5651 268.035C11.3851 267.627 11.2501 267.264 11.1151 266.947H16.5601C16.6051 267.264 16.6951 267.673 16.8301 268.307ZM10.7101 268.353C11.7451 270.937 13.7251 275.743 13.7251 281.275C13.7251 283.587 12.8251 286.081 11.9251 288.529C11.0251 291.023 10.0801 293.607 10.0801 296.055C10.0801 300.363 11.0701 302.222 12.0151 304.081C12.8701 305.668 13.6351 307.209 13.7251 310.383H9.99005C9.85505 306.937 8.55005 305.259 7.29004 303.582C5.89503 301.768 4.54502 300.091 4.54502 296.055C4.54502 293.788 5.89503 291.295 7.24504 288.892C8.64004 286.353 10.0351 283.768 10.0351 281.275C10.0351 275.516 7.02003 270.62 5.40002 267.99C5.17502 267.627 4.95003 267.264 4.77002 266.992H10.17C10.26 267.264 10.4401 267.673 10.7101 268.353ZM44.0552 310.383H35.8652C35.9552 307.254 37.1252 305.758 38.3852 304.126C39.8252 302.267 41.3102 300.363 41.3102 296.055C41.3102 293.562 39.8702 290.977 38.5202 288.438C37.2152 286.035 35.8202 283.496 35.8202 281.229C35.8202 275.743 38.7452 270.982 40.3202 268.398C40.7702 267.673 41.0402 267.219 41.1752 266.902H44.0102V310.383H44.0552ZM0.945007 266.947H3.78003C3.91503 267.264 4.18503 267.718 4.63503 268.443C6.21004 271.028 9.13505 275.788 9.13505 281.275C9.13505 283.542 7.78504 286.035 6.43504 288.484C5.08503 290.977 3.64502 293.607 3.64502 296.101C3.64502 300.408 5.13003 302.358 6.57003 304.171C7.83004 305.758 9.00005 307.3 9.09005 310.428H0.900004V266.947H0.945007Z" fill="#DBDBDB"/>
<path d="M0 310.327V355.668H45.0002V310.327H0ZM43.3802 311.28L38.0252 316.675H6.97503L1.62001 311.28H43.3802ZM37.7552 317.627V348.368H7.24503V317.627H37.7552ZM0.945005 311.96L6.30003 317.355V348.685L0.945005 354.081V311.96ZM1.62001 354.715L6.97503 349.32H38.0702L43.4252 354.715H1.62001ZM44.0552 354.035L38.7002 348.64V317.31L44.0552 311.914V354.035Z" fill="#DBDBDB"/>
<path d="M22.4994 345.058C29.1144 345.058 34.4694 339.662 34.4694 332.997C34.4694 326.332 29.1144 320.937 22.4994 320.937C15.8843 320.937 10.5293 326.332 10.5293 332.997C10.5293 339.617 15.8843 345.058 22.4994 345.058ZM22.4994 321.889C28.5744 321.889 33.5244 326.877 33.5244 332.997C33.5244 339.118 28.5744 344.106 22.4994 344.106C16.4243 344.106 11.4743 339.118 11.4743 332.997C11.4743 326.877 16.4243 321.889 22.4994 321.889Z" fill="#DBDBDB"/>
<path d="M0 177.33V222.67H45.0002V177.33H0ZM0.945007 178.282H21.9151L0.99001 199.365V178.282H0.945007ZM0.945007 221.718V200.635L21.8701 221.718H0.945007ZM22.0501 220.539L1.66501 200L22.0501 179.461V220.539ZM22.9951 178.282H29.7001C26.6851 179.37 24.2551 181.683 22.9951 184.584V178.282ZM44.0552 221.718H22.9501V193.743C24.7051 197.869 28.7551 200.725 33.4802 200.725C38.2052 200.725 42.2552 197.824 44.0102 193.743V221.718H44.0552ZM33.5252 199.819C27.7201 199.819 22.9951 195.058 22.9951 189.209C22.9951 183.36 27.7201 178.599 33.5252 178.599C39.3302 178.599 44.0552 183.36 44.0552 189.209C44.0552 195.058 39.3302 199.819 33.5252 199.819ZM44.0552 184.584C42.7952 181.637 40.3652 179.37 37.3502 178.282H44.0552V184.584Z" fill="#DBDBDB"/>
<path d="M28.416 216.301H38.5568V206.073H28.416V216.301ZM29.3625 207.028H37.6103V215.347H29.3625V207.028Z" fill="#DBDBDB"/>
<path d="M6.96809 370.212H0V384.403H6.96809H13.9362V370.212H6.96809C7.01305 370.212 7.01305 370.212 6.96809 370.212ZM0.989012 371.164H3.55148C2.47255 371.798 1.61839 372.705 0.989012 373.748V371.164ZM0.989012 383.451V380.866C1.61839 381.955 2.47255 382.861 3.55148 383.451H0.989012ZM12.9921 383.451H10.4746C11.5535 382.816 12.4077 381.909 13.0371 380.866V383.451H12.9921ZM7.01304 383.451C3.68634 383.451 0.989012 380.685 0.989012 377.33C0.989012 373.929 3.68634 371.209 7.01304 371.209C10.3397 371.209 13.0371 373.975 13.0371 377.33C12.9921 380.685 10.2948 383.451 7.01304 383.451ZM12.9921 371.164V373.748C12.3627 372.66 11.5086 371.753 10.4297 371.164H12.9921Z" fill="#DBDBDB"/>
<path d="M22.5228 370.212H15.5547V384.403H22.5228H29.4909V370.212H22.5228ZM16.4988 371.164H19.0612C17.9823 371.798 17.1281 372.705 16.4988 373.748V371.164ZM16.4988 383.451V380.866C17.1281 381.955 17.9823 382.861 19.0612 383.451H16.4988ZM28.5468 383.451H25.9844C27.0633 382.816 27.9174 381.909 28.5468 380.866V383.451ZM22.5228 383.451C19.1961 383.451 16.4988 380.685 16.4988 377.33C16.4988 373.929 19.1961 371.209 22.5228 371.209C25.8495 371.209 28.5468 373.975 28.5468 377.33C28.5468 380.685 25.8495 383.451 22.5228 383.451ZM28.5468 371.164V373.748C27.9174 372.66 27.0633 371.753 25.9844 371.164H28.5468Z" fill="#DBDBDB"/>
<path d="M38.0325 370.212H31.0645V384.403H38.0325H45.0006V370.212H38.0325ZM32.0085 371.164H34.571C33.4921 371.798 32.6379 372.705 32.0085 373.748V371.164ZM32.0085 383.451V380.866C32.6379 381.955 33.4921 382.861 34.571 383.451H32.0085ZM44.0566 383.451H41.4941C42.5731 382.816 43.4272 381.909 44.0566 380.866V383.451ZM38.0325 383.451C34.7058 383.451 32.0085 380.685 32.0085 377.33C32.0085 373.929 34.7058 371.209 38.0325 371.209C41.3593 371.209 44.0566 373.975 44.0566 377.33C44.0566 380.685 41.3593 383.451 38.0325 383.451ZM44.0566 371.164V373.748C43.4272 372.66 42.5731 371.753 41.4941 371.164H44.0566Z" fill="#DBDBDB"/>
<path d="M0.0429688 368.806H13.9342V354.66H0.0429688V368.806ZM12.9901 367.854H10.4726C11.5516 367.219 12.4057 366.312 13.0351 365.27V367.854H12.9901ZM12.9901 355.612V358.196C12.3608 357.108 11.5066 356.202 10.4277 355.612H12.9901ZM0.987036 355.612H3.5495C2.47057 356.247 1.61641 357.154 0.987036 358.196V355.612ZM6.96612 355.612C10.2928 355.612 12.9901 358.378 12.9901 361.733C12.9901 365.133 10.2928 367.854 6.96612 367.854C3.63942 367.854 0.942078 365.088 0.942078 361.733C0.987033 358.332 3.68437 355.612 6.96612 355.612ZM0.987036 365.27C1.61641 366.358 2.47057 367.264 3.5495 367.854H0.987036V365.27Z" fill="#DBDBDB"/>
<path d="M15.5547 368.806H29.4459V354.66H15.5547V368.806ZM28.5468 367.854H25.9844C27.0633 367.219 27.9174 366.312 28.5468 365.27V367.854ZM28.5468 355.612V358.196C27.9174 357.108 27.0633 356.202 25.9844 355.612H28.5468ZM16.4988 355.612H19.0612C17.9823 356.247 17.1281 357.154 16.4988 358.196V355.612ZM22.5228 355.612C25.8495 355.612 28.5468 358.378 28.5468 361.733C28.5468 365.133 25.8495 367.854 22.5228 367.854C19.1961 367.854 16.4988 365.088 16.4988 361.733C16.4988 358.332 19.1961 355.612 22.5228 355.612ZM16.4988 365.27C17.1281 366.358 17.9823 367.264 19.0612 367.854H16.4988V365.27Z" fill="#DBDBDB"/>
<path d="M31.0645 354.66V368.851H44.9557V354.66H31.0645ZM32.0085 355.612H34.571C33.4921 356.247 32.6379 357.154 32.0085 358.196V355.612ZM32.0085 367.854V365.27C32.6379 366.358 33.4921 367.264 34.571 367.854H32.0085ZM44.0566 367.854H41.4941C42.5731 367.219 43.4272 366.312 44.0566 365.27V367.854ZM38.0325 367.854C34.7058 367.854 32.0085 365.088 32.0085 361.733C32.0085 358.332 34.7058 355.612 38.0325 355.612C41.3593 355.612 44.0566 358.378 44.0566 361.733C44.0566 365.088 41.3593 367.854 38.0325 367.854ZM44.0566 358.196C43.4272 357.108 42.5731 356.202 41.4941 355.612H44.0566V358.196Z" fill="#DBDBDB"/>
<path d="M0.0429688 400H13.9342V385.809H0.0429688V400ZM12.9901 399.048H10.4726C11.5516 398.413 12.4057 397.506 13.0351 396.463V399.048H12.9901ZM12.9901 386.761V389.345C12.3608 388.257 11.5066 387.35 10.4277 386.761H12.9901ZM0.987036 386.761H3.5495C2.47057 387.395 1.61641 388.302 0.987036 389.345V386.761ZM6.96612 386.761C10.2928 386.761 12.9901 389.526 12.9901 392.882C12.9901 396.282 10.2928 399.003 6.96612 399.003C3.63942 399.003 0.942078 396.237 0.942078 392.882C0.987033 389.526 3.68437 386.761 6.96612 386.761ZM0.987036 396.418C1.61641 397.506 2.47057 398.413 3.5495 399.003H0.987036V396.418Z" fill="#DBDBDB"/>
<path d="M15.5547 400H29.4459V385.809H15.5547V400ZM28.5468 399.048H25.9844C27.0633 398.413 27.9174 397.506 28.5468 396.463V399.048ZM28.5468 386.761V389.345C27.9174 388.257 27.0633 387.35 25.9844 386.761H28.5468ZM16.4988 386.761H19.0612C17.9823 387.395 17.1281 388.302 16.4988 389.345V386.761ZM22.5228 386.761C25.8495 386.761 28.5468 389.526 28.5468 392.882C28.5468 396.282 25.8495 399.003 22.5228 399.003C19.1961 399.003 16.4988 396.237 16.4988 392.882C16.4988 389.526 19.1961 386.761 22.5228 386.761ZM16.4988 396.418C17.1281 397.506 17.9823 398.413 19.0612 399.003H16.4988V396.418Z" fill="#DBDBDB"/>
<path d="M31.0645 400H44.9557V385.809H31.0645V400ZM44.0566 399.048H41.4941C42.5731 398.413 43.4272 397.506 44.0566 396.463V399.048ZM44.0566 386.761V389.345C43.4272 388.257 42.5731 387.35 41.4941 386.761H44.0566ZM32.0085 386.761H34.571C33.4921 387.395 32.6379 388.302 32.0085 389.345V386.761ZM38.0325 386.761C41.3593 386.761 44.0566 389.526 44.0566 392.882C44.0566 396.282 41.3593 399.003 38.0325 399.003C34.7058 399.003 32.0085 396.237 32.0085 392.882C32.0085 389.526 34.7058 386.761 38.0325 386.761ZM32.0085 396.418C32.6379 397.506 33.4921 398.413 34.571 399.003H32.0085V396.418Z" fill="#DBDBDB"/>
</svg>
