<svg width="228" height="47" viewBox="0 0 228 47" fill="none" xmlns="http://www.w3.org/2000/svg">
<path d="M98.7571 36.0976C98.4236 35.9852 98.0407 35.9227 97.6331 35.9227C97.2254 35.9227 96.8549 35.9852 96.509 36.1101C96.1631 36.2351 95.9408 36.3475 95.842 36.4225C95.7432 36.4975 95.669 36.5724 95.6196 36.6224V45.3563L95.8173 45.5312C95.9408 45.6437 96.1878 45.7686 96.5214 45.8811C97.176 46.1185 98.0778 46.1185 98.7695 45.8561C99.1154 45.7312 99.3377 45.6187 99.4365 45.5437C99.5353 45.4688 99.5971 45.4063 99.6465 45.3563V43.5196H98.3001V44.6816L98.226 44.7316C98.1148 44.8065 97.8678 44.8815 97.6331 44.8815C97.349 44.894 97.139 44.819 96.966 44.6816V37.3096L97.0278 37.2472C97.139 37.1722 97.386 37.0972 97.6207 37.0972C97.9048 37.0972 98.1272 37.1597 98.2878 37.3096V38.4592H99.6342V36.6224L99.4489 36.46C99.3377 36.3475 99.103 36.2226 98.7571 36.0976Z" fill="black"/>
<path d="M101.401 37.2347H101.413V44.7316H101.401V45.9186H102.759V44.7316V37.2347V36.0726H101.401V37.2347Z" fill="black"/>
<path d="M104.118 37.4221H105.526V45.9186H106.848V37.4221H108.269V36.285H104.118V37.4221Z" fill="black"/>
<path d="M111.493 39.9085L111.369 40.8956H111.27L111.159 39.9085L110.146 36.285H108.726L110.665 42.0077V45.9186H111.974V42.0077L113.914 36.285H112.493L111.493 39.9085Z" fill="black"/>
<path d="M119.719 36.0976C119.386 35.9852 119.015 35.9227 118.608 35.9227C118.2 35.9227 117.817 35.9852 117.471 36.1101C117.125 36.2351 116.903 36.3475 116.804 36.4225C116.705 36.4975 116.631 36.5724 116.582 36.6224V40.1335L119.262 42.3326V44.6691L119.176 44.7191C119.077 44.794 118.842 44.869 118.595 44.869C118.311 44.8815 118.089 44.8065 117.928 44.6691V43.2322H116.582V45.3563L116.779 45.5312C116.903 45.6437 117.15 45.7686 117.484 45.8811C117.817 46.006 118.188 46.056 118.595 46.056C119.003 46.056 119.386 45.9935 119.732 45.8561C120.077 45.7312 120.3 45.6187 120.399 45.5437C120.497 45.4688 120.572 45.4063 120.621 45.3563V41.6079L117.928 39.4088V37.3096L118.015 37.2472C118.101 37.1722 118.348 37.0972 118.595 37.0972C118.879 37.0972 119.089 37.1597 119.262 37.3096V38.7465H120.609V36.6349L120.399 36.4725C120.287 36.3475 120.053 36.2226 119.719 36.0976Z" fill="black"/>
<path d="M125.969 37.2097C125.871 36.9972 125.759 36.7848 125.636 36.5974C125.389 36.2101 125.302 36.1351 125.253 36.0726H122.202V45.9186H123.548V42.0951H125.241L125.5 41.7578C125.685 41.5329 125.871 41.1705 126.056 40.6707C126.241 40.1709 126.34 39.6462 126.34 39.0964C126.34 38.7465 126.303 38.4092 126.229 38.0593C126.142 37.697 126.056 37.4221 125.969 37.2097ZM124.574 40.9206H123.536V37.2347H124.574L124.672 37.4346C124.746 37.5595 124.821 37.7844 124.895 38.0968C124.956 38.4092 124.994 38.734 124.994 39.0839C124.994 39.8836 124.858 40.5083 124.574 40.9206Z" fill="black"/>
<path d="M128.354 36.0726L126.674 45.9186H128.008L128.255 44.1693H129.861L130.108 45.9186H131.442L129.762 36.0726H128.354ZM128.415 43.0073L128.909 39.7086L128.971 38.5216H129.119L129.193 39.7086L129.675 43.0073H128.415Z" fill="black"/>
<path d="M135.654 36.0976C135.32 35.9852 134.937 35.9227 134.53 35.9227C134.122 35.9227 133.752 35.9852 133.406 36.1101C133.06 36.2351 132.838 36.3475 132.739 36.4225C132.64 36.4975 132.566 36.5724 132.516 36.6224V45.3563L132.714 45.5312C132.838 45.6437 133.085 45.7686 133.418 45.8811C134.073 46.1185 134.974 46.1185 135.666 45.8561C136.012 45.7312 136.234 45.6187 136.333 45.5437C136.432 45.4688 136.494 45.4063 136.543 45.3563V43.5196H135.197V44.6816L135.123 44.7316C135.012 44.8065 134.764 44.8815 134.53 44.8815C134.246 44.894 134.036 44.819 133.863 44.6816V37.3096L133.925 37.2472C134.036 37.1722 134.283 37.0972 134.517 37.0972C134.802 37.0972 135.024 37.1597 135.184 37.3096V38.4592H136.531V36.6224L136.346 36.46C136.234 36.3475 136 36.2226 135.654 36.0976Z" fill="black"/>
<path d="M138.062 45.9186H141.348V44.7441H139.409V41.4829H141.039V40.3209H139.409V37.2347H141.348V36.0726H138.062V45.9186Z" fill="black"/>
<path d="M43.6163 19.6294L43.7028 23.4278H43.6163L28.6452 0.46228H24.2478V27.3012H25.8042V8.13412L25.7301 4.33568H25.8042L40.7753 27.3012H45.1727V0.46228H43.6163V19.6294Z" fill="black"/>
<path d="M59.8349 0.46228H50.3977V27.3012H59.8349C63.4789 27.3012 66.3199 26.1267 68.3704 23.7777C70.3962 21.4286 71.3967 18.13 71.3967 13.8817C71.3967 9.6335 70.3838 6.33486 68.3704 3.98583C66.3199 1.6368 63.4665 0.46228 59.8349 0.46228ZM67.2587 20.479C65.517 22.0659 63.0342 22.853 59.8226 22.853H51.9788V4.91045H59.8226C63.0342 4.91045 65.5046 5.71012 67.2587 7.32195C68.951 8.88381 69.8033 11.0704 69.8033 13.8817C69.8033 16.7431 68.951 18.9422 67.2587 20.479Z" fill="black"/>
<path d="M87.8501 16.793C90.1476 16.5431 91.914 15.706 93.1616 14.3066C94.4215 12.9071 95.0515 11.0204 95.0515 8.67139C95.0515 6.05997 94.298 4.0483 92.7786 2.61139C91.2593 1.17449 89.1224 0.46228 86.3678 0.46228H76.3994V27.3012H77.9929V16.868H86.1084L93.9521 27.3012H95.7679L87.8501 16.793ZM77.9929 12.4198V4.91045H86.3678C91.0987 4.91045 93.458 6.15993 93.458 8.67139C93.458 11.1829 91.0987 12.4323 86.3678 12.4323H77.9929V12.4198Z" fill="black"/>
<path d="M101.29 27.3012H102.846V22.853V4.91045V0.46228H101.29V27.3012Z" fill="black"/>
<path d="M134.752 22.853V4.91045V0.46228H133.195V27.3012H134.752V22.853Z" fill="black"/>
<path d="M150.637 19.6294L149.303 24.5398H149.229L147.796 19.6294L141.459 0.46228H139.755L148.624 27.3012H152.762L161.668 0.46228H156.999L150.637 19.6294Z" fill="black"/>
<path d="M183.877 14.3441C182.667 13.7068 180.604 13.232 177.701 12.9197C174.539 12.6073 172.464 12.2699 171.488 11.8826C169.598 11.1454 168.647 9.79596 168.647 7.85926C168.647 6.60977 169.277 5.71014 170.537 5.17287C171.747 4.68557 173.798 4.44816 176.676 4.44816C179.764 4.44816 181.901 4.83551 183.124 5.59769C184.211 6.3099 184.754 7.55938 184.754 9.32116V10.0084H186.348V9.32116C186.348 3.11122 183.124 0 176.676 0C173.514 0 171.08 0.787175 169.363 2.37402C167.819 3.78594 167.053 5.61019 167.053 7.85926C167.053 10.2333 168.005 11.9076 169.895 12.8822C171.105 13.5194 173.18 13.9692 176.108 14.2191C179.221 14.5315 181.271 14.8814 182.284 15.2937C184.174 16.0309 185.125 17.3928 185.125 19.3545C185.125 20.7914 184.458 21.8035 183.112 22.4282C181.827 23.0155 179.678 23.3154 176.664 23.3154C173.477 23.3154 171.266 22.9155 170.03 22.1284C168.845 21.3912 168.252 20.1042 168.252 18.2925V17.6052H166.658V18.2925C166.658 24.6024 169.993 27.7635 176.664 27.7635C179.9 27.7635 182.42 26.8889 184.248 25.1521C185.891 23.6153 186.706 21.6911 186.706 19.367C186.718 16.993 185.78 15.3187 183.877 14.3441Z" fill="black"/>
<path d="M211.374 0.412354H205.655L197.267 10.9205H193.821V0.412354H192.228V27.2513H193.821V15.3687H199.503L209.78 27.2513H212.288L200.763 13.7194L211.374 0.412354Z" fill="black"/>
<path d="M227.914 14.644L226.481 11.3453L220.947 0.299896H216.129L225.604 19.2421V27.1388H226.16H227.197H228V17.6552V14.644H227.914Z" fill="black"/>
<path d="M117.187 27.3012H117.743H118.781H119.584V17.8176L128.304 0.46228H126.587L121.053 11.5077L119.584 14.8064H119.509L118.064 11.5077L112.53 0.46228H107.713L117.187 19.4045V27.3012Z" fill="black"/>
<path d="M7.0532 0.46228L0 14.8064V27.3012H2.38401V19.4045L2.594 18.9921H17.8245V27.3012H19.3932V0.46228H7.0532ZM17.8245 15.706H4.23686L9.59779 4.99791H17.8368V15.706H17.8245Z" fill="black"/>
</svg>
