<svg width="91" height="79" viewBox="0 0 91 79" fill="none" xmlns="http://www.w3.org/2000/svg">
<path d="M7.23562 67.6724V76.2753H5.07449V72.7302H2.16113V76.2753H0V67.6724H2.16113V70.939H5.07449V67.6724H7.23562Z" fill="#3C3C3B"/>
<path d="M9.10986 71.8615C9.10986 69.3762 10.7432 67.4645 13.5984 67.4645C16.3538 67.4645 17.9289 69.4344 17.9289 72.0153C17.9289 74.5588 16.3787 76.483 13.6815 76.483C10.7847 76.483 9.10986 74.5837 9.10986 71.8615ZM15.6265 72.0153C15.6265 70.436 14.9033 69.2516 13.5942 69.2516C12.1895 69.2516 11.3915 70.3695 11.3915 71.8615C11.3915 73.4658 12.2144 74.6959 13.6773 74.6959C14.9033 74.6959 15.6265 73.4658 15.6265 72.0153Z" fill="#3C3C3B"/>
<path d="M22.9122 67.6724C24.9985 67.6724 25.7673 68.6199 25.7673 69.9623C25.7673 70.5483 25.5263 71.1094 25.1564 71.5832C25.9253 72.086 26.4198 72.8674 26.4198 73.8025C26.4198 75.1989 25.2395 76.2753 23.1532 76.2753H19.7993V67.6724H22.9122ZM21.9604 69.4594V70.939H22.8415C23.3236 70.939 23.5231 70.5483 23.5231 70.1161C23.5231 69.8086 23.3111 69.4594 22.8415 69.4594H21.9604ZM22.9704 72.7261H21.9604V74.4841H23.0701C23.6686 74.4841 24.0218 74.164 24.0218 73.5614C24.0218 73.0918 23.7392 72.7427 22.9704 72.7261Z" fill="#3C3C3B"/>
<path d="M30.397 67.6724V72.4892L33.5514 67.6724H35.725V76.2753H33.5514V71.3587L30.397 76.2753H28.2358V67.6724H30.397Z" fill="#3C3C3B"/>
<path d="M40.2134 67.6723V72.4892L43.3678 67.6723H45.5414V76.2753H43.3678V71.3587L40.2134 76.2753H38.0522V67.6723H40.2134ZM40.9074 64.1938C41.0072 64.8213 41.5059 65.3658 42.0586 65.3658C42.628 65.3658 43.0976 64.9169 43.3221 64.1647L44.5439 64.5262C44.2447 65.8811 43.4218 66.9284 42.042 66.9284C40.6373 66.9284 39.8102 65.9102 39.5983 64.4971L40.9074 64.1938Z" fill="#3C3C3B"/>
<path d="M58.45 67.6724V76.2753H56.2888V69.4594H53.3755V76.2753H51.2144V67.6724H58.45Z" fill="#3C3C3B"/>
<path d="M60.3203 71.8615C60.3203 69.3762 61.9536 67.4645 64.8088 67.4645C67.5642 67.4645 69.1394 69.4344 69.1394 72.0153C69.1394 74.5588 67.5892 76.483 64.8919 76.483C61.9993 76.483 60.3203 74.5837 60.3203 71.8615ZM66.8411 72.0153C66.8411 70.436 66.1179 69.2516 64.8088 69.2516C63.4041 69.2516 62.6061 70.3695 62.6061 71.8615C62.6061 73.4658 63.429 74.6959 64.8919 74.6959C66.1179 74.6959 66.8411 73.4658 66.8411 72.0153Z" fill="#3C3C3B"/>
<path d="M70.9597 74.4882C71.741 72.2938 72.0943 70.033 72.1234 67.6724H77.3932V74.4882H78.2327V78.2286H76.4124V76.2753H71.8823V78.2286H70.062V74.4882H70.9597ZM73.1749 74.4882H75.2362V69.4594H74.1017C73.9437 71.2465 73.6611 72.9505 73.1749 74.4882Z" fill="#3C3C3B"/>
<path d="M82.293 67.6724V76.2753H80.1318V67.6724H82.293Z" fill="#3C3C3B"/>
<path d="M90.9999 67.6724V76.2753H88.8263V69.4594H87.646L87.193 73.5656C87.0351 74.9745 86.1291 76.2878 83.8267 76.2878V74.5132C84.9363 74.5132 85.0901 73.9978 85.2189 72.8383L85.7883 67.6724H90.9999Z" fill="#3C3C3B"/>
<path d="M13.054 15.7181C13.5402 15.9092 13.9641 16.1254 14.3714 16.3332C14.9325 16.6199 15.4603 16.8901 16.0338 17.0231C16.9606 17.2392 17.5882 17.0605 18.4277 16.6573C18.6895 16.5326 18.9472 16.3872 19.2132 16.2417C19.9779 15.822 20.8423 15.344 21.9645 15.1612C23.5063 14.916 24.695 15.2069 26.0041 15.7181C26.4904 15.9092 26.9143 16.1254 27.3216 16.3332C27.8826 16.6199 28.4104 16.8901 28.984 17.0231C29.9108 17.2392 30.5383 17.0605 31.3778 16.6573C31.6397 16.5326 31.8973 16.3872 32.1633 16.2417C32.928 15.822 33.7925 15.344 34.9146 15.1612C35.6876 15.0365 36.3734 15.049 37.03 15.157C37.3583 13.4073 37.8778 11.7241 38.5677 10.1282C37.3874 9.67939 36.3609 9.45081 35.0143 9.66692C34.0003 9.82901 33.2189 10.2612 32.4667 10.6768C32.1924 10.8306 31.9223 10.9761 31.6521 11.1091C30.7087 11.5621 29.9482 11.7782 28.8468 11.5205C28.1985 11.3709 27.6374 11.0841 27.0431 10.7807C26.6483 10.5771 26.2368 10.3693 25.7797 10.1906C24.5287 9.70017 23.4731 9.4425 22.0642 9.67108C21.0501 9.83316 20.2688 10.2654 19.5166 10.681C19.2423 10.8348 18.9721 10.9802 18.702 11.1132C18.037 11.4332 17.4593 11.6369 16.7902 11.6369C16.5118 11.6369 16.2167 11.6036 15.8967 11.5288C15.2483 11.3792 14.6873 11.0924 14.093 10.789C13.6982 10.5854 13.2867 10.3776 12.8296 10.1989C11.9983 9.87472 11.2461 9.65446 10.4274 9.60874C10.203 9.98278 9.99099 10.361 9.7915 10.7516V15.0947C10.9718 15.0282 11.9734 15.2942 13.054 15.7181Z" fill="#1798D5"/>
<path d="M18.428 4.43763C18.6899 4.31295 18.9475 4.16749 19.2135 4.02203C19.9782 3.60227 20.8427 3.12433 21.9648 2.94562C23.5067 2.70042 24.6953 2.99134 26.0044 3.50253C26.4907 3.6937 26.9146 3.90982 27.3219 4.11762C27.883 4.40438 28.4108 4.67452 28.9843 4.80751C29.9111 5.02363 30.5386 4.84492 31.3782 4.44179C31.64 4.31711 31.8977 4.17165 32.1636 4.02619C32.9283 3.60643 33.7928 3.12849 34.9149 2.94978C36.3737 2.71704 37.5207 2.9664 38.7509 3.43188C35.5591 1.27491 31.694 0.00732422 27.5255 0.00732422C22.7586 0.00732422 18.3865 1.66142 14.9619 4.41269C15.3152 4.57893 15.6643 4.72439 16.0383 4.81167C16.961 5.01947 17.5927 4.84076 18.428 4.43763Z" fill="#1798D5"/>
<path d="M14.3713 10.2238C14.9324 10.5106 15.4602 10.7807 16.0337 10.9137C16.9605 11.1298 17.588 10.9511 18.4276 10.548C18.6894 10.4233 18.9471 10.2778 19.213 10.1324C19.9777 9.71261 20.8422 9.23467 21.9643 9.0518C23.5062 8.8066 24.6948 9.09752 26.004 9.60871C26.4902 9.79988 26.9141 10.016 27.3214 10.2238C27.8825 10.5106 28.4103 10.7807 28.9838 10.9137C29.9106 11.1298 30.5382 10.9511 31.3777 10.548C31.6395 10.4233 31.8972 10.2778 32.1632 10.1324C32.9279 9.71261 33.7923 9.23467 34.9144 9.0518C36.4023 8.81491 37.5618 9.07674 38.8211 9.55884C39.4113 8.2871 40.1095 7.07354 40.9033 5.93064C41.0861 5.67297 41.0653 5.33217 40.8659 5.09528C40.5708 4.96644 40.284 4.82098 39.9889 4.66721C39.5941 4.46357 39.1827 4.25576 38.7255 4.07706C37.4746 3.58665 36.4189 3.32897 35.01 3.55755C33.996 3.71964 33.2146 4.15186 32.4624 4.56747C32.1881 4.72124 31.918 4.8667 31.6478 4.99969C30.7044 5.4527 29.9439 5.66881 28.8425 5.41114C28.1942 5.26152 27.6331 4.97475 27.0388 4.67137C26.644 4.46772 26.2325 4.25992 25.7754 4.08121C24.5244 3.5908 23.4688 3.33313 22.0599 3.56171C21.0458 3.7238 20.2645 4.15602 19.5123 4.57162C19.238 4.72539 18.9678 4.87086 18.6977 5.00385C18.0327 5.32386 17.4551 5.52751 16.7859 5.52751C16.5075 5.52751 16.2124 5.49426 15.8924 5.41945C15.3687 5.29892 14.9074 5.08697 14.4336 4.85423C13.0331 6.06363 11.8029 7.46421 10.793 9.0144C11.566 9.10167 12.2891 9.31779 13.0497 9.61702C13.5401 9.79988 13.964 10.016 14.3713 10.2238Z" fill="#1798D5"/>
<path d="M27.0724 23.0159C27.06 23.0118 27.0517 23.0035 27.0392 22.9993C26.6444 22.7957 26.2329 22.5879 25.7758 22.4091C24.5248 21.9187 23.4692 21.6611 22.0603 21.8896C21.0462 22.0517 20.2649 22.484 19.5127 22.8996C19.2384 23.0533 18.9682 23.1988 18.6981 23.3318C18.0331 23.6518 17.4554 23.8554 16.7863 23.8554C16.5079 23.8554 16.2128 23.8222 15.8928 23.7474C15.2444 23.5978 14.6834 23.311 14.0891 23.0076C13.6942 22.804 13.2828 22.5962 12.8256 22.4175C11.7866 22.0102 10.8723 21.7691 9.7876 21.8273V27.2052C9.82916 27.201 9.86656 27.1969 9.90812 27.1886L27.0724 23.0159Z" fill="#1798D5"/>
<path d="M9.7873 21.1957V15.7097C9.57118 15.7222 9.34676 15.743 9.10986 15.7804C8.69842 15.8469 8.32438 15.9591 7.97527 16.0962C7.77579 17.21 7.66357 18.3571 7.66357 19.5291C7.66357 20.2356 7.70513 20.9297 7.77994 21.6154C8.15814 21.4699 8.56543 21.3494 9.01428 21.2788C9.28442 21.2289 9.53793 21.2081 9.7873 21.1957Z" fill="#1798D5"/>
<path d="M9.114 21.8855C8.65268 21.9603 8.2454 22.0892 7.85889 22.2471C8.08331 23.8222 8.49476 25.335 9.0766 26.7647C9.19297 27.0473 9.48389 27.2135 9.78728 27.1928V21.8149C9.57116 21.8315 9.34674 21.8481 9.114 21.8855Z" fill="#1798D5"/>
<path d="M9.78742 15.0863V10.7433C9.04349 12.1937 8.47412 13.7522 8.1167 15.3855C8.39931 15.2941 8.69439 15.2152 9.0144 15.1653C9.28454 15.1196 9.53806 15.0988 9.78742 15.0863Z" fill="#1798D5"/>
<path d="M35.0104 15.7762C33.9964 15.9383 33.215 16.3705 32.4628 16.7861C32.1885 16.9399 31.9184 17.0854 31.6482 17.2183C30.7048 17.6713 29.9442 17.8875 28.8429 17.6298C28.1946 17.4802 27.6335 17.1934 27.0392 16.89C26.6444 16.6864 26.2329 16.4786 25.7758 16.2999C24.5248 15.8095 23.4692 15.5518 22.0603 15.7804C21.0462 15.9424 20.2649 16.3747 19.5127 16.7903C19.2384 16.944 18.9682 17.0895 18.6981 17.2225C18.0331 17.5425 17.4554 17.7462 16.7863 17.7462C16.5079 17.7462 16.2128 17.7129 15.8928 17.6381C15.2444 17.4885 14.6834 17.2017 14.0891 16.8983C13.6942 16.6947 13.2828 16.4869 12.8256 16.3082C11.7866 15.9009 10.8765 15.6598 9.7876 15.718V21.204C10.9679 21.1458 11.9695 21.4118 13.0501 21.8357C13.5363 22.0268 13.9602 22.243 14.3675 22.4508C14.9286 22.7375 15.4564 23.0077 16.0299 23.1407C16.9567 23.3568 17.5843 23.1781 18.4238 22.7749C18.6856 22.6502 18.9433 22.5048 19.2093 22.3593C19.974 21.9396 20.8384 21.4616 21.9605 21.2829C23.5024 21.0377 24.691 21.3286 26.0002 21.8398C26.4864 22.031 26.9104 22.2471 27.3176 22.4549C27.5545 22.5754 27.7831 22.6918 28.0159 22.7957L36.0827 20.8382C36.411 20.7593 36.6313 20.4642 36.623 20.1359C36.6188 19.9322 36.6146 19.7327 36.6146 19.5291C36.6146 19.4917 36.6188 19.4584 36.6188 19.421C36.623 18.1825 36.7269 16.969 36.9139 15.7804C36.3237 15.6723 35.7128 15.664 35.0104 15.7762Z" fill="#1798D5"/>
<path d="M44.5897 37.5247L44.465 37.4208L44.3487 37.3086C40.7537 33.9172 38.3266 29.6781 37.2585 25.0359C37.1172 24.4208 36.4813 24.0467 35.8579 24.2005L33.6428 24.7532C33.1316 24.8821 32.7783 25.3309 32.7783 25.8463V48.8539C32.7783 49.1864 32.9279 49.5023 33.1856 49.7184L44.1616 58.8408C44.4276 59.0611 44.8141 59.0611 45.076 58.8408L57.598 48.4342L57.5107 48.2638L44.5897 37.5247Z" fill="#AFBE2D"/>
<path d="M26.133 26.6234L11.0425 30.3846C11.0591 30.4095 11.0757 30.4303 11.0924 30.4552C11.2087 30.6215 11.3251 30.7877 11.4415 30.9498C11.4581 30.9747 11.4789 30.9997 11.4955 31.0205C11.616 31.1825 11.7407 31.3488 11.8654 31.5067C11.9111 31.5649 11.9568 31.6189 12.0025 31.6729C12.1064 31.7976 12.2062 31.9265 12.3101 32.0511C12.4555 32.2215 12.601 32.3878 12.7506 32.5499C12.7631 32.5623 12.7714 32.5748 12.7838 32.5914C13.0956 32.9322 13.4197 33.2605 13.7564 33.5806C13.7771 33.6013 13.8021 33.6221 13.8229 33.6387L16.3456 35.7334L25.6675 43.4802C26.4156 44.0994 27.5585 43.5799 27.5585 42.6157V27.7164C27.5668 26.985 26.8603 26.4447 26.133 26.6234Z" fill="#AE7F47"/>
<path d="M55.4202 16.142V15.9674C55.4161 15.236 54.7137 14.6998 53.9906 14.8785L41.9132 17.8584C41.8675 18.3779 41.8384 18.9057 41.8342 19.4377C41.8342 19.4668 41.8301 19.4959 41.8301 19.525C41.8301 25.0483 44.1658 30.0313 47.9145 33.5806C47.9394 33.6014 47.9602 33.6221 47.9851 33.6429L55.52 39.906L55.4202 16.142Z" fill="#83529B"/>
<path d="M55.4204 16.142L55.5243 39.906L55.4204 16.142Z" fill="#9975B0"/>
<path d="M79.2343 10.3692C75.897 4.20173 69.2973 0 61.6959 0C51.3018 0 42.7778 7.85486 41.9175 17.8584L53.9948 14.8785C54.718 14.6998 55.4204 15.2359 55.4245 15.9674V16.1419C55.4245 15.3606 56.2142 14.812 56.9622 15.078L58.1218 15.4894L67.9383 18.9805C68.3913 19.1426 68.6947 19.5707 68.6947 20.0486L68.7154 24.8363L71.1716 24.2295C71.7493 24.0882 72.3104 24.4041 72.514 24.9111C72.5805 24.4997 73.0335 24.0259 73.9063 24.3916L79.6873 26.5278C79.9159 26.6109 80.0655 26.852 79.9949 27.0806C80.9923 24.7574 81.545 22.2014 81.545 19.5208C81.5492 16.2167 80.7097 13.0997 79.2343 10.3692Z" fill="#FFDA05"/>
<path d="M72.5139 24.9153C72.3103 24.4083 71.7492 24.0883 71.1715 24.2337L68.7153 24.8405L68.8026 39.1205L72.5555 36.0035L72.5056 25.0317C72.5056 24.9943 72.5098 24.9569 72.5139 24.9153Z" fill="#83529B"/>
<path d="M79.6913 26.5319L73.9103 24.3958C73.0334 24.03 72.5804 24.5038 72.5181 24.9153C72.5679 25.0399 72.6054 25.1771 72.6054 25.3225L72.6511 35.9287L75.3982 33.6429C75.4231 33.6221 75.4439 33.6013 75.4688 33.5805C77.3972 31.756 78.9474 29.5451 80.003 27.0847C80.0695 26.8561 79.9158 26.6151 79.6913 26.5319Z" fill="#9975B0"/>
<path d="M72.5142 24.9153C72.5059 24.9568 72.5059 24.9942 72.5059 25.0358L72.5557 36.0077L72.6472 35.9329L72.6015 25.3267C72.6015 25.1771 72.5682 25.0441 72.5142 24.9153Z" fill="#9975B0"/>
<path d="M64.8961 41.1072L64.7091 40.9534C64.6842 40.9327 64.6634 40.9119 64.6385 40.8911C61.2056 37.666 58.9489 33.244 58.5582 28.3025C58.5166 27.7581 58.8907 27.2635 59.4227 27.1347L68.7113 24.8406L68.6906 20.0529C68.6906 19.5708 68.3872 19.1427 67.9342 18.9848L58.1177 15.4937L56.9581 15.0823C56.2101 14.8163 55.4163 15.3649 55.4204 16.1462V16.1504L55.5243 39.9144L61.6918 45.0388H61.696L66.7331 40.8495L66.3798 41.1072C65.9559 41.4605 65.3283 41.4605 64.8961 41.1072Z" fill="#9975B0"/>
<path d="M68.7155 24.8405L59.4268 27.1346C58.8948 27.2676 58.5166 27.758 58.5623 28.3025C58.953 33.244 61.2097 37.6701 64.6426 40.891C64.6675 40.9118 64.6883 40.9326 64.7132 40.9534L64.9003 41.1071C65.3283 41.4604 65.9559 41.4604 66.3839 41.103L66.7372 40.8453L68.8069 39.1247L68.7155 24.8405Z" fill="#9975B0"/>
<path d="M9.78763 21.819V21.1956C9.53827 21.2081 9.28059 21.2289 9.01461 21.2704C8.56576 21.3411 8.15847 21.4616 7.78027 21.6071C7.80521 21.8232 7.83015 22.0351 7.85924 22.2471C8.24159 22.0892 8.65304 21.9603 9.11435 21.8855C9.34709 21.8481 9.57151 21.8315 9.78763 21.819Z" fill="white"/>
<path d="M26.0041 21.8274C24.695 21.3162 23.5063 21.0253 21.9645 21.2705C20.8423 21.4492 19.9779 21.9272 19.2132 22.3469C18.9472 22.4924 18.6895 22.6378 18.4277 22.7625C17.5923 23.1657 16.9606 23.3444 16.0338 23.1283C15.4603 22.9953 14.9325 22.7251 14.3714 22.4384C13.96 22.2306 13.5361 22.0144 13.054 21.8233C11.9734 21.3994 10.9718 21.1334 9.7915 21.1916V21.815C10.8762 21.7568 11.7864 21.9978 12.8295 22.4051C13.2867 22.5838 13.694 22.7916 14.093 22.9953C14.6873 23.2987 15.2483 23.5854 15.8967 23.735C16.2209 23.8098 16.5118 23.8431 16.7902 23.8431C17.4593 23.8431 18.0329 23.6436 18.702 23.3194C18.9721 23.1864 19.2423 23.041 19.5166 22.8872C20.2688 22.4716 21.0501 22.0394 22.0642 21.8773C23.4689 21.6529 24.5287 21.9105 25.7797 22.3968C26.2368 22.5755 26.6441 22.7833 27.0431 22.987C27.0556 22.9911 27.0639 22.9994 27.0763 23.0036L28.0239 22.775C27.7912 22.6669 27.5626 22.5547 27.3257 22.4342C26.9143 22.2347 26.4904 22.0186 26.0041 21.8274Z" fill="white"/>
<path d="M9.78761 15.7098V15.0864C9.53825 15.0988 9.28057 15.1196 9.01459 15.1612C8.69458 15.211 8.3995 15.29 8.11689 15.3814C8.06702 15.6183 8.0213 15.8552 7.97559 16.0921C8.32469 15.955 8.69873 15.8428 9.11018 15.7763C9.34707 15.7389 9.57149 15.7222 9.78761 15.7098Z" fill="white"/>
<path d="M34.9146 15.1612C33.7925 15.3399 32.928 15.8179 32.1633 16.2418C31.8973 16.3872 31.6396 16.5327 31.3778 16.6574C30.5425 17.0605 29.9108 17.2392 28.984 17.0231C28.4104 16.8901 27.8826 16.62 27.3216 16.3332C26.9101 16.1254 26.4904 15.9093 26.0041 15.7181C24.695 15.2069 23.5063 14.916 21.9645 15.1612C20.8423 15.3399 19.9779 15.8179 19.2132 16.2418C18.9472 16.3872 18.6895 16.5327 18.4277 16.6574C17.5923 17.0605 16.9606 17.2392 16.0338 17.0231C15.4603 16.8901 14.9325 16.62 14.3714 16.3332C13.96 16.1254 13.5402 15.9093 13.054 15.7181C11.9734 15.2942 10.9718 15.0282 9.7915 15.0864V15.7098C10.8762 15.6516 11.7864 15.8927 12.8295 16.3C13.2867 16.4787 13.694 16.6865 14.093 16.8901C14.6873 17.1935 15.2483 17.4803 15.8967 17.6299C16.2209 17.7047 16.5118 17.7379 16.7902 17.7379C17.4593 17.7379 18.0329 17.5384 18.702 17.2143C18.9721 17.0813 19.2423 16.9358 19.5166 16.782C20.2688 16.3664 21.0501 15.9342 22.0642 15.7721C23.4689 15.5477 24.5287 15.8054 25.7797 16.2916C26.2368 16.4704 26.6441 16.6782 27.0431 16.8818C27.6374 17.1852 28.1985 17.4719 28.8468 17.6216C29.9482 17.8792 30.7087 17.6631 31.6521 17.2101C31.9223 17.0771 32.1924 16.9317 32.4667 16.7779C33.2189 16.3623 34.0003 15.9301 35.0143 15.768C35.7125 15.6558 36.3276 15.6641 36.9219 15.7597C36.9552 15.556 36.9926 15.3524 37.03 15.1487C36.3733 15.0532 35.6876 15.0407 34.9146 15.1612Z" fill="white"/>
<path d="M14.0887 10.7807C14.683 11.0841 15.2441 11.3709 15.8924 11.5205C16.2166 11.5953 16.5075 11.6286 16.786 11.6286C17.4551 11.6286 18.0286 11.4291 18.6977 11.1049C18.9679 10.9719 19.238 10.8265 19.5123 10.6727C20.2645 10.2571 21.0459 9.82486 22.0599 9.66278C23.4647 9.43835 24.5244 9.69602 25.7754 10.1823C26.2326 10.361 26.6399 10.5688 27.0388 10.7724C27.6331 11.0758 28.1942 11.3626 28.8425 11.5122C29.9439 11.7699 30.7044 11.5538 31.6478 11.1008C31.918 10.9678 32.1881 10.8223 32.4624 10.6685C33.2147 10.2529 33.996 9.8207 35.0101 9.65862C36.3525 9.44251 37.3831 9.67109 38.5635 10.1199C38.6466 9.92876 38.7297 9.73759 38.817 9.55057C37.5577 9.07262 36.3982 8.80664 34.9103 9.04353C33.7882 9.22224 32.9237 9.70018 32.159 10.1241C31.8931 10.2696 31.6354 10.415 31.3736 10.5397C30.5382 10.9428 29.9065 11.1215 28.9797 10.9054C28.4062 10.7724 27.8783 10.5023 27.3173 10.2155C26.9058 10.0077 26.4861 9.79161 25.9998 9.60044C24.6907 9.08925 23.5021 8.79833 21.9602 9.04353C20.8381 9.22224 19.9736 9.70018 19.2089 10.1241C18.9429 10.2696 18.6853 10.415 18.4234 10.5397C17.5881 10.9428 16.9563 11.1215 16.0296 10.9054C15.456 10.7724 14.9282 10.5023 14.3672 10.2155C13.9557 10.0077 13.5318 9.79161 13.0497 9.60044C12.2892 9.3012 11.566 9.08509 10.793 8.99782C10.6642 9.19315 10.5395 9.38848 10.4189 9.59212C11.2418 9.63784 11.9899 9.85811 12.8211 10.1823C13.2824 10.3693 13.6939 10.5771 14.0887 10.7807Z" fill="white"/>
<path d="M16.7903 5.52336C17.4594 5.52336 18.0329 5.32387 18.7021 4.9997C18.9722 4.86671 19.2423 4.72124 19.5166 4.56747C20.2689 4.15187 21.0502 3.71965 22.0643 3.55756C23.469 3.33314 24.5288 3.59081 25.7797 4.07706C26.2369 4.25577 26.6442 4.46357 27.0432 4.66722C27.6375 4.97061 28.1985 5.25737 28.8469 5.40699C29.9482 5.66466 30.7088 5.44855 31.6522 4.99554C31.9223 4.86255 32.1925 4.71709 32.4668 4.56332C33.219 4.14772 34.0003 3.71549 35.0144 3.55341C36.4191 3.32898 37.4789 3.58666 38.7299 4.07291C39.187 4.25162 39.5943 4.45942 39.9933 4.66306C40.2884 4.81268 40.5751 4.96229 40.8702 5.09113C40.8494 5.06619 40.837 5.0371 40.812 5.01216C40.1637 4.43864 39.478 3.90667 38.7548 3.41626C37.5246 2.95494 36.3776 2.70142 34.9188 2.93416C33.7967 3.11287 32.9322 3.59081 32.1675 4.01057C31.9015 4.15603 31.6439 4.30149 31.382 4.42617C30.5467 4.8293 29.915 5.00801 28.9882 4.7919C28.4147 4.6589 27.8868 4.38877 27.3258 4.102C26.9143 3.8942 26.4946 3.67809 26.0083 3.48691C24.6992 2.97572 23.5106 2.6848 21.9687 2.93001C20.8466 3.10871 19.9821 3.58665 19.2174 4.00641C18.9514 4.15187 18.6937 4.29733 18.4319 4.42201C17.5966 4.82515 16.9648 5.00386 16.0381 4.78774C15.6682 4.70047 15.3149 4.555 14.9616 4.38876C14.7829 4.53007 14.6125 4.67969 14.438 4.8293C14.9076 5.0662 15.3731 5.274 15.8967 5.39452C16.2168 5.48595 16.5118 5.52336 16.7903 5.52336Z" fill="white"/>
</svg>
