<svg width="373" height="50" viewBox="0 0 373 50" fill="none" xmlns="http://www.w3.org/2000/svg">
<path d="M372.1 0H244.9V19.2H372.1V0Z" fill="#0097C8"/>
<path d="M63 48.7V46L106.7 17.7H63.5V14.2H114V16.8L70.1 45.3H114.8V48.8H63V48.7Z" fill="#233F69"/>
<path d="M155.4 48.5H141.4C137.5 48.5 134.1 48 131.1 47.1C128.2 46.2 125.8 44.9 124.1 43.3C122.4 41.7 121.1 39.8 120.2 37.7C119.4 35.6 118.9 33.3 118.9 30.8C118.9 28.3 119.3 26 120.2 23.9C121 21.8 122.3 19.9 124.1 18.3C125.8 16.7 128.2 15.4 131.1 14.5C134 13.6 137.4 13.1 141.4 13.1H155.4C159.3 13.1 162.7 13.6 165.7 14.5C168.6 15.4 171 16.7 172.7 18.3C174.4 19.9 175.7 21.8 176.6 23.9C177.4 26 177.9 28.3 177.9 30.8C177.9 33.3 177.5 35.6 176.6 37.7C175.8 39.8 174.5 41.7 172.7 43.3C171 44.9 168.6 46.2 165.7 47.1C162.8 48.1 159.4 48.5 155.4 48.5ZM141.5 45.1H155.4C161.8 45.1 166.5 43.8 169.4 41.2C172.3 38.6 173.8 35.1 173.8 30.8C173.8 26.5 172.3 23 169.4 20.4C166.5 17.8 161.8 16.5 155.4 16.5H141.5C135.1 16.5 130.4 17.8 127.5 20.4C124.6 23 123.1 26.5 123.1 30.8C123.1 35.1 124.6 38.6 127.5 41.2C130.4 43.8 135.1 45.1 141.5 45.1Z" fill="#233F69"/>
<path d="M233.8 49.5L189.2 19.4V49.5H185.4V15H189.1L233.6 45.1V15H237.4V49.5H233.8Z" fill="#233F69"/>
<path d="M36.4 49.2H22.4C18.5 49.2 15.1 48.7 12.1 47.8C9.2 46.9 6.8 45.6 5.1 44C3.4 42.4 2.1 40.5 1.2 38.4C0.4 36.3 0 34 0 31.5C0 29 0.4 26.7 1.3 24.6C2.1 22.5 3.4 20.6 5.2 19C6.9 17.4 9.3 16.1 12.2 15.2C15.1 14.3 18.5 13.8 22.5 13.8H36.5C40.4 13.8 43.8 14.3 46.8 15.2C49.7 16.1 52.1 17.4 53.8 19C55.5 20.6 56.8 22.5 57.7 24.6C58.5 26.7 59 29 59 31.5C59 34 58.6 36.3 57.7 38.4C56.9 40.5 55.6 42.4 53.8 44C52.1 45.6 49.7 46.9 46.8 47.8C43.7 48.8 40.3 49.2 36.4 49.2ZM22.4 45.8H36.3C42.7 45.8 47.4 44.5 50.3 41.9C53.2 39.3 54.7 35.8 54.7 31.5C54.7 27.2 53.2 23.7 50.3 21.1C47.4 18.5 42.7 17.2 36.3 17.2H22.4C16 17.2 11.3 18.5 8.4 21.1C5.5 23.7 4 27.2 4 31.5C4 35.8 5.5 39.3 8.4 41.9C11.4 44.5 16 45.8 22.4 45.8Z" fill="#233F69"/>
<path d="M256.6 8.4C256.5 7.9 256.3 7.5 256 7.2C255.6 6.9 255.2 6.8 254.7 6.8C254.5 6.8 254.2 6.8 253.9 6.9C253.6 7 253.4 7.1 253.1 7.4C252.9 7.6 252.7 7.9 252.5 8.4C252.3 8.8 252.3 9.3 252.3 10C252.3 10.4 252.3 10.7 252.4 11.1C252.5 11.5 252.6 11.8 252.8 12.1C253 12.4 253.2 12.6 253.5 12.8C253.8 13 254.1 13.1 254.6 13.1C255.2 13.1 255.6 12.9 256 12.6C256.4 12.3 256.6 11.8 256.7 11.1H258.6C258.4 12.2 258 13.1 257.3 13.7C256.6 14.3 255.7 14.6 254.6 14.6C253.9 14.6 253.3 14.5 252.8 14.3C252.3 14.1 251.8 13.8 251.5 13.4C251.1 13 250.9 12.5 250.7 12C250.5 11.5 250.4 10.9 250.4 10.2C250.4 9.5 250.5 8.9 250.7 8.4C250.9 7.8 251.1 7.3 251.5 6.9C251.9 6.5 252.3 6.1 252.8 5.9C253.3 5.7 254 5.5 254.7 5.5C255.2 5.5 255.7 5.6 256.1 5.7C256.6 5.8 257 6 257.3 6.3C257.6 6.6 257.9 6.9 258.2 7.3C258.4 7.7 258.6 8.2 258.6 8.7H256.6V8.4Z" fill="white"/>
<path d="M264.1 14.4C263.4 14.4 262.8 14.3 262.2 14.1C261.7 13.9 261.2 13.6 260.8 13.1C260.4 12.6 260.1 12.2 259.9 11.7C259.7 11.1 259.6 10.5 259.6 9.90002C259.6 9.20002 259.7 8.60002 259.9 8.10002C260.1 7.50002 260.4 7.10002 260.8 6.70002C261.2 6.30002 261.6 6.00002 262.2 5.70002C262.7 5.50002 263.4 5.40002 264.1 5.40002C264.8 5.40002 265.4 5.50002 266 5.70002C266.5 5.90002 267 6.20002 267.4 6.70002C267.8 7.10002 268.1 7.60002 268.3 8.10002C268.5 8.60002 268.6 9.30002 268.6 9.90002C268.6 10.6 268.5 11.2 268.3 11.7C268.1 12.2 267.8 12.7 267.4 13.1C267 13.5 266.6 13.8 266 14.1C265.4 14.4 264.8 14.4 264.1 14.4ZM264.1 12.9C264.5 12.9 264.9 12.8 265.2 12.6C265.5 12.4 265.8 12.2 266 11.9C266.2 11.6 266.4 11.3 266.4 10.9C266.5 10.5 266.5 10.2 266.5 9.80002C266.5 9.40002 266.5 9.10002 266.4 8.70002C266.3 8.30002 266.2 8.00002 266 7.70002C265.8 7.40002 265.5 7.20002 265.2 7.00002C264.9 6.80002 264.5 6.70002 264.1 6.70002C263.7 6.70002 263.3 6.80002 263 7.00002C262.7 7.20002 262.4 7.40002 262.2 7.70002C262 8.00002 261.8 8.30002 261.8 8.70002C261.8 9.10002 261.7 9.40002 261.7 9.80002C261.7 10.2 261.7 10.6 261.8 10.9C261.9 11.2 262 11.6 262.2 11.9C262.4 12.2 262.7 12.4 263 12.6C263.3 12.8 263.7 12.9 264.1 12.9Z" fill="white"/>
<path d="M270.1 5.49999H271.9V6.79999C272.2 6.29999 272.6 5.89999 273 5.69999C273.5 5.39999 274 5.29999 274.6 5.29999C275.6 5.29999 276.3 5.49999 276.9 5.99999C277.4 6.49999 277.7 7.19999 277.7 8.19999V14.2H275.8V8.69999C275.8 7.99999 275.6 7.49999 275.4 7.19999C275.1 6.89999 274.7 6.69999 274.1 6.69999C273.8 6.69999 273.5 6.79999 273.2 6.89999C272.9 6.99999 272.7 7.19999 272.5 7.39999C272.3 7.59999 272.2 7.89999 272.1 8.09999C272 8.29999 272 8.79999 272 9.09999V14.2H270.1V5.49999Z" fill="white"/>
<path d="M285.6 8.4C285.5 7.9 285.3 7.5 285 7.2C284.6 6.9 284.2 6.8 283.7 6.8C283.5 6.8 283.2 6.8 282.9 6.9C282.6 7 282.4 7.1 282.1 7.4C281.9 7.6 281.7 7.9 281.5 8.4C281.3 8.8 281.3 9.3 281.3 10C281.3 10.4 281.3 10.7 281.4 11.1C281.5 11.5 281.6 11.8 281.8 12.1C282 12.4 282.2 12.6 282.5 12.8C282.8 13 283.1 13.1 283.6 13.1C284.2 13.1 284.6 12.9 285 12.6C285.4 12.3 285.6 11.8 285.7 11.1H287.6C287.4 12.2 287 13.1 286.3 13.7C285.6 14.3 284.7 14.6 283.6 14.6C282.9 14.6 282.3 14.5 281.8 14.3C281.3 14.1 280.8 13.8 280.5 13.4C280.1 13 279.9 12.5 279.7 12C279.5 11.5 279.4 10.9 279.4 10.2C279.4 9.5 279.5 8.9 279.7 8.4C279.9 7.8 280.1 7.3 280.5 6.9C280.9 6.5 281.3 6.1 281.8 5.9C282.3 5.7 283 5.5 283.7 5.5C284.2 5.5 284.7 5.6 285.1 5.7C285.5 5.8 286 6 286.3 6.3C286.6 6.6 286.9 6.9 287.2 7.3C287.4 7.7 287.6 8.2 287.6 8.7H285.6V8.4Z" fill="white"/>
<path d="M290.6 10.4C290.6 10.7 290.6 11.1 290.7 11.4C290.8 11.7 290.9 12 291.1 12.2C291.3 12.4 291.5 12.6 291.8 12.8C292.1 13 292.4 13 292.8 13C293.4 13 293.8 12.9 294.2 12.6C294.5 12.4 294.8 12 295 11.5H296.8C296.7 12 296.5 12.4 296.3 12.8C296.1 13.2 295.8 13.5 295.4 13.7C295.1 14 294.7 14.1 294.2 14.3C293.7 14.5 293.3 14.5 292.8 14.5C292.1 14.5 291.5 14.4 291 14.2C290.5 14 290 13.7 289.7 13.3C289.3 12.9 289.1 12.4 288.9 11.9C288.7 11.4 288.6 10.7 288.6 10.1C288.6 9.50002 288.7 8.90002 288.9 8.30002C289.1 7.70002 289.4 7.30002 289.7 6.80002C290.1 6.40002 290.5 6.00002 291 5.80002C291.5 5.60002 292.1 5.40002 292.7 5.40002C293.4 5.40002 294 5.50002 294.5 5.80002C295 6.10002 295.5 6.50002 295.9 6.90002C296.3 7.30002 296.5 7.90002 296.7 8.50002C296.9 9.10002 296.9 9.70002 296.8 10.4H290.6ZM295.1 9.10002C295.1 8.80002 295 8.50002 294.9 8.20002C294.8 7.90002 294.6 7.70002 294.5 7.50002C294.3 7.30002 294.1 7.10002 293.8 7.00002C293.5 6.90002 293.2 6.80002 292.9 6.80002C292.6 6.80002 292.3 6.90002 292 7.00002C291.7 7.10002 291.5 7.30002 291.3 7.50002C291.1 7.70002 290.9 8.00002 290.8 8.20002C290.7 8.40002 290.6 8.80002 290.6 9.10002H295.1Z" fill="white"/>
<path d="M298.5 5.49999H300.3V6.69999C300.6 6.19999 300.9 5.79999 301.4 5.59999C301.9 5.39999 302.4 5.29999 303 5.29999C303.7 5.29999 304.3 5.39999 304.8 5.69999C305.3 5.89999 305.7 6.29999 306.1 6.69999C306.4 7.09999 306.7 7.59999 306.9 8.19999C307.1 8.79999 307.2 9.39999 307.2 9.99999C307.2 10.6 307.1 11.1 307 11.7C306.8 12.2 306.6 12.7 306.3 13.2C306 13.6 305.6 14 305.1 14.2C304.6 14.5 304.1 14.6 303.4 14.6C303.1 14.6 302.8 14.6 302.6 14.5C302.3 14.4 302.1 14.4 301.8 14.3C301.5 14.2 301.3 14 301.1 13.9C300.9 13.7 300.7 13.5 300.6 13.3V17.6H298.7V5.49999H298.5ZM305.2 9.89999C305.2 9.49999 305.1 9.09999 305 8.79999C304.9 8.49999 304.7 8.09999 304.5 7.79999C304.3 7.49999 304 7.29999 303.7 7.09999C303.4 6.89999 303 6.79999 302.7 6.79999C301.9 6.79999 301.3 7.09999 300.9 7.59999C300.5 8.19999 300.3 8.89999 300.3 9.79999C300.3 10.2 300.4 10.6 300.5 11C300.6 11.4 300.8 11.7 301 12C301.2 12.3 301.5 12.5 301.8 12.6C302.1 12.8 302.4 12.8 302.8 12.8C303.2 12.8 303.6 12.7 303.9 12.5C304.2 12.3 304.5 12.1 304.6 11.8C304.8 11.5 304.9 11.2 305 10.8C305.2 10.6 305.2 10.3 305.2 9.89999Z" fill="white"/>
<path d="M307.9 5.50002H309.3V2.90002H311.2V5.50002H312.9V6.90002H311.2V11.5C311.2 11.7 311.2 11.9 311.2 12C311.2 12.1 311.3 12.3 311.3 12.4C311.4 12.5 311.5 12.6 311.6 12.6C311.7 12.6 311.9 12.7 312.1 12.7C312.2 12.7 312.4 12.7 312.5 12.7C312.6 12.7 312.8 12.7 312.9 12.6V14.1C312.7 14.1 312.5 14.1 312.3 14.2C312.1 14.2 311.9 14.2 311.7 14.2C311.2 14.2 310.8 14.2 310.5 14.1C310.2 14 310 13.9 309.8 13.7C309.6 13.5 309.5 13.3 309.4 13C309.3 12.7 309.3 12.4 309.3 12V6.90002H307.9V5.50002Z" fill="white"/>
<path d="M319 2.20001H320.9V6.70001C321.1 6.30001 321.5 6.00001 322 5.70001C322.5 5.40001 323 5.30001 323.6 5.30001C324.6 5.30001 325.3 5.50001 325.9 6.00001C326.4 6.50001 326.7 7.20001 326.7 8.20001V14.2H324.8V8.70001C324.8 8.00001 324.6 7.50001 324.4 7.20001C324.1 6.90001 323.7 6.70001 323.1 6.70001C322.8 6.70001 322.5 6.80001 322.2 6.90001C321.9 7.00001 321.7 7.20001 321.5 7.40001C321.3 7.60001 321.2 7.90001 321.1 8.10001C321 8.30001 320.9 8.70001 320.9 9.00001V14.1H319V2.20001Z" fill="white"/>
<path d="M332.6 14.4C331.9 14.4 331.3 14.3 330.7 14.1C330.2 13.9 329.7 13.6 329.3 13.1C328.9 12.6 328.6 12.2 328.4 11.7C328.2 11.1 328.1 10.5 328.1 9.90002C328.1 9.20002 328.2 8.60002 328.4 8.10002C328.6 7.50002 328.9 7.10002 329.3 6.70002C329.7 6.30002 330.1 6.00002 330.7 5.70002C331.2 5.50002 331.9 5.40002 332.6 5.40002C333.3 5.40002 333.9 5.50002 334.5 5.70002C335 5.90002 335.5 6.20002 335.9 6.70002C336.3 7.10002 336.6 7.60002 336.8 8.10002C337 8.60002 337.1 9.30002 337.1 9.90002C337.1 10.6 337 11.2 336.8 11.7C336.6 12.2 336.3 12.7 335.9 13.1C335.5 13.5 335.1 13.8 334.5 14.1C333.9 14.4 333.3 14.4 332.6 14.4ZM332.6 12.9C333 12.9 333.4 12.8 333.7 12.6C334 12.4 334.3 12.2 334.5 11.9C334.7 11.6 334.9 11.3 334.9 10.9C335 10.5 335 10.2 335 9.80002C335 9.40002 335 9.10002 334.9 8.70002C334.8 8.30002 334.7 8.00002 334.5 7.70002C334.3 7.40002 334 7.20002 333.7 7.00002C333.4 6.80002 333 6.70002 332.6 6.70002C332.2 6.70002 331.8 6.80002 331.5 7.00002C331.2 7.20002 330.9 7.40002 330.7 7.70002C330.5 8.00002 330.3 8.30002 330.3 8.70002C330.3 9.10002 330.2 9.40002 330.2 9.80002C330.2 10.2 330.2 10.6 330.3 10.9C330.4 11.2 330.5 11.6 330.7 11.9C330.9 12.2 331.2 12.4 331.5 12.6C331.9 12.8 332.2 12.9 332.6 12.9Z" fill="white"/>
<path d="M346.3 14.2H344.4V13C344.2 13.4 343.8 13.8 343.3 14.1C342.8 14.4 342.4 14.5 341.9 14.5C340.8 14.5 339.9 14.2 339.4 13.7C338.9 13.1 338.6 12.3 338.6 11.1V5.5H340.5V10.8C340.5 11.6 340.6 12.1 340.9 12.4C341.2 12.7 341.6 12.9 342.1 12.9C342.5 12.9 342.8 12.8 343.1 12.7C343.4 12.6 343.6 12.4 343.8 12.2C344 12 344.1 11.7 344.2 11.5C344.3 11.2 344.3 10.9 344.3 10.6V5.6H346.2V14.2H346.3Z" fill="white"/>
<path d="M349.7 11.4C349.8 12 350 12.4 350.3 12.6C350.7 12.8 351.1 12.9 351.6 12.9C351.8 12.9 352 12.9 352.2 12.9C352.4 12.9 352.6 12.8 352.8 12.7C353 12.6 353.2 12.5 353.3 12.4C353.4 12.2 353.5 12.1 353.5 11.8C353.5 11.6 353.4 11.4 353.2 11.2C353 11 352.8 10.9 352.6 10.8C352.3 10.7 352 10.6 351.7 10.6C351.4 10.5 351 10.5 350.7 10.4C350.3 10.3 350 10.2 349.7 10.1C349.4 9.99999 349.1 9.79999 348.8 9.59999C348.5 9.39999 348.3 9.19999 348.2 8.89999C348 8.59999 348 8.19999 348 7.79999C348 7.29999 348.1 6.89999 348.3 6.59999C348.5 6.29999 348.8 5.99999 349.2 5.79999C349.6 5.59999 349.9 5.49999 350.4 5.39999C350.8 5.29999 351.2 5.29999 351.6 5.29999C352 5.29999 352.5 5.29999 352.9 5.39999C353.3 5.49999 353.7 5.59999 354 5.89999C354.3 6.09999 354.6 6.39999 354.8 6.69999C355 6.99999 355.2 7.49999 355.2 7.89999H353.2C353.1 7.39999 352.9 7.09999 352.6 6.99999C352.3 6.79999 351.9 6.79999 351.5 6.79999C351.4 6.79999 351.2 6.79999 351 6.79999C350.8 6.79999 350.6 6.89999 350.5 6.89999C350.3 6.99999 350.2 7.09999 350.1 7.19999C350 7.29999 349.9 7.49999 349.9 7.69999C349.9 7.89999 350 8.09999 350.1 8.29999C350.3 8.39999 350.5 8.59999 350.7 8.69999C351 8.79999 351.3 8.89999 351.6 8.89999C351.9 8.99999 352.3 8.99999 352.6 9.09999C352.9 9.19999 353.3 9.29999 353.6 9.39999C353.9 9.49999 354.2 9.69999 354.5 9.89999C354.8 10.1 355 10.3 355.1 10.6C355.3 10.9 355.3 11.3 355.3 11.7C355.3 12.2 355.2 12.7 354.9 13C354.7 13.4 354.4 13.7 354 13.9C353.6 14.1 353.2 14.3 352.7 14.4C352.2 14.5 351.8 14.6 351.3 14.6C350.8 14.6 350.2 14.5 349.8 14.4C349.3 14.3 348.9 14.1 348.6 13.8C348.3 13.5 348 13.2 347.8 12.9C347.6 12.5 347.5 12.1 347.5 11.6H349.7V11.4Z" fill="white"/>
<path d="M358.5 10.4C358.5 10.7 358.5 11.1 358.6 11.4C358.7 11.7 358.8 12 359 12.2C359.2 12.4 359.4 12.6 359.7 12.8C360 13 360.3 13 360.7 13C361.3 13 361.7 12.9 362.1 12.6C362.4 12.4 362.7 12 362.9 11.5H364.7C364.6 12 364.4 12.4 364.2 12.8C364 13.2 363.7 13.5 363.3 13.7C363 14 362.6 14.1 362.1 14.3C361.6 14.5 361.2 14.5 360.7 14.5C360 14.5 359.4 14.4 358.9 14.2C358.4 14 357.9 13.7 357.6 13.3C357.2 12.9 357 12.4 356.8 11.9C356.6 11.4 356.5 10.7 356.5 10.1C356.5 9.50002 356.6 8.90002 356.8 8.30002C357 7.70002 357.3 7.30002 357.6 6.80002C358 6.40002 358.4 6.00002 358.9 5.80002C359.4 5.60002 360 5.40002 360.6 5.40002C361.3 5.40002 361.9 5.50002 362.4 5.80002C362.9 6.10002 363.4 6.50002 363.8 6.90002C364.2 7.30002 364.4 7.90002 364.6 8.50002C364.8 9.10002 364.8 9.70002 364.7 10.4H358.5ZM363 9.10002C363 8.80002 362.9 8.50002 362.8 8.20002C362.7 7.90002 362.5 7.70002 362.4 7.50002C362.2 7.30002 362 7.10002 361.7 7.00002C361.4 6.90002 361.1 6.80002 360.8 6.80002C360.5 6.80002 360.2 6.90002 359.9 7.00002C359.6 7.10002 359.4 7.30002 359.2 7.50002C359 7.70002 358.8 8.00002 358.7 8.20002C358.6 8.40002 358.5 8.80002 358.5 9.10002H363Z" fill="white"/>
</svg>
