<svg xmlns="http://www.w3.org/2000/svg" width="2%" height="200" viewBox="0 0 180 230"><path d="M.042 230.6h179.916V.123H.042v230.48z" fill="#0b45bb"/><path d="M25.827 26.89H48.18c6.878 0 11.634 1.8 14.656 4.822 2.635 2.635 3.985 6.042 3.985 10.477v.128c0 6.94-3.663 11.505-9.255 13.884L68.3 71.885H53.964L44.902 58.26h-6.605v13.625h-12.47V26.89zm21.84 21.598c4.177 0 6.684-2.057 6.684-5.335v-.13c0-3.598-2.635-5.398-6.75-5.398h-9.303v10.863h9.37M85.146 55.044L67.984 26.89H82.19l9.256 16.39 9.32-16.39h13.948L97.616 54.853v17.033h-12.47v-16.84M22.42 179.298l7.002-8.292c4.538 3.536 9.465 5.4 14.716 5.4 3.436 0 5.25-1.158 5.25-3.086v-.13c0-1.927-1.49-2.89-7.713-4.37-9.66-2.185-17.115-4.884-17.115-14.076v-.13c0-8.355 6.677-14.397 17.57-14.397 7.713 0 13.742 2.057 18.67 5.978L54.51 155c-4.148-2.955-8.686-4.435-12.706-4.435-3.047 0-4.538 1.222-4.538 2.893v.13c0 2.056 1.556 2.956 7.91 4.37 10.372 2.25 16.855 5.592 16.855 14.012v.13c0 9.19-7.325 14.654-18.346 14.654-8.04 0-15.623-2.507-21.264-7.456M67.54 140.988h12.47l-.065 16.97h4.943l13.626-16.97h14.913l-18.705 21.79 19.604 23.205H98.9l-14.012-17.226h-4.943l.064 17.226H67.54v-44.995" fill="#fff"/><path d="M128.012 169.142l-17.162-28.154h14.206l9.256 16.39 9.32-16.39h13.948l-17.098 27.962v17.033h-12.47v-16.84M150.668 54.12c-.044 7.38-6.006 13.49-13.664 14.43V45.11h13.172V41h-13.172v-4.71c2.43-.817 4.18-3.03 4.18-5.63 0-3.292-2.797-5.97-6.236-5.97-3.44 0-6.237 2.678-6.237 5.97 0 2.6 1.752 4.813 4.182 5.63V41H119.72v4.11h13.172v23.44c-7.658-.94-13.62-7.05-13.665-14.43l-4.112.025c.06 10.283 8.96 18.648 19.833 18.648 10.875 0 19.77-8.365 19.832-18.648l-4.112-.025zm-15.72-25.774c1.423 0 2.58 1.038 2.58 2.314s-1.157 2.313-2.58 2.313-2.582-1.037-2.582-2.313c0-1.276 1.16-2.314 2.582-2.314M25.827 83.963h23.076c5.656 0 9.642 1.414 12.277 3.986 1.8 1.863 2.892 4.24 2.892 7.327v.128c0 5.206-2.957 8.292-6.942 10.028 5.464 1.8 8.935 4.884 8.935 10.99v.13c0 7.713-6.3 12.405-17.034 12.405H25.828V83.963zm25.97 13.884c0-2.506-1.994-3.856-5.658-3.856h-8.164v7.907h7.842c3.792 0 5.978-1.286 5.978-3.92v-.13zm-4.308 12.792h-9.514v8.29h9.64c3.858 0 5.98-1.478 5.98-4.113v-.13c0-2.44-1.93-4.048-6.107-4.048M85.343 83.916H97.29l19.04 45.042h-13.29l-3.194-8.05H82.532l-3.194 8.05h-12.97l18.975-45.042zm10.862 27.345L91.22 98.61l-5.046 12.65h10.03M120.524 83.963h12.47v34.068h21.79v10.928h-34.26V83.963M25.827 198.044h6.206v7.53H30.7v-6.325h-3.55v6.324h-1.323v-7.53M34.44 198.044h2.97c1.764 0 2.86 1 2.86 2.517v.022c0 1.69-1.354 2.57-3.01 2.57h-1.496v2.422H34.44v-7.53zm2.862 3.915c1 0 1.625-.56 1.625-1.345v-.022c0-.883-.635-1.345-1.625-1.345h-1.538v2.71h1.538M41.775 201.83v-.022c0-2.12 1.635-3.894 3.948-3.894 2.312 0 3.926 1.753 3.926 3.873v.022c0 2.118-1.636 3.893-3.95 3.893-2.31 0-3.925-1.754-3.925-3.873zm6.487 0v-.022c0-1.463-1.066-2.668-2.56-2.668-1.496 0-2.54 1.184-2.54 2.647v.022c0 1.462 1.065 2.667 2.56 2.667 1.496 0 2.54-1.184 2.54-2.647M51.4 201.83v-.022c0-2.14 1.602-3.894 3.872-3.894 1.4 0 2.238.484 2.958 1.173l-.85.98c-.612-.56-1.247-.927-2.12-.927-1.418 0-2.473 1.173-2.473 2.647v.022c0 1.473 1.043 2.667 2.485 2.667.925 0 1.517-.366 2.162-.97l.85.862c-.785.816-1.646 1.333-3.055 1.333-2.206 0-3.83-1.71-3.83-3.873M62.004 199.27h-2.4v-1.226h6.122v1.226h-2.4v6.304h-1.322v-6.304M67.66 205.574h1.323v-7.53H67.66v7.53zM71.477 198.044h2.97c1.764 0 2.86 1 2.86 2.517v.022c0 1.69-1.355 2.57-3.01 2.57H72.8v2.422h-1.323v-7.53zm2.862 3.915c1 0 1.624-.56 1.624-1.345v-.022c0-.883-.635-1.345-1.625-1.345H72.8v2.71h1.54M82.984 204.37l2.744-6.38h1.398l2.733 6.38h.75v2.753h-1.247v-1.55H83.49v1.55h-1.248v-2.754h.742zm1.367.042h4.11l-2.055-4.948-2.054 4.948M99.3 205.574h-1.473l-2.378-5.756-2.367 5.756h-1.43l3.226-7.584h1.182l3.238 7.584M106.914 205.574h-1.323v-2.625h-1.57l-1.915 2.624h-1.592l2.087-2.797c-1.065-.29-1.84-1.044-1.84-2.26v-.01c0-1.625 1.183-2.464 3.023-2.464h3.13v7.53zm-3.25-6.325c-.978 0-1.56.45-1.56 1.246v.01c0 .808.625 1.27 1.583 1.27h1.904v-2.527h-1.925M113.99 198.044l2.645 3.152h.602l-.01-3.152h1.312l-.012 3.152h.602l2.658-3.152h1.58l-3.14 3.668 3.345 3.862h-1.592l-2.785-3.25h-.667l.01 3.25h-1.312l.01-3.25h-.698l-2.776 3.25h-1.56l3.346-3.862-3.15-3.668h1.59M130.38 205.574v-5.444l-4.09 5.444h-1.15v-7.53h1.323v5.303l3.97-5.303h1.27v7.53h-1.324M135.96 199.27h-2.4v-1.226h6.12v1.226h-2.398v6.304h-1.323v-6.304M143.38 199.27h-2.4v-1.226h6.12v1.226h-2.398v6.304h-1.323v-6.304M154.79 205.574h-1.323v-2.625h-1.57l-1.915 2.624h-1.592l2.087-2.797c-1.065-.29-1.84-1.044-1.84-2.26v-.01c0-1.625 1.183-2.464 3.023-2.464h3.13v7.53zm-3.248-6.325c-.98 0-1.56.45-1.56 1.246v.01c0 .808.624 1.27 1.58 1.27h1.905v-2.527h-1.925" fill="#fff"/></svg>