<svg width="207" height="207" viewBox="0 0 207 207" fill="none" xmlns="http://www.w3.org/2000/svg">
<g clip-path="url(#clip0)">
<path d="M176.686 176.686C217.105 136.266 217.105 70.7337 176.686 30.3145C136.266 -10.1048 70.7337 -10.1048 30.3144 30.3145C-10.1048 70.7337 -10.1048 136.266 30.3144 176.686C70.7337 217.105 136.266 217.105 176.686 176.686Z" fill="white"/>
<path d="M42.9932 135.458H40.2944V144.065H42.7379C44.2696 144.065 45.4367 143.7 46.239 142.934C47.0413 142.168 47.4425 141.111 47.4425 139.688C47.4425 138.376 47.0413 137.318 46.2755 136.589C45.4731 135.823 44.379 135.458 42.9932 135.458ZM42.8838 142.533H42.1179V136.953H43.1026C44.7437 136.953 45.5461 137.865 45.5461 139.725C45.5461 141.585 44.6708 142.533 42.8838 142.533Z" fill="#405174"/>
<path d="M54.6267 142.533V140.308H57.5443V138.813H54.6267V136.953H57.7631V135.458H52.8032V144.028H57.7631V142.533H54.6267Z" fill="#405174"/>
<path d="M66.4429 140.564C66.1876 141.476 66.0417 142.096 66.0053 142.46C65.9688 142.314 65.9323 142.023 65.8229 141.621C65.7135 141.22 65.6406 140.856 65.5312 140.564L63.9265 135.458H62.103L65.0206 144.065H66.99L69.9075 135.458H68.084L66.4429 140.564Z" fill="#405174"/>
<path d="M76.3992 142.533V140.308H79.3167V138.813H76.3992V136.953H79.5356V135.458H74.5757V144.028H79.5356V142.533H76.3992Z" fill="#405174"/>
<path d="M90.2577 144.028V142.533H86.7566V135.458H84.9331V144.028H90.2577Z" fill="#405174"/>
<path d="M99.0836 135.312C97.7707 135.312 96.7496 135.677 96.0566 136.443C95.3637 137.208 94.999 138.303 94.999 139.725C94.999 141.147 95.3637 142.241 96.0566 143.007C96.7496 143.773 97.7707 144.138 99.0836 144.138C100.397 144.138 101.418 143.737 102.111 143.007C102.804 142.241 103.168 141.147 103.168 139.725C103.168 138.303 102.804 137.208 102.111 136.443C101.381 135.677 100.397 135.312 99.0836 135.312ZM99.0472 142.642C98.3178 142.642 97.7707 142.387 97.406 141.913C97.0413 141.439 96.859 140.71 96.859 139.761C96.859 138.813 97.0413 138.084 97.406 137.573C97.7707 137.099 98.3178 136.844 99.0472 136.844C100.506 136.844 101.199 137.828 101.199 139.761C101.235 141.658 100.506 142.642 99.0472 142.642Z" fill="#405174"/>
<path d="M111.265 135.458H108.529V144.065H110.353V141.001H111.119C112.176 141.001 113.015 140.746 113.599 140.272C114.182 139.798 114.474 139.069 114.474 138.157C114.474 137.281 114.219 136.589 113.672 136.151C113.124 135.677 112.322 135.458 111.265 135.458ZM112.213 139.141C111.921 139.36 111.52 139.47 110.973 139.47H110.353V136.917H111.192C111.702 136.917 112.067 137.026 112.286 137.209C112.504 137.427 112.65 137.719 112.65 138.157C112.614 138.631 112.505 138.923 112.213 139.141Z" fill="#405174"/>
<path d="M124.247 142.023L122.168 135.458H119.688V144.065H121.33V140.053C121.33 139.579 121.293 138.667 121.22 137.318H121.257L123.335 144.065H125.013L127.238 137.354H127.274C127.238 138.449 127.201 139.105 127.201 139.36V140.017V144.065H128.915V135.458H126.399L124.247 142.023Z" fill="#405174"/>
<path d="M136.465 142.533V140.308H139.382V138.813H136.465V136.953H139.601V135.458H134.641V144.028H139.601V142.533H136.465Z" fill="#405174"/>
<path d="M150.98 139.506C150.98 139.98 151.017 140.746 151.053 141.877H151.017L147.297 135.458H144.999V144.065H146.64V140.017C146.64 139.543 146.604 138.704 146.531 137.573H146.567L150.287 144.065H152.585V135.458H150.944V139.506H150.98Z" fill="#405174"/>
<path d="M161.702 144.028V136.953H164.036V135.458H157.544V136.953H159.878V144.028H161.702Z" fill="#405174"/>
<path d="M191.899 117.259L179.061 88.6671L187.632 69.7393L187.158 69.5205L178.77 88.0106L174.102 77.5803H173.846H168.74H168.485L150.688 117.223H156.049L161.228 105.735H170.783L161.629 125.976L162.103 126.194L176.399 94.5752L186.574 117.186H191.899V117.259ZM172.971 100.848H163.416L171.293 83.3061L176.071 93.9917L172.971 100.848Z" fill="#405174"/>
<path d="M124.685 95.9975L136.574 69.7393L136.1 69.5205L131.87 78.8203C131.432 78.6015 130.958 78.3826 130.484 78.2003C127.895 77.1791 125.123 76.6321 122.205 76.6321C116.443 76.6321 111.556 78.6379 107.545 82.6131C103.533 86.6248 101.563 91.5117 101.563 97.3834C101.563 103.219 103.569 108.142 107.545 112.154C109.66 114.269 112.03 115.801 114.656 116.822L110.499 126.049L110.973 126.267L115.167 117.004C117.355 117.77 119.689 118.171 122.205 118.171C128.223 118.171 133.11 116.202 136.793 112.299C140.075 109.017 141.717 104.604 141.717 99.0245C141.717 98.0763 141.607 97.0551 141.425 96.034H124.685V95.9975ZM111.264 108.762C108.31 105.735 106.815 101.942 106.815 97.3834C106.815 92.8246 108.31 89.0318 111.264 86.0048C114.255 83.0143 117.938 81.519 122.242 81.519C124.466 81.519 126.545 81.9202 128.478 82.759C128.952 82.9414 129.39 83.1966 129.791 83.4155L116.735 112.263C114.729 111.57 112.869 110.403 111.264 108.762ZM132.125 109.929C129.499 112.154 126.217 113.248 122.242 113.248C120.455 113.248 118.777 112.992 117.245 112.482L122.534 100.775H136.647C136.246 104.641 134.751 107.704 132.125 109.929Z" fill="#405174"/>
<path d="M40.4766 99.3526C39.0178 97.675 36.7202 96.2163 33.5838 94.9763L44.4518 71.0157L43.9777 70.7969L39.4919 80.7531C38.9084 80.1331 38.2155 79.5131 37.4496 79.0026C35.2249 77.4344 32.5991 76.6685 29.5721 76.6685C26.144 76.6685 23.2264 77.6897 20.8559 79.7684C18.5218 81.8472 17.3548 84.3271 17.3548 87.2447C17.3548 91.4387 19.47 94.5751 23.664 96.7268C24.4299 97.128 26.4357 97.8939 29.6086 99.0609C30.0827 99.2068 30.5203 99.3891 30.958 99.535L25.3781 111.862C24.9769 111.606 24.6123 111.351 24.2476 111.059C23.4452 110.367 22.7523 109.564 22.1688 108.579C21.5853 107.631 21.1112 106.537 20.7829 105.37L15.896 107.376C16.8442 110.695 18.5948 113.321 21.1112 115.253C21.8041 115.764 22.497 116.202 23.2264 116.603L18.3759 127.288L18.85 127.507L23.7005 116.822C25.5605 117.697 27.6028 118.135 29.791 118.135C33.4744 118.135 36.6473 117.113 39.2366 115.035C41.7895 112.919 43.0659 110.148 43.0659 106.647C43.0294 103.765 42.1906 101.322 40.4766 99.3526ZM31.8333 94.3198C27.8581 92.9705 25.3052 91.767 24.1381 90.7823C23.0805 89.7976 22.5335 88.5941 22.5335 87.2447C22.5335 85.5671 23.2264 84.2177 24.5758 83.1966C25.9616 82.1025 27.6392 81.519 29.6086 81.519C31.505 81.519 33.1097 81.9931 34.4226 82.9778C35.6261 83.8895 36.4284 84.9836 36.9025 86.2965L33.0732 94.7575C32.6721 94.6481 32.2709 94.4657 31.8333 94.3198ZM35.5896 111.461C34.0944 112.664 32.198 113.248 29.8639 113.248C28.8063 113.248 27.7851 113.065 26.8004 112.664C26.4357 112.518 26.1075 112.336 25.7428 112.154L31.3591 99.7538C33.5109 100.629 35.0426 101.504 35.9543 102.38C37.1943 103.547 37.7778 104.969 37.7778 106.647C37.8143 108.652 37.0849 110.257 35.5896 111.461Z" fill="#405174"/>
<path d="M89.1269 69.7393L88.6528 69.5205L80.3012 88.0106L75.706 77.7627L79.353 69.7393L78.8789 69.5205L75.2319 77.6168H70.5273L74.1014 69.7393L73.6273 69.5205L48.062 126.012L48.5361 126.231L52.6207 117.259H57.3253L53.3501 126.012L53.8242 126.231L63.0875 105.771H72.3144L63.1605 126.012L63.6346 126.231L77.9672 94.6117L88.1422 117.259H93.5032L80.5565 88.6306L89.1269 69.7393ZM74.4296 100.848H65.2028L72.9708 83.7072L77.566 93.9552L74.4296 100.848Z" fill="#405174"/>
</g>
<defs>
<clipPath id="clip0">
<rect width="207" height="207" fill="white"/>
</clipPath>
</defs>
</svg>
