<svg xmlns="http://www.w3.org/2000/svg" viewBox="0 0 144 144" class="icon logo" style="width: 1em; height: 1em; "><path fill="#415372" d="M144,72c0,39.8-32.2,72-72,72c-39.8,0-72-32.2-72-72C0,32.2,32.2,0,72,0C111.8,0,144,32.2,144,72z"></path><path fill="#fff" d="M29.9,96.1h-0.5v-3.8H30c1.1,0,1.7,0.6,1.7,1.9C31.7,95.5,31.1,96.1,29.9,96.1z M29.9,91.2H28v5.9h1.7
 c1.1,0,1.9-0.2,2.4-0.7c0.5-0.5,0.8-1.3,0.8-2.2c0-0.9-0.3-1.6-0.8-2.1C31.7,91.5,30.9,91.2,29.9,91.2z M36.8,97.1h3.4v-1H38v-1.5h2
 v-1h-2v-1.3h2.1v-1h-3.4V97.1z M46.2,94.7c-0.2,0.6-0.3,1-0.3,1.3c0-0.1-0.1-0.3-0.2-0.6c-0.1-0.3-0.2-0.5-0.2-0.7l-1.1-3.5h-1.2
 l2,5.9h1.4l2-5.9h-1.3L46.2,94.7z M51.9,97.1h3.4v-1h-2.2v-1.5h2v-1h-2v-1.3h2.2v-1h-3.4V97.1z M60.3,91.2h-1.2v5.9h3.6v-1h-2.4
 V91.2z M68.9,96.1c-0.5,0-0.9-0.1-1.1-0.5c-0.2-0.3-0.4-0.8-0.4-1.5s0.2-1.1,0.4-1.5c0.2-0.3,0.6-0.5,1.1-0.5c1,0,1.5,0.7,1.5,2
 S70,96.1,68.9,96.1z M68.9,91.1c-0.9,0-1.6,0.2-2.1,0.7c-0.5,0.5-0.8,1.3-0.8,2.2s0.2,1.7,0.8,2.2c0.5,0.5,1.2,0.8,2.1,0.8
 s1.6-0.3,2.1-0.8c0.5-0.5,0.8-1.3,0.8-2.2s-0.2-1.7-0.8-2.2C70.6,91.4,69.9,91.1,68.9,91.1z M78.1,93.8c-0.2,0.1-0.5,0.2-0.9,0.2
 h-0.5v-1.7h0.6c0.4,0,0.6,0.1,0.8,0.2c0.2,0.1,0.2,0.4,0.2,0.7C78.4,93.4,78.3,93.6,78.1,93.8z M77.4,91.2h-1.9v5.9h1.3V95h0.5
 c0.8,0,1.3-0.1,1.7-0.5c0.4-0.3,0.6-0.8,0.6-1.4s-0.2-1-0.5-1.3C78.7,91.4,78.1,91.2,77.4,91.2z M86.4,95.7L85,91.2h-1.7v5.9h1.1
 v-2.8c0-0.3,0-1-0.1-1.9l1.4,4.6h1.1l1.5-4.6c0,0.7-0.1,1.2-0.1,1.3c0,0.1,0,0.3,0,0.4V97h1.2v-5.9h-1.6L86.4,95.7z M93.7,97.1h3.4
 v-1H95v-1.5h2v-1h-2v-1.3h2.1v-1h-3.4V97.1z M105,94c0,0.3,0,0.8,0.1,1.6l-2.6-4.4H101v5.9h1.1v-2.8c0-0.3,0-0.9-0.1-1.7l2.6,4.5
 h1.6v-5.9H105V94z M109.6,92.3h1.7v4.9h1.2v-4.9h1.7v-1h-4.5V92.3z M120.4,67.5h-6.7l5.5-12l3.3,7.3L120.4,67.5z M133.5,78.7
 l-8.9-19.6l6-13l-0.3-0.1l-5.8,12.7l-3.3-7.2H121h-3.6h-0.2l-12.4,27.2h3.7l3.6-7.8h6.7l-6.4,13.9l0.3,0.1l9.9-21.7l7,15.5
 L133.5,78.7L133.5,78.7z M91.9,73.7C90.1,75.2,87.8,76,85,76c-1.2,0-2.4-0.1-3.5-0.5l3.7-8h9.9C94.8,70.1,93.8,72.2,91.9,73.7z
 M77.4,72.9c-2-2.1-3.1-4.7-3.1-7.8c0-3.1,1.1-5.8,3.1-7.8c2-2,4.6-3.1,7.7-3.1c1.5,0,3,0.3,4.3,0.8c0.3,0.1,0.6,0.3,0.9,0.4
 l-9.1,19.8C79.8,74.8,78.5,74,77.4,72.9z M86.8,64.2l8.3-18L94.7,46l-3,6.4c-0.3-0.1-0.6-0.3-1-0.4c-1.8-0.7-3.7-1-5.8-1
 c-4,0-7.4,1.3-10.2,4.1c-2.8,2.8-4.2,6.1-4.2,10.1c0,4,1.4,7.4,4.2,10.1c1.4,1.4,3.1,2.5,4.9,3.2l-2.9,6.4l0.3,0.1l3-6.4
 c1.5,0.5,3.1,0.8,4.9,0.8c4.2,0,7.6-1.3,10.2-4c2.3-2.2,3.4-5.3,3.4-9.1c0-0.7-0.1-1.3-0.2-2.1L86.8,64.2L86.8,64.2z M24.8,74.8
 c-1.1,0.8-2.3,1.3-3.9,1.3c-0.8,0-1.4-0.1-2.1-0.4c-0.2-0.1-0.5-0.2-0.8-0.4l3.9-8.5c1.5,0.6,2.6,1.2,3.2,1.8
 c0.8,0.8,1.3,1.8,1.3,2.9C26.3,72.8,25.8,74,24.8,74.8z M22.1,63c-2.7-1-4.5-1.7-5.4-2.5c-0.8-0.7-1.1-1.5-1.1-2.5
 c0-1.1,0.5-2.1,1.4-2.8c1-0.7,2.1-1.1,3.5-1.1c1.3,0,2.4,0.4,3.3,1c0.8,0.6,1.4,1.3,1.7,2.3L23,63.3C22.7,63.3,22.4,63.1,22.1,63z
 M28.2,66.5c-1-1.1-2.7-2.2-4.8-3L31,47l-0.5-0.1l-3.1,6.8c-0.4-0.4-0.9-0.8-1.4-1.2c-1.5-1-3.3-1.6-5.5-1.6c-2.4,0-4.4,0.7-6.1,2.1
 c-1.6,1.4-2.4,3.1-2.4,5.2c0,2.8,1.4,5,4.4,6.5c0.5,0.3,1.9,0.8,4.1,1.6c0.3,0.1,0.6,0.2,0.9,0.4l-3.9,8.4c-0.3-0.1-0.5-0.4-0.8-0.6
 c-0.5-0.4-1.1-1-1.4-1.7c-0.4-0.7-0.8-1.4-1-2.2L11,71.9c0.7,2.3,1.9,4.1,3.6,5.4c0.5,0.4,1,0.7,1.5,0.9l-3.3,7.3l0.3,0.1l3.3-7.3
 c1.3,0.6,2.7,0.9,4.2,0.9c2.6,0,4.8-0.7,6.6-2.2c1.7-1.4,2.7-3.4,2.7-5.8C29.9,69.5,29.3,67.8,28.2,66.5z M51.8,67.5h-6.4l5.5-11.8
 l3.2,7L51.8,67.5z M62,46.1L61.7,46l-5.8,12.7l-3.2-7l2.5-5.5L54.9,46l-2.6,5.5H49l2.5-5.4L51.2,46L33.3,84.8l0.3,0.1l2.8-6.1h3.3
 l-2.7,6l0.3,0.1l6.4-14.1h6.4l-6.4,13.9l0.3,0.1L54,63.3l7,15.5h3.7l-8.7-19.7L62,46.1z"></path></svg>