<svg width="101" height="140" viewBox="0 0 101 140" fill="none" xmlns="http://www.w3.org/2000/svg">
<path fill-rule="evenodd" clip-rule="evenodd" d="M79.905 13.4591L97.0994 36.965L97.1466 66.3532L79.905 13.4591ZM79.1975 92.1885L50.493 101.553L96.7456 68.0238L79.1975 92.1885ZM50.493 52.8944L96.3211 67.4827L50.493 100.706V52.8944ZM79.0323 13.012L96.5569 66.8238L50.7053 52.2356L79.0323 13.012ZM50.1392 51.8356L21.6706 12.5415H78.4899L50.1392 51.8356ZM49.7854 100.824L3.79229 67.4827L49.7854 52.8944V100.824ZM21.0338 92.3062L3.2498 67.9532L49.5024 101.483L21.0574 92.3062H21.0338ZM21.1046 12.965L49.5732 52.2356L3.55642 66.8238L21.1046 12.965ZM2.99035 37.1532L20.2555 13.365L3.03753 66.2356L2.99035 37.1532ZM49.9977 2.96498L77.57 11.8591H22.732L49.9977 2.96498ZM99.9062 36.9885V36.0944L99.3637 35.365L81.3438 10.7062L80.8013 9.97675L79.9522 9.6944L50.8468 0.306157L49.9741 0.0238037L49.125 0.306157L20.0668 9.78851L19.1941 10.0709L18.6516 10.8003L0.726077 35.5062L0.183594 36.2356V37.1297L0.230766 67.6238V68.518L0.773249 69.2474L18.7931 93.9062L19.3356 94.6356L20.2083 94.918L49.3137 104.306L50.1864 104.589L51.0591 104.306L80.1173 94.8238L80.99 94.5415L81.5325 93.8121L99.458 69.1062L100.001 68.3768V67.4827L99.9533 36.9885H99.9062Z" fill="url(#paint0_linear)"/>
<path fill-rule="evenodd" clip-rule="evenodd" d="M97.0337 67.6236L79.8394 91.1294L97.0809 38.2353L97.0337 67.6236ZM50.6396 52.3765L96.4913 37.7882L78.9667 91.6L50.6396 52.3765ZM21.605 92.0706L50.0736 52.7765L78.4242 92.0706H21.605ZM49.9085 101.647L22.6428 92.753H77.4808L49.9085 101.647ZM3.49076 37.7882L49.5075 52.3765L21.0389 91.6471L3.49076 37.7882ZM2.90111 67.4589L2.94828 38.3765L20.1662 91.2471L2.90111 67.4589ZM49.6962 3.78824V51.7177L3.70304 37.1294L49.6962 3.78824ZM20.9446 12.3059L49.3896 3.12941L3.13697 36.6588L20.921 12.3059H20.9446ZM50.3802 3.90588L96.2082 37.1294L50.3802 51.7177V3.90588ZM79.0846 12.4L96.6328 36.5647L50.3802 3.0353L79.0846 12.4ZM81.3489 10.7765L80.8064 10.0471L79.9337 9.76471L50.8755 0.282353L50.0028 0L49.1301 0.282353L20.0247 9.67059L19.152 9.95295L18.6095 10.6824L0.589656 35.3412L0.0471725 36.0706V36.9647L0 67.4589V68.353L0.542483 69.0824L18.468 93.7883L19.0105 94.5177L19.8832 94.8L48.9414 104.282L49.7905 104.565L50.6632 104.282L79.7686 94.8942L80.6177 94.6118L81.1602 93.8824L99.1801 69.2236L99.7226 68.4941V67.6L99.7697 37.1059V36.2118L99.2273 35.4824L81.3017 10.7765H81.3489Z" fill="url(#paint1_linear)"/>
<path d="M69.4774 118.8C69.4774 117.529 69.0293 116.447 68.2745 115.694C67.2839 114.706 65.7508 114.141 63.8403 114.141H57.1418V129.694H58.9108V127.67V121.482V115.788H63.7224C66.2461 115.788 67.7084 116.941 67.7084 118.847C67.7084 120.894 66.0338 122.094 63.6988 122.094H62.1657L63.345 123.67L64.029 124.588L66.364 127.694H66.3404L67.85 129.718H70.0199L65.2319 123.365C67.6849 122.918 69.4538 121.412 69.4538 118.823L69.4774 118.8ZM80.6573 114.023H79.0062L71.9068 129.694H73.6993L79.8082 116.07L83.3461 124H78.0628L77.3552 125.576H84.0537L85.8934 129.694H87.7803L80.6809 114.023H80.6573ZM27.6119 129.694H29.3808V122.918H37.8247V121.318H29.3808V115.765H38.8153V114.141H27.6119V129.694ZM18.9321 121.082C15.5121 120.353 14.7102 119.529 14.7102 118.07C14.7102 116.635 16.0074 115.506 18.0358 115.506C19.6397 115.506 21.0785 116.023 22.5408 117.2L23.555 115.859C21.9747 114.588 20.3473 113.953 18.083 113.953C15.1112 113.953 12.9648 115.765 12.9648 118.188C12.9648 120.776 14.6158 121.953 18.2009 122.729C21.4794 123.412 22.2578 124.235 22.2578 125.694C22.2578 127.27 20.8662 128.376 18.7906 128.376C16.6207 128.376 15.064 127.647 13.4365 126.188L12.3516 127.482C14.2149 129.153 16.2433 129.976 18.7198 129.976C21.8096 129.976 24.0503 128.235 24.0503 125.576C24.0503 123.153 22.4465 121.882 18.9793 121.129L18.9321 121.082ZM43.9807 122.659H52.4953V121.059H43.9807V115.741H53.4859V114.141H42.2117V129.694H53.5803V128.094H43.9571V122.659H43.9807Z" fill="#1698D4"/>
<path d="M28.7422 138.941H29.2375V134.212H28.7422V138.941Z" fill="#1698D4"/>
<path d="M30.5119 135.576H31.0072V138.941H30.5119V135.576ZM30.4883 134.282H31.0544V134.823H30.4883V134.282Z" fill="#1698D4"/>
<path d="M31.8672 135.576H32.4097L33.5418 138.376L34.6975 135.576H35.24L33.7541 138.965H33.3059L31.8672 135.576Z" fill="#1698D4"/>
<path d="M36.0392 135.576H36.5345V138.941H36.0392V135.576ZM36.0156 134.282H36.5817V134.823H36.0156V134.282Z" fill="#1698D4"/>
<path d="M37.7695 135.577H38.2648V136.165C38.4771 135.812 38.8309 135.506 39.4206 135.506C40.2461 135.506 40.7178 136.047 40.7178 136.847V138.941H40.2225V136.965C40.2225 136.33 39.8923 135.953 39.279 135.953C38.6894 135.953 38.2648 136.377 38.2648 137.012V138.941H37.7695V135.577Z" fill="#1698D4"/>
<path d="M44.6394 137.106V137.082C44.6394 136.4 44.0497 135.953 43.3893 135.953C42.7525 135.953 42.21 136.4 42.21 137.082V137.106C42.21 137.788 42.7525 138.259 43.3893 138.259C44.0261 138.259 44.6394 137.788 44.6394 137.129V137.106ZM41.8798 139.529L42.1157 139.129C42.493 139.412 42.9412 139.553 43.4129 139.553C44.1677 139.553 44.6394 139.153 44.6394 138.353V137.953C44.3564 138.353 43.9318 138.659 43.3186 138.659C42.5166 138.659 41.7383 138.047 41.7383 137.082V137.059C41.7383 136.071 42.5166 135.482 43.3186 135.482C43.9554 135.482 44.3564 135.788 44.6394 136.165V135.553H45.1347V138.329C45.1347 138.847 44.9696 139.247 44.7101 139.529C44.4035 139.835 43.9554 139.977 43.4365 139.977C42.8704 139.977 42.3515 139.812 41.9034 139.506L41.8798 139.529Z" fill="#1698D4"/>
<path d="M47.9141 138.518L48.1735 138.165C48.5273 138.447 48.9519 138.589 49.3528 138.589C49.7538 138.589 50.0604 138.377 50.0604 138.047V138.024C50.0604 137.694 49.6594 137.553 49.2113 137.436C48.6924 137.294 48.1028 137.106 48.1028 136.494V136.471C48.1028 135.883 48.5745 135.506 49.2585 135.506C49.6594 135.506 50.1312 135.647 50.4614 135.883L50.2255 136.259C49.9189 136.047 49.5651 135.93 49.2349 135.93C48.8339 135.93 48.5745 136.141 48.5745 136.424V136.447C48.5745 136.777 48.999 136.894 49.4472 137.036C49.9661 137.2 50.5321 137.389 50.5321 138V138.024C50.5321 138.659 50.0132 139.036 49.3292 139.036C48.8575 139.036 48.315 138.847 47.9376 138.541L47.9141 138.518Z" fill="#1698D4"/>
<path d="M54.0064 135.576H54.5489L53.1337 139.059C52.8507 139.741 52.5205 140 52.0252 140H51.978C51.7186 140 51.5063 139.929 51.294 139.835L51.4591 139.435C51.6242 139.529 51.7657 139.553 51.978 139.553C52.2846 139.553 52.4733 139.388 52.662 138.918L51.1289 135.576H51.695L52.9215 138.376L54.0064 135.576Z" fill="#1698D4"/>
<path d="M55.0117 138.518L55.2712 138.165C55.625 138.447 56.0495 138.589 56.4269 138.589C56.8279 138.589 57.1345 138.377 57.1345 138.047V138.024C57.1345 137.694 56.7335 137.553 56.2854 137.436C55.7665 137.294 55.1768 137.106 55.1768 136.494V136.471C55.1768 135.883 55.6485 135.506 56.3325 135.506C56.7335 135.506 57.2052 135.647 57.5354 135.883L57.2996 136.259C56.993 136.047 56.6392 135.93 56.309 135.93C55.908 135.93 55.6485 136.141 55.6485 136.424V136.447C55.6485 136.777 56.0731 136.894 56.5212 137.036C57.0401 137.2 57.6062 137.389 57.6062 138V138.024C57.6062 138.659 57.0873 139.036 56.4033 139.036C55.9316 139.036 55.3891 138.847 55.0117 138.541V138.518Z" fill="#1698D4"/>
<path d="M58.7803 138.047V136.024H58.3086V135.577H58.7803V134.565H59.2756V135.577H60.337V136.024H59.2756V138C59.2756 138.4 59.5115 138.565 59.8417 138.565C60.0068 138.565 60.1483 138.541 60.337 138.447V138.871C60.1719 138.965 59.9832 139.012 59.7238 139.012C59.1813 139.012 58.7803 138.753 58.7803 138.071V138.047Z" fill="#1698D4"/>
<path d="M63.6888 137.083C63.6417 136.471 63.2879 135.93 62.6039 135.93C62.0142 135.93 61.5661 136.424 61.5189 137.083H63.6888ZM61 137.271V137.247C61 136.283 61.684 135.506 62.6274 135.506C63.6181 135.506 64.2077 136.306 64.2077 137.294C64.2077 137.365 64.2077 137.389 64.2077 137.459H61.5425C61.6132 138.189 62.1321 138.589 62.7218 138.589C63.1935 138.589 63.5001 138.4 63.7832 138.118L64.0898 138.4C63.7596 138.777 63.335 139.036 62.6982 139.036C61.7783 139.036 61.0236 138.33 61.0236 137.294L61 137.271Z" fill="#1698D4"/>
<path d="M65.1603 135.577H65.6556V136.141C65.8679 135.812 66.1745 135.506 66.7406 135.506C67.2831 135.506 67.6369 135.789 67.8255 136.189C68.0614 135.812 68.4152 135.506 69.0049 135.506C69.7832 135.506 70.2549 136.024 70.2549 136.871V138.965H69.7596V136.989C69.7596 136.33 69.4294 135.977 68.8869 135.977C68.368 135.977 67.9435 136.353 67.9435 137.012V138.941H67.4482V136.965C67.4482 136.33 67.118 135.953 66.5755 135.953C66.033 135.953 65.632 136.4 65.632 137.012V138.941H65.1367V135.577H65.1603Z" fill="#1698D4"/>
<defs>
<linearGradient id="paint0_linear" x1="0.183687" y1="52.2982" x2="99.9175" y2="52.2982" gradientUnits="userSpaceOnUse">
<stop stop-color="#DAF1FC"/>
<stop offset="1" stop-color="#B1D7F2"/>
</linearGradient>
<linearGradient id="paint1_linear" x1="0.14161" y1="52.2979" x2="99.8754" y2="52.2979" gradientUnits="userSpaceOnUse">
<stop stop-color="#96D1F2"/>
<stop offset="1" stop-color="#1698D4"/>
</linearGradient>
</defs>
</svg>
