<svg width="135" height="135" viewBox="0 0 135 135" fill="none" xmlns="http://www.w3.org/2000/svg">
<path d="M7.06223 105.035H0V119.311H7.06223H14.1245V105.035H7.06223C7.10779 105.035 7.10779 105.035 7.06223 105.035ZM1.00237 105.993H3.59945C2.50595 106.632 1.64025 107.544 1.00237 108.593V105.993ZM1.00237 118.353V115.753C1.64025 116.848 2.50595 117.76 3.59945 118.353H1.00237ZM13.1676 118.353H10.6161C11.7096 117.715 12.5753 116.802 13.2132 115.753V118.353H13.1676ZM7.10778 118.353C3.73613 118.353 1.00237 115.571 1.00237 112.196C1.00237 108.775 3.73613 106.039 7.10778 106.039C10.4794 106.039 13.2132 108.821 13.2132 112.196C13.1676 115.571 10.4339 118.353 7.10778 118.353ZM13.1676 105.993V108.593C12.5298 107.498 11.6641 106.586 10.5705 105.993H13.1676Z" fill="white"/>
<path d="M22.8259 105.035H15.7637V119.311H22.8259H29.8881V105.035H22.8259ZM16.7205 105.993H19.3176C18.2241 106.632 17.3584 107.544 16.7205 108.593V105.993ZM16.7205 118.353V115.753C17.3584 116.848 18.2241 117.76 19.3176 118.353H16.7205ZM28.9313 118.353H26.3342C27.4277 117.715 28.2934 116.802 28.9313 115.753V118.353ZM22.8259 118.353C19.4543 118.353 16.7205 115.571 16.7205 112.196C16.7205 108.775 19.4543 106.039 22.8259 106.039C26.1975 106.039 28.9313 108.821 28.9313 112.196C28.9313 115.571 26.1975 118.353 22.8259 118.353ZM28.9313 105.993V108.593C28.2934 107.498 27.4277 106.586 26.3342 105.993H28.9313Z" fill="white"/>
<path d="M38.5466 105.035H31.4844V119.311H38.5466H45.6088V105.035H38.5466ZM32.4412 105.993H35.0383C33.9448 106.632 33.0791 107.544 32.4412 108.593V105.993ZM32.4412 118.353V115.753C33.0791 116.848 33.9448 117.76 35.0383 118.353H32.4412ZM44.652 118.353H42.0549C43.1484 117.715 44.0141 116.802 44.652 115.753V118.353ZM38.5466 118.353C35.175 118.353 32.4412 115.571 32.4412 112.196C32.4412 108.775 35.175 106.039 38.5466 106.039C41.9182 106.039 44.652 108.821 44.652 112.196C44.652 115.571 41.9182 118.353 38.5466 118.353ZM44.652 105.993V108.593C44.0141 107.498 43.1484 106.586 42.0549 105.993H44.652Z" fill="white"/>
<path d="M0.0449219 103.622H14.1238V89.3919H0.0449219V103.622ZM13.167 102.664H10.6155C11.709 102.025 12.5747 101.113 13.2126 100.064V102.664H13.167ZM13.167 90.3497V92.9493C12.5291 91.8547 11.6634 90.9426 10.5699 90.3497H13.167ZM1.00174 90.3497H3.59882C2.50532 90.9882 1.63962 91.9003 1.00174 92.9493V90.3497ZM7.0616 90.3497C10.4332 90.3497 13.167 93.1318 13.167 96.5068C13.167 99.9274 10.4332 102.664 7.0616 102.664C3.68995 102.664 0.956177 99.8818 0.956177 96.5068C1.00174 93.0862 3.73552 90.3497 7.0616 90.3497ZM1.00174 100.064C1.63962 101.159 2.50532 102.071 3.59882 102.664H1.00174V100.064Z" fill="white"/>
<path d="M15.7637 103.622H29.8426V89.3919H15.7637V103.622ZM28.9313 102.664H26.3342C27.4277 102.025 28.2934 101.113 28.9313 100.064V102.664ZM28.9313 90.3497V92.9493C28.2934 91.8547 27.4277 90.9426 26.3342 90.3497H28.9313ZM16.7205 90.3497H19.3176C18.2241 90.9882 17.3584 91.9003 16.7205 92.9493V90.3497ZM22.8259 90.3497C26.1975 90.3497 28.9313 93.1318 28.9313 96.5068C28.9313 99.9274 26.1975 102.664 22.8259 102.664C19.4543 102.664 16.7205 99.8818 16.7205 96.5068C16.7205 93.0862 19.4543 90.3497 22.8259 90.3497ZM16.7205 100.064C17.3584 101.159 18.2241 102.071 19.3176 102.664H16.7205V100.064Z" fill="white"/>
<path d="M31.4844 89.3919V103.667H45.5633V89.3919H31.4844ZM32.4412 90.3497H35.0383C33.9448 90.9882 33.0791 91.9003 32.4412 92.9493V90.3497ZM32.4412 102.664V100.064C33.0791 101.159 33.9448 102.071 35.0383 102.664H32.4412ZM44.652 102.664H42.0549C43.1484 102.025 44.0141 101.113 44.652 100.064V102.664ZM38.5466 102.664C35.175 102.664 32.4412 99.8818 32.4412 96.5068C32.4412 93.0862 35.175 90.3497 38.5466 90.3497C41.9182 90.3497 44.652 93.1318 44.652 96.5068C44.652 99.8818 41.9182 102.664 38.5466 102.664ZM44.652 92.9493C44.0141 91.8547 43.1484 90.9426 42.0549 90.3497H44.652V92.9493Z" fill="white"/>
<path d="M0.0449219 135H14.1238V120.725H0.0449219V135ZM13.167 134.042H10.6155C11.709 133.404 12.5747 132.492 13.2126 131.443V134.042H13.167ZM13.167 121.682V124.282C12.5291 123.188 11.6634 122.275 10.5699 121.682H13.167ZM1.00174 121.682H3.59882C2.50532 122.321 1.63962 123.233 1.00174 124.282V121.682ZM7.0616 121.682C10.4332 121.682 13.167 124.465 13.167 127.84C13.167 131.26 10.4332 133.997 7.0616 133.997C3.68995 133.997 0.956177 131.215 0.956177 127.84C1.00174 124.465 3.73552 121.682 7.0616 121.682ZM1.00174 131.397C1.63962 132.492 2.50532 133.404 3.59882 133.997H1.00174V131.397Z" fill="white"/>
<path d="M15.7637 135H29.8426V120.725H15.7637V135ZM28.9313 134.042H26.3342C27.4277 133.404 28.2934 132.492 28.9313 131.443V134.042ZM28.9313 121.682V124.282C28.2934 123.188 27.4277 122.275 26.3342 121.682H28.9313ZM16.7205 121.682H19.3176C18.2241 122.321 17.3584 123.233 16.7205 124.282V121.682ZM22.8259 121.682C26.1975 121.682 28.9313 124.465 28.9313 127.84C28.9313 131.26 26.1975 133.997 22.8259 133.997C19.4543 133.997 16.7205 131.215 16.7205 127.84C16.7205 124.465 19.4543 121.682 22.8259 121.682ZM16.7205 131.397C17.3584 132.492 18.2241 133.404 19.3176 133.997H16.7205V131.397Z" fill="white"/>
<path d="M31.4844 135H45.5633V120.725H31.4844V135ZM44.652 134.042H42.0549C43.1484 133.404 44.0141 132.492 44.652 131.443V134.042ZM44.652 121.682V124.282C44.0141 123.188 43.1484 122.275 42.0549 121.682H44.652ZM32.4412 121.682H35.0383C33.9448 122.321 33.0791 123.233 32.4412 124.282V121.682ZM38.5466 121.682C41.9182 121.682 44.652 124.465 44.652 127.84C44.652 131.26 41.9182 133.997 38.5466 133.997C35.175 133.997 32.4412 131.215 32.4412 127.84C32.4412 124.465 35.175 121.682 38.5466 121.682ZM32.4412 131.397C33.0791 132.492 33.9448 133.404 35.0383 133.997H32.4412V131.397Z" fill="white"/>
<path d="M0 0V45.6081H45.6081V0H0ZM43.9662 0.957773L38.5389 6.38514H7.06926L1.64189 0.957773H43.9662ZM38.2652 7.34291V38.2652H7.34291V7.34291H38.2652ZM0.95777 1.64189L6.38514 7.06926V38.5845L0.95777 44.0118V1.64189ZM1.64189 44.6503L7.06926 39.223H38.5845L44.0118 44.6503H1.64189ZM44.6503 43.9662L39.223 38.5389V7.02365L44.6503 1.59628V43.9662Z" fill="white"/>
<path d="M22.8036 34.9358C29.508 34.9358 34.9354 29.5084 34.9354 22.804C34.9354 16.0997 29.508 10.6723 22.8036 10.6723C16.0992 10.6723 10.6719 16.0997 10.6719 22.804C10.6719 29.4628 16.0992 34.9358 22.8036 34.9358ZM22.8036 11.6301C28.9607 11.6301 33.9776 16.647 33.9776 22.804C33.9776 28.9611 28.9607 33.978 22.8036 33.978C16.6465 33.978 11.6296 28.9611 11.6296 22.804C11.6296 16.647 16.6465 11.6301 22.8036 11.6301Z" fill="white"/>
<path d="M90.3054 44.6959H44.6973V90.3041H90.3054V44.6959ZM83.7834 77.4882C82.552 79.4949 80.9557 81.2737 79.0858 82.6875V52.3125C80.9557 53.7264 82.552 55.5051 83.7834 57.5118V77.4882ZM84.6956 59.1537C85.927 61.6622 86.6111 64.4899 86.6111 67.5C86.6111 70.5101 85.927 73.3379 84.6956 75.8463V59.1537ZM73.5216 49.348C75.2091 49.8953 76.7598 50.6706 78.2192 51.674V83.326C76.8054 84.2838 75.2091 85.1047 73.5216 85.652V49.348ZM72.655 85.9257C71.0131 86.3818 69.28 86.6098 67.5013 86.6098C56.9658 86.6098 48.3915 78.0355 48.3915 67.5C48.3915 56.9645 56.9658 48.3902 67.5013 48.3902C69.28 48.3902 71.0131 48.6182 72.655 49.0743V85.9257ZM73.5216 48.3446V45.6537H78.2192V50.5338C76.7598 49.6216 75.2091 48.8919 73.5216 48.3446ZM78.2192 84.4662V89.3463H73.5216V86.6554C75.2091 86.1081 76.7598 85.3784 78.2192 84.4662ZM79.1314 83.8733C80.9557 82.5963 82.5064 81 83.829 79.2213V89.3919H79.1314V83.8733ZM79.1314 51.1723V45.6993H83.829V55.8699C82.5064 54 80.9101 52.4493 79.1314 51.1723ZM45.655 45.6537H72.655V48.1166C71.0131 47.6605 69.28 47.4324 67.5013 47.4324C56.4186 47.4324 47.4338 56.4172 47.4338 67.5C47.4338 78.5828 56.4186 87.5676 67.5013 87.5676C69.28 87.5676 71.0131 87.3395 72.655 86.8834V89.3463H45.655V45.6537ZM89.3476 89.3463H84.6956V77.8531C86.5199 74.8429 87.5689 71.2855 87.5689 67.5C87.5689 63.7145 86.5199 60.1571 84.6956 57.147V45.6537H89.3476V89.3463Z" fill="white"/>
<path d="M89.3926 89.3919V135H135.001V89.3919H89.3926ZM90.3504 134.042V120.998C97.4652 121.226 103.166 126.973 103.394 134.042H90.3504ZM134.089 134.042H104.398C104.17 126.426 98.0125 120.269 90.396 120.041V90.3497H120.087C120.269 98.0118 126.426 104.215 134.089 104.488V134.042ZM134.089 103.485C126.974 103.257 121.227 97.4645 121.045 90.3041H134.089V103.485Z" fill="white"/>
<path d="M112.197 96.3699C104.215 96.3699 97.6934 102.892 97.6934 110.873C97.6934 118.855 104.215 125.377 112.197 125.377C120.178 125.377 126.7 118.855 126.7 110.873C126.7 102.892 120.224 96.3699 112.197 96.3699ZM112.197 124.465C104.717 124.465 98.6511 118.399 98.6511 110.919C98.6511 103.439 104.717 97.3733 112.197 97.3733C119.676 97.3733 125.742 103.439 125.742 110.919C125.788 118.353 119.676 124.465 112.197 124.465Z" fill="white"/>
</svg>
