<svg width="291" height="210" viewBox="0 0 291 210" fill="none" xmlns="http://www.w3.org/2000/svg">
<path d="M260.574 128.348H255V139.616H260.574H266.149V128.348H260.574C260.61 128.348 260.61 128.348 260.574 128.348ZM255.791 129.104H257.841C256.978 129.608 256.295 130.328 255.791 131.156V129.104ZM255.791 138.86V136.808C256.295 137.672 256.978 138.392 257.841 138.86H255.791ZM265.394 138.86H263.38C264.243 138.356 264.926 137.636 265.43 136.808V138.86H265.394ZM260.61 138.86C257.949 138.86 255.791 136.664 255.791 134C255.791 131.3 257.949 129.14 260.61 129.14C263.272 129.14 265.43 131.336 265.43 134C265.394 136.664 263.236 138.86 260.61 138.86ZM265.394 129.104V131.156C264.89 130.292 264.207 129.572 263.344 129.104H265.394Z" fill="black" fill-opacity="0.25"/>
<path d="M273.018 128.348H267.443V139.616H273.018H278.592V128.348H273.018ZM268.199 129.104H270.249C269.385 129.608 268.702 130.328 268.199 131.156V129.104ZM268.199 138.86V136.808C268.702 137.672 269.385 138.392 270.249 138.86H268.199ZM277.837 138.86H275.787C276.65 138.356 277.333 137.636 277.837 136.808V138.86ZM273.018 138.86C270.356 138.86 268.199 136.664 268.199 134C268.199 131.3 270.356 129.14 273.018 129.14C275.679 129.14 277.837 131.336 277.837 134C277.837 136.664 275.679 138.86 273.018 138.86ZM277.837 129.104V131.156C277.333 130.292 276.65 129.572 275.787 129.104H277.837Z" fill="black" fill-opacity="0.25"/>
<path d="M285.425 128.348H279.851V139.616H285.425H291V128.348H285.425ZM280.606 129.104H282.656C281.793 129.608 281.11 130.328 280.606 131.156V129.104ZM280.606 138.86V136.808C281.11 137.672 281.793 138.392 282.656 138.86H280.606ZM290.245 138.86H288.195C289.058 138.356 289.741 137.636 290.245 136.808V138.86ZM285.425 138.86C282.764 138.86 280.606 136.664 280.606 134C280.606 131.3 282.764 129.14 285.425 129.14C288.087 129.14 290.245 131.336 290.245 134C290.245 136.664 288.087 138.86 285.425 138.86ZM290.245 129.104V131.156C289.741 130.292 289.058 129.572 288.195 129.104H290.245Z" fill="black" fill-opacity="0.25"/>
<path d="M255.035 127.232H266.148V116H255.035V127.232ZM265.393 126.476H263.379C264.242 125.972 264.925 125.252 265.429 124.424V126.476H265.393ZM265.393 116.756V118.808C264.889 117.944 264.206 117.224 263.343 116.756H265.393ZM255.79 116.756H257.84C256.977 117.26 256.294 117.98 255.79 118.808V116.756ZM260.573 116.756C263.235 116.756 265.393 118.952 265.393 121.616C265.393 124.316 263.235 126.476 260.573 126.476C257.912 126.476 255.754 124.28 255.754 121.616C255.79 118.916 257.948 116.756 260.573 116.756ZM255.79 124.424C256.294 125.288 256.977 126.008 257.84 126.476H255.79V124.424Z" fill="black" fill-opacity="0.25"/>
<path d="M267.443 127.232H278.556V116H267.443V127.232ZM277.837 126.476H275.787C276.65 125.972 277.333 125.252 277.837 124.424V126.476ZM277.837 116.756V118.808C277.333 117.944 276.65 117.224 275.787 116.756H277.837ZM268.199 116.756H270.249C269.385 117.26 268.702 117.98 268.199 118.808V116.756ZM273.018 116.756C275.679 116.756 277.837 118.952 277.837 121.616C277.837 124.316 275.679 126.476 273.018 126.476C270.356 126.476 268.199 124.28 268.199 121.616C268.199 118.916 270.356 116.756 273.018 116.756ZM268.199 124.424C268.702 125.288 269.385 126.008 270.249 126.476H268.199V124.424Z" fill="black" fill-opacity="0.25"/>
<path d="M279.851 116V127.268H290.964V116H279.851ZM280.606 116.756H282.656C281.793 117.26 281.11 117.98 280.606 118.808V116.756ZM280.606 126.476V124.424C281.11 125.288 281.793 126.008 282.656 126.476H280.606ZM290.245 126.476H288.195C289.058 125.972 289.741 125.252 290.245 124.424V126.476ZM285.425 126.476C282.764 126.476 280.606 124.28 280.606 121.616C280.606 118.916 282.764 116.756 285.425 116.756C288.087 116.756 290.245 118.952 290.245 121.616C290.245 124.28 288.087 126.476 285.425 126.476ZM290.245 118.808C289.741 117.944 289.058 117.224 288.195 116.756H290.245V118.808Z" fill="black" fill-opacity="0.25"/>
<path d="M255.035 152H266.148V140.732H255.035V152ZM265.393 151.244H263.379C264.242 150.74 264.925 150.02 265.429 149.192V151.244H265.393ZM265.393 141.488V143.54C264.889 142.676 264.206 141.956 263.343 141.488H265.393ZM255.79 141.488H257.84C256.977 141.992 256.294 142.712 255.79 143.54V141.488ZM260.573 141.488C263.235 141.488 265.393 143.684 265.393 146.348C265.393 149.048 263.235 151.208 260.573 151.208C257.912 151.208 255.754 149.012 255.754 146.348C255.79 143.684 257.948 141.488 260.573 141.488ZM255.79 149.156C256.294 150.02 256.977 150.74 257.84 151.208H255.79V149.156Z" fill="black" fill-opacity="0.25"/>
<path d="M267.443 152H278.556V140.732H267.443V152ZM277.837 151.244H275.787C276.65 150.74 277.333 150.02 277.837 149.192V151.244ZM277.837 141.488V143.54C277.333 142.676 276.65 141.956 275.787 141.488H277.837ZM268.199 141.488H270.249C269.385 141.992 268.702 142.712 268.199 143.54V141.488ZM273.018 141.488C275.679 141.488 277.837 143.684 277.837 146.348C277.837 149.048 275.679 151.208 273.018 151.208C270.356 151.208 268.199 149.012 268.199 146.348C268.199 143.684 270.356 141.488 273.018 141.488ZM268.199 149.156C268.702 150.02 269.385 150.74 270.249 151.208H268.199V149.156Z" fill="black" fill-opacity="0.25"/>
<path d="M279.851 152H290.964V140.732H279.851V152ZM290.245 151.244H288.195C289.058 150.74 289.741 150.02 290.245 149.192V151.244ZM290.245 141.488V143.54C289.741 142.676 289.058 141.956 288.195 141.488H290.245ZM280.606 141.488H282.656C281.793 141.992 281.11 142.712 280.606 143.54V141.488ZM285.425 141.488C288.087 141.488 290.245 143.684 290.245 146.348C290.245 149.048 288.087 151.208 285.425 151.208C282.764 151.208 280.606 149.012 280.606 146.348C280.606 143.684 282.764 141.488 285.425 141.488ZM280.606 149.156C281.11 150.02 281.793 150.74 282.656 151.208H280.606V149.156Z" fill="black" fill-opacity="0.25"/>
<path d="M87 174H51V210H87V174ZM69.072 191.388L60.756 183.144L69 174.9L77.28 183.18L69.072 191.388ZM68.388 191.928L60.144 200.244L51.9 192L60.18 183.72L68.388 191.928ZM68.928 192.576L77.244 200.82L69 209.064L60.72 200.784L68.928 192.576ZM69.612 192.072L77.856 183.756L86.1 192L77.82 200.28L69.612 192.072ZM78.36 183.216L86.244 175.296V191.1L78.36 183.216ZM85.704 174.756L77.784 182.676L69.864 174.756H85.704V174.756ZM60.216 182.604L52.296 174.72H68.1L60.216 182.604ZM51.756 175.26L59.676 183.18L51.756 191.1V175.26ZM59.604 200.748L51.72 208.668V192.9L59.604 200.748ZM52.296 209.244L60.216 201.324L68.136 209.244H52.296ZM77.784 201.36L85.704 209.244H69.9L77.784 201.36ZM86.244 208.704L78.324 200.784L86.244 192.864V208.704Z" fill="black" fill-opacity="0.25"/>
<path d="M222.36 0H204V18.36V36H222.36H240V18.36V0H222.36ZM221.604 8.208H212.208V17.604H204.756C204.972 8.388 212.424 0.936 221.604 0.756V8.208ZM231 17.604H222.36V8.964H231V17.604ZM212.928 18.36H221.568V27H212.928V18.36ZM222.36 18.36H231V27H222.36V18.36ZM221.604 17.604H212.964V8.964H221.604V17.604ZM212.172 18.36V27.756H221.568V35.208C212.352 34.992 204.9 27.54 204.72 18.36H212.172ZM222.36 27.756H231.756V18.36H239.208C238.992 27.576 231.54 35.028 222.36 35.208V27.756ZM231.756 17.604V8.208H222.36V0.756C231.576 0.972 239.028 8.424 239.208 17.604H231.756ZM204.72 0.756H216.816C211.02 2.484 206.448 7.056 204.72 12.852V0.756ZM204.72 35.244V23.148C206.448 28.944 211.02 33.516 216.816 35.244H204.72ZM227.112 35.244C232.908 33.516 237.48 28.944 239.208 23.148V35.244H227.112ZM227.112 0.756H239.208V12.852C237.48 7.056 232.908 2.484 227.112 0.756Z" fill="black" fill-opacity="0.25"/>
<path d="M278.508 0H267.528H266.772H255V11.7477V12.5045V23.4955V24.2523V36H266.736H267.492H278.472H279.228H291V24.2523V23.4955V12.5045V11.7477V0H279.264H278.508ZM278.508 33.3333L275.484 24.2883H278.508V33.3333ZM275.232 23.4955L271.56 12.5045H278.508V23.4955H275.232ZM267.492 2.7027L270.516 11.7477H267.492V2.7027ZM266.736 23.4955H263.46L259.788 12.5045H266.736V23.4955V23.4955ZM266.736 24.2523V33.2973L263.712 24.2523H266.736ZM267.492 12.5045H270.768L274.44 23.4955H267.492V12.5045ZM279.264 12.5045H282.54L286.212 23.4955H279.264V12.5045V12.5045ZM279.264 11.7477V2.7027L282.288 11.7477H279.264ZM278.508 11.7477H271.308L267.636 0.756757H278.472V11.7477H278.508ZM266.736 11.7477H259.536L255.864 0.756757H266.7V11.7477H266.736ZM255.756 2.7027L258.78 11.7477H255.756V2.7027ZM255.756 12.5045H259.032L262.704 23.4955H255.756V12.5045V12.5045ZM255.756 24.2523H262.956L266.628 35.2432H255.792V24.2523H255.756ZM267.492 24.2523H274.692L278.364 35.2432H267.528V24.2523H267.492ZM279.264 24.2523H286.464L290.136 35.2432H279.3V24.2523H279.264ZM290.244 33.3333L287.22 24.2883H290.244V33.3333ZM290.244 23.4955H286.968L283.296 12.5045H290.244V23.4955V23.4955ZM290.244 11.7477H283.044L279.372 0.756757H290.208V11.7477H290.244Z" fill="black" fill-opacity="0.25"/>
<path d="M204 210H240V174H204V210ZM209.58 204.96H234.456L238.74 209.244H205.296L209.58 204.96ZM234.204 203.592C231.72 200.928 224.088 193.512 222.54 192L234.204 180.336V203.592ZM209.796 203.664V179.76H233.7L209.796 203.664ZM222 192.54C223.548 194.016 231.396 201.684 233.772 204.204H210.336L222 192.54ZM234.96 204.42V179.544L239.244 175.26V208.704L234.96 204.42ZM234.42 179.04H209.544L205.26 174.756H238.704L234.42 179.04ZM209.04 179.58V204.456L204.756 208.74V175.296L209.04 179.58Z" fill="black" fill-opacity="0.25"/>
<path d="M153 36H189V0H153V36V36ZM183.204 17.208L171.792 5.796H183.204V17.208ZM183.204 18.792V30.204H171.792L183.204 18.792ZM171 29.916L159.084 18L171 6.084L182.916 18L171 29.916ZM158.796 17.208V5.796H170.208L158.796 17.208ZM170.208 30.204H158.796V18.792L170.208 30.204ZM158.58 30.96H170.964L171 30.996L171.036 30.96H183.42L187.704 35.244H154.26L158.58 30.96ZM183.96 30.42V18.036L183.996 18L183.96 17.964V5.58L188.244 1.296V34.74L183.96 30.42ZM183.42 5.04H171.036L171 5.004L170.964 5.04H158.58L154.296 0.756002H187.74L183.42 5.04ZM158.04 5.58V17.964L158.004 18L158.04 18.036V30.42L153.756 34.704V1.26L158.04 5.58Z" fill="black" fill-opacity="0.25"/>
<path d="M36 174H0V210H36V174ZM24.3 204.204C21.024 204.204 18.396 201.54 18.396 198.3C18.396 195.024 21.06 192.396 24.3 192.396C27.576 192.396 30.204 195.06 30.204 198.3C30.24 201.54 27.576 204.204 24.3 204.204ZM30.24 201.36V204.204H27.396C28.584 203.556 29.592 202.584 30.24 201.36ZM24.3 191.604C20.628 191.604 17.64 194.592 17.64 198.264C17.64 200.82 19.116 203.052 21.24 204.168H5.796V192.324H18.396V179.724H30.24V195.168C29.124 193.08 26.892 191.604 24.3 191.604ZM5.796 191.604V179.76H17.64V191.604H5.796ZM30.456 179.04H18.396H5.58L1.296 174.756H34.74L30.456 179.04ZM5.04 179.58V192.396V204.456L0.756002 208.74V175.296L5.04 179.58ZM5.58 204.96H30.456L34.74 209.244H1.296L5.58 204.96ZM30.996 204.42V179.544L35.28 175.26V208.704L30.996 204.42Z" fill="black" fill-opacity="0.25"/>
<path d="M51 0.396002V35.64V36H87V0H51V0.396002V0.396002ZM53.412 5.292L68.388 35.244H63.384L53.412 5.292ZM62.592 35.244H57.12L52.404 4.716L62.592 35.244ZM54.42 5.616L74.184 35.244H69.216L54.42 5.616ZM55.608 6.04801L79.944 35.244H75.084L55.608 6.04801ZM56.976 6.516L85.704 35.244H80.916L56.976 6.516ZM84.588 30.708L69.612 0.756002H74.616L84.588 30.708ZM75.408 0.756002H80.88L85.596 31.284L75.408 0.756002ZM83.58 30.384L63.816 0.756002H68.748L83.58 30.384ZM82.392 29.952L58.056 0.756002H62.916L82.392 29.952ZM81.024 29.484L52.296 0.756002H57.084L81.024 29.484ZM51.756 5.292L56.364 35.244H51.756V5.292ZM86.244 30.708L81.636 0.756002H86.244V30.708Z" fill="black" fill-opacity="0.25"/>
<path d="M291 174H255V210H291V174ZM290.28 197.652L284.556 191.964L290.244 186.276V197.652H290.28ZM290.28 185.196L283.512 191.964L290.28 198.732V203.34L278.904 191.964L290.28 180.588V185.196ZM290.28 179.544L277.824 191.964L290.244 204.384V208.668L273.54 192L290.244 175.296V179.544H290.28ZM272.928 202.548L266.268 209.244H261.66L272.964 197.94L284.268 209.244H279.66L272.928 202.548ZM278.58 209.244H267.312L272.928 203.628L278.58 209.244ZM272.928 196.86L260.544 209.244H256.296L273 192.54L289.74 209.244H285.312L272.928 196.86ZM255.756 198.624L262.452 191.928L255.756 185.232V180.588L267.06 191.892L255.756 203.196V198.624ZM255.756 197.544V186.276L261.372 191.892L255.756 197.544ZM255.756 204.276L268.14 191.892L255.756 179.508V175.26L272.46 191.964L255.756 208.668V204.276ZM273.072 181.416L279.768 174.72H284.376L273.072 186.024L261.768 174.72H266.376L273.072 181.416ZM267.456 174.756H278.724L273.108 180.372L267.456 174.756ZM273.108 187.104L285.492 174.72H289.74L273.036 191.424L256.332 174.72H260.76L273.108 187.104Z" fill="black" fill-opacity="0.25"/>
<path d="M138 210V174H102V210H138ZM133.68 175.584C132.384 177.672 129.972 181.596 129.972 186.132C129.972 188.112 131.124 190.2 132.204 192.18C133.248 194.088 134.364 196.068 134.364 197.868C134.364 201.072 133.284 202.404 132.168 203.844C131.124 205.14 130.08 206.508 130.008 209.244H127.056C127.128 206.724 127.74 205.5 128.424 204.24C129.18 202.8 129.972 201.288 129.972 197.868C129.972 195.924 129.216 193.872 128.496 191.892C127.776 189.948 127.056 187.968 127.056 186.132C127.056 181.74 128.64 177.924 129.468 175.872C129.684 175.332 129.828 174.972 129.9 174.756H134.22C134.04 174.972 133.86 175.26 133.68 175.584ZM128.784 175.62C127.92 177.708 126.336 181.596 126.336 186.132C126.336 188.076 127.092 190.128 127.812 192.144C128.532 194.088 129.252 196.068 129.252 197.904C129.252 201.144 128.496 202.548 127.776 203.952C127.092 205.248 126.408 206.58 126.336 209.28H123.348C123.384 206.724 123.708 205.5 124.032 204.204C124.392 202.764 124.788 201.288 124.788 197.904C124.788 195.996 124.428 193.944 124.068 191.964C123.708 190.02 123.348 188.004 123.348 186.132C123.348 181.704 124.14 177.888 124.572 175.836C124.68 175.332 124.752 175.008 124.788 174.756H129.144C129.036 175.008 128.892 175.296 128.784 175.62ZM123.852 175.692C123.42 177.78 122.628 181.632 122.628 186.132C122.628 188.04 122.988 190.092 123.348 192.072C123.708 194.016 124.068 196.032 124.068 197.868C124.068 201.144 123.672 202.584 123.312 203.988C122.988 205.284 122.628 206.616 122.592 209.244H120.288V174.756H124.032C123.996 175.008 123.924 175.332 123.852 175.692ZM119.64 209.244H117.372C117.336 206.58 117.012 205.248 116.652 203.988C116.292 202.584 115.896 201.144 115.896 197.868C115.896 195.996 116.256 194.016 116.616 192.072C116.976 190.092 117.336 188.04 117.336 186.132C117.336 181.632 116.544 177.78 116.112 175.692C116.04 175.332 115.968 175.008 115.932 174.756H119.604V209.244H119.64ZM115.464 175.836C115.896 177.888 116.688 181.704 116.688 186.132C116.688 188.004 116.328 190.02 115.968 191.964C115.608 193.944 115.248 195.96 115.248 197.904C115.248 201.252 115.644 202.764 116.004 204.204C116.328 205.5 116.652 206.724 116.688 209.28H113.7C113.628 206.58 112.944 205.248 112.26 203.952C111.54 202.584 110.784 201.144 110.784 197.904C110.784 196.068 111.504 194.088 112.224 192.144C112.944 190.164 113.7 188.112 113.7 186.132C113.7 181.596 112.116 177.708 111.252 175.62C111.108 175.296 111 175.008 110.892 174.756H115.248C115.284 175.008 115.356 175.332 115.464 175.836ZM110.568 175.872C111.396 177.924 112.98 181.74 112.98 186.132C112.98 187.968 112.26 189.948 111.54 191.892C110.82 193.872 110.064 195.924 110.064 197.868C110.064 201.288 110.856 202.764 111.612 204.24C112.296 205.5 112.908 206.724 112.98 209.244H109.992C109.884 206.508 108.84 205.176 107.832 203.844C106.716 202.404 105.636 201.072 105.636 197.868C105.636 196.068 106.716 194.088 107.796 192.18C108.912 190.164 110.028 188.112 110.028 186.132C110.028 181.56 107.616 177.672 106.32 175.584C106.14 175.296 105.96 175.008 105.816 174.792H110.136C110.208 175.008 110.352 175.332 110.568 175.872ZM137.244 209.244H130.692C130.764 206.76 131.7 205.572 132.708 204.276C133.86 202.8 135.048 201.288 135.048 197.868C135.048 195.888 133.896 193.836 132.816 191.82C131.772 189.912 130.656 187.896 130.656 186.096C130.656 181.74 132.996 177.96 134.256 175.908C134.616 175.332 134.832 174.972 134.94 174.72H137.208V209.244H137.244ZM102.756 174.756H105.024C105.132 175.008 105.348 175.368 105.708 175.944C106.968 177.996 109.308 181.776 109.308 186.132C109.308 187.932 108.228 189.912 107.148 191.856C106.068 193.836 104.916 195.924 104.916 197.904C104.916 201.324 106.104 202.872 107.256 204.312C108.264 205.572 109.2 206.796 109.272 209.28H102.72V174.756H102.756Z" fill="black" fill-opacity="0.25"/>
<path d="M291 94V58H255V94H291ZM290.244 92.02L277.032 65.596L290.244 58.972V92.02ZM289.02 58.756L276.672 64.912L273.576 58.756H289.02ZM255.756 58.756H272.784L276.024 65.272L255.756 75.388V58.756ZM255.756 76.216L276.348 65.92L290.028 93.244H255.756V76.216Z" fill="black" fill-opacity="0.25"/>
<path d="M260.508 89.428H268.608V81.328H260.508V89.428ZM261.264 82.084H267.852V88.672H261.264V82.084Z" fill="black" fill-opacity="0.25"/>
<path d="M0 0V36H36V0H0ZM0.756002 0.756002H17.532L0.792004 17.496V0.756002H0.756002ZM0.756002 35.244V18.504L17.496 35.244H0.756002ZM17.64 34.308L1.332 18L17.64 1.692V34.308ZM18.396 0.756002H23.76C21.348 1.62 19.404 3.456 18.396 5.76V0.756002ZM35.244 35.244H18.36V13.032C19.764 16.308 23.004 18.576 26.784 18.576C30.564 18.576 33.804 16.272 35.208 13.032V35.244H35.244ZM26.82 17.856C22.176 17.856 18.396 14.076 18.396 9.432C18.396 4.788 22.176 1.00801 26.82 1.00801C31.464 1.00801 35.244 4.788 35.244 9.432C35.244 14.076 31.464 17.856 26.82 17.856ZM35.244 5.76C34.236 3.42 32.292 1.62 29.88 0.756002H35.244V5.76Z" fill="black" fill-opacity="0.25"/>
<path d="M22.732 30.9433H30.8446V22.8223H22.732V30.9433ZM23.4892 23.5802H30.0875V30.1853H23.4892V23.5802Z" fill="black" fill-opacity="0.25"/>
<path d="M124.032 36L105.24 36L102 36L102 0L138 1.57361e-06L138 36L124.032 36ZM123.276 25.308C120.828 25.236 118.56 24.372 116.76 23.004L106.824 35.28L123.276 35.28L123.276 25.308ZM112.944 13.896C112.944 17.1 114.384 20.016 116.652 21.96L119.388 18.576C118.128 17.424 117.3 15.732 117.3 13.896C117.3 10.368 120.144 7.524 123.672 7.524C127.2 7.524 130.044 10.368 130.044 13.896C130.044 17.28 127.38 20.052 124.068 20.232L124.068 24.588C129.792 24.372 134.4 19.692 134.4 13.896C134.4 7.992 129.612 3.168 123.672 3.168C117.732 3.168 112.944 7.956 112.944 13.896ZM124.032 12.816L124.032 19.476C126.948 19.296 129.252 16.848 129.252 13.896C129.252 10.8 126.732 8.28 123.636 8.28C120.54 8.28 118.02 10.8 118.02 13.896C118.02 15.516 118.704 16.992 119.82 18L124.032 12.816ZM120.432 18.468C121.26 19.044 122.232 19.404 123.276 19.476L123.276 14.94L120.432 18.468ZM123.276 20.232C122.052 20.16 120.9 19.728 119.964 19.044L117.228 22.428C118.92 23.724 121.008 24.48 123.276 24.588L123.276 20.232ZM137.244 0.756004L102.756 0.756002L102.756 35.244L105.852 35.244L116.148 22.5C113.736 20.412 112.188 17.316 112.188 13.86C112.188 7.524 117.336 2.41201 123.636 2.41201C129.972 2.41201 135.084 7.56 135.084 13.86C135.084 20.052 130.152 25.092 123.996 25.308L123.996 35.244L137.208 35.244L137.208 0.756004L137.244 0.756004Z" fill="black" fill-opacity="0.25"/>
<path d="M0 116V152H36V116H0ZM18 131.408C16.92 127.736 13.572 125 9.576 124.82C9.756 120.32 13.464 116.756 18 116.756C22.536 116.756 26.244 120.356 26.424 124.82C22.428 125 19.08 127.7 18 131.408ZM26.424 125.576C26.208 129.896 22.752 133.388 18.396 133.604C18.612 129.248 22.068 125.756 26.424 125.576ZM26.424 142.388C22.104 142.172 18.612 138.716 18.396 134.36C22.752 134.576 26.208 138.068 26.424 142.388ZM17.604 133.604C13.284 133.388 9.792 129.932 9.576 125.576C13.932 125.756 17.388 129.248 17.604 133.604ZM0.756002 116.756H14.364C11.196 118.124 8.964 121.22 8.82 124.82C5.184 124.964 2.124 127.196 0.756002 130.364V116.756V116.756ZM8.82 125.576C9 129.572 11.7 132.92 15.408 134C11.736 135.08 9 138.428 8.82 142.424C4.32 142.244 0.756002 138.536 0.756002 134C0.756002 129.464 4.356 125.756 8.82 125.576ZM17.604 134.396C17.388 138.716 13.932 142.208 9.576 142.424C9.792 138.068 13.284 134.576 17.604 134.396ZM0.756002 151.244V137.636C2.124 140.804 5.22 143.036 8.82 143.18C8.964 146.816 11.196 149.876 14.364 151.244H0.756002ZM9.576 143.144C13.572 142.964 16.92 140.264 18 136.556C19.08 140.228 22.428 142.964 26.424 143.144C26.244 147.644 22.536 151.208 18 151.208C13.464 151.244 9.792 147.644 9.576 143.144ZM35.244 151.244H21.636C24.804 149.876 27.036 146.78 27.18 143.18C30.816 143.036 33.876 140.804 35.244 137.636V151.244V151.244ZM27.18 142.388C27 138.392 24.3 135.044 20.592 133.964C24.264 132.884 27 129.536 27.18 125.54C31.68 125.72 35.244 129.428 35.244 133.964C35.244 138.5 31.644 142.208 27.18 142.388ZM35.244 130.364C33.876 127.196 30.78 124.964 27.18 124.82C27.036 121.184 24.804 118.124 21.636 116.756H35.244V130.364V130.364Z" fill="black" fill-opacity="0.25"/>
<path d="M189 185.556V174H153V210H189V185.952C189 185.88 189 185.808 189 185.772C189 185.7 189 185.628 189 185.556ZM153.72 174.792H173.124C168.66 176.448 165.492 180.732 165.492 185.772C165.492 188.184 166.248 190.452 167.508 192.324C165.204 193.26 163.368 195.096 162.432 197.4C161.568 197.004 160.596 196.752 159.588 196.752C157.032 196.752 154.8 198.228 153.684 200.352V174.792H153.72ZM162.9 198.48C164.484 199.524 165.528 201.324 165.528 203.376C165.528 204.492 165.204 205.536 164.664 206.4C163.332 204.924 162.54 202.944 162.54 200.82C162.54 200.028 162.684 199.236 162.9 198.48ZM153.72 209.28V206.4C154.368 207.624 155.34 208.632 156.564 209.28H153.72ZM159.444 209.28C156.276 209.172 153.756 206.58 153.756 203.412C153.756 200.172 156.384 197.508 159.66 197.508C160.596 197.508 161.46 197.724 162.252 198.12C161.964 198.984 161.82 199.92 161.82 200.856C161.82 203.268 162.756 205.428 164.268 207.084C163.224 208.38 161.64 209.244 159.876 209.316H159.444V209.28ZM162.648 209.28C163.44 208.848 164.16 208.272 164.736 207.588C165.492 208.272 166.356 208.884 167.328 209.28H162.648ZM165.204 206.94C165.852 205.896 166.248 204.672 166.248 203.376C166.248 201 164.988 198.948 163.116 197.76C163.98 195.564 165.744 193.8 167.976 192.936C170.136 195.708 173.484 197.472 177.228 197.472C177.696 197.472 178.2 197.436 178.668 197.364C179.136 198.408 179.388 199.56 179.388 200.784C179.388 205.428 175.608 209.208 170.964 209.208C168.732 209.28 166.716 208.38 165.204 206.94ZM168.732 192.72C169.452 192.54 170.208 192.396 170.964 192.396C174.096 192.396 176.868 194.124 178.308 196.68C177.948 196.716 177.588 196.752 177.228 196.752C173.844 196.752 170.784 195.168 168.732 192.72ZM188.244 209.28H174.636C177.912 207.876 180.18 204.636 180.18 200.856C180.18 199.596 179.928 198.408 179.46 197.292C183.492 196.536 186.804 193.656 188.244 189.876V209.28V209.28ZM188.244 185.952C188.136 191.28 184.248 195.708 179.136 196.572C177.588 193.656 174.528 191.64 171 191.64C170.064 191.64 169.128 191.784 168.264 192.036C167.004 190.236 166.284 188.076 166.284 185.736C166.284 179.688 171.216 174.756 177.264 174.756C183.24 174.756 188.136 179.58 188.244 185.556V185.952V185.952ZM188.244 181.632C187.056 178.464 184.536 175.944 181.368 174.756H188.244V181.632Z" fill="black" fill-opacity="0.25"/>
<path d="M158.832 183.576C160.884 183.576 162.54 181.92 162.54 179.868C162.54 177.816 160.884 176.16 158.832 176.16C156.78 176.16 155.124 177.816 155.124 179.868C155.124 181.92 156.78 183.576 158.832 183.576ZM158.832 176.88C160.488 176.88 161.82 178.212 161.82 179.868C161.82 181.524 160.488 182.856 158.832 182.856C157.176 182.856 155.844 181.524 155.844 179.868C155.844 178.212 157.176 176.88 158.832 176.88Z" fill="black" fill-opacity="0.25"/>
<path d="M0 58V94H36V58H0ZM0.756 58.756H12.852C7.056 60.484 2.484 65.056 0.756 70.852V58.756ZM0.756 93.244V81.148C2.484 86.944 7.056 91.516 12.852 93.244H0.756ZM4.212 79.42C4.212 71.824 10.404 65.632 18 65.632C25.596 65.632 31.788 71.824 31.788 79.42C31.788 84.568 28.98 89.032 24.804 91.408C27 89.5 28.404 86.692 28.404 83.56C28.404 77.836 23.76 73.156 18 73.156C12.276 73.156 7.596 77.8 7.596 83.56C7.596 86.692 9 89.5 11.196 91.408C7.02 89.068 4.212 84.568 4.212 79.42ZM18.504 93.208C18.324 93.208 18.18 93.244 18 93.244C17.82 93.244 17.676 93.244 17.496 93.208C15.048 92.956 13.14 90.904 13.14 88.384C13.14 85.72 15.3 83.524 18 83.524C20.664 83.524 22.86 85.684 22.86 88.384C22.86 90.904 20.916 92.956 18.504 93.208ZM23.58 88.384C23.58 85.288 21.06 82.804 18 82.804C14.94 82.804 12.42 85.324 12.42 88.384C12.42 89.968 13.068 91.372 14.112 92.416C10.728 90.904 8.352 87.52 8.352 83.596C8.352 78.268 12.672 73.948 18 73.948C23.328 73.948 27.648 78.268 27.648 83.596C27.648 87.52 25.272 90.904 21.888 92.416C22.932 91.372 23.58 89.968 23.58 88.384ZM35.244 93.244H23.148C28.944 91.516 33.516 86.944 35.244 81.148V93.244V93.244ZM27.864 90.112C30.744 87.448 32.544 83.632 32.544 79.42C32.544 71.392 26.028 64.876 18 64.876C9.972 64.876 3.456 71.392 3.456 79.42C3.456 83.632 5.256 87.448 8.136 90.112C3.672 86.98 0.756 81.832 0.756 75.964C0.756 66.46 8.496 58.72 18 58.72C27.504 58.72 35.244 66.46 35.244 75.964C35.244 81.832 32.328 87.016 27.864 90.112ZM35.244 70.852C33.516 65.056 28.944 60.484 23.148 58.756H35.244V70.852V70.852Z" fill="black" fill-opacity="0.25"/>
</svg>
