<svg width="38" height="227" viewBox="0 0 38 227" fill="none" xmlns="http://www.w3.org/2000/svg">
<path d="M38 76H0V114H38V76ZM19.076 94.354L10.298 85.652L19 76.95L27.74 85.69L19.076 94.354ZM18.354 94.924L9.652 103.702L0.95 95L9.69 86.26L18.354 94.924ZM18.924 95.608L27.702 104.31L19 113.012L10.26 104.272L18.924 95.608ZM19.646 95.076L28.348 86.298L37.05 95L28.31 103.74L19.646 95.076ZM28.88 85.728L37.202 77.368V94.05L28.88 85.728ZM36.632 76.798L28.272 85.158L19.912 76.798H36.632V76.798ZM9.728 85.082L1.368 76.76H18.05L9.728 85.082ZM0.798 77.33L9.158 85.69L0.798 94.05V77.33ZM9.082 104.234L0.76 112.594V95.95L9.082 104.234ZM1.368 113.202L9.728 104.842L18.088 113.202H1.368ZM28.272 104.88L36.632 113.202H19.95L28.272 104.88ZM37.202 112.632L28.842 104.272L37.202 95.912V112.632Z" fill="#BBBBBB"/>
<path d="M38 113H0V151H38V113ZM25.65 144.882C22.192 144.882 19.418 142.07 19.418 138.65C19.418 135.192 22.23 132.418 25.65 132.418C29.108 132.418 31.882 135.23 31.882 138.65C31.92 142.07 29.108 144.882 25.65 144.882ZM31.92 141.88V144.882H28.918C30.172 144.198 31.236 143.172 31.92 141.88ZM25.65 131.582C21.774 131.582 18.62 134.736 18.62 138.612C18.62 141.31 20.178 143.666 22.42 144.844H6.118V132.342H19.418V119.042H31.92V135.344C30.742 133.14 28.386 131.582 25.65 131.582ZM6.118 131.582V119.08H18.62V131.582H6.118ZM32.148 118.32H19.418H5.89L1.368 113.798H36.67L32.148 118.32ZM5.32 118.89V132.418V145.148L0.798002 149.67V114.368L5.32 118.89ZM5.89 145.68H32.148L36.67 150.202H1.368L5.89 145.68ZM32.718 145.11V118.852L37.24 114.33V149.632L32.718 145.11Z" fill="#BBBBBB"/>
<path d="M0 37.44V76.6V77H38V37H0V37.44V37.44ZM2.546 42.88L18.354 76.16H13.072L2.546 42.88ZM12.236 76.16H6.46L1.482 42.24L12.236 76.16ZM3.61 43.24L24.472 76.16H19.228L3.61 43.24ZM4.864 43.72L30.552 76.16H25.422L4.864 43.72ZM6.308 44.24L36.632 76.16H31.578L6.308 44.24ZM35.454 71.12L19.646 37.84H24.928L35.454 71.12ZM25.764 37.84H31.54L36.518 71.76L25.764 37.84ZM34.39 70.76L13.528 37.84H18.734L34.39 70.76ZM33.136 70.28L7.448 37.84H12.578L33.136 70.28ZM31.692 69.76L1.368 37.84H6.422L31.692 69.76ZM0.798 42.88L5.662 76.16H0.798V42.88ZM37.202 71.12L32.338 37.84H37.202V71.12Z" fill="#BBBBBB"/>
<path d="M38 190V150H0V190H38ZM33.44 151.76C32.072 154.08 29.526 158.44 29.526 163.48C29.526 165.68 30.742 168 31.882 170.2C32.984 172.32 34.162 174.52 34.162 176.52C34.162 180.08 33.022 181.56 31.844 183.16C30.742 184.6 29.64 186.12 29.564 189.16H26.448C26.524 186.36 27.17 185 27.892 183.6C28.69 182 29.526 180.32 29.526 176.52C29.526 174.36 28.728 172.08 27.968 169.88C27.208 167.72 26.448 165.52 26.448 163.48C26.448 158.6 28.12 154.36 28.994 152.08C29.222 151.48 29.374 151.08 29.45 150.84H34.01C33.82 151.08 33.63 151.4 33.44 151.76ZM28.272 151.8C27.36 154.12 25.688 158.44 25.688 163.48C25.688 165.64 26.486 167.92 27.246 170.16C28.006 172.32 28.766 174.52 28.766 176.56C28.766 180.16 27.968 181.72 27.208 183.28C26.486 184.72 25.764 186.2 25.688 189.2H22.534C22.572 186.36 22.914 185 23.256 183.56C23.636 181.96 24.054 180.32 24.054 176.56C24.054 174.44 23.674 172.16 23.294 169.96C22.914 167.8 22.534 165.56 22.534 163.48C22.534 158.56 23.37 154.32 23.826 152.04C23.94 151.48 24.016 151.12 24.054 150.84H28.652C28.538 151.12 28.386 151.44 28.272 151.8ZM23.066 151.88C22.61 154.2 21.774 158.48 21.774 163.48C21.774 165.6 22.154 167.88 22.534 170.08C22.914 172.24 23.294 174.48 23.294 176.52C23.294 180.16 22.876 181.76 22.496 183.32C22.154 184.76 21.774 186.24 21.736 189.16H19.304V150.84H23.256C23.218 151.12 23.142 151.48 23.066 151.88ZM18.62 189.16H16.226C16.188 186.2 15.846 184.72 15.466 183.32C15.086 181.76 14.668 180.16 14.668 176.52C14.668 174.44 15.048 172.24 15.428 170.08C15.808 167.88 16.188 165.6 16.188 163.48C16.188 158.48 15.352 154.2 14.896 151.88C14.82 151.48 14.744 151.12 14.706 150.84H18.582V189.16H18.62ZM14.212 152.04C14.668 154.32 15.504 158.56 15.504 163.48C15.504 165.56 15.124 167.8 14.744 169.96C14.364 172.16 13.984 174.4 13.984 176.56C13.984 180.28 14.402 181.96 14.782 183.56C15.124 185 15.466 186.36 15.504 189.2H12.35C12.274 186.2 11.552 184.72 10.83 183.28C10.07 181.76 9.27201 180.16 9.27201 176.56C9.27201 174.52 10.032 172.32 10.792 170.16C11.552 167.96 12.35 165.68 12.35 163.48C12.35 158.44 10.678 154.12 9.766 151.8C9.614 151.44 9.5 151.12 9.386 150.84H13.984C14.022 151.12 14.098 151.48 14.212 152.04ZM9.04401 152.08C9.91801 154.36 11.59 158.6 11.59 163.48C11.59 165.52 10.83 167.72 10.07 169.88C9.31 172.08 8.51201 174.36 8.51201 176.52C8.51201 180.32 9.348 181.96 10.146 183.6C10.868 185 11.514 186.36 11.59 189.16H8.436C8.322 186.12 7.22 184.64 6.156 183.16C4.978 181.56 3.838 180.08 3.838 176.52C3.838 174.52 4.978 172.32 6.118 170.2C7.296 167.96 8.47401 165.68 8.47401 163.48C8.47401 158.4 5.928 154.08 4.56 151.76C4.37 151.44 4.18 151.12 4.028 150.88H8.588C8.664 151.12 8.81601 151.48 9.04401 152.08ZM37.202 189.16H30.286C30.362 186.4 31.35 185.08 32.414 183.64C33.63 182 34.884 180.32 34.884 176.52C34.884 174.32 33.668 172.04 32.528 169.8C31.426 167.68 30.248 165.44 30.248 163.44C30.248 158.6 32.718 154.4 34.048 152.12C34.428 151.48 34.656 151.08 34.77 150.8H37.164V189.16H37.202ZM0.798002 150.84H3.19201C3.30601 151.12 3.53401 151.52 3.91401 152.16C5.24401 154.44 7.71401 158.64 7.71401 163.48C7.71401 165.48 6.57401 167.68 5.43401 169.84C4.29401 172.04 3.078 174.36 3.078 176.56C3.078 180.36 4.332 182.08 5.548 183.68C6.612 185.08 7.6 186.44 7.676 189.2H0.76V150.84H0.798002Z" fill="#BBBBBB"/>
<path d="M0 0V38H38V0H0ZM19 16.264C17.86 12.388 14.326 9.49999 10.108 9.30999C10.298 4.55999 14.212 0.798003 19 0.798003C23.788 0.798003 27.702 4.59799 27.892 9.30999C23.674 9.49999 20.14 12.35 19 16.264ZM27.892 10.108C27.664 14.668 24.016 18.354 19.418 18.582C19.646 13.984 23.294 10.298 27.892 10.108ZM27.892 27.854C23.332 27.626 19.646 23.978 19.418 19.38C24.016 19.608 27.664 23.294 27.892 27.854ZM18.582 18.582C14.022 18.354 10.336 14.706 10.108 10.108C14.706 10.298 18.354 13.984 18.582 18.582ZM0.798002 0.798003H15.162C11.818 2.242 9.462 5.50999 9.31 9.30999C5.472 9.46199 2.242 11.818 0.798002 15.162V0.798003V0.798003ZM9.31 10.108C9.5 14.326 12.35 17.86 16.264 19C12.388 20.14 9.5 23.674 9.31 27.892C4.56 27.702 0.798002 23.788 0.798002 19C0.798002 14.212 4.598 10.298 9.31 10.108ZM18.582 19.418C18.354 23.978 14.706 27.664 10.108 27.892C10.336 23.294 14.022 19.608 18.582 19.418ZM0.798002 37.202V22.838C2.242 26.182 5.51 28.538 9.31 28.69C9.462 32.528 11.818 35.758 15.162 37.202H0.798002ZM10.108 28.652C14.326 28.462 17.86 25.612 19 21.698C20.14 25.574 23.674 28.462 27.892 28.652C27.702 33.402 23.788 37.164 19 37.164C14.212 37.202 10.336 33.402 10.108 28.652ZM37.202 37.202H22.838C26.182 35.758 28.538 32.49 28.69 28.69C32.528 28.538 35.758 26.182 37.202 22.838V37.202V37.202ZM28.69 27.854C28.5 23.636 25.65 20.102 21.736 18.962C25.612 17.822 28.5 14.288 28.69 10.07C33.44 10.26 37.202 14.174 37.202 18.962C37.202 23.75 33.402 27.664 28.69 27.854ZM37.202 15.162C35.758 11.818 32.49 9.46199 28.69 9.30999C28.538 5.47199 26.182 2.242 22.838 0.798003H37.202V15.162V15.162Z" fill="#BBBBBB"/>
<path d="M38 201.198V189H0V227H38V201.616C38 201.54 38 201.464 38 201.426C38 201.35 38 201.274 38 201.198ZM0.76 189.836H21.242C16.53 191.584 13.186 196.106 13.186 201.426C13.186 203.972 13.984 206.366 15.314 208.342C12.882 209.33 10.944 211.268 9.956 213.7C9.044 213.282 8.01801 213.016 6.95401 213.016C4.25601 213.016 1.90001 214.574 0.722009 216.816V189.836H0.76ZM10.45 214.84C12.122 215.942 13.224 217.842 13.224 220.008C13.224 221.186 12.882 222.288 12.312 223.2C10.906 221.642 10.07 219.552 10.07 217.31C10.07 216.474 10.222 215.638 10.45 214.84ZM0.76 226.24V223.2C1.444 224.492 2.47001 225.556 3.76201 226.24H0.76ZM6.80201 226.24C3.45801 226.126 0.798002 223.39 0.798002 220.046C0.798002 216.626 3.572 213.814 7.03 213.814C8.018 213.814 8.93 214.042 9.766 214.46C9.462 215.372 9.31 216.36 9.31 217.348C9.31 219.894 10.298 222.174 11.894 223.922C10.792 225.29 9.12 226.202 7.258 226.278H6.80201V226.24ZM10.184 226.24C11.02 225.784 11.78 225.176 12.388 224.454C13.186 225.176 14.098 225.822 15.124 226.24H10.184ZM12.882 223.77C13.566 222.668 13.984 221.376 13.984 220.008C13.984 217.5 12.654 215.334 10.678 214.08C11.59 211.762 13.452 209.9 15.808 208.988C18.088 211.914 21.622 213.776 25.574 213.776C26.068 213.776 26.6 213.738 27.094 213.662C27.588 214.764 27.854 215.98 27.854 217.272C27.854 222.174 23.864 226.164 18.962 226.164C16.606 226.24 14.478 225.29 12.882 223.77ZM16.606 208.76C17.366 208.57 18.164 208.418 18.962 208.418C22.268 208.418 25.194 210.242 26.714 212.94C26.334 212.978 25.954 213.016 25.574 213.016C22.002 213.016 18.772 211.344 16.606 208.76ZM37.202 226.24H22.838C26.296 224.758 28.69 221.338 28.69 217.348C28.69 216.018 28.424 214.764 27.93 213.586C32.186 212.788 35.682 209.748 37.202 205.758V226.24V226.24ZM37.202 201.616C37.088 207.24 32.984 211.914 27.588 212.826C25.954 209.748 22.724 207.62 19 207.62C18.012 207.62 17.024 207.772 16.112 208.038C14.782 206.138 14.022 203.858 14.022 201.388C14.022 195.004 19.228 189.798 25.612 189.798C31.92 189.798 37.088 194.89 37.202 201.198V201.616V201.616ZM37.202 197.056C35.948 193.712 33.288 191.052 29.944 189.798H37.202V197.056Z" fill="#BBBBBB"/>
<path d="M6.15631 199.108C8.32231 199.108 10.0703 197.36 10.0703 195.194C10.0703 193.028 8.32231 191.28 6.15631 191.28C3.99031 191.28 2.24231 193.028 2.24231 195.194C2.24231 197.36 3.99031 199.108 6.15631 199.108ZM6.15631 192.04C7.90431 192.04 9.3103 193.446 9.3103 195.194C9.3103 196.942 7.90431 198.348 6.15631 198.348C4.40831 198.348 3.00231 196.942 3.00231 195.194C3.00231 193.446 4.40831 192.04 6.15631 192.04Z" fill="black" fill-opacity="0.25"/>
</svg>
