<svg width="39" height="227" viewBox="0 0 39 227" fill="none" xmlns="http://www.w3.org/2000/svg">
<path d="M19.89 75H0V94.89V114H19.89H39V94.89V75H19.89ZM19.071 83.892H8.892V94.071H0.819002C1.053 84.087 9.12599 76.014 19.071 75.819V83.892ZM29.25 94.071H19.89V84.711H29.25V94.071ZM9.672 94.89H19.032V104.25H9.672V94.89ZM19.89 94.89H29.25V104.25H19.89V94.89ZM19.071 94.071H9.71099V84.711H19.071V94.071ZM8.85299 94.89V105.069H19.032V113.142C9.048 112.908 0.975 104.835 0.78 94.89H8.85299ZM19.89 105.069H30.069V94.89H38.142C37.908 104.874 29.835 112.947 19.89 113.142V105.069ZM30.069 94.071V83.892H19.89V75.819C29.874 76.053 37.947 84.126 38.142 94.071H30.069ZM0.78 75.819H13.884C7.605 77.691 2.652 82.644 0.78 88.923V75.819ZM0.78 113.181V100.077C2.652 106.356 7.605 111.309 13.884 113.181H0.78ZM25.038 113.181C31.317 111.309 36.27 106.356 38.142 100.077V113.181H25.038ZM25.038 75.819H38.142V88.923C36.27 82.644 31.317 77.691 25.038 75.819Z" fill="#BBBBBB"/>
<path d="M25.467 38H13.572H12.753H0V50.4004V51.1992V62.8008V63.5996V76H12.714H13.533H25.428H26.247H39V63.5996V62.8008V51.1992V50.4004V38H26.286H25.467ZM25.467 73.1852L22.191 63.6376H25.467V73.1852ZM21.918 62.8008L17.94 51.1992H25.467V62.8008H21.918ZM13.533 40.8529L16.809 50.4004H13.533V40.8529ZM12.714 62.8008H9.165L5.187 51.1992H12.714V62.8008V62.8008ZM12.714 63.5996V73.1471L9.438 63.5996H12.714ZM13.533 51.1992H17.082L21.06 62.8008H13.533V51.1992ZM26.286 51.1992H29.835L33.813 62.8008H26.286V51.1992V51.1992ZM26.286 50.4004V40.8529L29.562 50.4004H26.286ZM25.467 50.4004H17.667L13.689 38.7988H25.428V50.4004H25.467ZM12.714 50.4004H4.914L0.935998 38.7988H12.675V50.4004H12.714ZM0.819002 40.8529L4.095 50.4004H0.819002V40.8529ZM0.819002 51.1992H4.368L8.346 62.8008H0.819002V51.1992V51.1992ZM0.819002 63.5996H8.619L12.597 75.2012H0.857999V63.5996H0.819002ZM13.533 63.5996H21.333L25.311 75.2012H13.572V63.5996H13.533ZM26.286 63.5996H34.086L38.064 75.2012H26.325V63.5996H26.286ZM38.181 73.1852L34.905 63.6376H38.181V73.1852ZM38.181 62.8008H34.632L30.654 51.1992H38.181V62.8008V62.8008ZM38.181 50.4004H30.381L26.403 38.7988H38.142V50.4004H38.181Z" fill="#BBBBBB"/>
<path d="M0 152H39V113H0V152V152ZM32.721 131.642L20.358 119.279H32.721V131.642ZM32.721 133.358V145.721H20.358L32.721 133.358ZM19.5 145.409L6.59101 132.5L19.5 119.591L32.409 132.5L19.5 145.409ZM6.27901 131.642V119.279H18.642L6.27901 131.642ZM18.642 145.721H6.27901V133.358L18.642 145.721ZM6.045 146.54H19.461L19.5 146.579L19.539 146.54H32.955L37.596 151.181H1.365L6.045 146.54ZM33.54 145.955V132.539L33.579 132.5L33.54 132.461V119.045L38.181 114.404V150.635L33.54 145.955ZM32.955 118.46H19.539L19.5 118.421L19.461 118.46H6.045L1.404 113.819H37.635L32.955 118.46ZM5.46 119.045V132.461L5.42101 132.5L5.46 132.539V145.955L0.819002 150.596V114.365L5.46 119.045Z" fill="#BBBBBB"/>
<path d="M0 151V189H39V151H0ZM0.819002 151.798H18.993L0.858005 169.468V151.798H0.819002ZM0.819002 188.202V170.532L18.954 188.202H0.819002ZM19.11 187.214L1.443 170L19.11 152.786V187.214ZM19.929 151.798H25.74C23.127 152.71 21.021 154.648 19.929 157.08V151.798ZM38.181 188.202H19.89V164.756C21.411 168.214 24.921 170.608 29.016 170.608C33.111 170.608 36.621 168.176 38.142 164.756V188.202H38.181ZM29.055 169.848C24.024 169.848 19.929 165.858 19.929 160.956C19.929 156.054 24.024 152.064 29.055 152.064C34.086 152.064 38.181 156.054 38.181 160.956C38.181 165.858 34.086 169.848 29.055 169.848ZM38.181 157.08C37.089 154.61 34.983 152.71 32.37 151.798H38.181V157.08Z" fill="#BBBBBB"/>
<path d="M24.6263 183.662H33.415V175.09H24.6263V183.662ZM25.4466 175.89H32.5947V182.862H25.4466V175.89Z" fill="#BBBBBB"/>
<path d="M23.868 227L3.51 227L-1.70474e-06 227L0 188L39 188L39 227L23.868 227ZM23.049 215.417C20.397 215.339 17.94 214.403 15.99 212.921L5.226 226.22L23.049 226.22L23.049 215.417ZM11.856 203.054C11.856 206.525 13.416 209.684 15.873 211.79L18.837 208.124C17.472 206.876 16.575 205.043 16.575 203.054C16.575 199.232 19.656 196.151 23.478 196.151C27.3 196.151 30.381 199.232 30.381 203.054C30.381 206.72 27.495 209.723 23.907 209.918L23.907 214.637C30.108 214.403 35.1 209.333 35.1 203.054C35.1 196.658 29.913 191.432 23.478 191.432C17.043 191.432 11.856 196.619 11.856 203.054ZM23.868 201.884L23.868 209.099C27.027 208.904 29.523 206.252 29.523 203.054C29.523 199.7 26.793 196.97 23.439 196.97C20.085 196.97 17.355 199.7 17.355 203.054C17.355 204.809 18.096 206.408 19.305 207.5L23.868 201.884ZM19.968 208.007C20.865 208.631 21.918 209.021 23.049 209.099L23.049 204.185L19.968 208.007ZM23.049 209.918C21.723 209.84 20.475 209.372 19.461 208.631L16.497 212.297C18.33 213.701 20.592 214.52 23.049 214.637L23.049 209.918ZM38.181 188.819L0.819002 188.819L0.819001 226.181L4.173 226.181L15.327 212.375C12.714 210.113 11.037 206.759 11.037 203.015C11.037 196.151 16.614 190.613 23.439 190.613C30.303 190.613 35.841 196.19 35.841 203.015C35.841 209.723 30.498 215.183 23.829 215.417L23.829 226.181L38.142 226.181L38.142 188.819L38.181 188.819Z" fill="#BBBBBB"/>
<path d="M0 0V39H39V0H0ZM0.819 0.819003H13.923C7.644 2.691 2.691 7.64399 0.819 13.923V0.819003ZM0.819 38.181V25.077C2.691 31.356 7.644 36.309 13.923 38.181H0.819ZM4.563 23.205C4.563 14.976 11.271 8.268 19.5 8.268C27.729 8.268 34.437 14.976 34.437 23.205C34.437 28.782 31.395 33.618 26.871 36.192C29.25 34.125 30.771 31.083 30.771 27.69C30.771 21.489 25.74 16.419 19.5 16.419C13.299 16.419 8.229 21.45 8.229 27.69C8.229 31.083 9.75 34.125 12.129 36.192C7.605 33.657 4.563 28.782 4.563 23.205ZM20.046 38.142C19.851 38.142 19.695 38.181 19.5 38.181C19.305 38.181 19.149 38.181 18.954 38.142C16.302 37.869 14.235 35.646 14.235 32.916C14.235 30.03 16.575 27.651 19.5 27.651C22.386 27.651 24.765 29.991 24.765 32.916C24.765 35.646 22.659 37.869 20.046 38.142ZM25.545 32.916C25.545 29.562 22.815 26.871 19.5 26.871C16.185 26.871 13.455 29.601 13.455 32.916C13.455 34.632 14.157 36.153 15.288 37.284C11.622 35.646 9.048 31.98 9.048 27.729C9.048 21.957 13.728 17.277 19.5 17.277C25.272 17.277 29.952 21.957 29.952 27.729C29.952 31.98 27.378 35.646 23.712 37.284C24.843 36.153 25.545 34.632 25.545 32.916ZM38.181 38.181H25.077C31.356 36.309 36.309 31.356 38.181 25.077V38.181V38.181ZM30.186 34.788C33.306 31.902 35.256 27.768 35.256 23.205C35.256 14.508 28.197 7.449 19.5 7.449C10.803 7.449 3.744 14.508 3.744 23.205C3.744 27.768 5.694 31.902 8.814 34.788C3.978 31.395 0.819 25.818 0.819 19.461C0.819 9.165 9.204 0.78 19.5 0.78C29.796 0.78 38.181 9.165 38.181 19.461C38.181 25.818 35.022 31.434 30.186 34.788ZM38.181 13.923C36.309 7.64399 31.356 2.691 25.077 0.819003H38.181V13.923V13.923Z" fill="#BBBBBB"/>
</svg>
